<?xml version="1.0" encoding="utf-8"?>
<!-- Generator: Adobe Illustrator 24.3.0, SVG Export Plug-In . SVG Version: 6.00 Build 0)  -->
<svg version="1.1" id="Layer_1" xmlns="http://www.w3.org/2000/svg" xmlns:xlink="http://www.w3.org/1999/xlink" x="0px" y="0px"
	 viewBox="0 0 2034.1 2314.2" style="enable-background:new 0 0 2034.1 2314.2;" xml:space="preserve">
<style type="text/css">
#kalp-1{
        animation: kalp-1 15s ease infinite;
      }
      @keyframes kalp-1{
        0%{ transform: translateY(-60px) translateX(0px);  }
        50%{ transform: translateY(0px) translateX(80px);}
        100%{ transform: translateY(-60px) translateX(0px); }
     }

	  #kalp-2{
        animation: kalp-2 10s ease infinite;
      }
      @keyframes kalp-2{
        0%{ transform: translateY(-20px) translateX(-60px);  }
        50%{ transform: translateY(0px) translateX(0px);}
        100%{ transform: translateY(-20px) translateX(-60px); }
     }
	 
	 #kalp-3{
        animation: kalp-3 8s ease infinite;
      }
      @keyframes kalp-3{
        0%{ transform: translateY(60px) translateX(40px);  }
        50%{ transform: translateY(0px) translateX(20px);}
        100%{ transform: translateY(60px) translateX(40px); }
     }

     #kalp-4{
        animation: kalp-4 6s ease infinite;
      }
      @keyframes kalp-4{
        0%{ transform: translateY(-30px) translateX(0px);  }
        50%{ transform: translateY(0px) translateX(-60px);}
        100%{ transform: translateY(-30px) translateX(0px); }
     }

	  #kalp-5{
        animation: kalp-5 8s ease infinite;
      }
      @keyframes kalp-5{
        0%{ transform: translateY(120px) translateX(0px);  }
        50%{ transform: translateY(0px) translateX(-40px);}
        100%{ transform: translateY(120px) translateX(0px); }
     }
	 
	 #kalp-6{
        animation: kalp-6 6s ease infinite;
      }
      @keyframes kalp-6{
        0%{ transform: translateY(30px) translateX(10px);  }
        50%{ transform: translateY(0px) translateX(-50px);}
        100%{ transform: translateY(30px) translateX(10px); }
     }
	 
	 #ses-1{
        animation: ses-1 6s ease-out infinite;
      }
      @keyframes ses-1{
        0%{ transform: translateY(10px) translateX(-10px);  }
        50%{ transform: translateY(-40px) translateX(40px);}
        100%{ transform: translateY(10px) translateX(-10px); }
     }

	 	 #ses-2{
        animation: ses-2 6s ease-out infinite;
      }
      @keyframes ses-2{
        0%{ transform: translateY(10px) translateX(-10px);  }
        50%{ transform: translateY(-60px) translateX(60px);}
        100%{ transform: translateY(10px) translateX(-10px); }
     }

	 	 #ses-3{
        animation: ses-3 6s ease-out infinite;
      }
      @keyframes ses-3{
        0%{ transform: translateY(10px) translateX(-10px);  }
        50%{ transform: translateY(-40px) translateX(40px);}
        100%{ transform: translateY(10px) translateX(-10px); }
     }

	.st0{fill:#E42235;}
	.st1{fill:#F7CC9A;}
	.st2{fill:#EA5982;}
	.st3{fill:#080809;}
	.st4{fill:#513520;}
	.st5{fill:#2576BB;}
	.st6{fill:#EC6780;}
	.st7{fill:#2F4250;}
	.st8{fill:#2D3E52;}
	.st9{fill:#23679B;}
	.st10{fill:none;stroke:#23679B;stroke-width:4;stroke-miterlimit:10;}
	.st11{fill:#F7C48C;}
	.st12{fill:#E63149;}
	.st13{fill:#F2B579;}
	.st14{fill:#CB92C0;}
	.st15{fill:none;stroke:#F7C48C;stroke-width:6;stroke-miterlimit:10;}
	.st16{fill:#683B11;}
	.st17{fill:#BD82B7;}
</style>
<g id="kalp-6">
	<path class="st0" d="M1753.4,368.1c-3.6,0.7-7.4,0.8-11.2,0.3L1753.4,368.1z"/>
	<path class="st0" d="M1764.9,302.3c-16.7-13.4-39.5-12.9-52.5,0.6c0.5-0.5,1-1.1,1.5-1.7c12.5-15.7,8.5-39.8-9.1-53.8
		c-17.6-14.1-42-12.8-54.5,2.9c-4.1,5.1-6.4,11-7.1,17.2l-0.6-0.5l5.3,104.3l94.2-2.9l11.2-0.3c0.9-0.2,1.8-0.3,2.6-0.6
		c7-1.8,13.4-5.6,18.1-11.5C1786.6,340.4,1782.5,316.3,1764.9,302.3z M1711.9,303.5c-0.5,0.5-1,1.1-1.5,1.7
		c-0.3,0.4-0.5,0.7-0.8,1.1l-0.3-0.3C1710.2,305.1,1711,304.3,1711.9,303.5z"/>
	<path class="st0" d="M1756.5,368l-3.2,0.1c0.9-0.2,1.8-0.3,2.6-0.6L1756.5,368z"/>
</g>
<g id="kalp-1">
	<path class="st0" d="M1558.5,772.4c-2,22.4-19.8,39.2-39.7,37.4c-0.6-0.1-1.3-0.1-1.9-0.2c18.3,3.5,31.2,22.1,29.4,43.3
		c-2,22.4-19.8,39.2-39.7,37.4c-7.5-0.7-14.2-3.8-19.5-8.6c-0.7-0.6-1.3-1.2-1.9-1.8l-6.6-9.3l-54.5-76.7l83.9-62.3l-0.1,0.8
		c5.5-2.9,11.8-4.2,18.2-3.7C1545.9,730.4,1560.5,750,1558.5,772.4z"/>
	<path class="st0" d="M1485,879.9c-2.6-2.7-4.9-5.9-6.6-9.3L1485,879.9z"/>
	<path class="st0" d="M1487,881.7l-0.1,0.7l-1.8-2.5C1485.7,880.5,1486.3,881.1,1487,881.7z"/>
</g>
<g id="kalp-2">
	<path class="st0" d="M1771.2,558.9c0.5-0.8,1-1.6,1.6-2.4L1771.2,558.9z"/>
	<path class="st0" d="M1794.9,693.5l8.4,5.9C1800.3,697.8,1797.5,695.8,1794.9,693.5z"/>
	<path class="st0" d="M1827.5,702.3c-7.2,1.9-14.6,1.2-21.3-1.6c-1-0.4-2-0.9-3-1.4l-8.4-5.9l-77.5-54.2l53.8-80.4l1.6-2.4
		c0.9-1.2,1.8-2.4,2.8-3.5c4.2-4.5,9.7-7.9,15.9-9.5c19.4-5.1,39.7,8.5,45.4,30.3c5.7,21.8-5.5,43.5-24.9,48.6
		c-0.6,0.2-1.2,0.3-1.8,0.4c18.4-2.8,36.8,10.4,42.1,31C1858.1,675.5,1847,697.2,1827.5,702.3z"/>
	<path class="st0" d="M1775.6,552.4l0.1,0.6c-1,1.1-2,2.2-2.8,3.5L1775.6,552.4z"/>
	<path class="st0" d="M1806.4,701.6l-3.2-2.2c1,0.5,2,1,3,1.4L1806.4,701.6z"/>
</g>
<g id="kalp-3">
	<path class="st0" d="M1565.9,611.2c-6.2,4.3-13.4,6.3-20.6,6c-1,0-2-0.1-2.9-0.2l-10.2-2.6l-91.7-23.5l23.9-101.7l0.5,0.8
		c2.4-5.8,6.3-10.9,11.6-14.7c16.4-11.6,40.2-6,53.2,12.4c13,18.4,10.2,42.7-6.2,54.2c-0.6,0.4-1.3,0.9-1.9,1.2
		c16.2-9.4,38.3-3.5,50.7,14C1585.1,575.3,1582.3,599.6,1565.9,611.2z"/>
	<path class="st0" d="M1542.4,617c-3.5-0.4-6.9-1.3-10.2-2.6L1542.4,617z"/>
	<path class="st0" d="M1545.7,617.8l-3.3-0.9c1,0.1,2,0.2,2.9,0.2L1545.7,617.8z"/>
</g>
<g id="kalp-5">
	<path class="st0" d="M1484.2,217.5c-1.7,7.2-5.8,13.4-11.3,18c-0.7,0.6-1.4,1.1-2.2,1.7h0c-3,2.2-6.4,3.9-10.1,5.2l-83.8,42.7
		l-45.7-85.4l-1.1-2.1l0-0.1l-2.4-4.5l0.6,0.2c-2-5.9-2.4-12.2-0.9-18.5c4.7-19.5,26.2-31.1,48.1-25.9c21.9,5.2,35.9,25.3,31.2,44.8
		c-0.5,2.1-1.2,4.2-2.1,6.1l0.4,0.1c0.1-0.4,0.2-0.8,0.3-1.2c4.7-19.5,26.2-31.1,48.1-25.9C1474.9,177.9,1488.8,198,1484.2,217.5z"
		/>
	<path class="st0" d="M1473.5,235.7l-2.9,1.5c0.8-0.5,1.5-1.1,2.2-1.7L1473.5,235.7z"/>
</g>
<g id="kalp-4">
	<path class="st0" d="M1335,490.3c-2.6,7-7.4,12.6-13.4,16.5c-0.7,0.4-1.3,0.8-2,1.2l-11.5,4.2l-88,32.1l-37.8-97.4l0.7,0.3
		c-1.3-6.1-0.9-12.4,1.3-18.5c7-18.8,29.8-27.7,50.8-19.9c21.1,7.8,32.5,29.4,25.5,48.2c-0.8,2.1-1.7,4-2.8,5.8l0.4,0.2
		c0.1-0.4,0.3-0.8,0.4-1.2c7-18.8,29.7-27.7,50.8-19.9C1330.5,449.9,1342,471.5,1335,490.3z"/>
	<path class="st0" d="M1319.5,508c-3.5,2-7.4,3.4-11.5,4.2L1319.5,508z"/>
	<path class="st0" d="M1322.1,507.1l-2.6,0.9c0.7-0.4,1.3-0.8,2-1.2L1322.1,507.1z"/>
</g>
<path class="st1" d="M263.4,1055.6c0,0,121.8-70.3,183.6,91.3c0,0,37.1,29.9,67.1,29.9c0,0,1.8,22.8-31.8,40.4
	c0,0,1.8,15.8,15.9,17.6l-31.8,65l60,15.8c0,0-8.8,22.8,8.8,49.2c0,0-19.4,19.3-107.7,26.3c0,0,17.7,101.9,38.8,107.1s-8.8,0-8.8,0
	s-111.2,17.6-160.7-45.7c0,0-10.6-89.6-19.4-103.6c0,0-95.3-39.2-33.6-78.4C244,1270.5,129.2,1131.2,263.4,1055.6z"/>
<path class="st2" d="M454.1,1303.3c0,0,33.6-73.8,44.1-68.5s12.4,3.5-22.1,56.2l-9.7,8.8c0,0,70.6,5.3,68.9,17.6
	S500,1320.9,454.1,1303.3z"/>
<path class="st3" d="M441.8,1190.9c0,0-33.3-26.3-74.9,12.3h-20.4l20.4,14.1C366.8,1217.2,404.7,1185.6,441.8,1190.9z"/>
<path class="st4" d="M410,1143.5c0,0-60-8.8-72.4,38.7c0,0,14.8-35,72.4-28.1V1143.5z"/>
<path class="st1" d="M501.2,1965.1c0,0-8.2,24.9-22.3,39c-14.1,14.1,180.1,59.7,280.8-22.8c0,0-26.4-55-31.7-74.1
	C722.5,1888.2,501.2,1965.1,501.2,1965.1z"/>
<path class="st5" d="M812.4,2314.2H383.2c-0.5-6.3-0.8-12.5-1-18.7c0-0.6,0-1.3-0.1-1.9c-3.8-126.9,44-216.5,73.8-259.7
	c1.6-2.4,3.2-4.6,4.7-6.7c8.8-12.1,15.4-19.5,17.5-21.8l0,0v0c0.5-0.5,0.7-0.8,0.7-0.8c15.2,6.5,30.6,11.2,45.8,14.5
	c3.5,0.8,6.9,1.4,10.4,2c16.3,2.8,32.4,4.1,48.1,4.2c3.5,0,7,0,10.5-0.1c18.3-0.5,36-2.6,52.4-5.5c3-0.5,6.1-1.1,9-1.7
	c22.5-4.6,42.5-10.8,58.9-16.8c2.4-0.9,4.7-1.7,6.9-2.6c22.8-8.8,37-16.5,38.5-17.3c0,0,0.1,0,0.1-0.1c0,0,0,0,0,0v0l0,0
	c0.5,0.3,1.8,5.4,3.7,14.1c1,4.9,2.3,10.9,3.7,17.9C780.9,2083.9,809.5,2251.9,812.4,2314.2z"/>
<path class="st6" d="M573.2,1169.8l-28.3,22.8l14.2,14.1l-14.2,10.5c0,0,17,49.4,48.8,61.6l17.7-8.3l22.9,17c0,0,21.2-0.4,24.7-34.4
	L573.2,1169.8z"/>
<path class="st7" d="M886.7,764.1c0,0,146.6,106.5,188.9,257.9C1075.7,1021.9,1001.5,1010,886.7,764.1z"/>
<path class="st6" d="M943.2,876.5l54.7-65c0,0,28.2,77.3,60,89.6l-70.6,47.4C987.4,948.5,919.9,904.2,943.2,876.5z"/>
<path class="st8" d="M998,811.5c0,0,66.7,64.6,60,89.6C1058,901.1,1028.2,896.7,998,811.5z"/>
<path class="st6" d="M673.4,1245l55.1,70.2c0,0,66.4,91.7,84,97c17.7,5.3,77.7-21.1,74.2-70.3c0,0-146.6-110.6-131.6-142.3
	L673.4,1245z"/>
<path id="ses-1" class="st6" d="M1058,811.5c0,0,22.9-186.2,40.6-175.6S1116.5,682.7,1058,811.5z"/>
<path id="ses-2" class="st6" d="M1070.8,826.8c0,0,121.8-143.2,130.8-124.8C1210.5,720.5,1190.7,750.9,1070.8,826.8z"/>
<path id="ses-3" class="st6" d="M1084.5,843.4c0,0,176.8-65.2,175.5-44.7C1258.7,819.1,1226.4,835.9,1084.5,843.4z"/>
<path class="st9" d="M488.7,2007.9c0,0,123.5,47.1,270.9-26.7l8.2,31.4c0,0-131.4,93-312.4,21.1l26.3-32.6L488.7,2007.9z"/>
<path class="st9" d="M411,2127h66.2l-18.5,129.1l-76.8,39.5C381.9,2295.7,395.1,2163.9,411,2127z"/>
<path class="st10" d="M635.5,2314.2c-31-178.5-24.8-236.1-19.7-253.9c1.8-6.1,3.5-7.5,3.5-7.5"/>
<path class="st5" d="M516.8,2053.9L516.8,2053.9c2.9,1.1,6.2-0.3,7.3-3.1l10.6-26.7c1.2-2.9-0.3-6.1-3.2-7.3l0,0
	c-2.9-1.1-6.2,0.3-7.3,3.1l-10.6,26.7C512.5,2049.5,513.9,2052.8,516.8,2053.9z"/>
<path class="st5" d="M583.1,2061.8L583.1,2061.8c3.1,0.5,5.9-1.6,6.4-4.7l4.6-29c0.5-3.1-1.6-5.9-4.7-6.4l0,0
	c-3.1-0.5-5.9,1.6-6.4,4.7l-4.6,29C577.9,2058.5,580,2061.4,583.1,2061.8z"/>
<path class="st5" d="M656.4,2056.6L656.4,2056.6c3.1-0.4,5.2-3.3,4.8-6.4l-4.3-29c-0.4-3.1-3.3-5.2-6.4-4.7l0,0
	c-3.1,0.4-5.2,3.3-4.8,6.4l4.3,29C650.5,2054.9,653.3,2057,656.4,2056.6z"/>
<path class="st5" d="M730,2037.1L730,2037.1c2.9-1,4.6-4.1,3.6-7.1l-9.2-27.9c-1-2.9-4.2-4.5-7.1-3.6l0,0c-2.9,1-4.6,4.1-3.6,7.1
	l9.2,27.9C723.8,2036.4,727,2038,730,2037.1z"/>
<path class="st11" d="M532.9,1360.9c0,0-62.2,29.2-109.2,20.6c0,0-16.6-0.7,11.3,113.3l1.3,4.6l30.2-1.1c0,0-25.6-14.5-38.8-107.1
	C427.6,1391.1,534.9,1383.1,532.9,1360.9z"/>
<path class="st12" d="M573.2,1169.8c0,0,221.8-252.9,313.6-405.7c0,0,95.3,220.7,188.9,257.9L659,1253
	C659,1253,614.5,1240.1,573.2,1169.8z"/>
<path class="st6" d="M705.2,1007c0,0,63.6,125.2,135.1,150.8l37.1-24.4c0,0-76.8-26.3-145.7-166L705.2,1007z"/>
<path class="st13" d="M501.2,1965.1l226.7-57.9C727.9,1907.2,682,2014.6,501.2,1965.1z"/>
<path class="st14" d="M297,1452.6c0,0-28.2,33.4-17.7,77.3s-31.8,122.9,67.1,242.4c98.9,119.4,86.5,159.8,77.7,180.9
	c0,0,277.2,66.7,324.9-86.1c0,0-67.1-124.7-49.4-135.2c0,0,81.8-87.6-164.2-210.8l-68.9-22.8C466.5,1498.2,327,1510.5,297,1452.6z"
	/>
<path class="st1" d="M570.7,1629.1l-25.8,125.8l223.6-28.3c0,0,42.4,10.5,44.1-87.8c1.8-98.4,0-226.6,0-226.6s51.2-75.5,53-96.6
	c1.8-21.1-40.6-75.5-63.6-59.7c-22.9,15.8-22.9,50.1-70.6,67.2c0,0-3.5-18-15.9-16.3s-1.8,17.6,24.7,63.2
	c26.5,45.7-26.5,261.7-26.5,261.7S568.9,1615.9,570.7,1629.1z"/>
<path class="st15" d="M713.7,1631.7c0,0,36.5-6,35.3,45.7"/>
<path class="st4" d="M212.2,1486c0,0-123.6,31.6-137.7-14.1c0,0,1.8-122.9,26.5-284.5c0,0,21.2-102.4,132.4-146.9
	c0,0,107.7-58.6,208.4,32.8l-40.6,40.4c0,0-45.9-31.6-63.6-28.1l38.8,28.1c0,0,3.5,15.8-93.6,94.8c0,0-53-45.7-49.4-31.6
	c0,0,51.2,161.6,100.6,203.7s49.4,72,49.4,72s-84.8,75.5-155.4,31.6L212.2,1486z"/>
<g>
	<g>
		<path class="st16" d="M174,1128.4c-13.7,10.7-17.7,28.7-18.7,45.2c-0.6,10.3-0.3,20.7,0.1,31c0.5,11.1,1.4,22.2,2.8,33.2
			c2.8,22.4,7.3,44.5,13.6,66.2c6,20.7,14.7,41.9,12.6,63.9c-1.5,15.9-10,33.1-25.2,39.9c-1.8,0.8-3.8,1.4-5.7,1.9
			c-1.4,0.3-0.9,1.9,0.4,1.5c16.2-3.9,26.8-18.5,31-34c5.4-20.2-0.9-41.3-6.9-60.6c-6.7-21.7-12.2-43.6-15.7-66.1
			c-3.5-22.4-5.2-45.1-5-67.8c0.1-16.8,1.8-36,13.6-49c1.4-1.6,3-3,4.7-4.3C176.6,1128.6,174.9,1127.8,174,1128.4L174,1128.4z"/>
	</g>
</g>
<g>
	<g>
		<path class="st16" d="M231.5,1099.7c12.6,5.8,24.5,13.2,35.3,22c10.8,8.8,20.5,19,28.8,30.3c4.6,6.3,8.8,13,12.4,20
			c0.3,0.6,2.4-0.2,2.2-0.6c-6.5-12.3-14.5-23.8-23.9-34c-9.4-10.3-20.1-19.4-31.8-27c-6.7-4.3-13.6-8.1-20.8-11.4
			c-0.4-0.2-1-0.1-1.4,0.1C232.1,1099.1,231.2,1099.6,231.5,1099.7L231.5,1099.7z"/>
	</g>
</g>
<g>
	<g>
		<path class="st16" d="M259.4,1077.2c15.2,0.8,30.3,4.6,44.2,10.8c13.8,6.2,26.6,14.8,37.5,25.4c6.2,6,11.7,12.7,16.5,19.9
			c0.4,0.6,2.4-0.3,2.2-0.6c-8.5-12.8-19.4-23.9-31.9-32.8c-12.6-8.9-26.7-15.6-41.5-19.6c-8.3-2.2-16.9-3.6-25.5-4.1
			c-0.5,0-1.2,0.1-1.5,0.4C259,1077,258.9,1077.2,259.4,1077.2L259.4,1077.2z"/>
	</g>
</g>
<g>
	<g>
		<path class="st16" d="M292.8,1051c16.8-5.6,34.5-7.9,52.2-7.2c17.6,0.7,35,4.5,51.3,11.1c9.1,3.7,17.8,8.3,26,13.8
			c0.5,0.3,2.3-0.6,2.1-0.7c-15-10-31.8-17.1-49.3-21.2c-17.5-4-35.7-5-53.6-2.8c-10,1.2-19.8,3.4-29.3,6.6
			c-0.2,0.1-0.8,0.3-0.7,0.6C291.6,1051.4,292.6,1051.1,292.8,1051L292.8,1051z"/>
	</g>
</g>
<g>
	<g>
		<path class="st16" d="M193.7,1168c-3.4,20.6-3,41.6,0.4,62.2c3.5,20.9,9.9,41.2,18.1,60.7c8.3,20,18.5,39.2,29.4,57.8
			c5.5,9.3,11.1,18.4,17,27.5c5.7,8.9,11.9,17.7,16.8,27.1c4.7,8.9,8.4,18.7,8.6,28.9c0.2,8.8-1.8,18.1-7.3,25.2
			c-1.3,1.7-2.8,3.3-4.5,4.7c-1.1,0.9,0.6,1.6,1.4,0.9c14.4-12.2,14.8-33.2,8.7-49.7c-3.7-9.9-9.4-18.9-15.1-27.8
			c-5.9-9.1-11.8-18.2-17.5-27.5c-11.5-18.7-22.2-38-31.2-58c-8.8-19.6-16.1-40-20.5-61c-4.3-20.7-5.8-42-3.3-63.1
			c0.3-2.7,0.7-5.3,1.1-8C196.1,1166.8,193.9,1167.1,193.7,1168L193.7,1168z"/>
	</g>
</g>
<path class="st17" d="M346.4,1666.9l27.4-82.6c0,0,116.9-26.3,176.3,14.1c59.4,40.4-14.7,175.6-14.7,175.6
	S346.4,1804.9,346.4,1666.9L346.4,1666.9z"/>
</svg>
