<?xml version="1.0" encoding="utf-8"?>
<!-- Generator: Adobe Illustrator 21.0.0, SVG Export Plug-In . SVG Version: 6.00 Build 0)  -->
<svg version="1.1" id="Layer_1" xmlns="http://www.w3.org/2000/svg" xmlns:xlink="http://www.w3.org/1999/xlink" x="0px" y="0px"
	 viewBox="0 0 400 400" style="enable-background:new 0 0 400 400;" xml:space="preserve">
<style type="text/css">
	.st0{fill:#221DBF;}
	.st1{fill:#F7C421;}
	.st2{fill:#C30000;}
	.st3{fill:#EEEEEE;}
	.st4{opacity:0.2;}
</style>
<rect x="142" y="180.4" class="st0" width="117.5" height="58.8"/>
<polygon class="st1" points="259.5,278.4 239.9,292.4 220.3,306.3 204.6,317.5 196.8,317.5 181.1,306.4 142,278.5 181.1,239.2 
	220.3,239.2 "/>
<path class="st1" d="M166.9,117.9l-8.8,22c0,0,0,0,0,0c-10,10.5-16.2,24.8-16.2,40.5l-58.8,39.2L24.4,102.1L166.9,117.9z"/>
<polygon class="st2" points="220.3,239.2 204.6,317.5 200.7,337.1 196.8,317.5 196.8,317.5 181.1,239.2 "/>
<path class="st1" d="M200.7,121.7L142,180.4l0,0c0-15.7,6.2-30,16.2-40.5c0,0,0,0,0,0l8.8-22L200.7,121.7z"/>
<polygon class="st3" points="141.9,180.4 141.9,239.2 83.2,219.6 "/>
<polygon class="st3" points="318.2,219.6 259.5,239.2 259.5,180.4 "/>
<path class="st2" d="M259.5,121.7L236,133.4l0,0l-15.6,7.8l-19.6,9.8L142,180.4l0,0l16.2-40.4l0-0.1c0,0,0,0,0,0l8.8-22l14.2-35.4v0
	l19.6,9.8l47.9,24l0.1,0.1L259.5,121.7z"/>
<path d="M248.6,116.3l-47.9-24l-19.6-9.8L142,62.9h36.5c7.8,0,15.4,1.8,22.2,5.2c5.6,2.8,10.6,6.6,14.8,11.3L248.6,116.3
	L248.6,116.3z"/>
<polygon class="st0" points="161.5,292.4 161.5,317.6 181.1,306.4 "/>
<polygon class="st0" points="181.1,306.4 181.1,327.3 196.8,317.5 "/>
<polygon class="st0" points="220.3,306.3 220.3,327.3 204.6,317.5 "/>
<polygon class="st0" points="239.9,292.4 239.9,317.5 220.3,306.3 "/>
<polygon class="st1" points="377,102.1 318.2,219.6 259.5,180.4 259.5,180.4 259.5,180.4 200.7,121.7 200.9,121.7 200.9,121.7 
	248.6,116.3 248.7,116.3 "/>
<path class="st0" d="M259.5,180.4L259.5,180.4c0,32.5-26.3,58.7-58.7,58.8h0c-32.2,0-58.4-25.9-58.8-58c0-0.3,0-0.5,0-0.8
	c0-15.7,6.2-30,16.2-40.5c0,0,0,0,0,0c10.7-11.2,25.8-18.2,42.5-18.2h0.2c13.2,0,25.3,4.4,35.1,11.8
	C250.3,144.2,259.5,161.2,259.5,180.4z"/>
<circle class="st3" cx="200.7" cy="180.4" r="24.5"/>
<polygon class="st4" points="377,102.1 318.2,219.6 259.5,239.2 220.3,239.2 259.5,278.4 239.9,292.4 239.9,317.5 220.3,306.3 
	220.3,327.3 204.6,317.5 200.7,337.1 200.7,121.7 200.9,121.7 200.9,121.7 248.6,116.3 248.7,116.3 "/>
</svg>
