<?xml version="1.0" encoding="utf-8"?>
<!-- Generator: Adobe Illustrator 21.0.0, SVG Export Plug-In . SVG Version: 6.00 Build 0)  -->
<svg version="1.1" id="Layer_1" xmlns="http://www.w3.org/2000/svg" xmlns:xlink="http://www.w3.org/1999/xlink" x="0px" y="0px"
	 viewBox="0 0 400 400" style="enable-background:new 0 0 400 400;" xml:space="preserve">
<g>
	<g>
		<path d="M258.5,237.5H141.6c-1.2,0-2.2-1-2.2-2.2v-58.6c0-15.5,5.8-30.1,16.3-41.4v0l0.5-0.5c11.6-12.2,27.3-18.9,44.1-18.9
			c13.3,0,25.9,4.2,36.5,12.2c15.4,11.6,24.3,29.3,24.3,48.6v58.2C261.1,236.3,259.9,237.5,258.5,237.5z M142.9,234h114.7v-57.4
			c0-18.2-8.4-34.9-22.9-45.9c-10-7.5-21.9-11.5-34.4-11.5c-15.6,0-30.2,6.2-41.1,17.4l-0.5,0.5c-10.2,10.6-15.8,24.7-15.8,39.5V234
			z"/>
	</g>
	<g>
		<path d="M198.8,318.5l-60.4-43l39.9-40c0.6-0.6,1.6-0.9,2.5-0.6c0.9,0.3,1.5,1,1.7,1.9v0L198.8,318.5z M143.8,275.1l49.9,35.5
			l-14.2-71.3L143.8,275.1z M180.8,238L180.8,238C180.8,238,180.8,238,180.8,238z"/>
	</g>
	<g>
		<path d="M201.6,318.5l16.3-81.3c0.2-1,0.9-1.8,1.9-2c0.9-0.3,2,0,2.7,0.7l39.6,39.6L201.6,318.5z M221,239.3l-14.2,71.3l49.9-35.6
			L221,239.3z"/>
	</g>
	<g>
		<path d="M200.2,343.1L178.4,234H222L200.2,343.1z M198,314.2l2.3,11.2l17.6-87.9h-35.1L198,314.2z"/>
	</g>
	<g>
		<path d="M82.2,217.6c-0.2,0-0.4,0-0.6-0.1c-0.6-0.2-1.1-0.6-1.4-1.1L20,95.8L165.9,112c0.7,0.1,1.3,0.5,1.6,1.1
			c0.4,0.6,0.4,1.3,0.2,2l-8.5,21.7l-0.5,0.5c-10.1,10.6-15.7,24.5-15.8,39.2c0,0.7-0.4,1.4-1,1.8l-58.5,39
			C83.1,217.5,82.6,217.6,82.2,217.6z M25.9,100l56.8,113.6l56.7-37.8c0.2-15.2,6.1-29.6,16.5-40.7l7.9-19.8L25.9,100z M139.4,176.4
			C139.4,176.4,139.4,176.4,139.4,176.4C139.4,176.4,139.4,176.4,139.4,176.4z M140,175.4C140,175.4,140,175.4,140,175.4L140,175.4z
			 M165.5,115.5L165.5,115.5L165.5,115.5z M164.4,113.7C164.4,113.7,164.4,113.7,164.4,113.7L164.4,113.7z"/>
	</g>
	<g>
		<path d="M140.7,237.4c-0.2,0-0.5,0-0.7-0.1L82.2,218c-0.8-0.3-1.3-0.9-1.4-1.7c-0.1-0.8,0.2-1.6,0.9-2.1l57.8-38.5
			c0.6-0.4,1.5-0.5,2.2-0.1c0.7,0.4,1.1,1.1,1.1,1.9v57.8c0,0.7-0.3,1.3-0.9,1.7C141.6,237.2,141.2,237.4,140.7,237.4z M141.2,234
			L141.2,234C141.2,234,141.2,234,141.2,234z M86,215.5l53.4,17.8v-53.4L86,215.5z M83.7,217.1L83.7,217.1
			C83.7,217.1,83.7,217.1,83.7,217.1z M83.3,214.7L83.3,214.7C83.3,214.7,83.3,214.7,83.3,214.7z M141.5,178.5L141.5,178.5
			C141.5,178.5,141.5,178.5,141.5,178.5z"/>
	</g>
	<g>
		<path d="M259.4,237.6l-0.9-0.5c-0.5-0.4-0.8-1-0.8-1.6v-62l62.2,41.5l0,1.4c-0.1,0.8-0.6,1.4-1.4,1.7L259.4,237.6z M259.1,234
			C259.1,234,259.1,234,259.1,234L259.1,234z M261.1,179.9v53.4l53.4-17.8L261.1,179.9z"/>
	</g>
	<g>
		<path d="M152.4,143.7l27.2-67.9l74.9,37.5l-54.1,6c-16.1,0-30.8,6.3-41.8,17.9L152.4,143.7z M181.4,80.6l-19.5,48.9
			c10.8-8.8,24.2-13.6,38.4-13.6l42.2-4.7L181.4,80.6z"/>
	</g>
	<g>
		<path d="M248.5,114l-1.5-0.6L133.8,56.8h44.1c8,0,15.9,1.9,23.1,5.4c5.8,2.9,11,6.9,15.4,11.8l33.7,37.6L248.5,114z M148.5,60.2
			l92.5,46.4l-27.2-30.3c-4.1-4.6-8.9-8.3-14.4-11c-6.8-3.4-14.1-5.1-21.6-5.1H148.5z"/>
	</g>
	<g>
		<path d="M159.1,317.7V286l24.7,17.5L159.1,317.7z M162.6,292.7v19l14.7-8.5L162.6,292.7z"/>
	</g>
	<g>
		<path d="M178.8,327.6V300l17,12.1c0.8,0.6,1.3,1.5,1.3,2.5c0,1-0.6,1.9-1.4,2.5L178.8,327.6z M182.3,306.7v14.6l10.9-6.8
			L182.3,306.7z"/>
	</g>
	<g>
		<path d="M221.6,327.6l-17.1-10.7c-0.8-0.5-1.3-1.3-1.3-2.3c0-0.9,0.4-1.8,1.2-2.3l17.2-12.3V327.6z M207.3,314.5l10.9,6.8v-14.6
			L207.3,314.5z"/>
	</g>
	<g>
		<path d="M241.4,317.6l-24.7-14.1l24.7-17.6V317.6z M223.1,303.2l14.8,8.4v-18.9L223.1,303.2z"/>
	</g>
	<g>
		<path d="M318.2,217.5c-0.5,0-0.9-0.1-1.3-0.4l-59.3-39.5v-0.9c0-18.2-8.4-34.9-22.9-45.9c-10-7.5-21.9-11.5-34.4-11.5l-0.2-3.5
			l180.5-20.1l-60.2,120.5c-0.3,0.6-0.8,1-1.5,1.2C318.6,217.5,318.4,217.5,318.2,217.5z M317.2,214.7
			C317.2,214.7,317.2,214.7,317.2,214.7L317.2,214.7z M261.1,175.8l56.7,37.8L374.5,100l-159.4,17.7c7.8,2,15.1,5.4,21.6,10.4
			C252,139.5,260.8,156.8,261.1,175.8z"/>
	</g>
	<g>
		<path d="M200.2,203.1c-14.5,0-26.4-11.8-26.4-26.4c0-14.5,11.8-26.4,26.4-26.4c14.5,0,26.4,11.8,26.4,26.4
			C226.6,191.2,214.8,203.1,200.2,203.1z M200.2,153.8c-12.6,0-22.9,10.3-22.9,22.9c0,12.6,10.3,22.9,22.9,22.9
			c12.6,0,22.9-10.3,22.9-22.9C223.1,164.1,212.8,153.8,200.2,153.8z"/>
	</g>
</g>
</svg>
