<?xml version="1.0" encoding="utf-8"?>
<!-- Generator: Adobe Illustrator 21.0.0, SVG Export Plug-In . SVG Version: 6.00 Build 0)  -->
<svg version="1.1" xmlns="http://www.w3.org/2000/svg" xmlns:xlink="http://www.w3.org/1999/xlink" x="0px" y="0px"
	 viewBox="0 0 283.5 283.5" style="enable-background:new 0 0 283.5 283.5;" xml:space="preserve">
    <style>
 #markut{
   animation: markutlogo 10s ease infinite;
 }
 @keyframes markutlogo{
  0%{ transform: rotateZ(0deg) translateY(0px) translateX(2px); -webkit-transform: rotateZ(0deg) translateY(0px) translateX(2px); -moz-transform: rotateZ(0deg) translateY(0px) translateX(2px); -ms-transform: rotateZ(0deg) translateY(0px) translateX(2px); -o-transform: rotateZ(0deg) translateY(0px) translateX(2px); }
  50%{ transform: rotateZ(5deg) translateY(15px) translateX(12px); -webkit-transform: rotateZ(5deg) translateY(15px) translateX(12px); -moz-transform: rotateZ(5deg) translateY(15px) translateX(12px); -ms-transform: rotateZ(5deg) translateY(15px) translateX(12px); -o-transform: rotateZ(5deg) translateY(15px) translateX(12px); }
  100%{ transform: rotateZ(0deg) translateY(0px) translateX(2px); -webkit-transform: rotateZ(0deg) translateY(0px) translateX(2px); -moz-transform: rotateZ(0deg) translateY(0px) translateX(2px); -ms-transform: rotateZ(0deg) translateY(0px) translateX(2px); -o-transform: rotateZ(0deg) translateY(0px) translateX(2px); }
}

 #kumpas{
  animation: kumpas 8s ease infinite;
}
@keyframes kumpas{
  0%{ transform: rotateZ(0deg); -webkit-transform: rotateZ(0deg); -moz-transform: rotateZ(0deg); -ms-transform: rotateZ(0deg); -o-transform: rotateZ(0deg); }
  50%{ transform: rotateZ(-1deg); -webkit-transform: rotateZ(-1deg); -moz-transform: rotateZ(-1deg); -ms-transform: rotateZ(-1deg); -o-transform: rotateZ(-1deg); }
  100%{ transform: rotateZ(0deg); -webkit-transform: rotateZ(0deg); -moz-transform: rotateZ(0deg); -ms-transform: rotateZ(0deg); -o-transform: rotateZ(0deg); }
}
#t-cetvel{
  animation: t-cetvel 10s ease infinite;
}
@keyframes t-cetvel{
  0%{ transform: rotateZ(0deg); -webkit-transform: rotateZ(0deg); -moz-transform: rotateZ(0deg); -ms-transform: rotateZ(0deg); -o-transform: rotateZ(0deg); }
  50%{ transform: rotateZ(1deg); -webkit-transform: rotateZ(1deg); -moz-transform: rotateZ(1deg); -ms-transform: rotateZ(1deg); -o-transform: rotateZ(1deg); }
  100%{ transform: rotateZ(0deg); -webkit-transform: rotateZ(0deg); -moz-transform: rotateZ(0deg); -ms-transform: rotateZ(0deg); -o-transform: rotateZ(0deg); }
}
#gonye{
  animation: gonye 8s ease-in-out infinite;
}
@keyframes gonye{
  0%{ transform: rotateZ(0deg); -webkit-transform: rotateZ(0deg); -moz-transform: rotateZ(0deg); -ms-transform: rotateZ(0deg); -o-transform: rotateZ(0deg); }
  50%{ transform: rotateZ(-1deg); -webkit-transform: rotateZ(-1deg); -moz-transform: rotateZ(-1deg); -ms-transform: rotateZ(-1deg); -o-transform: rotateZ(-1deg); }
  100%{ transform: rotateZ(0deg); -webkit-transform: rotateZ(0deg); -moz-transform: rotateZ(0deg); -ms-transform: rotateZ(0deg); -o-transform: rotateZ(0deg); }
}
#pergel{
  animation: pergel 7s ease-in infinite;
  -webkit-animation: pergel 7s ease-in infinite;
}
@keyframes pergel{
  0%{ transform: rotateZ(0deg); -webkit-transform: rotateZ(0deg); -moz-transform: rotateZ(0deg); -ms-transform: rotateZ(0deg); -o-transform: rotateZ(0deg); }
  50%{ transform: rotateZ(-1deg); -webkit-transform: rotateZ(-1deg); -moz-transform: rotateZ(-1deg); -ms-transform: rotateZ(-1deg); -o-transform: rotateZ(-1deg); }
  100%{ transform: rotateZ(0deg); -webkit-transform: rotateZ(0deg); -moz-transform: rotateZ(0deg); -ms-transform: rotateZ(0deg); -o-transform: rotateZ(0deg); }
}
#aci-olcer{
  animation: aci-olcer 7s ease-in infinite;
  -webkit-animation: aci-olcer 7s ease-in infinite;
}
@keyframes aci-olcer{
  0%{ transform: rotateZ(0deg); -webkit-transform: rotateZ(0deg); -moz-transform: rotateZ(0deg); -ms-transform: rotateZ(0deg); -o-transform: rotateZ(0deg); }
  50%{ transform: rotateZ(-1deg); -webkit-transform: rotateZ(-1deg); -moz-transform: rotateZ(-1deg); -ms-transform: rotateZ(-1deg); -o-transform: rotateZ(-1deg); }
  100%{ transform: rotateZ(0deg); -webkit-transform: rotateZ(0deg); -moz-transform: rotateZ(0deg); -ms-transform: rotateZ(0deg); -o-transform: rotateZ(0deg); }
}
        
	.st0{fill:#F9E9E8;}
	.st1{fill:#E2E1E1;}
	.st2{fill:#DC4E41;}
	.st3{fill:#221DBF;}
	.st4{fill:#F7C421;}
	.st5{fill:#C30000;}
	.st6{fill:#EEEEEE;}
	.st7{opacity:0.2;enable-background:new    ;}
	.st8{fill:#C6C3C2;}
	.st9{fill:#DBD6D5;}
	.st10{fill:#838383;}
	.st11{fill:#716E6E;}
	.st12{fill:#E95433;}
	.st13{fill:#DB4026;}
	.st14{fill:#D7D6D6;}
	.st15{fill:#CCC9CA;}
	.st16{fill:#CECECE;}
	.st17{fill:#A50202;}
	.st18{fill:#CCC6C7;}
	.st19{fill:#C84E41;}
	.st20{fill:url(#SVGID_1_);}
	.st21{fill:#4ABBC2;}
	.st22{fill:#C1F4F4;}
	.st23{fill:#E4AB82;}
	.st24{fill:#182A48;}
	.st25{fill:#7B463E;}
	.st26{fill:#888787;}
	.st27{fill:#C6C8C9;}
	.st28{fill:#5F44A0;}
	.st29{fill:#503126;}
	.st30{fill:#7255AA;}
	.st31{fill:#39173D;}
	.st32{fill:#472015;}
	.st33{fill:#7C7A7A;}
	.st34{fill:#91908F;}
	.st35{fill:#A03916;}
	.st36{fill:#532818;}
	.st37{fill:none;stroke:#A1B0B7;stroke-width:3;stroke-miterlimit:10;}
	.st38{fill:none;stroke:#9C9E9F;stroke-width:3;stroke-miterlimit:10;}
	.st39{fill:none;stroke:#118C99;stroke-width:3;stroke-miterlimit:10;}
	.st40{fill:none;stroke:#002E37;stroke-width:3;stroke-miterlimit:10;}
	.st41{fill:#512619;}
	.st42{fill:#FFFFFF;}
	.st43{font-family:'MyriadPro-Regular';}
	.st44{font-size:26.5373px;}
</style>
<path id="background" class="st0" d="M31.5,60.1C22,49.5,21,30.5,31.8,20.1c2-2.2,4.4-4.2,7-5.9s5.5-3.1,8.6-4.2
	c3.2-0.8,6.5-1.1,9.8-1c10.1,0.4,20.9,4.6,31.3,9.2c3,1.3,5.9,2.7,8.8,4C128,39.5,165,33.5,195,16.5c3.4-1.3,6.9-2.4,10.4-3.4
	c17.6-4.8,35.9-4.5,48,10.8c1.8,2.2,3.3,4.6,4.5,7.1c1.6,3.4,2.7,7,3.3,10.8c4.7,20.6-6.3,39.6-10.9,60c-0.7,3.4-1.2,6.9-1.6,10.4
	c-2.7,24.4,1.6,49.4,11.2,72.1c1.1,3,2.1,5.9,3.2,8.9c6.2,17.8,11.4,35.8,6.3,54.7c-0.9,3.2-2.1,6.2-3.6,9.2
	c-2.9,5.9-7,11.4-12.4,16.1c-4.4,3.4-9.2,5.5-14.3,6.6c-10.2,2.2-21.5,0.5-32.9-2.8c-3.2-0.9-6.5-2-9.7-3.1
	c-25.4-12.4-54.1-20-81.2-12.8c-3.4,0.9-6.8,2-10.1,3.4c-19.2,11-44.2,18-65.2,5c-2.7-1.8-4.8-3.9-6.5-6.2c-1.7-2.3-2.9-4.7-3.7-7.3
	C23,235.5,44,219.5,42,199.5c-1-22-16-39-22.2-58.6c-0.5-2.6-0.7-5.2-0.6-8c0-2.7,0.1-5.4,0.3-8.1C21,109.5,27,95.5,35,82.5
	C39,75.5,38,66.5,31.5,60.1"/>
<path class="st1" d="M199.5,198.5H85c-5.2,0-9.5-4.3-9.5-9.5v-79.9c0-5.2,4.3-9.5,9.5-9.5l50.8-24.7l24.4,3.6l39.3,21.1
	c5.2,0,9.5,4.3,9.5,9.5V189C209,194.2,204.8,198.5,199.5,198.5z"/>
<path class="st2" d="M134.2,72.5L134.2,72.5c2.8,4.1,1.7,9.6-2.3,12.4l-42.3,29c-4.1,2.8-9.6,1.7-12.4-2.3l0,0
	c-2.8-4.1-1.7-9.6,2.3-12.4l42.3-29C125.9,67.4,131.4,68.4,134.2,72.5z"/>
<polygon class="st2" points="199.7,115 143.8,76.4 94.1,110.7 84.6,95.7 142.9,56 196.4,92.6 "/>
<g id="markut">
	
		<rect x="129.6" y="88.2" transform="matrix(0.9379 -0.347 0.347 0.9379 -24.1676 55.9187)" class="st3" width="28.9" height="14.5"/>
	<polygon class="st4" points="163.5,106.2 160.1,111.1 156.8,116 154.1,119.9 152.4,120.6 147.8,119.3 136.3,116.3 142.1,103.8 
		151.1,100.5 	"/>
	<polygon class="st5" points="151.1,100.5 154.1,119.9 154.9,124.8 152.4,120.6 152.4,120.6 142.1,103.8 	"/>
	<path class="st4" d="M127.9,93.6l-10.2,14L94.2,85.5l34.2-8.6l-0.1,5.8l0,0C126.8,86.2,126.7,90,127.9,93.6z"/>
	<path class="st4" d="M136.5,75.1l-8.6,18.6c-1.4-3.7-1.1-7.4,0.3-10.7l0,0l0.1-5.8L136.5,75.1z"/>
	<polygon class="st6" points="133,107.2 117.7,107.7 127.9,93.6 	"/>
	<polygon class="st6" points="172,87.6 160.1,97.1 155.1,83.6 	"/>
	<path class="st5" d="M147.1,69.8l-10.6,5.3c3-1.1,6.2-1.2,9.1-0.3l-2.9,3.2l-3.6,4l-11,11.8l0.2-10.9l0,0l0.1-5.8l0.2-9.4l0,0
		l5,0.6h0.4l4.7,0.6L147.1,69.8L147.1,69.8L147.1,69.8z"/>
	<path d="M147.1,69.8L134,68.3l-5.4-0.6l-10.7-1.2l8.4-3.1c1.8-0.6,3.7-0.9,5.5-0.7c1.5,0.2,3,0.6,4.4,1.4L147.1,69.8L147.1,69.8z"
		/>
	<polygon class="st3" points="142.1,117.8 144.3,123.6 147.8,119.3 	"/>
	<polygon class="st3" points="147.8,119.3 149.5,124.2 152.4,120.6 	"/>
	<polygon class="st3" points="156.8,116 158.6,120.8 154.1,119.9 	"/>
	<polygon class="st3" points="160.1,111.1 162.3,116.9 156.8,116 	"/>
	<path class="st4" d="M175.5,55.5L172,87.6l-16.9-4c-1.6-4.5-5.2-7.6-9.5-8.9c-2.9-0.9-6.1-0.8-9.1,0.3l10.6-5.3l0,0L175.5,55.5z"/>
	<path class="st4" d="M155.1,83.6l-12.4-5.7l-6.2-2.8l0,0c3-1.1,6.2-1.2,9.1-0.3C149.9,76.1,153.5,79.2,155.1,83.6z"/>
	<path class="st3" d="M146.5,102.2c-7.5,2.7-15.8-1.1-18.6-8.6c-1.4-3.7-1.1-7.4,0.3-10.7l0,0c1.5-3.5,4.4-6.4,8.3-7.9l0,0l0,0
		c3-1.1,6.2-1.2,9.1-0.3c4.3,1.3,7.8,4.4,9.5,8.9C157.8,91.1,154,99.4,146.5,102.2z"/>
	<ellipse transform="matrix(0.9379 -0.347 0.347 0.9379 -21.9517 54.6084)" class="st6" cx="141.5" cy="88.6" rx="6" ry="6"/>
	<polygon class="st7" points="175.5,55.5 172,87.6 160.1,97.1 151.1,100.5 163.5,106.2 160.1,111.1 162.3,116.9 156.8,115.9 
		158.6,120.8 154.1,119.9 154.9,124.8 136.5,75.1 147.1,69.8 147.1,69.8 	"/>
</g>
<g id="kumpas">
	
		<rect x="90.9" y="59.8" transform="matrix(0.8483 -0.5296 0.5296 0.8483 -41.1636 66.1517)" class="st8" width="7.9" height="90.2"/>
	
		<rect x="91.3" y="59.9" transform="matrix(0.8483 -0.5296 0.5296 0.8483 -41.1778 66.0357)" class="st9" width="6.7" height="89.9"/>
	<path class="st10" d="M76.1,89.4c-0.9-0.6-1.2-1.9-0.6-2.9s1.9-1.4,2.8-0.9c0.9,0.6,1.2,1.9,0.6,2.9S77,90,76.1,89.4"/>
	<path class="st10" d="M73.2,65.3l0.8-0.5l-1.4-2.3c0,0,0.1,0.7-1.4-1.4l3.9-2.4l0.6,0.1L87.2,51l-3.9-0.8L69.5,55l-9.3,5.8l1.8,2.9
		l-0.6,0.2l0.9,1.5l-3.9,2.3l3.7-1L65,65c0,0,0.7-0.8,1.2,1.4l1.5,2.3L73.2,65.3z"/>
	<polygon class="st8" points="61.4,63.9 60.4,64.5 59.9,64.4 55.9,66.9 57.7,67.4 62.2,65.2 	"/>
	<path class="st10" d="M60,66.9l-1.3,1.8l-0.5,2.1l4.2-2.6l0.3-0.5l1.7-0.7l1.6,2.5l12.7,20.3l2.8-1.8L68.9,67.5l-1.3,0.8L66.2,66
		c0,0-0.4-1.8-1.2-1.4c-0.8,0.5-2.8,1.7-2.8,1.7L60,66.9z"/>
	<path class="st10" d="M72.6,65.6L85.3,86l3-1.9l-9-14.4c0,0-0.9-0.3,1-2.3c1.8-2,8.1-8.6,8.1-8.6l1.3-3.8l-11.9,7.4
		c0,0,0,0.5-1.2,1.1C75.3,64.1,72.6,65.6,72.6,65.6"/>
	<path class="st11" d="M69.7,78.1L68.3,76c-0.1-0.1-0.3-0.2-0.4-0.1l-0.6,0.4c-0.1,0.1-0.2,0.3-0.1,0.4l1.4,2.1
		c0.1,0.1,0.3,0.2,0.4,0.1l0.6-0.4C69.8,78.5,69.8,78.3,69.7,78.1"/>
	<path class="st10" d="M70.1,77.1l-0.7-1c-0.1-0.1-0.3-0.1-0.4,0l-0.2,0.1c-0.1,0.1-0.2,0.3-0.1,0.4l0.7,1c0.1,0.1,0.3,0.2,0.4,0.1
		l0.2-0.1C70.1,77.5,70.2,77.3,70.1,77.1"/>
	
		<rect x="69.7" y="76.1" transform="matrix(0.8331 -0.5531 0.5531 0.8331 -30.6136 51.5546)" class="st10" width="0.8" height="0.8"/>
	<rect x="64.8" y="57.3" transform="matrix(0.8483 -0.5296 0.5296 0.8483 -22.6877 45.3882)" class="st8" width="6.1" height="10"/>
</g>
<g id="pergel">
	<polygon class="st10" points="73.5,105.5 77.5,114.7 80,117.3 78.5,110.5 	"/>
	<polyline class="st10" points="62.5,114.6 78.8,134.4 81.3,131.9 71.3,119.9 62.5,114.2 	"/>
	<rect x="58.6" y="99.1" transform="matrix(0.7609 -0.6489 0.6489 0.7609 -51.7994 64.1215)" class="st3" width="5" height="6.5"/>
	<path class="st12" d="M67.8,100.9l-8.6,7.4c0,0-1.9,2.1,1,4.2l8.6,7.3c0,0,1.3,1.3,3.3-0.3c1.9-1.6,5.6-4.8,5.6-4.8
		s1.3-1.4-0.2-3.6c-1.5-2.3-6.1-9-6.1-9S70.1,99.6,67.8,100.9"/>
	<path class="st12" d="M58,102.2l3.4-2.9c0.7-0.6,0.8-1.7,0.2-2.4l-7.5-8.8c-0.6-0.7-1.7-0.8-2.4-0.2l-3.4,2.9
		c-0.7,0.6-0.8,1.7-0.2,2.4l7.5,8.8C56.3,102.7,57.3,102.8,58,102.2"/>
	<path class="st3" d="M60.3,110.9c0.3,0.8,1.1,1.2,1.9,0.9c0.8-0.3,1.2-1.1,0.9-1.9s-1.1-1.2-1.9-0.9
		C60.5,109.3,60.1,110.1,60.3,110.9"/>
	<path class="st13" d="M61.5,99.2l-1.9,1.6l-9.7-11.3l1.9-1.6c0.7-0.6,1.7-0.5,2.3,0.2l7.5,8.8C62.3,97.6,62.2,98.6,61.5,99.2"/>
	<path class="st13" d="M63.2,104.8l11.4,12.5l2.5-2.2v-4.3l-5.8-8.5c0,0-1.6-2.9-3.7-1.1C65.5,102.9,63.2,104.8,63.2,104.8"/>
	<path class="st3" d="M67.8,104.8c0.3,0.7,1.1,1.1,1.8,0.8c0.7-0.3,1.1-1.1,0.8-1.8c-0.3-0.7-1.1-1.1-1.8-0.8
		C68,103.3,67.6,104.1,67.8,104.8"/>
</g>
<g id="gonye">
	<path class="st14" d="M75.2,141.8l-16.3,12.6l16.3,18.3v16.4c0,0-31.7-35-32.5-34.8s32.5-25.1,32.5-25.1V141.8z"/>
	<polygon class="st15" points="46,151.5 75.6,183.5 75.2,189.1 42.7,154.3 	"/>
	<polygon class="st15" points="46,151.5 48.2,153.9 75.2,133.1 75.2,129.2 	"/>
</g>
<g id="t-cetvel">
	<path class="st5" d="M262.7,87.2L255,81l1.4-1.7c2.5-3.2,2-7.8-1.1-10.3l-6.4-5.1c-3.2-2.5-7.8-2-10.3,1.1l-1.4,1.7l-8.1-6.5
		c-5.2-4.2-12.8-3.4-17,1.9l-1.4,1.8c-0.4,0.6-0.4,1.4,0.2,1.8l50.5,40.6c0.6,0.4,1.4,0.4,1.8-0.2l1.4-1.8
		C268.8,99,268,91.4,262.7,87.2"/>
	<polygon class="st16" points="209.4,107.6 230.4,81.5 241.6,90.6 209.4,130.6 	"/>
	<path class="st17" d="M235.9,85.7l16.3-19.3l3.7,3.1c1.3,1.1,2.1,2.7,2.1,4.4c0,2.1-0.5,4.9-3,7.1l9.7,8.2c0,0,7.3,8.6-2.4,17.5
		L235.9,85.7z"/>
	<polygon class="st18" points="235.9,85.7 209.4,118.2 209.4,130.6 241.6,90.6 	"/>
</g>
<g id="aci-olcer">
	<path class="st16" d="M189,150.5c-19,14.9-22.2,42.6-7,62l11.9-8.8c0,0-17-21.4,4.2-40.5c21.1-19.1,0,0,0,0s20.3-17.3,40.7,5.5
		s0,0,0,0l11.4-9.4c-15.2-19.4-42.8-23.1-61.9-8.3"/>
	
		<rect x="168.9" y="179.7" transform="matrix(0.7884 -0.6152 0.6152 0.7884 -69.3223 174.92)" class="st18" width="101.4" height="17"/>
</g>
<polygon class="st6" points="89.6,113.9 199.2,113.8 199.1,199.9 90,199.2 "/>
<polygon class="st1" points="143.5,158.1 85.2,197.5 80.7,111.8 "/>
<polygon class="st1" points="143.1,158.1 201.4,197.5 205.9,111.8 "/>
<path class="st19" d="M201.3,198.5L201.3,198.5c-4.4,0-8-3.6-8-8v-83c0-4.4,3.6-8,8-8l0,0c4.4,0,8,3.6,8,8v83
	C209.3,194.9,205.7,198.5,201.3,198.5z"/>
<path class="st2" d="M82.2,198.5L82.2,198.5c-4.4,0-8-3.6-8-8v-83c0-4.4,3.6-8,8-8l0,0c4.4,0,8,3.6,8,8v83
	C90.1,194.9,86.6,198.5,82.2,198.5z"/>
<linearGradient id="SVGID_1_" gradientUnits="userSpaceOnUse" x1="141.8004" y1="69.1665" x2="141.6532" y2="-10.1833" gradientTransform="matrix(1 0 0 1 0 86)">
	<stop  offset="0" style="stop-color:#FFFFFF;stop-opacity:0"/>
	<stop  offset="1" style="stop-color:#000000"/>
</linearGradient>
<rect x="90.1" y="113.8" class="st20" width="103.3" height="28.4"/>
<rect x="90.2" y="113.8" class="st2" width="103.3" height="1.2"/>
<path class="st21" d="M238.2,234.7c0,7.1-42.7,12.9-95.3,12.9s-95.3-5.8-95.3-12.9s42.7-12.9,95.3-12.9S238.2,227.6,238.2,234.7"/>
<path class="st22" d="M238.2,223.3c0,7.1-42.7,12.9-95.3,12.9s-95.3-5.8-95.3-12.9c0-7.1,42.7-12.9,95.3-12.9
	S238.2,216.1,238.2,223.3"/>
<path class="st21" d="M227.9,217.6c0,6.9-38.5,12.5-86,12.5s-86-5.6-86-12.5s38.5-12.5,86-12.5S227.9,210.7,227.9,217.6"/>
<path class="st22" d="M227.9,207.3c0,6.9-38.5,12.5-86,12.5s-86-5.6-86-12.5s38.5-12.5,86-12.5S227.9,200.4,227.9,207.3"/>
<path class="st21" d="M47.6,223.3v11.4l9.8-5.7C57.5,229,48.8,226.7,47.6,223.3"/>
<path class="st21" d="M238.2,223.3c0,11.6,0,8.7,0,11.4l-9.8-5.7C228.1,229.1,238.2,226.7,238.2,223.3"/>
<path class="st21" d="M55.9,207.3v10.3c0,0,12.3-3.6,7.6-5.2C57.1,210.4,55.9,207.3,55.9,207.3z"/>
<path class="st21" d="M220.3,212.4c5.6-1.6,7.6-5.2,7.6-5.2v10.3"/>
<path class="st23" d="M136.8,183.8c0,2.3-1.8,4.1-4.1,4.1s-4.1-1.8-4.1-4.1s1.8-4.1,4.1-4.1S136.8,181.5,136.8,183.8"/>
<path class="st24" d="M120.4,206.2c0,0-4,0.8-2.6,3.7c0.4,1,1.3,1.7,2.3,2c1.4,0.5,3.9,1.5,6.4,2.4c3.8,1.4,7.6,2.8,7.6,2.8v-7.7
	h-10.4l-0.1-1.6h1.2l0.1-1.3C125.2,205.5,121.8,206,120.4,206.2"/>
<path class="st24" d="M128.6,212.9l2.1,6.9c0,0,16.5-6.7,17.7-9.8s-2.6-4.4-4.4-3.1c-0.3,0.2-3.5-0.3-4.3,0
	C135.5,208.8,128.6,212.9,128.6,212.9"/>
<path class="st25" d="M125.8,214.1c0,0-1.7,1.9,0,3.1c1.7,1.3,4.2,0.4,4.2,0.4l-0.7-2.2L125.8,214.1z"/>
<path class="st25" d="M135.3,217.8c0,0,4.8,0.3,5.1-0.6c0.3-0.9,0-1.8,0-1.8l-3.7,1.8L135.3,217.8z"/>
<path class="st23" d="M219.3,173.8c0,2.5-1.8,4.6-4.1,4.6c-0.5,0-1-0.1-1.4-0.3c-1.6-0.6-2.7-2.3-2.7-4.3c0-2.5,1.8-4.6,4.1-4.6
	C217.4,169.2,219.3,171.3,219.3,173.8"/>
<polygon class="st24" points="134.2,209.5 137.3,209.7 134.2,210.9 "/>
<polygon class="st26" points="124.9,196.8 140,196.8 140,207.8 140.6,207.8 140.6,209.6 123.8,209.5 123.6,207.8 124.8,207.8 "/>
<polygon class="st27" points="123.6,207.8 140.6,207.8 140.6,209.6 123.8,209.5 "/>
<path class="st23" d="M184.9,145.7v2.6c0,0-4.4,4.1-4,4.8c0,0-1.2-2.1,0.6-4.5c0,0,0.6-0.3,0.7-1.4
	C182.2,147.2,184.2,147.3,184.9,145.7"/>
<path class="st28" d="M178.3,154.6l-3.2,4.5l-4.4-5.3l-1.5,1.4l2.9,5.4c1,1.9,3.6,2.3,5.2,0.8c0.7-0.7,1.5-1.5,2.6-2.5
	c0,0-2.3-0.1-1.8-4.2"/>
<path class="st23" d="M169.5,155c-0.4,0.1-3.7,1-5.3-0.3c-0.2-0.1-0.1-0.4,0.1-0.4l2.7-0.4c0.2,0,0.3-0.2,0.2-0.4
	c-0.2-0.3-0.6-0.6-1.1-0.6c0,0-1.8-2.1,4.4,0.8c0.2,0.1,0.2,0.3,0.1,0.4L169.5,155C169.5,154.9,169.5,155,169.5,155"/>
<path class="st29" d="M179.5,145.3c0,0-2.9,4.8-0.3,6.6l3.4-4.6C182.6,147.3,179.8,147.3,179.5,145.3"/>
<path class="st30" d="M185.6,165.2c0,0,7.2,1.9,3.6,19.7l-13,0.4l3.3-20.1L185.6,165.2L185.6,165.2z"/>
<path class="st23" d="M176.2,185.3l-2.9,19.1c0,0-4.2,4.7-5.1,4.3c0,0,5.8,0.9,6.6-3.6c0.9-4.5,6.1-17,6-19.8H176.2z"/>
<path class="st31" d="M168.6,208.5c0,0-1.9,0.8-1.3,1.4c0.7,0.6,3.5,0,3.5,0l2.8-1.2c0.2-0.1,0.4,0.1,0.5,0.3l0.3,1.3h0.2
	c0,0-0.1-1.6,0.1-1.9c0.4-0.5,0.8-0.4,0-2.7C174.7,205.7,172.8,208.8,168.6,208.5"/>
<path class="st23" d="M184.4,185l0.4,20.5c0,0-0.4,4.4,1.7,4.1c2.1-0.3,1.8-1.4,0-4.5l1.7-20.2L184.4,185z"/>
<path class="st31" d="M184.7,206.2c0,0-0.2,1.8,0.4,3.3c0.2,0.4,0.6,1.1,1,1.4c0.3,0.2,0.8,0.2,1.1,0c0.2-0.2,0.4-0.6,0.6-0.9
	c0.3-0.8,0.4-1.5-0.4-3.2c0,0,1,2.5-1,2.4c0,0-1.7,0.5-1.7-2.5"/>
<path class="st30" d="M184.9,148.1c0,0,7.2,2.1,0.7,17.1h-6.1l0.2-6c0,0-4.7-2.6,1.4-10.1l-0.3,3.4L184.9,148.1z"/>
<path class="st28" d="M186.4,149.1l-7.6,11.8l-9.9-1.1v1.8l10.7,2.4c0,0,6.4-4.3,6.9-8.4C186.9,151.4,186.4,149.1,186.4,149.1"/>
<path class="st23" d="M185.6,143.8c0,1.9-1.5,3.4-3.4,3.4s-3.4-1.5-3.4-3.4s1.5-3.4,3.4-3.4C184.1,140.4,185.6,142,185.6,143.8"/>
<path class="st29" d="M180.6,137.5c0,0-3.6,1.4-2.1,5.7h5.3l0.8-0.7c0,0,0.7,4.5,0,5.5s3.4,4.6,3.4,4.6s2.8-4.8-1.7-13.1
	C186.4,139.4,185.4,137.1,180.6,137.5"/>
<path class="st32" d="M130.5,180.9c0,1-0.9,1.8-1.9,1.8s-1.9-0.8-1.9-1.8s0.9-1.8,1.9-1.8S130.5,180,130.5,180.9"/>
<path class="st32" d="M134.8,178.6c0,1.4-1.2,2.5-2.7,2.5s-2.7-1.1-2.7-2.5s1.2-2.5,2.7-2.5S134.8,177.2,134.8,178.6"/>
<path class="st32" d="M139.4,180.7c-0.5,1.3-2,1.9-3.4,1.4s-2.2-2-1.7-3.3s2-1.9,3.4-1.4C139.1,177.9,139.9,179.4,139.4,180.7"/>
<path class="st32" d="M138.8,182.5c0,1-0.8,1.7-1.7,1.7c-1,0-1.7-0.8-1.7-1.7c0-1,0.8-1.7,1.7-1.7
	C138.1,180.8,138.8,181.5,138.8,182.5"/>
<path class="st32" d="M128.8,179.2c0,0,0.6,0,0.7-0.6l0.3,1.1L128.8,179.2z"/>
<path class="st32" d="M134.3,177.2c0,0,0.5,0.3,1.5,0.2l-1.3,1.1L134.3,177.2z"/>
<rect x="222.6" y="191.1" transform="matrix(0.3399 -0.9405 0.9405 0.3399 -28.0397 343.0046)" class="st33" width="15.5" height="0.7"/>
<rect x="219.3" y="197.7" class="st34" width="8.8" height="1.2"/>
<path class="st23" d="M223.3,197.7c0,0,1.5-0.9,2.5-0.5c1.1,0.4,2.1,2.7,0.6,3c-1.5,0.4-3.1-0.6-3.1-0.6V197.7z"/>
<path class="st23" d="M218.2,200.2l9.6-1.1c1.1-0.1,2.2,0.5,2.6,1.6l5.7,16.3l-2,0.8c0,0-5.1-8.4-6.1-13.1l-12.5,3.4
	C215.4,208.1,217.8,205.1,218.2,200.2"/>
<path class="st12" d="M213.8,178.2c0,0-2,1,0,4.1c2,3,3.1,7.6,1.4,11c-1.7,3.5,2.9,4.4,2.9,4.4s1.2,9.4-2.6,10.6h-7.9l-1.2-28.8
	l4.7-0.5v-2.9L213.8,178.2z"/>
<path class="st35" d="M210.6,182.6c0.5,0,0.8,0.4,1,0.8c0.1,0.2,0.2,0.4,0.2,0.6c0.8,3,2.6,13.1,2.6,13.1l8.7,0.7v1.9
	c0,0-10.9,1.3-11.3,0.8c-0.4-0.4-2.5-12.1-2.5-12.1s-0.5-4.1,0.3-5.2C209.8,182.9,210.2,182.6,210.6,182.6z"/>
<path class="st36" d="M214.2,173.7c0,0,4.4,3.9,5.6,0c1.5-4.7-4.4-7.3-6.6-6.7c-2.2,0.5-3.1,6.6-4.2,8.8c-1.2,2.2-4.4,3.2-4.4,3.2
	s-4.7,0.9-1.9,8.8c2.8,7.8-0.2,9.7-0.9,10s-1.9,7,3.1,6.2s2.9-12.4,2.9-12.4s-0.4-8.2,2.8-9.6C213.7,180.6,214.2,173.7,214.2,173.7"
	/>
<path class="st35" d="M233,221.5c1.5,1.1,9.9,0,9.9,0s-0.2-5-3.7-4c0,0-2,1.3-2.8-0.6l-2.7,0.5L233,221.5z"/>
<g>
	<polyline class="st37" points="99.5,188.8 99.5,153.5 114.4,152.4 114.4,188.7 	"/>
	<line class="st38" x1="99.5" y1="168.2" x2="114.3" y2="167.5"/>
	<line class="st38" x1="99.5" y1="182.6" x2="114.3" y2="182.1"/>
	<line class="st39" x1="99.5" y1="198.7" x2="114.4" y2="198.4"/>
	<line class="st40" x1="94.2" y1="168.2" x2="108.8" y2="168.2"/>
	<line class="st40" x1="84.2" y1="198.4" x2="98.4" y2="198.4"/>
	<line class="st40" x1="89.6" y1="182.6" x2="104.2" y2="182.6"/>
	<line class="st39" x1="99.5" y1="188.7" x2="99.5" y2="207.2"/>
	<line class="st39" x1="114.4" y1="188.7" x2="114.4" y2="207.1"/>
	<polyline class="st40" points="80.4,210.5 99.5,153.5 114.4,152.4 94,211.7 	"/>
</g>
<g>
	<path class="st23" d="M110.9,98.2c0,1.7-1.4,3.1-3.1,3.1s-3.1-1.4-3.1-3.1s1.4-3.1,3.1-3.1C109.6,95.1,110.9,96.5,110.9,98.2"/>
	<rect x="106.7" y="101.1" class="st23" width="1.8" height="1.7"/>
	<path class="st12" d="M118.7,97.3c0,0-3.2,6-3,7.3c0,0-7.4-3.1-11.4-1.4c-1,0.5-1.7,1.5-1.7,2.7V120h7.7c0,0,2.2-10,0-11.4l6.5-1.1
		c0,0,3.2-3.4,3.9-9.1L118.7,97.3z"/>
	<path class="st24" d="M102.7,120c0,0-0.8,2.4,0,6.7c0.8,4.3-4.3,24.7-4.3,24.7l3.3-0.9l4.7-18.6l2.7,19.5h3.9l-2.7-31.4
		C110.3,119.9,102.7,120,102.7,120z"/>
	<path class="st5" d="M101.8,150.5c0,0,3.8-0.4,3.1,0.9c-0.7,1.3-6.9,1.3-6.9,1.3l0.4-1.3"/>
	<path class="st5" d="M112,150.5c0,0,3.8-0.5,3.1,0.9c-0.7,1.4-6.3,1.4-6.3,1.4l0.2-1.7"/>
	<path class="st23" d="M118.7,97.3c0,0,1.4-5.5,2-5.2c0.7,0.3,0,2.6,0,2.6l1.4,1.1l-1.4,2.7L118.7,97.3z"/>
	<path class="st41" d="M106.9,97.4c-0.2-0.5,0.2-1,0.7-0.9c1.2,0.2,3,0.4,3.4-0.3c0.6-1,0.2-3.9-3.7-2.6c0,0-1.1,0.9-2.3,1.2
		c-0.6,0.2-1,0.7-1.1,1.3c-0.1,1,0.1,2.5,1.4,4.1C107.5,102.7,107.9,100,106.9,97.4"/>
	<polygon class="st35" points="102.7,107.4 101.5,120.1 102.7,120.1 	"/>
	<polygon class="st23" points="101.5,120.1 102.5,121.3 102.7,120.1 	"/>
</g>
<circle class="st42" cx="200.2" cy="102.8" r="15.2"/>
<text transform="matrix(1 0 0 1 193.4756 110.4396)" class="st2 st43 st44">1</text>
<g>
	<path class="st6" d="M168,159h-9.9c-0.5,0-0.8-0.4-0.8-0.8v-6.9c0-0.5,0.4-0.8,0.8-0.8h9.9c0.5,0,0.8,0.4,0.8,0.8v6.9
		C168.8,158.6,168.4,159,168,159z"/>
	<polygon class="st1" points="163.1,155.5 158.1,158.9 157.7,151.5 	"/>
	<path class="st19" d="M168.1,159L168.1,159c-0.4,0-0.7-0.3-0.7-0.7v-7.2c0-0.4,0.3-0.7,0.7-0.7l0,0c0.4,0,0.7,0.3,0.7,0.7v7.2
		C168.8,158.7,168.5,159,168.1,159z"/>
	<path class="st2" d="M163.8,154.2L163.8,154.2c-0.2-0.4-0.2-0.8,0.2-1.1l3.6-2.5c0.4-0.2,0.8-0.2,1.1,0.2l0,0
		c0.2,0.4,0.2,0.8-0.2,1.1l-3.6,2.5C164.5,154.6,164.1,154.5,163.8,154.2z"/>
	<path class="st2" d="M157.9,159L157.9,159c-0.4,0-0.7-0.3-0.7-0.7v-7.2c0-0.4,0.3-0.7,0.7-0.7l0,0c0.4,0,0.7,0.3,0.7,0.7v7.2
		C158.5,158.7,158.2,159,157.9,159z"/>
	<polygon class="st2" points="158.2,150.5 163,153.8 167.3,150.9 167.6,152.5 163.1,155.6 158.4,152.4 	"/>
</g>
<path class="st23" d="M169,161.7c0,0-4.2-0.2-4.6-1c-0.4-0.7-0.2-2.7,0.7-2.6c1,0.1,3.3,0.9,3.8,1.7
	C169.6,160.7,169,161.7,169,161.7"/>
<path class="st5" d="M127.7,188.9h9.5c0.7,0,1.3,0.3,1.7,0.8c1.8,2.2,6.5,8.4,6.9,12.9c0.6,5.6-5.8,5.2-5.8,5.2v-11.1h-15.2v9.8
	c0,0-3.7,1.3-4.4-0.3c-0.7-1.6-2.7-3.3,5.3-16.3C126.2,189.3,126.9,188.9,127.7,188.9"/>
<path class="st23" d="M132.7,191.4L132.7,191.4c-0.8,0-1.5-0.7-1.5-1.5v-3.6h2.9v3.6C134.2,190.8,133.5,191.4,132.7,191.4"/>
</svg>
