<?xml version="1.0" encoding="utf-8"?>
<!-- Generator: Adobe Illustrator 24.3.0, SVG Export Plug-In . SVG Version: 6.00 Build 0)  -->
<svg version="1.1" id="Layer_1" xmlns="http://www.w3.org/2000/svg" xmlns:xlink="http://www.w3.org/1999/xlink" x="0px" y="0px"
	 viewBox="0 0 297.64 420.94" style="enable-background:new 0 0 297.64 420.94;" xml:space="preserve">
<style type="text/css">
	.st0{
		animation: st0 15s infinite;
	  }
	  @keyframes st0{
		 0% {fill:#F8CE91}
		 12% {fill:#DDC0DD}
		 24% {fill:#F6BDC6}
		 36% {fill:#99BFE6}
		 48% {fill:#B5DEE7}
		 60% {fill:#A0CFAA}
		 72% {fill:#C2DA99}
		 84% {fill:#F3EFA5}
		 100% {fill:#F8CE91}
	 }

	.st0{fill:#DDC0DD;}
	.st1{fill:#6178B9;}
	.st2{fill:#E75545;}
	.st3{fill:none;stroke:#1D1D1B;stroke-miterlimit:10;}
	.st4{fill:#EBE3B8;}
	.st5{fill:#F0E6F2;}
	.st6{fill:#CDC193;}
	.st7{fill:#F3C739;}
	.st8{fill:#EB6464;}
	.st9{opacity:0.64;}
	.st10{opacity:0.76;}
	.st11{fill:#E47D47;}
	.st12{fill:#D7712A;}
	.st13{fill:#98549B;}
	.st14{opacity:0.87;fill:#BA8E34;}
	.st15{fill:#C5AB19;}
	.st16{fill:#EAD53B;}
	.st17{fill:#BA8E34;}
	.st18{fill:#FFFFFF;}
	.st19{fill:none;stroke:#30619C;stroke-width:2;stroke-miterlimit:10;}
	.st20{fill:#ECAD0E;}
	.st21{fill:#87589F;}
	.st22{fill:#30619C;}
	.st23{fill:#1D1D1B;}
	.st24{fill:#6DBD93;}
	.st25{fill:none;stroke:#F3C739;stroke-width:6;stroke-miterlimit:10;}
	.st26{opacity:0.76;fill:#EB6464;}
	.st27{fill:#CBC1C2;}
	.st28{fill:#A82217;}
	.st29{fill:#831915;}
	.st30{fill:#DB463A;}
	.st31{fill:none;}
	.st32{fill:#828282;}
	.st33{fill:#C5C3C1;}
	.st34{fill:#DAD5D5;}
	.st35{fill:#716E6E;}
	.st36{fill:#EEEEED;}
	.st37{fill:#F7EAE1;}
	.st38{fill:#353435;}
	.st39{fill:#A7A7A6;}
	.st40{fill:#D93317;}
	.st41{fill:#787776;stroke:#2D2D2D;stroke-width:7;stroke-miterlimit:10;}
	.st42{opacity:0.92;}
	.st43{fill:#FFFFFF;stroke:#9F9F9F;stroke-width:2;stroke-miterlimit:10;}
	.st44{fill:#DBDBDB;}
	.st45{fill:#2D2D2D;}
	.st46{opacity:0.69;}
	.st47{fill:#09090A;}
	.st48{opacity:0.51;}
	.st49{fill:#B7B7B6;}
	.st50{opacity:0.68;}
	.st51{fill:#D3D2D2;}
	.st52{opacity:0.69;fill:#09090A;}
	.st53{opacity:0.38;fill:#09090A;}
	.st54{opacity:0.23;fill:#09090A;}
	.st55{opacity:0.59;}
	.st56{opacity:0.51;fill:#B7B7B6;}
	.st57{fill:#0D0E0E;}
	.st58{fill:#D7D7D6;}
	.st59{opacity:0.83;fill:#FFFFFF;}
	.st60{fill:#5C5C5C;stroke:#FFFFFF;stroke-miterlimit:10;}
	.st61{opacity:0.16;}
	.st62{fill:#09090A;stroke:#09090A;stroke-miterlimit:10;}
	.st63{opacity:0.52;fill:#FFFFFF;}
	.st64{opacity:0.37;}
	.st65{opacity:0.88;fill:#FFFFFF;}
	.st66{enable-background:new    ;}
	.st67{fill:#2B0B2D;}
</style>
<g>
	<rect y="0.25" class="st0" width="297.64" height="420.69"/>
	<path class="st1" d="M160.44,134.21"/>
	
		<ellipse transform="matrix(0.2045 -0.9789 0.9789 0.2045 -65.9039 347.4635)" class="st2" cx="180.83" cy="214.28" rx="18.33" ry="38.34"/>
	<line class="st3" x1="78.35" y1="241.2" x2="89.39" y2="235.3"/>
	<path class="st4" d="M91.28,215.56c-0.69-1.15-1.47-2.47-3.01-2.93c-1.05-0.31-2.01-0.09-2.52,0.08c0.36,0.43,0.83,1.05,1.29,1.86
		c0.58,1.02,0.88,1.86,1.19,2.75c0.3,0.87,0.66,2.06,0.94,3.5l0.03-0.02c0.06,0.28,0.11,0.55,0.15,0.79
		c0.16,0.94,0.31,1.81,0.29,2.99c-0.02,0.93-0.13,1.7-0.23,2.25c0.53-0.1,1.48-0.36,2.25-1.15c1.12-1.14,1.17-2.67,1.22-4.01
		c0.03-0.77-0.03-1.99-0.5-3.45C92.07,217.03,91.62,216.13,91.28,215.56z"/>
	<path class="st4" d="M56.77,234c-0.58-1.21-1.24-2.6-0.76-4.13c0.33-1.05,1.05-1.72,1.47-2.05c0.16,0.54,0.41,1.27,0.83,2.11
		c0.52,1.05,1.05,1.76,1.63,2.52c0.56,0.74,1.34,1.69,2.39,2.73l-0.03,0.02c0.2,0.2,0.39,0.39,0.57,0.56
		c0.69,0.65,1.34,1.26,2.32,1.9c0.78,0.5,1.49,0.84,2,1.06c-0.38,0.38-1.12,1.03-2.2,1.23c-1.57,0.3-2.87-0.51-4.02-1.22
		c-0.65-0.41-1.64-1.13-2.59-2.33C57.56,235.48,57.06,234.6,56.77,234z"/>
	<ellipse class="st5" cx="148.82" cy="227.51" rx="86.96" ry="85.09"/>
	<g>
		<g>
			<g>
				
					<rect x="125.53" y="146.21" transform="matrix(0.9949 -0.1011 0.1011 0.9949 -15.2061 14.5943)" class="st6" width="21.62" height="22.13"/>
				<path class="st7" d="M181.89,191.16l-83.38,8.48c-1.13-5.34,0.23-8.67,0.96-10.09c0.85-1.64,2.24-3.04,4.72-5.21l0.02,0
					c0.51-0.46,1.05-0.93,1.66-1.45c0.19-0.16,0.38-0.32,0.57-0.5c0.39-0.34,0.75-0.65,1.11-0.96l0.01,0
					c0.6-0.51,1.17-0.99,1.75-1.46c0.62-0.5,1.25-0.98,1.95-1.49c0.29-0.21,0.6-0.43,0.92-0.64c0.45-0.31,0.88-0.6,1.29-0.87l0,0
					c0.67-0.42,1.29-0.8,1.87-1.12c1.08-0.63,2.02-1.11,2.9-1.58c0.89-0.48,1.73-0.95,2.59-1.55c0.33-0.23,0.67-0.48,1.01-0.76
					c0.27-0.22,0.54-0.45,0.82-0.71l0,0c0.08-0.07,0.16-0.14,0.24-0.21c0.45-0.42,0.87-0.83,1.25-1.23
					c0.47-0.49,0.87-0.96,1.23-1.41c0.44-0.54,0.8-1.02,1.07-1.44c0-0.01,0-0.01,0.01-0.01l21.47-2.18
					c0.01,0.01,0.02,0.02,0.04,0.04c0.35,0.33,0.77,0.72,1.27,1.13c0.44,0.36,0.92,0.73,1.47,1.13l0,0
					c0.46,0.33,0.97,0.66,1.52,0.99c0.07,0.04,0.14,0.08,0.21,0.12c0.74,0.44,1.42,0.78,2.08,1.06l0,0c0.94,0.41,1.83,0.71,2.78,1
					l0,0c0.95,0.29,1.96,0.57,3.15,0.96l0,0c0.63,0.2,1.31,0.44,2.05,0.72c0.5,0.19,1.04,0.4,1.61,0.64
					c0.3,0.13,0.59,0.26,0.88,0.38l0,0c0.78,0.35,1.49,0.7,2.19,1.06l0.01,0c0.67,0.34,1.33,0.69,2.01,1.07
					c0.46,0.25,0.93,0.52,1.44,0.8c0.18,0.1,0.35,0.19,0.51,0.28l0.02,0c0.61,0.34,1.16,0.66,1.68,0.95
					c3.1,1.75,4.85,2.87,6.06,4.38C179.92,182.71,181.92,185.7,181.89,191.16z"/>
				<path class="st4" d="M156.5,132.08c-0.22-1.46-0.47-3.12-1.83-4.23c-0.94-0.76-2-0.92-2.6-0.97c0.18,0.59,0.4,1.41,0.54,2.43
					c0.17,1.28,0.12,2.25,0.06,3.29c-0.06,1.01-0.19,2.36-0.5,3.95l0.04,0c-0.06,0.31-0.12,0.6-0.18,0.86
					c-0.23,1.02-0.44,1.97-0.95,3.15c-0.4,0.94-0.84,1.68-1.18,2.19c0.58,0.12,1.65,0.25,2.76-0.23c1.62-0.69,2.31-2.22,2.91-3.57
					c0.35-0.77,0.8-2.04,0.93-3.71C156.69,133.9,156.61,132.8,156.5,132.08z"/>
				<path class="st4" d="M112.87,136.52c-0.08-1.47-0.17-3.15,0.95-4.51c0.77-0.93,1.78-1.31,2.35-1.47
					c-0.06,0.61-0.11,1.47-0.04,2.49c0.09,1.29,0.34,2.23,0.6,3.24c0.26,0.98,0.66,2.28,1.29,3.77l-0.04,0
					c0.12,0.29,0.24,0.56,0.35,0.81c0.43,0.95,0.83,1.84,1.57,2.9c0.58,0.84,1.16,1.47,1.59,1.91c-0.54,0.23-1.57,0.57-2.75,0.33
					c-1.72-0.35-2.71-1.71-3.57-2.91c-0.49-0.68-1.19-1.83-1.66-3.45C113.05,138.34,112.91,137.24,112.87,136.52z"/>
				<path class="st4" d="M150.66,119.46l-17.34,1.76l-17.34,1.76c-0.85,7.98,0.36,14.25,1.39,18.03c1.68,6.15,3.34,12.2,8.93,15.7
					c4.09,2.57,8.48,2.62,10.88,2.45c2.39-0.31,6.67-1.25,10.16-4.59c4.77-4.55,5.17-10.82,5.58-17.18
					C153.18,133.49,153.1,127.11,150.66,119.46z"/>
				<path class="st8" d="M151.15,116.56c0.11-1.95,0.27-3.65-0.75-4.97c-0.71-0.93-1.86-1.52-1.68-2.06
					c0.14-0.43,0.96-0.34,1.28-1.04c0.16-0.35,0.1-0.7,0.08-0.84c-0.03-0.15-0.18-0.92-0.81-1.15c-0.59-0.22-1.36,0.12-1.46,0.55
					c-0.06,0.25,0.11,0.57,0.22,0.56c0.27-0.02,0.65-1.97-0.09-2.47c-0.32-0.22-0.86-0.18-0.9-0.17c-0.13,0.01-0.31,0.04-0.57,0.16
					c-0.6,0.26-1.4,0.87-1.27,1.2c0.08,0.2,0.41,0.31,0.68,0.26c1-0.19,1.71-2.77,0.96-3.41c-0.48-0.4-1.47,0.04-1.54,0.07
					c-0.58,0.26-0.99,0.77-1.27,1.12c-0.43,0.53-0.53,0.83-0.73,0.82c-0.34-0.02-0.54-0.87-0.6-1.1c-0.4-1.5-1.55-2.53-3.12-3.95
					c-1.96-1.76-4.14-2.58-5.58-2.97c-2.19-0.47-3.56-1.14-4.42-1.71c-0.33-0.21-0.94-0.63-1.48-0.44
					c-0.48,0.17-0.68,0.86-0.77,1.39c-0.2,0.5-0.53,1.06-1.05,1.16c-0.63,0.12-0.92-0.6-1.97-0.88c-0.06-0.01-1.38-0.34-2.49,0.42
					c-0.26,0.18-0.91,0.62-0.93,1.25c-0.02,0.74,0.83,1.06,0.72,1.5c-0.1,0.41-0.95,0.43-2.38,0.66c-2.76,0.44-3.66,1.02-3.96,1.23
					c-0.38,0.26-1.36,0.95-1.29,1.79c0.04,0.49,0.42,0.86,0.5,0.94c0.63,0.61,1.36,0.43,1.47,0.76c0.12,0.37-0.68,0.92-1.25,1.37
					c-0.92,0.73-1.55,1.49-2.8,3.01c-1.73,2.12-2.19,3.36-2.36,4.05c-0.36,1.39-0.08,1.89,0.1,2.1c0.31,0.39,0.92,0.64,1.39,0.48
					c0.65-0.22,0.78-1.14,1.03-1.1c0.18,0.03,0.32,0.58,0.28,1.13c-0.12,1.72-1.74,2.09-1.9,3.75c-0.02,0.21-0.09,1.21,0.51,1.69
					c0.57,0.45,1.47,0.21,1.63,0.16c0.77-0.2,1.05-0.68,1.25-0.54c0.25,0.17,0.11,1.04-0.24,1.68c-0.31,0.56-0.62,0.65-0.63,1.06
					c-0.01,0.44,0.3,0.96,0.67,1.01c0.4,0.06,0.54-0.46,1.37-0.97c0.45-0.27,0.87-0.32,1.43-0.39c2.39-0.3,3.59-0.44,4.48-0.42
					c5.21,0.16,9.9-1.48,21.92-1.76c3.18-0.07,6.67-0.05,7.81-2.09C151.02,118.82,151.07,118.07,151.15,116.56z"/>
			</g>
			<g class="st9">
				<g>
					<g>
						<g class="st10">
							<polygon class="st11" points="118.17,197.61 118.17,197.64 116.68,197.79 116.68,197.76 116.51,196.15 116.38,194.89 
								116.25,193.61 116.11,192.35 115.99,191.08 115.87,189.96 117.36,189.8 117.48,190.93 117.6,192.2 117.74,193.46 
								117.87,194.73 118,196 							"/>
						</g>
						<g class="st10">
							<polygon class="st11" points="115.18,197.91 115.18,197.94 113.68,198.1 113.68,198.07 113.51,196.46 113.38,195.2 
								113.25,193.92 113.12,192.66 112.99,191.39 112.87,190.27 114.37,190.11 114.49,191.23 114.62,192.5 114.75,193.76 
								114.88,195.04 115.01,196.3 							"/>
						</g>
						<g class="st10">
							<polygon class="st11" points="112.19,198.22 112.19,198.25 110.69,198.41 110.69,198.38 110.52,196.77 110.39,195.5 
								110.26,194.23 110.13,192.97 110,191.7 109.88,190.57 111.37,190.42 111.49,191.54 111.62,192.81 111.75,194.07 
								111.89,195.35 112.02,196.61 							"/>
						</g>
						<g class="st10">
							<polygon class="st11" points="109.19,198.53 109.19,198.56 107.7,198.72 107.7,198.69 107.53,197.08 107.4,195.81 
								107.27,194.54 107.13,193.27 107,192 106.89,190.88 108.38,190.73 108.49,191.85 108.63,193.12 108.76,194.38 108.89,195.66 
								109.02,196.92 							"/>
						</g>
						<g class="st10">
							
								<rect x="127.83" y="188.66" transform="matrix(0.9946 -0.1033 0.1033 0.9946 -19.2137 14.3177)" class="st11" width="1.51" height="7.88"/>
						</g>
						<g class="st10">
							
								<rect x="124.84" y="188.97" transform="matrix(0.9946 -0.1033 0.1033 0.9946 -19.2616 14.0101)" class="st11" width="1.5" height="7.88"/>
						</g>
						<g class="st10">
							
								<rect x="121.85" y="189.28" transform="matrix(0.9946 -0.1033 0.1033 0.9946 -19.3096 13.7023)" class="st11" width="1.5" height="7.88"/>
						</g>
						<g class="st10">
							
								<rect x="118.85" y="189.59" transform="matrix(0.9946 -0.1033 0.1033 0.9946 -19.3575 13.3948)" class="st11" width="1.51" height="7.88"/>
						</g>
						<g class="st10">
							
								<rect x="139.28" y="187.48" transform="matrix(0.9946 -0.1033 0.1033 0.9946 -19.0302 15.4945)" class="st11" width="1.5" height="7.88"/>
						</g>
						<g class="st10">
							
								<rect x="136.29" y="187.79" transform="matrix(0.9946 -0.1033 0.1033 0.9946 -19.0782 15.1867)" class="st11" width="1.5" height="7.88"/>
						</g>
						<g class="st10">
							
								<rect x="133.29" y="188.1" transform="matrix(0.9946 -0.1033 0.1033 0.9946 -19.1261 14.8791)" class="st11" width="1.51" height="7.88"/>
						</g>
						<g class="st10">
							
								<rect x="130.3" y="188.41" transform="matrix(0.9946 -0.1033 0.1033 0.9946 -19.1741 14.5716)" class="st11" width="1.5" height="7.88"/>
						</g>
						<g class="st10">
							
								<rect x="151.65" y="186.2" transform="matrix(0.9946 -0.1033 0.1033 0.9946 -18.8321 16.7655)" class="st11" width="1.5" height="7.88"/>
						</g>
						<g class="st10">
							
								<rect x="148.65" y="186.51" transform="matrix(0.9946 -0.1033 0.1033 0.9946 -18.88 16.458)" class="st11" width="1.51" height="7.88"/>
						</g>
						<g class="st10">
							
								<rect x="145.66" y="186.82" transform="matrix(0.9946 -0.1033 0.1033 0.9946 -18.9279 16.1504)" class="st11" width="1.5" height="7.88"/>
						</g>
						<g class="st10">
							
								<rect x="142.67" y="187.13" transform="matrix(0.9946 -0.1033 0.1033 0.9946 -18.9759 15.8426)" class="st11" width="1.5" height="7.88"/>
						</g>
						<g class="st10">
							
								<rect x="163.92" y="184.94" transform="matrix(0.9946 -0.1033 0.1033 0.9946 -18.6355 18.0266)" class="st11" width="1.5" height="7.88"/>
						</g>
						<g class="st10">
							
								<rect x="160.92" y="185.25" transform="matrix(0.9946 -0.1033 0.1033 0.9946 -18.6834 17.719)" class="st11" width="1.51" height="7.88"/>
						</g>
						<g class="st10">
							
								<rect x="157.93" y="185.56" transform="matrix(0.9946 -0.1033 0.1033 0.9946 -18.7313 17.4115)" class="st11" width="1.5" height="7.88"/>
						</g>
						<g class="st10">
							
								<rect x="154.94" y="185.86" transform="matrix(0.9946 -0.1033 0.1033 0.9946 -18.7793 17.1037)" class="st11" width="1.5" height="7.88"/>
						</g>
						<g class="st10">
							
								<rect x="172.49" y="184.05" transform="matrix(0.9946 -0.1033 0.1033 0.9946 -18.4981 18.9075)" class="st11" width="1.5" height="7.88"/>
						</g>
						<g class="st10">
							
								<rect x="169.49" y="184.36" transform="matrix(0.9946 -0.1033 0.1033 0.9946 -18.5461 18.5997)" class="st11" width="1.5" height="7.88"/>
						</g>
						<g class="st10">
							
								<rect x="166.5" y="184.67" transform="matrix(0.9946 -0.1033 0.1033 0.9946 -18.594 18.2922)" class="st11" width="1.51" height="7.88"/>
						</g>
					</g>
					<g class="st10">
						<polygon class="st11" points="174.39,191.8 174.4,191.92 118.17,197.64 116.68,197.79 116.68,197.79 115.18,197.94 
							115.18,197.94 113.68,198.1 113.68,198.09 112.19,198.24 112.19,198.25 110.69,198.41 110.69,198.4 109.19,198.55 
							109.19,198.56 107.7,198.72 107.7,198.7 107.57,198.71 107.56,198.7 107.7,198.69 109.19,198.53 110.69,198.38 112.19,198.22 
							113.68,198.07 115.18,197.91 118.17,197.61 119.26,197.49 120.75,197.34 122.25,197.18 123.74,197.03 125.25,196.87 
							126.74,196.72 128.24,196.56 129.74,196.41 130.71,196.31 132.2,196.16 133.7,196 135.2,195.85 136.69,195.69 138.19,195.54 
							139.69,195.38 141.18,195.23 143.08,195.03 144.57,194.88 146.07,194.72 147.57,194.57 149.06,194.41 150.56,194.26 
							152.06,194.1 153.55,193.95 155.35,193.76 156.84,193.61 158.34,193.45 159.83,193.3 161.33,193.15 162.83,192.99 
							164.33,192.84 165.82,192.69 166.91,192.57 168.4,192.42 169.9,192.26 171.4,192.11 172.9,191.95 						"/>
					</g>
					<g class="st10">
						
							<rect x="106.63" y="187.29" transform="matrix(0.9947 -0.1027 0.1027 0.9947 -18.5616 15.3961)" class="st11" width="67.18" height="1.28"/>
					</g>
					<g class="st10">
						
							<rect x="106.89" y="189.83" transform="matrix(0.9947 -0.1027 0.1027 0.9947 -18.8208 15.4366)" class="st11" width="67.18" height="1.27"/>
					</g>
					<g class="st10">
						
							<rect x="107.15" y="192.37" transform="matrix(0.9947 -0.1027 0.1027 0.9947 -19.0802 15.4771)" class="st11" width="67.18" height="1.27"/>
					</g>
				</g>
			</g>
		</g>
		<g>
			
				<ellipse transform="matrix(0.8619 -0.5071 0.5071 0.8619 -59.6751 60.3107)" class="st12" cx="80.89" cy="139.72" rx="17.47" ry="14.38"/>
			
				<ellipse transform="matrix(0.8619 -0.5071 0.5071 0.8619 -53.348 53.8266)" class="st12" cx="72.15" cy="124.86" rx="7.48" ry="7.02"/>
			
				<rect x="87.27" y="158.12" transform="matrix(0.8619 -0.5071 0.5071 0.8619 -71.7602 72.2683)" class="st6" width="19.08" height="19.53"/>
			<path class="st13" d="M145.8,178.28l-63.73,37.49c-2.87-3.87-3.01-7.04-2.94-8.44c0.08-1.63,0.68-3.27,1.87-5.91l0.01-0.01
				c0.24-0.55,0.5-1.13,0.79-1.77c0.09-0.2,0.18-0.4,0.28-0.61c0.19-0.41,0.36-0.8,0.53-1.18l0.01-0.01
				c0.29-0.63,0.57-1.22,0.87-1.82c0.31-0.62,0.64-1.25,1.02-1.91c0.16-0.28,0.32-0.56,0.5-0.85c0.25-0.42,0.49-0.8,0.72-1.17l0,0
				c0.38-0.59,0.74-1.11,1.09-1.59c0.64-0.9,1.21-1.63,1.74-2.34c0.54-0.71,1.03-1.4,1.5-2.2c0.18-0.31,0.36-0.63,0.53-0.98
				c0.14-0.27,0.26-0.56,0.4-0.87l0,0c0.04-0.08,0.07-0.17,0.11-0.25c0.21-0.5,0.39-0.98,0.55-1.44c0.19-0.56,0.35-1.09,0.47-1.58
				c0.15-0.59,0.26-1.11,0.33-1.55c0-0.01,0-0.01,0-0.01l16.41-9.66c0.01,0.01,0.03,0.01,0.04,0.01c0.4,0.14,0.88,0.29,1.44,0.44
				c0.48,0.13,1.01,0.25,1.59,0.36l0,0c0.49,0.09,1.02,0.17,1.58,0.23c0.07,0.01,0.14,0.02,0.21,0.02c0.76,0.08,1.43,0.1,2.06,0.09
				l0,0c0.91-0.01,1.73-0.1,2.59-0.22l0,0c0.87-0.12,1.78-0.27,2.87-0.39l0,0c0.58-0.07,1.21-0.13,1.91-0.18
				c0.47-0.03,0.98-0.06,1.52-0.08c0.29-0.01,0.57-0.01,0.84-0.02l0,0c0.76-0.01,1.45,0.01,2.15,0.04l0.01-0.01
				c0.66,0.03,1.32,0.06,2.01,0.12c0.46,0.03,0.94,0.07,1.45,0.11c0.18,0.01,0.35,0.03,0.51,0.04l0.01-0.01
				c0.61,0.05,1.17,0.1,1.69,0.15c3.13,0.26,4.94,0.52,6.47,1.28C141.11,172.23,143.82,173.89,145.8,178.28z"/>
			<path class="st4" d="M103.69,140.26c-0.71-1.09-1.52-2.33-3.03-2.71c-1.03-0.26-1.95,0-2.44,0.18c0.36,0.4,0.84,0.99,1.32,1.75
				c0.61,0.96,0.92,1.76,1.26,2.62c0.33,0.83,0.72,1.96,1.05,3.35l0.03-0.02c0.07,0.27,0.12,0.52,0.17,0.76
				c0.19,0.9,0.37,1.74,0.4,2.88c0.02,0.9-0.06,1.65-0.14,2.19c0.51-0.12,1.41-0.41,2.13-1.2c1.04-1.15,1.03-2.63,1.02-3.93
				c-0.01-0.74-0.11-1.93-0.62-3.32C104.52,141.65,104.05,140.8,103.69,140.26z"/>
			<path class="st4" d="M70.34,159.88c-0.61-1.15-1.3-2.46-0.9-3.96c0.27-1.03,0.94-1.7,1.34-2.04c0.17,0.51,0.45,1.22,0.89,2.01
				c0.55,1,1.09,1.66,1.68,2.38c0.57,0.69,1.37,1.58,2.42,2.55l-0.03,0.02c0.2,0.19,0.4,0.36,0.58,0.52
				c0.69,0.61,1.34,1.17,2.33,1.74c0.78,0.46,1.47,0.75,1.98,0.94c-0.35,0.39-1.05,1.04-2.08,1.28c-1.51,0.35-2.8-0.38-3.93-1.02
				c-0.65-0.37-1.63-1.03-2.6-2.16C71.16,161.28,70.64,160.45,70.34,159.88z"/>
			<path class="st4" d="M94.37,132.29l-13.26,7.8l-13.26,7.8c2.26,6.71,5.53,11.29,7.76,13.95c3.61,4.31,7.17,8.55,12.94,9.3
				c4.23,0.55,7.76-1.02,9.62-2.04c1.8-1.13,4.89-3.46,6.46-7.42c2.15-5.41,0.17-10.58-1.85-15.83
				C101.55,142.61,99.14,137.53,94.37,132.29z"/>
			<g>
				<g>
					<circle class="st14" cx="94.26" cy="207.49" r="1"/>
					<circle class="st14" cx="99.49" cy="204.41" r="1"/>
					<circle class="st14" cx="104.45" cy="201.49" r="1"/>
					<circle class="st14" cx="109.27" cy="198.66" r="1"/>
					<circle class="st14" cx="90.26" cy="206.42" r="1"/>
					<circle class="st14" cx="95.38" cy="203.41" r="1"/>
					<circle class="st14" cx="100.49" cy="200.4" r="1"/>
					<circle class="st14" cx="105.31" cy="197.57" r="1"/>
					<circle class="st14" cx="110.31" cy="194.63" r="1"/>
					<circle class="st14" cx="129.85" cy="183.13" r="1"/>
					<circle class="st14" cx="124.62" cy="186.2" r="1"/>
					<circle class="st14" cx="119.66" cy="189.12" r="1"/>
					<circle class="st14" cx="114.84" cy="191.96" r="1"/>
					<circle class="st14" cx="133.85" cy="184.19" r="1"/>
					<circle class="st14" cx="128.73" cy="187.21" r="1"/>
					<circle class="st14" cx="123.63" cy="190.21" r="1"/>
					<circle class="st14" cx="118.81" cy="193.04" r="1"/>
					<circle class="st14" cx="113.8" cy="195.99" r="1"/>
				</g>
				<g>
					<circle class="st14" cx="91.48" cy="202.44" r="1"/>
					<circle class="st14" cx="96.71" cy="199.36" r="1"/>
					<circle class="st14" cx="101.67" cy="196.44" r="1"/>
					<circle class="st14" cx="106.49" cy="193.61" r="1"/>
					<circle class="st14" cx="87.48" cy="201.37" r="1"/>
					<circle class="st14" cx="92.6" cy="198.36" r="1"/>
					<circle class="st14" cx="97.71" cy="195.36" r="1"/>
					<circle class="st14" cx="102.53" cy="192.52" r="1"/>
					<circle class="st14" cx="107.53" cy="189.58" r="1"/>
					<circle class="st14" cx="127.08" cy="178.08" r="1"/>
					<circle class="st14" cx="121.85" cy="181.16" r="1"/>
					<circle class="st14" cx="116.88" cy="184.08" r="1"/>
					<circle class="st14" cx="112.06" cy="186.91" r="1"/>
					<circle class="st14" cx="131.07" cy="179.15" r="1"/>
					<circle class="st14" cx="125.95" cy="182.16" r="1"/>
					<circle class="st14" cx="120.85" cy="185.16" r="1"/>
					<circle class="st14" cx="116.03" cy="188" r="1"/>
					<circle class="st14" cx="111.03" cy="190.94" r="1"/>
				</g>
			</g>
			<path class="st8" d="M67.62,147.74"/>
			<path class="st12" d="M70.08,147.37c4.72-1.09,15.31-4.39,22.68-13.13c0.78-0.93,2.28-0.7,2.76,0.42l2.63,6.07
				c0.12,0.28,0.32,0.54,0.58,0.7c0.4,0.26,1,0.33,1.45-0.87c0.67-1.8-2.93-7.57-3.67-8.72c-0.09-0.14-0.2-0.27-0.33-0.37
				c-0.8-0.67-3.9-3.04-6.33-1.99c-2.82,1.22-18.32,6.92-18.29,9.15c0.02,1.78-3.65,6.87-5.15,8.87c-0.38,0.51-0.43,1.2-0.13,1.76
				c1.24,2.31,4.55,8.09,6.43,8.03c1.66-0.06-1.51-4.7-3.54-7.45C68.5,148.92,68.98,147.62,70.08,147.37z"/>
			<path class="st15" d="M68.32,131.34c0,0,9.12-1.87,11.32-7.11l0.13,1.13c0,0-2.92,5.58-10.84,6.38L68.32,131.34z"/>
			<path class="st16" d="M67.96,131.22c0,0,9.1-2.51,11.76-7.28l0.01,0.97c0,0-3.4,5.14-11.22,6.6L67.96,131.22z"/>
		</g>
		<g>
			<path class="st17" d="M74.69,208.12c0,0,1.15,3.27,0.01,3.12c-1.14-0.15-1.07,1.59-1.07,1.59s0.92,2.41-0.96,2.94
				c-1.88,0.52-0.86,1.75-0.86,1.75s-0.69,1.99-1.56,1.32c-0.87-0.67-0.75,1.31-0.75,1.31s1.56,1.75,0.54,1.92s-0.07,1.44-0.07,1.44
				s0.81,2.22,0.01,2.26c-0.8,0.04,1.56,2.06,1.27,2.38c-0.29,0.32,1.13,3.22,1.42,2.15s1.25,1.19,1.25,1.19s0.89,1.6,1.33,0.93
				c0.44-0.67,1.17,0.37,1.17,0.37s0.12,1.99,0.95,1.34c0.84-0.65,1.16,0.79,1.39,1.37s1.29,2.33,1.5,1.51
				c0.22-0.82,1.12,1.02,1.23,1.28s1.07,1.42,0.94,0.2c-0.12-1.23,0.1-0.41,0.5-0.23c0.4,0.18,0.53,2.14,1.09,1.37
				c0.56-0.77,0.67,1.26,0.67,1.26s-0.05,1.34,0.94,1.76c1,0.43,1.12,2.57,0.27,1.89c-0.85-0.68-0.92,0.8-0.92,0.8
				s-1.3,0.7-1.47-0.77c0,0-0.19,2.47-0.98,1.38c-0.79-1.09-1.19,0.37-1.19,0.37s-0.65,1.06-1.33-1.07
				c-0.68-2.12-0.74,0.93-0.47,1.22c0.27,0.28-0.88,1.49-1.56-0.62s-0.99,0.21-0.99,0.21s-2.06,1.26-1.52-0.32s-1.61-0.49-1.39,0.91
				s-1.48,0.59-1.47-0.45s-2.04-0.15-0.97,0.94c1.07,1.09-1.67,1.54-1.8-0.39s-0.65,0.62-0.59,0.58c0.06-0.03-1.5,1.17-1.09-1.09
				s-0.52,0.98-0.52,0.98s-0.53,1.15-0.97-0.45c0,0,0.21,1.99-0.92,0.65c-1.12-1.34-0.93-3.68-0.93-3.68s-1.59-0.23-1.26-2.26
				c0,0,0.95-0.82,0.13-1.59c-0.82-0.76-1.41-1.31-0.84-2.94c0,0,0.96-0.67,0.61-1.5c-0.35-0.83-1.73-1.66-0.8-2.59
				c0.93-0.93-0.3-1.98-0.3-1.98s-1.27-2.18-0.2-2.32c0,0-1.37-1.44-0.52-2.04c0,0-1.27-1.15-0.46-1.69
				c0.81-0.54,0.32-1.62,0.34-2.12c0.02-0.5,0.79-1.88,0.79-1.88s-1.74-0.58-1.07-1.69c0.67-1.11,1.21-0.49,0.96-1.64
				c-0.25-1.16-1.26-1.71-0.17-1.85c1.09-0.14,0.53-0.93,0.41-1.46c-0.12-0.53-0.8-0.81-0.33-1.49c0.47-0.68,0.88-0.31,0.63-1.09
				c-0.25-0.78-0.59-0.65-0.12-1.6s0.85-0.4,0.74-1.52s-0.85-1.13-0.06-1.48c0.79-0.34,1.69-0.7,1.32-1.82s0.13-2.19,0.13-2.19
				s1.46,0.72,1.48-0.71s-1.06-1.88,0.39-1.96c1.45-0.08,0.88-1.33,0.88-1.33s0.58-0.9,1.3-0.7c0.72,0.21,1.64-0.82,1.64-0.82
				s1.21-1.31,1.98-0.57c0.77,0.73,1.4,0.17,1.4,0.17s1.08-1.49,1.88-0.84c0.8,0.65,1.29,0.55,1.29,0.55s1.04-0.77,1.72,0.05
				c0.68,0.82,1.46,0.67,1.46,0.67s1.35-0.45,1.93,0.86s1.81,1.19,1.81,1.19s1.27-0.08,1.36,1.16c0.09,1.24,1.43,0.85,1.43,0.85
				s1.27-0.3,1.44,1.17c0.17,1.47,1.33,1.34,1.33,1.34s1.21,1.58,1.04,1.95c-0.17,0.38,1.26,0.4,1.26,0.4s0.25,0.37,0.69,1.28
				s1.54,2.88,2.13,2.04c0.59-0.83,1.03,0.41,1.16,1.46s0.83,1.55,1.3,1.22c0.48-0.33,0.53,1.3,0.96,1.79s1.26,1.14,1.59,1.24
				s1.25,0.91,0.73,1.36s-0.02,1.7,0.72,1.19s1.26,0.33,1.15,1.14c-0.11,0.81,0.45,1.71,0.87,1.21s0.94-0.42,1.16,0.65
				c0.22,1.07,0.04,1.8,0.9,2.03c0.85,0.23,2.05,0.38,1.86,1.2s-0.83,1.39-0.03,1.67c0.79,0.28,1.91,0.34,1.32,1.22
				c-0.59,0.88,0.99,2.37-0.27,2.24s-1.99,0.09-1.66,0.94s1.51,2.29-0.28,1.54c-1.79-0.75-2.31-0.8-1.96,0.15
				c0.34,0.95,0.88,1.71-0.2,1.01c-1.07-0.71-1.22-1.44-1.07-0.33c0.14,1.11-0.09,1.07-0.73,0.93c-0.64-0.14-0.83,0.2-0.8,0.79
				c0.03,0.59-0.1,1.33-0.83,0.44s-0.9,0.38-0.84,0.73c0.06,0.34-0.27,1.11-0.79,0.37c-0.52-0.75-0.52-0.45-0.6,0.09
				c-0.08,0.54-0.36,2.01-0.86,0.46c-0.5-1.55-0.67-1.94-0.71-1.17c-0.04,0.77,0.1,1.4-0.4,0.32c-0.5-1.08-1.07-1.31-0.55-2.18
				c0.52-0.87,0.57-1.38,0.02-2.11s-0.62,0.44-0.55-0.73c0.07-1.17,0.41-1.13,0-1.53c-0.42-0.4-0.87,0.43-0.51-0.95
				c0.37-1.38,0.99-1.12,0.26-1.97c-0.74-0.84-0.79,0.05-0.49-1.46c0.3-1.51,0.63-1.31,0.2-1.78c-0.43-0.47-0.7-0.27-0.66-0.78
				s0.93-0.23,0.83-1.09c-0.09-0.86-0.09-1.24-0.37-1.53c-0.27-0.28-0.57-0.99-0.75-0.95s0.02,0.42-0.29-0.54
				c-0.31-0.96,0.31-1.19-0.31-0.96c-0.62,0.22-0.23-1.51-0.23-1.51l-0.67-0.75c0,0-0.42,0.55-0.62-0.01
				c-0.2-0.56-0.9-1.31-0.9-1.31l-0.92,0.06c0,0-0.52-0.24-0.57-0.85s-0.46-0.46-0.7-0.19s-0.36,0.91-0.86,0.03
				s-0.88-0.79-1.05-0.48c-0.16,0.3,0.1,1.17-0.35,0.26c-0.45-0.91,0.02-0.94-0.45-0.91c-0.47,0.04-0.71,0.74-0.99-0.01
				c-0.28-0.75-0.67-0.72-0.9-0.42s-0.11,0.67-0.59-0.04c-0.49-0.71-0.31-1.2-0.68-0.71c-0.37,0.48-0.24,1.49-0.92,0.67
				c-0.68-0.82-0.2-1.13-0.8-0.58s0.87,1.94-0.56,1.3c-1.43-0.64-1.91-0.56-1.98-1.42c-0.08-0.86,0.15-0.58-0.73-1.12
				c-0.88-0.53-0.78,0.17-0.89-0.75s0.19-0.93-0.3-0.81s-0.16,0.98-0.93-0.47c-0.78-1.45-1.51-2.82-1.13-1.3
				c0.38,1.52,0.23,1.75,0.35,2.08C74.91,208.18,74.77,208.26,74.69,208.12z"/>
			
				<rect x="79.02" y="224.97" transform="matrix(0.882 -0.4713 0.4713 0.882 -100.0235 69.1924)" class="st6" width="18.25" height="18.68"/>
			<path class="st4" d="M86.29,198.48l-12.97,6.93l-12.97,6.93c2.08,6.86,5.18,11.65,7.3,14.45c3.44,4.55,6.82,9.02,12.4,10.15
				c4.09,0.82,7.54-0.51,9.36-1.42c1.76-1.01,4.79-3.14,6.38-7c2.17-5.26,0.33-10.56-1.54-15.95
				C93.09,209.26,90.83,204.02,86.29,198.48z"/>
			<path class="st1" d="M83.53,245.02c-0.22,1.02-0.64,2.58-1.47,4.33c-0.18,0.38-0.36,0.73-0.54,1.06
				c-1.51,2.72-3.1,3.79-5.66,7.69c-1.26,1.92-2.01,3.4-3.02,5.4c-1.98,3.9-2.97,5.85-3.14,7.82c-0.12,1.34-0.11,4.37,2.48,8.18
				l62.37-33.33c-1.73-4.27-4.25-5.96-5.42-6.61c-1.74-0.95-3.91-1.21-8.25-1.73c-2.23-0.27-3.87-0.46-6.17-0.49
				c-5.22-0.05-6.82,0.88-10.71,0.29c-1.91-0.29-3.44-0.8-4.41-1.19"/>
			<path class="st18" d="M90.05,241.35c0.82-0.45,1.24-0.67,1.45-0.58c0.56,0.24,0,1.27,0.65,2.83c0.4,0.98,0.97,1.67,0.79,2.56
				c-0.01,0.06-0.04,0.12-0.07,0.18c-0.46,0.74-2.67,1.32-10.16,0.67c0.06-0.26,0.11-0.46,0.13-0.57c0.13-0.58,0.2-0.85,0.35-1.23
				c0.01-0.03,0.02-0.05,0.03-0.06c0.11-0.24,2.3-1.34,2.44-1.41c0.08-0.04-0.01,0,0.86-0.47c0.44-0.24,0.66-0.35,1.11-0.6
				C88.31,242.29,88.89,241.97,90.05,241.35z"/>
			<path class="st18" d="M92.79,239.86c-0.84,0.44-1.25,0.67-1.29,0.89c-0.11,0.61,1.06,0.71,2.01,2.13c0.59,0.89,0.86,1.74,1.7,2.1
				c0.06,0.02,0.12,0.04,0.19,0.04c0.88,0.03,2.6-1.5,6.25-8.14c-0.25-0.09-0.45-0.17-0.55-0.21c-0.56-0.21-0.82-0.31-1.23-0.4
				c-0.04-0.01-0.05-0.01-0.07-0.01c-0.26-0.04-2.42,1.18-2.55,1.25c-0.08,0.04,0-0.01-0.87,0.46c-0.45,0.24-0.66,0.35-1.12,0.59
				C94.55,238.93,93.96,239.24,92.79,239.86z"/>
			<g>
				<path class="st19" d="M90.04,214.37l3.21-5.5 M70.39,224.58l-6.36-0.38"/>
				<path class="st19" d="M77.32,224.23l-3.02,1.61c-1.32,0.7-2.95,0.21-3.66-1.11v0c-0.7-1.32-0.21-2.95,1.11-3.66l3.02-1.61
					c1.32-0.7,2.95-0.21,3.66,1.11l0,0C79.14,221.89,78.64,223.53,77.32,224.23z"/>
				<path class="st19" d="M89.08,217.95l-3.02,1.61c-1.32,0.7-2.95,0.21-3.66-1.11h0c-0.7-1.32-0.21-2.95,1.11-3.66l3.02-1.61
					c1.32-0.7,2.95-0.21,3.66,1.11l0,0C90.89,215.61,90.39,217.25,89.08,217.95z"/>
				<line class="st19" x1="78.55" y1="220.51" x2="82.28" y2="218.52"/>
			</g>
			<path class="st20" d="M74.6,207.66c0,0,1.18,3.74-0.31,3.69c-1.49-0.06-1.57,1.99-1.57,1.99s0.97,2.76-1.56,3.57
				s-1.31,2.16-1.31,2.16s-1.11,2.42-2.19,1.72c-1.08-0.7-1.12,1.63-1.12,1.63s1.88,1.91,0.52,2.21s-0.24,1.71-0.24,1.71
				s0.85,2.55-0.21,2.67c-1.06,0.13,1.84,2.28,1.43,2.68c-0.41,0.4,1.16,3.69,1.65,2.4c0.49-1.3,1.53,1.28,1.53,1.28
				s1.01,1.8,1.66,0.97s1.5,0.32,1.5,0.32s-0.05,2.34,1.12,1.48s1.45,0.82,1.69,1.48c0.24,0.66,1.46,2.62,1.83,1.64
				c0.37-0.99,1.37,1.09,1.5,1.39c0.13,0.29,1.26,1.57,1.22,0.14s0.17-0.49,0.68-0.32c0.51,0.17,0.48,2.47,1.3,1.51
				s0.76,1.42,0.76,1.42s-0.21,1.58,1.06,1.99c1.27,0.41,1.22,2.93,0.16,2.21s-1.29,1.04-1.29,1.04s-1.78,0.96-1.86-0.76
				c0,0-0.5,2.94-1.43,1.73c-0.92-1.21-1.61,0.55-1.61,0.55s-0.96,1.31-1.65-1.13c-0.68-2.44-1.07,1.18-0.74,1.49
				c0.33,0.31-1.31,1.85-1.99-0.58c-0.68-2.43-1.33,0.34-1.33,0.34s-2.84,1.7-1.97-0.22c0.87-1.93-2.07-0.41-1.93,1.21
				c0.14,1.63-2.01,0.84-1.89-0.38c0.13-1.23-2.67,0.03-1.37,1.21c1.31,1.19-2.35,1.99-2.33-0.27c0.02-2.26-0.92,0.79-0.83,0.75
				s-2.09,1.54-1.33-1.18c0.76-2.71-0.78,1.21-0.78,1.21s-0.82,1.41-1.24-0.43c0,0,0.07,2.33-1.27,0.86
				c-1.34-1.47-0.86-4.26-0.86-4.26s-2.07-0.11-1.43-2.55c0,0,1.33-1.07,0.33-1.89c-1-0.82-1.72-1.41-0.81-3.39
				c0,0,1.34-0.89,0.96-1.83c-0.38-0.95-2.11-1.78-0.79-2.98c1.32-1.19-0.2-2.31-0.2-2.31s-1.45-2.45-0.03-2.73
				c0,0-1.66-1.56-0.48-2.36c0,0-1.56-1.23-0.43-1.96s0.58-1.95,0.66-2.54c0.08-0.59,1.23-2.3,1.23-2.3s-2.23-0.51-1.23-1.89
				c1-1.38,1.64-0.7,1.43-2.04c-0.21-1.34-1.49-1.89-0.04-2.17s0.79-1.15,0.68-1.76c-0.1-0.61-0.98-0.87-0.28-1.73
				c0.69-0.86,1.19-0.45,0.93-1.35s-0.72-0.71,0-1.88c0.72-1.17,1.16-0.56,1.12-1.88c-0.03-1.32-1-1.25,0.08-1.74s2.29-1,1.93-2.28
				c-0.36-1.29,0.39-2.6,0.39-2.6s1.86,0.71,2.03-0.99s-1.2-2.12,0.72-2.36c1.92-0.24,1.29-1.66,1.29-1.66s0.85-1.12,1.79-0.95
				c0.93,0.17,2.25-1.14,2.25-1.14s1.73-1.67,2.67-0.88c0.94,0.79,1.82,0.06,1.82,0.06s1.57-1.87,2.56-1.18
				c0.98,0.69,1.64,0.52,1.64,0.52s1.45-1.02,2.26-0.12c0.82,0.9,1.86,0.65,1.86,0.65s1.82-0.67,2.45,0.82
				c0.63,1.49,2.27,1.22,2.27,1.22s1.68-0.23,1.67,1.23c0,1.46,1.8,0.86,1.8,0.86s1.7-0.48,1.78,1.24c0.08,1.72,1.61,1.45,1.61,1.45
				s1.44,1.74,1.18,2.2c-0.26,0.46,1.62,0.35,1.62,0.35s0.29,0.41,0.77,1.45c0.48,1.04,1.73,3.24,2.59,2.2
				c0.86-1.05,1.32,0.38,1.38,1.61c0.06,1.24,0.93,1.74,1.6,1.31c0.66-0.44,0.57,1.48,1.08,2.02s1.55,1.22,1.97,1.31
				c0.42,0.09,1.55,0.96,0.82,1.54c-0.73,0.58-0.2,2.01,0.83,1.34c1.02-0.67,1.63,0.26,1.41,1.23c-0.23,0.97,0.42,1.98,1.02,1.35
				c0.6-0.63,1.29-0.59,1.47,0.65s-0.13,2.13,0.98,2.31c1.1,0.18,2.66,0.24,2.33,1.23c-0.33,0.99-1.23,1.72-0.21,1.98
				c1.02,0.26,2.49,0.21,1.62,1.31s1.07,2.71-0.58,2.67c-1.64-0.03-2.63,0.31-2.28,1.28c0.35,0.97,1.76,2.55-0.53,1.85
				c-2.28-0.71-2.96-0.71-2.6,0.37c0.36,1.09,0.98,1.94-0.36,1.21c-1.34-0.73-1.46-1.58-1.38-0.28s-0.23,1.28-1.06,1.17
				s-1.11,0.32-1.13,1.01c-0.02,0.69-0.27,1.59-1.13,0.61c-0.86-0.98-1.22,0.55-1.17,0.95c0.05,0.4-0.46,1.34-1.07,0.51
				s-0.64-0.48-0.8,0.17s-0.67,2.41-1.18,0.63c-0.5-1.78-0.69-2.23-0.81-1.31c-0.13,0.92-0.02,1.65-0.56,0.42
				c-0.54-1.23-1.28-1.44-0.51-2.52s0.89-1.69,0.23-2.49c-0.65-0.8-0.86,0.58-0.65-0.8c0.21-1.39,0.66-1.38,0.15-1.81
				c-0.51-0.43-1.19,0.6-0.57-1.07c0.62-1.67,1.42-1.43,0.54-2.35c-0.89-0.92-1.05,0.13-0.5-1.67c0.54-1.81,0.96-1.61,0.45-2.12
				c-0.51-0.52-0.9-0.25-0.79-0.85s1.25-0.36,1.21-1.37c-0.04-1.01,0-1.46-0.33-1.77c-0.33-0.31-0.65-1.11-0.89-1.04
				c-0.24,0.07-0.02,0.49-0.33-0.61c-0.31-1.11,0.52-1.43-0.31-1.11c-0.83,0.32-0.16-1.76-0.16-1.76l-0.81-0.82
				c0,0-0.6,0.69-0.81,0.05c-0.21-0.64-1.06-1.46-1.06-1.46l-1.22,0.16c0,0-0.66-0.24-0.66-0.95c0-0.72-0.56-0.5-0.9-0.16
				c-0.34,0.34-0.56,1.11-1.13,0.12c-0.57-0.99-1.08-0.84-1.33-0.46c-0.25,0.38,0.02,1.37-0.49,0.34c-0.51-1.02,0.12-1.11-0.51-1.02
				c-0.62,0.09-1.01,0.95-1.31,0.09c-0.29-0.85-0.81-0.78-1.14-0.4s-0.21,0.8-0.78,0.01c-0.57-0.79-0.29-1.38-0.82-0.77
				c-0.53,0.61-0.46,1.79-1.28,0.89c-0.82-0.9-0.15-1.32-0.99-0.6c-0.85,0.72,0.95,2.2-0.86,1.6c-1.82-0.61-2.45-0.47-2.47-1.48
				c-0.01-1,0.26-0.7-0.85-1.25c-1.11-0.54-1.05,0.28-1.09-0.79c-0.05-1.07,0.34-1.11-0.31-0.93c-0.65,0.18-0.3,1.18-1.18-0.46
				c-0.88-1.64-1.7-3.18-1.36-1.42s0.12,2.04,0.25,2.42C74.89,207.71,74.7,207.82,74.6,207.66z"/>
			<g>
				<circle class="st21" cx="86.48" cy="268.94" r="1.4"/>
				<circle class="st21" cx="89.87" cy="267.13" r="1.4"/>
				<circle class="st21" cx="93.43" cy="265.22" r="1.4"/>
				<circle class="st21" cx="96.98" cy="263.33" r="1.4"/>
				<circle class="st21" cx="100.78" cy="261.29" r="1.4"/>
				<circle class="st21" cx="104.33" cy="259.4" r="1.4"/>
				<circle class="st21" cx="108.06" cy="257.4" r="1.4"/>
				<circle class="st21" cx="111.61" cy="255.51" r="1.4"/>
				<circle class="st21" cx="115.27" cy="253.55" r="1.4"/>
				<circle class="st21" cx="118.82" cy="251.65" r="1.4"/>
				<circle class="st21" cx="84.51" cy="265.28" r="1.4"/>
				<circle class="st21" cx="88.06" cy="263.39" r="1.4"/>
				<circle class="st21" cx="91.46" cy="261.57" r="1.4"/>
				<circle class="st21" cx="95.01" cy="259.67" r="1.4"/>
				<circle class="st21" cx="98.82" cy="257.64" r="1.4"/>
				<circle class="st21" cx="102.37" cy="255.74" r="1.4"/>
				<circle class="st21" cx="106.1" cy="253.75" r="1.4"/>
				<circle class="st21" cx="109.65" cy="251.85" r="1.4"/>
				<circle class="st21" cx="113.31" cy="249.9" r="1.4"/>
				<circle class="st21" cx="116.86" cy="248" r="1.4"/>
			</g>
		</g>
		<g>
			<g>
				<g>
					<g>
						<path class="st1" d="M148.09,155.02l26.64,13.8c0.24,0.12,0.5,0.21,0.77,0.25l19.32,3.15l23.18,3.79
							c1.66,0.27,3.13-1.11,2.97-2.79l-3.07-30.73c-0.01-0.05-0.01-0.1-0.01-0.15c-0.03-0.78-0.43-8.39-5.06-15.38
							c-0.05-0.07-0.09-0.14-0.13-0.22c-0.51-1-1.37-2.43-2.75-3.85c-5.21-5.36-12.68-5.25-14.71-5.23
							c-1.99,0.03-5.38,0.33-9.32,2.07c-0.14,0.06-0.28,0.14-0.41,0.23c-4.43,2.97-8.96,6.21-13.57,9.74
							c-9.24,7.08-17.36,14.26-24.44,21.2C146.22,152.13,146.54,154.21,148.09,155.02z"/>
					</g>
				</g>
				
					<rect x="198.01" y="155.04" transform="matrix(0.9876 0.1569 -0.1569 0.9876 28.2515 -29.5979)" class="st22" width="7.17" height="18.2"/>
				
					<rect x="172.51" y="150.22" transform="matrix(0.8829 0.4696 -0.4696 0.8829 95.4444 -64.0364)" class="st22" width="7.17" height="18.2"/>
				
					<rect x="207.81" y="153.13" transform="matrix(0.9876 0.1569 -0.1569 0.9876 28.3083 -30.8358)" class="st22" width="3.32" height="21.5"/>
				<line class="st3" x1="185.82" y1="163.05" x2="198.04" y2="165.91"/>
				
					<rect x="178.14" y="158.05" transform="matrix(0.9738 0.2275 -0.2275 0.9738 43.1845 -38.3631)" class="st6" width="19.74" height="20.21"/>
				<path class="st4" d="M211.59,139.75l-15.5-3.62l-15.5-3.62c-3.1,6.64-3.92,12.41-4.15,15.98c-0.37,5.81-0.73,11.53,3.05,16.21
					c2.77,3.43,6.54,4.78,8.67,5.34c2.15,0.44,6.13,0.9,10.14-0.95c5.47-2.52,7.67-7.81,9.92-13.18
					C209.61,152.61,211.43,147.08,211.59,139.75z"/>
				<path class="st2" d="M176.62,173.58c-0.91,0.67-2.36,1.63-4.28,2.47c-0.42,0.18-0.81,0.34-1.19,0.48
					c-3.17,1.14-5.23,0.87-10.09,2.21c-2.39,0.66-4.06,1.33-6.31,2.23c-4.39,1.76-6.59,2.64-8.14,4.12c-1.05,1-3.21,3.47-3.82,8.42
					l74.51,17.41c1.65-4.71,0.8-7.88,0.31-9.24c-0.73-2.02-2.31-3.78-5.47-7.3c-1.62-1.81-2.82-3.14-4.67-4.79
					c-4.21-3.76-6.17-4.15-8.92-7.41c-1.35-1.6-2.22-3.11-2.74-4.11"/>
				<path class="st4" d="M212.89,152.38c0.24-1.32,0.52-2.84-0.33-4.19c-0.59-0.93-1.46-1.39-1.95-1.61
					c-0.01,0.56-0.07,1.34-0.26,2.26c-0.23,1.16-0.56,1.98-0.92,2.86c-0.35,0.86-0.86,1.99-1.61,3.26l0.04,0.01
					c-0.14,0.25-0.28,0.48-0.41,0.69c-0.5,0.81-0.97,1.57-1.76,2.44c-0.63,0.69-1.22,1.2-1.66,1.54c0.47,0.27,1.35,0.7,2.45,0.62
					c1.6-0.12,2.65-1.24,3.57-2.22c0.53-0.56,1.3-1.52,1.9-2.93C212.52,154.01,212.77,153.03,212.89,152.38z"/>
				<path class="st4" d="M173.9,143.27c0.37-1.3,0.79-2.77,2.15-3.61c0.94-0.58,1.92-0.6,2.46-0.57c-0.23,0.51-0.53,1.23-0.77,2.14
					c-0.3,1.14-0.37,2.02-0.44,2.98c-0.07,0.92-0.11,2.16,0,3.63l-0.04-0.01c0.02,0.29,0.04,0.56,0.06,0.8
					c0.09,0.95,0.17,1.83,0.5,2.97c0.26,0.9,0.56,1.62,0.81,2.12c-0.54,0.04-1.52,0.03-2.47-0.53c-1.38-0.81-1.83-2.28-2.22-3.57
					c-0.22-0.74-0.49-1.94-0.41-3.47C173.52,144.9,173.72,143.91,173.9,143.27z"/>
				<path class="st18" d="M184.54,175.24c0.99,0.23,1.48,0.34,1.59,0.56c0.28,0.6-0.9,1.03-1.5,2.77c-0.37,1.08-0.41,2.05-1.18,2.65
					c-0.05,0.04-0.11,0.07-0.19,0.09c-0.91,0.27-3.11-0.83-8.74-6.71c0.24-0.17,0.42-0.3,0.51-0.37c0.52-0.37,0.77-0.55,1.16-0.76
					c0.03-0.02,0.05-0.03,0.07-0.03c0.26-0.12,2.83,0.55,2.99,0.59c0.09,0.02,0,0,1.03,0.23c0.53,0.12,0.78,0.18,1.33,0.3
					C182.46,174.77,183.15,174.93,184.54,175.24z"/>
				<path class="st18" d="M187.83,175.98c-0.99-0.24-1.49-0.35-1.69-0.2c-0.52,0.41,0.36,1.33,0.12,3.17
					c-0.15,1.14-0.55,2.03-0.11,2.93c0.03,0.06,0.07,0.11,0.13,0.17c0.7,0.65,3.18,0.64,10.9-2.16c-0.14-0.26-0.25-0.46-0.3-0.56
					c-0.31-0.57-0.45-0.84-0.71-1.2c-0.02-0.03-0.04-0.05-0.04-0.06c-0.18-0.22-2.81-0.77-2.97-0.8c-0.1-0.02,0.01,0-1.04-0.25
					c-0.53-0.13-0.79-0.18-1.34-0.32C189.92,176.49,189.23,176.32,187.83,175.98z"/>
			</g>
			
				<rect x="153.8" y="200.99" transform="matrix(0.9738 0.2275 -0.2275 0.9738 50.5759 -35.6407)" class="st8" width="52.21" height="1.18"/>
			
				<rect x="154.33" y="198.7" transform="matrix(0.9738 0.2275 -0.2275 0.9738 50.0681 -35.8228)" class="st8" width="52.21" height="1.18"/>
			
				<rect x="154.87" y="196.4" transform="matrix(0.9738 0.2275 -0.2275 0.9738 49.5603 -36.0048)" class="st8" width="52.21" height="1.18"/>
			
				<rect x="155.4" y="194.11" transform="matrix(0.9738 0.2275 -0.2275 0.9738 49.0525 -36.1869)" class="st8" width="52.21" height="1.18"/>
		</g>
		<g>
			<g>
				
					<rect x="201.52" y="211.48" transform="matrix(0.9011 0.4336 -0.4336 0.9011 116.1679 -69.2598)" class="st6" width="16.82" height="17.14"/>
				<path class="st4" d="M233.5,211.61c0.45-1.05,0.96-2.25,0.49-3.53c-0.32-0.88-0.96-1.42-1.33-1.69
					c-0.12,0.46-0.31,1.1-0.63,1.82c-0.41,0.91-0.83,1.53-1.29,2.2c-0.45,0.65-1.08,1.48-1.93,2.4l0.03,0.01
					c-0.16,0.18-0.32,0.35-0.47,0.5c-0.56,0.58-1.09,1.12-1.91,1.69c-0.65,0.46-1.24,0.77-1.67,0.97c0.34,0.31,1,0.83,1.92,0.97
					c1.35,0.2,2.43-0.53,3.38-1.17c0.54-0.37,1.36-1.02,2.12-2.07C232.89,212.89,233.28,212.13,233.5,211.61z"/>
				<path class="st4" d="M202.76,196.82c0.54-1,1.16-2.15,2.45-2.59c0.89-0.3,1.71-0.14,2.15-0.02c-0.29,0.38-0.67,0.92-1.03,1.63
					c-0.46,0.89-0.68,1.61-0.91,2.38c-0.23,0.75-0.49,1.77-0.67,3.01l-0.03-0.01c-0.04,0.24-0.07,0.47-0.1,0.67
					c-0.1,0.8-0.19,1.55-0.13,2.55c0.05,0.79,0.17,1.44,0.28,1.91c-0.46-0.07-1.27-0.26-1.96-0.9c-1-0.93-1.1-2.23-1.19-3.37
					c-0.05-0.65-0.05-1.69,0.3-2.95C202.14,198.1,202.49,197.32,202.76,196.82z"/>
				<path class="st4" d="M234.73,200.91l-12.22-5.88l-12.22-5.88c-3.79,4.92-5.53,9.55-6.38,12.47c-1.37,4.74-2.72,9.41-0.44,13.99
					c1.68,3.35,4.56,5.17,6.23,6.03c1.71,0.76,4.93,1.88,8.6,1.1c5.01-1.07,7.81-5.04,10.66-9.07
					C230.73,211.19,233.25,206.95,234.73,200.91z"/>
				<path class="st23" d="M229.1,213.5c0-0.08-0.02-0.12-0.04-0.16c-0.08-0.1-0.23-0.08-0.76,0.06c-0.32,0.08-0.79,0.22-1.48,0.4
					c-1.72,0.45-2.27,0.53-2.83,0.55c-0.82,0.03-1.45,0.05-2.03-0.35c-0.39-0.27-0.66-0.62-0.99-1.19c-1.17-2-0.98-2.29-1.61-2.85
					c-0.55-0.48-1.16-0.69-2.31-1.08c-0.54-0.18-0.84-0.24-1.02-0.25c-0.12-0.13-0.35-0.33-0.83-0.64
					c-1.02-0.65-1.57-1.01-2.28-1.13c-0.83-0.14-0.95,0.18-3.23,0.52c-0.66,0.1-1.1,0.11-1.56-0.03c-0.68-0.21-1.05-0.71-1.54-1.37
					c-0.33-0.45-0.61-0.93-1.33-2.55c-0.3-0.67-0.5-1.13-0.63-1.45c-0.21-0.47-0.29-0.59-0.42-0.59c-0.07,0-0.15,0.03-0.28,0.24l0,0
					c-0.22,0.38-0.57,1.34-1.18,3.75c0,0.01-0.01,0.02-0.01,0.03c-0.43,1.69-0.54,2.37-0.58,2.66c0,0-0.01,0.04-0.01,0.09
					c-0.11,0.82-0.35,2.65-0.15,4.27c0.15,1.18,0.53,2.18,0.87,2.9c0.24,0.49,0.46,0.85,0.59,1.05c0.34,0.53,0.9,1.07,1.8,1.87
					c0,0,0.01,0,0.01,0.01c0.41,0.36,0.89,0.77,1.47,1.26c1.06,0.91,1.78,1.45,2.29,1.76c0,0.01,0.01,0.01,0.01,0.01
					c0.19,0.12,0.35,0.21,0.49,0.27c0.09,0.04,0.17,0.07,0.24,0.09c0.05,0.03,0.1,0.07,0.17,0.1c0.16,0.09,0.38,0.18,0.69,0.28
					c0.02,0.01,0.03,0.02,0.05,0.02c0.56,0.18,1.39,0.39,2.64,0.63c0.64,0.12,1.19,0.23,1.67,0.32c1.26,0.23,2.07,0.34,2.72,0.29
					c0.04,0,0.07,0,0.11-0.01c0.58-0.05,2.29-0.28,4-1.32c1.4-0.85,2.67-2.18,3.24-2.78c0.03-0.03,0.06-0.06,0.06-0.06
					c0.2-0.22,0.66-0.73,1.71-2.12c0.01-0.01,0.02-0.02,0.02-0.03C228.69,214.55,229.08,213.79,229.1,213.5z M216.3,218.93
					c-1.27,0.64-3.36-1.05-4.65-1.21c-0.93-0.91-3.56-1.49-3.85-2.88c-0.08-0.39,0.2-1,0.78-2.23c0.22-0.47,0.44-0.83,0.86-1.55
					c0.13-0.22,0.25-0.41,0.35-0.58c0.65-1.04,0.86-1.14,1.07-1.17c0.25-0.04,0.43,0.08,1.65,0.66c1.46,0.69,1.87,1.13,2.28,1.22
					c0.33,0.26,0.92,0.31,2.37,1.02c1.2,0.59,1.42,0.66,1.54,0.88c0.1,0.18,0.16,0.41-0.25,1.56c-0.06,0.19-0.14,0.4-0.23,0.64
					c-0.29,0.79-0.44,1.18-0.67,1.64C216.95,218.14,216.65,218.75,216.3,218.93z"/>
				
					<ellipse transform="matrix(0.4336 -0.9011 0.9011 0.4336 -52.4195 311.2369)" class="st4" cx="221.36" cy="197.32" rx="8.22" ry="13.59"/>
				<path class="st23" d="M207.56,194.3c-0.42-0.07-0.58-1.71-0.48-3.06c0.03-0.41,0.14-1.41,1.02-3.47
					c0.88-2.06,1.46-3.42,2.84-4.71c0.78-0.73,1.75-1.64,2.98-1.54c1.2,0.09,2.04,0.7,2.04,0.7c0.46,0.33,0.65,0.64,1.06,0.65
					c0.38,0.01,0.55-0.25,1.17-0.64c0.5-0.31,1.03-0.56,1.4-0.67c0.89-0.27,1.71-0.04,2.38,0.15c0.56,0.16,1.24,0.52,2.58,1.24
					c1.27,0.68,1.19,0.69,1.44,0.76c1.16,0.35,2.25-0.01,3.35-0.37c1.26-0.41,1.48-0.72,2.59-0.88c1.23-0.17,1.64,0.12,1.77,0.22
					c0.15,0.12,0.22,0.23,0.75,1.28c0.47,0.93,0.62,1.24,0.78,1.22c0.25-0.03,0.19-0.85,0.61-0.98c0.21-0.06,0.47,0.07,0.61,0.22
					c0.23,0.25,0.1,0.51,0.23,1.17c0.1,0.48,0.14,0.8,0.4,0.97c0.16,0.1,0.43,0.17,0.6,0.05c0.29-0.2,0.04-0.77,0.32-0.95
					c0.14-0.09,0.34-0.04,0.45,0c0.52,0.24,0.26,1.32,0.48,3.34c0.11,1,0.17,1.5,0.11,2.17c-0.1,1.13-0.43,1.71-1.14,3.41
					c-1.08,2.6-0.82,2.44-1.47,3.73c-0.97,1.93-1.63,3.26-2.5,3.24c-1-0.02-1.79-1.85-2.61-3.71c-0.85-1.96-0.61-2.26-1.14-3.17
					c-0.85-1.44-1.99-1.58-5.98-3.3c-4.67-2.01-5.44-2.82-7.8-2.97c-2.08-0.13-3.53,0.37-3.93,0.52c-0.47,0.17-1.25,0.47-2.03,1.07
					C208.23,191.74,208.09,194.39,207.56,194.3z"/>
				<path class="st7" d="M229.89,218.3L229.89,218.3c-1.15-0.67-1.54-2.16-0.86-3.31l4.56-7.77c0.67-1.15,2.15-1.54,3.31-0.86l0,0
					c1.15,0.67,1.54,2.16,0.86,3.31l-4.56,7.77C232.52,218.59,231.04,218.97,229.89,218.3z"/>
				<path class="st7" d="M199.5,204.88L199.5,204.88c1.25,0.48,2.65-0.14,3.12-1.39l3.23-8.41c0.48-1.25-0.14-2.64-1.39-3.12l0,0
					c-1.25-0.48-2.65,0.14-3.12,1.39l-3.23,8.41C197.64,203,198.26,204.4,199.5,204.88z"/>
				<path class="st24" d="M225.98,261.85l-58.73-28.26c1.41-3.98,3.66-5.63,4.72-6.26c1.56-0.94,3.54-1.26,7.52-1.9
					c2.04-0.33,3.54-0.57,5.66-0.68c4.28-0.21,5.95,0.4,8.79,0.04c0.34-0.04,0.7-0.1,1.08-0.17c1.73-0.33,3.1-0.85,3.99-1.24
					c0.01,0,0.02-0.01,0.03-0.01l15.12,7.28c0,0.01,0,0.02,0.01,0.03c0.25,0.93,0.7,2.33,1.52,3.89c1.69,3.21,3.24,3.89,6.05,7.79
					c1.24,1.71,1.98,3.04,3,4.84c1.98,3.5,2.97,5.25,3.21,7.06C228.09,255.48,228.21,258.26,225.98,261.85z"/>
				<path class="st25" d="M234.84,208.93c0.41-0.7,1.04-1.75,1.82-3c1.24-1.99,2.14-3.33,2.34-3.65c1.23-1.89,3.61-7.09,2.71-11.95
					c-1.19-6.47-8.23-9.96-10.81-11.3c-0.45-0.23-0.89-0.45-1.35-0.65c-2.66-1.18-9.67-4.29-15.58-1.4c0,0-5.33,2.61-7.65,9.58
					c-0.12,0.36-0.61,1.9-1.39,4.1c-0.49,1.39-0.92,2.53-1.21,3.29"/>
			</g>
			<g>
				
					<rect x="180.58" y="236.09" transform="matrix(0.4336 -0.9011 0.9011 0.4336 -109.0003 299.9043)" class="st26" width="6.96" height="1.13"/>
				
					<rect x="178.53" y="235.1" transform="matrix(0.4336 -0.9011 0.9011 0.4336 -109.2725 297.4994)" class="st26" width="6.96" height="1.14"/>
				
					<rect x="176.48" y="234.12" transform="matrix(0.4336 -0.9011 0.9011 0.4336 -109.5447 295.0945)" class="st26" width="6.96" height="1.13"/>
				
					<rect x="174.43" y="233.13" transform="matrix(0.4336 -0.9011 0.9011 0.4336 -109.8171 292.6873)" class="st26" width="6.96" height="1.13"/>
				
					<rect x="188.5" y="239.9" transform="matrix(0.4336 -0.9011 0.9011 0.4336 -107.9483 309.1981)" class="st26" width="6.96" height="1.14"/>
				
					<rect x="186.45" y="238.91" transform="matrix(0.4336 -0.9011 0.9011 0.4336 -108.2205 306.7932)" class="st26" width="6.96" height="1.13"/>
				
					<rect x="184.4" y="237.93" transform="matrix(0.4336 -0.9011 0.9011 0.4336 -108.493 304.3859)" class="st26" width="6.96" height="1.13"/>
				
					<rect x="182.35" y="236.94" transform="matrix(0.4336 -0.9011 0.9011 0.4336 -108.7652 301.981)" class="st26" width="6.96" height="1.14"/>
				
					<rect x="196.34" y="243.67" transform="matrix(0.4336 -0.9011 0.9011 0.4336 -106.9067 318.4006)" class="st26" width="6.96" height="1.13"/>
				
					<rect x="194.29" y="242.69" transform="matrix(0.4336 -0.9011 0.9011 0.4336 -107.1792 315.9934)" class="st26" width="6.96" height="1.13"/>
				
					<rect x="192.24" y="241.7" transform="matrix(0.4336 -0.9011 0.9011 0.4336 -107.4514 313.5885)" class="st26" width="6.96" height="1.14"/>
				
					<rect x="190.19" y="240.71" transform="matrix(0.4336 -0.9011 0.9011 0.4336 -107.7236 311.1836)" class="st26" width="6.96" height="1.13"/>
				
					<rect x="204.8" y="247.75" transform="matrix(0.4336 -0.9011 0.9011 0.4336 -105.7818 328.3395)" class="st26" width="6.96" height="1.13"/>
				
					<rect x="202.76" y="246.76" transform="matrix(0.4336 -0.9011 0.9011 0.4336 -106.054 325.9346)" class="st26" width="6.96" height="1.14"/>
				
					<rect x="200.71" y="245.77" transform="matrix(0.4336 -0.9011 0.9011 0.4336 -106.3262 323.5296)" class="st26" width="6.96" height="1.13"/>
				
					<rect x="198.66" y="244.79" transform="matrix(0.4336 -0.9011 0.9011 0.4336 -106.5986 321.1224)" class="st26" width="6.96" height="1.13"/>
				
					<rect x="213.21" y="251.79" transform="matrix(0.4336 -0.9011 0.9011 0.4336 -104.6656 338.2009)" class="st26" width="6.96" height="1.13"/>
				
					<rect x="211.16" y="250.8" transform="matrix(0.4336 -0.9011 0.9011 0.4336 -104.9378 335.796)" class="st26" width="6.96" height="1.14"/>
				
					<rect x="209.11" y="249.82" transform="matrix(0.4336 -0.9011 0.9011 0.4336 -105.21 333.391)" class="st26" width="6.96" height="1.13"/>
				
					<rect x="207.06" y="248.83" transform="matrix(0.4336 -0.9011 0.9011 0.4336 -105.4825 330.9838)" class="st26" width="6.96" height="1.13"/>
				
					<rect x="219.08" y="254.61" transform="matrix(0.4336 -0.9011 0.9011 0.4336 -103.8859 345.0897)" class="st26" width="6.96" height="1.13"/>
				
					<rect x="217.03" y="253.63" transform="matrix(0.4336 -0.9011 0.9011 0.4336 -104.1583 342.6825)" class="st26" width="6.96" height="1.13"/>
				
					<rect x="214.98" y="252.64" transform="matrix(0.4336 -0.9011 0.9011 0.4336 -104.4305 340.2776)" class="st26" width="6.96" height="1.14"/>
			</g>
		</g>
		<g>
			<path class="st27" d="M167.9,272.91L167.9,272.91c1.31-0.56,2.83,0.05,3.39,1.36l8.73,20.4c0.56,1.31-0.05,2.83-1.36,3.39l0,0
				c-1.31,0.56-2.83-0.05-3.39-1.36l-8.73-20.4C165.98,274.99,166.59,273.47,167.9,272.91z"/>
			<path class="st27" d="M157.7,277.28L157.7,277.28c1.31-0.56,2.83,0.05,3.39,1.36l8.73,20.4c0.56,1.31-0.05,2.83-1.36,3.39l0,0
				c-1.31,0.56-2.83-0.05-3.39-1.36l-8.73-20.4C155.78,279.36,156.39,277.84,157.7,277.28z"/>
			
				<rect x="172.07" y="297.71" transform="matrix(-0.9193 0.3936 -0.3936 -0.9193 454.4677 512.8093)" class="st28" width="5.16" height="10.58"/>
			
				<rect x="172.14" y="298.24" transform="matrix(-0.9193 0.3936 -0.3936 -0.9193 452.3219 514.2988)" class="st29" width="2.58" height="10.58"/>
			<path class="st2" d="M175.78,305.75L175.78,305.75c2.45-1.05,5.28,0.09,6.32,2.53l1.18,2.77c1.05,2.45-0.09,5.28-2.53,6.32l0,0
				L175.78,305.75z"/>
			<path class="st30" d="M172.67,307.08l3.34-1.43l4.98,11.62l0,0c-2.49,1.07-5.37-0.09-6.44-2.58l-2.55-5.95
				C171.73,308.1,172.03,307.35,172.67,307.08z"/>
			<path class="st30" d="M165.1,301.28l-2.95-8.83c-0.36-1.09,0.17-2.27,1.22-2.72l9.62-4.12c1.05-0.45,2.27-0.02,2.81,0.99
				l4.35,8.23c0.6,1.14,0.1,2.55-1.08,3.05l-11.03,4.72C166.87,303.11,165.51,302.5,165.1,301.28z"/>
			<path class="st2" d="M173.45,300.29l-5.38-12.57l4.92-2.11c1.06-0.45,2.29-0.02,2.83,1l4.86,9.19c0.32,0.61,0.06,1.37-0.58,1.64
				L173.45,300.29z"/>
			<line class="st31" x1="174.36" y1="284.74" x2="180.7" y2="296.91"/>
			<line class="st31" x1="174.36" y1="284.74" x2="180.7" y2="296.91"/>
			<line class="st31" x1="166.45" y1="303" x2="162.03" y2="290.02"/>
			<circle class="st7" cx="167.35" cy="298.83" r="1.42"/>
			<circle class="st7" cx="177.07" cy="294.67" r="1.42"/>
		</g>
		<g>
			<path class="st32" d="M117.59,311.4l0.61,0.21l-0.64,1.83c0,0-0.06-0.51-0.78,1.25l3.14,1.1l0.4-0.15l9.43,3.6l-2.61,1.14
				l-10.5-1.14l-7.54-2.65l0.81-2.31l-0.47-0.07l0.43-1.22l-3.09-0.99l2.76,0.09l2.29,0.75c0,0,0.62,0.46,0.6-1.16l0.66-1.88
				L117.59,311.4z"/>
			<polygon class="st33" points="109.42,314.23 108.64,313.95 108.3,314.08 105.07,312.95 106.25,312.38 109.79,313.19 			"/>
			<path class="st32" d="M108.02,312.35l-1.23-1.03l-0.72-1.43l3.41,1.2l0.27,0.34l1.3,0.21l0.71-2.01l5.76-16.41l2.27,0.8
				l-5.59,16.48l-1.05-0.37l-0.66,1.88c0,0,0.01,1.36-0.6,1.16c-0.62-0.2-2.29-0.75-2.29-0.75L108.02,312.35z"/>
			<path class="st32" d="M117.11,311.23l5.76-16.41l2.4,0.84l-4.08,11.61c0,0-0.56,0.34,1.06,1.45c1.62,1.11,7.08,4.84,7.08,4.84
				l1.53,2.5l-9.6-3.37c0,0-0.07-0.37-1.01-0.6C119.29,311.85,117.11,311.23,117.11,311.23"/>
			
				<rect x="93.91" y="277.02" transform="matrix(0.3313 -0.9435 0.9435 0.3313 -179.3952 306.6486)" class="st33" width="65.47" height="5.74"/>
			
				<rect x="93.92" y="277.53" transform="matrix(0.3313 -0.9435 0.9435 0.3313 -179.5293 306.618)" class="st34" width="65.26" height="4.88"/>
			<path class="st35" d="M113.09,302.82l-0.65,1.69c-0.05,0.12-0.18,0.18-0.3,0.13l-0.48-0.18c-0.12-0.05-0.18-0.18-0.13-0.3
				l0.65-1.69c0.05-0.12,0.18-0.18,0.3-0.13l0.48,0.18C113.07,302.57,113.13,302.7,113.09,302.82"/>
			<path class="st32" d="M113.48,303.47l-0.31,0.81c-0.05,0.12-0.18,0.18-0.3,0.13l-0.13-0.05c-0.12-0.05-0.18-0.18-0.13-0.3
				l0.31-0.81c0.05-0.12,0.18-0.18,0.3-0.13l0.13,0.05C113.47,303.22,113.53,303.35,113.48,303.47"/>
		</g>
		<g>
			
				<rect x="143.04" y="282.4" transform="matrix(0.9988 -0.05 0.05 0.9988 -14.6821 7.7018)" class="st20" width="7.39" height="30.35"/>
			
				<rect x="143.72" y="282.54" transform="matrix(0.9988 -0.05 0.05 0.9988 -14.6927 7.5594)" class="st36" width="0.34" height="30.35"/>
			
				<rect x="146.4" y="282.41" transform="matrix(0.9988 -0.05 0.05 0.9988 -14.6827 7.6934)" class="st36" width="0.34" height="30.35"/>
			
				<rect x="149.42" y="282.26" transform="matrix(0.9988 -0.05 0.05 0.9988 -14.6714 7.8441)" class="st36" width="0.34" height="30.35"/>
			<polygon class="st37" points="143.8,312.91 148.23,324.12 151.19,312.54 			"/>
			<polygon class="st38" points="146.71,320.27 149.25,320.15 148.25,324.4 			"/>
		</g>
		<g>
			
				<rect x="186.67" y="253.68" transform="matrix(0.5781 -0.816 0.816 0.5781 -147.5239 273.8255)" class="st27" width="8.7" height="51.78"/>
			<path class="st27" d="M206.96,257.63c-10.06-7.12-24.08-4.58-31.35,5.68l6.03,4.52c0,0,7.98-11.44,20.4-3.92c12.42,7.52,0,0,0,0
				s11.45,7.4,3.32,20.72c-8.14,13.33,0,0,0,0l6.26,4.19c7.27-10.27,5.02-24.34-5.03-31.46"/>
		</g>
		<g>
			
				<rect x="106.66" y="252.29" transform="matrix(-0.5907 -0.8069 0.8069 -0.5907 -51.9595 531.1926)" class="st27" width="4.14" height="52.96"/>
			
				<rect x="104.37" y="249.11" transform="matrix(-0.5907 -0.8069 0.8069 -0.5907 -53.2015 524.1932)" class="st39" width="3.93" height="52.96"/>
			<path class="st40" d="M74.86,287.29l3.02,3.97L77,291.94c-1.62,1.23-1.93,3.55-0.7,5.17l2.48,3.26c1.23,1.62,3.55,1.93,5.17,0.7
				l0.89-0.68l3.14,4.12c2.03,2.67,5.85,3.19,8.52,1.15l0.92-0.7c0.29-0.22,0.34-0.63,0.12-0.91l-19.7-25.86
				c-0.22-0.29-0.62-0.34-0.91-0.12l-0.92,0.7C73.34,280.81,72.83,284.62,74.86,287.29"/>
			<path class="st28" d="M76.01,278.78l0.92-0.7c0.28-0.22,0.69-0.16,0.91,0.12l10.12,13.29l-10.24,7.5l-0.18-0.24l-1.25-1.64
				c-1.23-1.62-0.92-3.93,0.7-5.17l0.89-0.68l-3.03-3.97C72.83,284.62,73.34,280.81,76.01,278.78z"/>
		</g>
	</g>
	<circle class="st0" cx="144.88" cy="232.15" r="51.71"/>
	<g>
		<g>
			<g>
				<path class="st41" d="M169.43,221.16v11.91c0,13.16-10.73,23.87-23.92,23.87c-13.19,0-23.92-10.71-23.92-23.87v-11.91h-1.7
					v11.91c0,14.1,11.49,25.56,25.61,25.56c14.12,0,25.61-11.47,25.61-25.56v-11.91H169.43z"/>
			</g>
			<g class="st42">
				<path class="st43" d="M169.43,222.6v11.41c0,12.61-10.73,22.87-23.92,22.87c-13.19,0-23.92-10.26-23.92-22.87V222.6h-1.7v11.41
					c0,13.51,11.49,24.49,25.61,24.49c14.12,0,25.61-10.99,25.61-24.49V222.6H169.43z"/>
			</g>
		</g>
		<g>
			<g>
				<path class="st44" d="M163.9,203.03v24.9c0,4.42-1.53,8.48-4.09,11.69c-0.24,0.3-0.49,0.6-0.75,0.88
					c-0.86,0.95-1.82,1.81-2.86,2.57c-1.77,1.3-3.77,2.29-5.94,2.9c-0.39,0.11-0.78,0.21-1.18,0.29c-1.28,0.28-2.61,0.42-3.97,0.42
					c-1.57,0-3.1-0.19-4.56-0.56c-0.4-0.1-0.8-0.21-1.18-0.34c-3.55-1.14-6.64-3.3-8.93-6.14c-2.18-2.72-3.63-6.05-4.02-9.7v-0.01
					c-0.07-0.67-0.11-1.34-0.11-2.03v-24.9c0-5.01,1.97-9.56,5.18-12.93c0.39-0.41,0.8-0.81,1.23-1.18
					c0.02-0.02,0.04-0.04,0.06-0.05c3.3-2.87,7.61-4.6,12.33-4.6c0.04,0,0.07,0,0.11,0c0.94,0,1.85,0.08,2.75,0.22
					c0.06,0.01,0.13,0.02,0.19,0.03c2.16,0.35,4.2,1.07,6.04,2.09c1.55,0.85,2.96,1.92,4.2,3.16c0.36,0.36,0.71,0.73,1.03,1.12
					C162.22,194.16,163.9,198.4,163.9,203.03z"/>
			</g>
			<g>
				<path class="st45" d="M166.44,215.48v16.92c0,6.07-2.55,11.55-6.63,15.43c-0.24,0.23-0.5,0.46-0.75,0.68
					c-0.89,0.77-1.85,1.47-2.86,2.08c-1.82,1.11-3.82,1.95-5.94,2.48c-0.39,0.1-0.79,0.18-1.18,0.26c-0.46,0.09-0.92,0.16-1.39,0.22
					c-0.71,0.08-1.43,0.14-2.15,0.15c-0.14,0-0.28,0.01-0.43,0.01c-0.64,0-1.28-0.03-1.91-0.08c-0.01,0-0.02,0-0.02,0
					c-0.82-0.07-1.62-0.19-2.41-0.36c-0.07-0.02-0.14-0.03-0.21-0.05c-0.4-0.08-0.8-0.18-1.18-0.29
					c-8.63-2.4-15.06-10.08-15.56-19.34v-0.01c-0.02-0.39-0.03-0.78-0.03-1.17v-16.92H166.44z"/>
			</g>
			<g class="st46">
				<path class="st47" d="M139.36,251.41v0.93c-7.12-2.27-17.24-8.61-15.6-26.26c0-0.04,0.03-0.06,0.07-0.06h2.25
					c0.04,0,0.08,0.04,0.07,0.08c-0.11,0.8-0.9,7.46,2.08,14.15c0,0,0,0,0,0.01c1.7,3.82,4.64,7.65,9.64,10.4
					C138.35,250.92,138.84,251.17,139.36,251.41z"/>
			</g>
			<g class="st48">
				<path class="st49" d="M139.36,250.23v1.1c-0.49-0.2-0.99-0.42-1.49-0.67c-3.59-1.77-7.44-4.9-9.64-10.4c0,0,0-0.01-0.01-0.01
					c-1.42-3.57-2.15-8.14-1.66-13.99c0.01-0.06,0.05-0.1,0.1-0.1h1.93c0.06,0,0.11,0.06,0.1,0.13
					C128.52,227.82,127.03,243.01,139.36,250.23z"/>
			</g>
			<g class="st48">
				<path class="st49" d="M159.81,226.03v21.8c-0.24,0.23-0.5,0.46-0.75,0.68c-0.89,0.77-1.85,1.47-2.86,2.08v-24.56H159.81z"/>
			</g>
			<g class="st48">
				<path class="st49" d="M159.81,226.03v21.8c-0.24,0.23-0.5,0.46-0.75,0.68v-22.48H159.81z"/>
			</g>
			<g>
				<g>
					<g>
						<path class="st45" d="M168.23,217.19v7.13c0,0.94-0.77,1.71-1.71,1.71h-42.83c-0.5,0-0.96-0.22-1.27-0.56
							c-0.28-0.3-0.44-0.71-0.44-1.15v-7.13c0-0.44,0.17-0.84,0.44-1.15c0.31-0.35,0.77-0.56,1.27-0.56h42.83
							C167.47,215.48,168.23,216.25,168.23,217.19z"/>
					</g>
					<g class="st50">
						<rect x="123.77" y="226.02" width="42.67" height="0.83"/>
					</g>
					<g class="st48">
						<rect x="156.67" y="215.48" class="st49" width="4.52" height="10.54"/>
					</g>
					<g class="st48">
						<rect x="160.26" y="215.49" class="st49" width="0.92" height="10.54"/>
					</g>
					<g class="st46">
						<path class="st47" d="M126.94,215.48v10.55h-3.25c-0.5,0-0.96-0.22-1.27-0.56v-9.43c0.31-0.35,0.77-0.56,1.27-0.56H126.94z"/>
					</g>
				</g>
				<g class="st46">
					<path class="st47" d="M150.26,215.48v37.59c-0.39,0.1-0.79,0.18-1.18,0.26c-0.46,0.09-0.92,0.16-1.39,0.22
						c-0.71,0.08-1.43,0.14-2.15,0.15c-0.79-0.01-1.57-0.04-2.34-0.08c-0.01,0-0.02,0-0.02,0c-0.82-0.07-1.62-0.19-2.41-0.36
						c-0.07-0.02-0.14-0.03-0.21-0.05c-0.4-0.08-0.8-0.18-1.18-0.29v-37.43H150.26z"/>
				</g>
			</g>
			<g class="st46">
				<path class="st47" d="M149.08,226.02v27.3c-0.46,0.09-0.92,0.16-1.39,0.22c-0.71,0.08-1.43,0.14-2.15,0.15
					c-0.14,0-0.28,0.01-0.43,0.01c-0.64,0-1.28-0.03-1.91-0.08c-0.01,0-0.02,0-0.02,0c-0.82-0.07-1.62-0.19-2.41-0.36
					c-0.07-0.02-0.14-0.03-0.21-0.05v-27.18H149.08z"/>
			</g>
		</g>
		<g>
			<path class="st51" d="M117.93,218.83v3.86h-0.55c-0.03,0-0.07,0-0.1,0c-0.27-0.02-0.52-0.11-0.73-0.25
				c-0.19-0.13-0.35-0.3-0.46-0.51c-0.04-0.07-0.07-0.15-0.1-0.23c-0.05-0.15-0.08-0.31-0.08-0.48v-0.93c0-0.04,0-0.07,0-0.11
				c0.01-0.12,0.03-0.23,0.07-0.34c0.03-0.09,0.06-0.17,0.11-0.25c0.14-0.26,0.35-0.47,0.61-0.6c0.2-0.1,0.43-0.16,0.68-0.16H117.93
				z"/>
			<path class="st51" d="M122.16,217.12v7.28h-2.8c-0.68,0-1.25-0.46-1.42-1.09c-0.03-0.12-0.05-0.25-0.05-0.38v-4.35
				c0-0.04,0-0.08,0.01-0.12c0.01-0.09,0.02-0.17,0.04-0.25c0.17-0.63,0.74-1.09,1.42-1.09H122.16z"/>
			<path class="st52" d="M122.16,217.12v1.09h-4.22c0.17-0.63,0.74-1.09,1.42-1.09H122.16z"/>
			<path class="st52" d="M122.16,223.31v1.09h-2.8c-0.68,0-1.25-0.46-1.42-1.09H122.16z"/>
			<rect x="117.93" y="219.29" class="st18" width="4.23" height="1.33"/>
			<path class="st18" d="M122.16,218.21v0.25h-4.26c0.01-0.09,0.02-0.17,0.04-0.25H122.16z"/>
			<rect x="117.9" y="219.04" class="st53" width="4.27" height="0.25"/>
			<path class="st53" d="M117.8,219.59v0.25h-1.82c0.03-0.09,0.06-0.17,0.11-0.25H117.8z"/>
			<path class="st53" d="M117.82,218.83v0.16h-1.11c0.2-0.1,0.43-0.16,0.68-0.16H117.82z"/>
			<rect x="115.92" y="220.78" class="st53" width="1.88" height="0.25"/>
			<path class="st54" d="M117.8,222.43v0.25h-0.52c-0.27-0.02-0.52-0.11-0.73-0.25H117.8z"/>
			<rect x="117.9" y="220.63" class="st53" width="4.27" height="0.25"/>
			<rect x="117.9" y="222.12" class="st18" width="4.27" height="0.52"/>
			<path class="st18" d="M117.8,220.18v0.6h-1.88v-0.49c0-0.04,0-0.07,0-0.11H117.8z"/>
			<path class="st18" d="M117.8,218.99v0.6h-1.71c0.14-0.26,0.35-0.47,0.61-0.6H117.8z"/>
			<path class="st18" d="M117.8,221.7v0.23h-1.7c-0.04-0.07-0.07-0.15-0.1-0.23H117.8z"/>
			<rect x="117.8" y="218.83" class="st55" width="0.1" height="3.85"/>
		</g>
		<g>
			<path class="st51" d="M172.65,222.77v-3.86h0.55c0.03,0,0.07,0,0.1,0c0.27,0.02,0.52,0.11,0.73,0.25
				c0.19,0.13,0.35,0.3,0.46,0.51c0.04,0.07,0.07,0.15,0.1,0.23c0.05,0.15,0.08,0.31,0.08,0.48v0.93c0,0.04,0,0.07,0,0.11
				c-0.01,0.12-0.03,0.23-0.07,0.34c-0.03,0.09-0.06,0.17-0.11,0.25c-0.14,0.26-0.35,0.47-0.61,0.6c-0.2,0.1-0.43,0.16-0.68,0.16
				H172.65z"/>
			<path class="st51" d="M168.42,224.48v-7.28h2.8c0.68,0,1.25,0.46,1.42,1.09c0.03,0.12,0.05,0.25,0.05,0.38v4.35
				c0,0.04,0,0.08-0.01,0.12c-0.01,0.09-0.02,0.17-0.04,0.25c-0.17,0.63-0.74,1.09-1.42,1.09H168.42z"/>
			<path class="st52" d="M168.42,224.48v-1.09h4.22c-0.17,0.63-0.74,1.09-1.42,1.09H168.42z"/>
			<path class="st52" d="M168.42,218.29v-1.09h2.8c0.68,0,1.25,0.46,1.42,1.09H168.42z"/>
			<rect x="168.42" y="220.97" class="st18" width="4.23" height="1.33"/>
			<path class="st18" d="M168.42,223.39v-0.25h4.26c-0.01,0.09-0.02,0.17-0.04,0.25H168.42z"/>
			<rect x="168.42" y="222.3" class="st53" width="4.27" height="0.25"/>
			<path class="st53" d="M172.78,222v-0.25h1.82c-0.03,0.09-0.06,0.17-0.11,0.25H172.78z"/>
			<path class="st53" d="M172.77,222.77v-0.16h1.11c-0.2,0.1-0.43,0.16-0.68,0.16H172.77z"/>
			<rect x="172.78" y="220.56" class="st53" width="1.88" height="0.25"/>
			<path class="st54" d="M172.78,219.17v-0.25h0.52c0.27,0.02,0.52,0.11,0.73,0.25H172.78z"/>
			<rect x="168.42" y="220.72" class="st53" width="4.27" height="0.25"/>
			<rect x="168.42" y="218.96" class="st18" width="4.27" height="0.52"/>
			<path class="st18" d="M172.78,221.41v-0.6h1.88v0.49c0,0.04,0,0.07,0,0.11H172.78z"/>
			<path class="st18" d="M172.78,222.6V222h1.71c-0.14,0.26-0.35,0.47-0.61,0.6H172.78z"/>
			<path class="st18" d="M172.78,219.9v-0.23h1.7c0.04,0.07,0.07,0.15,0.1,0.23H172.78z"/>
			
				<rect x="172.69" y="218.92" transform="matrix(-1 -5.614321e-11 5.614321e-11 -1 345.4708 441.6847)" class="st55" width="0.1" height="3.85"/>
		</g>
		<g>
			<path class="st45" d="M150.75,258.02v6.14h-10.91v-6.14c0-1.19,0.8-2.2,1.89-2.53c0.24-0.07,0.49-0.11,0.75-0.11h5.63
				c0.06,0,0.12,0,0.17,0.01c0.2,0.01,0.4,0.05,0.58,0.1C149.95,255.81,150.75,256.82,150.75,258.02z"/>
			<path class="st52" d="M141.72,255.49v7.79h-1.89v-5.26C139.83,256.82,140.63,255.81,141.72,255.49z"/>
			<path class="st56" d="M143.48,255.38v7.9h-1.76v-7.79c0.17-0.07,0.36-0.11,0.55-0.11H143.48z"/>
			<path class="st56" d="M148.86,255.49v7.79h-0.58v-7.89C148.48,255.4,148.68,255.43,148.86,255.49z"/>
			<path class="st52" d="M150.75,258.02v5.26h-1.89v-7.79C149.95,255.81,150.75,256.82,150.75,258.02z"/>
			<rect x="144.12" y="255.38" class="st52" width="3.2" height="7.9"/>
		</g>
		<g>
			<path class="st57" d="M164.58,264.83v0.82c0,0.6-0.49,1.09-1.09,1.09h-36.97c-0.6,0-1.09-0.49-1.09-1.09v-0.82
				c0-0.02,0-0.03,0-0.05c0.03-0.58,0.5-1.04,1.09-1.04h36.97c0.59,0,1.06,0.46,1.09,1.04
				C164.58,264.79,164.58,264.81,164.58,264.83z"/>
			<path class="st57" d="M169.2,273.03v0.84c0,0.6-0.6,1.09-1.35,1.09h-45.7c-0.74,0-1.35-0.49-1.35-1.09v-0.84
				c0-0.01,0-0.02,0-0.03c0-0.06,0.01-0.11,0.03-0.17c0-0.01,0-0.02,0.01-0.03c0.14-0.48,0.67-0.84,1.31-0.84h45.7
				c0.64,0,1.17,0.36,1.31,0.84c0,0.01,0.01,0.02,0.01,0.03c0.02,0.05,0.02,0.11,0.03,0.17C169.2,273.01,169.2,273.02,169.2,273.03z
				"/>
			<path class="st45" d="M169.2,270.14v3.21c0,0.55-0.45,1-1,1H121.8c-0.55,0-1-0.45-1-1v-3.21c0-0.25,0.02-0.49,0.04-0.73
				c0-0.01,0-0.03,0.01-0.04c0.01-0.1,0.03-0.2,0.05-0.3c0.42-2.34,2.22-4.21,4.52-4.76h0c0.05-0.01,0.1-0.02,0.15-0.03
				c0.4-0.08,0.81-0.13,1.23-0.13h36.4c0.07,0,0.14,0,0.2,0c0.35,0.01,0.7,0.05,1.03,0.12c0.05,0.01,0.1,0.02,0.15,0.03
				c2.31,0.54,4.1,2.41,4.52,4.76c0.02,0.1,0.03,0.2,0.05,0.3v0c0,0.01,0,0.03,0.01,0.04c0,0.02,0,0.03,0.01,0.05
				C169.18,269.68,169.2,269.91,169.2,270.14z"/>
			<path class="st58" d="M169.2,270.14v2.67h-48.39v-2.67c0-0.25,0.02-0.49,0.04-0.73c0-0.01,0-0.03,0.01-0.04h48.29v0
				c0,0.01,0,0.03,0.01,0.04c0,0.02,0,0.03,0.01,0.05C169.18,269.68,169.2,269.91,169.2,270.14z"/>
			<rect x="140.98" y="264.15" class="st52" width="8.64" height="5.19"/>
			<rect x="140.98" y="272.83" class="st52" width="8.64" height="1.51"/>
			<rect x="150.98" y="269.36" class="st18" width="8.64" height="3.46"/>
			<rect x="151.56" y="264.15" class="st56" width="8.06" height="10.19"/>
			<rect x="130.6" y="264.15" class="st56" width="8.63" height="10.19"/>
			<path class="st57" d="M169.15,269.41h-48.3c0-0.01,0-0.03,0.01-0.04c0.01-0.1,0.03-0.2,0.05-0.3h48.2c0.02,0.1,0.03,0.2,0.05,0.3
				v0C169.15,269.38,169.15,269.39,169.15,269.41z"/>
			<rect x="120.81" y="272.83" class="st57" width="48.39" height="0.2"/>
			<rect x="150.99" y="269.42" class="st59" width="8.63" height="3.4"/>
			<rect x="130.6" y="269.42" class="st59" width="8.63" height="3.4"/>
		</g>
		<g>
			<g>
				<ellipse class="st60" cx="130.51" cy="210.06" rx="2.4" ry="2.39"/>
			</g>
			<g>
				<ellipse class="st60" cx="134.06" cy="204.3" rx="2.4" ry="2.39"/>
			</g>
			<g>
				<ellipse class="st60" cx="137.9" cy="198.25" rx="2.4" ry="2.39"/>
			</g>
			<g>
				<ellipse class="st60" cx="131.46" cy="198.09" rx="1.67" ry="2.39"/>
			</g>
			<g>
				<ellipse class="st60" cx="135.53" cy="192.1" rx="1.5" ry="2.31"/>
			</g>
			<g>
				<ellipse class="st60" cx="154.94" cy="192.18" rx="1.41" ry="2.24"/>
			</g>
			<g>
				<ellipse class="st60" cx="158.85" cy="198.25" rx="1.56" ry="2.39"/>
			</g>
			<g>
				<ellipse class="st60" cx="141.39" cy="192.02" rx="2.4" ry="2.39"/>
			</g>
			<g>
				<ellipse class="st60" cx="145.26" cy="187.37" rx="2.4" ry="1.2"/>
			</g>
			<g>
				<ellipse class="st60" cx="148.98" cy="192.02" rx="2.4" ry="2.39"/>
			</g>
			<g>
				<ellipse class="st60" cx="145.43" cy="198.25" rx="2.4" ry="2.39"/>
			</g>
			<g>
				<ellipse class="st60" cx="152.8" cy="198.25" rx="2.4" ry="2.39"/>
			</g>
			<g>
				<ellipse class="st60" cx="141.39" cy="204.3" rx="2.4" ry="2.39"/>
			</g>
			<g>
				<ellipse class="st60" cx="148.98" cy="204.3" rx="2.4" ry="2.39"/>
			</g>
			<g>
				<ellipse class="st60" cx="156.35" cy="204.3" rx="2.4" ry="2.39"/>
			</g>
			<g>
				<ellipse class="st60" cx="137.9" cy="210.06" rx="2.4" ry="2.39"/>
			</g>
			<g>
				<ellipse class="st60" cx="145.43" cy="210.06" rx="2.4" ry="2.39"/>
			</g>
			<g>
				<ellipse class="st60" cx="152.8" cy="210.06" rx="2.4" ry="2.39"/>
			</g>
			<g>
				<ellipse class="st60" cx="160.42" cy="210.06" rx="2.4" ry="2.39"/>
			</g>
		</g>
		<g class="st61">
			<path class="st62" d="M148.15,184.49v29.91H132.9v-25.48c3.31-2.9,7.64-4.65,12.39-4.65
				C146.26,184.27,147.22,184.35,148.15,184.49z"/>
		</g>
		<path class="st63" d="M159.67,190.98v23.42h-5.23v-27.7c1.55,0.85,2.96,1.92,4.2,3.16C159,190.22,159.35,190.6,159.67,190.98z"/>
		<g class="st64">
			<path d="M132.91,189.4c-0.08,0.42-0.96,2.01-2.64,4.7c-1.21,1.93-1.92,4.23-2.32,6.06c-0.4,1.82-0.51,3.17-0.51,3.17l-0.17,11.08
				h-0.6l0.04-10.62c0.52-5.7,1.79-8.99,3.18-10.88c1.93-2.63,2.94-3.8,3.02-3.59C132.92,189.33,132.92,189.36,132.91,189.4z"/>
			<path d="M132.91,188.92c0.02-0.02,0.04-0.04,0.06-0.05c0,0,0,0,0,0c-0.06-0.01-0.13-0.01-0.19,0c-0.02,0.02-0.04,0.04-0.06,0.05
				c-0.43,0.37-0.84,0.77-1.23,1.18c-0.21,0.26-0.45,0.57-0.72,0.91c-0.36,0.47-0.77,1.01-1.22,1.63c-1.68,2.3-2.77,5.96-3.24,10.9
				c-0.01,0.07-0.01,0.13-0.02,0.2l-0.05,11.08h1.45l0.18-11.48c0.02-0.28,0.48-5.38,2.76-9.02c0.94-1.49,1.65-2.68,2.11-3.53
				c0.06-0.11,0.11-0.21,0.16-0.31c0-0.01,0.01-0.01,0.01-0.01v-1.06c0.01-0.04,0.01-0.07,0-0.09V188.92z M128.22,197.55
				c0.26-0.91,0.56-1.73,0.89-2.47c0.34-0.73,0.71-1.38,1.11-1.94c0.28-0.38,0.54-0.73,0.77-1.03c-0.3,0.49-0.65,1.08-1.08,1.76
				C129.18,195.03,128.63,196.32,128.22,197.55z"/>
		</g>
		<path class="st65" d="M145.9,184.89c0,0,10.79,0.24,16.1,10.97C162.01,195.86,153.54,185.51,145.9,184.89z"/>
		<path d="M166.16,215.5h-42.69l0,0c0-0.37,0.3-0.68,0.68-0.68h41.34C165.85,214.82,166.16,215.13,166.16,215.5L166.16,215.5z"/>
		<rect x="126.24" y="214.4" class="st18" width="37.66" height="0.42"/>
	</g>
</g>
<g class="st66">
	<path d="M117.93,399.79h-2.55l-0.5,1.89h-1.97l2.89-9.24h1.71l2.91,9.24h-1.99L117.93,399.79z M115.79,398.23h1.73l-0.86-3.29
		L115.79,398.23z"/>
	<path d="M120.98,398.04c0-1.13,0.2-1.97,0.61-2.52c0.41-0.55,0.98-0.83,1.71-0.83c0.62,0,1.1,0.25,1.44,0.74l0.07-0.61h1.62v6.87
		c0,0.88-0.25,1.55-0.74,2.01c-0.49,0.46-1.2,0.7-2.11,0.7c-0.38,0-0.77-0.08-1.19-0.23c-0.41-0.15-0.72-0.34-0.93-0.57l0.6-1.24
		c0.17,0.18,0.39,0.32,0.66,0.43s0.53,0.17,0.77,0.17c0.4,0,0.69-0.1,0.87-0.29s0.27-0.5,0.27-0.93v-0.59
		c-0.34,0.45-0.79,0.67-1.34,0.67c-0.73,0-1.3-0.28-1.7-0.85c-0.4-0.57-0.6-1.37-0.61-2.41V398.04z M125.82,391.99
		c0,0.56-0.2,1.02-0.61,1.36s-0.94,0.52-1.6,0.52c-0.66,0-1.2-0.17-1.6-0.52s-0.61-0.8-0.61-1.36h1.31c0,0.26,0.08,0.47,0.24,0.61
		c0.16,0.15,0.38,0.22,0.66,0.22c0.28,0,0.49-0.07,0.65-0.22c0.16-0.15,0.23-0.35,0.23-0.61H125.82z M122.78,398.49
		c0,0.63,0.08,1.1,0.25,1.39s0.43,0.43,0.79,0.43c0.37,0,0.64-0.13,0.82-0.4v-3.28c-0.19-0.29-0.46-0.44-0.81-0.44
		c-0.36,0-0.62,0.15-0.79,0.44c-0.17,0.29-0.26,0.76-0.26,1.41V398.49z"/>
	<path d="M131.11,401.05c-0.37,0.5-0.87,0.75-1.5,0.75c-0.63,0-1.11-0.22-1.43-0.65c-0.33-0.43-0.49-1.07-0.49-1.89v-4.45h1.8v4.49
		c0.01,0.67,0.23,1,0.67,1c0.41,0,0.71-0.18,0.89-0.53v-4.96h1.81v6.87h-1.69L131.11,401.05z"/>
	<path d="M137.17,399.84c0-0.15-0.07-0.29-0.22-0.42c-0.15-0.13-0.47-0.3-0.97-0.52c-0.74-0.3-1.25-0.61-1.53-0.93
		s-0.42-0.72-0.42-1.2c0-0.6,0.22-1.1,0.65-1.49s1.01-0.59,1.72-0.59c0.75,0,1.36,0.19,1.81,0.58c0.45,0.39,0.68,0.91,0.68,1.57
		h-1.8c0-0.56-0.23-0.84-0.7-0.84c-0.19,0-0.35,0.06-0.47,0.18c-0.12,0.12-0.18,0.28-0.18,0.5c0,0.15,0.07,0.29,0.2,0.4
		s0.46,0.28,0.96,0.5c0.73,0.27,1.25,0.57,1.55,0.9s0.45,0.76,0.45,1.29c0,0.61-0.23,1.11-0.69,1.48s-1.07,0.56-1.82,0.56
		c-0.5,0-0.95-0.1-1.33-0.29c-0.38-0.2-0.69-0.47-0.9-0.82s-0.33-0.73-0.33-1.14h1.71c0.01,0.31,0.08,0.55,0.22,0.7
		s0.36,0.24,0.68,0.24C136.93,400.49,137.17,400.28,137.17,399.84z"/>
	<path d="M142.12,393.12v1.69h0.92v1.35h-0.92v3.41c0,0.27,0.04,0.46,0.11,0.56s0.22,0.15,0.43,0.15c0.17,0,0.32-0.01,0.43-0.04
		l-0.01,1.4c-0.3,0.11-0.63,0.17-0.99,0.17c-1.16,0-1.75-0.67-1.76-2v-3.65h-0.79v-1.35h0.79v-1.69H142.12z"/>
	<path d="M143.63,398.02c0-1.04,0.25-1.86,0.74-2.45s1.17-0.89,2.04-0.89c0.88,0,1.56,0.3,2.05,0.89s0.74,1.41,0.74,2.46v0.44
		c0,1.04-0.24,1.86-0.73,2.45c-0.49,0.59-1.17,0.88-2.04,0.88c-0.88,0-1.56-0.29-2.05-0.89c-0.49-0.59-0.73-1.41-0.73-2.46V398.02z
		 M145.43,398.48c0,1.23,0.33,1.84,0.98,1.84c0.61,0,0.93-0.51,0.98-1.54l0.01-0.76c0-0.63-0.09-1.09-0.26-1.39
		c-0.17-0.3-0.42-0.45-0.74-0.45c-0.3,0-0.54,0.15-0.71,0.45c-0.17,0.3-0.26,0.77-0.26,1.39V398.48z"/>
	<path d="M153.35,399.84c0-0.15-0.07-0.29-0.22-0.42c-0.15-0.13-0.47-0.3-0.97-0.52c-0.74-0.3-1.25-0.61-1.53-0.93
		s-0.42-0.72-0.42-1.2c0-0.6,0.22-1.1,0.65-1.49s1.01-0.59,1.72-0.59c0.75,0,1.36,0.19,1.81,0.58c0.45,0.39,0.68,0.91,0.68,1.57
		h-1.8c0-0.56-0.23-0.84-0.7-0.84c-0.19,0-0.35,0.06-0.47,0.18c-0.12,0.12-0.18,0.28-0.18,0.5c0,0.15,0.07,0.29,0.2,0.4
		s0.46,0.28,0.96,0.5c0.73,0.27,1.25,0.57,1.55,0.9s0.45,0.76,0.45,1.29c0,0.61-0.23,1.11-0.69,1.48s-1.07,0.56-1.82,0.56
		c-0.5,0-0.95-0.1-1.33-0.29c-0.38-0.2-0.69-0.47-0.9-0.82s-0.33-0.73-0.33-1.14h1.71c0.01,0.31,0.08,0.55,0.22,0.7
		s0.36,0.24,0.68,0.24C153.11,400.49,153.35,400.28,153.35,399.84z"/>
	<path d="M164.6,401.68h-5.45v-1.27l2.5-3.18c0.32-0.44,0.55-0.83,0.7-1.16s0.22-0.65,0.22-0.96c0-0.41-0.07-0.73-0.21-0.96
		s-0.35-0.35-0.61-0.35c-0.29,0-0.52,0.13-0.69,0.41c-0.17,0.27-0.26,0.65-0.26,1.14H159c0-0.57,0.12-1.09,0.35-1.56
		c0.24-0.47,0.57-0.83,0.99-1.09c0.43-0.26,0.91-0.39,1.44-0.39c0.83,0,1.46,0.23,1.92,0.68s0.68,1.1,0.68,1.94
		c0,0.52-0.13,1.05-0.38,1.58s-0.71,1.19-1.37,1.98l-1.19,1.7h3.14V401.68z"/>
	<path d="M171.1,397.86c0,1.28-0.23,2.26-0.69,2.93c-0.46,0.68-1.12,1.02-1.98,1.02c-0.85,0-1.51-0.33-1.97-0.99
		c-0.46-0.66-0.7-1.6-0.72-2.83v-1.75c0-1.27,0.23-2.25,0.69-2.92s1.12-1.01,1.99-1.01s1.53,0.33,1.99,1s0.7,1.62,0.7,2.86V397.86z
		 M169.3,395.99c0-0.73-0.07-1.27-0.22-1.64c-0.14-0.36-0.37-0.55-0.67-0.55c-0.57,0-0.87,0.67-0.89,2v2.3
		c0,0.74,0.07,1.3,0.22,1.66c0.15,0.36,0.37,0.55,0.68,0.55c0.29,0,0.51-0.17,0.65-0.51s0.22-0.86,0.22-1.56V395.99z"/>
	<path d="M177.75,401.68h-5.45v-1.27l2.5-3.18c0.32-0.44,0.55-0.83,0.7-1.16s0.22-0.65,0.22-0.96c0-0.41-0.07-0.73-0.21-0.96
		s-0.35-0.35-0.61-0.35c-0.29,0-0.52,0.13-0.69,0.41c-0.17,0.27-0.26,0.65-0.26,1.14h-1.8c0-0.57,0.12-1.09,0.35-1.56
		c0.24-0.47,0.57-0.83,0.99-1.09c0.43-0.26,0.91-0.39,1.44-0.39c0.83,0,1.46,0.23,1.92,0.68s0.68,1.1,0.68,1.94
		c0,0.52-0.13,1.05-0.38,1.58s-0.71,1.19-1.37,1.98l-1.19,1.7h3.14V401.68z"/>
	<path d="M182.84,401.68h-1.8v-7.06l-1.76,0.68v-1.5l3.37-1.38h0.19V401.68z"/>
</g>
<g>
	<path class="st18" d="M140.66,221.63c0-0.24-0.1-0.44-0.29-0.62c-0.2-0.18-0.53-0.37-1-0.58c-0.47-0.21-0.8-0.39-0.98-0.53
		c-0.19-0.14-0.32-0.29-0.41-0.46c-0.09-0.17-0.13-0.36-0.13-0.59c0-0.42,0.15-0.77,0.46-1.05c0.3-0.28,0.7-0.41,1.18-0.41
		c0.52,0,0.94,0.15,1.25,0.44c0.31,0.29,0.47,0.68,0.47,1.17h-0.56c0-0.31-0.11-0.57-0.32-0.78s-0.49-0.31-0.83-0.31
		c-0.33,0-0.59,0.08-0.79,0.25c-0.19,0.17-0.29,0.39-0.29,0.66c0,0.22,0.07,0.4,0.22,0.54s0.47,0.33,0.97,0.56
		c0.51,0.22,0.86,0.41,1.06,0.55c0.19,0.15,0.34,0.31,0.44,0.49c0.1,0.18,0.15,0.39,0.15,0.63c0,0.45-0.16,0.81-0.47,1.08
		c-0.31,0.27-0.73,0.4-1.24,0.4c-0.54,0-0.99-0.15-1.32-0.45c-0.34-0.3-0.51-0.68-0.51-1.15h0.57c0.02,0.34,0.13,0.6,0.34,0.79
		c0.21,0.19,0.52,0.28,0.92,0.28c0.35,0,0.62-0.08,0.83-0.25C140.56,222.13,140.66,221.91,140.66,221.63z"/>
	<path class="st18" d="M145.46,222.98c-0.05-0.18-0.08-0.43-0.1-0.76c-0.17,0.27-0.39,0.49-0.65,0.64
		c-0.27,0.15-0.55,0.23-0.87,0.23c-0.47,0-0.84-0.13-1.11-0.4c-0.26-0.27-0.4-0.65-0.4-1.14c0-0.54,0.18-0.97,0.55-1.28
		c0.37-0.31,0.87-0.47,1.52-0.48h0.94v-0.77c0-0.39-0.1-0.68-0.29-0.85c-0.19-0.17-0.48-0.26-0.86-0.26c-0.35,0-0.63,0.1-0.86,0.3
		c-0.22,0.2-0.34,0.47-0.34,0.79l-0.56-0.01c0-0.45,0.17-0.83,0.51-1.15c0.34-0.31,0.76-0.47,1.28-0.47c0.55,0,0.97,0.14,1.25,0.42
		s0.43,0.68,0.43,1.21v2.7c0,0.54,0.05,0.94,0.15,1.21v0.06H145.46z M143.91,222.54c0.33,0,0.63-0.09,0.88-0.26
		c0.26-0.17,0.44-0.4,0.56-0.69v-1.34h-0.89c-0.51,0.01-0.9,0.12-1.16,0.34s-0.39,0.52-0.39,0.9
		C142.91,222.19,143.24,222.54,143.91,222.54z"/>
	<path class="st18" d="M148.84,222.05l1.31-4.57h0.6l-1.94,6.37l-0.11,0.3c-0.26,0.69-0.66,1.04-1.2,1.04
		c-0.13,0-0.26-0.02-0.41-0.07l0-0.52c0.08,0.02,0.16,0.04,0.26,0.04c0.24,0,0.44-0.07,0.6-0.22c0.16-0.15,0.28-0.38,0.39-0.71
		l0.23-0.78l-1.73-5.46h0.62L148.84,222.05z"/>
	<path class="st18" d="M152.35,222.98h-0.56v-5.5h0.56V222.98z"/>
</g>
<g>
	<path class="st18" d="M142.58,245.49h-2.48v-9.7l-2.42,0.93v-2.06l4.63-1.89h0.26V245.49z"/>
	<path class="st18" d="M153.67,245.49h-7.49v-1.75l3.44-4.37c0.44-0.6,0.76-1.14,0.96-1.59c0.21-0.46,0.31-0.89,0.31-1.31
		c0-0.56-0.1-1.01-0.29-1.33s-0.48-0.48-0.84-0.48c-0.4,0-0.72,0.19-0.96,0.56c-0.24,0.37-0.35,0.9-0.35,1.57h-2.48
		c0-0.78,0.16-1.49,0.48-2.14c0.32-0.65,0.78-1.15,1.36-1.51c0.58-0.36,1.25-0.54,1.99-0.54c1.13,0,2.01,0.31,2.64,0.94
		c0.63,0.63,0.94,1.51,0.94,2.67c0,0.72-0.17,1.44-0.52,2.18c-0.35,0.74-0.97,1.64-1.88,2.72l-1.63,2.33h4.32V245.49z"/>
</g>
<g id="markut_1_">
	<path class="st67" d="M92.33,23l6.14,19.2l6.14-19.2h3.82v23.5h-2.96v-9.15l0.27-9.18L99.59,46.5h-2.26L91.2,28.23l0.28,9.12v9.15
		h-2.97V23H92.33z"/>
	<path class="st67" d="M126.45,40.35h-7.94l-1.83,6.14h-3.04l7.58-23.5h2.54l7.59,23.5h-3.04L126.45,40.35z M119.27,37.81h6.42
		l-3.22-10.7L119.27,37.81z"/>
	<path class="st67" d="M143.32,37h-4.14v9.5h-2.97V23h6.59c2.31,0,4.05,0.6,5.24,1.8c1.18,1.2,1.78,2.96,1.78,5.27
		c0.03,1.33-0.29,2.65-0.95,3.81c-0.63,1.08-1.59,1.93-2.73,2.45l4.56,10v0.17h-3.19L143.32,37z M139.18,34.46h3.59
		c1.12,0.05,2.2-0.38,2.97-1.19c0.77-0.89,1.16-2.04,1.1-3.21c0-3.03-1.37-4.54-4.1-4.53h-3.56V34.46z"/>
	<path class="st67" d="M160.7,35.66l-2.31,2.8v8.03h-2.96V23h2.96v11.34l1.93-2.57l6.34-8.77h3.57l-7.65,10.34l8.25,13.16h-3.54
		L160.7,35.66z"/>
	<path class="st67" d="M189.16,23v16.71c-0.02,2.23-0.67,3.97-1.94,5.23c-1.27,1.26-3.05,1.89-5.32,1.9c-2.33,0-4.11-0.62-5.33-1.85
		c-1.22-1.24-1.85-2.99-1.88-5.27V23h2.95v16.6c0,1.58,0.33,2.77,1,3.55c0.67,0.78,1.76,1.17,3.26,1.17s2.6-0.39,3.27-1.17
		s1-1.96,1-3.55V23H189.16z"/>
	<path class="st67" d="M209.13,25.5h-6.19v21h-2.93v-21h-6.2V23h15.32V25.5z"/>
</g>
<g id="entas_1_">
	<path class="st67" d="M92.45,54.21h-2.54v2.54h2.96v0.78h-3.87v-7.18h3.81v0.77h-2.9v2.31h2.54L92.45,54.21z"/>
	<path class="st67" d="M95.22,52.19l0.03,0.58c0.29-0.43,0.78-0.68,1.29-0.67c0.94,0,1.42,0.63,1.43,1.89v3.54h-0.86v-3.5
		c0.03-0.31-0.04-0.62-0.21-0.88c-0.15-0.19-0.39-0.28-0.62-0.26c-0.21,0-0.42,0.08-0.58,0.22c-0.18,0.16-0.32,0.35-0.42,0.57v3.87
		h-0.88v-5.34H95.22z"/>
	<path class="st67" d="M99.6,54.61c-0.04-0.66,0.12-1.31,0.46-1.88c0.3-0.43,0.8-0.67,1.32-0.65c0.48-0.02,0.93,0.22,1.19,0.62
		v-2.76h0.88v7.57h-0.8l-0.04-0.58c-0.25,0.43-0.72,0.69-1.22,0.67c-0.51,0.02-1-0.22-1.29-0.64c-0.35-0.54-0.53-1.17-0.5-1.81
		L99.6,54.61z M100.47,55.11c-0.03,0.46,0.06,0.91,0.26,1.32c0.19,0.29,0.52,0.44,0.86,0.42c0.43,0.01,0.82-0.25,0.97-0.65v-2.7
		c-0.16-0.39-0.54-0.64-0.96-0.64c-0.35-0.03-0.68,0.13-0.87,0.42c-0.21,0.4-0.3,0.84-0.27,1.29V55.11z"/>
	<path class="st67" d="M107.99,57.05c-0.3,0.38-0.77,0.59-1.26,0.56c-0.43,0.03-0.84-0.16-1.1-0.5c-0.27-0.43-0.41-0.94-0.38-1.46
		v-3.5h0.86v3.41c0,0.83,0.25,1.24,0.75,1.24c0.48,0.03,0.93-0.25,1.1-0.71v-3.94h0.87v5.33h-0.83L107.99,57.05z M105.49,50.78
		c0-0.14,0.04-0.27,0.14-0.38c0.23-0.2,0.57-0.2,0.81,0c0.09,0.1,0.14,0.24,0.12,0.38c0.03,0.3-0.19,0.56-0.49,0.59
		c-0.3,0.03-0.56-0.19-0.59-0.49C105.48,50.85,105.48,50.82,105.49,50.78L105.49,50.78z M107.61,50.78c0-0.14,0.05-0.27,0.14-0.38
		c0.1-0.11,0.25-0.17,0.4-0.15c0.15-0.01,0.3,0.04,0.4,0.15c0.09,0.1,0.14,0.24,0.14,0.38c0.01,0.14-0.04,0.27-0.14,0.37
		c-0.11,0.1-0.25,0.16-0.4,0.15c-0.15,0.01-0.3-0.04-0.4-0.15C107.65,51.05,107.6,50.92,107.61,50.78L107.61,50.78z"/>
	<path class="st67" d="M113.26,56.17c0.01-0.19-0.07-0.37-0.21-0.5c-0.25-0.2-0.52-0.36-0.82-0.47c-0.35-0.13-0.69-0.3-1-0.5
		c-0.18-0.12-0.33-0.28-0.43-0.47c-0.1-0.2-0.14-0.41-0.14-0.63c0-0.42,0.18-0.81,0.5-1.08c0.72-0.59,1.75-0.59,2.46,0
		c0.32,0.3,0.5,0.72,0.5,1.16h-0.87c0-0.23-0.08-0.45-0.24-0.61c-0.16-0.17-0.38-0.26-0.61-0.26c-0.22-0.01-0.44,0.06-0.61,0.2
		c-0.15,0.13-0.23,0.33-0.22,0.53c-0.01,0.16,0.05,0.31,0.16,0.43c0.23,0.18,0.49,0.32,0.77,0.43c0.49,0.15,0.93,0.41,1.32,0.74
		c0.23,0.25,0.35,0.58,0.34,0.92c0.01,0.43-0.17,0.84-0.5,1.11c-0.36,0.3-0.82,0.44-1.28,0.42c-0.5,0.02-0.98-0.16-1.35-0.5
		c-0.33-0.31-0.52-0.75-0.5-1.21h0.88c0.06,0.57,0.57,1,1.14,0.94c0.18-0.02,0.35-0.08,0.5-0.19
		C113.18,56.52,113.26,56.35,113.26,56.17z"/>
	<path class="st67" d="M116.91,50.9v1.29h0.81v0.71h-0.81v3.31c-0.02,0.17,0.02,0.35,0.11,0.5c0.08,0.11,0.22,0.18,0.36,0.16
		c0.11,0,0.23-0.02,0.33-0.06v0.74c-0.2,0.06-0.4,0.1-0.61,0.09c-0.31,0.02-0.61-0.12-0.79-0.37c-0.2-0.31-0.29-0.68-0.27-1.04V52.9
		h-0.82v-0.71h0.82V50.9H116.91z"/>
	<path class="st67" d="M121.46,53c-0.13-0.02-0.26-0.04-0.39-0.03c-0.44,0-0.83,0.3-0.93,0.73v3.81h-0.87v-5.31h0.85v0.54
		c0.18-0.39,0.57-0.64,1-0.64c0.12,0,0.23,0.02,0.34,0.07L121.46,53z"/>
	<path class="st67" d="M123.84,50.78c0,0.13-0.04,0.27-0.12,0.37c-0.1,0.1-0.23,0.16-0.38,0.15c-0.14,0.01-0.27-0.04-0.36-0.15
		c-0.09-0.1-0.13-0.24-0.12-0.37c0-0.14,0.04-0.27,0.12-0.38c0.09-0.11,0.23-0.16,0.36-0.15c0.14-0.01,0.28,0.05,0.38,0.15
		C123.8,50.52,123.84,50.65,123.84,50.78z M123.77,57.52h-0.87v-5.33h0.87V57.52z"/>
	<path class="st67" d="M127.11,56.07l0.97-3.88h0.91l-1.74,6.06c-0.09,0.39-0.29,0.75-0.56,1.04c-0.21,0.23-0.51,0.36-0.82,0.36
		c-0.15-0.01-0.31-0.03-0.46-0.08v-0.71h0.19c0.21,0.01,0.43-0.05,0.6-0.18c0.17-0.17,0.29-0.39,0.33-0.62l0.18-0.59l-1.57-5.29
		h0.95L127.11,56.07z"/>
	<path class="st67" d="M132.19,57.62c-0.57,0.04-1.13-0.18-1.53-0.59c-0.39-0.5-0.58-1.12-0.54-1.74v-0.64
		c-0.04-0.66,0.13-1.32,0.5-1.87c0.34-0.45,0.88-0.7,1.45-0.67c0.54-0.04,1.06,0.18,1.4,0.6c0.35,0.55,0.52,1.21,0.47,1.86v0.56
		h-2.95v0.12c-0.03,0.44,0.09,0.88,0.34,1.25c0.23,0.27,0.58,0.41,0.93,0.38c0.23,0,0.46-0.05,0.67-0.15
		c0.21-0.11,0.4-0.27,0.55-0.46l0.45,0.55C133.53,57.38,132.87,57.68,132.19,57.62z M132.09,52.84c-0.31-0.02-0.62,0.12-0.8,0.37
		c-0.2,0.35-0.3,0.75-0.29,1.15h2.1v-0.12c0.01-0.38-0.08-0.76-0.27-1.08C132.64,52.95,132.37,52.82,132.09,52.84L132.09,52.84z"/>
	<path class="st67" d="M136.45,57.52h-0.87v-7.57h0.87V57.52z"/>
	<path class="st67" d="M145.26,51.12h-1.88v6.4h-0.88v-6.4h-1.89v-0.77h4.67L145.26,51.12z"/>
	<path class="st67" d="M148.89,57.52c-0.07-0.19-0.11-0.38-0.12-0.58c-0.25,0.42-0.7,0.67-1.18,0.67c-0.41,0.03-0.82-0.12-1.12-0.4
		c-0.29-0.31-0.44-0.73-0.41-1.15c-0.02-0.49,0.18-0.97,0.55-1.29c0.42-0.34,0.96-0.52,1.5-0.5h0.64V53.7
		c0.08-0.4-0.18-0.8-0.58-0.88c0,0,0,0,0,0c-0.09-0.02-0.18-0.02-0.27,0c-0.24-0.01-0.47,0.07-0.64,0.23
		c-0.16,0.16-0.25,0.37-0.24,0.6h-0.86c0-0.28,0.08-0.55,0.24-0.78c0.16-0.25,0.39-0.45,0.65-0.58c0.28-0.14,0.6-0.21,0.91-0.21
		c0.45-0.03,0.9,0.12,1.24,0.4c0.3,0.32,0.46,0.75,0.43,1.19v2.69c0,0.36,0.06,0.72,0.17,1.07v0.08L148.89,57.52z M147.72,56.83
		c0.22,0,0.43-0.06,0.61-0.18c0.18-0.1,0.33-0.26,0.43-0.44v-1.27h-0.5c-0.35-0.02-0.71,0.08-1,0.28c-0.24,0.17-0.38,0.46-0.36,0.76
		c-0.02,0.24,0.04,0.48,0.18,0.67C147.25,56.8,147.49,56.87,147.72,56.83L147.72,56.83z"/>
	<path class="st67" d="M154.06,56.17c0-0.19-0.07-0.37-0.21-0.5c-0.25-0.2-0.53-0.35-0.82-0.47c-0.35-0.13-0.68-0.3-1-0.5
		c-0.18-0.12-0.32-0.28-0.43-0.47c-0.1-0.19-0.15-0.41-0.14-0.63c-0.01-0.41,0.16-0.81,0.48-1.08c0.71-0.59,1.75-0.59,2.46,0
		c0.32,0.3,0.49,0.72,0.48,1.16h-0.88c0-0.23-0.08-0.45-0.24-0.61c-0.16-0.17-0.39-0.26-0.62-0.26c-0.22-0.01-0.43,0.06-0.6,0.2
		c-0.15,0.13-0.23,0.33-0.22,0.53c-0.01,0.16,0.05,0.32,0.16,0.43c0.23,0.18,0.49,0.32,0.77,0.43c0.49,0.15,0.93,0.41,1.32,0.74
		c0.23,0.25,0.35,0.58,0.34,0.92c0.02,0.42-0.15,0.83-0.48,1.11c-0.36,0.29-0.82,0.44-1.28,0.42c-0.5,0.02-0.98-0.16-1.35-0.5
		c-0.33-0.31-0.52-0.75-0.5-1.21h0.88c0.06,0.57,0.57,1,1.14,0.94c0.18-0.02,0.35-0.08,0.5-0.19
		C153.95,56.53,154.05,56.36,154.06,56.17z"/>
	<path class="st67" d="M159.32,57.52c-0.07-0.19-0.11-0.39-0.11-0.58c-0.25,0.42-0.7,0.67-1.18,0.67c-0.42,0.03-0.83-0.12-1.13-0.4
		c-0.29-0.31-0.43-0.73-0.4-1.15c-0.02-0.49,0.18-0.97,0.55-1.29c0.42-0.34,0.96-0.52,1.5-0.5h0.64V53.7
		c0.02-0.24-0.05-0.49-0.21-0.67c-0.39-0.28-0.91-0.27-1.29,0.03c-0.16,0.16-0.25,0.37-0.24,0.6h-0.88c0-0.28,0.09-0.55,0.24-0.78
		c0.16-0.25,0.39-0.45,0.65-0.58c0.28-0.15,0.59-0.22,0.91-0.22c0.45-0.03,0.9,0.12,1.24,0.4c0.3,0.32,0.45,0.75,0.43,1.19v2.69
		c0,0.36,0.06,0.72,0.17,1.07v0.08L159.32,57.52z M158.16,56.83c0.22,0,0.43-0.06,0.61-0.18c0.18-0.1,0.33-0.26,0.43-0.44v-1.27
		h-0.5c-0.35-0.02-0.71,0.08-1,0.28c-0.24,0.17-0.37,0.46-0.36,0.76c-0.02,0.24,0.04,0.48,0.18,0.67c0.17,0.15,0.39,0.22,0.62,0.19
		L158.16,56.83z"/>
	<path class="st67" d="M164.12,53c-0.13-0.02-0.26-0.04-0.4-0.03c-0.44,0-0.83,0.3-0.93,0.73v3.81h-0.87v-5.31h0.85v0.54
		c0.18-0.39,0.57-0.64,1-0.64c0.12,0,0.23,0.02,0.34,0.07L164.12,53z"/>
	<path class="st67" d="M166.43,57.52h-0.87v-5.33h0.87V57.52z"/>
	<path class="st67" d="M169.18,52.19v0.5c0.31-0.39,0.79-0.6,1.29-0.59c0.54-0.04,1.04,0.28,1.25,0.78
		c0.29-0.49,0.82-0.79,1.39-0.78c1,0,1.5,0.61,1.5,1.84v3.59h-0.87v-3.5c0.02-0.3-0.05-0.6-0.21-0.87c-0.17-0.21-0.43-0.31-0.7-0.28
		c-0.25-0.01-0.49,0.1-0.64,0.31c-0.17,0.23-0.27,0.5-0.29,0.78v3.57h-0.88V54c0-0.74-0.31-1.1-0.9-1.1
		c-0.42-0.01-0.8,0.26-0.93,0.67v4h-0.87v-5.37H169.18z"/>
	<path class="st67" d="M179.39,57.52v-7.18h1.71c0.73-0.04,1.44,0.24,1.93,0.77c0.5,0.63,0.75,1.42,0.7,2.22v1.2
		c0.06,0.8-0.19,1.59-0.7,2.22c-0.54,0.54-1.28,0.83-2.04,0.78H179.39z M180.29,51.12v5.63h0.73c0.52,0.05,1.04-0.16,1.39-0.54
		c0.33-0.47,0.48-1.04,0.45-1.62v-1.27c0.05-0.59-0.1-1.18-0.43-1.67c-0.33-0.37-0.82-0.57-1.32-0.53L180.29,51.12z"/>
	<path class="st67" d="M187.44,57.62c-0.57,0.04-1.13-0.18-1.52-0.59c-0.39-0.5-0.58-1.12-0.54-1.74v-0.64
		c-0.05-0.66,0.13-1.32,0.5-1.87c0.34-0.45,0.88-0.7,1.45-0.67c0.54-0.04,1.06,0.18,1.4,0.6c0.35,0.55,0.52,1.21,0.47,1.86v0.56
		h-2.98v0.12c-0.03,0.44,0.08,0.88,0.34,1.25c0.23,0.27,0.58,0.41,0.93,0.38c0.23,0,0.46-0.05,0.67-0.15
		c0.22-0.11,0.4-0.27,0.55-0.46l0.46,0.55C188.76,57.37,188.11,57.67,187.44,57.62z M187.34,52.84c-0.31-0.03-0.62,0.11-0.8,0.37
		c-0.2,0.35-0.31,0.75-0.29,1.15h2.1v-0.12c0.01-0.38-0.08-0.76-0.27-1.08C187.89,52.95,187.62,52.82,187.34,52.84z"/>
	<path class="st67" d="M192.96,53c-0.13-0.02-0.26-0.04-0.4-0.03c-0.44,0-0.83,0.3-0.93,0.73v3.81h-0.88v-5.31h0.85v0.54
		c0.18-0.39,0.57-0.64,1-0.64c0.12,0,0.23,0.02,0.34,0.07L192.96,53z"/>
	<path class="st67" d="M194.07,54.61c-0.04-0.66,0.11-1.31,0.46-1.88c0.3-0.43,0.8-0.67,1.32-0.64c0.51-0.02,0.98,0.25,1.23,0.69
		l0.05-0.6h0.79v5.39c0.03,0.55-0.15,1.08-0.5,1.5c-0.38,0.37-0.89,0.56-1.41,0.53c-0.3-0.01-0.6-0.08-0.88-0.19
		c-0.28-0.1-0.54-0.27-0.74-0.5l0.35-0.6c0.31,0.33,0.74,0.52,1.2,0.53c0.73,0,1.1-0.4,1.12-1.19V57c-0.26,0.41-0.72,0.65-1.21,0.62
		c-0.51,0.02-0.99-0.21-1.29-0.62c-0.35-0.53-0.52-1.15-0.5-1.78L194.07,54.61z M194.94,55.11c-0.03,0.46,0.06,0.91,0.26,1.32
		c0.19,0.29,0.52,0.44,0.87,0.42c0.44,0.01,0.84-0.26,1-0.67V53.5c-0.16-0.39-0.54-0.65-0.96-0.65c-0.35-0.03-0.68,0.13-0.87,0.42
		c-0.2,0.4-0.29,0.84-0.26,1.29L194.94,55.11z"/>
	<path class="st67" d="M200.72,50.78c0,0.13-0.04,0.26-0.12,0.37c-0.1,0.1-0.24,0.15-0.38,0.15c-0.14,0.01-0.27-0.04-0.37-0.15
		c-0.09-0.1-0.13-0.24-0.12-0.37c0-0.14,0.04-0.27,0.12-0.38c0.19-0.2,0.5-0.22,0.71-0.03c0.01,0.01,0.02,0.02,0.03,0.03
		C200.68,50.52,200.73,50.65,200.72,50.78z M200.65,57.52h-0.87v-5.33h0.87V57.52z"/>
	<path class="st67" d="M205.12,56.17c0.01-0.19-0.07-0.37-0.21-0.5c-0.25-0.2-0.53-0.35-0.82-0.47c-0.35-0.13-0.68-0.3-1-0.5
		c-0.18-0.12-0.32-0.28-0.43-0.47c-0.1-0.19-0.15-0.41-0.15-0.63c0-0.42,0.18-0.81,0.5-1.08c0.71-0.59,1.75-0.59,2.46,0
		c0.32,0.3,0.49,0.72,0.48,1.16h-0.87c0-0.23-0.08-0.45-0.24-0.61c-0.16-0.17-0.38-0.26-0.62-0.26c-0.22-0.01-0.44,0.06-0.6,0.2
		c-0.15,0.14-0.22,0.33-0.21,0.53c-0.01,0.16,0.05,0.31,0.15,0.43c0.24,0.18,0.5,0.33,0.77,0.43c0.49,0.16,0.93,0.41,1.32,0.74
		c0.23,0.25,0.35,0.58,0.34,0.92c0.01,0.43-0.17,0.84-0.5,1.11c-0.36,0.29-0.82,0.44-1.29,0.42c-0.5,0.02-0.98-0.16-1.35-0.5
		c-0.33-0.31-0.52-0.75-0.5-1.21h0.9c-0.03,0.49,0.34,0.92,0.84,0.95c0,0,0,0,0,0h0.15c0.24,0.02,0.48-0.05,0.68-0.19
		C205.04,56.52,205.11,56.35,205.12,56.17z"/>
	<path class="st67" d="M208.65,50.78c0,0.13-0.04,0.26-0.12,0.37c-0.1,0.1-0.24,0.15-0.38,0.15c-0.14,0.01-0.27-0.04-0.37-0.15
		c-0.09-0.1-0.14-0.23-0.15-0.37c0-0.14,0.04-0.27,0.12-0.38c0.19-0.2,0.5-0.22,0.71-0.03c0.01,0.01,0.02,0.02,0.03,0.03
		C208.59,50.51,208.65,50.65,208.65,50.78z M208.58,57.52h-0.87v-5.33h0.87V57.52z"/>
</g>
</svg>
