<?xml version="1.0" encoding="utf-8"?>
<!-- Generator: Adobe Illustrator 24.3.0, SVG Export Plug-In . SVG Version: 6.00 Build 0)  -->
<svg version="1.1" id="Layer_1" xmlns="http://www.w3.org/2000/svg" xmlns:xlink="http://www.w3.org/1999/xlink" x="0px" y="0px"
	 viewBox="0 0 59.5 84.2" style="enable-background:new 0 0 59.5 84.2;" xml:space="preserve">
<style type="text/css">
	.st0{fill:#F7E8E4;}
	.st1{fill:#101010;}
	.st2{fill:#C61414;}
	.st3{fill:#C60909;}
	.st4{fill:none;}
	.st5{enable-background:new    ;}
	.st6{fill:#110E0E;}
</style>
<rect y="0" class="st0" width="59.5" height="84.2"/>
<polygon class="st1" points="15.1,50.4 14.3,50.4 17.3,48.4 17.4,48.5 "/>
<polygon class="st1" points="25.9,50.4 26.6,50.4 23.7,48.4 23.5,48.5 "/>
<rect x="17.2" y="20.3" class="st1" width="0.5" height="39.3"/>
<rect x="23.5" y="20.3" class="st1" width="0.5" height="39.3"/>
<path class="st2" d="M14.9,50.7c0,0-0.6-0.4,3.2-2.6c0,0,0.4-0.3,2.4-0.3c2,0,2.9,0.4,2.9,0.4s1.7,0.8,3.2,2.6l-6.3,0.4L14.9,50.7z"
	/>
<polygon class="st1" points="15,62.5 14.5,62.5 14.3,50.4 15.1,50.4 "/>
<rect x="14.9" y="58.4" class="st1" width="11.4" height="0.4"/>
<polygon class="st1" points="26.6,62.5 26.1,62.5 26,50.4 26.7,50.4 "/>
<polygon class="st1" points="14.9,59.5 17.6,56.9 17.2,56.6 14.8,59 "/>
<polygon class="st1" points="14.9,57.9 17.6,55.4 17.4,55.1 14.8,57.4 "/>
<polygon class="st1" points="26.2,59.5 23.5,57 23.8,56.6 26.3,59 "/>
<polygon class="st1" points="26.2,57.9 23.8,55.6 23.8,55 26.3,57.4 "/>
<rect x="17.4" y="54.4" class="st1" width="6.2" height="0.6"/>
<rect x="17.4" y="55.7" class="st1" width="6.2" height="0.6"/>
<rect x="17.4" y="56.9" class="st1" width="6.2" height="0.6"/>
<rect x="17.4" y="58.1" class="st1" width="6.2" height="0.6"/>
<rect x="17.4" y="53.2" class="st1" width="6.2" height="0.6"/>
<rect x="17.4" y="51.9" class="st1" width="6.2" height="0.6"/>
<rect x="17.4" y="46.9" class="st1" width="6.2" height="0.6"/>
<rect x="17.4" y="45.7" class="st1" width="6.2" height="0.6"/>
<rect x="17.4" y="44.5" class="st1" width="6.2" height="0.6"/>
<rect x="17.4" y="43.3" class="st1" width="6.2" height="0.6"/>
<rect x="17.4" y="42" class="st1" width="6.2" height="0.6"/>
<rect x="17.4" y="40.7" class="st1" width="6.2" height="0.6"/>
<rect x="17.4" y="39.5" class="st1" width="6.2" height="0.6"/>
<rect x="17.4" y="38.2" class="st1" width="6.2" height="0.6"/>
<rect x="17.4" y="37" class="st1" width="6.2" height="0.6"/>
<rect x="17.4" y="35.7" class="st1" width="6.2" height="0.6"/>
<rect x="17.4" y="34.4" class="st1" width="6.2" height="0.6"/>
<rect x="17.4" y="33.1" class="st1" width="6.2" height="0.6"/>
<rect x="17.4" y="31.8" class="st1" width="6.2" height="0.6"/>
<rect x="17.4" y="30.6" class="st1" width="6.2" height="0.6"/>
<rect x="17.4" y="29.3" class="st1" width="6.2" height="0.6"/>
<rect x="17.4" y="28" class="st1" width="6.2" height="0.6"/>
<rect x="17.4" y="26.8" class="st1" width="6.2" height="0.6"/>
<rect x="18.4" y="20.7" class="st1" width="0.6" height="6.2"/>
<rect x="19.7" y="20.7" class="st1" width="0.6" height="6.2"/>
<rect x="21" y="20.7" class="st1" width="0.6" height="6.2"/>
<rect x="22.3" y="20.7" class="st1" width="0.6" height="6.2"/>
<rect x="17.4" y="25.5" class="st1" width="6.2" height="0.6"/>
<rect x="17.4" y="24.2" class="st1" width="6.2" height="0.6"/>
<rect x="17.4" y="22.9" class="st1" width="6.2" height="0.6"/>
<rect x="17.4" y="21.6" class="st1" width="6.2" height="0.6"/>
<rect x="17.4" y="20.3" class="st1" width="6.2" height="0.6"/>
<rect x="14.7" y="50.4" class="st1" width="11.8" height="1.5"/>
<path class="st3" d="M43.3,48.4l-1,1.6l-4.1,0.3l-4.1-0.3l-1-1.6c0,0-0.3-0.4,1.9-0.7c1-0.1,2.2-0.2,3.2-0.2c1,0,2.2,0.1,3.2,0.2
	C43.7,48,43.3,48.4,43.3,48.4z"/>
<rect x="34.9" y="20.3" class="st1" width="6.7" height="0.6"/>
<rect x="34.9" y="21.7" class="st1" width="6.7" height="0.6"/>
<rect x="35.9" y="20.6" class="st1" width="0.6" height="6.7"/>
<rect x="37.3" y="20.6" class="st1" width="0.6" height="6.7"/>
<rect x="38.7" y="20.6" class="st1" width="0.6" height="6.7"/>
<rect x="40.1" y="20.6" class="st1" width="0.6" height="6.7"/>
<rect x="34.9" y="23.1" class="st1" width="6.7" height="0.6"/>
<rect x="34.9" y="24.5" class="st1" width="6.7" height="0.6"/>
<rect x="34.9" y="25.8" class="st1" width="6.7" height="0.6"/>
<rect x="34.9" y="27.2" class="st1" width="6.7" height="0.6"/>
<rect x="34.9" y="28.6" class="st1" width="6.7" height="0.6"/>
<rect x="34.9" y="30" class="st1" width="6.7" height="0.6"/>
<rect x="34.9" y="31.3" class="st1" width="6.7" height="0.6"/>
<rect x="34.9" y="32.7" class="st1" width="6.7" height="0.6"/>
<rect x="34.9" y="34" class="st1" width="6.7" height="0.6"/>
<rect x="34.9" y="35.4" class="st1" width="6.7" height="0.6"/>
<rect x="34.9" y="36.7" class="st1" width="6.7" height="0.6"/>
<rect x="34.9" y="38.1" class="st1" width="6.7" height="0.6"/>
<rect x="34.9" y="39.4" class="st1" width="6.7" height="0.6"/>
<rect x="34.9" y="40.8" class="st1" width="6.7" height="0.6"/>
<rect x="34.9" y="42.1" class="st1" width="6.7" height="0.6"/>
<rect x="34.9" y="43.4" class="st1" width="6.7" height="0.6"/>
<rect x="34.9" y="44.7" class="st1" width="6.7" height="0.6"/>
<rect x="34.9" y="46.1" class="st1" width="6.7" height="0.6"/>
<rect x="34.9" y="47.4" class="st1" width="6.7" height="0.6"/>
<rect x="34.9" y="48.7" class="st1" width="6.7" height="0.6"/>
<rect x="34.9" y="51.3" class="st1" width="6.7" height="0.6"/>
<rect x="34.9" y="52.7" class="st1" width="6.7" height="0.6"/>
<rect x="34.9" y="54" class="st1" width="6.7" height="0.6"/>
<rect x="34.9" y="55.2" class="st1" width="6.7" height="0.6"/>
<rect x="34.9" y="56.5" class="st1" width="6.7" height="0.6"/>
<rect x="34.9" y="57.8" class="st1" width="6.7" height="0.6"/>
<rect x="34.9" y="59.1" class="st1" width="6.7" height="0.6"/>
<rect x="34.9" y="60.4" class="st1" width="6.7" height="0.6"/>
<rect x="34.7" y="20.3" class="st1" width="0.5" height="41.4"/>
<rect x="41.5" y="20.3" class="st1" width="0.5" height="41.4"/>
<rect x="32.7" y="48.3" class="st1" width="0.7" height="10.9"/>
<rect x="43.1" y="48.3" class="st1" width="0.7" height="10.9"/>
<polyline class="st1" points="34.9,51.3 33,49.8 33.3,48.3 34.9,49.7 "/>
<polyline class="st1" points="41.6,51.3 43.5,49.8 43.2,48.3 41.5,49.7 "/>
<polygon class="st1" points="34.7,58.7 33.1,56.7 33.3,56.2 34.8,58 "/>
<polygon class="st1" points="34.7,57.2 33.1,55.4 33.2,54.8 34.8,56.6 "/>
<polygon class="st1" points="41.8,58.7 43.5,56.7 43.3,56.2 41.8,58 "/>
<polygon class="st1" points="41.9,57.2 43.5,55.3 43.3,54.7 41.8,56.6 "/>
<rect x="32.8" y="55.2" class="st1" width="10.8" height="0.4"/>
<rect x="35.1" y="49.9" class="st1" width="6.7" height="1.4"/>
<rect x="18" y="78.3" class="st4" width="23.6" height="2.1"/>
<g class="st5">
	<path d="M23.7,78.8h-0.5v1.5h-0.4v-1.5h-0.4v-0.3h1.3V78.8z"/>
	<path d="M24.3,80.4c-0.2,0-0.3-0.1-0.4-0.2s-0.2-0.3-0.2-0.5v-0.1c0-0.2,0-0.4,0.1-0.5c0.1-0.1,0.2-0.2,0.4-0.2
		c0.2,0,0.3,0.1,0.4,0.2c0.1,0.1,0.1,0.3,0.1,0.5v0.2h-0.7c0,0.1,0,0.2,0.1,0.2c0,0,0.1,0.1,0.2,0.1c0.1,0,0.2,0,0.3-0.1l0.1,0.2
		c0,0.1-0.1,0.1-0.2,0.1C24.5,80.3,24.4,80.4,24.3,80.4z M24.1,79.5h0.4v0c0-0.1,0-0.1,0-0.2s-0.1-0.1-0.1-0.1c-0.1,0-0.1,0-0.1,0.1
		S24.1,79.4,24.1,79.5z"/>
	<path d="M25.4,79l0,0.1c0.1-0.1,0.2-0.2,0.3-0.2c0.1,0,0.2,0.1,0.3,0.2c0.1-0.1,0.2-0.2,0.3-0.2c0.2,0,0.4,0.2,0.4,0.5v0.9h-0.4
		v-0.9c0-0.1,0-0.1,0-0.2c0,0-0.1-0.1-0.1-0.1c-0.1,0-0.1,0-0.1,0.1l0,0v0.9h-0.4v-0.9c0-0.1,0-0.1,0-0.2c0,0-0.1-0.1-0.1-0.1
		c-0.1,0-0.1,0-0.1,0.1v1H25V79H25.4z"/>
	<path d="M27.3,79l0,0.1c0.1-0.1,0.2-0.2,0.3-0.2c0.1,0,0.2,0.1,0.3,0.2c0.1-0.1,0.2-0.2,0.3-0.2c0.2,0,0.4,0.2,0.4,0.5v0.9h-0.4
		v-0.9c0-0.1,0-0.1,0-0.2c0,0-0.1-0.1-0.1-0.1c-0.1,0-0.1,0-0.1,0.1l0,0v0.9h-0.4v-0.9c0-0.1,0-0.1,0-0.2c0,0-0.1-0.1-0.1-0.1
		c-0.1,0-0.1,0-0.1,0.1v1H27V79H27.3z"/>
	<path d="M29.6,80.2c-0.1,0.1-0.2,0.2-0.3,0.2c-0.1,0-0.2,0-0.3-0.1c-0.1-0.1-0.1-0.2-0.1-0.4V79h0.4v0.9c0,0.1,0,0.2,0.1,0.2
		c0.1,0,0.1,0,0.2-0.1v-1h0.4v1.4h-0.3L29.6,80.2z"/>
	<path d="M30.6,80h0.5v0.3h-1v-0.2l0.5-0.8h-0.5V79h0.9v0.2L30.6,80z"/>
	<path d="M33,80.3h-1.1v-0.3l0.5-0.6c0.1-0.1,0.1-0.2,0.1-0.2s0-0.1,0-0.2c0-0.1,0-0.1,0-0.2c0,0-0.1-0.1-0.1-0.1
		c-0.1,0-0.1,0-0.1,0.1c0,0.1-0.1,0.1-0.1,0.2h-0.4c0-0.1,0-0.2,0.1-0.3c0-0.1,0.1-0.2,0.2-0.2s0.2-0.1,0.3-0.1c0.2,0,0.3,0,0.4,0.1
		S33,78.8,33,79c0,0.1,0,0.2-0.1,0.3c0,0.1-0.1,0.2-0.3,0.4L32.4,80H33V80.3z"/>
	<path d="M34.3,79.6c0,0.3,0,0.5-0.1,0.6s-0.2,0.2-0.4,0.2c-0.2,0-0.3-0.1-0.4-0.2s-0.1-0.3-0.1-0.6v-0.3c0-0.3,0-0.4,0.1-0.6
		c0.1-0.1,0.2-0.2,0.4-0.2c0.2,0,0.3,0.1,0.4,0.2c0.1,0.1,0.1,0.3,0.1,0.6V79.6z M34,79.2c0-0.1,0-0.3,0-0.3c0-0.1-0.1-0.1-0.1-0.1
		c-0.1,0-0.2,0.1-0.2,0.4v0.5c0,0.1,0,0.3,0,0.3c0,0.1,0.1,0.1,0.1,0.1c0.1,0,0.1,0,0.1-0.1s0-0.2,0-0.3V79.2z"/>
	<path d="M35.6,80.3h-1.1v-0.3l0.5-0.6c0.1-0.1,0.1-0.2,0.1-0.2c0-0.1,0-0.1,0-0.2c0-0.1,0-0.1,0-0.2c0,0-0.1-0.1-0.1-0.1
		c-0.1,0-0.1,0-0.1,0.1c0,0.1-0.1,0.1-0.1,0.2h-0.4c0-0.1,0-0.2,0.1-0.3c0-0.1,0.1-0.2,0.2-0.2c0.1-0.1,0.2-0.1,0.3-0.1
		c0.2,0,0.3,0,0.4,0.1c0.1,0.1,0.1,0.2,0.1,0.4c0,0.1,0,0.2-0.1,0.3c-0.1,0.1-0.1,0.2-0.3,0.4L35,80h0.6V80.3z"/>
	<path d="M36.7,80.3h-0.4v-1.4l-0.4,0.1v-0.3l0.7-0.3h0V80.3z"/>
</g>
<g id="markut_1_">
	<path class="st6" d="M18.5,4.6l1.2,3.8l1.2-3.8h0.8v4.7h-0.6V7.5l0-1.8l-1.2,3.7h-0.5l-1.2-3.7l0.1,1.8v1.8h-0.6V4.6H18.5z"/>
	<path class="st6" d="M25.3,8.1h-1.6l-0.4,1.2h-0.6l1.5-4.7h0.5l1.5,4.7h-0.6L25.3,8.1z M23.9,7.6h1.3l-0.6-2.1L23.9,7.6z"/>
	<path class="st6" d="M28.7,7.4h-0.8v1.9h-0.6V4.6h1.3c0.5,0,0.8,0.1,1,0.4C29.8,5.2,30,5.6,30,6c0,0.3-0.1,0.5-0.2,0.8
		c-0.1,0.2-0.3,0.4-0.5,0.5l0.9,2v0h-0.6L28.7,7.4z M27.8,6.9h0.7c0.2,0,0.4-0.1,0.6-0.2s0.2-0.4,0.2-0.6c0-0.6-0.3-0.9-0.8-0.9
		h-0.7V6.9z"/>
	<path class="st6" d="M32.1,7.1l-0.5,0.6v1.6h-0.6V4.6h0.6v2.3l0.4-0.5l1.3-1.8H34l-1.5,2.1l1.7,2.6h-0.7L32.1,7.1z"/>
	<path class="st6" d="M37.8,4.6v3.3c0,0.4-0.1,0.8-0.4,1.1c-0.2,0.2-0.6,0.4-1.1,0.4c-0.5,0-0.8-0.1-1.1-0.4S34.9,8.4,34.9,8V4.6
		h0.6v3.3c0,0.3,0.1,0.6,0.2,0.7s0.3,0.2,0.7,0.2c0.3,0,0.5-0.1,0.7-0.2c0.1-0.2,0.2-0.4,0.2-0.7V4.6H37.8z"/>
	<path class="st6" d="M41.8,5.1h-1.2v4.2H40V5.1h-1.2V4.6h3.1L41.8,5.1L41.8,5.1z"/>
</g>
<g id="entas_1_">
	<path class="st6" d="M18.5,10.8H18v0.5h0.6v0.1h-0.8v-1.4h0.8v0.1H18v0.5h0.5V10.8z"/>
	<path class="st6" d="M19,10.4v0.1c0.1-0.1,0.2-0.1,0.3-0.1c0.2,0,0.3,0.1,0.3,0.4v0.7h-0.2v-0.7c0-0.1,0-0.1,0-0.2
		c0,0-0.1-0.1-0.1-0.1c0,0-0.1,0-0.1,0c0,0-0.1,0.1-0.1,0.1v0.8h-0.2v-1.1C18.9,10.4,19,10.4,19,10.4z"/>
	<path class="st6" d="M19.9,10.9c0-0.1,0-0.3,0.1-0.4c0.1-0.1,0.2-0.1,0.3-0.1s0.2,0,0.2,0.1V10h0.2v1.5h-0.2l0-0.1
		c0,0.1-0.1,0.1-0.2,0.1c-0.1,0-0.2,0-0.3-0.1c-0.1-0.1-0.1-0.2-0.1-0.4L19.9,10.9z M20.1,11c0,0.1,0,0.2,0,0.3
		c0,0.1,0.1,0.1,0.2,0.1c0.1,0,0.2-0.1,0.2-0.1v-0.5c0-0.1-0.1-0.1-0.2-0.1c-0.1,0-0.1,0-0.2,0.1c0,0.1-0.1,0.2,0,0.3V11z"/>
	<path class="st6" d="M21.6,11.4c-0.1,0.1-0.2,0.1-0.2,0.1c-0.1,0-0.2,0-0.2-0.1c0-0.1-0.1-0.2-0.1-0.3v-0.7h0.2v0.7
		c0,0.2,0,0.2,0.1,0.2c0.1,0,0.2-0.1,0.2-0.1v-0.8h0.2v1.1L21.6,11.4L21.6,11.4z M21.1,10.2C21.1,10.1,21.1,10.1,21.1,10.2
		c0.1-0.1,0.2-0.1,0.2-0.1c0,0,0,0.1,0,0.1c0,0.1,0,0.1-0.1,0.1S21.1,10.2,21.1,10.2L21.1,10.2z M21.5,10.2
		C21.5,10.1,21.5,10.1,21.5,10.2c0.1-0.1,0.1-0.1,0.1-0.1s0.1,0,0.1,0c0,0,0,0.1,0,0.1s0,0.1,0,0.1c0,0,0,0-0.1,0
		S21.6,10.2,21.5,10.2C21.5,10.2,21.5,10.2,21.5,10.2z"/>
	<path class="st6" d="M22.6,11.2c0,0,0-0.1,0-0.1c0,0-0.1-0.1-0.2-0.1c-0.1,0-0.1-0.1-0.2-0.1c0,0-0.1-0.1-0.1-0.1c0,0,0-0.1,0-0.1
		c0-0.1,0-0.2,0.1-0.2c0.1-0.1,0.4-0.1,0.5,0c0.1,0.1,0.1,0.1,0.1,0.2h-0.2c0-0.1,0-0.1,0-0.1c0,0-0.1-0.1-0.1-0.1s-0.1,0-0.1,0
		s0,0.1,0,0.1c0,0,0,0.1,0,0.1c0,0,0.1,0.1,0.1,0.1c0.1,0,0.2,0.1,0.3,0.1c0,0.1,0.1,0.1,0.1,0.2c0,0.1,0,0.2-0.1,0.2
		c-0.1,0.1-0.2,0.1-0.3,0.1c-0.1,0-0.2,0-0.3-0.1c-0.1-0.1-0.1-0.1-0.1-0.2h0.2c0,0.1,0.1,0.2,0.2,0.2
		C22.5,11.4,22.6,11.4,22.6,11.2C22.6,11.3,22.6,11.3,22.6,11.2z"/>
	<path class="st6" d="M23.4,10.2v0.3h0.2v0.1h-0.2v0.7c0,0,0,0.1,0,0.1c0,0,0,0,0.1,0c0,0,0,0,0.1,0v0.1c0,0-0.1,0-0.1,0
		c-0.1,0-0.1,0-0.2-0.1c0-0.1-0.1-0.1,0-0.2v-0.7H23v-0.1h0.2v-0.3L23.4,10.2z"/>
	<path class="st6" d="M24.3,10.6C24.3,10.6,24.2,10.6,24.3,10.6c-0.2,0-0.2,0.1-0.3,0.1v0.8h-0.2v-1.1H24v0.1c0-0.1,0.1-0.1,0.2-0.1
		c0,0,0,0,0.1,0V10.6z"/>
	<path class="st6" d="M24.8,10.2C24.8,10.2,24.8,10.2,24.8,10.2C24.7,10.2,24.7,10.3,24.8,10.2c-0.1,0.1-0.1,0.1-0.2,0.1
		c0,0,0-0.1,0-0.1c0,0,0-0.1,0-0.1c0,0,0,0,0.1,0C24.7,10.1,24.7,10.1,24.8,10.2C24.8,10.1,24.8,10.1,24.8,10.2z M24.8,11.5h-0.2
		v-1.1h0.2V11.5z"/>
	<path class="st6" d="M25.4,11.2l0.2-0.8h0.2l-0.4,1.2c0,0.1-0.1,0.1-0.1,0.2c0,0.1-0.1,0.1-0.2,0.1c0,0-0.1,0-0.1,0v-0.1h0
		c0,0,0.1,0,0.1,0c0,0,0.1-0.1,0.1-0.1l0-0.1l-0.3-1.1h0.2L25.4,11.2z"/>
	<path class="st6" d="M26.4,11.5c-0.1,0-0.2,0-0.3-0.1c-0.1-0.1-0.1-0.2-0.1-0.4v-0.1c0-0.1,0-0.3,0.1-0.4c0.1-0.1,0.2-0.1,0.3-0.1
		c0.1,0,0.2,0,0.3,0.1c0.1,0.1,0.1,0.2,0.1,0.4V11h-0.6v0c0,0.1,0,0.2,0.1,0.2c0,0.1,0.1,0.1,0.2,0.1c0,0,0.1,0,0.1,0
		c0,0,0.1-0.1,0.1-0.1l0.1,0.1C26.7,11.5,26.6,11.5,26.4,11.5z M26.4,10.6c-0.1,0-0.1,0-0.2,0.1c0,0.1-0.1,0.1-0.1,0.2h0.4v0
		c0-0.1,0-0.1,0-0.2C26.5,10.6,26.5,10.6,26.4,10.6L26.4,10.6z"/>
	<path class="st6" d="M27.3,11.5h-0.2V10h0.2V11.5z"/>
	<path class="st6" d="M29,10.2h-0.4v1.3h-0.2v-1.3h-0.4v-0.1H29L29,10.2z"/>
	<path class="st6" d="M29.8,11.5c0,0,0-0.1,0-0.1c0,0.1-0.1,0.1-0.2,0.1c-0.1,0-0.2,0-0.2-0.1c-0.1-0.1-0.1-0.1-0.1-0.2
		c0-0.1,0-0.2,0.1-0.3c0.1-0.1,0.2-0.1,0.3-0.1h0.1v-0.1c0-0.1,0-0.2-0.1-0.2c0,0,0,0,0,0c0,0-0.1,0-0.1,0.1c0,0,0,0.1,0,0.1h-0.2
		c0-0.1,0-0.1,0-0.2c0-0.1,0.1-0.1,0.1-0.1c0.1,0,0.1,0,0.2,0c0.1,0,0.2,0,0.2,0.1c0.1,0.1,0.1,0.1,0.1,0.2v0.5c0,0.1,0,0.1,0,0.2v0
		L29.8,11.5L29.8,11.5z M29.5,11.4c0,0,0.1,0,0.1,0c0,0,0.1-0.1,0.1-0.1V11h-0.1c-0.1,0-0.1,0-0.2,0.1c0,0-0.1,0.1-0.1,0.1
		c0,0.1,0,0.1,0,0.1C29.5,11.4,29.5,11.4,29.5,11.4z"/>
	<path class="st6" d="M30.8,11.2c0,0,0-0.1,0-0.1c0,0-0.1-0.1-0.2-0.1c-0.1,0-0.1-0.1-0.2-0.1c0,0-0.1-0.1-0.1-0.1c0,0,0-0.1,0-0.1
		c0-0.1,0-0.2,0.1-0.2c0.1-0.1,0.4-0.1,0.5,0c0.1,0.1,0.1,0.1,0.1,0.2h-0.2c0-0.1,0-0.1,0-0.1c0,0-0.1-0.1-0.1-0.1s-0.1,0-0.1,0
		s0,0.1,0,0.1c0,0,0,0.1,0,0.1c0,0,0.1,0.1,0.1,0.1c0.1,0,0.2,0.1,0.3,0.1c0,0.1,0.1,0.1,0.1,0.2c0,0.1,0,0.2-0.1,0.2
		c-0.1,0.1-0.2,0.1-0.3,0.1c-0.1,0-0.2,0-0.3-0.1c-0.1-0.1-0.1-0.1-0.1-0.2h0.2c0,0.1,0.1,0.2,0.2,0.2
		C30.7,11.4,30.7,11.4,30.8,11.2C30.8,11.3,30.8,11.3,30.8,11.2z"/>
	<path class="st6" d="M31.9,11.5c0,0,0-0.1,0-0.1c0,0.1-0.1,0.1-0.2,0.1c-0.1,0-0.2,0-0.2-0.1c-0.1-0.1-0.1-0.1-0.1-0.2
		c0-0.1,0-0.2,0.1-0.3c0.1-0.1,0.2-0.1,0.3-0.1h0.1v-0.1c0-0.1,0-0.1,0-0.1c-0.1-0.1-0.2-0.1-0.3,0c0,0,0,0.1,0,0.1h-0.2
		c0-0.1,0-0.1,0-0.2c0-0.1,0.1-0.1,0.1-0.1c0.1,0,0.1,0,0.2,0c0.1,0,0.2,0,0.2,0.1c0.1,0.1,0.1,0.1,0.1,0.2v0.5c0,0.1,0,0.1,0,0.2v0
		L31.9,11.5L31.9,11.5z M31.6,11.4c0,0,0.1,0,0.1,0c0,0,0.1-0.1,0.1-0.1V11h-0.1c-0.1,0-0.1,0-0.2,0.1c0,0-0.1,0.1-0.1,0.1
		c0,0.1,0,0.1,0,0.1C31.5,11.4,31.6,11.4,31.6,11.4L31.6,11.4z"/>
	<path class="st6" d="M32.8,10.6C32.8,10.6,32.8,10.6,32.8,10.6c-0.2,0-0.2,0.1-0.3,0.1v0.8h-0.2v-1.1h0.2v0.1
		c0-0.1,0.1-0.1,0.2-0.1c0,0,0,0,0.1,0V10.6z"/>
	<path class="st6" d="M33.3,11.5h-0.2v-1.1h0.2V11.5z"/>
	<path class="st6" d="M33.8,10.4v0.1c0.1-0.1,0.2-0.1,0.3-0.1c0.1,0,0.2,0.1,0.2,0.1c0.1-0.1,0.2-0.2,0.3-0.1c0.2,0,0.3,0.1,0.3,0.4
		v0.7h-0.2v-0.7c0-0.1,0-0.1,0-0.2c0,0-0.1-0.1-0.1-0.1s-0.1,0-0.1,0.1c0,0,0,0.1-0.1,0.2v0.7h-0.2v-0.7c0-0.1-0.1-0.2-0.2-0.2
		c-0.1,0-0.2,0.1-0.2,0.1v0.8h-0.2v-1.1C33.7,10.4,33.8,10.4,33.8,10.4z"/>
	<path class="st6" d="M35.9,11.5v-1.4h0.3c0.2,0,0.3,0.1,0.4,0.1c0.1,0.1,0.2,0.3,0.1,0.4v0.2c0,0.2,0,0.3-0.1,0.4
		c-0.1,0.1-0.3,0.2-0.4,0.1L35.9,11.5L35.9,11.5z M36.1,10.2v1.1h0.1c0.1,0,0.2,0,0.3-0.1c0.1-0.1,0.1-0.2,0.1-0.3v-0.2
		c0-0.1,0-0.2-0.1-0.3c-0.1-0.1-0.2-0.1-0.3-0.1L36.1,10.2z"/>
	<path class="st6" d="M37.5,11.5c-0.1,0-0.2,0-0.3-0.1c-0.1-0.1-0.1-0.2-0.1-0.4v-0.1c0-0.1,0-0.3,0.1-0.4c0.1-0.1,0.2-0.1,0.3-0.1
		c0.1,0,0.2,0,0.3,0.1c0.1,0.1,0.1,0.2,0.1,0.4V11h-0.6v0c0,0.1,0,0.2,0.1,0.2c0,0.1,0.1,0.1,0.2,0.1c0,0,0.1,0,0.1,0
		c0,0,0.1-0.1,0.1-0.1l0.1,0.1C37.8,11.5,37.6,11.5,37.5,11.5z M37.5,10.6c-0.1,0-0.1,0-0.2,0.1c0,0.1-0.1,0.1-0.1,0.2h0.4v0
		c0-0.1,0-0.1,0-0.2C37.6,10.6,37.5,10.6,37.5,10.6L37.5,10.6z"/>
	<path class="st6" d="M38.6,10.6C38.6,10.6,38.5,10.6,38.6,10.6c-0.2,0-0.2,0.1-0.3,0.1v0.8h-0.2v-1.1h0.2v0.1
		c0-0.1,0.1-0.1,0.2-0.1c0,0,0,0,0.1,0V10.6z"/>
	<path class="st6" d="M38.8,10.9c0-0.1,0-0.3,0.1-0.4c0.1-0.1,0.2-0.1,0.3-0.1s0.2,0.1,0.2,0.1l0-0.1h0.2v1.1c0,0.1,0,0.2-0.1,0.3
		c-0.1,0.1-0.2,0.1-0.3,0.1c-0.1,0-0.1,0-0.2,0c-0.1,0-0.1-0.1-0.2-0.1l0.1-0.1c0.1,0.1,0.2,0.1,0.2,0.1c0.2,0,0.2-0.1,0.2-0.2v-0.1
		c0,0.1-0.1,0.1-0.2,0.1c-0.1,0-0.2,0-0.3-0.1c-0.1-0.1-0.1-0.2-0.1-0.4L38.8,10.9z M39,11c0,0.1,0,0.2,0,0.3c0,0.1,0.1,0.1,0.2,0.1
		c0.1,0,0.2-0.1,0.2-0.1v-0.5c0-0.1-0.1-0.1-0.2-0.1c-0.1,0-0.1,0-0.2,0.1c0,0.1-0.1,0.2,0,0.3V11z"/>
	<path class="st6" d="M40.1,10.2C40.1,10.2,40.1,10.2,40.1,10.2C40.1,10.2,40.1,10.3,40.1,10.2C40,10.3,40,10.2,40,10.2
		c0,0,0-0.1,0-0.1c0,0,0-0.1,0-0.1c0,0,0,0,0.1,0C40.1,10.1,40.1,10.1,40.1,10.2C40.1,10.1,40.1,10.1,40.1,10.2z M40.1,11.5H40v-1.1
		h0.2V11.5z"/>
	<path class="st6" d="M41,11.2c0,0,0-0.1,0-0.1c0,0-0.1-0.1-0.2-0.1c-0.1,0-0.1-0.1-0.2-0.1c0,0-0.1-0.1-0.1-0.1c0,0,0-0.1,0-0.1
		c0-0.1,0-0.2,0.1-0.2c0.1-0.1,0.3-0.1,0.5,0c0.1,0.1,0.1,0.1,0.1,0.2H41c0-0.1,0-0.1,0-0.1s-0.1-0.1-0.1-0.1c0,0-0.1,0-0.1,0
		s0,0.1,0,0.1c0,0,0,0.1,0,0.1c0,0,0.1,0.1,0.2,0.1c0.1,0,0.2,0.1,0.3,0.1c0,0.1,0.1,0.1,0.1,0.2c0,0.1,0,0.2-0.1,0.2
		c-0.1,0.1-0.2,0.1-0.3,0.1c-0.1,0-0.2,0-0.3-0.1c-0.1-0.1-0.1-0.1-0.1-0.2h0.2c0,0.1,0.1,0.2,0.2,0.2c0,0,0,0,0,0
		C40.9,11.4,41,11.4,41,11.2C41,11.3,41,11.3,41,11.2z"/>
	<path class="st6" d="M41.7,10.2C41.7,10.2,41.7,10.2,41.7,10.2C41.7,10.2,41.7,10.3,41.7,10.2c-0.1,0.1-0.2,0.1-0.2,0.1
		c0,0,0-0.1,0-0.1c0,0,0-0.1,0-0.1C41.6,10,41.7,10,41.7,10.2C41.7,10.1,41.7,10.1,41.7,10.2z M41.7,11.5h-0.2v-1.1h0.2V11.5z"/>
</g>
</svg>
