<?xml version="1.0" encoding="utf-8"?>
<!-- Generator: Adobe Illustrator 24.3.0, SVG Export Plug-In . SVG Version: 6.00 Build 0)  -->
<svg version="1.1" id="Layer_1" xmlns="http://www.w3.org/2000/svg" xmlns:xlink="http://www.w3.org/1999/xlink" x="0px" y="0px"
	 viewBox="0 0 71.9 89.2" style="enable-background:new 0 0 71.9 89.2;" xml:space="preserve">
<style type="text/css">
  .st4{
       animation: sarilamba 3s infinite;
     }
     @keyframes sarilamba{
        0% {fill:#E8E10C}
        50% {fill:rgb(0, 253, 0)}
        100% {fill:#E8E10C}
    }
    
    .st1{
       animation: turunculamba 2s infinite;
     }
     @keyframes turunculamba{
        0% {fill:#EE7D30}
        50% {fill:rgb(206, 8, 173)}
        100% {fill:#EE7D30}
    }
    .st2{
       animation: beyazlamba 4s infinite;
     }
     @keyframes beyazlamba{
        0% {fill:#FFFFFF}
        50% {fill:rgb(46, 20, 141)}
        100% {fill:#FFFFFF}
    }
    
    .st7{
       animation: morlamba 3s infinite;
     }
     @keyframes morlamba{
        0% {fill:#924794}
        50% {fill:rgb(238, 255, 0)}
        100% {fill:#924794}
    }
    
    .st24{
       animation: mavilamba 4s infinite;
     }
     @keyframes mavilamba{
        0% {fill:#2A4B9A}
        50% {fill:rgb(157, 255, 0)}
        100% {fill:#2A4B9A}
    }

	.st0{fill:#8EBF46;}
	.st1{fill:#EE7D30;}
	.st2{fill:#FFFFFF;}
	.st3{fill:#7D401E;}
	.st4{fill:#E8E10C;}
	.st5{fill:#C92540;}
	.st6{fill:#DD1D39;}
	.st7{fill:#924794;}
	.st8{fill:#BD1F2F;}
	.st9{fill:#799E3D;}
	.st10{fill:#E62F50;}
	.st11{fill:#E41F2A;}
	.st12{fill:#ECEB9C;}
	.st13{fill:#099339;}
	.st14{fill:#E1DD00;}
	.st15{fill:#FFFFFB;}
	.st16{fill:#2F5BA6;}
	.st17{fill:#FDD82D;}
	.st18{fill:#F7EC73;}
	.st19{fill:#244F24;}
	.st20{fill:#71144B;}
	.st21{fill:#AECA3B;}
	.st22{fill:#1F0B19;}
	.st23{fill:#EA5B1F;}
	.st24{fill:#2A4B9A;}
	.st25{fill:#234891;}
	.st26{fill:#272A5D;}
	.st27{fill:#FCECF1;}
	.st28{fill:#020303;}
	.st29{fill:#C49C13;}
	.st30{fill:#263683;}
	.st31{fill:#C6991A;}
	.st32{fill:#9C1A17;}
	.st33{fill:#C7C5C5;}
	.st34{fill:#2A327E;}
	.st35{fill:#EEEEEC;}
	.st36{fill:#254090;}
	.st37{fill:#E8EBF7;}
	.st38{fill:#F6C320;}
	.st39{fill:#BF181A;}
</style>
<polygon class="st0" points="37.1,14.2 9,73.5 36.1,81.1 67.9,76.8 "/>
<rect x="65.3" y="74.4" class="st1" width="2.2" height="2.2"/>
<rect x="45.1" y="74.4" class="st2" width="2.2" height="2.2"/>
<rect x="42.9" y="83.4" class="st3" width="2.2" height="2.2"/>
<rect x="42.9" y="81.2" class="st3" width="2.2" height="2.2"/>
<rect x="42.9" y="78.9" class="st3" width="2.2" height="2.2"/>
<rect x="40.6" y="83.4" class="st3" width="2.2" height="2.2"/>
<rect x="40.6" y="81.2" class="st3" width="2.2" height="2.2"/>
<rect x="40.6" y="78.9" class="st3" width="2.2" height="2.2"/>
<rect x="38.4" y="83.4" class="st3" width="2.2" height="2.2"/>
<rect x="38.4" y="81.2" class="st3" width="2.2" height="2.2"/>
<rect x="38.4" y="78.9" class="st3" width="2.2" height="2.2"/>
<rect x="36.2" y="83.4" class="st3" width="2.2" height="2.2"/>
<rect x="36.2" y="81.2" class="st3" width="2.2" height="2.2"/>
<rect x="36.2" y="78.9" class="st3" width="2.2" height="2.2"/>
<rect x="36.2" y="18.5" class="st4" width="2.2" height="2.2"/>
<rect x="33.9" y="83.4" class="st3" width="2.2" height="2.2"/>
<rect x="33.9" y="81.2" class="st3" width="2.2" height="2.2"/>
<rect x="33.9" y="78.9" class="st3" width="2.2" height="2.2"/>
<rect x="31.7" y="83.4" class="st3" width="2.2" height="2.2"/>
<rect x="31.7" y="81.2" class="st3" width="2.2" height="2.2"/>
<rect x="31.7" y="78.9" class="st3" width="2.2" height="2.2"/>
<rect x="29.4" y="83.4" class="st3" width="2.2" height="2.2"/>
<rect x="29.4" y="81.2" class="st3" width="2.2" height="2.2"/>
<rect x="29.4" y="78.9" class="st3" width="2.2" height="2.2"/>
<g id="beyaz">
	<rect x="42.9" y="61" class="st2" width="2.2" height="2.2"/>
	<rect x="38.4" y="40.9" class="st2" width="2.2" height="2.2"/>
	<rect x="36.2" y="25.2" class="st2" width="2.2" height="2.2"/>
	<rect x="29.4" y="54.3" class="st2" width="2.2" height="2.2"/>
</g>
<polygon class="st5" points="42.9,25.2 40.6,25.2 40.6,27.4 38.4,27.4 38.4,29.7 36.2,29.7 33.9,29.7 33.9,31.9 31.7,31.9 
	31.7,34.1 29.4,34.1 29.4,31.9 27.2,31.9 27.2,34.1 25,34.1 25,36.4 27.2,36.4 29.4,36.4 31.7,36.4 33.9,36.4 33.9,34.1 36.2,34.1 
	36.2,31.9 38.4,31.9 40.6,31.9 40.6,29.7 42.9,29.7 42.9,27.4 45.1,27.4 45.1,25.2 "/>
<g id="sari">
	<rect x="63.1" y="70" class="st1" width="2.2" height="2.2"/>
	<rect x="49.6" y="65.5" class="st1" width="2.2" height="2.2"/>
	<rect x="38.4" y="49.8" class="st1" width="2.2" height="2.2"/>
	<rect x="25" y="43.1" class="st1" width="2.2" height="2.2"/>
	<rect x="22.7" y="70" class="st1" width="2.2" height="2.2"/>
</g>
<polygon class="st6" points="49.6,38.6 47.4,38.6 47.4,40.9 45.1,40.9 42.9,40.9 42.9,43.1 40.6,43.1 38.4,43.1 38.4,45.3 
	36.2,45.3 33.9,45.3 33.9,47.6 31.7,47.6 29.4,47.6 29.4,49.8 27.2,49.8 25,49.8 25,52 22.7,52 22.7,49.8 20.5,49.8 20.5,47.6 
	18.3,47.6 18.3,49.8 18.3,52 20.5,52 20.5,54.3 22.7,54.3 25,54.3 27.2,54.3 27.2,52 29.4,52 31.7,52 33.9,52 33.9,49.8 36.2,49.8 
	38.4,49.8 38.4,47.6 40.6,47.6 42.9,47.6 45.1,47.6 45.1,45.3 47.4,45.3 47.4,43.1 49.6,43.1 49.6,40.9 51.9,40.9 51.9,38.6 "/>
<g id="mor">
	<rect x="56.3" y="58.8" class="st7" width="2.2" height="2.2"/>
	<rect x="51.9" y="49.8" class="st7" width="2.2" height="2.2"/>
	<rect x="40.6" y="34.1" class="st7" width="2.2" height="2.2"/>
	<rect x="31.7" y="70" class="st7" width="2.2" height="2.2"/>
	<rect x="31.7" y="22.9" class="st7" width="2.2" height="2.2"/>
	<rect x="16" y="56.5" class="st7" width="2.2" height="2.2"/>
</g>
<rect x="13.8" y="76.7" class="st7" width="2.2" height="2.2"/>
<g id="turuncu">
	<rect x="51.9" y="61" class="st1" width="2.2" height="2.2"/>
	<rect x="49.6" y="45.3" class="st1" width="2.2" height="2.2"/>
	<rect x="33.9" y="38.6" class="st1" width="2.2" height="2.2"/>
	<rect x="29.4" y="27.4" class="st1" width="2.2" height="2.2"/>
	<rect x="22.7" y="58.8" class="st1" width="2.2" height="2.2"/>
	<rect x="11.5" y="65.5" class="st1" width="2.2" height="2.2"/>
</g>
<polygon class="st8" points="56.3,52 54.1,52 54.1,54.3 51.9,54.3 49.6,54.3 47.4,54.3 47.4,56.5 45.1,56.5 42.9,56.5 42.9,58.8 
	40.6,58.8 40.6,56.5 38.4,56.5 36.2,56.5 36.2,58.8 33.9,58.8 31.7,58.8 31.7,61 29.4,61 27.2,61 27.2,63.2 25,63.2 22.7,63.2 
	22.7,65.5 20.5,65.5 20.5,63.2 18.3,63.2 18.3,61 16,61 13.8,61 11.5,61 11.5,63.2 11.5,65.5 13.8,65.5 16,65.5 16,67.7 18.3,67.7 
	20.5,67.7 22.7,67.7 25,67.7 25,65.5 27.2,65.5 29.4,65.5 31.7,65.5 31.7,63.2 33.9,63.2 33.9,61 36.2,61 38.4,61 40.6,61 42.9,61 
	45.1,61 45.1,58.8 47.4,58.8 49.6,58.8 51.9,58.8 54.1,58.8 54.1,56.5 56.3,56.5 56.3,54.3 58.6,54.3 58.6,52 "/>
<g>
	<polygon class="st9" points="63.4,74.7 61.1,74.7 61.1,72.5 63.4,72.5 63.4,70.2 61.1,70.2 58.9,70.2 56.6,70.2 56.6,72.5 
		56.6,74.7 54.3,74.7 52.1,74.7 49.8,74.7 47.6,74.7 47.6,77 45.2,77 45.2,74.7 47.6,74.7 47.6,72.5 45.2,72.5 43,72.5 43,74.7 
		43,77 43,79.2 45.2,79.2 47.6,79.2 49.8,79.2 52.1,79.2 54.3,79.2 54.3,77 56.6,77 56.6,79.2 58.9,79.2 61.1,79.2 63.4,79.2 
		63.4,77 65.7,77 65.7,74.7 	"/>
	<path class="st9" d="M45.2,70.2h2.2h2.2v2.2h2.4v-2.2h2.2V68h2.2h2.2v-2.2h-2.2v-2.2h-2.2h-2.2v-2.4h2.2h2.2v-2.2h-2.2h-2.2h-2.2
		h-2.2h-2.2v2.2v2.2H43v-2.2h-2.2h-2.2h-2.2h-2.4v2.2h2.2v2.2h-2.2v-2.2h-2.2v2.2h-2.2h-2.2H25v2.2h-2.2h-2.2h-2.2h-2.2V70v2.2h2.2
		v2.2h2.2h2.2v2.2H25h2.2v-2.2h2.2h2.2h2.2h2.2v2.2h2.2v-2.2h2.2v-2.2v-2H43H45.2z M52.1,67.9h-2.2v-2.2h2.2V67.9z M22.6,70.2h2.2
		v2.2h-2.2V70.2z M31.7,72.5v-2.2h2.2v2.2H31.7z"/>
	<polygon class="st9" points="38.5,29.5 38.5,27.1 36.2,27.1 36.2,24.9 38.5,24.9 38.5,27.1 40.7,27.1 40.7,24.9 40.7,22.6 
		38.5,22.6 38.5,20.4 36.2,20.4 36.2,22.6 33.9,22.6 33.9,24.9 31.7,24.9 31.7,27.1 33.9,27.1 33.9,29.5 36.2,29.5 	"/>
	<rect x="31.7" y="29.5" class="st9" width="2.2" height="2.2"/>
	<polygon class="st9" points="29.4,77 29.4,79.2 31.7,79.2 33.9,79.2 33.9,77 31.7,77 	"/>
	<rect x="29.4" y="31.7" class="st9" width="2.2" height="2.2"/>
	<path class="st9" d="M29.4,49.8v-2.2h2.2h2.3v-2.2h2.2h2.2v-2.2v-2.2h2.2v2.2H43v-2.2h2.2v-2.2h2.2v-2.2h-2.2H43h-2.2v-2.2H43h2.2
		V32H43v-2.2h-2.2V32h-2.2h-2.2v2.2h-2.4v2.2h-2.2h-2.2v2.2v2.2h-2.2H25v2.2h2.2v2.2H25h-2.2v2.2H25v2.2h2.2H29.4L29.4,49.8z
		 M36.2,38.5v2.2h-2.3v-2.2H36.2z"/>
	<rect x="22.6" y="49.8" class="st9" width="2.2" height="2.2"/>
	<path class="st9" d="M20.4,61.1v2.2v2.2h2.2v-2.2h2.2H27v-2.2h2.2h2.2v-2.2h2.2h2.2v-2.2h2.2h2.2v2.2H43v-2.2h2.2h2.2v-2.2h-2.2V52
		h2.2v2.2h2.2h2.4V52v-2.2h-2.2v-2.2v-2.2h-2.2h-2.2v2.2H43h-2.2h-2.2v2.2h2.2V52h-2.2v-2.2h-2.2h-2.4V52h-2.2h-2.2h-2.2v2.2H25
		h-2.2h-2.2h-2.2v2.2h2.2v2.2h-2.2h-2.2v2.2h2.2L20.4,61.1L20.4,61.1z M31.7,54.4v2.2h-2.2v-2.2H31.7z M24.9,58.9v2.2h-2.2v-2.2
		H24.9z"/>
	<polygon class="st9" points="15.8,77 15.8,79.2 18.1,79.2 20.4,79.2 20.4,77 18.1,77 	"/>
	<rect x="13.6" y="65.7" class="st9" width="2.2" height="2.2"/>
	<rect x="11.3" y="77" class="st9" width="2.2" height="2.2"/>
	<rect x="11.3" y="70.2" class="st9" width="2.2" height="2.2"/>
	<rect x="9" y="74.7" class="st9" width="2.2" height="2.2"/>
</g>
<rect x="7.1" y="74.4" class="st1" width="2.2" height="2.2"/>
<polygon class="st10" points="63.1,65.5 60.8,65.5 58.6,65.5 58.6,67.7 56.3,67.7 54.1,67.7 54.1,70 51.9,70 51.9,72.2 49.6,72.2 
	49.6,70 47.4,70 45.1,70 42.9,70 40.6,70 40.6,72.2 40.6,74.4 38.4,74.4 38.4,76.7 36.2,76.7 36.2,74.4 33.9,74.4 31.7,74.4 
	29.4,74.4 27.2,74.4 27.2,76.7 25,76.7 22.7,76.7 22.7,74.4 20.5,74.4 18.3,74.4 18.3,72.2 16,72.2 13.8,72.2 11.5,72.2 11.5,70 
	9.3,70 7.1,70 7.1,72.2 9.3,72.2 9.3,74.4 11.5,74.4 11.5,76.7 13.8,76.7 16,76.7 18.3,76.7 20.5,76.7 20.5,78.9 22.7,78.9 25,78.9 
	27.2,78.9 29.4,78.9 29.4,76.7 31.7,76.7 33.9,76.7 33.9,78.9 36.2,78.9 38.4,78.9 40.6,78.9 42.9,78.9 42.9,76.7 42.9,74.4 
	42.9,72.2 45.1,72.2 47.4,72.2 47.4,74.4 49.6,74.4 51.9,74.4 54.1,74.4 56.3,74.4 56.3,72.2 56.3,70 58.6,70 60.8,70 60.8,67.7 
	63.1,67.7 65.3,67.7 65.3,65.5 "/>
<polygon class="st0" points="67.5,74.4 67.5,76.7 65.3,76.7 63.1,76.7 63.1,78.9 65.3,78.9 67.5,78.9 69.7,78.9 69.7,76.7 
	69.7,74.4 "/>
<polygon class="st0" points="67.5,70 65.3,70 65.3,72.2 63.1,72.2 60.8,72.2 60.8,74.4 63.1,74.4 65.3,74.4 67.5,74.4 67.5,72.2 "/>
<polygon class="st0" points="63.1,67.7 60.8,67.7 60.8,70 63.1,70 65.3,70 65.3,67.7 "/>
<polygon class="st0" points="63.1,65.5 63.1,63.2 63.1,61 60.8,61 60.8,58.8 60.8,56.5 58.6,56.5 58.6,54.3 56.3,54.3 56.3,56.5 
	54.1,56.5 54.1,58.8 56.3,58.8 58.6,58.8 58.6,61 56.3,61 54.1,61 54.1,63.2 56.3,63.2 56.3,65.5 58.6,65.5 60.8,65.5 "/>
<polygon class="st0" points="56.3,52 56.3,49.8 56.3,47.6 54.1,47.6 54.1,45.3 54.1,43.1 51.9,43.1 51.9,40.9 49.6,40.9 49.6,43.1 
	47.4,43.1 47.4,45.3 49.6,45.3 51.9,45.3 51.9,47.6 49.6,47.6 49.6,49.8 51.9,49.8 54.1,49.8 54.1,52 "/>
<rect x="51.9" y="52" class="st0" width="2.2" height="2.2"/>
<polygon class="st0" points="49.6,38.6 49.6,36.4 49.6,34.1 47.4,34.1 47.4,31.9 47.4,29.7 45.1,29.7 45.1,27.4 42.9,27.4 
	42.9,29.7 42.9,31.9 45.1,31.9 45.1,34.1 42.9,34.1 42.9,36.4 45.1,36.4 47.4,36.4 47.4,38.6 "/>
<rect x="45.1" y="38.6" class="st0" width="2.2" height="2.2"/>
<polygon class="st0" points="42.9,25.2 42.9,22.9 42.9,20.7 40.6,20.7 40.6,18.5 40.6,16.2 38.4,16.2 38.4,14 38.4,11.8 36.2,11.8 
	36.2,14 36.2,16.2 33.9,16.2 33.9,18.5 33.9,20.7 31.7,20.7 31.7,22.9 33.9,22.9 36.2,22.9 36.2,20.7 36.2,18.5 38.4,18.5 
	38.4,20.7 38.4,22.9 40.6,22.9 40.6,25.2 "/>
<rect x="31.7" y="27.4" class="st0" width="2.2" height="2.2"/>
<rect x="29.4" y="25.2" class="st0" width="2.2" height="2.2"/>
<polygon class="st0" points="27.2,29.7 27.2,31.9 29.4,31.9 31.7,31.9 31.7,29.7 29.4,29.7 "/>
<polygon class="st0" points="25,36.4 25,38.6 27.2,38.6 27.2,40.9 29.4,40.9 29.4,38.6 29.4,36.4 27.2,36.4 "/>
<polygon class="st0" points="22.7,40.9 22.7,43.1 20.5,43.1 20.5,45.3 20.5,47.6 20.5,49.8 22.7,49.8 25,49.8 25,47.6 22.7,47.6 
	22.7,45.3 25,45.3 25,43.1 25,40.9 25,38.6 22.7,38.6 "/>
<rect x="18.3" y="61" class="st0" width="2.2" height="2.2"/>
<rect x="18.3" y="56.5" class="st0" width="2.2" height="2.2"/>
<polygon class="st0" points="16,52 16,54.3 16,56.5 18.3,56.5 18.3,54.3 20.5,54.3 20.5,52 18.3,52 "/>
<polygon class="st0" points="13.8,58.8 13.8,61 16,61 16,58.8 16,56.5 13.8,56.5 "/>
<polygon class="st0" points="11.5,67.7 11.5,65.5 9.3,65.5 9.3,67.7 9.3,70 11.5,70 13.8,70 16,70 16,67.7 13.8,67.7 "/>
<polygon class="st0" points="7.1,76.7 7.1,74.4 4.8,74.4 4.8,76.7 4.8,78.9 7.1,78.9 9.3,78.9 11.5,78.9 11.5,76.7 9.3,76.7 "/>
<rect x="7.1" y="72.2" class="st0" width="2.2" height="2.2"/>
<rect x="4.8" y="72.2" class="st2" width="2.2" height="2.2"/>
<g>
	<rect x="10.7" y="72.9" class="st11" width="2.7" height="2.7"/>
	<rect x="8" y="77" class="st11" width="1.3" height="6.7"/>
	<rect x="8" y="74.3" class="st11" width="1.3" height="1.3"/>
	<rect x="4" y="72.9" class="st11" width="2.7" height="2.7"/>
</g>
<g>
	<g>
		<polygon class="st12" points="37.1,78.2 37.1,77.1 37.1,76 36,76 34.9,76 34.9,77.1 34.9,78.2 36,78.2 		"/>
		<polygon class="st12" points="32.6,80.5 32.6,81.7 32.6,82.8 32.6,83.9 32.6,85.1 33.7,85.1 33.7,83.9 33.7,82.8 33.7,81.7 
			33.7,80.5 33.7,79.4 32.6,79.4 		"/>
		<rect x="32.6" y="77.1" class="st12" width="1.1" height="1.1"/>
		<polygon class="st12" points="29.2,76 29.2,77.1 29.2,78.2 30.3,78.2 31.4,78.2 31.4,77.1 31.4,76 30.3,76 		"/>
		<polygon class="st12" points="29.2,81.7 29.2,81.7 29.2,81.7 		"/>
	</g>
	<g>
		<path class="st13" d="M38.3,78.2v-1.1V76h-1.1v1.1v1.1h-1.1l0,0h-1.2v-1.1V76h-1.1h-1.1l0,0h-1.1v1.1v1.1h-1.1h-1.1v-1.1V76h1.1
			h1.1v-1.1h-1.1h-1.1V76h-1.1v1.1v1.1h-1.4v1.1v1.1v1.1l0,0v1.1v1.1v1.1l0,0v1.1H28h1.1l0,0h1.1h1.1h1.1l0,0h1.1h1.4H36l0,0h1.1
			h1.1h1.1v-1.1l0,0v-1.1v-1.1v-1.1l0,0v-1.1v-1.1v-1.1L38.3,78.2L38.3,78.2z M33.7,77.1v1.1h-1.1v-1.1H33.7z M30.3,85.1h-1.1l0,0
			h-1.1V84v-1.1v-1.1l0,0v-1.1v-1.1h1.1l0,0h1.1h1.1v1.1v1.1l0,0v1.1V84v1.1H30.3z M32.6,85.1V84v-1.1v-1.1l0,0v-1.1v-1.1h1.1v1.1
			v1.1l0,0v1.1V84v1.1H32.6z M38.3,80.5v1.1l0,0v1.1v1.1v1.1h-1.1h-1.1l0,0h-1.2v-1.1v-1.1v-1.1l0,0v-1.1v-1.1H36l0,0h1.1h1.1v1.1
			H38.3z"/>
		<polygon class="st13" points="36,76 37.1,76 37.1,74.8 36,74.8 36,74.8 34.9,74.8 34.9,76 		"/>
	</g>
	<rect x="28" y="79.4" class="st12" width="3.4" height="5.7"/>
	<rect x="34.9" y="79.4" class="st12" width="3.4" height="5.7"/>
	<g>
		<rect x="37.1" y="83.9" class="st14" width="1.1" height="1.1"/>
		<rect x="37.1" y="81.6" class="st14" width="1.1" height="1.1"/>
		<rect x="37.1" y="79.4" class="st14" width="1.1" height="1.1"/>
		<rect x="36" y="82.8" class="st14" width="1.1" height="1.1"/>
		<rect x="36" y="80.5" class="st14" width="1.1" height="1.1"/>
		<rect x="34.9" y="83.9" class="st14" width="1.1" height="1.1"/>
		<rect x="34.9" y="81.6" class="st14" width="1.1" height="1.1"/>
		<rect x="34.9" y="79.4" class="st14" width="1.1" height="1.1"/>
		<rect x="30.3" y="83.9" class="st14" width="1.1" height="1.1"/>
		<rect x="30.3" y="81.6" class="st14" width="1.1" height="1.1"/>
		<rect x="30.3" y="79.4" class="st14" width="1.1" height="1.1"/>
		<rect x="29.2" y="82.8" class="st14" width="1.1" height="1.1"/>
		<rect x="29.2" y="80.5" class="st14" width="1.1" height="1.1"/>
		<rect x="28" y="83.9" class="st14" width="1.1" height="1.1"/>
		<rect x="28" y="81.6" class="st14" width="1.1" height="1.1"/>
		<rect x="28" y="79.4" class="st14" width="1.1" height="1.1"/>
	</g>
</g>
<g>
	<rect x="24" y="78.2" class="st15" width="2.7" height="1.3"/>
	<rect x="24" y="83.6" class="st15" width="2.7" height="1.3"/>
	<polygon class="st15" points="25.4,80.9 25.4,82.2 24,82.2 24,83.6 22.7,83.6 22.7,80.9 	"/>
	<rect x="22.7" y="74.2" class="st16" width="2.7" height="2.7"/>
	<rect x="20" y="78.2" class="st16" width="1.3" height="6.7"/>
	<rect x="20" y="75.5" class="st16" width="1.3" height="1.3"/>
	<rect x="16" y="75.5" class="st16" width="1.3" height="1.3"/>
	<polygon class="st16" points="18.7,74.2 18.7,76.9 17.3,76.9 17.3,75.5 16,75.5 16,74.2 	"/>
	<rect x="14.7" y="78.2" class="st15" width="4" height="6.7"/>
	<g>
		<polygon class="st17" points="26.7,79.5 26.7,83.6 24,83.6 24,82.2 25.4,82.2 25.4,80.9 22.7,80.9 22.7,78.2 24,78.2 24,79.5 		
			"/>
		<rect x="22.7" y="83.6" class="st17" width="1.3" height="1.3"/>
	</g>
</g>
<g>
	<g id="XMLID_21_">
		<g>
			<polygon class="st18" points="45.4,77.7 44,77.8 42.6,77.8 42.6,77.8 42.6,76.5 42.6,76.5 42.5,75.3 44,75.2 45.4,75.2 
				45.4,76.4 45.4,76.4 			"/>
			<polygon class="st19" points="45.4,75.2 44,75.2 42.5,75.3 42.5,74 43.9,73.9 45.3,73.9 			"/>
			<polygon class="st18" points="41.7,85.5 40.1,85.6 39.9,84.1 40.1,84.1 39.9,82.6 39.9,81.1 39.9,81.1 39.8,79.6 39.8,78.1 
				39.8,78.1 41.4,78.1 41.6,79.5 41.6,79.6 41.6,81 41.6,81 41.6,82.5 41.6,82.5 41.7,84 41.7,84 			"/>
			<polygon class="st18" points="41.2,77.9 41.2,77.9 39.8,77.9 39.7,76.6 41.2,76.6 			"/>
			<polygon class="st19" points="46.9,77.7 45.5,77.7 45.4,76.4 45.4,75.2 46.8,75.1 46.8,76.4 			"/>
			<polygon class="st18" points="38.4,77.9 38.3,77.9 36.9,78 36.9,78 35.5,78 35.5,76.7 35.5,76.7 35.4,75.4 35.5,75.4 36.8,75.4 
				36.9,75.4 38.3,75.4 38.3,75.4 38.3,76.6 38.3,76.6 38.3,76.7 			"/>
			<polygon class="st19" points="38.3,75.4 36.9,75.4 36.8,75.4 35.5,75.4 35.4,74.2 36.8,74.1 38.2,74.1 			"/>
			<polygon class="st19" points="35.5,76.7 34.1,76.8 34,75.5 35.4,75.4 35.4,75.4 			"/>
			<polygon class="st19" points="37.2,87 37.2,87 35.8,87.1 34.4,87.1 34.4,87.1 33,87.1 32.9,85.8 32.9,84.6 32.9,84.6 32.8,83.3 
				32.8,82 32.8,82 32.8,80.7 32.7,79.4 32.7,79.4 32.7,78.1 34.1,78.1 34,76.8 35.5,76.7 35.5,78 35.5,78 36.9,78 36.9,78 
				38.3,77.9 38.4,79.2 37,79.3 35.6,79.3 34.1,79.4 34.1,79.3 34.1,79.3 34.2,80.6 34.2,81.9 34.2,81.9 34.2,83.2 34.3,84.5 
				34.3,84.5 34.3,85.8 34.3,85.8 35.7,85.8 37.1,85.7 37.1,85.7 38.6,85.7 38.6,87 			"/>
			<path class="st19" d="M44.2,85.5h-1.4v-1.3v-1.3l0,0v-1.3v-1.3h-1.4v1.3l0,0v1.3l0,0v1.3l0,0v1.3l0,0l0,0H40v-1.3l0,0v-1.3v-1.3
				l0,0v-1.3V79l0,0h1.4l0,0v1.3h1.4V79v-1.3l0,0v-1.3l0,0v-1.3L40,75.2h-1.4v1.3l0,0l0,0v1.3l0,0v1.3l0,0v1.3v1.3l0,0V83v1.3l0,0
				v1.3v1.3H40h1.4l0,0h1.4h1.4L44.2,85.5z M39.7,76.6L39.7,76.6h1.4v1.3l0,0h-1.4l0,0V76.6z"/>
			<polygon class="st19" points="48.5,86.7 47.1,86.7 45.7,86.8 45.7,86.8 44.2,86.9 44.1,85.5 45.7,85.5 45.7,85.5 47.1,85.5 
				47.1,85.5 47.1,84.2 47,82.9 47,82.9 47,81.6 46.9,80.3 47,80.3 46.9,79 45.5,79.1 45.5,79 44.1,79.1 42.7,79.1 42.6,77.8 
				44,77.8 45.4,77.7 45.4,77.8 48.3,77.7 48.3,79 48.4,80.2 48.3,80.2 48.4,81.5 48.4,82.8 48.4,82.8 48.5,84.1 48.5,85.4 
				48.5,85.4 			"/>
		</g>
	</g>
</g>
<g>
	<g id="XMLID_22_">
		<g>
			<g>
				<polygon class="st20" points="56.1,75 55,75 55,76.1 55,77.3 56.1,77.3 57.3,77.3 57.3,76.1 57.3,75 				"/>
				<polygon class="st20" points="52.8,79.5 52.8,80.7 52.8,81.8 52.8,82.9 52.8,84.1 53.9,84.1 53.9,82.9 53.9,81.8 53.9,80.7 
					53.9,79.5 53.9,78.4 52.8,78.4 				"/>
				<rect x="52.8" y="76.1" class="st20" width="1.1" height="1.1"/>
				<polygon class="st20" points="49.3,75 49.3,76.1 49.3,77.3 50.5,77.3 51.6,77.3 51.6,76.1 51.6,75 50.5,75 				"/>
			</g>
			<g>
				<polygon class="st21" points="57.3,78.4 56.1,78.4 55,78.4 55,79.5 55,80.7 55,81.8 55,82.9 55,84.1 56.1,84.1 57.3,84.1 
					58.4,84.1 58.4,82.9 58.4,81.8 58.4,80.7 58.4,79.5 58.4,78.4 				"/>
				<polygon class="st21" points="49.3,78.4 48.2,78.4 48.2,79.5 48.2,80.7 48.2,81.8 48.2,82.9 48.2,84.1 49.3,84.1 50.5,84.1 
					51.6,84.1 51.6,82.9 51.6,81.8 51.6,80.7 51.6,79.5 51.6,78.4 50.5,78.4 				"/>
			</g>
			<g>
				<path class="st22" d="M58.4,77.3v-1.1l0,0V75h-1.1v1.1l0,0v1.1h-1.1l0,0h-1.1v-1.1l0,0V75h-1.2l0,0h-1.1h-1.1v1.1l0,0v1.1h-1.1
					l0,0h-1.1v-1.1l0,0V75h-1.1v1.1l0,0v1.1h-1.1v1.1v1.1l0,0v1.1v1.1v1.1l0,0v1.1v1.1h1.1l0,0h1.1h1.1l0,0h1.1h1.1h1.1l0,0H55h1.1
					l0,0h1.1h1.1h1.1v-1.1V83l0,0v-1.1v-1.1v-1.1l0,0v-1.1v-1.1h-1V77.3z M52.8,76.2h1.1v1.1h-1.1V76.2z M50.5,84.1L50.5,84.1h-1.1
					h-1.1V83l0,0v-1.1v-1.1v-1.1l0,0v-1.1h1.1h1.1l0,0h1.1v1.1l0,0v1.1v1.1V83l0,0v1.1H50.5z M52.8,84.1V83l0,0v-1.1v-1.1v-1.1l0,0
					v-1.1h1.1v1.1l0,0v1.1v1.1V83l0,0v1.1H52.8z M58.4,79.5L58.4,79.5v1.1v1.1v1.1l0,0v1.1h-1.1h-1.1l0,0h-1.1V83l0,0v-1.1v-1.1
					v-1.1l0,0v-1.1h1.1l0,0h1.1h1.1V79.5z"/>
				<polygon class="st22" points="56.2,75 57.3,75 57.3,73.9 56.2,73.9 56.1,73.9 55,73.9 55,75 56.1,75 				"/>
				<polygon class="st22" points="50.5,75 51.6,75 51.6,73.9 50.5,73.9 50.5,73.9 49.3,73.9 49.3,75 				"/>
			</g>
		</g>
	</g>
</g>
<g>
	<polygon class="st23" points="47,82.9 47,81.6 47,80.3 46.9,79 45.5,79 44.1,79.1 42.6,79.1 42.7,80.4 42.7,81.7 42.8,83 
		42.8,84.3 42.8,85.6 44.3,85.5 45.7,85.5 47.1,85.5 47.1,84.2 	"/>
	<polygon class="st23" points="38.5,83.1 38.5,81.8 38.4,80.5 38.4,79.2 37,79.3 35.6,79.3 34.1,79.3 34.2,80.6 34.2,82 34.2,83.2 
		34.3,84.5 34.3,85.8 35.7,85.8 37.2,85.7 38.6,85.7 38.5,84.4 	"/>
	<polygon class="st23" points="66.6,75.5 65.4,75.5 65.4,76.8 65.4,78 66.6,78 67.8,78 67.8,76.8 67.8,75.5 	"/>
	<polygon class="st23" points="62.9,80.4 62.9,81.7 62.9,82.9 62.9,84.1 62.9,85.3 64.2,85.3 64.2,84.1 64.2,82.9 64.2,81.7 
		64.2,80.4 64.2,79.2 62.9,79.2 	"/>
	<rect x="62.9" y="76.8" class="st23" width="1.2" height="1.2"/>
	<polygon class="st23" points="59.3,75.5 59.3,76.8 59.3,78 60.5,78 61.7,78 61.7,76.8 61.7,75.5 60.5,75.5 	"/>
</g>
<g id="mavi">
	<rect x="45.1" y="52" class="st24" width="2.2" height="2.2"/>
	<rect x="33.9" y="63.2" class="st24" width="2.2" height="2.2"/>
	<rect x="25" y="38.6" class="st24" width="2.2" height="2.2"/>
	<rect x="13.8" y="70" class="st24" width="2.2" height="2.2"/>
</g>
<polygon class="st25" points="67.8,79.2 66.6,79.2 65.4,79.2 65.4,80.4 65.4,81.7 65.4,82.9 65.4,84.1 65.4,85.3 66.6,85.3 
	67.8,85.3 69.1,85.3 69.1,84.1 69.1,82.9 69.1,81.7 69.1,80.4 69.1,79.2 "/>
<polygon class="st25" points="59.3,79.2 58,79.2 58,80.4 58,81.7 58,82.9 58,84.1 58,85.3 59.3,85.3 60.5,85.3 61.7,85.3 61.7,84.1 
	61.7,82.9 61.7,81.7 61.7,80.4 61.7,79.2 60.5,79.2 "/>
<g>
	<path class="st26" d="M69.1,78v-1.2v-1.2h-1.2v1.2V78h-1.2h-1.2v-1.2v-1.2h-1.2h-1.2h-1.2v1.2V78h-1.2h-1.2v-1.2v-1.2h-1.2v1.2V78
		h-1.4v1.2v1.2v1.2v1.2V84v1.2v1.2h1.2h1.2h1.2h1.2h1.2h1.2h1.2h1.2h1.4h1.2h1.2v-1.2V84v-1.2v-1.2v-1.2v-1.2V78H69.1z M62.9,76.8
		h1.2V78h-1.2V76.8z M60.5,85.3h-1.2h-1.2v-1.2v-1.2v-1.2v-1.2v-1.2h1.2h1.2h1.2v1.2v1.2v1.2v1.2v1.2H60.5z M62.9,85.3v-1.2v-1.2
		v-1.2v-1.2v-1.2h1.2v1.2v1.2v1.2v1.2v1.2H62.9z M69.1,80.4v1.2v1.2V84v1.2h-1.2h-1.2h-1.2V84v-1.2v-1.2v-1.2v-1.2h1.2h1.2h1.2V80.4
		z"/>
	<polygon class="st26" points="67.8,75.5 67.8,74.3 66.6,74.3 65.4,74.3 65.4,75.5 66.6,75.5 	"/>
	<polygon class="st26" points="61.7,75.5 61.7,74.3 60.5,74.3 59.3,74.3 59.3,75.5 60.5,75.5 	"/>
</g>
<polygon class="st27" points="13.4,77 12,77 10.7,77 10.7,78.3 10.7,79.6 10.7,81 10.7,82.3 10.7,83.6 12,83.6 13.4,83.6 14.7,83.6 
	16.1,83.6 16.1,82.3 16.1,81 16.1,79.6 16.1,78.3 16.1,77 14.7,77 "/>
<polygon class="st27" points="4,77 2.7,77 2.7,78.3 2.7,79.6 2.7,81 2.7,82.3 2.7,83.6 4,83.6 5.4,83.6 6.7,83.6 6.7,82.3 6.7,81 
	6.7,79.6 6.7,78.3 6.7,77 5.4,77 "/>
<polygon class="st28" points="13.4,72.9 13.4,71.6 12,71.6 10.7,71.6 10.7,72.9 12,72.9 "/>
<polygon class="st28" points="6.7,72.9 6.7,71.6 5.4,71.6 4,71.6 4,72.9 5.4,72.9 "/>
<path class="st28" d="M26.7,75.5v-1.3h-1.3v1.3v1.3h-1.3h-1.3v-1.3v-1.3h-1.3h-1.3h-1.3v1.3v1.3h-1.3v-1.2h-1.3l0,0v-0.1v-1.3H15V73
	h-1.3v1.3v1.3h-1.3h-1.3v-1.3V73H9.8H8.5H7.2v1.3v1.3H5.4H4v-1.3V73H2.7v1.3v1.3H1.3v1.3v1.3v1.3v1.3v1.3v1.3v1.3h1.3h1.3h1.3h1.3
	h1.3h1.3h1.3h1.3H13V86h1.3h1.3h1.3h1.3h1.3h1.3h1.3h1.3h1.3H26h1.3v-1.3v-1.3v-1.3v-1.3v-1.3v-1.3v-1.3H26L26.7,75.5L26.7,75.5z
	 M20,75.5h1.3v1.3H20V75.5z M16.1,79.6v1.3v1.3v1.3h-1.3l0,0v-0.1v-1.3v-1.3v-1.3v-1.3h1.3l0,0v0.1V79.6z M8,74.3h1.3v1.3H8V74.3z
	 M5.4,83.6H4H2.7v-1.3V81v-1.3v-1.3v-1.3H4h1.3h1.3v1.3v1.3V81v1.3v1.3H5.4z M8,83.6v-1.3V81v-1.3v-1.3v-1.3h1.3v1.3v1.3V81v1.3v1.3
	H8z M10.7,83.6v-1.3V81v-1.3v-1.3v-1.3H12h1.3v1.3v1.3V81v1.3v1.3v0.1H12h-1.3V83.6z M17.4,84.9v-1.3v-1.3V81v-1.3v-1.3v-0.1h1.3
	v1.3v1.3v1.3v1.3v1.3L17.4,84.9L17.4,84.9z M20,84.9v-1.3v-1.3V81v-1.3v-1.3h1.3v1.3V81v1.3v1.3v1.3H20z M26.7,79.5v1.3v1.3v1.3v1.3
	h-1.3h-1.3h-1.3v-1.3v-1.3v-1.3v-1.3v-1.3h1.3h1.3h1.3V79.5z"/>
<polygon class="st28" points="25.4,74.2 25.4,72.8 24,72.8 22.7,72.8 22.7,74.2 24,74.2 "/>
<polygon class="st28" points="18.7,74.2 18.7,72.8 17.3,72.8 16,72.8 16,74.2 17.3,74.2 "/>
<g>
	<polygon class="st29" points="50,4.7 49.1,4.7 48.2,4.7 47.3,4.7 46.4,4.7 46.4,5.5 45.5,5.5 44.6,5.5 43.7,5.5 42.8,5.5 41.9,5.5 
		41,5.5 40.1,5.5 39.2,5.5 38.3,5.5 38.3,6.4 39.2,6.4 40.1,6.4 40.1,7.2 41,7.2 41,8 41,8.8 41,9.7 41.9,9.7 41.9,10.5 42.8,10.5 
		43.7,10.5 43.7,11.3 43.7,12.1 44.6,12.1 45.5,12.1 45.5,13 46.4,13 46.4,12.1 47.3,12.1 47.3,11.3 47.3,10.5 48.2,10.5 48.2,9.7 
		48.2,8.8 49.1,8.8 49.1,8 49.1,7.2 50,7.2 50,6.4 50,5.5 50.8,5.5 50.8,4.7 	"/>
	<rect x="37.4" y="18.8" class="st30" width="0.9" height="0.8"/>
	<polygon class="st31" points="40.1,16.3 40.1,15.5 39.2,15.5 39.2,14.7 38.3,14.7 38.3,15.5 38.3,16.3 38.3,17.1 38.3,18 37.4,18 
		37.4,18.8 38.3,18.8 39.2,18.8 39.2,18 40.1,18 40.1,17.1 41,17.1 41,16.3 	"/>
	<polygon class="st32" points="37.4,14.7 37.4,15.5 37.4,16.3 37.4,17.1 37.4,18 38.3,18 38.3,17.1 38.3,16.3 38.3,15.5 38.3,14.7 	
		"/>
	<g>
		<polygon class="st33" points="44.6,12.1 43.7,12.1 43.7,11.3 43.7,10.5 42.8,10.5 41.9,10.5 41.9,9.7 41,9.7 41,10.5 41,11.3 
			41,12.1 41,13 41,13.8 41,14.7 41.9,14.7 41.9,13.8 42.8,13.8 43.7,13.8 44.6,13.8 45.5,13.8 45.5,13 45.5,12.1 		"/>
		<polygon class="st33" points="38.3,8.8 37.4,8.8 37.4,9.7 37.4,10.5 37.4,11.3 37.4,12.1 38.3,12.1 38.3,11.3 39.2,11.3 
			39.2,10.5 39.2,9.7 38.3,9.7 		"/>
	</g>
	<g>
		<polygon class="st34" points="40.1,7.2 40.1,6.4 39.2,6.4 38.3,6.4 37.4,6.4 37.4,7.2 37.4,8 37.4,8.8 38.3,8.8 38.3,9.7 
			39.2,9.7 39.2,10.5 39.2,11.3 38.3,11.3 38.3,12.1 37.4,12.1 37.4,13 37.4,13.8 37.4,14.7 38.3,14.7 39.2,14.7 40.1,14.7 41,14.7 
			41,13.8 41,13 41,12.1 41,11.3 41,10.5 41,9.7 41,8.8 41,8 41,7.2 		"/>
		<rect x="39.2" y="18" class="st34" width="0.9" height="0.8"/>
	</g>
	<rect x="35.6" y="18.8" class="st30" width="0.9" height="0.8"/>
	<polygon class="st35" points="36.5,8.8 36.5,9.7 35.6,9.7 35.6,10.5 35.6,11.3 36.5,11.3 36.5,12.1 37.4,12.1 37.4,11.3 37.4,10.5 
		37.4,9.7 37.4,8.8 	"/>
	<g>
		<rect x="36.5" y="18.8" class="st36" width="0.9" height="0.8"/>
		<polygon class="st36" points="36.5,6.4 35.6,6.4 34.8,6.4 34.8,7.2 33.9,7.2 33.9,8 33.9,8.8 33.9,9.7 33.9,10.5 33.9,11.3 
			33.9,12.1 33.9,13 33.9,13.8 33.9,14.7 34.8,14.7 35.6,14.7 36.5,14.7 37.4,14.7 37.4,13.8 37.4,13 37.4,12.1 36.5,12.1 
			36.5,11.3 35.6,11.3 35.6,10.5 35.6,9.7 36.5,9.7 36.5,8.8 37.4,8.8 37.4,8 37.4,7.2 37.4,6.4 		"/>
		<rect x="34.8" y="18" class="st36" width="0.9" height="0.8"/>
	</g>
	<rect x="39.2" y="4.7" class="st28" width="0.9" height="0.8"/>
	<polygon class="st28" points="38.3,3.9 38.3,3 37.4,3 37.4,2.2 36.5,2.2 35.6,2.2 34.8,2.2 33.9,2.2 33.9,3 34.8,3 35.6,3 
		35.6,3.9 36.5,3.9 37.4,3.9 37.4,4.7 38.3,4.7 39.2,4.7 39.2,3.9 	"/>
	<polygon class="st37" points="33,9.7 33,10.5 32.1,10.5 31.2,10.5 31.2,11.3 31.2,12.1 30.3,12.1 29.4,12.1 29.4,13 29.4,13.8 
		30.3,13.8 31.2,13.8 32.1,13.8 33,13.8 33,14.7 33.9,14.7 33.9,13.8 33.9,13 33.9,12.1 33.9,11.3 33.9,10.5 33.9,9.7 	"/>
	<g>
		<polygon class="st38" points="35.6,14.7 35.6,15.5 34.8,15.5 34.8,16.3 33.9,16.3 33.9,17.1 34.8,17.1 34.8,18 35.6,18 35.6,18.8 
			36.5,18.8 36.5,18 36.5,17.1 36.5,16.3 36.5,15.5 36.5,14.7 		"/>
		<polygon class="st38" points="33.9,8.8 33.9,8 33.9,7.2 34.8,7.2 34.8,6.4 34.8,5.5 33.9,5.5 33,5.5 32.1,5.5 31.2,5.5 30.3,5.5 
			29.4,5.5 28.5,5.5 28.5,4.7 27.6,4.7 26.7,4.7 25.8,4.7 24.9,4.7 24,4.7 24,5.5 24.9,5.5 24.9,6.4 25.8,6.4 25.8,7.2 25.8,8 
			26.7,8 26.7,8.8 26.7,9.7 27.6,9.7 27.6,10.5 28.5,10.5 28.5,11.3 28.5,12.1 28.5,13 29.4,13 29.4,12.1 30.3,12.1 31.2,12.1 
			31.2,11.3 31.2,10.5 32.1,10.5 33,10.5 33,9.7 33.9,9.7 		"/>
	</g>
	<polygon class="st39" points="37.4,4.7 37.4,3.9 36.5,3.9 35.6,3.9 35.6,4.7 35.6,5.5 34.8,5.5 34.8,6.4 35.6,6.4 36.5,6.4 
		37.4,6.4 38.3,6.4 38.3,5.5 39.2,5.5 39.2,4.7 38.3,4.7 	"/>
	<polygon class="st39" points="36.5,15.5 36.5,16.3 36.5,17.1 36.5,18 36.5,18.8 37.4,18.8 37.4,18 37.4,17.1 37.4,16.3 37.4,15.5 
		37.4,14.7 36.5,14.7 	"/>
	<rect x="37.4" y="12.1" class="st34" width="0.1" height="2.6"/>
	<rect x="37.4" y="6.4" class="st34" width="0.1" height="2.4"/>
	<rect x="37.4" y="14.7" class="st32" width="0.1" height="3.3"/>
</g>
</svg>
