<svg id="Layer_1" data-name="Layer 1" xmlns="http://www.w3.org/2000/svg" xmlns:xlink="http://www.w3.org/1999/xlink" viewBox="0 0 595.28 841.21"><defs><style>.cls-1{fill:none;}.cls-2,.cls-6{fill:#161d2d;}.cls-3,.cls-4{fill:#bab79e;}.cls-4{stroke:#161d2d;stroke-width:2.83px;}.cls-4,.cls-6,.cls-7{stroke-miterlimit:10;}.cls-5{fill:url(#sümerbank-1);}.cls-6,.cls-7{stroke:#bab79e;stroke-width:8.5px;}.cls-7{fill:#fff;}</style><pattern id="sümerbank-1" data-name="sümerbank-1" width="149.89" height="116.39" patternTransform="translate(1291.12 52.83) scale(1.12 1.01)" patternUnits="userSpaceOnUse" viewBox="0 0 149.89 116.39"><rect class="cls-1" width="149.89" height="116.39"/><path class="cls-2" d="M75.05,171.34l8.92,3.2-.81.2h0c.61-.73,1.23-1.5,1.75-2.27a5.43,5.43,0,0,0,.33-.55c.1-.27.05.06,0-.25s-.22-.91-.35-1.38c-.52-1.88-1.09-3.76-1.67-5.63l-.25-.81.84-.1,14.35-1.67-.61.55.77-3.46v.23l-1-9.63-.06-.63.62-.14,2.84-.63.18,0,.18.06c1.37.42,2.76.83,4.14,1.22l2.08.55c.69.17,1.39.33,2,.42l.33.13a.45.45,0,0,0-.31-.08.36.36,0,0,0-.18.06.94.94,0,0,0,.1-.13,4.84,4.84,0,0,0,.32-.62c.21-.46.4-1,.59-1.46s.4-1,.66-1.54a3.89,3.89,0,0,1,.54-.83,1.34,1.34,0,0,1,.7-.44,1,1,0,0,1,.62.06,1.26,1.26,0,0,1,.39.27l-1.09.11a6.8,6.8,0,0,0,1-3.17,21.34,21.34,0,0,0-.08-3.58c-.22-2.47-.36-4.95-.55-7.41l-.08-1.12,1,.41,11.45,4.48-.74.15,5-4.71-.22.56-.32-5c-.06-.83-.09-1.68-.18-2.47a20.59,20.59,0,0,0-.41-2.38v.05a11.67,11.67,0,0,0-.66-1.59,17.18,17.18,0,0,0-.86-1.53l1.19-.78a18.46,18.46,0,0,1,.94,1.67,13,13,0,0,1,.75,1.8v.05a22.56,22.56,0,0,1,.51,3.34l-.72-.66,2-.05h.07a15.93,15.93,0,0,0,5.39-.77,44.78,44.78,0,0,1,5.61-1.46h0l-.61.74,0-10.27h.21l1.18,10.2.07.62-.68.13h0a44.11,44.11,0,0,0-5.43,1.42,17.3,17.3,0,0,1-5.86.82h.07l-2.06.05-.66,0-.05-.68a21.24,21.24,0,0,0-.48-3.11v.05a11.67,11.67,0,0,0-.66-1.59,17.18,17.18,0,0,0-.86-1.53l1.19-.78a18.46,18.46,0,0,1,.94,1.67,13,13,0,0,1,.75,1.8v.05a22,22,0,0,1,.44,2.55c.1.87.12,1.7.19,2.53l.32,5,0,.33-.24.23-5,4.71-.33.31-.42-.16-11.45-4.48,1-.71c.18,2.47.33,4.93.54,7.39a22.64,22.64,0,0,1,.08,3.83,8.21,8.21,0,0,1-1.24,3.83l-.07.11h-1l.07,0a.39.39,0,0,0,.22,0c.13,0,.09,0,0,0a2.67,2.67,0,0,0-.33.52c-.22.43-.41.92-.61,1.42s-.39,1-.62,1.52a6.11,6.11,0,0,1-.43.81,2,2,0,0,1-.42.48,1.06,1.06,0,0,1-.54.23,1,1,0,0,1-.69-.19l.33.13a22.19,22.19,0,0,1-2.2-.45l-2.12-.56c-1.4-.39-2.79-.8-4.18-1.23l.36,0-2.84.63.55-.76,1,9.63v.11l0,.11L99,162.92l-.11.49-.5.06L84,165.14l.59-.91c.58,1.89,1.15,3.77,1.68,5.68.13.48.26.95.37,1.48a2,2,0,0,1,.06.59,1.79,1.79,0,0,1-.19.58,6.69,6.69,0,0,1-.42.71,30.24,30.24,0,0,1-1.85,2.4h0l-.36.4-.44-.2L74.8,172Z"/><path class="cls-3" d="M109.2,132.33c2.89,2.84,8.33,2.2,9.93-1.55,2.54-6.23-2.71-10.86-2.53-16.85-5.62,3.36-11.15,11.49-7.41,18.39"/><path class="cls-3" d="M121.85,114c-.9,4.81,3.85,10.35,8.6,7.58,7.92-5.15.4-13.06-.4-19.79-4,3.17-7.92,6.73-8.21,12.21C121.77,114.67,122,113.27,121.85,114Z"/><path class="cls-3" d="M139.2,106.38c-1.51,1.56-2.08,3.89-.34,5.35,1.31,1.1,2.79,1.75,4.07.82s2.7-1.92,1.55-4.25-3.28-2.48-4.12-3.92C140.36,104.38,140.71,104.81,139.2,106.38Z"/><path class="cls-4" d="M125.38,75a5.87,5.87,0,0,1,8.31,8.31"/><path class="cls-4" d="M142,91.64a5.87,5.87,0,0,1-8.31-8.31"/><path class="cls-4" d="M142,91.64a5.87,5.87,0,1,1,8.31,8.31"/><path class="cls-4" d="M158.61,108.25a5.87,5.87,0,1,1-8.31-8.31"/><path class="cls-4" d="M92.19,116.47a5.87,5.87,0,0,1-8.31,8.31"/><path class="cls-4" d="M92.19,116.47a5.87,5.87,0,0,1,8.31-8.31"/><path class="cls-4" d="M108.81,99.86a5.87,5.87,0,1,1-8.31,8.31"/><path class="cls-4" d="M108.81,99.86a5.87,5.87,0,0,1,8.31-8.31"/><path class="cls-4" d="M125.42,83.24a5.87,5.87,0,1,1-8.31,8.31"/><path class="cls-4" d="M125.42,83.24a5.87,5.87,0,0,1,0-8.31"/><path class="cls-4" d="M-7.9,91.64a5.87,5.87,0,0,1,8.31,0,5.87,5.87,0,0,1,0,8.31"/><path class="cls-4" d="M8.71,108.25A5.87,5.87,0,0,1,.41,99.95"/><path class="cls-4" d="M8.71,108.25A5.87,5.87,0,0,1,17,116.56"/><path class="cls-4" d="M25.33,124.87A5.87,5.87,0,0,1,17,116.56"/><path class="cls-3" d="M160.47,66.5c2.57-4.7,1.39-13.8-5.34-12.62-5.94.79-7.52,7.92-5.83,12.87a20.13,20.13,0,0,0,.83,2.36,24.47,24.47,0,0,0,1.1,2.27,17.36,17.36,0,0,0,1.4,2.15,16.2,16.2,0,0,0,3.77,3.56,9.52,9.52,0,0,0,3.93,1.29,45.19,45.19,0,0,1-.53-4.51,30.41,30.41,0,0,1,0-3.93A10.37,10.37,0,0,1,160.47,66.5Z"/><path class="cls-4" d="M125.19,74.68a5.87,5.87,0,0,1-8.31-8.31"/><path class="cls-4" d="M125.19,74.68A5.87,5.87,0,1,1,133.5,83"/><path class="cls-4" d="M141.81,91.3A5.87,5.87,0,0,1,133.5,83"/><path class="cls-4" d="M141.81,91.3a5.87,5.87,0,0,1,8.31,8.31"/><path class="cls-4" d="M158.42,107.91a5.87,5.87,0,0,1-8.31-8.31"/><path class="cls-4" d="M149.76,41a5.87,5.87,0,0,1,8.31-8.31"/><path class="cls-4" d="M149.76,41a5.87,5.87,0,0,1-8.31,8.31"/><path class="cls-4" d="M133.14,57.6a5.87,5.87,0,0,1,8.31-8.31"/><path class="cls-4" d="M133.14,57.6a5.87,5.87,0,0,1-8.31,8.31"/><path class="cls-4" d="M116.53,74.21a5.87,5.87,0,0,1,8.31-8.31"/><circle class="cls-2" cx="142.7" cy="70.82" r="1.58" transform="translate(-8.28 121.65) rotate(-45)"/><circle class="cls-2" cx="146.59" cy="74.71" r="1.58" transform="translate(-9.89 125.53) rotate(-45)"/><circle class="cls-2" cx="150.47" cy="78.59" r="1.58" transform="translate(-11.5 129.42) rotate(-45)"/><path class="cls-2" d="M75.05,55,84,58.15l-.81.2h0c.61-.73,1.23-1.5,1.75-2.27a5.43,5.43,0,0,0,.33-.55c.1-.27.05.06,0-.25s-.22-.91-.35-1.38c-.52-1.88-1.09-3.76-1.67-5.63L83,47.44l.84-.1,14.35-1.67-.61.55.77-3.46V43l-1-9.63-.06-.63.62-.14,2.84-.63.18,0,.18.06c1.37.42,2.76.83,4.14,1.22l2.08.55c.69.17,1.39.33,2,.42l.33.13a.45.45,0,0,0-.31-.08.36.36,0,0,0-.18.06.94.94,0,0,0,.1-.13,4.84,4.84,0,0,0,.32-.62c.21-.46.4-1,.59-1.46s.4-1,.66-1.54a3.89,3.89,0,0,1,.54-.83,1.34,1.34,0,0,1,.7-.44,1,1,0,0,1,.62.06,1.26,1.26,0,0,1,.39.27L112,29.7a6.8,6.8,0,0,0,1-3.17,21.34,21.34,0,0,0-.08-3.58c-.22-2.47-.36-4.95-.55-7.41l-.08-1.12,1,.41,11.45,4.48-.74.15,5-4.71-.22.56-.32-5c-.06-.83-.09-1.68-.18-2.47A20.59,20.59,0,0,0,128,5.45V5.5a11.67,11.67,0,0,0-.66-1.59,17.18,17.18,0,0,0-.86-1.53l1.19-.78a18.46,18.46,0,0,1,.94,1.67,13,13,0,0,1,.75,1.8v.05a22.56,22.56,0,0,1,.51,3.34l-.72-.66,2-.05h.07A15.93,15.93,0,0,0,136.62,7a44.78,44.78,0,0,1,5.61-1.46h0l-.61.74,0-10.27h.21L143,6.19l.07.62-.68.13h0A44.11,44.11,0,0,0,137,8.34a17.3,17.3,0,0,1-5.86.82h.07l-2.06.05-.66,0-.05-.68A21.24,21.24,0,0,0,128,5.45V5.5a11.67,11.67,0,0,0-.66-1.59,17.18,17.18,0,0,0-.86-1.53l1.19-.78a18.46,18.46,0,0,1,.94,1.67,13,13,0,0,1,.75,1.8v.05a22,22,0,0,1,.44,2.55c.1.87.12,1.7.19,2.53l.32,5,0,.33-.24.23-5,4.71-.33.31-.42-.16-11.45-4.48,1-.71c.18,2.47.33,4.93.54,7.39a22.64,22.64,0,0,1,.08,3.83,8.21,8.21,0,0,1-1.24,3.83l-.07.11h-1l.07,0a.39.39,0,0,0,.22,0c.13,0,.09,0,0,0a2.67,2.67,0,0,0-.33.52c-.22.43-.41.92-.61,1.42s-.39,1-.62,1.52a6.11,6.11,0,0,1-.43.81,2,2,0,0,1-.42.48,1.06,1.06,0,0,1-.54.23,1,1,0,0,1-.69-.19l.33.13a22.19,22.19,0,0,1-2.2-.45l-2.12-.56c-1.4-.39-2.79-.8-4.18-1.23l.36,0L98.21,34l.55-.76,1,9.63V43l0,.11L99,46.53l-.11.49-.5.06L84,48.75l.59-.91c.58,1.89,1.15,3.77,1.68,5.68.13.48.26.95.37,1.48a2,2,0,0,1,.06.59,1.79,1.79,0,0,1-.19.58,6.69,6.69,0,0,1-.42.71,30.24,30.24,0,0,1-1.85,2.4h0l-.36.4-.44-.2L74.8,55.59Z"/><path class="cls-3" d="M85.1,50.5c-5.71,1-11.25-4.58-9.27-10.12C77.41,36,84.54,34,82.56,28.51c3.56,5.94,11.87,13.06,6.49,20.07A8.48,8.48,0,0,1,85.1,50.5Z"/><path class="cls-3" d="M92,56c-4.7-2.57-13.8-1.39-12.62,5.34.79,5.94,7.92,7.52,12.87,5.83a20.13,20.13,0,0,0,2.36-.83,24.47,24.47,0,0,0,2.27-1.1A17.36,17.36,0,0,0,99,63.86a16.2,16.2,0,0,0,3.56-3.77,9.52,9.52,0,0,0,1.29-3.93,45.19,45.19,0,0,1-4.51.53,30.41,30.41,0,0,1-3.93,0A10.37,10.37,0,0,1,92,56Z"/><path class="cls-3" d="M102,41.34a6.7,6.7,0,0,0-7.59,2.61,6.77,6.77,0,0,0-.4,6.73c3.17,4.75,8.71,4.75,13.46,3.17a14.1,14.1,0,0,0,10.29-11.08c-4.35-.4-8.71.79-13-.68A13.86,13.86,0,0,1,102,41.34Z"/><path class="cls-3" d="M75.8,55.75c2.41-7.46-7.89-3.9-10.66-8.25-1.19,2.37,0,5.15,1.58,7.12s4.35,2.37,6.74,1.83A20.89,20.89,0,0,0,75.8,55.75Z"/><path class="cls-3" d="M93.36,30a22.13,22.13,0,0,0,2.24,3.07,4.28,4.28,0,0,0,3.26,1.51,7.21,7.21,0,0,0,2.73-.84,10.65,10.65,0,0,0,2.28-1.64c2.38-3.14,2.61-7.3,1.77-11.46a30.68,30.68,0,0,0-1.16-4.13c-.5-2.55-1.92-4.79-3.39-7.42-2.15,6.19-8.44,10.81-8.61,18A9.26,9.26,0,0,0,93.36,30Z"/><path class="cls-3" d="M116.13,26.94c-3.1,0-7.45,0-9.43,3.15a5.51,5.51,0,0,0,.4,5.54c7.12,7.52,16.23-.79,23-4.35-3.56-2-7.52-2.37-11.51-3.76C117.3,27.19,116.13,26.94,116.13,26.94Z"/><path class="cls-3" d="M129.35,14.47c-2.39-.07-5.63-.54-7,2a5.31,5.31,0,0,0,1.39,5.82c5.77,5.77,13.43-1,19-5.13-3.31-1.25-6.62-2.5-10.73-2.6C130.64,14.5,129.35,14.47,129.35,14.47Z"/><path class="cls-3" d="M109.2,15.94c2.89,2.84,8.33,2.2,9.93-1.55,2.54-6.23-2.71-10.86-2.53-16.85C111,.91,105.45,9,109.2,15.94"/><path class="cls-3" d="M121.85-2.42c-.9,4.81,3.85,10.35,8.6,7.58,7.92-5.15.4-13.06-.4-19.79-4,3.17-7.92,6.73-8.21,12.21C121.77-1.72,122-3.11,121.85-2.42Z"/><path class="cls-3" d="M136,4.54c-2.09,3.58.72,7.67,3.95,8.13,7.25.85,10.89-6.29,16.95-9.3a19.72,19.72,0,0,0-19.63-.27A2.94,2.94,0,0,0,136,4.54Z"/><path class="cls-3" d="M139.2-10c-1.51,1.56-2.08,3.89-.34,5.35,1.31,1.1,2.79,1.75,4.07.82s2.7-1.92,1.55-4.25-3.28-2.48-4.12-3.92C140.36-12,140.71-11.58,139.2-10Z"/><path class="cls-4" d="M100.19,91.3a5.87,5.87,0,1,1-8.31,8.31"/><path class="cls-4" d="M100.19,91.3A5.87,5.87,0,0,1,108.49,83"/><path class="cls-4" d="M116.8,74.68A5.87,5.87,0,0,1,108.49,83"/><path class="cls-4" d="M116.8,74.68a5.87,5.87,0,0,1,8.31-8.31"/><path class="cls-4" d="M133.41,58.07a5.87,5.87,0,1,1-8.31,8.31"/><path class="cls-4" d="M49.88,50.12a5.87,5.87,0,1,1,8.31,8.31"/><path class="cls-4" d="M66.49,66.73a5.87,5.87,0,1,1-8.31-8.31"/><path class="cls-4" d="M66.49,66.73A5.87,5.87,0,1,1,74.8,75"/><path class="cls-4" d="M83.1,83.35A5.87,5.87,0,1,1,74.8,75"/><path class="cls-4" d="M83.1,83.35a5.87,5.87,0,1,1,8.31,8.31"/><path class="cls-4" d="M99.72,100a5.87,5.87,0,0,1-8.31-8.31"/><path class="cls-4" d="M50.33,49.63A5.87,5.87,0,0,1,42,41.33"/><path class="cls-4" d="M133.41,58.07a5.87,5.87,0,0,1,8.31-8.31"/><path class="cls-4" d="M125.38-41.36a5.87,5.87,0,0,1,8.31,0,5.87,5.87,0,0,1,0,8.31"/><path class="cls-4" d="M142-24.75a5.87,5.87,0,0,1-8.31,0,5.87,5.87,0,0,1,0-8.31"/><path class="cls-4" d="M142-24.75a5.87,5.87,0,0,1,8.31,0,5.87,5.87,0,0,1,0,8.31"/><path class="cls-4" d="M158.61-8.14a5.87,5.87,0,0,1-8.31,0,5.87,5.87,0,0,1,0-8.31"/><path class="cls-4" d="M158.61-8.14a5.87,5.87,0,0,1,8.31,0,5.87,5.87,0,0,1,0,8.31"/><path class="cls-4" d="M175.22,8.48A5.87,5.87,0,1,1,166.91.17"/><path class="cls-4" d="M175.22,8.48a5.87,5.87,0,0,1,8.31,0"/><path class="cls-4" d="M150,41.46a5.87,5.87,0,0,1-8.31,8.31"/><path class="cls-4" d="M150,41.46a5.87,5.87,0,0,1,8.31-8.31"/><path class="cls-4" d="M166.64,24.84a5.87,5.87,0,1,1-8.31,8.31"/><path class="cls-4" d="M166.64,24.84a5.87,5.87,0,0,1,8.31-8.31"/><path class="cls-4" d="M183.25,8.23a5.87,5.87,0,0,1-8.31,8.31"/><path class="cls-4" d="M75.58,16.69a5.87,5.87,0,0,1,8.31-8.31"/><path class="cls-4" d="M92.19.08a5.87,5.87,0,0,1-8.31,8.31"/><path class="cls-4" d="M92.19.08a5.87,5.87,0,0,1,0-8.31,5.87,5.87,0,0,1,8.31,0"/><path class="cls-4" d="M108.81-16.53a5.87,5.87,0,0,1,0,8.31,5.87,5.87,0,0,1-8.31,0"/><path class="cls-4" d="M108.81-16.53a5.87,5.87,0,0,1,0-8.31,5.87,5.87,0,0,1,8.31,0"/><path class="cls-4" d="M125.42-33.15a5.87,5.87,0,0,1,0,8.31,5.87,5.87,0,0,1-8.31,0"/><path class="cls-4" d="M125.42-33.15a5.87,5.87,0,0,1,0-8.31"/><path class="cls-4" d="M75.3,16.41A5.87,5.87,0,0,1,67,24.72"/><path class="cls-4" d="M58.68,33A5.87,5.87,0,1,1,67,24.72"/><path class="cls-4" d="M58.68,33a5.87,5.87,0,1,1-8.31,8.31"/><path class="cls-4" d="M42.07,41.33a5.87,5.87,0,0,1,8.31,0"/><circle class="cls-2" cx="96.33" cy="73.79" r="1.58" transform="translate(-23.96 89.73) rotate(-45)"/><circle class="cls-2" cx="100.21" cy="69.9" r="1.58" transform="translate(-20.08 91.33) rotate(-45)"/><circle class="cls-2" cx="104.09" cy="66.02" r="1.58" transform="translate(-16.2 92.94) rotate(-45)"/><circle class="cls-2" cx="107.98" cy="62.14" r="1.58" transform="translate(-12.31 94.55) rotate(-45)"/><circle class="cls-2" cx="111.86" cy="58.25" r="1.58" transform="translate(-8.43 96.16) rotate(-45)"/><circle class="cls-2" cx="115.74" cy="54.37" r="1.58" transform="translate(-4.55 97.77) rotate(-45)"/><circle class="cls-2" cx="119.63" cy="50.49" r="1.58" transform="translate(-0.66 99.38) rotate(-45)"/><circle class="cls-2" cx="123.51" cy="46.61" r="1.58" transform="translate(3.22 100.99) rotate(-45)"/><circle class="cls-2" cx="127.39" cy="42.72" r="1.58" transform="translate(7.1 102.59) rotate(-45)"/><circle class="cls-2" cx="131.28" cy="38.84" r="1.58" transform="translate(10.99 104.2) rotate(-45)"/><circle class="cls-2" cx="135.16" cy="34.96" r="1.58" transform="translate(14.87 105.81) rotate(-45)"/><circle class="cls-2" cx="139.04" cy="31.07" r="1.58" transform="translate(18.75 107.42) rotate(-45)"/><circle class="cls-2" cx="142.93" cy="27.19" r="1.58" transform="translate(22.64 109.03) rotate(-45)"/><circle class="cls-2" cx="146.81" cy="23.31" r="1.58" transform="translate(26.52 110.64) rotate(-45)"/><circle class="cls-2" cx="150.69" cy="19.42" r="1.58" transform="translate(30.4 112.24) rotate(-45)"/><circle class="cls-2" cx="154.57" cy="15.54" r="1.58" transform="translate(34.29 113.85) rotate(-45)"/><path class="cls-2" d="M11.65,49.55l-3.2,8.92-.2-.81h0c.73.61,1.5,1.23,2.27,1.75a5.43,5.43,0,0,0,.55.33c.27.1-.06.05.25,0s.91-.22,1.38-.35c1.88-.52,3.76-1.09,5.63-1.67l.81-.25.1.84,1.67,14.35-.55-.61,3.46.77h-.23l9.63-1,.63-.06.14.62.63,2.84,0,.18-.06.18c-.42,1.37-.83,2.76-1.22,4.14l-.55,2.08c-.17.69-.33,1.39-.42,2l-.13.33a.45.45,0,0,0,.08-.31.36.36,0,0,0-.06-.18.94.94,0,0,0,.13.1,4.85,4.85,0,0,0,.62.32c.46.21,1,.4,1.46.59s1,.4,1.54.66a3.9,3.9,0,0,1,.83.54,1.34,1.34,0,0,1,.44.7,1,1,0,0,1-.06.62,1.26,1.26,0,0,1-.27.39l-.11-1.09a6.8,6.8,0,0,0,3.17,1,21.34,21.34,0,0,0,3.58-.08c2.47-.22,4.95-.36,7.41-.55l1.12-.08-.41,1L47.29,99.34l-.15-.74,4.71,5-.56-.22,5-.32c.83-.06,1.68-.09,2.47-.18a20.58,20.58,0,0,0,2.38-.41H61.1a11.67,11.67,0,0,0,1.59-.66,17.18,17.18,0,0,0,1.53-.86l.78,1.19a18.46,18.46,0,0,1-1.67.94,13,13,0,0,1-1.8.75h-.05a22.56,22.56,0,0,1-3.34.51l.66-.72.05,2v.07a15.93,15.93,0,0,0,.77,5.39,44.78,44.78,0,0,1,1.46,5.61h0l-.74-.61,10.27,0v.21l-10.2,1.18-.62.07-.13-.68h0a44.11,44.11,0,0,0-1.42-5.43,17.3,17.3,0,0,1-.82-5.86v.07l-.05-2.06,0-.66.68-.05a21.24,21.24,0,0,0,3.11-.48H61.1a11.67,11.67,0,0,0,1.59-.66,17.18,17.18,0,0,0,1.53-.86l.78,1.19a18.46,18.46,0,0,1-1.67.94,13,13,0,0,1-1.8.75h-.05a22,22,0,0,1-2.55.44c-.87.1-1.7.12-2.53.19l-5,.32-.33,0-.23-.24-4.71-5-.31-.33.16-.42,4.48-11.45.71,1c-2.47.18-4.93.33-7.39.54a22.64,22.64,0,0,1-3.83.08,8.21,8.21,0,0,1-3.83-1.24L36,87.65v-1a.18.18,0,0,0,0,.07.39.39,0,0,0,0,.22c0,.13,0,.09,0,0a2.68,2.68,0,0,0-.52-.33C35,86.43,34.5,86.23,34,86s-1-.39-1.52-.62a6.1,6.1,0,0,1-.81-.43,2,2,0,0,1-.48-.42A1.06,1.06,0,0,1,31,84a1,1,0,0,1,.19-.69l-.13.33a22.19,22.19,0,0,1,.45-2.2L32,79.36c.39-1.4.8-2.79,1.23-4.18l0,.36-.63-2.84.76.55-9.63,1h-.11l-.11,0-3.46-.77-.49-.11-.06-.5L17.85,58.5l.91.59c-1.89.58-3.77,1.15-5.68,1.68-.48.13-.95.26-1.48.37a2,2,0,0,1-.59.06,1.79,1.79,0,0,1-.58-.19,6.69,6.69,0,0,1-.71-.42,30.25,30.25,0,0,1-2.4-1.85h0l-.4-.36.2-.44L11,49.29Z"/><path class="cls-3" d="M16.1,59.6c-1-5.71,4.58-11.25,10.12-9.27,4.35,1.58,6.33,8.71,11.87,6.73C32.15,60.62,25,68.93,18,63.55A8.48,8.48,0,0,1,16.1,59.6Z"/><path class="cls-3" d="M10.58,66.5C13.16,61.8,12,52.7,5.24,53.89-.7,54.68-2.28,61.8-.59,66.75a20.13,20.13,0,0,0,.83,2.36,24.47,24.47,0,0,0,1.1,2.27,17.36,17.36,0,0,0,1.4,2.15,16.2,16.2,0,0,0,3.77,3.56,9.52,9.52,0,0,0,3.93,1.29,45.19,45.19,0,0,1-.53-4.51,30.41,30.41,0,0,1,0-3.93A10.37,10.37,0,0,1,10.58,66.5Z"/><path class="cls-3" d="M25.26,76.52a6.7,6.7,0,0,0-2.61-7.59,6.77,6.77,0,0,0-6.73-.4C11.18,71.7,11.18,77.24,12.76,82A14.1,14.1,0,0,0,23.84,92.28c.4-4.35-.79-8.71.68-13A13.86,13.86,0,0,1,25.26,76.52Z"/><path class="cls-3" d="M10.84,50.3c7.46,2.41,3.9-7.89,8.25-10.66-2.37-1.19-5.15,0-7.12,1.58S9.59,45.58,10.14,48A20.89,20.89,0,0,0,10.84,50.3Z"/><path class="cls-3" d="M36.58,67.86a22.13,22.13,0,0,0-3.07,2.24A4.28,4.28,0,0,0,32,73.35a7.21,7.21,0,0,0,.84,2.73,10.65,10.65,0,0,0,1.64,2.28C37.63,80.74,41.79,81,46,80.13A30.68,30.68,0,0,0,50.09,79c2.55-.5,4.79-1.92,7.42-3.39-6.19-2.15-10.81-8.44-18-8.61A9.26,9.26,0,0,0,36.58,67.86Z"/><path class="cls-3" d="M39.66,90.63c0-3.1,0-7.45-3.15-9.43a5.51,5.51,0,0,0-5.54.4c-7.52,7.12.79,16.23,4.35,23C37.3,101,37.7,97,39.08,93,39.41,91.8,39.66,90.63,39.66,90.63Z"/><path class="cls-3" d="M52.13,103.84c.07-2.39.54-5.63-2-7a5.31,5.31,0,0,0-5.82,1.39c-5.77,5.77,1,13.43,5.13,19,1.25-3.31,2.5-6.62,2.6-10.73C52.1,105.14,52.13,103.84,52.13,103.84Z"/><path class="cls-3" d="M50.66,83.7c-2.84,2.89-2.2,8.33,1.55,9.93,6.23,2.54,10.86-2.71,16.85-2.53-3.36-5.62-11.49-11.15-18.39-7.41"/><path class="cls-3" d="M69,96.34c-4.81-.9-10.35,3.85-7.58,8.6,5.15,7.92,13.06.4,19.79-.4-3.17-4-6.73-7.92-12.21-8.21C68.32,96.27,69.71,96.48,69,96.34Z"/><path class="cls-3" d="M62.06,110.45c-3.58-2.09-7.67.72-8.13,3.95-.85,7.25,6.29,10.89,9.3,16.95a19.72,19.72,0,0,0,.27-19.63,2.94,2.94,0,0,0-1.44-1.27Z"/><path class="cls-3" d="M76.61,113.7c-1.56-1.51-3.89-2.08-5.35-.34-1.1,1.31-1.75,2.79-.82,4.07s1.92,2.7,4.25,1.55,2.48-3.28,3.92-4.12C78.61,114.86,78.17,115.21,76.61,113.7Z"/><path class="cls-4" d="M-24.7,74.68a5.87,5.87,0,0,1-8.31,0,5.87,5.87,0,0,1,0-8.31"/><path class="cls-4" d="M-24.7,74.68a5.87,5.87,0,0,1,8.31,0,5.87,5.87,0,0,1,0,8.31"/><path class="cls-4" d="M-8.09,91.3a5.87,5.87,0,0,1-8.31,0,5.87,5.87,0,0,1,0-8.31"/><path class="cls-4" d="M-8.09,91.3a5.87,5.87,0,0,1,8.31,0,5.87,5.87,0,0,1,0,8.31"/><path class="cls-4" d="M8.53,107.91A5.87,5.87,0,1,1,.22,99.6"/><path class="cls-4" d="M16.48,24.37a5.87,5.87,0,0,1-8.31,8.31"/><path class="cls-4" d="M-.14,41a5.87,5.87,0,0,1,8.31-8.31"/><path class="cls-4" d="M-.14,41a5.87,5.87,0,0,1,0,8.31,5.87,5.87,0,0,1-8.31,0"/><path class="cls-4" d="M-16.75,57.6a5.87,5.87,0,0,1,0-8.31,5.87,5.87,0,0,1,8.31,0"/><path class="cls-4" d="M-16.75,57.6a5.87,5.87,0,0,1,0,8.31,5.87,5.87,0,0,1-8.31,0"/><path class="cls-4" d="M-33.36,74.21a5.87,5.87,0,0,1,0-8.31,5.87,5.87,0,0,1,8.31,0"/><path class="cls-4" d="M17,24.83a5.87,5.87,0,0,1,8.31-8.31"/><path class="cls-4" d="M8.53,107.91a5.87,5.87,0,0,1,8.31,8.31"/><path class="cls-4" d="M108,99.88a5.87,5.87,0,0,1-8.31,8.31"/><path class="cls-4" d="M91.35,116.49a5.87,5.87,0,0,1,8.31-8.31"/><path class="cls-4" d="M91.35,116.49A5.87,5.87,0,0,1,83,124.8"/><path class="cls-4" d="M74.73,133.1A5.87,5.87,0,1,1,83,124.8"/><path class="cls-4" d="M74.73,133.1a5.87,5.87,0,1,1-8.31,8.31"/><path class="cls-4" d="M58.12,149.72a5.87,5.87,0,0,1,8.31-8.31"/><path class="cls-4" d="M58.12,149.72a5.87,5.87,0,0,1,0,8.31"/><path class="cls-4" d="M25.14,124.52a5.87,5.87,0,1,1-8.31-8.31"/><path class="cls-4" d="M25.14,124.52a5.87,5.87,0,0,1,8.31,8.31"/><path class="cls-4" d="M41.76,141.14a5.87,5.87,0,0,1-8.31-8.31"/><path class="cls-4" d="M41.76,141.14a5.87,5.87,0,0,1,8.31,8.31"/><path class="cls-4" d="M58.37,157.75a5.87,5.87,0,0,1-8.31-8.31"/><path class="cls-4" d="M49.91,50.08a5.87,5.87,0,0,1,8.31,8.31"/><path class="cls-4" d="M66.52,66.69a5.87,5.87,0,0,1-8.31-8.31"/><path class="cls-4" d="M66.52,66.69A5.87,5.87,0,0,1,74.83,75"/><path class="cls-4" d="M83.13,83.3A5.87,5.87,0,0,1,74.83,75"/><path class="cls-4" d="M83.13,83.3a5.87,5.87,0,0,1,8.31,8.31"/><path class="cls-4" d="M99.75,99.92a5.87,5.87,0,0,1-8.31-8.31"/><path class="cls-4" d="M99.75,99.92a5.87,5.87,0,0,1,8.31,0"/><path class="cls-4" d="M50.19,49.79a5.87,5.87,0,0,1-8.31-8.31"/><path class="cls-4" d="M33.58,33.18a5.87,5.87,0,0,1,8.31,8.31"/><path class="cls-4" d="M33.58,33.18a5.87,5.87,0,0,1-8.31-8.31"/><path class="cls-4" d="M25.27,16.57a5.87,5.87,0,0,1,0,8.31"/><circle class="cls-2" cx="-7.19" cy="70.82" r="1.58" transform="translate(-52.19 15.66) rotate(-45)"/><circle class="cls-2" cx="-3.31" cy="74.71" r="1.58" transform="translate(-53.79 19.54) rotate(-45)"/><circle class="cls-2" cx="0.58" cy="78.59" r="1.58" transform="translate(-55.4 23.43) rotate(-45)"/><circle class="cls-2" cx="4.46" cy="82.47" r="1.58" transform="translate(-57.01 27.31) rotate(-45)"/><circle class="cls-2" cx="8.34" cy="86.36" r="1.58" transform="translate(-58.62 31.19) rotate(-45)"/><circle class="cls-2" cx="12.23" cy="90.24" r="1.58" transform="translate(-60.23 35.08) rotate(-45)"/><circle class="cls-2" cx="16.11" cy="94.12" r="1.58" transform="translate(-61.84 38.96) rotate(-45)"/><circle class="cls-2" cx="19.99" cy="98.01" r="1.58" transform="translate(-63.45 42.84) rotate(-45)"/><circle class="cls-2" cx="23.88" cy="101.89" r="1.58" transform="translate(-65.05 46.73) rotate(-45)"/><circle class="cls-2" cx="27.76" cy="105.77" r="1.58" transform="translate(-66.66 50.61) rotate(-45)"/><circle class="cls-2" cx="31.64" cy="109.66" r="1.58" transform="translate(-68.27 54.49) rotate(-45)"/><circle class="cls-2" cx="35.53" cy="113.54" r="1.58" transform="translate(-69.88 58.38) rotate(-45)"/><circle class="cls-2" cx="39.41" cy="117.42" r="1.58" transform="translate(-71.49 62.26) rotate(-45)"/><circle class="cls-2" cx="43.29" cy="121.31" r="1.58" transform="translate(-73.1 66.14) rotate(-45)"/><circle class="cls-2" cx="47.18" cy="125.19" r="1.58" transform="translate(-74.7 70.03) rotate(-45)"/><circle class="cls-2" cx="51.06" cy="129.07" r="1.58" transform="translate(-76.31 73.91) rotate(-45)"/><path class="cls-3" d="M-13.94,4.54c-2.09,3.58.72,7.67,3.95,8.13C-2.74,13.52.9,6.38,7,3.37A19.72,19.72,0,0,0-12.67,3.1a2.94,2.94,0,0,0-1.27,1.44Z"/><path class="cls-4" d="M8.71-8.14a5.87,5.87,0,0,1,8.31,0A5.87,5.87,0,0,1,17,.17"/><path class="cls-4" d="M25.33,8.48A5.87,5.87,0,0,1,17,.17"/><path class="cls-4" d="M25.33,8.48a5.87,5.87,0,0,1,8.31,0"/><path class="cls-4" d="M.14,41.46a5.87,5.87,0,0,1,0,8.31,5.87,5.87,0,0,1-8.31,0"/><path class="cls-4" d="M.14,41.46a5.87,5.87,0,0,1,8.31-8.31"/><path class="cls-4" d="M16.75,24.84a5.87,5.87,0,1,1-8.31,8.31"/><path class="cls-4" d="M16.75,24.84a5.87,5.87,0,0,1,8.31-8.31"/><path class="cls-4" d="M33.36,8.23a5.87,5.87,0,1,1-8.31,8.31"/><circle class="cls-2" cx="0.8" cy="19.42" r="1.58" transform="translate(-13.5 6.25) rotate(-45)"/><circle class="cls-2" cx="4.68" cy="15.54" r="1.58" transform="translate(-9.62 7.86) rotate(-45)"/><path class="cls-2" d="M11.65-66.84l-3.2,8.92-.2-.81h0c.73.61,1.5,1.23,2.27,1.75a5.43,5.43,0,0,0,.55.33c.27.1-.06.05.25,0s.91-.22,1.38-.35c1.88-.52,3.76-1.09,5.63-1.67l.81-.25.1.84L20.93-43.7l-.55-.61,3.46.77h-.23l9.63-1,.63-.06L34-44l.63,2.84,0,.18-.06.18c-.42,1.37-.83,2.76-1.22,4.14l-.55,2.08c-.17.69-.33,1.39-.42,2l-.13.33a.45.45,0,0,0,.08-.31.36.36,0,0,0-.06-.18.94.94,0,0,0,.13.1,4.85,4.85,0,0,0,.62.32c.46.21,1,.4,1.46.59s1,.4,1.54.66a3.9,3.9,0,0,1,.83.54,1.34,1.34,0,0,1,.44.7,1,1,0,0,1-.06.62,1.26,1.26,0,0,1-.27.39l-.11-1.09a6.8,6.8,0,0,0,3.17,1,21.34,21.34,0,0,0,3.58-.08c2.47-.22,4.95-.36,7.41-.55l1.12-.08-.41,1L47.29-17l-.15-.74,4.71,5L51.3-13l5-.32c.83-.06,1.68-.09,2.47-.18a20.58,20.58,0,0,0,2.38-.41H61.1a11.67,11.67,0,0,0,1.59-.66,17.18,17.18,0,0,0,1.53-.86L65-14.26a18.46,18.46,0,0,1-1.67.94,13,13,0,0,1-1.8.75h-.05a22.56,22.56,0,0,1-3.34.51l.66-.72.05,2v.07a15.93,15.93,0,0,0,.77,5.39A44.78,44.78,0,0,1,61.07.34h0l-.74-.61,10.27,0V0L60.41,1.15l-.62.07L59.67.55h0a44.11,44.11,0,0,0-1.42-5.43,17.3,17.3,0,0,1-.82-5.86v.07l-.05-2.06,0-.66.68-.05a21.24,21.24,0,0,0,3.11-.48H61.1a11.67,11.67,0,0,0,1.59-.66,17.18,17.18,0,0,0,1.53-.86L65-14.26a18.46,18.46,0,0,1-1.67.94,13,13,0,0,1-1.8.75h-.05a22,22,0,0,1-2.55.44c-.87.1-1.7.12-2.53.19l-5,.32-.33,0-.23-.24-4.71-5-.31-.33.16-.42L50.45-29l.71,1c-2.47.18-4.93.33-7.39.54a22.64,22.64,0,0,1-3.83.08,8.21,8.21,0,0,1-3.83-1.24L36-28.74v-1a.18.18,0,0,0,0,.07.39.39,0,0,0,0,.22c0,.13,0,.09,0,0a2.68,2.68,0,0,0-.52-.33C35-30,34.5-30.16,34-30.35s-1-.39-1.52-.62a6.1,6.1,0,0,1-.81-.43,2,2,0,0,1-.48-.42,1.06,1.06,0,0,1-.23-.54,1,1,0,0,1,.19-.69l-.13.33a22.19,22.19,0,0,1,.45-2.2L32-37c.39-1.4.8-2.79,1.23-4.18l0,.36-.63-2.84.76.55-9.63,1h-.11l-.11,0-3.46-.77L19.58-43l-.06-.5L17.85-57.89l.91.59c-1.89.58-3.77,1.15-5.68,1.68-.48.13-.95.26-1.48.37a2,2,0,0,1-.59.06,1.79,1.79,0,0,1-.58-.19,6.69,6.69,0,0,1-.71-.42,30.25,30.25,0,0,1-2.4-1.85h0L6.93-58l.2-.44L11-67.09Z"/><path class="cls-3" d="M52.13-12.55c.07-2.39.54-5.63-2-7a5.31,5.31,0,0,0-5.82,1.39c-5.77,5.77,1,13.43,5.13,19C50.7-2.45,52-5.76,52-9.87,52.1-11.25,52.13-12.55,52.13-12.55Z"/><path class="cls-3" d="M62.06-5.94C58.48-8,54.39-5.22,53.93-2,53.08,5.26,60.22,8.9,63.23,15A19.72,19.72,0,0,0,63.5-4.67a2.94,2.94,0,0,0-1.44-1.27Z"/><path class="cls-3" d="M76.61-2.69C75-4.2,72.72-4.77,71.26-3,70.16-1.72,69.51-.23,70.44,1s1.92,2.7,4.25,1.55S77.17-.7,78.61-1.53C78.61-1.53,78.17-1.18,76.61-2.69Z"/><path class="cls-4" d="M8.53-8.48a5.87,5.87,0,0,1,8.31,0,5.87,5.87,0,0,1,0,8.31"/><path class="cls-4" d="M91.35.1a5.87,5.87,0,0,1,0-8.31,5.87,5.87,0,0,1,8.31,0"/><path class="cls-4" d="M91.35.1A5.87,5.87,0,1,1,83,8.41"/><path class="cls-4" d="M74.73,16.71A5.87,5.87,0,1,1,83,8.41"/><path class="cls-4" d="M74.73,16.71A5.87,5.87,0,0,1,66.43,25"/><path class="cls-4" d="M58.12,33.33A5.87,5.87,0,1,1,66.43,25"/><path class="cls-4" d="M58.12,33.33a5.87,5.87,0,0,1,0,8.31"/><path class="cls-4" d="M25.14,8.14A5.87,5.87,0,0,1,16.84-.17"/><path class="cls-4" d="M25.14,8.14a5.87,5.87,0,0,1,8.31,8.31"/><path class="cls-4" d="M41.76,24.75a5.87,5.87,0,0,1-8.31-8.31"/><path class="cls-4" d="M41.76,24.75a5.87,5.87,0,1,1,8.31,8.31"/><path class="cls-4" d="M58.37,41.36a5.87,5.87,0,1,1-8.31-8.31"/><circle class="cls-2" cx="39.41" cy="1.03" r="1.58" transform="translate(10.81 28.17) rotate(-45)"/><circle class="cls-2" cx="43.29" cy="4.92" r="1.58" transform="translate(9.2 32.05) rotate(-45)"/><circle class="cls-2" cx="47.18" cy="8.8" r="1.58" transform="translate(7.59 35.94) rotate(-45)"/><circle class="cls-2" cx="51.06" cy="12.68" r="1.58" transform="translate(5.99 39.82) rotate(-45)"/></pattern></defs><title>amarkut-aralik-sayi-4</title><rect class="cls-5" width="595.28" height="841.21"/><rect class="cls-2" x="211.72" y="783.69" width="171.83" height="30.13"/><rect class="cls-3" x="129.3" y="24.19" width="336.67" height="109.63"/><path class="cls-2" d="M146.5,38.27l15.31,47.87,15.31-47.87h9.51V96.95h-7.37V74.1l.69-22.89L164.59,96.95h-5.64L143.67,51.37l.69,22.73V96.95H137V38.27Z"/><path class="cls-2" d="M235.67,81.59H215.84l-4.55,15.35h-7.58l18.9-58.68h6.33l18.94,58.68H240.3Zm-17.89-6.33h16l-8-26.68Z"/><path class="cls-2" d="M281.84,73.21H271.53V96.95h-7.42V38.27h16.44q8.62,0,13.06,4.49T298,55.92a18.29,18.29,0,0,1-2.4,9.49,15.15,15.15,0,0,1-6.79,6.11l11.36,24.95v.48h-7.94Zm-10.32-6.33h8.95a9.58,9.58,0,0,0,7.39-3,11.32,11.32,0,0,0,2.76-8q0-11.3-10.24-11.3h-8.87Z"/><path class="cls-2" d="M329.31,69.91l-5.76,7V96.95h-7.37V38.27h7.38V66.6l4.83-6.41,15.8-21.92H353L334,64.1l20.55,32.84h-8.83Z"/><path class="cls-2" d="M404.38,38.27V80q-.08,8.34-4.84,13.06t-13.26,4.72q-8.7,0-13.3-4.61T368.31,80V38.27h7.33v41.4q0,5.92,2.52,8.84t8.12,2.92q5.64,0,8.16-2.92T397,79.67V38.27Z"/><path class="cls-2" d="M458.29,44.6H442.85V96.95h-7.37V44.6H420.09V38.27h38.2Z"/><path class="cls-2" d="M170.47,118.41h-5.7v5.71h6.64v1.74h-8.67V109.74h8.56v1.74h-6.53v5.19h5.7Z"/><path class="cls-2" d="M176.71,113.88l.06,1.3a3.5,3.5,0,0,1,2.91-1.52q3.18,0,3.22,4.24v8h-1.95V118a3.27,3.27,0,0,0-.47-2,1.69,1.69,0,0,0-1.41-.59,2,2,0,0,0-1.31.49,3.51,3.51,0,0,0-.94,1.27v8.7h-2v-12Z"/><path class="cls-2" d="M186.55,119.33a7.22,7.22,0,0,1,1-4.22,3.43,3.43,0,0,1,3-1.45,3.08,3.08,0,0,1,2.68,1.4v-6.2h2v17h-1.79l-.1-1.28a3.08,3.08,0,0,1-2.76,1.51,3.42,3.42,0,0,1-2.92-1.45,6.92,6.92,0,0,1-1.08-4.08Zm2,1.11a5.68,5.68,0,0,0,.6,3,2.13,2.13,0,0,0,1.95.95,2.32,2.32,0,0,0,2.18-1.47v-6a2.36,2.36,0,0,0-2.17-1.44,2.13,2.13,0,0,0-1.95.95,5.6,5.6,0,0,0-.61,2.9Z"/><path class="cls-2" d="M205.46,124.81a3.36,3.36,0,0,1-2.85,1.27,2.86,2.86,0,0,1-2.46-1.12,5.5,5.5,0,0,1-.84-3.27v-7.81h1.95v7.66q0,2.8,1.68,2.8a2.46,2.46,0,0,0,2.46-1.59v-8.87h2v12H205.5Zm-5.67-14.13a1.21,1.21,0,0,1,.3-.84,1.15,1.15,0,0,1,.9-.34,1.17,1.17,0,0,1,.91.34,1.2,1.2,0,0,1,.31.84,1.11,1.11,0,0,1-1.22,1.17,1.16,1.16,0,0,1-.9-.33A1.19,1.19,0,0,1,199.79,110.67Zm4.76,0a1.23,1.23,0,0,1,.3-.85,1.14,1.14,0,0,1,.9-.34,1.16,1.16,0,0,1,.91.34,1.22,1.22,0,0,1,.31.85,1.11,1.11,0,0,1-1.22,1.17,1.16,1.16,0,0,1-.9-.33A1.19,1.19,0,0,1,204.55,110.69Z"/><path class="cls-2" d="M217.27,122.79a1.45,1.45,0,0,0-.48-1.08,7,7,0,0,0-1.84-1.06,12,12,0,0,1-2.23-1.12,3.17,3.17,0,0,1-1-1.06,2.92,2.92,0,0,1-.32-1.41,3.14,3.14,0,0,1,1.07-2.43,4.36,4.36,0,0,1,5.54,0,3.46,3.46,0,0,1,1.06,2.61h-1.95a1.93,1.93,0,0,0-.54-1.38,1.83,1.83,0,0,0-1.38-.57,2,2,0,0,0-1.36.45,1.54,1.54,0,0,0-.49,1.2,1.31,1.31,0,0,0,.36,1,6.42,6.42,0,0,0,1.73,1,8.72,8.72,0,0,1,3,1.67,2.86,2.86,0,0,1,.79,2.07,3.15,3.15,0,0,1-1.07,2.5,4.22,4.22,0,0,1-2.88.94,4.3,4.3,0,0,1-3-1.07,3.55,3.55,0,0,1-1.16-2.72h2a2,2,0,0,0,2.23,2.13,2.22,2.22,0,0,0,1.48-.44A1.48,1.48,0,0,0,217.27,122.79Z"/><path class="cls-2" d="M225.48,111v2.9h1.8v1.58h-1.8v7.44a2,2,0,0,0,.23,1.08.87.87,0,0,0,.8.37,2.47,2.47,0,0,0,.79-.13l0,1.65a4.31,4.31,0,0,1-1.36.22,2.06,2.06,0,0,1-1.77-.83,3.91,3.91,0,0,1-.61-2.35v-7.44H221.7v-1.58h1.83V111Z"/><path class="cls-2" d="M235.69,115.72a4.75,4.75,0,0,0-.89-.08,2.15,2.15,0,0,0-2.1,1.65v8.57h-2v-12h1.91l0,1.22a2.44,2.44,0,0,1,2.23-1.44,1.73,1.73,0,0,1,.78.15Z"/><path class="cls-2" d="M241,110.7a1.25,1.25,0,0,1-.28.83,1.22,1.22,0,0,1-1.67,0,1.26,1.26,0,0,1-.28-.83,1.3,1.3,0,0,1,.28-.84,1.18,1.18,0,0,1,1.67,0A1.29,1.29,0,0,1,241,110.7Zm-.15,15.16h-2v-12h2Z"/><path class="cls-2" d="M248.38,122.6l2.18-8.73h2.08l-3.92,13.68a5.3,5.3,0,0,1-1.25,2.34,2.54,2.54,0,0,1-1.84.8,3.87,3.87,0,0,1-1-.18v-1.66l.43,0a2,2,0,0,0,1.33-.4,2.88,2.88,0,0,0,.78-1.4l.39-1.34L244,113.88h2.14Z"/><path class="cls-2" d="M259.82,126.08a4.37,4.37,0,0,1-3.43-1.33,5.76,5.76,0,0,1-1.22-3.91v-1.45a6.75,6.75,0,0,1,1.17-4.2,3.88,3.88,0,0,1,3.26-1.52,3.74,3.74,0,0,1,3.14,1.34,6.89,6.89,0,0,1,1.06,4.17v1.28h-6.69v.28a4.37,4.37,0,0,0,.72,2.8,2.56,2.56,0,0,0,2.09.87,3.38,3.38,0,0,0,1.52-.33,3.77,3.77,0,0,0,1.24-1l1,1.24A4.45,4.45,0,0,1,259.82,126.08Zm-.22-10.74a2.05,2.05,0,0,0-1.8.84,5,5,0,0,0-.67,2.6h4.72v-.27a4.59,4.59,0,0,0-.61-2.44A1.89,1.89,0,0,0,259.6,115.34Z"/><path class="cls-2" d="M269.4,125.86h-2v-17h2Z"/><path class="cls-2" d="M289.2,111.47H285v14.38h-2V111.47H278.7v-1.74h10.5Z"/><path class="cls-2" d="M297.35,125.86a4.31,4.31,0,0,1-.25-1.31,3.11,3.11,0,0,1-2.66,1.53,3.44,3.44,0,0,1-2.54-.91,3.48,3.48,0,0,1-.91-2.57,3.64,3.64,0,0,1,1.24-2.9,5.11,5.11,0,0,1,3.4-1.1h1.44v-1.27a1.68,1.68,0,0,0-1.93-2,2,2,0,0,0-1.44.53,1.76,1.76,0,0,0-.55,1.33h-2a3.18,3.18,0,0,1,.54-1.75,3.78,3.78,0,0,1,1.46-1.31,4.39,4.39,0,0,1,2-.48,3.9,3.9,0,0,1,2.8.91,3.57,3.57,0,0,1,1,2.66v6a7.29,7.29,0,0,0,.38,2.4v.18Zm-2.61-1.56a2.6,2.6,0,0,0,1.37-.4,2.46,2.46,0,0,0,1-1V120H296a3.71,3.71,0,0,0-2.2.63,2,2,0,0,0-.81,1.69,2.19,2.19,0,0,0,.41,1.48A1.78,1.78,0,0,0,294.74,124.3Z"/><path class="cls-2" d="M309,122.79a1.45,1.45,0,0,0-.48-1.08,7,7,0,0,0-1.84-1.06,12,12,0,0,1-2.23-1.12,3.19,3.19,0,0,1-1-1.06,2.92,2.92,0,0,1-.32-1.41,3.14,3.14,0,0,1,1.07-2.43,4.36,4.36,0,0,1,5.54,0,3.46,3.46,0,0,1,1.06,2.61H308.9a1.93,1.93,0,0,0-.54-1.38,1.83,1.83,0,0,0-1.38-.57,1.94,1.94,0,0,0-1.36.45,1.54,1.54,0,0,0-.49,1.2,1.31,1.31,0,0,0,.36,1,6.38,6.38,0,0,0,1.73,1,8.7,8.7,0,0,1,3,1.67,2.85,2.85,0,0,1,.79,2.07,3.15,3.15,0,0,1-1.07,2.5,4.22,4.22,0,0,1-2.88.94,4.3,4.3,0,0,1-3-1.07,3.55,3.55,0,0,1-1.16-2.72h2A2.35,2.35,0,0,0,308.5,124,1.48,1.48,0,0,0,309,122.79Z"/><path class="cls-2" d="M320.81,125.86a4.31,4.31,0,0,1-.25-1.31,3.11,3.11,0,0,1-2.66,1.53,3.44,3.44,0,0,1-2.54-.91,3.48,3.48,0,0,1-.91-2.57,3.64,3.64,0,0,1,1.24-2.9,5.11,5.11,0,0,1,3.4-1.1h1.44v-1.27a1.68,1.68,0,0,0-1.93-2,2,2,0,0,0-1.44.53,1.76,1.76,0,0,0-.55,1.33h-2a3.18,3.18,0,0,1,.54-1.75,3.78,3.78,0,0,1,1.46-1.31,4.39,4.39,0,0,1,2-.48,3.9,3.9,0,0,1,2.8.91,3.57,3.57,0,0,1,1,2.66v6a7.29,7.29,0,0,0,.38,2.4v.18Zm-2.61-1.56a2.6,2.6,0,0,0,1.37-.4,2.46,2.46,0,0,0,1-1V120h-1.11a3.71,3.71,0,0,0-2.2.63,2,2,0,0,0-.81,1.69,2.19,2.19,0,0,0,.41,1.48A1.78,1.78,0,0,0,318.2,124.3Z"/><path class="cls-2" d="M331.59,115.72a4.75,4.75,0,0,0-.89-.08,2.15,2.15,0,0,0-2.1,1.65v8.57h-2v-12h1.91l0,1.22a2.44,2.44,0,0,1,2.23-1.44,1.73,1.73,0,0,1,.78.15Z"/><path class="cls-2" d="M336.79,125.86h-2v-12h2Z"/><path class="cls-2" d="M343,113.88l0,1.11a3.56,3.56,0,0,1,2.89-1.33,2.83,2.83,0,0,1,2.8,1.74,3.55,3.55,0,0,1,3.14-1.74q3.31,0,3.39,4.13v8.07H353.3V118a3.3,3.3,0,0,0-.46-1.94,1.82,1.82,0,0,0-1.57-.64,1.76,1.76,0,0,0-1.44.69,3.13,3.13,0,0,0-.64,1.75v8h-2v-8q0-2.49-2-2.49a2.13,2.13,0,0,0-2.09,1.48v9h-1.95v-12Z"/><path class="cls-2" d="M365.94,125.86V109.74h3.84a5.55,5.55,0,0,1,4.38,1.77,7.25,7.25,0,0,1,1.56,5v2.7a7.1,7.1,0,0,1-1.58,4.94,5.89,5.89,0,0,1-4.6,1.74Zm2-14.38v12.65h1.63a3.77,3.77,0,0,0,3.12-1.22,5.78,5.78,0,0,0,1-3.63v-2.86a5.84,5.84,0,0,0-1-3.74,3.61,3.61,0,0,0-3-1.19Z"/><path class="cls-2" d="M384,126.08a4.37,4.37,0,0,1-3.43-1.33,5.76,5.76,0,0,1-1.22-3.91v-1.45a6.75,6.75,0,0,1,1.17-4.2,3.88,3.88,0,0,1,3.26-1.52,3.74,3.74,0,0,1,3.14,1.34,6.89,6.89,0,0,1,1.06,4.17v1.28h-6.69v.28a4.37,4.37,0,0,0,.72,2.8,2.56,2.56,0,0,0,2.09.87,3.38,3.38,0,0,0,1.52-.33,3.77,3.77,0,0,0,1.24-1l1,1.24A4.45,4.45,0,0,1,384,126.08Zm-.22-10.74a2.05,2.05,0,0,0-1.8.84,5,5,0,0,0-.67,2.6h4.72v-.27a4.59,4.59,0,0,0-.61-2.44A1.89,1.89,0,0,0,383.8,115.34Z"/><path class="cls-2" d="M396.44,115.72a4.75,4.75,0,0,0-.89-.08,2.15,2.15,0,0,0-2.1,1.65v8.57h-2v-12h1.91l0,1.22a2.44,2.44,0,0,1,2.23-1.44,1.73,1.73,0,0,1,.78.15Z"/><path class="cls-2" d="M398.93,119.33a7.3,7.3,0,0,1,1-4.24,3.42,3.42,0,0,1,3-1.43,3.06,3.06,0,0,1,2.78,1.56l.1-1.34h1.77V126a4.74,4.74,0,0,1-1.14,3.42,4.19,4.19,0,0,1-3.18,1.19,5.45,5.45,0,0,1-2-.44,4.18,4.18,0,0,1-1.66-1.08l.8-1.35a3.77,3.77,0,0,0,2.69,1.2q2.45,0,2.51-2.67v-1.56a3.07,3.07,0,0,1-2.7,1.41,3.41,3.41,0,0,1-2.9-1.4,6.87,6.87,0,0,1-1.08-4Zm2,1.11a5.72,5.72,0,0,0,.59,3,2.12,2.12,0,0,0,1.94.95,2.34,2.34,0,0,0,2.19-1.49v-6a2.37,2.37,0,0,0-2.17-1.47,2.13,2.13,0,0,0-1.95.95,5.61,5.61,0,0,0-.61,2.9Z"/><path class="cls-2" d="M413.89,110.7a1.25,1.25,0,0,1-.28.83,1.22,1.22,0,0,1-1.67,0,1.26,1.26,0,0,1-.28-.83,1.3,1.3,0,0,1,.28-.84,1.18,1.18,0,0,1,1.67,0A1.29,1.29,0,0,1,413.89,110.7Zm-.15,15.16h-2v-12h2Z"/><path class="cls-2" d="M423.77,122.79a1.45,1.45,0,0,0-.48-1.08,7.06,7.06,0,0,0-1.84-1.06,12,12,0,0,1-2.23-1.12,3.18,3.18,0,0,1-1-1.06,2.93,2.93,0,0,1-.32-1.41,3.14,3.14,0,0,1,1.07-2.43,4.36,4.36,0,0,1,5.54,0,3.46,3.46,0,0,1,1.06,2.61h-1.95a1.93,1.93,0,0,0-.54-1.38,1.82,1.82,0,0,0-1.38-.57,2,2,0,0,0-1.36.45,1.54,1.54,0,0,0-.49,1.2,1.31,1.31,0,0,0,.36,1,6.41,6.41,0,0,0,1.73,1,8.71,8.71,0,0,1,3,1.67,2.86,2.86,0,0,1,.79,2.07,3.15,3.15,0,0,1-1.07,2.5,4.22,4.22,0,0,1-2.88.94,4.29,4.29,0,0,1-3-1.07,3.55,3.55,0,0,1-1.16-2.72h2a2,2,0,0,0,2.22,2.13,2.22,2.22,0,0,0,1.48-.44A1.48,1.48,0,0,0,423.77,122.79Z"/><path class="cls-2" d="M431.68,110.7a1.25,1.25,0,0,1-.28.83,1,1,0,0,1-.84.33,1,1,0,0,1-.83-.33,1.25,1.25,0,0,1-.28-.83,1.3,1.3,0,0,1,.28-.84,1.18,1.18,0,0,1,1.67,0A1.29,1.29,0,0,1,431.68,110.7Zm-.16,15.16h-2v-12h2Z"/><path class="cls-3" d="M231.19,809.69a5.76,5.76,0,0,1-.35-1.22,3.53,3.53,0,0,1-3,1.52,4.44,4.44,0,0,1-3.29-1.31,4.6,4.6,0,0,1-1.3-3.4,4.77,4.77,0,0,1,1.58-3.83,6.92,6.92,0,0,1,4.55-1.38h1.25v-1.27a2.37,2.37,0,0,0-.36-1.5,1.3,1.3,0,0,0-1.06-.44q-1.55,0-1.54,1.81h-4.12a4.57,4.57,0,0,1,1.64-3.61,6.1,6.1,0,0,1,4.15-1.42,5.6,5.6,0,0,1,4,1.35,5.06,5.06,0,0,1,1.42,3.86v7.42a7.76,7.76,0,0,0,.58,3.19v.25Zm-2.43-2.94a2.3,2.3,0,0,0,1.17-.28,2,2,0,0,0,.71-.66v-3.28h-1a2.11,2.11,0,0,0-1.65.67,2.57,2.57,0,0,0-.61,1.79Q227.39,806.74,228.76,806.74Z"/><path class="cls-3" d="M247,797.9l-1.37-.12a2.25,2.25,0,0,0-2.29,1.49v10.42h-4.14V793.92h3.89l.12,1.71a3,3,0,0,1,2.7-2,2.9,2.9,0,0,1,1.14.19Z"/><path class="cls-3" d="M257.68,809.69a5.76,5.76,0,0,1-.35-1.22,3.52,3.52,0,0,1-3,1.52,4.44,4.44,0,0,1-3.29-1.31,4.61,4.61,0,0,1-1.3-3.4,4.77,4.77,0,0,1,1.58-3.83,6.92,6.92,0,0,1,4.55-1.38h1.25v-1.27a2.38,2.38,0,0,0-.36-1.5,1.31,1.31,0,0,0-1.06-.44q-1.54,0-1.54,1.81H250a4.56,4.56,0,0,1,1.64-3.61,6.1,6.1,0,0,1,4.15-1.42,5.61,5.61,0,0,1,4,1.35,5.06,5.06,0,0,1,1.42,3.86v7.42a7.75,7.75,0,0,0,.58,3.19v.25Zm-2.43-2.94a2.3,2.3,0,0,0,1.17-.28,2,2,0,0,0,.71-.66v-3.28h-1a2.12,2.12,0,0,0-1.65.67,2.58,2.58,0,0,0-.6,1.79Q253.88,806.74,255.25,806.74Z"/><path class="cls-3" d="M270.06,809.69h-4.14V787.3h4.14Z"/><path class="cls-3" d="M279.18,809.69h-4.12V793.92h4.13Z"/><path class="cls-3" d="M289.3,803.61l-1.11,1.24v4.84h-4.12V787.3h4.13v12.1l.51-.76,2.86-4.72h4.91l-4.58,6.5,5,9.27h-4.72Z"/><path class="cls-3" d="M320.6,809.69H308.1v-2.92l5.74-7.3a16,16,0,0,0,1.61-2.66,5.32,5.32,0,0,0,.52-2.19,4.26,4.26,0,0,0-.49-2.22,1.56,1.56,0,0,0-1.41-.8,1.81,1.81,0,0,0-1.6.93,4.9,4.9,0,0,0-.59,2.62h-4.14a7.88,7.88,0,0,1,.81-3.57,6,6,0,0,1,2.27-2.51,6.22,6.22,0,0,1,3.32-.9,6,6,0,0,1,4.41,1.57,6,6,0,0,1,1.57,4.45,8.49,8.49,0,0,1-.87,3.64,22.33,22.33,0,0,1-3.14,4.54l-2.73,3.89h7.21Z"/><path class="cls-3" d="M337,800.91q0,4.4-1.6,6.73a5.63,5.63,0,0,1-9.08.07,11.47,11.47,0,0,1-1.65-6.49v-4a11.87,11.87,0,0,1,1.59-6.71,5.65,5.65,0,0,1,9.12,0,11.66,11.66,0,0,1,1.62,6.57Zm-4.14-4.3a10.81,10.81,0,0,0-.5-3.76,1.65,1.65,0,0,0-1.54-1.25q-2,0-2,4.59v5.29a10.88,10.88,0,0,0,.5,3.82,1.67,1.67,0,0,0,1.57,1.25,1.6,1.6,0,0,0,1.49-1.17,10.24,10.24,0,0,0,.52-3.59Z"/><path class="cls-3" d="M353.78,809.69h-12.5v-2.92l5.74-7.3a16,16,0,0,0,1.61-2.66,5.32,5.32,0,0,0,.52-2.19,4.26,4.26,0,0,0-.49-2.22,1.56,1.56,0,0,0-1.41-.8,1.81,1.81,0,0,0-1.6.93,4.9,4.9,0,0,0-.59,2.62h-4.14a7.88,7.88,0,0,1,.81-3.57,6,6,0,0,1,2.27-2.51,6.22,6.22,0,0,1,3.32-.9,6,6,0,0,1,4.41,1.57,6,6,0,0,1,1.57,4.45,8.49,8.49,0,0,1-.87,3.64,22.33,22.33,0,0,1-3.14,4.54l-2.73,3.89h7.21Z"/><path class="cls-3" d="M370.2,800.91q0,4.4-1.6,6.73a5.63,5.63,0,0,1-9.08.07,11.47,11.47,0,0,1-1.65-6.49v-4a11.87,11.87,0,0,1,1.59-6.71,5.65,5.65,0,0,1,9.12,0,11.66,11.66,0,0,1,1.62,6.57Zm-4.14-4.3a10.81,10.81,0,0,0-.5-3.76A1.65,1.65,0,0,0,364,791.6q-2,0-2,4.59v5.29a10.88,10.88,0,0,0,.5,3.82,1.67,1.67,0,0,0,1.57,1.25,1.6,1.6,0,0,0,1.49-1.17,10.24,10.24,0,0,0,.52-3.59Z"/><path class="cls-6" d="M309.5,582.33V625q-8.64.78-17.5.78a196.13,196.13,0,0,1-21.66-1.2c-97.07-10.77-172.56-93.08-172.56-193A194.29,194.29,0,0,1,227.52,248.33V477.87h11.26V582.33Z"/><path class="cls-7" d="M486.22,431.59c0,92.49-64.65,169.88-151.23,189.44a194.47,194.47,0,0,1-19.28,3.34q-3.09.38-6.21.66v-42.7H238.78V477.87H227.52V248.33q8.34-2.93,17-5.11c.93-.24,1.87-.47,2.81-.68q4.2-1,8.46-1.8A195.49,195.49,0,0,1,292,237.37C399.26,237.37,486.22,324.32,486.22,431.59Z"/><rect class="cls-2" x="292" y="301.74" width="58.46" height="58.46" transform="translate(642.46 661.95) rotate(-180)"/><rect class="cls-2" x="292" y="301.74" width="89.5" height="4.24" transform="translate(673.5 607.73) rotate(-180)"/><rect class="cls-2" x="292" y="344.27" width="2.51" height="52.34" transform="translate(586.51 740.88) rotate(-180)"/><path class="cls-2" d="M247.33,242.54V477.87H227.52V248.33q8.34-2.93,17-5.11C245.45,243,246.39,242.75,247.33,242.54Z"/><rect class="cls-2" x="235.81" y="473.72" width="39.31" height="4.15"/><rect class="cls-2" x="254.2" y="508.69" width="20.8" height="5.3" transform="translate(529.2 1022.67) rotate(-180)"/><rect class="cls-2" x="238.78" y="571.57" width="153.69" height="10.76"/><rect class="cls-2" x="238.78" y="476.46" width="17.1" height="105.77"/><rect class="cls-2" x="309.5" y="517.34" width="25.49" height="143.98"/></svg>