<?xml version="1.0" encoding="utf-8"?>
<!-- Generator: Adobe Illustrator 24.3.0, SVG Export Plug-In . SVG Version: 6.00 Build 0)  -->
<svg version="1.1" id="Layer_1" xmlns="http://www.w3.org/2000/svg" xmlns:xlink="http://www.w3.org/1999/xlink" x="0px" y="0px"
	 viewBox="0 0 51.2 81.7" style="enable-background:new 0 0 51.2 81.7;" xml:space="preserve">
<style type="text/css">
        #noel-markut{
       animation: noelmarkut 6s ease infinite;
     }
     @keyframes noelmarkut{
      0%{ transform: translateY(-30px) }
      50%{ transform: translateY(0px)  }
      100%{ transform: translateY(-30px) }
    }


	.st0{fill:#5D102F;}
	.st1{fill:#DB254D;}
	.st2{fill:#7F1336;}
	.st3{fill:#24132C;}
	.st4{fill:#F4B5A7;}
	.st5{fill:#E4164A;stroke:#E4164A;stroke-width:2.4354;stroke-miterlimit:10;}
	.st6{fill:#FCECF1;}
	.st7{fill:#E30137;}
	.st8{fill:#F6C0CF;}
	.st9{fill:#C49C13;}
	.st10{fill:#263683;}
	.st11{fill:#C6991A;}
	.st12{fill:#9C1A17;}
	.st13{fill:#C7C5C5;}
	.st14{fill:#2A327E;}
	.st15{fill:#EEEEEC;}
	.st16{fill:#254090;}
	.st17{fill:#020303;}
	.st18{fill:#E8EBF7;}
	.st19{fill:#F6C320;}
	.st20{fill:#5E3289;}
	.st21{fill:#BF181A;}
</style>
<g id="noel-markut">
	<polygon class="st0" points="47.3,48.3 46.1,48.3 46.1,47.1 44.8,47.1 44.8,45.8 43.6,45.8 42.3,45.8 42.3,47.1 41.1,47.1 
		41.1,48.3 41.1,49.6 42.3,49.6 42.3,50.8 43.6,50.8 43.6,52.1 44.8,52.1 44.8,50.8 46.1,50.8 47.3,50.8 48.6,50.8 48.6,49.6 
		48.6,48.3 	"/>
	<polygon class="st1" points="28.6,60.9 28.6,62.1 24.8,62.1 24.8,54.6 27.3,54.6 27.3,60.9 	"/>
	<rect x="18.5" y="49.6" class="st2" width="1.3" height="13.8"/>
	<rect x="13.5" y="47.1" class="st3" width="1.2" height="1.2"/>
	<rect x="12.3" y="47.1" class="st3" width="1.2" height="1.2"/>
	<rect x="9.8" y="47.1" class="st3" width="1.2" height="1.2"/>
	<polygon class="st4" points="17.3,47.1 17.3,49.6 14.8,49.6 14.8,50.8 13.5,50.8 13.5,49.6 11,49.6 11,50.8 9.8,50.8 9.8,48.3 
		11,48.3 11,47.1 9.8,47.1 9.8,45.8 14.8,45.8 14.8,47.1 12.3,47.1 12.3,48.3 14.8,48.3 14.8,47.1 	"/>
	<g>
		<polygon class="st5" points="26,45.8 26,54.7 24.8,54.7 24.8,64.7 22.3,64.7 22.3,48.4 19.8,48.4 19.8,47.1 22.3,47.1 22.3,43.3 
			24.8,43.3 24.8,45.8 		"/>
		<polygon class="st5" points="16,39.6 14.7,39.6 14.7,38.3 13.5,38.3 12.2,38.3 11,38.3 9.7,38.3 9.7,39.6 11,39.6 12.2,39.6 
			12.2,40.8 13.5,40.8 13.5,42.1 13.5,43.3 14.7,43.3 16,43.3 17.2,43.3 17.2,42.1 17.2,40.8 16,40.8 		"/>
	</g>
	<rect x="8.5" y="47.1" class="st3" width="1.2" height="1.2"/>
	<polygon class="st6" points="42.3,50.8 42.3,49.6 41.1,49.6 41.1,48.3 39.8,48.3 39.8,49.6 39.8,50.8 41.1,50.8 41.1,52.1 
		42.3,52.1 42.3,53.3 43.6,53.3 43.6,52.1 43.6,50.8 	"/>
	<polygon class="st6" points="37.3,58.3 37.3,57.1 37.3,55.8 37.3,54.6 36.1,54.6 36.1,53.3 36.1,52.1 36.1,50.8 34.8,50.8 
		34.8,49.6 34.8,48.3 34.8,47.1 33.6,47.1 33.6,45.8 33.6,44.6 33.6,43.3 32.3,43.3 32.3,42.1 31,42.1 29.8,42.1 29.8,43.3 31,43.3 
		31,44.6 31,45.8 32.3,45.8 32.3,47.1 32.3,48.3 32.3,49.6 33.6,49.6 33.6,50.8 33.6,52.1 33.6,53.3 34.8,53.3 34.8,54.6 34.8,55.8 
		34.8,57.1 34.8,58.3 36.1,58.3 36.1,59.6 36.1,60.9 36.1,62.1 37.3,62.1 38.6,62.1 38.6,60.9 38.6,59.6 37.3,59.6 	"/>
	<polygon class="st6" points="24.8,64.6 23.5,64.6 22.3,64.6 21,64.6 19.8,64.6 18.5,64.6 18.5,63.3 17.3,63.3 16,63.3 14.8,63.3 
		13.5,63.3 13.5,64.6 12.3,64.6 12.3,65.8 13.5,65.8 14.8,65.8 16,65.8 17.3,65.8 18.5,65.8 18.5,67.1 19.8,67.1 21,67.1 22.3,67.1 
		23.5,67.1 24.8,67.1 26,67.1 26,65.8 24.8,65.8 	"/>
	<polygon class="st6" points="13.5,55.8 14.8,55.8 14.8,54.6 16,54.6 16,53.3 16,52.1 16,50.8 16,49.6 14.8,49.6 14.8,50.8 
		13.5,50.8 13.5,49.6 12.3,49.6 11,49.6 11,50.8 9.8,50.8 9.8,49.6 8.5,49.6 7.3,49.6 7.3,50.8 7.3,52.1 7.3,53.3 7.3,54.6 
		7.3,55.8 8.5,55.8 9.8,55.8 11,55.8 12.3,55.8 	"/>
	<polygon class="st6" points="11,45.8 12.3,45.8 13.5,45.8 14.8,45.8 14.8,47.1 16,47.1 17.3,47.1 17.3,45.8 17.3,44.6 17.3,43.3 
		16,43.3 14.8,43.3 13.5,43.3 12.3,43.3 11,43.3 9.8,43.3 8.5,43.3 8.5,44.6 8.5,45.8 9.8,45.8 	"/>
	<g>
		<polygon class="st7" points="41.1,52.1 41.1,50.8 39.8,50.8 39.8,49.6 38.6,49.6 38.6,48.3 38.6,47.1 37.3,47.1 37.3,45.8 
			37.3,44.6 36.1,44.6 36.1,43.3 36.1,42.1 34.8,42.1 33.6,42.1 32.3,42.1 32.3,43.3 33.6,43.3 33.6,44.6 33.6,45.8 33.6,47.1 
			34.8,47.1 34.8,48.3 34.8,49.6 34.8,50.8 36.1,50.8 36.1,52.1 36.1,53.3 36.1,54.6 37.3,54.6 37.3,55.8 38.6,55.8 39.8,55.8 
			41.1,55.8 41.1,54.6 42.3,54.6 42.3,53.3 42.3,52.1 		"/>
		<polygon class="st7" points="36.1,58.3 36.1,62.1 29.8,62.1 29.8,59.6 28.6,59.6 28.6,53.3 27.3,53.3 27.3,44.6 26,44.6 26,43.3 
			31,43.3 31,45.8 32.3,45.8 32.3,49.6 33.6,49.6 33.6,53.3 34.8,53.3 34.8,58.3 		"/>
		<polygon class="st7" points="22.3,44.6 22.3,47.1 19.8,47.1 19.8,45.8 21,45.8 21,44.6 		"/>
		<rect x="19.8" y="48.3" class="st7" width="2.5" height="16.3"/>
		<rect x="17.3" y="44.6" class="st7" width="1.2" height="3.8"/>
		<polygon class="st7" points="18.5,58.3 18.5,63.3 13.5,63.3 13.5,55.8 14.8,55.8 14.8,54.6 16,54.6 16,49.6 17.3,49.6 17.3,58.3 
					"/>
		<polygon class="st7" points="13.5,42.1 13.5,40.8 12.3,40.8 12.3,39.6 11,39.6 9.8,39.6 8.5,39.6 8.5,40.8 7.3,40.8 7.3,42.1 
			7.3,43.3 7.3,44.6 7.3,45.8 8.5,45.8 8.5,44.6 8.5,43.3 9.8,43.3 11,43.3 12.3,43.3 13.5,43.3 		"/>
	</g>
	<polygon class="st8" points="7.3,45.8 6,45.8 6,47.1 6,48.3 7.3,48.3 8.5,48.3 8.5,47.1 8.5,45.8 	"/>
	<polygon class="st9" points="28.6,64.9 27.7,64.9 26.8,64.9 25.9,64.9 25,64.9 25,65.7 24.1,65.7 23.2,65.7 22.3,65.7 21.4,65.7 
		20.5,65.7 19.6,65.7 18.7,65.7 17.8,65.7 16.9,65.7 16.9,66.6 17.8,66.6 18.7,66.6 18.7,67.4 19.6,67.4 19.6,68.2 19.6,69 
		19.6,69.9 20.5,69.9 20.5,70.7 21.4,70.7 22.3,70.7 22.3,71.5 22.3,72.3 23.2,72.3 24.1,72.3 24.1,73.2 25,73.2 25,72.3 25.9,72.3 
		25.9,71.5 25.9,70.7 26.8,70.7 26.8,69.9 26.8,69 27.7,69 27.7,68.2 27.7,67.4 28.6,67.4 28.6,66.6 28.6,65.7 29.4,65.7 29.4,64.9 
			"/>
	<rect x="16" y="79" class="st10" width="0.9" height="0.8"/>
	<polygon class="st11" points="18.7,76.5 18.7,75.7 17.8,75.7 17.8,74.9 16.9,74.9 16.9,75.7 16.9,76.5 16.9,77.3 16.9,78.2 
		16,78.2 16,79 16.9,79 17.8,79 17.8,78.2 18.7,78.2 18.7,77.3 19.6,77.3 19.6,76.5 	"/>
	<polygon class="st12" points="16,74.9 16,75.7 16,76.5 16,77.3 16,78.2 16.9,78.2 16.9,77.3 16.9,76.5 16.9,75.7 16.9,74.9 	"/>
	<g>
		<polygon class="st13" points="23.2,72.3 22.3,72.3 22.3,71.5 22.3,70.7 21.4,70.7 20.5,70.7 20.5,69.9 19.6,69.9 19.6,70.7 
			19.6,71.5 19.6,72.3 19.6,73.2 19.6,74 19.6,74.9 20.5,74.9 20.5,74 21.4,74 22.3,74 23.2,74 24.1,74 24.1,73.2 24.1,72.3 		"/>
		<polygon class="st13" points="16.9,69 16,69 16,69.9 16,70.7 16,71.5 16,72.3 16.9,72.3 16.9,71.5 17.8,71.5 17.8,70.7 17.8,69.9 
			16.9,69.9 		"/>
	</g>
	<g>
		<polygon class="st14" points="18.7,67.4 18.7,66.6 17.8,66.6 16.9,66.6 16,66.6 16,67.4 16,68.2 16,69 16.9,69 16.9,69.9 
			17.8,69.9 17.8,70.7 17.8,71.5 16.9,71.5 16.9,72.3 16,72.3 16,73.2 16,74 16,74.9 16.9,74.9 17.8,74.9 18.7,74.9 19.6,74.9 
			19.6,74 19.6,73.2 19.6,72.3 19.6,71.5 19.6,70.7 19.6,69.9 19.6,69 19.6,68.2 19.6,67.4 		"/>
		<rect x="17.8" y="78.2" class="st14" width="0.9" height="0.8"/>
	</g>
	<rect x="14.2" y="79" class="st10" width="0.9" height="0.8"/>
	<polygon class="st15" points="15.1,69 15.1,69.9 14.2,69.9 14.2,70.7 14.2,71.5 15.1,71.5 15.1,72.3 16,72.3 16,71.5 16,70.7 
		16,69.9 16,69 	"/>
	<g>
		<rect x="15.1" y="79" class="st16" width="0.9" height="0.8"/>
		<polygon class="st16" points="15.1,66.6 14.2,66.6 13.4,66.6 13.4,67.4 12.5,67.4 12.5,68.2 12.5,69 12.5,69.9 12.5,70.7 
			12.5,71.5 12.5,72.3 12.5,73.2 12.5,74 12.5,74.9 13.4,74.9 14.2,74.9 15.1,74.9 16,74.9 16,74 16,73.2 16,72.3 15.1,72.3 
			15.1,71.5 14.2,71.5 14.2,70.7 14.2,69.9 15.1,69.9 15.1,69 16,69 16,68.2 16,67.4 16,66.6 		"/>
		<rect x="13.4" y="78.2" class="st16" width="0.9" height="0.8"/>
	</g>
	<rect x="17.8" y="64.9" class="st17" width="0.9" height="0.8"/>
	<polygon class="st17" points="16.9,64.1 16.9,63.2 16,63.2 16,62.4 15.1,62.4 14.2,62.4 13.4,62.4 12.5,62.4 12.5,63.2 13.4,63.2 
		14.2,63.2 14.2,64.1 15.1,64.1 16,64.1 16,64.9 16.9,64.9 17.8,64.9 17.8,64.1 	"/>
	<polygon class="st18" points="11.6,69.9 11.6,70.7 10.7,70.7 9.8,70.7 9.8,71.5 9.8,72.3 8.9,72.3 8,72.3 8,73.2 8,74 8.9,74 
		9.8,74 10.7,74 11.6,74 11.6,74.9 12.5,74.9 12.5,74 12.5,73.2 12.5,72.3 12.5,71.5 12.5,70.7 12.5,69.9 	"/>
	<g>
		<polygon class="st19" points="14.2,74.9 14.2,75.7 13.4,75.7 13.4,76.5 12.5,76.5 12.5,77.3 13.4,77.3 13.4,78.2 14.2,78.2 
			14.2,79 15.1,79 15.1,78.2 15.1,77.3 15.1,76.5 15.1,75.7 15.1,74.9 		"/>
		<polygon class="st19" points="12.5,69 12.5,68.2 12.5,67.4 13.4,67.4 13.4,66.6 13.4,65.7 12.5,65.7 11.6,65.7 10.7,65.7 
			9.8,65.7 8.9,65.7 8,65.7 7.1,65.7 7.1,64.9 6.2,64.9 5.3,64.9 4.4,64.9 3.5,64.9 2.6,64.9 2.6,65.7 3.5,65.7 3.5,66.6 4.4,66.6 
			4.4,67.4 4.4,68.2 5.3,68.2 5.3,69 5.3,69.9 6.2,69.9 6.2,70.7 7.1,70.7 7.1,71.5 7.1,72.3 7.1,73.2 8,73.2 8,72.3 8.9,72.3 
			9.8,72.3 9.8,71.5 9.8,70.7 10.7,70.7 11.6,70.7 11.6,69.9 12.5,69.9 		"/>
	</g>
	<polygon class="st20" points="29.8,59.6 29.8,63.3 28.6,63.3 28.6,60.9 27.3,60.9 27.3,54.6 26.1,54.6 26.1,45.8 24.8,45.8 
		24.8,43.3 22.3,43.3 22.3,43.3 22.3,43.3 22.3,44.6 21,44.6 21,45.8 19.8,45.8 19.8,47.1 19.8,47.1 19.8,48.4 19.8,48.4 19.8,49.6 
		18.5,49.6 18.5,58.3 17.3,58.3 17.3,48.3 18.5,48.3 18.5,44.6 19.8,44.6 19.8,43.3 21,43.3 21,42.1 23.5,42.1 23.5,-0.3 24.8,-0.3 
		24.8,42.1 26.1,42.1 26.1,44.6 27.3,44.6 27.3,53.3 28.6,53.3 28.6,59.6 	"/>
	<rect x="19.8" y="47.1" class="st20" width="0" height="1.3"/>
	<rect x="22.3" y="43.3" class="st20" width="0" height="1.2"/>
	<polygon class="st21" points="16,64.9 16,64.1 15.1,64.1 14.2,64.1 14.2,64.9 14.2,65.7 13.4,65.7 13.4,66.6 14.2,66.6 15.1,66.6 
		16,66.6 16.9,66.6 16.9,65.7 17.8,65.7 17.8,64.9 16.9,64.9 	"/>
	<polygon class="st21" points="15.1,75.7 15.1,76.5 15.1,77.3 15.1,78.2 15.1,79 16,79 16,78.2 16,77.3 16,76.5 16,75.7 16,74.9 
		15.1,74.9 	"/>
	<rect x="15.9" y="72.3" class="st14" width="0.1" height="2.6"/>
	<rect x="15.9" y="66.6" class="st14" width="0.1" height="2.4"/>
	<rect x="15.9" y="74.9" class="st12" width="0.1" height="3.3"/>
</g>
</svg>
