<?xml version="1.0" encoding="utf-8"?>
<!-- Generator: Adobe Illustrator 24.3.0, SVG Export Plug-In . SVG Version: 6.00 Build 0)  -->
<svg version="1.1" id="Layer_1" xmlns="http://www.w3.org/2000/svg" xmlns:xlink="http://www.w3.org/1999/xlink" x="0px" y="0px"
	 viewBox="0 0 3061.4 1775.1" style="enable-background:new 0 0 3061.4 1775.1;" xml:space="preserve">
<style type="text/css">
	.st0{fill:#F4EFD2;}
	.st1{fill:#EEEDED;}
	.st2{fill:#F6C31E;}
	.st3{fill:#F4EFC3;}
	.st4{fill:#F2933F;}
	.st5{fill:#081510;}
	.st6{fill:#FAFCFB;}
	.st7{fill:#8C8C8C;}
	.st8{fill:#C31718;}
	.st9{fill:#2F3F91;}
	.st10{fill:#F5F6F5;}
	.st11{opacity:0.2;enable-background:new    ;}
	.st12{fill:#FAC58A;}
	.st13{fill:#ED713C;}
	.st14{fill:#2F3F92;}
	.st15{fill:#60615A;}
	.st16{fill:#633919;}
	.st17{fill:#F1B275;}
	.st18{fill:#FACAA2;}
	.st19{fill:none;stroke:#090A07;stroke-miterlimit:10;}
	.st20{fill:#E8A879;}
	.st21{fill:#8B8A8A;}
	.st22{fill:#524545;}
	.st23{fill:#097365;}
	.st24{fill:#2E2B75;}
	.st25{fill:#5B2B1A;}
	.st26{fill:#F6AD63;}
	.st27{fill:#1E509E;}
	.st28{fill:#D84B4C;}
	.st29{fill:#F4E877;}
	.st30{fill:#5D3811;}
	.st31{fill:#461A46;}
	.st32{fill:none;stroke:#5D3811;stroke-miterlimit:10;}
	.st33{fill:#CB9BC6;}
	.st34{fill:#77521C;}
	.st35{fill:#F1B070;}
	.st36{fill:#B498B4;}
	.st37{fill:none;stroke:#9A4291;stroke-miterlimit:10;}
</style>
<polygon class="st0" points="1867.8,586.2 1747.9,736.9 1583.6,699.9 1583.5,699.9 1460.3,672.2 1488.6,545.3 1488.9,545.4 
	1591.8,556.5 1591.8,556.5 "/>
<path class="st1" d="M1703.3,791.3c-0.3,1.3-0.6,2.7-1,4l-12.1,15.3l-126.7,14.2l-6,0.7l1.6-7.1c-9.3-15.1-13.8-33.3-11.8-52.1
	c0.3-3.1,0.8-6.2,1.5-9.4c4.8-21.9,17.9-39.9,35-51.1c0.7-2.4,1.3-4.8,1.8-7.2l101,22.5C1702.1,739.7,1709.1,765.4,1703.3,791.3z"/>
<polygon class="st2" points="1715.6,957.9 1673.8,1044.2 1548.3,1087.4 1464.6,1087.4 1548.3,1173.8 1506.5,1204.7 1506.5,1260.1 
	1464.6,1235.4 1464.6,1281.7 1431.2,1260.1 1422.8,1303.3 1422.8,957.9 "/>
<path class="st3" d="M541.4,37c7.3,0,1521.3,0,2025.8,0c10.1,0,19.8,0,29.1,0c44.7,0.5,92.7-9.5,131.7,5.5c63,24,67,131,0,153
	c-40,14-88,6-133.2,4.2c-9.2-0.5-18.3-1.1-27.4-1.4c-18.1-0.5-35.9,0.2-52.4,5.2c-26,9-51,39-42,71c5,18,21,33,39,36
	c32,4,63,1,95.5,1.5c11,0,22.6,0,34.5,0c47.8,0,102.1,0,149.9,0c8,0,15.8,0,23.3,0c35.8,0.5,74.8-6.5,107.8,4.5c29,10,52,43,55,77
	c3,35-25,66-57,75c-31,8-64,3-96,3.3c-7.8,0.3-15.8,0.2-23.8-0.2c-39.9-1.6-81.1-8.1-115.2,6.9c-32,14-44,57.8-32.7,91.3
	c2.8,8.4,7.1,16.1,12.9,22.6c41.9,39.6,102.9,16.6,154.9,21.6c43,4,70,43,66,84c-3,24-15,46-36,58c-40,24-87,4-129.5,9
	c-9.4,0-19.2,0-29.1,0c-39.6,0-82,0-120.1,0c-7.7,0-15.1,0-22.4,0c-34.9,0.4-73.9-8.6-102.9,4.4c-44.2,20-50.8,83.1-18.8,117.4
	c6.4,6.9,14.3,12.6,23.9,16.6c4,1.6,8,2.6,12,3.6c9,0.5,18,0.6,27.1,0.4c49.9,0.6,104.9-18.4,150.9,13.6c25,17,32,46,29,75
	c-3,22-14,45-36,51c-48,12-107-12-143.4,28.4c-5.2,6.9-8.9,15.8-10.6,27c-0.5,6.7,0.2,13.4,1.9,19.8c5.3,19.1,19.5,35.2,36,41.2
	c22,8,48,3,71.8,2.6c10.9,0,22.7,0,35.2,0c54.7,0,122.9,0,186.4,0c9.1,0,18,0,26.9,0.2c26.5,4.8,60.4,1.9,93.1,1.8
	c10.9,0,21.7,0.3,32,1.3c20.6,1.8,41.6,5.8,57.6,19.8c29,27,41,80,12,105c-44,37-108,20-162.6,22.9c-8.1-0.1-16.1-0.3-24.2-0.5
	c-8.1-0.2-16.2-0.5-24.4-0.8c-7.3,0.3-14.6,1.1-21.5,2.4s-13.8,3.1-20.3,5.6c-27,11-52,56-34,89c32,58,111,25,166,28c8,1,17,2,25,6
	c6.2,2.8,11.9,6.8,17,11.7c25.6,24.2,36.2,69.5,12,95.3c-30,32-80,12-119.6,14.7c-10.8,0-21.7,0-32.2,0c-26.2,0.4-54.2-5.6-77.2,3.4
	c-38,16-37,81,3,95c27,9,58,3,87.8,2.8c11.1-1.9,22.1,1.2,31.1,7.2s16,15,19,25c8,28-19,62-48.5,56.2c-6.7,0-15,0-24.8,0
	c-294.2,0-1933.1,0-2385,0c-8.1,0-15.9,0-23.3,0c-31.4-0.2-66.4,8.8-90.4-5.2c-68-38-74-148-1-189c17-10,41-6,62.2-6.3
	c11.7-0.6,24.2-1.2,36.6-1.8c34.1-1.9,71.1,5.1,99.1-8.9c32-15,48-62,32-99c-11-23-29-44-54-50c-30-7-61-3-91.9-2.7
	c-10.6,0-21.7,0-33.2,0c-46,0-98.2,0-144.2,0c-7.7,0-15.2,0-22.5,0c-34.3-0.3-72.3,8.7-100.3-5.3c-43-22-70-83-53-135
	c12-37,45-70,85.6-62.7c10.4-0.2,22.6-0.4,35.9-0.7c13.3-0.2,27.7-0.5,42.4-0.8c6.5-0.1,13.2-0.2,19.8-0.4
	c44.3-0.5,93.3,9.5,130.3-8.5c42-19,59-84,37-132c-23-51-77-54-124.6-52.6c-6.4-0.1-12.8,0.1-19.2,0.2c-19.3,0.5-38.2,0.9-53.2-6.6
	c-62-32-64-131-4-161c29-14,70-4,107.1-4c6.1,0,12.4,0,18.7,0c57.2,0,122.8,0,172.5,0c6.5,0,12.7,0,18.6,0c20.1,0,43.1,7,57.1-3
	c52-38,60-132-3-162c-22-10-51-3-77.8-3.1c-7.3,0-14.8,0-22.5,0c-11.5,0-23.2,0-34.9,0c-37.5-0.4-78.5,7.6-113.5-4.4
	c-30-10-47-49-44-84c3-27,17-57,41-64c18.5-5,37.8-5.8,57.2-5.3c6.5,0.2,13,0.4,19.5,0.8c54.3,2.5,109.3,3.5,163.3,2.5
	c40-1,64-39,78-73c14-37,12-80-6.2-114.5c-3.3-6.7-7.3-12.8-11.8-18.5c-11.3-14.1-25.9-24.8-42.3-31.4c-8.2-3.3-16.8-5.7-25.7-6.9
	c-90-0.7-179,1.3-269.4,1.6c-10.5,0-20.8,0-31,0C164,250.1,63,293.1,20.3,210.8c-5-9.3-8.6-19.3-11-29.6
	C-2.7,129.8,17.4,70.5,66.8,43.6c25-14,61-7,92.6-6.3c6.9,0,14.2-0.1,21.6-0.1C322.1,37,541.4,37,541.4,37L541.4,37z"/>
<path class="st4" d="M1019.4,1297.4c0,0-85.9,3.5-187.4,13.3c-8.5,0.8-17,1.7-25.7,2.6c-11.7,1.4-23,1.6-34.4,1.9
	c-66.9,3.9-134.9,5.9-197.6,32.4c-8.9,3.9-17.7,8.4-26.3,13.5c-21,13-34,39-24,63c2.5,6.5,7,12,12.6,15.8s12.4,5.8,19.4,5.3
	c39.6-1.6,79.2-7.2,118.9-12.3c9.9-1.3,19.8-2.5,29.8-3.6c18.8-1.5,38.1-3.1,57.4-4c9.7-0.4,19.4-0.7,29-0.7
	c44.9,0.5,90.9,4.5,131.9,29.5c53,32,103,62,158.3,85.3c9.4,4.1,19.2,8.1,29.3,12.1c46.1,18,98.4,33.8,151.7,40.8
	c10.7,1.4,21.4,2.4,32.1,3.1c41.6,3,83-1,122.6-13.9c7.9-2.6,15.8-5.5,23.5-8.8c53.6-33.4,111.6-58.9,172.4-75.3
	c10.1-2.7,20.3-5.2,30.6-7.5c56.1-12.4,112.7-20.6,169.5-24.6c9.5-0.7,18.9-1.2,28.4-1.7c91.6-1.4,184.6-4.4,276.2-2.9
	c9.1,0.1,18.1,0.3,27.1,0.5c27.1,0.5,54.2,1.3,81.1,2.3c8.1,0.4,16.2,0.8,24.3,1.3c32.3,2.2,64.4,6.3,95.6,13.6
	c8.9,2.1,17.8,4.5,26.5,7.2c32.7,11.6,63.7,26.6,95.7,41.6c62,31,132,48,201.9,38.4c12-1.4,22.9-3.5,32.3-6
	c37.7-10.2,52.1-28.5,21.1-49.3c-39.2-26.3-76.4-49.8-111.8-71c-8.8-5.3-17.6-10.4-26.2-15.4c-82.3-48.7-170.3-86.7-261.1-117.7
	c-9.5-3-19-5.8-28.5-8.5c-28.6-7.9-57.7-14.3-87.2-18.4c-10.4-1.6-20.9-3-31.4-4.3c-52.3-6.4-105.1-9-158.4-7.8
	c-9.5,0.1-18.9,0.4-28.3,0.6c-65.9,1.5-131.7,1.7-197.6,2.5c-7.3,0.2-14.6,0.5-22,0.8C1453.3,1282.2,1019.4,1297.4,1019.4,1297.4z"
	/>
<polygon class="st5" points="2036.5,50.2 2036.4,50.2 2036.3,50 "/>
<polygon class="st6" points="1755,1226.8 1755,1226.9 1755,1226.9 "/>
<path class="st7" d="M1327.3,1395.6h-245.6c-53.6,0-97-43.4-97-97v-255.2c0-53.6,43.4-97,97-97h245.6c53.6,0,97,43.4,97,97v255.2
	C1424.2,1352.2,1380.8,1395.6,1327.3,1395.6z"/>
<g>
	<polygon class="st2" points="1421.9,1086.2 1421.9,1258.8 1413.4,1258.8 1405.8,1253.4 1379.6,1234.3 1379.6,1234.3 1337.3,1203.6 
		1295.1,1172.8 1379.6,1086.2 	"/>
	<polygon class="st2" points="1285.9,962.9 1168.3,1043 1129.1,962.9 	"/>
	<polygon class="st8" points="1421.9,1086.2 1421.9,1302 1421.8,1301.9 1413.4,1258.8 1413.4,1258.8 1379.6,1086.2 	"/>
	<polygon class="st1" points="1295.1,956.6 1295.1,1086.2 1168.3,1043 1285.9,962.9 	"/>
	<polygon class="st8" points="1525.4,815.3 1525.3,815.3 1525.2,815.2 	"/>
	<polygon class="st9" points="1337.3,1203.6 1337.3,1259.1 1379.6,1234.3 	"/>
	<polygon class="st9" points="1379.6,1234.3 1379.6,1280.5 1413.4,1258.9 	"/>
	<rect x="1295.1" y="956.6" class="st9" width="126.8" height="129.6"/>
	<polygon class="st9" points="1295.3,956.5 1295.3,956.6 1295.2,956.6 	"/>
	<path class="st1" d="M1421.9,956.6v54l0,0c-27.1,0-49.4-20.8-52.5-47.7c-0.3-2.1-0.4-4.1-0.4-6.2L1421.9,956.6L1421.9,956.6z"/>
</g>
<path class="st7" d="M1768.1,1389.3h-242.8c-54.3,0-98.4-44.1-98.4-98.4v-252.4c0-54.3,44.1-98.4,98.4-98.4h242.8
	c54.3,0,98.4,44.1,98.4,98.4v252.4C1866.5,1345.2,1822.4,1389.3,1768.1,1389.3z"/>
<polygon class="st2" points="1548.3,1173.8 1506.5,1204.7 1464.6,1235.4 1431.2,1260.1 1422.8,1260.1 1422.8,1087.4 1464.6,1087.4 
	"/>
<polygon class="st8" points="1464.6,1087.4 1431.2,1260.1 1431.2,1260.1 1422.8,1303.3 1422.8,1087.4 "/>
<polygon class="st2" points="1715.6,957.9 1673.8,1044.2 1548.3,957.9 "/>
<polygon class="st1" points="1297.4,957.8 1297.4,957.9 1297.3,957.9 "/>
<polygon class="st1" points="1673.8,1044.2 1548.3,1087.4 1548.3,957.8 "/>
<polygon class="st8" points="1525.3,816.6 1525.2,816.6 1525.1,816.4 "/>
<polygon class="st9" points="1464.6,1235.4 1464.6,1281.7 1431.2,1260.1 "/>
<polygon class="st9" points="1506.5,1204.7 1506.5,1260.1 1464.6,1235.4 "/>
<rect x="1422.8" y="957.9" class="st9" width="125.5" height="129.5"/>
<path class="st1" d="M1475.1,957.9c0,29.8-23.4,53.9-52.2,54v-54H1475.1z"/>
<ellipse class="st0" cx="1601.6" cy="992.7" rx="79.4" ry="81.2"/>
<path class="st7" d="M1323,961.3h-237.1c-55.9,0-101.3-45.3-101.3-101.3V613.4c0-55.9,45.3-101.3,101.3-101.3H1323
	c55.9,0,101.3,45.3,101.3,101.3V860C1424.2,916,1378.9,961.3,1323,961.3z"/>
<g>
	<path class="st2" d="M1382.2,1243.5L1382.2,1243.5L1382.2,1243.5z"/>
	<polygon class="st2" points="1424.7,834.3 1297.3,964.5 1127.4,964.5 1042.5,790.9 	"/>
	<polygon class="st8" points="1425,834.3 1424.7,834.3 1424.7,899.5 1424.7,899.5 1297.3,964.5 1297.3,964.4 1332.4,874.9 
		1332.5,874.6 1351.5,826 1382.2,747.5 1382.2,747.5 1424.7,769.2 1424.7,834.3 	"/>
	<polygon class="st8" points="1528.7,822.5 1528.6,822.5 1528.6,822.4 	"/>
	<path d="M1424.7,715.7v53.6l-42.5-21.7l-84.9-43.4h79.2C1393.4,704.1,1409.8,708.2,1424.7,715.7z"/>
	<path class="st9" d="M1424.7,964.5h-127.4v3.3c0-1.1,0-2.2,0-3.3l0,0c0-34.8,13.4-66.5,35.2-89.8c23.2-24.9,55.9-40.4,92.2-40.4
		h0.3h-0.3"/>
	<path class="st1" d="M1424.7,964.5h-53.1c0-29.9,23.8-54.3,53.1-54.3l0,0"/>
</g>
<path class="st5" d="M1496.6,499.5L1496.6,499.5L1496.6,499.5z"/>
<path class="st5" d="M1496.6,499.5L1496.6,499.5L1496.6,499.5z"/>
<path class="st7" d="M1538.6,695.7c26.8,35.5,20.4,86.4-14.3,113.8c-2.6,2-5.3,3.9-8.1,5.6l8.3,9.6l0.1,0.2l0,0l-13.4-6.9
	c-29.3,15-64.9,10-89.1-12.7l0.2-33.6v-0.1l0.3-53.3l0.2-33.6c1.3-1.2,2.8-2.4,4.2-3.6C1461.9,653.7,1511.8,660.2,1538.6,695.7z"/>
<g>
	<polygon class="st9" points="1423.5,1094.8 1423.5,1094.8 1423.5,1094.8 	"/>
	<path class="st2" d="M1380.2,1242.7v0.1V1242.7z"/>
	<path class="st8" d="M1425.3,829.6c0.3-0.1,0.6-0.1,0.9-0.1l0.2-24.2c24.2,22.7,59.8,27.7,89.1,12.7l13.4,6.9l0,0l-0.1-0.2
		l-13.2-6.8l-89-46.3l-0.9-0.4l0,0l0,0l-0.3,33.2L1425.3,829.6z"/>
	<path d="M1528.7,824.7l0.1,0.2l-13.4-6.9l-88.9-46.3l-0.8-0.4l0,0l0,0l0.4-53.3c0.3,0.2,0.6,0.3,0.9,0.5
		c11.6,6.2,22.2,14.5,30.9,24.7l62.5,72.1L1528.7,824.7z"/>
</g>
<polygon class="st6" points="1361.4,1033.7 1361.4,1033.7 1361.4,1033.7 "/>
<path class="st7" d="M1814.9,753.5L1534,690.3c-40.4-9.1-65.7-50.2-56.4-91.9l64.6-289.2c9.3-41.6,49.6-68,90.1-58.9l280.9,63.2
	c40.4,9.1,65.7,50.2,56.4,91.9L1905,694.6C1895.7,736.2,1855.4,762.6,1814.9,753.5z"/>
<polygon class="st9" points="1432,799.1 1432,799.1 1431.9,799.1 1431.9,799.1 "/>
<polygon class="st2" points="1358.5,934.9 1358.5,935 1358.4,934.9 "/>
<polygon class="st2" points="1867.8,586.2 1747.9,736.9 1583.6,699.9 1583.5,699.9 1488.6,545.3 1488.9,545.4 1591.8,556.5 "/>
<polygon class="st8" points="1611.8,573.2 1557,587.4 1557,587.4 1520.3,597 1474.5,608.8 1474.4,608.8 1502.8,481.9 1502.8,481.9 
	1591.7,556.3 1591.8,556.5 "/>
<path d="M1591.8,556.5l-89-74.5l0,0l11.7-52.2l0,0c10.3,8.6,19.1,19.3,25.6,31.4l51.6,95.2L1591.8,556.5z"/>
<path class="st9" d="M1583.5,699.9L1583.5,699.9l-123.3-27.7l28.3-126.9l0.3,0.1c27.7,6.3,51.1,21.5,68.1,42.1
	C1581.7,617.3,1592.8,658.5,1583.5,699.9z"/>
<path class="st1" d="M1511.6,683.7L1511.6,683.7l-51.3-11.5l11.8-52.9l0,0C1500.5,625.7,1518.1,654.5,1511.6,683.7z"/>
<polygon class="st6" points="1404.3,713.2 1404.4,713.3 1404.4,713.3 1404.3,713.3 "/>
<polygon class="st5" points="1572.1,770.9 1572.1,770.8 1572.2,771 "/>
<path class="st10" d="M1125.2,764.6h0.1H1125.2z"/>
<polygon class="st2" points="1405.1,969 1405,969 1405,969 "/>
<polygon class="st1" points="1339.1,643.5 1339.1,643.5 1339,643.5 "/>
<polygon class="st8" points="1593.7,555 1593.6,555 1593.5,554.8 "/>
<path class="st9" d="M1583.8,705.8c-6.7,24-19.6,44.6-36.5,60.5c0.3-3.1,0.8-6.2,1.5-9.4C1553.7,735,1566.7,717,1583.8,705.8z"/>
<path class="st11" d="M1405,969L1405,969L1405,969z"/>
<ellipse transform="matrix(4.529760e-02 -0.999 0.999 4.529760e-02 1052.1644 2016.6865)" class="st0" cx="1581.2" cy="457.9" rx="81.2" ry="79.4"/>
<ellipse transform="matrix(2.549872e-02 -0.9997 0.9997 2.549872e-02 1132.1394 1795.1567)" class="st12" cx="1486.8" cy="316.9" rx="34.7" ry="32.2"/>
<path class="st13" d="M1442.4,289.8l-5.8,123l-39-2l1.6-33.2c0,0-70.2-23.1-65.9,29.9l-68-70.4
	C1265.3,337.1,1339,230.1,1442.4,289.8z"/>
<path class="st13" d="M1441.4,294.3l13.3,0.7c0,0-3.3,70.5,31.4,99.9l-41.8-2.1l-6.9-14.2L1441.4,294.3z"/>
<polygon class="st12" points="1405.9,411.2 1409.2,457.7 1472.7,520.9 1477.2,540.3 1521.7,542.6 1522.2,533.8 1509.1,533.1 
	1502.3,511.2 1483.5,504.6 1439.1,441.6 1435.9,412.7 "/>
<path class="st14" d="M1272,344.1c0,0-13.5,57.1,23.6,130.3l-113-10.4l-0.9,18.4l99.7,26.9l33.9,1.7c4.6,0.2,9-2,11.6-6.1
	c2.8-4.4,6.1-11.1,7.9-20.4c0.1-0.5,0.2-1,0.2-1.5c0.5-8.3,5.1-83.4,5.7-84.6l39.8-4l-0.7,15.6c0,0-31.7,81.7-32.8,88.9l13.4,3.2
	l42.5-66.8l1.1-24.1l-8.3-0.4l3.4-33.1c0,0-43.3-12.2-60.3,5.9c0,0-8.6,14.3-5.6,24L1272,344.1z"/>
<path class="st15" d="M1189.5,500.6l-7.6-3.7l9.4-33.7c0,0-14.5-14-21.8-1.1l-2.1,45.1c0,0,18.9,10.7,25.4,1.3"/>
<path class="st15" d="M1350.5,495.3c0,0-14.4,16-10.1,24.3l46.9,6.9l0.7-14.1l-20.4-1.6l-3.3-8.4L1350.5,495.3z"/>
<path class="st16" d="M1477.2,327.4c0,0,11.4-1.3,12.5,0.6s-0.4,9.6,3.1,9.8s4.6,4.1,4.6,4.1s1.6,16.3,14.2,14.3
	c0,0,5.4-12.8,15.9-8s6.7-15.3,6.7-15.3s-8.7-12,1.8-16.6s-1.8-21.5-9.9-14.6s-5.6-17.6-5.6-17.6s-46.1-11.7-41.3-0.7
	c0,0-12.5-1.4-23.9,26.9c0,0,4.4,7.7,12.3,5.7c0,0,18.8-20.2,8.6,8.2"/>
<ellipse transform="matrix(2.549872e-02 -0.9997 0.9997 2.549872e-02 1123.3129 1778.3528)" class="st17" cx="1473.8" cy="313" rx="6.4" ry="6"/>
<path class="st12" d="M1477.1,390.9l3.5,20.3l42.9-8.9l5.1-7.7l13.8-7.4l4.8-10.4l12,3.3c6,28.1-19.1,31.2-19.1,31.2l-83.8,33.1
	l-7.9-51.4L1477.1,390.9z"/>
<path class="st12" d="M1456.3,326.6v26.8c3.4-10,9.9-8.3,9.9-8.3L1456.3,326.6z"/>
<path class="st17" d="M1485.2,351.6c0,0-23.9-15.8-24.9-34.1C1460.3,317.5,1458.8,347,1485.2,351.6z"/>
<polygon class="st13" points="1442.4,289.8 1454.7,295 1441.4,294.3 "/>
<ellipse class="st18" cx="934.7" cy="965.7" rx="37.3" ry="38.6"/>
<path class="st19" d="M765.4,1157.3"/>
<path class="st18" d="M771.9,1358.9c0,0-10.3,7.1-6.5,21.4l17.6,12.9h37.3c0,0,6.9-12.9-19.3-17.2l-16.5-17.2L771.9,1358.9
	L771.9,1358.9z"/>
<path class="st18" d="M819.7,1352.3c0,0-10.3,7.1-6.5,21.4l17.6,12.9H868c0,0,6.9-12.9-19.3-17.2l-16.5-17.2L819.7,1352.3
	L819.7,1352.3z"/>
<path class="st18" d="M916.1,1012.8c0,0,20.7,17.5,14.4,32.7c0,0-25,5-48.2-3.3L916.1,1012.8z"/>
<path class="st18" d="M930.5,1068.1l16.3,18.1l37.9-9.1v12.6l-12.6,9.8l-37.3-10.9l-7.5-15l7.5,15l64.9,19c0,0,17.9-12.5,26.2,0
	c0,0,23.5,5.3,20.7,11.1c-2.8,5.7-28.1,9.5-46.9,7.2l-80-18.2l-32.9-36.8L930.5,1068.1z"/>
<path class="st18" d="M798.4,1217.9c0,3.5,11.7,54.3,0,62.6c0,0-32.8,23.6-26.5,78.3h12.5l39.7-80.3l11.9-60.3L798.4,1217.9z"/>
<path class="st18" d="M855.3,1213.3c0,0,6.2,17.8,3.5,24.1c-2.7,6.2-37.7,89.7-39.1,114.9h12.5l63.5-111.3l-9.3-36.2L855.3,1213.3z"
	/>
<path class="st20" d="M971.4,972.4c0,0-21.3,29.4-46.4,30.6C925,1002.9,960.4,1012.1,971.4,972.4z"/>
<ellipse class="st20" cx="925" cy="965.7" rx="8.3" ry="8.6"/>
<path class="st21" d="M812.4,1358.9c0,0,31.5,22.7,36.3,10.6c0,0,26.4,2.2,19.3,17.2h-37.3l-17.6-12.9
	C813.2,1373.7,808.3,1356.1,812.4,1358.9z"/>
<path class="st21" d="M765.4,1365.8c0,0,25.1,20.8,35.5,10.2c0,0,22.8,2.6,19.3,17.2h-37.3l-17.6-12.9
	C765.4,1380.3,760.4,1362.1,765.4,1365.8z"/>
<ellipse class="st12" cx="1951.9" cy="957.4" rx="31.5" ry="32.6"/>
<path class="st12" d="M1927.2,1040.1l-10.1,41.9l-56.2,34.9v14l70.8-24.4c0,0,56.2-53.6,32-66.4H1927.2L1927.2,1040.1z"/>
<path class="st12" d="M1923.5,1055.2c0,0-42.2,18.1-57.9,7.6l-1.1,19.2c0,0,44.6,3.4,43.6,4
	C1908.1,1086.1,1926.9,1087.8,1923.5,1055.2z"/>
<path class="st12" d="M1945.5,988c0,0,7.9,32.2-15.7,32.2l50.6-22.8c0,0-18.5-4-9.1-16L1945.5,988z"/>
<path class="st12" d="M2007,1154.2c0,0,12.4,46.6-6.7,57.1l-6.7,66.4c0,0,24.8,37.8,31.6,103l-16.7,6.4l-44.6-111.7v-57.1
	c0,0-20.8,44.1-34.3,47c0,0,27,48.5,7.9,131.2l-15-2.7l-14.2-118.4l20.3-109.5L2007,1154.2z"/>
<path class="st22" d="M1942.5,1430.5H1887c0,0-12.1-31.7,32.3-25.4l6-9.5h19.8L1942.5,1430.5z"/>
<path class="st22" d="M2038.7,1411.7l-48.4,18.8c0,0-20.2-22.5,20.5-32.2l2.4-10l17.3-6.7L2038.7,1411.7z"/>
<path class="st12" d="M1863.4,1129.9c-6.6,5.5-23.4,15.9-38.4-4.1c-2.8-3.7-0.3-9.1,4.1-9.1l0,0c3.5,0,6.1-3.5,5.1-7.1l-0.3-1.1
	l24.9,5.2c1.8,0.4,3.3,1.7,3.9,3.6l2.2,6.3C1865.8,1125.9,1865.2,1128.4,1863.4,1129.9z"/>
<path class="st23" d="M1927.2,1038.4l-6.9,30.1l38.3,10.7c0,0,22.1-32.9,12.5-43.2L1927.2,1038.4z"/>
<path class="st24" d="M1924.9,1167l-25.8,108.3h42.1c0,0,25.9-49.5,21.7-54.2c-4.3-4.6-0.3,2.4-0.3,2.4l-1.7,54.2h40.5l5.7-73.5
	c0,0,9.6-29,0-50L1924.9,1167z"/>
<path class="st23" d="M1927.6,1031.4c0.4-8,5.5-14.9,12.9-17.4c15.9-5.3,38.3-15.8,38.3-15.8s6.7-24.4,28.1,156l-86.5,12.8
	l11.2-60.6c0,0,48.6-37.6,39.3-68.7l-43.8,2.3L1927.6,1031.4z"/>
<path class="st25" d="M1920.4,946.9c0,0,31.5-10.5,31.5,0s4.2,10.5,17.8,10.5c0,0,8.8,17.6,0,26.8c0,0,24.9-4.7,23.8-26.8
	c0,0,4.5-12.2-11.9-20.2c-2.6-1.3,0-5.8-1.4-8.4c-3.7-6.7-6.8-8.8-16.5-12.2c0,0-8.7,2.9-26.4,0
	C1924.7,914.6,1909.2,934.1,1920.4,946.9z"/>
<path class="st26" d="M1921.2,964.4c0,0,18.2,23.9,50,16.9C1971.2,981.3,1936.6,1004.5,1921.2,964.4z"/>
<path class="st27" d="M798.4,1217.9c0,0-25.9-76.8,21.3-91.4h49.1c0,0,24,76.6,17.7,78.3l-31.1,8.5l-14.8-37l-4.6,42.1h-32.4"/>
<path class="st28" d="M837.8,1064.3"/>
<path class="st29" d="M821.9,1063.4l-29.1,78.9c0,0,94.2,5.8,92.3,0s-8.8-67.1,4.5-71.4s39.5-2.8,39.5-2.8l5.7-22.6
	c0,0-40.7-0.4-45.2-1.8C885.1,1042.2,824.2,1057.1,821.9,1063.4z"/>
<path class="st30" d="M967.8,945.5c0,0-29-47.4-66.3-7.4c-2.1,2.3-3.8,5-5,7.9c-8.3,20.4-48.2,113.4-85.7,117.4l78.8-19.7l22.1-25.8
	c2.9-3.4,5-7.4,6.3-11.7l10.8-37.9l43.3-5.2L967.8,945.5z"/>
<ellipse class="st12" cx="1740.5" cy="1187.7" rx="29.2" ry="30.3"/>
<path class="st12" d="M1718.8,1300c0,0-7.5-23.6-15.7-66.8c0,0-44.9-80.7-39-94.7c0,0-22.5-32.6-15-31.1c7.5,1.6-1.5-20.2-1.5-20.2
	s12,6.2,10.5,14s21.7-1.2,15,26.4l34.5,66l24,31.8v59L1718.8,1300z"/>
<path class="st31" d="M1707.3,1339.4v153h74.8c0,0-6-55.9,0-63.9s13.8-30.2,4.8-59.2C1786.9,1369.4,1707.3,1330.1,1707.3,1339.4z"/>
<path class="st12" d="M1769.7,1492.5c0,0-6.7,21.7-2.3,41.9s13.6,73,13.6,73l-13.6,4.7c7.4-17.1-20.7-55.1-20.7-55.1l-6.2-64.4
	l-9,51.2l9,77.6H1724l-12.7-83.8v-45"/>
<path class="st32" d="M1648.4,1775.1"/>
<path class="st32" d="M1629.1,1768.7"/>
<path class="st32" d="M1639.2,1705.6"/>
<path class="st33" d="M1734.4,1223.5l-27.1,34.2c0,0-8.2,28,8.9,33.8l-13.1,50.2l23,6c0,0,35.7-11.7,18.2-38.8s4.8-74.7,4.8-74.7
	L1734.4,1223.5z"/>
<path class="st12" d="M1746.8,1299.9l-16.5,18.6l-58.4,31.1l-10.5,17.1h-22.5V1348l22.5-6.2l34.4-24.8l29.2-31.1
	c0,0,4.8-41.1,15.4-38.7L1746.8,1299.9z"/>
<path class="st34" d="M1715,1156.8c0,0,43.5-43.1,65.9,27.2c0,0-3,31.5,0,37.7s25.5,10.9,19.5,46.6s1.5,60.6,9,65.2
	s-18,52.8-39.7,32.6c-21.7-20.2-45.7-17.1-45.7-17.1s33-9.3,16.5-38.8s0-63.7,0-63.7s2.5-4.9,4.4-11c2.6-8.4,4-19-4.4-21.3
	c0,0,15-17.4,12-24.4C1749.5,1183,1715,1181,1715,1156.8z"/>
<path class="st12" d="M1731.5,1216.5c0,0,10.5,5.1,2.9,7l10.5,12.7c0,0,4.1-15.2-4.4-21.3L1731.5,1216.5z"/>
<path class="st35" d="M1711.3,1187.7c0,0,24.5,33.3,29.2,27.2C1740.5,1214.9,1714.1,1223.6,1711.3,1187.7z"/>
<ellipse class="st4" cx="1745.8" cy="1653.9" rx="182.6" ry="51.6"/>
<path class="st36" d="M1724,1621.3c0,0-18,27.9-34.5,23.3v18.6h51v-41.9H1724z"/>
<path class="st36" d="M1770.9,1600.4c0,0-18.6,27.5-35,22.5l-0.4,18.6l50.9,1.1l0.9-41.9L1770.9,1600.4z"/>
<line class="st37" x1="1689.5" y1="1653.9" x2="1740.5" y2="1653.9"/>
<line class="st37" x1="1736" y1="1632.8" x2="1786.9" y2="1632.8"/>
<path class="st7" d="M1703.3,788.8c-0.3,1.3-0.6,2.7-1,4c-11.3,41.6-52.5,67.5-93.9,58.3c-18.6-4.1-34.1-14.7-44.9-28.9l-6,0.7
	l1.6-7.1c-9.3-15.1-13.8-33.3-11.8-52.1c0.3-3.1,0.8-6.2,1.5-9.4c4.8-21.9,17.9-39.9,35-51.1c0.7-2.4,1.3-4.8,1.8-7.2l0,0h0.1
	l7.9,1.8c0.1-0.1,0.1-0.1,0.2-0.1l92.7,20.7c0.1,0.1,0.1,0.1,0.2,0.2C1702.1,737.1,1709.1,762.8,1703.3,788.8z"/>
<polygon class="st1" points="1690.2,810.6 1563.6,824.8 1557.6,825.4 1585.7,698.5 1585.7,698.5 1589.4,702.5 "/>
<path class="st2" d="M1703.3,791.3c-0.3,1.3-0.6,2.7-1,4l-12.1,15.3l-100.9-108.1l-3.7-4l101,22.5
	C1702.1,739.7,1709.1,765.4,1703.3,791.3z"/>
<path class="st9" d="M1585.6,698.5l-26.5,119.8c-9.3-15.1-13.8-33.3-11.8-52.1c0.3-3.1,0.8-6.2,1.5-9.4c4.8-21.9,17.9-39.9,35-51.1
	C1584.5,703.4,1585.1,701,1585.6,698.5z"/>
</svg>
