<svg id="Layer_1" data-name="Layer 1" xmlns="http://www.w3.org/2000/svg" xmlns:xlink="http://www.w3.org/1999/xlink" viewBox="0 0 595.28 841.89">
  <defs>
    <style>
     #noktalar{
   animation: noktalar 6s ease infinite;
 }
 @keyframes noktalar{
  0%{ transform: rotateZ(0deg) translateY(3px) translateX(0px);  }
  50%{ transform: rotateZ(-2deg) translateY(30px) translateX(10px);}
  100%{ transform: rotateZ(0deg) translateY(3px) translateX(0px); }
}
     #less{
   animation: less 6s ease infinite;
 }
 @keyframes less{
  0%{ transform: rotateZ(0deg) translateY(3px) translateX(0px);  }
  50%{ transform: rotateZ(-2deg) translateY(35px) translateX(0px);}
  100%{ transform: rotateZ(0deg) translateY(3px) translateX(0px); }
}
     #golge{
   animation: golge 6s ease infinite;
 }
 @keyframes golge{
  0%{opacity: 0.3}
  50%{opacity: 1;}
  100%{opacity: 0.3;}
}
      .cls-1 {
        fill: #f2f2e4;
      }

      .cls-2 {
        fill: url(#radial-gradient);
      }

      .cls-3 {
        fill: #050505;
      }
    </style>
    <radialGradient id="radial-gradient" cx="297.64" cy="-1007.43" r="331.56" gradientTransform="translate(0 861.45) scale(1 0.13)" gradientUnits="userSpaceOnUse">
      <stop offset="0" stop-opacity="0.5"/>
      <stop offset="0.47" stop-color="#f7f7f7" stop-opacity="0.04"/>
    </radialGradient>
  </defs>
  <rect class="cls-1" width="595.28" height="841.89"/>
  <g id="subat2021">
    <path d="M249.5,810.46a2.14,2.14,0,0,0-.53-1.57,6,6,0,0,0-1.94-1.11,9.07,9.07,0,0,1-3.69-2.28,4.58,4.58,0,0,1-1.13-3.09,4.32,4.32,0,0,1,1.53-3.46,6.36,6.36,0,0,1,6.69-.65,4.66,4.66,0,0,1,1.89,1.87,5.65,5.65,0,0,1,.66,2.75h-3.43a2.85,2.85,0,0,0-.51-1.83,1.77,1.77,0,0,0-1.47-.62,1.84,1.84,0,0,0-1.41.53,2,2,0,0,0-.5,1.43,1.76,1.76,0,0,0,.56,1.28,6.49,6.49,0,0,0,2,1.17,8.59,8.59,0,0,1,3.63,2.22,5,5,0,0,1,1.13,3.34,4.4,4.4,0,0,1-1.42,3.48,5.63,5.63,0,0,1-3.85,1.25,6.57,6.57,0,0,1-3-.68,5.1,5.1,0,0,1-2.12-1.94,5.69,5.69,0,0,1-.77-3h3.46a3.26,3.26,0,0,0,.57,2.14,2.34,2.34,0,0,0,1.88.67C248.9,812.37,249.5,811.74,249.5,810.46Zm-.63,4.4-.11.68a1.66,1.66,0,0,1,1.05.67,2.27,2.27,0,0,1,.37,1.35,2.48,2.48,0,0,1-.93,2,4.09,4.09,0,0,1-2.64.75l-.07-2c.57,0,.85-.32.85-1a.7.7,0,0,0-.3-.65,2.29,2.29,0,0,0-1-.25l.32-1.67Z"/>
    <path d="M261.32,813.78a3.24,3.24,0,0,1-2.76,1.39,3.11,3.11,0,0,1-2.65-1.2,5.78,5.78,0,0,1-.9-3.5v-8.21h3.31v8.3c0,1.23.43,1.85,1.24,1.85a1.72,1.72,0,0,0,1.64-1v-9.16h3.34v12.68h-3.12Z"/>
    <path d="M276.79,809a8.68,8.68,0,0,1-1,4.62,3.4,3.4,0,0,1-3.09,1.54,3,3,0,0,1-2.65-1.49l-.11,1.26H266.9v-18h3.32v6.35a2.94,2.94,0,0,1,2.47-1.27,3.42,3.42,0,0,1,3.1,1.53,8.51,8.51,0,0,1,1,4.49Zm-3.31-.83a6.13,6.13,0,0,0-.39-2.69,1.42,1.42,0,0,0-1.35-.69,1.6,1.6,0,0,0-1.52,1v5.78a1.59,1.59,0,0,0,1.55.89,1.39,1.39,0,0,0,1.31-.62,5.45,5.45,0,0,0,.4-2.42Z"/>
    <path d="M284.81,814.94a4.64,4.64,0,0,1-.28-1,2.83,2.83,0,0,1-2.42,1.22,3.58,3.58,0,0,1-2.64-1,3.71,3.71,0,0,1-1.05-2.73,3.85,3.85,0,0,1,1.27-3.08,5.58,5.58,0,0,1,3.67-1.12h1v-1a1.85,1.85,0,0,0-.29-1.2,1,1,0,0,0-.85-.36c-.83,0-1.25.49-1.25,1.46h-3.31a3.67,3.67,0,0,1,1.32-2.9,4.9,4.9,0,0,1,3.33-1.15,4.52,4.52,0,0,1,3.23,1.09,4.06,4.06,0,0,1,1.14,3.1v6a6.27,6.27,0,0,0,.47,2.57v.2Zm-2-2.37a1.84,1.84,0,0,0,.94-.22,1.55,1.55,0,0,0,.57-.53v-2.64h-.79a1.68,1.68,0,0,0-1.33.54,2.05,2.05,0,0,0-.49,1.45C281.75,812.1,282.12,812.57,282.85,812.57Z"/>
    <path d="M293.94,799.14v3.12h1.7v2.48h-1.7v6.31a1.92,1.92,0,0,0,.2,1,.92.92,0,0,0,.79.28,3.37,3.37,0,0,0,.79-.08l0,2.58a5.25,5.25,0,0,1-1.83.31c-2.14,0-3.22-1.22-3.25-3.68v-6.75h-1.46v-2.48h1.46v-3.12Z"/>
    <path d="M313,814.94H302.89v-2.35l4.62-5.87a12.35,12.35,0,0,0,1.29-2.14,4.23,4.23,0,0,0,.42-1.76,3.43,3.43,0,0,0-.39-1.78,1.26,1.26,0,0,0-1.13-.64,1.47,1.47,0,0,0-1.29.75,4,4,0,0,0-.47,2.1h-3.33a6.4,6.4,0,0,1,.65-2.87,4.84,4.84,0,0,1,1.83-2,5,5,0,0,1,2.66-.72,4.39,4.39,0,0,1,4.81,4.84,6.8,6.8,0,0,1-.7,2.93,18.44,18.44,0,0,1-2.52,3.65l-2.2,3.12H313Z"/>
    <path d="M325,807.88a9.54,9.54,0,0,1-1.29,5.42,4.53,4.53,0,0,1-7.3.05,9.24,9.24,0,0,1-1.33-5.22v-3.22a9.57,9.57,0,0,1,1.28-5.4,4.54,4.54,0,0,1,7.33,0,9.36,9.36,0,0,1,1.31,5.29Zm-3.33-3.45a8.87,8.87,0,0,0-.4-3,1.33,1.33,0,0,0-1.24-1c-1.06,0-1.6,1.23-1.64,3.69v4.25a8.73,8.73,0,0,0,.4,3.07,1.35,1.35,0,0,0,1.26,1,1.29,1.29,0,0,0,1.2-.94,8.4,8.4,0,0,0,.42-2.89Z"/>
    <path d="M337.23,814.94H327.17v-2.35l4.62-5.87a11.75,11.75,0,0,0,1.29-2.14,4.23,4.23,0,0,0,.42-1.76,3.43,3.43,0,0,0-.39-1.78,1.24,1.24,0,0,0-1.13-.64,1.47,1.47,0,0,0-1.29.75,4,4,0,0,0-.47,2.1h-3.33a6.4,6.4,0,0,1,.65-2.87,4.84,4.84,0,0,1,1.83-2,5,5,0,0,1,2.67-.72,4.79,4.79,0,0,1,3.54,1.26,4.84,4.84,0,0,1,1.26,3.58,6.8,6.8,0,0,1-.7,2.93,18,18,0,0,1-2.52,3.65l-2.19,3.12h5.8Z"/>
    <path d="M346.61,814.94h-3.32v-13L340,803.16V800.4l6.22-2.55h.35Z"/>
  </g>
  <g id="markut">
    <path d="M179.75,31,192.64,71.3,205.53,31h8V80.39h-6.21V61.16l.58-19.26L195,80.39h-4.75L177.38,42,178,61.16V80.39h-6.21V31Z"/>
    <path d="M251.32,67.47H234.64l-3.83,12.92h-6.38L240.33,31h5.33L261.6,80.39h-6.38Zm-15.06-5.32h13.47L243,39.7Z"/>
    <path d="M286.7,60.42H278v20h-6.24V31h13.84q7.26,0,11,3.78t3.73,11.07a15.47,15.47,0,0,1-2,8A12.74,12.74,0,0,1,292.6,59l9.57,21v.41h-6.68ZM278,55.09h7.53a8,8,0,0,0,6.22-2.51,9.53,9.53,0,0,0,2.33-6.73q0-9.51-8.62-9.51H278Z"/>
    <path d="M323.17,57.64l-4.85,5.86V80.39h-6.2V31h6.2V54.86l4.07-5.4L335.69,31h7.46l-16,21.73L344.4,80.39H337Z"/>
    <path d="M382.87,31V66.11q-.06,7-4.07,11t-11.16,4q-7.32,0-11.18-3.88t-3.94-11.08V31h6.17V65.85q0,5,2.12,7.44t6.83,2.46q4.75,0,6.87-2.46t2.12-7.44V31Z"/>
    <path d="M424.77,36.34h-13V80.39h-6.21v-44H392.62V31h32.15Z"/>
  </g>
  <g id="entas">
    <path d="M179,96.53h-5.32v5.33h6.2v1.62h-8.09v-15h8v1.62h-6.1v4.85H179Z"/>
    <path d="M184.79,92.3l.06,1.21a3.26,3.26,0,0,1,2.71-1.41q3,0,3,4v7.42h-1.82V96.14a3,3,0,0,0-.44-1.87,1.59,1.59,0,0,0-1.31-.55,1.87,1.87,0,0,0-1.23.45,3.34,3.34,0,0,0-.87,1.19v8.12h-1.83V92.3Z"/>
    <path d="M194,97.39a6.78,6.78,0,0,1,1-3.94,3.22,3.22,0,0,1,2.78-1.35,2.87,2.87,0,0,1,2.5,1.3V87.61h1.82v15.87h-1.67l-.09-1.19a2.89,2.89,0,0,1-2.57,1.4,3.2,3.2,0,0,1-2.73-1.35,6.48,6.48,0,0,1-1-3.8Zm1.83,1a5.33,5.33,0,0,0,.56,2.76,2,2,0,0,0,1.82.88,2.18,2.18,0,0,0,2-1.37V95.06a2.21,2.21,0,0,0-2-1.34,2,2,0,0,0-1.82.88,5.28,5.28,0,0,0-.57,2.71Z"/>
    <path d="M211.63,102.5a3.15,3.15,0,0,1-2.66,1.19,2.66,2.66,0,0,1-2.29-1,5.11,5.11,0,0,1-.79-3V92.3h1.82v7.16c0,1.74.52,2.61,1.57,2.61a2.29,2.29,0,0,0,2.29-1.49V92.3h1.83v11.18h-1.73Zm-5.29-13.19a1.12,1.12,0,0,1,.28-.78,1.08,1.08,0,0,1,.84-.32,1.1,1.1,0,0,1,.85.32,1.12,1.12,0,0,1,.29.78,1,1,0,0,1-1.14,1.09,1.07,1.07,0,0,1-.84-.31A1.1,1.1,0,0,1,206.34,89.31Zm4.44,0a1.12,1.12,0,0,1,.28-.78,1.25,1.25,0,0,1,1.69,0,1.12,1.12,0,0,1,.29.78,1,1,0,0,1-1.14,1.09,1,1,0,0,1-1.12-1.09Z"/>
    <path d="M222.64,100.62a1.33,1.33,0,0,0-.44-1,6.76,6.76,0,0,0-1.72-1,11.72,11.72,0,0,1-2.08-1.05,2.87,2.87,0,0,1-.9-1,2.74,2.74,0,0,1-.3-1.32,2.93,2.93,0,0,1,1-2.27,4.08,4.08,0,0,1,5.17,0,3.23,3.23,0,0,1,1,2.44h-1.82A1.8,1.8,0,0,0,222,94.2a1.7,1.7,0,0,0-1.29-.53,1.79,1.79,0,0,0-1.26.42A1.41,1.41,0,0,0,219,95.2a1.25,1.25,0,0,0,.33.9A6.05,6.05,0,0,0,221,97a8.22,8.22,0,0,1,2.77,1.55,2.66,2.66,0,0,1,.73,1.93,3,3,0,0,1-1,2.34,4,4,0,0,1-2.69.87,4,4,0,0,1-2.83-1,3.33,3.33,0,0,1-1.08-2.54h1.84a1.9,1.9,0,0,0,2.07,2,2,2,0,0,0,1.39-.41A1.39,1.39,0,0,0,222.64,100.62Z"/>
    <path d="M230.3,89.6v2.7H232v1.48H230.3v6.94a1.94,1.94,0,0,0,.22,1,.81.81,0,0,0,.75.34A2.37,2.37,0,0,0,232,102l0,1.54a4.26,4.26,0,0,1-1.27.2,1.94,1.94,0,0,1-1.66-.77,3.73,3.73,0,0,1-.56-2.19v-7h-1.71V92.3h1.71V89.6Z"/>
    <path d="M239.83,94A4.25,4.25,0,0,0,239,94a2,2,0,0,0-2,1.54v8h-1.82V92.3H237l0,1.14a2.29,2.29,0,0,1,2.08-1.34,1.68,1.68,0,0,1,.72.14Z"/>
    <path d="M244.83,89.34a1.16,1.16,0,0,1-.26.77,1.14,1.14,0,0,1-1.56,0,1.16,1.16,0,0,1-.26-.77,1.25,1.25,0,0,1,.26-.79,1.1,1.1,0,0,1,1.56,0A1.24,1.24,0,0,1,244.83,89.34Zm-.15,14.14h-1.82V92.3h1.82Z"/>
    <path d="M251.67,100.45l2-8.15h1.94L252,105.07a5,5,0,0,1-1.16,2.18,2.39,2.39,0,0,1-1.72.75,3.67,3.67,0,0,1-1-.17v-1.55l.4,0a1.9,1.9,0,0,0,1.25-.38,2.72,2.72,0,0,0,.73-1.31l.36-1.25L247.61,92.3h2Z"/>
    <path d="M262.35,103.69a4.07,4.07,0,0,1-3.2-1.24A5.34,5.34,0,0,1,258,98.79V97.44a6.28,6.28,0,0,1,1.09-3.92,3.62,3.62,0,0,1,3-1.42,3.5,3.5,0,0,1,2.93,1.25,6.36,6.36,0,0,1,1,3.89v1.2h-6.24v.26a4.06,4.06,0,0,0,.68,2.61,2.36,2.36,0,0,0,1.94.82,3.23,3.23,0,0,0,1.43-.3,3.77,3.77,0,0,0,1.15-1l1,1.16A4.16,4.16,0,0,1,262.35,103.69Zm-.2-10a1.93,1.93,0,0,0-1.69.78,4.7,4.7,0,0,0-.62,2.42h4.4v-.25a4.34,4.34,0,0,0-.57-2.27A1.78,1.78,0,0,0,262.15,93.67Z"/>
    <path d="M271.29,103.48h-1.83V87.61h1.83Z"/>
    <path d="M289.76,90.06h-3.95v13.42h-1.89V90.06H280V88.44h9.79Z"/>
    <path d="M297.37,103.48a4,4,0,0,1-.24-1.21,2.89,2.89,0,0,1-2.48,1.42,3.2,3.2,0,0,1-2.37-.85,3.28,3.28,0,0,1-.85-2.4,3.41,3.41,0,0,1,1.16-2.71,4.73,4.73,0,0,1,3.17-1h1.34V95.52a1.56,1.56,0,0,0-1.79-1.85,1.87,1.87,0,0,0-1.35.49,1.65,1.65,0,0,0-.51,1.24h-1.83a3,3,0,0,1,.5-1.63,3.62,3.62,0,0,1,1.37-1.23,4.16,4.16,0,0,1,1.91-.44A3.65,3.65,0,0,1,298,93a3.35,3.35,0,0,1,.91,2.49v5.64a7.07,7.07,0,0,0,.35,2.24v.16ZM294.93,102a2.53,2.53,0,0,0,1.29-.37,2.3,2.3,0,0,0,.88-.93V98.06h-1a3.5,3.5,0,0,0-2.06.58,1.86,1.86,0,0,0-.75,1.58,2.09,2.09,0,0,0,.38,1.38A1.7,1.7,0,0,0,294.93,102Z"/>
    <path d="M308.25,100.62a1.34,1.34,0,0,0-.45-1,6.65,6.65,0,0,0-1.71-1A11,11,0,0,1,304,97.57a2.81,2.81,0,0,1-.91-1,2.74,2.74,0,0,1-.3-1.32,2.93,2.93,0,0,1,1-2.27,4.08,4.08,0,0,1,5.17,0,3.23,3.23,0,0,1,1,2.44h-1.82a1.83,1.83,0,0,0-.5-1.29,1.73,1.73,0,0,0-1.29-.53,1.82,1.82,0,0,0-1.27.42,1.41,1.41,0,0,0-.46,1.11,1.21,1.21,0,0,0,.34.9,5.78,5.78,0,0,0,1.61.9,8.22,8.22,0,0,1,2.77,1.55,2.66,2.66,0,0,1,.73,1.93,3,3,0,0,1-1,2.34,4,4,0,0,1-2.68.87,4,4,0,0,1-2.84-1,3.33,3.33,0,0,1-1.08-2.54h1.84a2.19,2.19,0,0,0,3.46,1.57A1.37,1.37,0,0,0,308.25,100.62Z"/>
    <path d="M319.27,103.48a3.71,3.71,0,0,1-.24-1.21,2.91,2.91,0,0,1-2.48,1.42,3.19,3.19,0,0,1-2.37-.85,3.25,3.25,0,0,1-.86-2.4,3.41,3.41,0,0,1,1.16-2.71,4.73,4.73,0,0,1,3.17-1H319V95.52a1.57,1.57,0,0,0-1.8-1.85,1.84,1.84,0,0,0-1.34.49,1.62,1.62,0,0,0-.52,1.24h-1.83a2.93,2.93,0,0,1,.51-1.63,3.52,3.52,0,0,1,1.36-1.23,4.16,4.16,0,0,1,1.91-.44,3.63,3.63,0,0,1,2.61.85,3.32,3.32,0,0,1,.91,2.49v5.64a6.78,6.78,0,0,0,.36,2.24v.16ZM316.83,102a2.52,2.52,0,0,0,1.28-.37,2.39,2.39,0,0,0,.89-.93V98.06h-1a3.46,3.46,0,0,0-2,.58,1.85,1.85,0,0,0-.76,1.58,2,2,0,0,0,.39,1.38A1.67,1.67,0,0,0,316.83,102Z"/>
    <path d="M329.32,94a4.25,4.25,0,0,0-.82-.07,2,2,0,0,0-2,1.54v8H324.7V92.3h1.78l0,1.14a2.28,2.28,0,0,1,2.08-1.34,1.68,1.68,0,0,1,.72.14Z"/>
    <path d="M334.17,103.48h-1.83V92.3h1.83Z"/>
    <path d="M340,92.3l0,1a3.33,3.33,0,0,1,2.7-1.24,2.63,2.63,0,0,1,2.61,1.62,3.33,3.33,0,0,1,2.94-1.62q3.09,0,3.16,3.85v7.53h-1.82V96.13a3.11,3.11,0,0,0-.43-1.82,1.72,1.72,0,0,0-1.47-.59,1.63,1.63,0,0,0-1.34.64,2.85,2.85,0,0,0-.6,1.63v7.49H343.9V96c0-1.54-.65-2.32-1.89-2.32a2,2,0,0,0-2,1.38v8.38h-1.81V92.3Z"/>
    <path d="M361.37,103.48v-15H365A5.16,5.16,0,0,1,369,90.09a6.72,6.72,0,0,1,1.46,4.63v2.52a6.63,6.63,0,0,1-1.48,4.62,5.49,5.49,0,0,1-4.28,1.62Zm1.89-13.42v11.8h1.52a3.51,3.51,0,0,0,2.91-1.14,5.39,5.39,0,0,0,.94-3.39V94.67a5.49,5.49,0,0,0-.91-3.5A3.38,3.38,0,0,0,365,90.06Z"/>
    <path d="M378.24,103.69a4.08,4.08,0,0,1-3.2-1.24,5.45,5.45,0,0,1-1.14-3.66V97.44a6.28,6.28,0,0,1,1.1-3.92,3.6,3.6,0,0,1,3-1.42A3.49,3.49,0,0,1,381,93.35a6.36,6.36,0,0,1,1,3.89v1.2h-6.24v.26a4.06,4.06,0,0,0,.68,2.61,2.37,2.37,0,0,0,2,.82,3.22,3.22,0,0,0,1.42-.3,3.65,3.65,0,0,0,1.15-1l.95,1.16A4.16,4.16,0,0,1,378.24,103.69Zm-.2-10a1.93,1.93,0,0,0-1.69.78,4.7,4.7,0,0,0-.62,2.42h4.4v-.25a4.15,4.15,0,0,0-.57-2.27A1.77,1.77,0,0,0,378,93.67Z"/>
    <path d="M389.83,94A4.25,4.25,0,0,0,389,94a2,2,0,0,0-2,1.54v8h-1.83V92.3H387l0,1.14a2.28,2.28,0,0,1,2.08-1.34,1.68,1.68,0,0,1,.72.14Z"/>
    <path d="M392.15,97.39a6.83,6.83,0,0,1,1-4,3.17,3.17,0,0,1,2.78-1.34,2.84,2.84,0,0,1,2.59,1.45l.1-1.25h1.65v11.29a4.45,4.45,0,0,1-1.06,3.19,3.92,3.92,0,0,1-3,1.11,5.1,5.1,0,0,1-1.85-.41,3.83,3.83,0,0,1-1.55-1l.75-1.26a3.51,3.51,0,0,0,2.5,1.12c1.53,0,2.31-.83,2.35-2.49v-1.46a2.87,2.87,0,0,1-2.52,1.31,3.17,3.17,0,0,1-2.71-1.31,6.46,6.46,0,0,1-1-3.75Zm1.83,1a5.34,5.34,0,0,0,.55,2.76,2,2,0,0,0,1.82.88,2.19,2.19,0,0,0,2-1.39V95.09a2.21,2.21,0,0,0-2-1.37,2,2,0,0,0-1.82.88,5.28,5.28,0,0,0-.57,2.71Z"/>
    <path d="M406.11,89.34a1.11,1.11,0,0,1-.26.77.94.94,0,0,1-.78.31,1,1,0,0,1-.78-.31,1.15,1.15,0,0,1-.25-.77,1.24,1.24,0,0,1,.25-.79,1,1,0,0,1,.78-.32,1,1,0,0,1,.78.33A1.19,1.19,0,0,1,406.11,89.34ZM406,103.48h-1.83V92.3H406Z"/>
    <path d="M415.33,100.62a1.33,1.33,0,0,0-.44-1,6.76,6.76,0,0,0-1.72-1,11.37,11.37,0,0,1-2.08-1.05,2.87,2.87,0,0,1-.9-1,2.74,2.74,0,0,1-.3-1.32,3,3,0,0,1,1-2.27,4.09,4.09,0,0,1,5.18,0,3.23,3.23,0,0,1,1,2.44h-1.82a1.8,1.8,0,0,0-.51-1.29,1.7,1.7,0,0,0-1.29-.53,1.78,1.78,0,0,0-1.26.42,1.41,1.41,0,0,0-.46,1.11,1.25,1.25,0,0,0,.33.9,5.88,5.88,0,0,0,1.62.9,8.22,8.22,0,0,1,2.77,1.55,2.66,2.66,0,0,1,.73,1.93,3,3,0,0,1-1,2.34,4,4,0,0,1-2.69.87,4,4,0,0,1-2.83-1,3.33,3.33,0,0,1-1.08-2.54h1.84a2.19,2.19,0,0,0,3.46,1.57A1.39,1.39,0,0,0,415.33,100.62Z"/>
    <path d="M422.71,89.34a1.15,1.15,0,0,1-.25.77,1,1,0,0,1-.79.31.93.93,0,0,1-.77-.31,1.11,1.11,0,0,1-.26-.77,1.19,1.19,0,0,1,.26-.79.94.94,0,0,1,.77-.32.92.92,0,0,1,.78.33A1.19,1.19,0,0,1,422.71,89.34Zm-.14,14.14h-1.83V92.3h1.83Z"/>
  </g>
  <g id="less">
    <path d="M338.92,257.12h3.5v22.74H355.5v3.08H338.92Z"/>
    <path d="M359.28,257.12H378.1v3.16H362.69v7.84h14.25v3H362.69v8.75h15.68v3.08H359.28Z"/>
    <path d="M385.24,274.61a7,7,0,0,0,1,3.56c1.16,1.72,3.2,2.57,6.13,2.57a11,11,0,0,0,3.59-.56c2.08-.73,3.13-2,3.13-3.9a3.37,3.37,0,0,0-1.32-3,13.17,13.17,0,0,0-4.18-1.53l-3.5-.79a15.64,15.64,0,0,1-4.85-1.71,5.38,5.38,0,0,1-2.46-4.83,7.45,7.45,0,0,1,2.4-5.71q2.41-2.24,6.82-2.23a11.81,11.81,0,0,1,6.9,2c1.9,1.3,2.84,3.39,2.84,6.26H398.5a6.57,6.57,0,0,0-1.13-3.18q-1.61-2-5.43-2c-2.06,0-3.55.43-4.45,1.3a4.07,4.07,0,0,0-1.35,3,3,3,0,0,0,1.58,2.78,23.39,23.39,0,0,0,4.69,1.41l3.62.82a11.16,11.16,0,0,1,4.05,1.64,6.11,6.11,0,0,1,2.46,5.25q0,4.29-3.12,6.14a14,14,0,0,1-7.25,1.84c-3.21,0-5.73-.82-7.54-2.46a8.3,8.3,0,0,1-2.68-6.62Z"/>
    <path d="M409.25,274.61a7,7,0,0,0,1,3.56c1.16,1.72,3.21,2.57,6.13,2.57a11,11,0,0,0,3.59-.56q3.14-1.1,3.13-3.9a3.37,3.37,0,0,0-1.32-3,13.07,13.07,0,0,0-4.18-1.53l-3.5-.79a15.64,15.64,0,0,1-4.85-1.71,5.38,5.38,0,0,1-2.46-4.83,7.43,7.43,0,0,1,2.41-5.71q2.4-2.24,6.82-2.23a11.85,11.85,0,0,1,6.9,2q2.84,1.95,2.83,6.26h-3.28a6.46,6.46,0,0,0-1.13-3.18c-1.06-1.35-2.88-2-5.43-2-2.06,0-3.54.43-4.45,1.3a4.07,4.07,0,0,0-1.35,3,3,3,0,0,0,1.58,2.78,23.39,23.39,0,0,0,4.69,1.41l3.63.82a11.18,11.18,0,0,1,4,1.64,6.11,6.11,0,0,1,2.46,5.25q0,4.29-3.12,6.14a14,14,0,0,1-7.25,1.84c-3.21,0-5.73-.82-7.54-2.46a8.26,8.26,0,0,1-2.67-6.62Z"/>
    <path d="M359.52,300.32h11.1q4.53,0,6.45,2.7a6.27,6.27,0,0,1,1.12,3.69,5.79,5.79,0,0,1-1.39,4,6.68,6.68,0,0,1-2.07,1.51,9,9,0,0,1,3,1.71,6.18,6.18,0,0,1,1.74,4.66,7.18,7.18,0,0,1-1.56,4.51q-2.34,3-7.44,3H359.52Zm9.8,10.91a7.85,7.85,0,0,0,3.44-.61,3.55,3.55,0,0,0,1.93-3.48,3.34,3.34,0,0,0-2.05-3.41,9.21,9.21,0,0,0-3.45-.5H363v8Zm1.17,11.92q3.22,0,4.59-1.86a4.68,4.68,0,0,0,.86-2.85,3.79,3.79,0,0,0-2.51-3.83,9.37,9.37,0,0,0-3.53-.55H363v9.09Z"/>
    <path d="M387.42,300.32v16a9.3,9.3,0,0,0,1.06,4.67,5.53,5.53,0,0,0,5.27,2.82q4.44,0,6.05-3a9.71,9.71,0,0,0,.86-4.44v-16h3.55v14.5a16.72,16.72,0,0,1-1.29,7.33q-2.35,4.68-8.89,4.67t-8.88-4.67a16.88,16.88,0,0,1-1.28-7.33v-14.5Z"/>
    <path d="M428.41,300.32v3.07h-8.7v22.75h-3.55V303.39h-8.7v-3.07Z"/>
    <path d="M288.88,343.52H300q4.53,0,6.45,2.7a6.27,6.27,0,0,1,1.13,3.69,5.84,5.84,0,0,1-1.39,4,6.62,6.62,0,0,1-2.08,1.51,8.8,8.8,0,0,1,3,1.71,6.18,6.18,0,0,1,1.74,4.66,7.18,7.18,0,0,1-1.56,4.51q-2.34,3-7.44,3H288.88Zm9.79,10.91a7.82,7.82,0,0,0,3.44-.61,3.56,3.56,0,0,0,1.94-3.48,3.35,3.35,0,0,0-2.06-3.41,9.15,9.15,0,0,0-3.44-.5h-6.24v8Zm1.18,11.92q3.21,0,4.58-1.86a4.68,4.68,0,0,0,.87-2.85,3.78,3.78,0,0,0-2.52-3.83,9.37,9.37,0,0,0-3.53-.55h-6.94v9.09Z"/>
    <path d="M313.31,343.52h18.83v3.16H316.72v7.84H331v3H316.72v8.75H332.4v3.08H313.31Z"/>
    <path d="M355.78,343.52v3.07h-8.7v22.75h-3.55V346.59h-8.7v-3.07Z"/>
    <path d="M377.77,343.52v3.07h-8.7v22.75h-3.55V346.59h-8.7v-3.07Z"/>
    <path d="M381.3,343.52h18.83v3.16H384.71v7.84H399v3H384.71v8.75h15.68v3.08H381.3Z"/>
    <path d="M405.4,343.52h12a11.84,11.84,0,0,1,4.87.86q3.63,1.65,3.63,6.1a6.35,6.35,0,0,1-3.63,6.17,5.36,5.36,0,0,1,2.27,1.61,5.77,5.77,0,0,1,.85,3.26l.13,3.46a10.37,10.37,0,0,0,.24,2.2,2.17,2.17,0,0,0,1.13,1.58v.58h-4.29a3.1,3.1,0,0,1-.28-.86,16.92,16.92,0,0,1-.18-2l-.21-4.31a3.61,3.61,0,0,0-1.88-3.39,7.73,7.73,0,0,0-3.15-.48h-8v11.08h-3.5ZM417,355.35a6.73,6.73,0,0,0,3.89-1c1-.65,1.43-1.84,1.43-3.55a3.8,3.8,0,0,0-2-3.76,6.59,6.59,0,0,0-2.87-.53H408.9v8.83Z"/>
  </g>
  <ellipse id="golge" class="cls-2" cx="297.64" cy="734.93" rx="243.69" ry="16.86"/>
  <g id="noktalar">
    <path d="M417.78,215.29a3.73,3.73,0,0,0,7.43.62,3.75,3.75,0,0,0-.82-2.75,3.7,3.7,0,0,0-2.54-1.29A3.77,3.77,0,0,0,417.78,215.29Z"/>
    <path d="M402.85,214.41a3.67,3.67,0,0,0,3.55,3.82,3.79,3.79,0,0,0,3.89-3.53,3.67,3.67,0,0,0-3.55-3.91A3.76,3.76,0,0,0,402.85,214.41Z"/>
    <path d="M387.88,214.23a3.67,3.67,0,0,0,3.73,3.64,3.73,3.73,0,1,0,0-7.45A3.79,3.79,0,0,0,387.88,214.23Z"/>
    <path d="M372.94,214.92a3.71,3.71,0,0,0,3.94,3.45,3.84,3.84,0,0,0,3.49-4,3.64,3.64,0,0,0-3.95-3.48A3.74,3.74,0,0,0,372.94,214.92Z"/>
    <path d="M358.05,216.48a3.72,3.72,0,1,0,7.39-.92,3.66,3.66,0,0,0-4.14-3.24A3.71,3.71,0,0,0,358.05,216.48Z"/>
    <path d="M343.29,218.91a3.72,3.72,0,0,0,7.33-1.3,3.7,3.7,0,0,0-4.33-3A3.64,3.64,0,0,0,343.29,218.91Z"/>
    <path d="M328.71,222.27a3.79,3.79,0,0,0,4.5,2.71,3.71,3.71,0,0,0,2.74-4.45,3.75,3.75,0,0,0-4.52-2.78A3.64,3.64,0,0,0,328.71,222.27Z"/>
    <path d="M314.36,226.53a3.73,3.73,0,0,0,7.11-2.22,3.73,3.73,0,1,0-7.11,2.22Z"/>
    <path d="M300.29,231.62a3.73,3.73,0,0,0,4.79,2.13,3.82,3.82,0,0,0,2.15-4.82,3.63,3.63,0,0,0-4.79-2.15A3.73,3.73,0,0,0,300.29,231.62Z"/>
    <path d="M286.54,237.53a3.72,3.72,0,1,0,6.79-3.06,3.72,3.72,0,1,0-6.79,3.06Z"/>
    <path d="M273.17,244.25a3.82,3.82,0,0,0,5,1.58,3.73,3.73,0,0,0-3.46-6.6A3.64,3.64,0,0,0,273.17,244.25Z"/>
    <path d="M260.26,251.83a3.73,3.73,0,0,0,6.38-3.85,3.73,3.73,0,1,0-6.38,3.85Z"/>
    <path d="M247.82,260.14a3.73,3.73,0,1,0,3.72-5.86,3.65,3.65,0,0,0-2.79.64A3.73,3.73,0,0,0,247.82,260.14Z"/>
    <path d="M235.88,269.15a3.72,3.72,0,1,0,5.86-4.59,3.72,3.72,0,1,0-5.86,4.59Z"/>
    <path d="M224.48,278.85a3.82,3.82,0,0,0,5.27.34,3.72,3.72,0,0,0-4.93-5.58A3.64,3.64,0,0,0,224.48,278.85Z"/>
    <path d="M213.74,289.27A3.72,3.72,0,0,0,219,284a3.72,3.72,0,1,0-5.29,5.24Z"/>
    <path d="M203.62,300.29a3.77,3.77,0,1,0-.33-5.28A3.7,3.7,0,0,0,203.62,300.29Z"/>
    <path d="M194.15,311.88a3.72,3.72,0,1,0,4.61-5.85,3.72,3.72,0,0,0-4.61,5.85Z"/>
    <path d="M185.37,324a3.83,3.83,0,0,0,5.2-.91,3.72,3.72,0,0,0-6.11-4.26A3.63,3.63,0,0,0,185.37,324Z"/>
    <path d="M177.41,336.67a3.72,3.72,0,0,0,3.89-6.35,3.72,3.72,0,1,0-3.89,6.35Z"/>
    <path d="M170.2,349.78a3.7,3.7,0,0,0,5-1.56,3.77,3.77,0,0,0,.23-2.83,3.7,3.7,0,0,0-1.77-2.21,3.76,3.76,0,0,0-2.85-.31,3.68,3.68,0,0,0-2.19,1.85A3.75,3.75,0,0,0,170.2,349.78Z"/>
    <path d="M163.75,363.29a3.73,3.73,0,0,0,3.09-6.78,3.73,3.73,0,0,0-3.09,6.78Z"/>
    <path d="M158.11,377.15A3.83,3.83,0,0,0,163,375a3.72,3.72,0,1,0-7-2.68A3.64,3.64,0,0,0,158.11,377.15Z"/>
    <path d="M153.41,391.36a3.74,3.74,0,0,0,2.82-.28,3.92,3.92,0,0,0,1.8-2.16,3.67,3.67,0,0,0-2.35-4.65,3.77,3.77,0,0,0-4.75,2.39,3.59,3.59,0,0,0,.26,2.88A3.78,3.78,0,0,0,153.41,391.36Z"/>
    <path d="M149.55,405.81A3.68,3.68,0,0,0,154,403.1a3.77,3.77,0,0,0-2.67-4.51,3.66,3.66,0,0,0-4.55,2.69A3.75,3.75,0,0,0,149.55,405.81Z"/>
    <path d="M146.55,420.47a3.73,3.73,0,0,0,4.32-3,3.81,3.81,0,0,0-3-4.36,3.66,3.66,0,0,0-4.32,3A3.71,3.71,0,0,0,146.55,420.47Z"/>
    <path d="M144.41,435.28a3.72,3.72,0,1,0,1-7.38,3.72,3.72,0,1,0-1,7.38Z"/>
    <path d="M143.15,450.2a3.84,3.84,0,0,0,4-3.47,3.72,3.72,0,0,0-7.43-.5A3.64,3.64,0,0,0,143.15,450.2Z"/>
    <path d="M142.86,465.16a3.74,3.74,0,0,0,2.61-1.1,3.66,3.66,0,0,0,.77-1.17,3.79,3.79,0,0,0,.33-1.43,3.69,3.69,0,0,0-3.62-3.75,3.78,3.78,0,0,0-3.83,3.7,3.59,3.59,0,0,0,.26,1.47,4,4,0,0,0,.82,1.2A3.72,3.72,0,0,0,142.86,465.16Z"/>
    <path d="M143.57,480.1a3.73,3.73,0,0,0,3.44-4,3.82,3.82,0,0,0-4-3.47,3.63,3.63,0,0,0-3.47,3.95A3.71,3.71,0,0,0,143.57,480.1Z"/>
    <path d="M145.36,495a3.79,3.79,0,0,0,3.13-4.2,3.72,3.72,0,1,0-7.37,1A3.66,3.66,0,0,0,145.36,495Z"/>
    <path d="M148.29,509.63a3.73,3.73,0,0,0,2.81-4.42,3.82,3.82,0,0,0-4.44-2.84,3.64,3.64,0,0,0-2.84,4.43A3.7,3.7,0,0,0,148.29,509.63Z"/>
    <path d="M152.3,524.05a3.78,3.78,0,0,0,2.46-4.63,3.73,3.73,0,1,0-2.46,4.63Z"/>
    <path d="M157.4,538.11a3.75,3.75,0,0,0,2.12-4.8,3.82,3.82,0,0,0-4.83-2.13,3.62,3.62,0,0,0-2.12,4.8A3.69,3.69,0,0,0,157.4,538.11Z"/>
    <path d="M163.55,551.75a3.72,3.72,0,1,0-5-1.74A3.74,3.74,0,0,0,163.55,551.75Z"/>
    <path d="M170.69,564.9a3.72,3.72,0,1,0-3.7-6.46,3.72,3.72,0,1,0,3.7,6.46Z"/>
    <path d="M178.83,577.46a3.73,3.73,0,0,0-4.16-6.18,3.73,3.73,0,1,0,4.16,6.18Z"/>
    <path d="M193.65,576.72a3.73,3.73,0,0,0-4.16-6.18,3.73,3.73,0,1,0,4.16,6.18Z"/>
    <path d="M187.83,589.41a3.72,3.72,0,1,0-4.59-5.86,3.72,3.72,0,0,0,4.59,5.86Z"/>
    <path d="M197.77,600.6a3.7,3.7,0,0,0,.18-5.22,3.9,3.9,0,0,0-2.54-1.19,3.73,3.73,0,0,0-3.93,3.51,3.51,3.51,0,0,0,1,2.71A3.73,3.73,0,0,0,197.77,600.6Z"/>
    <path d="M208.46,611.07a3.77,3.77,0,0,0,1-2.67,3.69,3.69,0,0,0-1.13-2.59,3.72,3.72,0,0,0-5.1,5.43,3.78,3.78,0,0,0,2.68,1A3.69,3.69,0,0,0,208.46,611.07Z"/>
    <path d="M231.27,628.59a3.76,3.76,0,0,0-1-5.14,3.72,3.72,0,0,0-4.23,6.12A3.66,3.66,0,0,0,231.27,628.59Z"/>
    <path d="M220.07,619.14a3.78,3.78,0,0,0-1-5.15,3.73,3.73,0,0,0-4.24,6.13A3.67,3.67,0,0,0,220.07,619.14Z"/>
    <path d="M244.85,637.21a3.76,3.76,0,0,0-1.34-5.08,3.8,3.8,0,0,0-5.1,1.35,3.64,3.64,0,0,0,1.34,5.08A3.69,3.69,0,0,0,244.85,637.21Z"/>
    <path d="M326.82,650.28a3.76,3.76,0,0,0-5.12-1.15,3.67,3.67,0,0,0-1.61,2.31,3.73,3.73,0,0,0,2.73,4.51,3.73,3.73,0,0,0,2.84-.52A3.68,3.68,0,0,0,326.82,650.28Z"/>
    <path d="M344.58,643.08a3.76,3.76,0,0,0-5.2-.66,3.83,3.83,0,0,0-1.38,2.45,3.7,3.7,0,0,0,3.13,4.23,3.59,3.59,0,0,0,2.78-.77A3.69,3.69,0,0,0,344.58,643.08Z"/>
    <circle class="cls-3" cx="300" cy="530.54" r="4.34"/>
    <circle class="cls-3" cx="320.39" cy="530.58" r="4.34"/>
    <circle class="cls-3" cx="310.23" cy="512.9" r="4.34"/>
    <circle class="cls-3" cx="289.85" cy="512.86" r="4.34"/>
    <circle class="cls-3" cx="279.62" cy="530.49" r="4.34"/>
    <circle class="cls-3" cx="289.77" cy="548.17" r="4.34"/>
    <circle class="cls-3" cx="310.16" cy="548.21" r="4.34"/>
    <circle class="cls-3" cx="340.78" cy="530.62" r="4.34"/>
    <circle class="cls-3" cx="335.36" cy="510.22" r="4.34"/>
    <circle class="cls-3" cx="320.46" cy="495.27" r="4.34"/>
    <circle class="cls-3" cx="300.09" cy="489.76" r="4.34"/>
    <circle class="cls-3" cx="279.69" cy="495.18" r="4.34"/>
    <circle class="cls-3" cx="264.74" cy="510.08" r="4.34"/>
    <circle class="cls-3" cx="259.23" cy="530.45" r="4.34"/>
    <circle class="cls-3" cx="264.65" cy="550.85" r="4.34"/>
    <circle class="cls-3" cx="279.55" cy="565.8" r="4.34"/>
    <circle class="cls-3" cx="299.92" cy="571.31" r="4.34"/>
    <circle class="cls-3" cx="320.32" cy="565.89" r="4.34"/>
    <circle class="cls-3" cx="335.27" cy="550.99" r="4.34"/>
    <circle class="cls-3" cx="361.16" cy="530.66" r="4.34"/>
    <circle class="cls-3" cx="358.21" cy="511.76" r="4.34"/>
    <circle class="cls-3" cx="349.56" cy="494.69" r="4.34"/>
    <circle class="cls-3" cx="336.05" cy="481.13" r="4.34"/>
    <circle class="cls-3" cx="319.02" cy="472.41" r="4.34"/>
    <circle class="cls-3" cx="300.13" cy="469.38" r="4.34"/>
    <circle class="cls-3" cx="281.23" cy="472.33" r="4.34"/>
    <circle class="cls-3" cx="264.16" cy="480.98" r="4.34"/>
    <circle class="cls-3" cx="250.6" cy="494.49" r="4.34"/>
    <circle class="cls-3" cx="241.88" cy="511.52" r="4.34"/>
    <circle class="cls-3" cx="238.85" cy="530.41" r="4.34"/>
    <circle class="cls-3" cx="241.8" cy="549.31" r="4.34"/>
    <circle class="cls-3" cx="250.45" cy="566.38" r="4.34"/>
    <circle class="cls-3" cx="263.95" cy="579.94" r="4.34"/>
    <circle class="cls-3" cx="280.99" cy="588.66" r="4.34"/>
    <circle class="cls-3" cx="299.88" cy="591.69" r="4.34"/>
    <circle class="cls-3" cx="318.78" cy="588.74" r="4.34"/>
    <circle class="cls-3" cx="335.85" cy="580.09" r="4.34"/>
    <circle class="cls-3" cx="349.41" cy="566.59" r="4.34"/>
    <circle class="cls-3" cx="358.13" cy="549.55" r="4.34"/>
    <circle class="cls-3" cx="381.55" cy="530.7" r="4.34"/>
    <circle class="cls-3" cx="378.81" cy="509.59" r="4.34"/>
    <circle class="cls-3" cx="370.71" cy="489.91" r="4.34"/>
    <circle class="cls-3" cx="357.78" cy="473" r="4.34"/>
    <circle class="cls-3" cx="340.92" cy="460" r="4.34"/>
    <circle class="cls-3" cx="321.27" cy="451.82" r="4.34"/>
    <circle class="cls-3" cx="300.17" cy="448.99" r="4.34"/>
    <circle class="cls-3" cx="279.06" cy="451.73" r="4.34"/>
    <circle class="cls-3" cx="259.38" cy="459.83" r="4.34"/>
    <circle class="cls-3" cx="242.46" cy="472.76" r="4.34"/>
    <circle class="cls-3" cx="229.47" cy="489.62" r="4.34"/>
    <circle class="cls-3" cx="221.28" cy="509.27" r="4.34"/>
    <circle class="cls-3" cx="218.46" cy="530.37" r="4.34"/>
    <circle class="cls-3" cx="221.2" cy="551.48" r="4.34"/>
    <circle class="cls-3" cx="229.3" cy="571.16" r="4.34"/>
    <circle class="cls-3" cx="242.23" cy="588.08" r="4.34"/>
    <circle class="cls-3" cx="259.09" cy="601.07" r="4.34"/>
    <circle class="cls-3" cx="278.74" cy="609.26" r="4.34"/>
    <circle class="cls-3" cx="299.84" cy="612.08" r="4.34"/>
    <circle class="cls-3" cx="320.95" cy="609.34" r="4.34"/>
    <circle class="cls-3" cx="340.63" cy="601.24" r="4.34"/>
    <circle class="cls-3" cx="357.54" cy="588.31" r="4.34"/>
    <circle class="cls-3" cx="370.54" cy="571.45" r="4.34"/>
    <circle class="cls-3" cx="378.72" cy="551.8" r="4.34"/>
    <circle class="cls-3" cx="401.93" cy="530.75" r="4.34"/>
    <circle class="cls-3" cx="400.02" cy="510.86" r="4.34"/>
    <circle class="cls-3" cx="394.25" cy="491.72" r="4.34"/>
    <circle class="cls-3" cx="384.87" cy="474.08" r="4.34"/>
    <circle class="cls-3" cx="372.23" cy="458.61" r="4.34"/>
    <circle class="cls-3" cx="356.81" cy="445.9" r="4.34"/>
    <circle class="cls-3" cx="339.2" cy="436.45" r="4.34"/>
    <circle class="cls-3" cx="320.1" cy="430.61" r="4.34"/>
    <circle class="cls-3" cx="300.21" cy="428.61" r="4.34"/>
    <circle class="cls-3" cx="280.32" cy="430.52" r="4.34"/>
    <circle class="cls-3" cx="261.19" cy="436.29" r="4.34"/>
    <circle class="cls-3" cx="243.55" cy="445.67" r="4.34"/>
    <circle class="cls-3" cx="228.08" cy="458.31" r="4.34"/>
    <circle class="cls-3" cx="215.37" cy="473.73" r="4.34"/>
    <circle class="cls-3" cx="205.91" cy="491.34" r="4.34"/>
    <circle class="cls-3" cx="200.07" cy="510.44" r="4.34"/>
    <circle class="cls-3" cx="198.08" cy="530.33" r="4.34"/>
    <circle class="cls-3" cx="199.99" cy="550.22" r="4.34"/>
    <circle class="cls-3" cx="205.75" cy="569.35" r="4.34"/>
    <circle class="cls-3" cx="215.14" cy="586.99" r="4.34"/>
    <circle class="cls-3" cx="227.78" cy="602.46" r="4.34"/>
    <circle class="cls-3" cx="243.2" cy="615.17" r="4.34"/>
    <circle class="cls-3" cx="260.8" cy="624.63" r="4.34"/>
    <circle class="cls-3" cx="279.91" cy="630.47" r="4.34"/>
    <circle class="cls-3" cx="299.79" cy="632.46" r="4.34"/>
    <circle class="cls-3" cx="319.68" cy="630.55" r="4.34"/>
    <circle class="cls-3" cx="338.82" cy="624.79" r="4.34"/>
    <circle class="cls-3" cx="356.46" cy="615.4" r="4.34"/>
    <circle class="cls-3" cx="371.93" cy="602.76" r="4.34"/>
    <circle class="cls-3" cx="384.64" cy="587.34" r="4.34"/>
    <circle class="cls-3" cx="394.09" cy="569.74" r="4.34"/>
    <circle class="cls-3" cx="399.93" cy="550.63" r="4.34"/>
    <circle class="cls-3" cx="422.32" cy="530.79" r="4.34"/>
    <circle class="cls-3" cx="420.5" cy="509.54" r="4.34"/>
    <circle class="cls-3" cx="415.03" cy="488.94" r="4.34"/>
    <circle class="cls-3" cx="406.06" cy="469.6" r="4.34"/>
    <circle class="cls-3" cx="393.86" cy="452.11" r="4.34"/>
    <circle class="cls-3" cx="378.82" cy="437" r="4.34"/>
    <circle class="cls-3" cx="361.38" cy="424.73" r="4.34"/>
    <circle class="cls-3" cx="342.07" cy="415.68" r="4.34"/>
    <circle class="cls-3" cx="321.49" cy="410.12" r="4.34"/>
    <circle class="cls-3" cx="300.26" cy="408.22" r="4.34"/>
    <circle class="cls-3" cx="279.01" cy="410.04" r="4.34"/>
    <circle class="cls-3" cx="258.41" cy="415.51" r="4.34"/>
    <circle class="cls-3" cx="239.07" cy="424.48" r="4.34"/>
    <circle class="cls-3" cx="221.57" cy="436.68" r="4.34"/>
    <circle class="cls-3" cx="206.47" cy="451.72" r="4.34"/>
    <circle class="cls-3" cx="194.2" cy="469.16" r="4.34"/>
    <circle class="cls-3" cx="185.15" cy="488.47" r="4.34"/>
    <circle class="cls-3" cx="179.59" cy="509.05" r="4.34"/>
    <circle class="cls-3" cx="177.69" cy="530.28" r="4.34"/>
    <circle class="cls-3" cx="179.5" cy="551.53" r="4.34"/>
    <circle class="cls-3" cx="206.14" cy="608.97" r="4.34"/>
    <circle class="cls-3" cx="257.93" cy="645.39" r="4.34"/>
    <circle class="cls-3" cx="278.52" cy="650.95" r="4.34"/>
    <circle class="cls-3" cx="299.75" cy="652.85" r="4.34"/>
    <circle class="cls-3" cx="341.6" cy="645.56" r="4.34"/>
    <circle class="cls-3" cx="360.94" cy="636.59" r="4.34"/>
    <circle class="cls-3" cx="378.43" cy="624.4" r="4.34"/>
    <circle class="cls-3" cx="393.54" cy="609.35" r="4.34"/>
    <circle class="cls-3" cx="405.81" cy="591.91" r="4.34"/>
    <circle class="cls-3" cx="414.86" cy="572.61" r="4.34"/>
    <circle class="cls-3" cx="420.42" cy="552.02" r="4.34"/>
  </g>
</svg>
