<?xml version="1.0" encoding="utf-8"?>
<!-- Generator: Adobe Illustrator 24.3.0, SVG Export Plug-In . SVG Version: 6.00 Build 0)  -->
<svg version="1.1" id="Layer_1" xmlns="http://www.w3.org/2000/svg" xmlns:xlink="http://www.w3.org/1999/xlink" x="0px" y="0px"
	 viewBox="0 0 115.8 163.7" style="enable-background:new 0 0 115.8 163.7;" xml:space="preserve">
<style type="text/css">
	.st0{fill:#9879B4;}
	.st1{fill:#8A6BA9;}
	.st2{fill:#FCECF1;}
	.st3{fill:#5E418C;}
	.st4{fill:#6D4494;}
	.st5{fill:#422564;}
	.st6{fill:#804895;}
	.st7{fill:#FCD177;}
	.st8{fill:#9C79B3;}
	.st9{fill:#EE7C12;}
	.st10{fill:#F5BC27;}
	.st11{fill:#4F2A84;}
	.st12{fill:#EE7D30;}
	.st13{fill:#FFFFFF;}
	.st14{fill:#7D401E;}
	.st15{fill:#E8E10C;}
	.st16{fill:#C92540;}
	.st17{fill:#DD1D39;}
	.st18{fill:#924794;}
	.st19{fill:#BD1F2F;}
	.st20{fill:#799E3D;}
	.st21{fill:#E62F50;}
	.st22{fill:#8EBF46;}
	.st23{fill:#E41F2A;}
	.st24{fill:#ECEB9C;}
	.st25{fill:#099339;}
	.st26{fill:#E1DD00;}
	.st27{fill:#FFFFFB;}
	.st28{fill:#2F5BA6;}
	.st29{fill:#FDD82D;}
	.st30{fill:#F7EC73;}
	.st31{fill:#244F24;}
	.st32{fill:#71144B;}
	.st33{fill:#AECA3B;}
	.st34{fill:#1F0B19;}
	.st35{fill:#EA5B1F;}
	.st36{fill:#2A4B9A;}
	.st37{fill:#234891;}
	.st38{fill:#272A5D;}
	.st39{fill:#020303;}
	.st40{fill:#E20D17;}
	.st41{fill:#BF181A;}
	.st42{fill:#F2F9FB;}
	.st43{fill:#DBEDFB;}
	.st44{fill:#D1A923;}
	.st45{fill:#E1BB2B;}
	.st46{fill:#DD272B;}
	.st47{fill:#FAD139;}
	.st48{fill:#432566;}
	.st49{fill:#552883;}
	.st50{fill:#DE4E4D;}
	.st51{fill:#CC1417;}
	.st52{fill:#62AB30;}
	.st53{fill:#4C6B29;}
	.st54{fill:#5D102F;}
	.st55{fill:#DB254D;}
	.st56{fill:#7F1336;}
	.st57{fill:#24132C;}
	.st58{fill:#F4B5A7;}
	.st59{fill:#E4164A;stroke:#E4164A;stroke-width:2.4354;stroke-miterlimit:10;}
	.st60{fill:#E30137;}
	.st61{fill:#F6C0CF;}
	.st62{fill:#C49C13;}
	.st63{fill:#263683;}
	.st64{fill:#C6991A;}
	.st65{fill:#9C1A17;}
	.st66{fill:#C7C5C5;}
	.st67{fill:#2A327E;}
	.st68{fill:#EEEEEC;}
	.st69{fill:#254090;}
	.st70{fill:#E8EBF7;}
	.st71{fill:#F6C320;}
	.st72{fill:#5E3289;}
	.st73{fill:#FFFAF2;}
	.st74{fill:#F9F1C6;}
	.st75{fill:#513177;}
</style>
<rect x="0" class="st0" width="115.8" height="163.9"/>
<polygon class="st1" points="115.9,12 115.9,127.9 110.2,127.9 110.2,99.9 113,99.9 113,91.9 104.6,91.9 104.6,48 70.7,48 
	70.7,91.9 62.2,91.9 62.2,99.9 65,99.9 65,127.9 0,127.9 0,67.9 17,67.9 17,64 22.6,64 22.6,60 39.6,60 39.6,55.9 42.4,55.9 
	42.4,48 48,48 48,51.9 50.9,51.9 50.9,48 53.7,48 53.7,40 56.5,40 56.5,36 62.2,36 62.2,28 67.8,28 67.8,24 70.7,24 70.7,20 
	84.8,20 84.8,16 104.6,16 104.6,12 "/>
<g>
	<path class="st2" d="M32.3,3.6l2.6,8.1l2.6-8.1h1.6v10h-1.3V9.7L38,5.8l-2.6,7.8h-1l-2.6-7.7l0.1,3.9v3.9h-1.3v-10H32.3z"/>
	<path class="st2" d="M47.4,11h-3.4l-0.8,2.6H42l3.2-10h1.1l3.2,10h-1.3L47.4,11z M44.4,9.9h2.7l-1.4-4.5L44.4,9.9z"/>
	<path class="st2" d="M55.3,9.6h-1.8v4h-1.3v-10H55c1,0,1.7,0.3,2.2,0.8C57.8,4.9,58,5.7,58,6.6c0,0.6-0.1,1.2-0.4,1.6
		c-0.3,0.5-0.7,0.8-1.2,1l1.9,4.2v0.1H57L55.3,9.6z M53.5,8.5H55c0.5,0,0.9-0.2,1.3-0.5s0.5-0.8,0.5-1.4c0-1.3-0.6-1.9-1.7-1.9h-1.5
		V8.5z"/>
	<path class="st2" d="M63.3,9l-1,1.2v3.4h-1.3v-10h1.3v4.8l0.8-1.1l2.7-3.7h1.5L64.1,8l3.5,5.6h-1.5L63.3,9z"/>
	<path class="st2" d="M76,3.6v7.1c0,0.9-0.3,1.7-0.8,2.2c-0.5,0.5-1.3,0.8-2.2,0.8c-1,0-1.7-0.3-2.3-0.8c-0.5-0.5-0.8-1.3-0.8-2.2
		V3.6h1.2v7c0,0.7,0.1,1.2,0.4,1.5s0.7,0.5,1.4,0.5c0.6,0,1.1-0.2,1.4-0.5c0.3-0.3,0.4-0.8,0.4-1.5v-7H76z"/>
	<path class="st2" d="M85.2,4.7h-2.6v8.9h-1.3V4.7h-2.6V3.6h6.5V4.7z"/>
</g>
<g>
	<path class="st2" d="M32.4,17.7h-1.2v1.2h1.4v0.4h-1.9v-3.5h1.8v0.4h-1.4v1.1h1.2V17.7z"/>
	<path class="st2" d="M33.6,16.7l0,0.3c0.2-0.2,0.4-0.3,0.6-0.3c0.5,0,0.7,0.3,0.7,0.9v1.7h-0.4v-1.7c0-0.2,0-0.3-0.1-0.4
		c-0.1-0.1-0.2-0.1-0.3-0.1c-0.1,0-0.2,0-0.3,0.1c-0.1,0.1-0.1,0.2-0.2,0.3v1.9h-0.4v-2.6H33.6z"/>
	<path class="st2" d="M35.6,17.9c0-0.4,0.1-0.7,0.2-0.9c0.1-0.2,0.4-0.3,0.6-0.3c0.2,0,0.4,0.1,0.6,0.3v-1.3h0.4v3.6H37l0-0.3
		c-0.1,0.2-0.3,0.3-0.6,0.3c-0.3,0-0.5-0.1-0.6-0.3c-0.2-0.2-0.2-0.5-0.2-0.9V17.9z M36,18.1c0,0.3,0,0.5,0.1,0.6s0.2,0.2,0.4,0.2
		c0.2,0,0.4-0.1,0.5-0.3v-1.3c-0.1-0.2-0.3-0.3-0.5-0.3c-0.2,0-0.3,0.1-0.4,0.2C36,17.4,36,17.6,36,17.9V18.1z"/>
	<path class="st2" d="M39.5,19.1c-0.1,0.2-0.3,0.3-0.6,0.3c-0.2,0-0.4-0.1-0.5-0.2c-0.1-0.2-0.2-0.4-0.2-0.7v-1.7h0.4v1.6
		c0,0.4,0.1,0.6,0.4,0.6c0.3,0,0.4-0.1,0.5-0.3v-1.9h0.4v2.6h-0.4L39.5,19.1z M38.3,16c0-0.1,0-0.1,0.1-0.2c0,0,0.1-0.1,0.2-0.1
		c0.1,0,0.1,0,0.2,0.1c0,0,0.1,0.1,0.1,0.2c0,0.1,0,0.1-0.1,0.2c0,0-0.1,0.1-0.2,0.1c-0.1,0-0.1,0-0.2-0.1
		C38.3,16.2,38.3,16.1,38.3,16z M39.3,16c0-0.1,0-0.1,0.1-0.2c0,0,0.1-0.1,0.2-0.1c0.1,0,0.2,0,0.2,0.1c0,0,0.1,0.1,0.1,0.2
		c0,0.1,0,0.1-0.1,0.2c0,0-0.1,0.1-0.2,0.1c-0.1,0-0.1,0-0.2-0.1C39.3,16.2,39.3,16.1,39.3,16z"/>
	<path class="st2" d="M41.9,18.6c0-0.1,0-0.2-0.1-0.2c-0.1-0.1-0.2-0.1-0.4-0.2c-0.2-0.1-0.4-0.2-0.5-0.2c-0.1-0.1-0.2-0.1-0.2-0.2
		c0-0.1-0.1-0.2-0.1-0.3c0-0.2,0.1-0.4,0.2-0.5c0.2-0.1,0.3-0.2,0.6-0.2c0.2,0,0.4,0.1,0.6,0.2c0.2,0.1,0.2,0.3,0.2,0.6h-0.4
		c0-0.1,0-0.2-0.1-0.3S41.6,17,41.5,17c-0.1,0-0.2,0-0.3,0.1c-0.1,0.1-0.1,0.1-0.1,0.3c0,0.1,0,0.2,0.1,0.2c0.1,0.1,0.2,0.1,0.4,0.2
		c0.3,0.1,0.5,0.2,0.6,0.4c0.1,0.1,0.2,0.3,0.2,0.4c0,0.2-0.1,0.4-0.2,0.5c-0.2,0.1-0.4,0.2-0.6,0.2c-0.3,0-0.5-0.1-0.6-0.2
		c-0.2-0.2-0.2-0.3-0.2-0.6H41c0,0.1,0,0.3,0.1,0.3s0.2,0.1,0.3,0.1c0.1,0,0.2,0,0.3-0.1C41.9,18.8,41.9,18.7,41.9,18.6z"/>
	<path class="st2" d="M43.5,16.1v0.6h0.4v0.3h-0.4v1.6c0,0.1,0,0.2,0,0.2c0,0.1,0.1,0.1,0.2,0.1c0.1,0,0.1,0,0.2,0l0,0.4
		c-0.1,0-0.2,0-0.3,0c-0.2,0-0.3-0.1-0.4-0.2c-0.1-0.1-0.1-0.3-0.1-0.5v-1.6h-0.4v-0.3h0.4v-0.6H43.5z"/>
	<path class="st2" d="M45.6,17.1c-0.1,0-0.1,0-0.2,0c-0.2,0-0.4,0.1-0.4,0.4v1.8h-0.4v-2.6H45l0,0.3c0.1-0.2,0.3-0.3,0.5-0.3
		c0.1,0,0.1,0,0.2,0L45.6,17.1z"/>
	<path class="st2" d="M46.6,16c0,0.1,0,0.1-0.1,0.2c0,0-0.1,0.1-0.2,0.1c-0.1,0-0.1,0-0.2-0.1c0,0-0.1-0.1-0.1-0.2
		c0-0.1,0-0.1,0.1-0.2c0,0,0.1-0.1,0.2-0.1s0.1,0,0.2,0.1C46.6,15.9,46.6,16,46.6,16z M46.6,19.3h-0.4v-2.6h0.4V19.3z"/>
	<path class="st2" d="M48.1,18.6l0.5-1.9H49l-0.8,2.9c-0.1,0.2-0.2,0.4-0.3,0.5c-0.1,0.1-0.2,0.2-0.4,0.2c-0.1,0-0.1,0-0.2,0v-0.4
		l0.1,0c0.1,0,0.2,0,0.3-0.1c0.1-0.1,0.1-0.2,0.2-0.3l0.1-0.3l-0.8-2.5h0.5L48.1,18.6z"/>
	<path class="st2" d="M50.4,19.3c-0.3,0-0.6-0.1-0.7-0.3c-0.2-0.2-0.3-0.5-0.3-0.8v-0.3c0-0.4,0.1-0.7,0.3-0.9
		c0.2-0.2,0.4-0.3,0.7-0.3c0.3,0,0.5,0.1,0.7,0.3c0.1,0.2,0.2,0.5,0.2,0.9v0.3h-1.4v0.1c0,0.3,0.1,0.5,0.2,0.6
		c0.1,0.1,0.3,0.2,0.4,0.2c0.1,0,0.2,0,0.3-0.1c0.1,0,0.2-0.1,0.3-0.2l0.2,0.3C51.1,19.2,50.8,19.3,50.4,19.3z M50.4,17
		c-0.2,0-0.3,0.1-0.4,0.2c-0.1,0.1-0.1,0.3-0.1,0.6h1v-0.1c0-0.2-0.1-0.4-0.1-0.5C50.6,17.1,50.5,17,50.4,17z"/>
	<path class="st2" d="M52.3,19.3h-0.4v-3.6h0.4V19.3z"/>
	<path class="st2" d="M56.3,16.2h-0.9v3.1H55v-3.1h-0.9v-0.4h2.2V16.2z"/>
	<path class="st2" d="M58,19.3c0-0.1,0-0.1-0.1-0.3c-0.1,0.2-0.3,0.3-0.6,0.3c-0.2,0-0.4-0.1-0.5-0.2c-0.1-0.1-0.2-0.3-0.2-0.6
		c0-0.3,0.1-0.5,0.3-0.6c0.2-0.2,0.4-0.2,0.7-0.2h0.3v-0.3c0-0.2,0-0.3-0.1-0.3c-0.1-0.1-0.2-0.1-0.3-0.1c-0.1,0-0.2,0-0.3,0.1
		s-0.1,0.2-0.1,0.3h-0.4c0-0.1,0-0.3,0.1-0.4c0.1-0.1,0.2-0.2,0.3-0.3c0.1-0.1,0.3-0.1,0.4-0.1c0.3,0,0.5,0.1,0.6,0.2
		c0.1,0.1,0.2,0.3,0.2,0.6v1.3c0,0.2,0,0.4,0.1,0.5v0H58z M57.4,19c0.1,0,0.2,0,0.3-0.1c0.1-0.1,0.2-0.1,0.2-0.2V18h-0.2
		c-0.2,0-0.4,0-0.5,0.1c-0.1,0.1-0.2,0.2-0.2,0.4c0,0.1,0,0.3,0.1,0.3C57.2,18.9,57.3,19,57.4,19z"/>
	<path class="st2" d="M60.3,18.6c0-0.1,0-0.2-0.1-0.2c-0.1-0.1-0.2-0.1-0.4-0.2c-0.2-0.1-0.4-0.2-0.5-0.2c-0.1-0.1-0.2-0.1-0.2-0.2
		c0-0.1-0.1-0.2-0.1-0.3c0-0.2,0.1-0.4,0.2-0.5c0.2-0.1,0.3-0.2,0.6-0.2c0.2,0,0.4,0.1,0.6,0.2c0.2,0.1,0.2,0.3,0.2,0.6h-0.4
		c0-0.1,0-0.2-0.1-0.3S60,17,59.9,17c-0.1,0-0.2,0-0.3,0.1c-0.1,0.1-0.1,0.1-0.1,0.3c0,0.1,0,0.2,0.1,0.2c0.1,0.1,0.2,0.1,0.4,0.2
		c0.3,0.1,0.5,0.2,0.6,0.4c0.1,0.1,0.2,0.3,0.2,0.4c0,0.2-0.1,0.4-0.2,0.5c-0.2,0.1-0.4,0.2-0.6,0.2c-0.3,0-0.5-0.1-0.6-0.2
		C59.1,19,59,18.8,59,18.5h0.4c0,0.1,0,0.3,0.1,0.3s0.2,0.1,0.3,0.1c0.1,0,0.2,0,0.3-0.1C60.3,18.8,60.3,18.7,60.3,18.6z"/>
	<path class="st2" d="M62.7,19.3c0-0.1,0-0.1-0.1-0.3c-0.1,0.2-0.3,0.3-0.6,0.3c-0.2,0-0.4-0.1-0.5-0.2c-0.1-0.1-0.2-0.3-0.2-0.6
		c0-0.3,0.1-0.5,0.3-0.6c0.2-0.2,0.4-0.2,0.7-0.2h0.3v-0.3c0-0.2,0-0.3-0.1-0.3c-0.1-0.1-0.2-0.1-0.3-0.1c-0.1,0-0.2,0-0.3,0.1
		s-0.1,0.2-0.1,0.3h-0.4c0-0.1,0-0.3,0.1-0.4c0.1-0.1,0.2-0.2,0.3-0.3c0.1-0.1,0.3-0.1,0.4-0.1c0.3,0,0.5,0.1,0.6,0.2
		c0.1,0.1,0.2,0.3,0.2,0.6v1.3c0,0.2,0,0.4,0.1,0.5v0H62.7z M62.2,19c0.1,0,0.2,0,0.3-0.1c0.1-0.1,0.2-0.1,0.2-0.2V18h-0.2
		c-0.2,0-0.4,0-0.5,0.1c-0.1,0.1-0.2,0.2-0.2,0.4c0,0.1,0,0.3,0.1,0.3C61.9,18.9,62,19,62.2,19z"/>
	<path class="st2" d="M64.9,17.1c-0.1,0-0.1,0-0.2,0c-0.2,0-0.4,0.1-0.4,0.4v1.8h-0.4v-2.6h0.4l0,0.3c0.1-0.2,0.3-0.3,0.5-0.3
		c0.1,0,0.1,0,0.2,0L64.9,17.1z"/>
	<path class="st2" d="M65.9,19.3h-0.4v-2.6h0.4V19.3z"/>
	<path class="st2" d="M67.1,16.7l0,0.2c0.2-0.2,0.4-0.3,0.6-0.3c0.3,0,0.5,0.1,0.6,0.4c0.2-0.2,0.4-0.4,0.7-0.4
		c0.5,0,0.7,0.3,0.7,0.9v1.7h-0.4v-1.7c0-0.2,0-0.3-0.1-0.4c-0.1-0.1-0.2-0.1-0.3-0.1c-0.1,0-0.2,0-0.3,0.1
		c-0.1,0.1-0.1,0.2-0.1,0.4v1.7H68v-1.7c0-0.4-0.1-0.5-0.4-0.5c-0.2,0-0.4,0.1-0.4,0.3v1.9h-0.4v-2.6H67.1z"/>
	<path class="st2" d="M71.8,19.3v-3.5h0.8c0.4,0,0.7,0.1,0.9,0.4c0.2,0.3,0.3,0.6,0.3,1.1v0.6c0,0.5-0.1,0.8-0.3,1.1
		c-0.2,0.2-0.6,0.4-1,0.4H71.8z M72.2,16.2v2.7h0.3c0.3,0,0.5-0.1,0.7-0.3c0.1-0.2,0.2-0.4,0.2-0.8v-0.6c0-0.4-0.1-0.6-0.2-0.8
		c-0.1-0.2-0.4-0.3-0.6-0.3H72.2z"/>
	<path class="st2" d="M75.5,19.3c-0.3,0-0.6-0.1-0.7-0.3c-0.2-0.2-0.3-0.5-0.3-0.8v-0.3c0-0.4,0.1-0.7,0.3-0.9
		c0.2-0.2,0.4-0.3,0.7-0.3c0.3,0,0.5,0.1,0.7,0.3c0.1,0.2,0.2,0.5,0.2,0.9v0.3H75v0.1c0,0.3,0.1,0.5,0.2,0.6
		c0.1,0.1,0.3,0.2,0.4,0.2c0.1,0,0.2,0,0.3-0.1c0.1,0,0.2-0.1,0.3-0.2l0.2,0.3C76.2,19.2,75.9,19.3,75.5,19.3z M75.5,17
		c-0.2,0-0.3,0.1-0.4,0.2C75,17.3,75,17.5,75,17.8h1v-0.1c0-0.2-0.1-0.4-0.1-0.5C75.8,17.1,75.7,17,75.5,17z"/>
	<path class="st2" d="M78.1,17.1c-0.1,0-0.1,0-0.2,0c-0.2,0-0.4,0.1-0.4,0.4v1.8H77v-2.6h0.4l0,0.3c0.1-0.2,0.3-0.3,0.5-0.3
		c0.1,0,0.1,0,0.2,0L78.1,17.1z"/>
	<path class="st2" d="M78.5,17.9c0-0.4,0.1-0.7,0.2-0.9c0.1-0.2,0.4-0.3,0.6-0.3c0.3,0,0.5,0.1,0.6,0.3l0-0.3h0.4v2.6
		c0,0.3-0.1,0.6-0.2,0.7c-0.2,0.2-0.4,0.3-0.7,0.3c-0.1,0-0.3,0-0.4-0.1c-0.2-0.1-0.3-0.1-0.4-0.2l0.2-0.3c0.2,0.2,0.4,0.3,0.6,0.3
		c0.3,0,0.5-0.2,0.5-0.6V19c-0.1,0.2-0.3,0.3-0.6,0.3c-0.3,0-0.5-0.1-0.6-0.3c-0.1-0.2-0.2-0.5-0.2-0.9V17.9z M78.9,18.1
		c0,0.3,0,0.5,0.1,0.6c0.1,0.1,0.2,0.2,0.4,0.2c0.2,0,0.4-0.1,0.5-0.3v-1.3c-0.1-0.2-0.3-0.3-0.5-0.3c-0.2,0-0.3,0.1-0.4,0.2
		c-0.1,0.1-0.1,0.3-0.1,0.6V18.1z"/>
	<path class="st2" d="M81.6,16c0,0.1,0,0.1-0.1,0.2c0,0-0.1,0.1-0.2,0.1c-0.1,0-0.1,0-0.2-0.1c0,0-0.1-0.1-0.1-0.2
		c0-0.1,0-0.1,0.1-0.2c0,0,0.1-0.1,0.2-0.1c0.1,0,0.1,0,0.2,0.1C81.6,15.9,81.6,16,81.6,16z M81.5,19.3h-0.4v-2.6h0.4V19.3z"/>
	<path class="st2" d="M83.6,18.6c0-0.1,0-0.2-0.1-0.2c-0.1-0.1-0.2-0.1-0.4-0.2c-0.2-0.1-0.4-0.2-0.5-0.2c-0.1-0.1-0.2-0.1-0.2-0.2
		c0-0.1-0.1-0.2-0.1-0.3c0-0.2,0.1-0.4,0.2-0.5c0.2-0.1,0.3-0.2,0.6-0.2c0.2,0,0.4,0.1,0.6,0.2c0.2,0.1,0.2,0.3,0.2,0.6h-0.4
		c0-0.1,0-0.2-0.1-0.3c-0.1-0.1-0.2-0.1-0.3-0.1c-0.1,0-0.2,0-0.3,0.1c-0.1,0.1-0.1,0.1-0.1,0.3c0,0.1,0,0.2,0.1,0.2
		c0.1,0.1,0.2,0.1,0.4,0.2c0.3,0.1,0.5,0.2,0.6,0.4c0.1,0.1,0.2,0.3,0.2,0.4c0,0.2-0.1,0.4-0.2,0.5c-0.2,0.1-0.4,0.2-0.6,0.2
		c-0.3,0-0.5-0.1-0.6-0.2c-0.2-0.2-0.2-0.3-0.2-0.6h0.4c0,0.1,0,0.3,0.1,0.3c0.1,0.1,0.2,0.1,0.3,0.1c0.1,0,0.2,0,0.3-0.1
		C83.5,18.8,83.6,18.7,83.6,18.6z"/>
	<path class="st2" d="M85.1,16c0,0.1,0,0.1-0.1,0.2c0,0-0.1,0.1-0.2,0.1c-0.1,0-0.1,0-0.2-0.1c0,0-0.1-0.1-0.1-0.2
		c0-0.1,0-0.1,0.1-0.2c0,0,0.1-0.1,0.2-0.1c0.1,0,0.1,0,0.2,0.1C85.1,15.9,85.1,16,85.1,16z M85.1,19.3h-0.4v-2.6h0.4V19.3z"/>
</g>
<polygon class="st0" points="113,91.9 113,99.9 110.2,99.9 110.2,127.9 65,127.9 65,99.9 62.2,99.9 62.2,91.9 70.7,91.9 70.7,48 
	104.6,48 104.6,91.9 "/>
<polygon class="st3" points="115.9,127.9 115.9,163.9 0,163.9 0,127.9 48,127.9 48,131.9 45.2,131.9 45.2,139.9 48,139.9 48,143.9 
	50.9,143.9 50.9,147.9 110.2,147.9 110.2,143.9 104.6,143.9 104.6,139.9 113,139.9 113,135.9 110.2,135.9 110.2,131.9 107.4,131.9 
	107.4,127.9 "/>
<polygon class="st4" points="104.6,139.9 104.6,143.9 110.2,143.9 110.2,147.9 50.9,147.9 50.9,143.9 48,143.9 48,139.9 45.2,139.9 
	45.2,131.9 48,131.9 48,127.9 73.5,127.9 73.5,131.9 76.3,131.9 76.3,135.9 79.1,135.9 79.1,139.9 90.4,139.9 90.4,135.9 
	93.3,135.9 93.3,131.9 98.9,131.9 98.9,127.9 107.4,127.9 107.4,131.9 110.2,131.9 110.2,135.9 113,135.9 113,139.9 "/>
<polygon class="st5" points="113.2,94.5 113.2,128 101.5,128 101.5,126.5 104.5,126.5 104.5,119.3 105.9,119.3 105.9,113.4 
	104.5,113.4 104.5,100.4 66.7,100.4 66.7,113.4 65.2,113.4 65.2,116.4 66.7,116.4 66.7,125.1 65.2,125.1 65.2,126.5 66.7,126.5 
	66.7,128 57.9,128 57.9,94.5 "/>
<rect x="100.1" y="112" class="st4" width="1.4" height="1.4"/>
<path class="st6" d="M104.5,113.4v-4.4h-2.9v1.5h-2.9v2.9h-1.5V112h-4.4v2.9h1.5v2.9h4.4v-1.4h1.5v4.4h1.4v5.8h2.9v-7.3h1.5v-5.8
	C105.9,113.4,104.5,113.4,104.5,113.4z M101.5,113.4h-1.4V112h1.4V113.4z"/>
<polygon class="st4" points="104.5,100.4 104.5,109.1 101.5,109.1 101.5,110.5 98.6,110.5 98.6,113.4 97.2,113.4 97.2,112 91.4,112 
	91.4,110.5 88.5,110.5 88.5,112 87,112 87,109.1 85.6,109.1 85.6,107.6 78.3,107.6 78.3,110.5 73.9,110.5 73.9,109.1 76.8,109.1 
	76.8,107.6 72.5,107.6 72.5,104.7 75.4,104.7 75.4,103.3 76.8,103.3 76.8,100.4 "/>
<g>
	<polygon class="st7" points="84.1,110.5 84.1,110.5 84.1,109.1 82.6,109.1 82.6,110.5 82.6,110.5 82.6,112 82.6,113.4 81.2,113.4 
		81.2,113.4 79.7,113.4 79.7,112 78.3,112 78.3,113.4 78.3,114.9 79.7,114.9 81.2,114.9 81.2,114.9 79.7,114.9 78.3,114.9 
		78.3,116.3 79.7,116.3 81.2,116.3 82.6,116.3 82.6,114.9 84.1,114.9 84.1,113.4 84.1,112 85.6,112 85.6,110.5 	"/>
	<polygon class="st7" points="82.6,112 82.6,110.5 81.2,110.5 81.2,112 81.2,113.4 82.6,113.4 	"/>
	<rect x="76.8" y="114.9" class="st7" width="1.4" height="1.5"/>
</g>
<polygon id="duman" class="st8" points="84.1,107.6 84.1,109.1 82.6,109.1 82.6,110.5 81.2,110.5 81.2,113.4 79.7,113.4 79.7,112 
	78.3,112 78.3,114.9 75.4,114.9 75.4,110.5 78.3,110.5 78.3,107.6 "/>
<polygon class="st9" points="101.5,120.7 101.5,126.5 100.1,126.5 100.1,128 97.2,128 97.2,125.1 98.6,125.1 98.6,123.6 97.2,123.6 
	97.2,120.7 95.7,120.7 95.7,117.8 98.6,117.8 98.6,116.4 100.1,116.4 100.1,120.7 "/>
<polygon id="alev-u1" class="st9" points="92.8,112 92.8,113.4 89.9,113.4 89.9,114.9 88.5,114.9 88.5,110.5 91.4,110.5 91.4,112 
	"/>
<polygon class="st9" points="75.4,126.5 75.4,128 76.8,128 76.8,126.5 76.8,125.1 75.4,125.1 "/>
<rect id="alev-u3" x="75.4" y="114.9" class="st9" width="1.5" height="1.5"/>
<g id="alev-turuncu">
	<rect x="100.1" y="126.5" class="st10" width="1.4" height="1.4"/>
	<rect x="94.3" y="117.8" class="st10" width="1.5" height="1.5"/>
	<rect x="92.8" y="117.8" class="st10" width="1.5" height="1.5"/>
	<polygon class="st10" points="94.3,114.9 94.3,117.8 91.4,117.8 91.4,116.3 89.9,116.3 89.9,119.3 88.5,119.3 88.5,117.8 87,117.8 
		87,113.4 88.5,113.4 88.5,114.9 89.9,114.9 89.9,113.4 91.4,113.4 91.4,114.9 	"/>
	<rect x="91.4" y="113.4" class="st10" width="1.4" height="1.5"/>
	<polygon class="st10" points="88.5,113.4 88.5,112 87,112 87,112 87,112 87,110.5 87,109.1 85.6,109.1 85.6,110.5 85.6,112 
		85.6,112 85.6,113.4 87,113.4 87,113.4 	"/>
	<rect x="84.1" y="109.1" class="st10" width="1.5" height="1.5"/>
	<rect x="84.1" y="107.6" class="st10" width="1.5" height="1.4"/>
	<polygon class="st10" points="98.6,123.6 98.6,125.1 97.2,125.1 97.2,128 76.8,128 76.8,125.1 75.4,125.1 75.4,128 72.5,128 
		72.5,125.1 72.5,125.1 72.5,117.8 73.9,117.8 73.9,119.3 75.4,119.3 75.4,116.3 76.8,116.3 76.8,117.8 88.5,117.8 88.5,119.3 
		89.9,119.3 89.9,117.8 92.8,117.8 92.8,119.3 95.7,119.3 95.7,120.7 97.2,120.7 97.2,123.6 	"/>
	<rect x="71" y="117.8" class="st10" width="1.4" height="7.3"/>
</g>
<polygon class="st8" points="72.5,125.1 72.5,128 69.6,128 69.6,119.3 71,119.3 71,125.1 "/>
<polygon class="st4" points="75.4,110.5 75.4,116.4 72.5,116.4 72.5,117.8 71,117.8 71,119.3 69.6,119.3 69.6,128 66.7,128 
	66.7,126.5 65.2,126.5 65.2,125.1 66.7,125.1 66.7,116.4 65.2,116.4 65.2,113.4 66.7,113.4 66.7,107.6 69.6,107.6 69.6,110.5 "/>
<polygon class="st6" points="72.5,104.7 72.5,107.6 76.8,107.6 76.8,109.1 73.9,109.1 73.9,110.5 69.6,110.5 69.6,107.6 66.7,107.6 
	66.7,100.4 76.8,100.4 76.8,103.3 75.4,103.3 75.4,104.7 "/>
<g>
	<path class="st11" d="M114.6,87.3v1.5h-1.5v1.4h-1.5v1.5h-1.4v-1.5h1.4v-1.4h1.5v-1.5H114.6v-1.5H56.5v1.5h1.5v1.5h1.4v1.4h1.5v1.5
		h2.9v1.5h-2.9v-1.5h-1.5v-1.5h-1.4v-1.4h-1.5v-1.5H55v7.3h61.1v-7.3H114.6z M75.4,93.1h-7.3v-1.5h7.3V93.1z M92.8,93.1h-4.4v-1.5
		H87v-1.5h-1.4v1.5h-1.5v1.5h-4.4v-1.5h4.4v-1.5h1.5v-1.4H87v1.4h1.5v1.5h4.4V93.1z M104.5,93.1h-5.8v-1.5h5.8V93.1z"/>
</g>
<rect x="69.4" y="138.4" class="st12" width="2.2" height="2.2"/>
<rect x="49.2" y="138.4" class="st13" width="2.2" height="2.2"/>
<rect x="47" y="147.4" class="st14" width="2.2" height="2.2"/>
<rect x="47" y="145.2" class="st14" width="2.2" height="2.2"/>
<rect x="47" y="142.9" class="st14" width="2.2" height="2.2"/>
<rect x="44.7" y="147.4" class="st14" width="2.2" height="2.2"/>
<rect x="44.7" y="145.2" class="st14" width="2.2" height="2.2"/>
<rect x="44.7" y="142.9" class="st14" width="2.2" height="2.2"/>
<rect x="42.5" y="147.4" class="st14" width="2.2" height="2.2"/>
<rect x="42.5" y="145.2" class="st14" width="2.2" height="2.2"/>
<rect x="42.5" y="142.9" class="st14" width="2.2" height="2.2"/>
<rect x="40.3" y="147.4" class="st14" width="2.2" height="2.2"/>
<rect x="40.3" y="145.2" class="st14" width="2.2" height="2.2"/>
<rect x="40.3" y="142.9" class="st14" width="2.2" height="2.2"/>
<rect x="40.3" y="82.5" class="st15" width="2.2" height="2.2"/>
<rect x="38" y="147.4" class="st14" width="2.2" height="2.2"/>
<rect x="38" y="145.2" class="st14" width="2.2" height="2.2"/>
<rect x="38" y="142.9" class="st14" width="2.2" height="2.2"/>
<rect x="35.8" y="147.4" class="st14" width="2.2" height="2.2"/>
<rect x="35.8" y="145.2" class="st14" width="2.2" height="2.2"/>
<rect x="35.8" y="142.9" class="st14" width="2.2" height="2.2"/>
<rect x="33.5" y="147.4" class="st14" width="2.2" height="2.2"/>
<rect x="33.5" y="145.2" class="st14" width="2.2" height="2.2"/>
<rect x="33.5" y="142.9" class="st14" width="2.2" height="2.2"/>
<g id="beyaz">
	<rect x="47" y="125" class="st13" width="2.2" height="2.2"/>
	<rect x="42.5" y="104.9" class="st13" width="2.2" height="2.2"/>
	<rect x="40.3" y="89.2" class="st13" width="2.2" height="2.2"/>
	<rect x="33.5" y="118.3" class="st13" width="2.2" height="2.2"/>
</g>
<rect x="114.6" y="85.8" class="st16" width="1.5" height="1.5"/>
<rect x="113.2" y="87.2" class="st16" width="1.5" height="1.5"/>
<rect x="111.7" y="88.7" class="st16" width="1.5" height="1.5"/>
<rect x="110.3" y="90.1" class="st16" width="1.5" height="1.5"/>
<polygon class="st16" points="89.9,91.6 88.5,91.6 88.5,93 89.9,93 91.4,93 92.8,93 92.8,91.6 91.4,91.6 "/>
<rect x="87" y="90.1" class="st16" width="1.5" height="1.5"/>
<rect x="85.6" y="88.7" class="st16" width="1.5" height="1.5"/>
<rect x="84.1" y="90.1" class="st16" width="1.5" height="1.5"/>
<polygon class="st16" points="81.2,91.6 79.7,91.6 79.7,93 81.2,93 82.6,93 84.1,93 84.1,91.6 82.6,91.6 "/>
<polygon class="st16" points="72.5,91.6 71,91.6 69.6,91.6 68.1,91.6 68.1,93 69.6,93 71,93 72.5,93 73.9,93 75.4,93 75.4,91.6 
	73.9,91.6 "/>
<polygon class="st16" points="60.8,91.6 60.8,93 62.3,93 63.7,93 63.7,91.6 62.3,91.6 "/>
<rect x="59.4" y="90.1" class="st16" width="1.5" height="1.5"/>
<rect x="57.9" y="88.7" class="st16" width="1.5" height="1.5"/>
<rect x="56.5" y="87.2" class="st16" width="1.5" height="1.5"/>
<rect x="55" y="85.8" class="st16" width="1.5" height="1.5"/>
<polygon class="st16" points="47,89.2 44.7,89.2 44.7,91.4 42.5,91.4 42.5,93.7 40.3,93.7 38,93.7 38,95.9 35.8,95.9 35.8,98.1 
	33.5,98.1 33.5,95.9 31.3,95.9 31.3,98.1 29.1,98.1 29.1,100.4 31.3,100.4 33.5,100.4 35.8,100.4 38,100.4 38,98.1 40.3,98.1 
	40.3,95.9 42.5,95.9 44.7,95.9 44.7,93.7 47,93.7 47,91.4 49.2,91.4 49.2,89.2 "/>
<g id="sari">
	<rect x="67.2" y="134" class="st12" width="2.2" height="2.2"/>
	<rect x="53.7" y="129.5" class="st12" width="2.2" height="2.2"/>
	<rect x="42.5" y="113.8" class="st12" width="2.2" height="2.2"/>
	<rect x="29.1" y="107.1" class="st12" width="2.2" height="2.2"/>
	<rect x="26.8" y="134" class="st12" width="2.2" height="2.2"/>
</g>
<polygon class="st17" points="53.7,102.6 51.5,102.6 51.5,104.9 49.2,104.9 47,104.9 47,107.1 44.7,107.1 42.5,107.1 42.5,109.3 
	40.3,109.3 38,109.3 38,111.6 35.8,111.6 33.5,111.6 33.5,113.8 31.3,113.8 29.1,113.8 29.1,116 26.8,116 26.8,113.8 24.6,113.8 
	24.6,111.6 22.4,111.6 22.4,113.8 22.4,116 24.6,116 24.6,118.3 26.8,118.3 29.1,118.3 31.3,118.3 31.3,116 33.5,116 35.8,116 
	38,116 38,113.8 40.3,113.8 42.5,113.8 42.5,111.6 44.7,111.6 47,111.6 49.2,111.6 49.2,109.3 51.5,109.3 51.5,107.1 53.7,107.1 
	53.7,104.9 56,104.9 56,102.6 "/>
<g id="mor">
	<rect x="60.4" y="122.8" class="st18" width="2.2" height="2.2"/>
	<rect x="56" y="113.8" class="st18" width="2.2" height="2.2"/>
	<rect x="44.7" y="98.1" class="st18" width="2.2" height="2.2"/>
	<rect x="35.8" y="134" class="st18" width="2.2" height="2.2"/>
	<rect x="35.8" y="86.9" class="st18" width="2.2" height="2.2"/>
	<rect x="20.1" y="120.5" class="st18" width="2.2" height="2.2"/>
</g>
<rect x="17.9" y="140.7" class="st18" width="2.2" height="2.2"/>
<g id="turuncu">
	<rect x="56" y="125" class="st12" width="2.2" height="2.2"/>
	<rect x="53.7" y="109.3" class="st12" width="2.2" height="2.2"/>
	<rect x="38" y="102.6" class="st12" width="2.2" height="2.2"/>
	<rect x="33.5" y="91.4" class="st12" width="2.2" height="2.2"/>
	<rect x="26.8" y="122.8" class="st12" width="2.2" height="2.2"/>
	<rect x="15.6" y="129.5" class="st12" width="2.2" height="2.2"/>
</g>
<polygon class="st19" points="60.4,116 58.2,116 58.2,118.3 56,118.3 53.7,118.3 51.5,118.3 51.5,120.5 49.2,120.5 47,120.5 
	47,122.8 44.7,122.8 44.7,120.5 42.5,120.5 40.3,120.5 40.3,122.8 38,122.8 35.8,122.8 35.8,125 33.5,125 31.3,125 31.3,127.2 
	29.1,127.2 26.8,127.2 26.8,129.5 24.6,129.5 24.6,127.2 22.4,127.2 22.4,125 20.1,125 17.9,125 15.6,125 15.6,127.2 15.6,129.5 
	17.9,129.5 20.1,129.5 20.1,131.7 22.4,131.7 24.6,131.7 26.8,131.7 29.1,131.7 29.1,129.5 31.3,129.5 33.5,129.5 35.8,129.5 
	35.8,127.2 38,127.2 38,125 40.3,125 42.5,125 44.7,125 47,125 49.2,125 49.2,122.8 51.5,122.8 53.7,122.8 56,122.8 58.2,122.8 
	58.2,120.5 60.4,120.5 60.4,118.3 62.7,118.3 62.7,116 "/>
<g>
	<polygon class="st20" points="67.2,138.4 64.9,138.4 64.9,136.2 67.2,136.2 67.2,134 64.9,134 62.7,134 60.4,134 60.4,136.2 
		60.4,138.4 58.2,138.4 56,138.4 53.7,138.4 51.5,138.4 51.5,140.7 49.2,140.7 49.2,138.4 51.5,138.4 51.5,136.2 49.2,136.2 
		47,136.2 47,138.4 47,140.7 47,142.9 49.2,142.9 51.5,142.9 53.7,142.9 56,142.9 58.2,142.9 58.2,140.7 60.4,140.7 60.4,142.9 
		62.7,142.9 64.9,142.9 67.2,142.9 67.2,140.7 69.4,140.7 69.4,138.4 	"/>
	<path class="st20" d="M49.2,134h2.2h2.2v2.2H56V134h2.2v-2.2h2.2h2.2v-2.2h-2.2v-2.2h-2.2H56V125h2.2h2.2v-2.2h-2.2H56h-2.2h-2.2
		h-2.2v2.2v2.2H47V125h-2.2h-2.2h-2.2H38v2.2h2.2v2.2H38v-2.2h-2.2v2.2h-2.2h-2.2h-2.2v2.2h-2.2h-2.2h-2.2h-2.2v2.2v2.2h2.2v2.2h2.2
		h2.2v2.2h2.2h2.2v-2.2h2.2h2.2h2.2h2.2v2.2h2.2v-2.2h2.2v-2.2V134H47H49.2z M56,131.7h-2.2v-2.2H56V131.7z M26.8,134h2.2v2.2h-2.2
		V134z M35.8,136.2V134H38v2.2H35.8z"/>
	<polygon class="st20" points="42.5,93.7 42.5,91.4 40.3,91.4 40.3,89.2 42.5,89.2 42.5,91.4 44.7,91.4 44.7,89.2 44.7,86.9 
		42.5,86.9 42.5,84.7 40.3,84.7 40.3,86.9 38,86.9 38,89.2 35.8,89.2 35.8,91.4 38,91.4 38,93.7 40.3,93.7 	"/>
	<rect x="35.8" y="93.7" class="st20" width="2.2" height="2.2"/>
	<polygon class="st20" points="33.5,140.7 33.5,142.9 35.8,142.9 38,142.9 38,140.7 35.8,140.7 	"/>
	<rect x="33.5" y="95.9" class="st20" width="2.2" height="2.2"/>
	<path class="st20" d="M33.5,113.8v-2.2h2.2H38v-2.2h2.2h2.2v-2.2v-2.2h2.2v2.2H47v-2.2h2.2v-2.2h2.2v-2.2h-2.2H47h-2.2v-2.2H47h2.2
		v-2.2H47v-2.2h-2.2v2.2h-2.2h-2.2v2.2H38v2.2h-2.2h-2.2v2.2v2.2h-2.2h-2.2v2.2h2.2v2.2h-2.2h-2.2v2.2h2.2v2.2h2.2L33.5,113.8
		L33.5,113.8z M40.3,102.6v2.2H38v-2.2H40.3z"/>
	<rect x="26.8" y="113.8" class="st20" width="2.2" height="2.2"/>
	<path class="st20" d="M24.6,125v2.2v2.2h2.2v-2.2h2.2h2.2V125h2.2h2.2v-2.2h2.2h2.2v-2.2h2.2h2.2v2.2H47v-2.2h2.2h2.2v-2.2h-2.2
		V116h2.2v2.2h2.2H56V116v-2.2h-2.2v-2.2v-2.2h-2.2h-2.2v2.2H47h-2.2h-2.2v2.2h2.2v2.2h-2.2v-2.2h-2.2H38v2.2h-2.2h-2.2h-2.2v2.2
		h-2.2h-2.2h-2.2h-2.2v2.2h2.2v2.2h-2.2h-2.2v2.2h2.2L24.6,125L24.6,125z M35.8,118.3v2.2h-2.2v-2.2H35.8z M29.1,122.8v2.2h-2.2
		v-2.2H29.1z"/>
	<polygon class="st20" points="20.1,140.7 20.1,142.9 22.4,142.9 24.6,142.9 24.6,140.7 22.4,140.7 	"/>
	<rect x="17.9" y="129.5" class="st20" width="2.2" height="2.2"/>
	<rect x="15.6" y="140.7" class="st20" width="2.2" height="2.2"/>
	<rect x="15.6" y="134" class="st20" width="2.2" height="2.2"/>
	<rect x="13.4" y="138.4" class="st20" width="2.2" height="2.2"/>
</g>
<rect x="11.2" y="138.4" class="st12" width="2.2" height="2.2"/>
<polygon class="st21" points="67.2,129.5 64.9,129.5 62.7,129.5 62.7,131.7 60.4,131.7 58.2,131.7 58.2,134 56,134 56,136.2 
	53.7,136.2 53.7,134 51.5,134 49.2,134 47,134 44.7,134 44.7,136.2 44.7,138.4 42.5,138.4 42.5,140.7 40.3,140.7 40.3,138.4 
	38,138.4 35.8,138.4 33.5,138.4 31.3,138.4 31.3,140.7 29.1,140.7 26.8,140.7 26.8,138.4 24.6,138.4 22.4,138.4 22.4,136.2 
	20.1,136.2 17.9,136.2 15.6,136.2 15.6,134 13.4,134 11.2,134 11.2,136.2 13.4,136.2 13.4,138.4 15.6,138.4 15.6,140.7 17.9,140.7 
	20.1,140.7 22.4,140.7 24.6,140.7 24.6,142.9 26.8,142.9 29.1,142.9 31.3,142.9 33.5,142.9 33.5,140.7 35.8,140.7 38,140.7 
	38,142.9 40.3,142.9 42.5,142.9 44.7,142.9 47,142.9 47,140.7 47,138.4 47,136.2 49.2,136.2 51.5,136.2 51.5,138.4 53.7,138.4 
	56,138.4 58.2,138.4 60.4,138.4 60.4,136.2 60.4,134 62.7,134 64.9,134 64.9,131.7 67.2,131.7 69.4,131.7 69.4,129.5 "/>
<polygon class="st22" points="71.6,138.4 71.6,140.7 69.4,140.7 67.2,140.7 67.2,142.9 69.4,142.9 71.6,142.9 73.8,142.9 
	73.8,140.7 73.8,138.4 "/>
<polygon class="st22" points="71.6,134 69.4,134 69.4,136.2 67.2,136.2 64.9,136.2 64.9,138.4 67.2,138.4 69.4,138.4 71.6,138.4 
	71.6,136.2 "/>
<polygon class="st22" points="67.2,131.7 64.9,131.7 64.9,134 67.2,134 69.4,134 69.4,131.7 "/>
<polygon class="st22" points="67.2,129.5 67.2,127.2 67.2,125 64.9,125 64.9,122.8 64.9,120.5 62.7,120.5 62.7,118.3 60.4,118.3 
	60.4,120.5 58.2,120.5 58.2,122.8 60.4,122.8 62.7,122.8 62.7,125 60.4,125 58.2,125 58.2,127.2 60.4,127.2 60.4,129.5 62.7,129.5 
	64.9,129.5 "/>
<polygon class="st22" points="60.4,116 60.4,113.8 60.4,111.6 58.2,111.6 58.2,109.3 58.2,107.1 56,107.1 56,104.9 53.7,104.9 
	53.7,107.1 51.5,107.1 51.5,109.3 53.7,109.3 56,109.3 56,111.6 53.7,111.6 53.7,113.8 56,113.8 58.2,113.8 58.2,116 "/>
<rect x="56" y="116" class="st22" width="2.2" height="2.2"/>
<polygon class="st22" points="53.7,102.6 53.7,100.4 53.7,98.1 51.5,98.1 51.5,95.9 51.5,93.7 49.2,93.7 49.2,91.4 47,91.4 47,93.7 
	47,95.9 49.2,95.9 49.2,98.1 47,98.1 47,100.4 49.2,100.4 51.5,100.4 51.5,102.6 "/>
<rect x="49.2" y="102.6" class="st22" width="2.2" height="2.2"/>
<polygon class="st22" points="47,89.2 47,86.9 47,84.7 44.7,84.7 44.7,82.5 44.7,80.2 42.5,80.2 42.5,78 42.5,75.8 40.3,75.8 
	40.3,78 40.3,80.2 38,80.2 38,82.5 38,84.7 35.8,84.7 35.8,86.9 38,86.9 40.3,86.9 40.3,84.7 40.3,82.5 42.5,82.5 42.5,84.7 
	42.5,86.9 44.7,86.9 44.7,89.2 "/>
<rect x="35.8" y="91.4" class="st22" width="2.2" height="2.2"/>
<rect x="33.5" y="89.2" class="st22" width="2.2" height="2.2"/>
<polygon class="st22" points="31.3,93.7 31.3,95.9 33.5,95.9 35.8,95.9 35.8,93.7 33.5,93.7 "/>
<polygon class="st22" points="29.1,100.4 29.1,102.6 31.3,102.6 31.3,104.9 33.5,104.9 33.5,102.6 33.5,100.4 31.3,100.4 "/>
<polygon class="st22" points="26.8,104.9 26.8,107.1 24.6,107.1 24.6,109.3 24.6,111.6 24.6,113.8 26.8,113.8 29.1,113.8 
	29.1,111.6 26.8,111.6 26.8,109.3 29.1,109.3 29.1,107.1 29.1,104.9 29.1,102.6 26.8,102.6 "/>
<rect x="22.4" y="125" class="st22" width="2.2" height="2.2"/>
<rect x="22.4" y="120.5" class="st22" width="2.2" height="2.2"/>
<polygon class="st22" points="20.1,116 20.1,118.3 20.1,120.5 22.4,120.5 22.4,118.3 24.6,118.3 24.6,116 22.4,116 "/>
<polygon class="st22" points="17.9,122.8 17.9,125 20.1,125 20.1,122.8 20.1,120.5 17.9,120.5 "/>
<polygon class="st22" points="15.6,131.7 15.6,129.5 13.4,129.5 13.4,131.7 13.4,134 15.6,134 17.9,134 20.1,134 20.1,131.7 
	17.9,131.7 "/>
<polygon class="st22" points="11.2,140.7 11.2,138.4 8.9,138.4 8.9,140.7 8.9,142.9 11.2,142.9 13.4,142.9 15.6,142.9 15.6,140.7 
	13.4,140.7 "/>
<rect x="11.2" y="136.2" class="st22" width="2.2" height="2.2"/>
<rect x="8.9" y="136.2" class="st13" width="2.2" height="2.2"/>
<g>
	<rect x="14.8" y="136.9" class="st23" width="2.7" height="2.7"/>
	<rect x="12.1" y="141" class="st23" width="1.3" height="6.7"/>
	<rect x="12.1" y="138.3" class="st23" width="1.3" height="1.3"/>
	<rect x="8.1" y="136.9" class="st23" width="2.7" height="2.7"/>
</g>
<g>
	<g>
		<polygon class="st24" points="41.2,142.2 41.2,141.1 41.2,140 40.1,140 39,140 39,141.1 39,142.2 40.1,142.2 		"/>
		<polygon class="st24" points="36.7,144.5 36.7,145.7 36.7,146.8 36.7,147.9 36.7,149.1 37.8,149.1 37.8,147.9 37.8,146.8 
			37.8,145.7 37.8,144.5 37.8,143.4 36.7,143.4 		"/>
		<rect x="36.7" y="141.1" class="st24" width="1.1" height="1.1"/>
		<polygon class="st24" points="33.3,140 33.3,141.1 33.3,142.2 34.4,142.2 35.5,142.2 35.5,141.1 35.5,140 34.4,140 		"/>
		<rect x="33.3" y="145.7" class="st24" width="0" height="0"/>
	</g>
	<g>
		<path class="st25" d="M42.4,142.2v-1.1V140h-1.1v1.1v1.1h-1.1h0H39v-1.1V140h-1.1h-1.1h0h-1.1v1.1v1.1h-1.1h-1.1v-1.1V140h1.1h1.1
			v-1.1h-1.1h-1.1v1.1h-1.1v1.1v1.1H31v1.1v1.1v1.1v0v1.1v1.1v1.1v0v1.1h1.1h1.1h0h1.1h1.1h1.1h0h1.1H39h1.1h0h1.1h1.1h1.1v-1.1v0
			v-1.1v-1.1v-1.1v0v-1.1v-1.1v-1.1H42.4z M37.8,141.1v1.1h-1.1v-1.1H37.8z M34.4,149.1h-1.1h0h-1.1v-1.1v-1.1v-1.1v0v-1.1v-1.1h1.1
			h0h1.1h1.1v1.1v1.1v0v1.1v1.1v1.1H34.4z M36.7,149.1v-1.1v-1.1v-1.1v0v-1.1v-1.1h1.1v1.1v1.1v0v1.1v1.1v1.1H36.7z M42.4,144.5v1.1
			v0v1.1v1.1v1.1h-1.1h-1.1h0H39v-1.1v-1.1v-1.1v0v-1.1v-1.1h1.1h0h1.1h1.1V144.5z"/>
		<polygon class="st25" points="40.1,140 41.2,140 41.2,138.8 40.1,138.8 40.1,138.8 39,138.8 39,140 40.1,140 		"/>
	</g>
	<rect x="32.1" y="143.4" class="st24" width="3.4" height="5.7"/>
	<rect x="39" y="143.4" class="st24" width="3.4" height="5.7"/>
	<g>
		<rect x="41.2" y="147.9" class="st26" width="1.1" height="1.1"/>
		<rect x="41.2" y="145.6" class="st26" width="1.1" height="1.1"/>
		<rect x="41.2" y="143.4" class="st26" width="1.1" height="1.1"/>
		<rect x="40.1" y="146.8" class="st26" width="1.1" height="1.1"/>
		<rect x="40.1" y="144.5" class="st26" width="1.1" height="1.1"/>
		<rect x="39" y="147.9" class="st26" width="1.1" height="1.1"/>
		<rect x="39" y="145.6" class="st26" width="1.1" height="1.1"/>
		<rect x="39" y="143.4" class="st26" width="1.1" height="1.1"/>
		<rect x="34.4" y="147.9" class="st26" width="1.1" height="1.1"/>
		<rect x="34.4" y="145.6" class="st26" width="1.1" height="1.1"/>
		<rect x="34.4" y="143.4" class="st26" width="1.1" height="1.1"/>
		<rect x="33.3" y="146.8" class="st26" width="1.1" height="1.1"/>
		<rect x="33.3" y="144.5" class="st26" width="1.1" height="1.1"/>
		<rect x="32.1" y="147.9" class="st26" width="1.1" height="1.1"/>
		<rect x="32.1" y="145.6" class="st26" width="1.1" height="1.1"/>
		<rect x="32.1" y="143.4" class="st26" width="1.1" height="1.1"/>
	</g>
</g>
<g>
	<rect x="28.1" y="142.2" class="st27" width="2.7" height="1.3"/>
	<rect x="28.1" y="147.6" class="st27" width="2.7" height="1.3"/>
	<polygon class="st27" points="29.5,144.9 29.5,146.2 28.1,146.2 28.1,147.6 26.8,147.6 26.8,144.9 	"/>
	<rect x="26.8" y="138.2" class="st28" width="2.7" height="2.7"/>
	<rect x="24.1" y="142.2" class="st28" width="1.3" height="6.7"/>
	<rect x="24.1" y="139.5" class="st28" width="1.3" height="1.3"/>
	<rect x="20.1" y="139.5" class="st28" width="1.3" height="1.3"/>
	<polygon class="st28" points="22.8,138.2 22.8,140.9 21.4,140.9 21.4,139.5 20.1,139.5 20.1,138.2 	"/>
	<rect x="18.8" y="142.2" class="st27" width="4" height="6.7"/>
	<g>
		<polygon class="st29" points="30.8,143.5 30.8,147.6 28.1,147.6 28.1,146.2 29.5,146.2 29.5,144.9 26.8,144.9 26.8,142.2 
			28.1,142.2 28.1,143.5 		"/>
		<rect x="26.8" y="147.6" class="st29" width="1.3" height="1.3"/>
	</g>
</g>
<g>
	<g id="XMLID_21_">
		<g>
			<polygon class="st30" points="49.5,141.7 48.1,141.8 46.7,141.8 46.7,141.8 46.7,140.5 46.7,140.5 46.6,139.3 48.1,139.2 
				49.5,139.2 49.5,140.4 49.5,140.4 			"/>
			<polygon class="st31" points="49.5,139.2 48.1,139.2 46.6,139.3 46.6,138 48,137.9 49.4,137.9 			"/>
			<polygon class="st30" points="45.5,149.6 44.1,149.7 44,148.4 44.1,148.4 44,147.1 44,145.8 44,145.8 43.9,144.5 43.9,143.2 
				43.9,143.2 45.3,143.2 45.4,144.4 45.4,144.5 45.4,145.7 45.4,145.7 45.4,147 45.4,147 45.5,148.3 45.5,148.3 			"/>
			<polygon class="st30" points="45.3,141.9 45.3,141.9 43.9,141.9 43.8,140.6 45.3,140.6 			"/>
			<polygon class="st31" points="51,141.7 49.6,141.7 49.5,140.4 49.5,139.2 50.9,139.1 50.9,140.4 			"/>
			<polygon class="st30" points="42.5,141.9 42.4,141.9 41,142 41,142 39.6,142 39.6,140.7 39.6,140.7 39.5,139.4 39.6,139.4 
				40.9,139.4 41,139.4 42.4,139.4 42.4,139.4 42.4,140.6 42.4,140.6 42.4,140.7 			"/>
			<polygon class="st31" points="42.4,139.4 41,139.4 40.9,139.4 39.6,139.4 39.5,138.2 40.9,138.1 42.3,138.1 			"/>
			<polygon class="st31" points="39.6,140.7 38.2,140.8 38.1,139.5 39.5,139.4 39.5,139.4 			"/>
			<polygon class="st31" points="41.3,151 41.3,151 39.9,151.1 38.5,151.1 38.5,151.1 37.1,151.1 37,149.8 37,148.6 37,148.6 
				36.9,147.3 36.9,146 36.9,146 36.9,144.7 36.8,143.4 36.8,143.4 36.8,142.1 38.2,142.1 38.1,140.8 39.6,140.7 39.6,142 39.6,142 
				41,142 41,142 42.4,141.9 42.5,143.2 41.1,143.3 39.7,143.3 38.2,143.4 38.2,143.3 38.2,143.3 38.3,144.6 38.3,145.9 38.3,145.9 
				38.3,147.2 38.4,148.5 38.4,148.5 38.4,149.8 38.4,149.8 39.8,149.8 41.2,149.7 41.2,149.7 42.7,149.7 42.7,151 			"/>
			<path class="st31" d="M48.3,149.5l-1.4,0l0-1.3l0-1.3h0l0-1.3l0-1.3l-1.4,0l0,1.3v0l0,1.3h0l0,1.3v0l0,1.3h0v0l-1.4,0l0-1.3h0
				l0-1.3l0-1.3h0l0-1.3l0-1.3h0l1.4,0h0l0,1.3l1.4,0l0-1.3l0-1.3h0l0-1.3v0l0-1.3l-2.8,0.1l-1.4,0l0,1.3v0h0l0,1.3v0l0,1.3h0l0,1.3
				l0,1.3h0l0,1.3l0,1.3h0l0,1.3l0,1.3l1.4,0l1.4,0v0l1.4,0l1.4,0L48.3,149.5z M43.8,140.6L43.8,140.6l1.4,0l0,1.3h0l-1.4,0h0
				L43.8,140.6z"/>
			<polygon class="st31" points="52.6,150.7 51.2,150.7 49.8,150.8 49.8,150.8 48.4,150.8 48.4,149.5 49.8,149.5 49.8,149.5 
				51.2,149.5 51.2,149.5 51.2,148.2 51.1,146.9 51.1,146.9 51.1,145.6 51,144.3 51.1,144.3 51,143 49.6,143.1 49.6,143 48.2,143.1 
				46.8,143.1 46.7,141.8 48.1,141.8 49.5,141.7 49.5,141.8 52.4,141.7 52.4,143 52.5,144.2 52.4,144.2 52.5,145.5 52.5,146.8 
				52.5,146.8 52.6,148.1 52.6,149.4 52.6,149.4 			"/>
		</g>
	</g>
</g>
<g>
	<g id="XMLID_22_">
		<g>
			<g>
				<polygon class="st32" points="60.2,139 59.1,139 59.1,140.1 59.1,141.3 60.2,141.3 61.4,141.3 61.4,140.1 61.4,139 				"/>
				<polygon class="st32" points="56.9,143.5 56.9,144.7 56.9,145.8 56.9,146.9 56.9,148.1 58,148.1 58,146.9 58,145.8 58,144.7 
					58,143.5 58,142.4 56.9,142.4 				"/>
				<rect x="56.9" y="140.1" class="st32" width="1.1" height="1.1"/>
				<polygon class="st32" points="53.4,139 53.4,140.1 53.4,141.3 54.6,141.3 55.7,141.3 55.7,140.1 55.7,139 54.6,139 				"/>
			</g>
			<g>
				<polygon class="st33" points="61.4,142.4 60.2,142.4 59.1,142.4 59.1,143.5 59.1,144.7 59.1,145.8 59.1,146.9 59.1,148.1 
					60.2,148.1 61.4,148.1 62.5,148.1 62.5,146.9 62.5,145.8 62.5,144.7 62.5,143.5 62.5,142.4 				"/>
				<polygon class="st33" points="53.4,142.4 52.3,142.4 52.3,143.5 52.3,144.7 52.3,145.8 52.3,146.9 52.3,148.1 53.4,148.1 
					54.6,148.1 55.7,148.1 55.7,146.9 55.7,145.8 55.7,144.7 55.7,143.5 55.7,142.4 54.6,142.4 				"/>
			</g>
			<g>
				<path class="st34" d="M62.5,141.3v-1.1v0V139h-1.1v1.1v0v1.1h-1.1h0h-1.1v-1.1v0V139H58h0h-1.1h-1.1v1.1v0v1.1h-1.1h0h-1.1v-1.1
					v0V139h-1.1v1.1v0v1.1h-1.1v1.1v1.1v0v1.1v1.1v1.1v0v1.1v1.1h1.1h0h1.1h1.1h0h1.1h1.1H58h0h1.1h1.1h0h1.1h1.1h1.1v-1.1V147v0
					v-1.1v-1.1v-1.1v0v-1.1v-1.1H62.5z M56.9,140.2H58v1.1h-1.1V140.2z M54.6,148.1L54.6,148.1h-1.1h-1.1V147v0v-1.1v-1.1v-1.1v0
					v-1.1h1.1h1.1h0h1.1v1.1v0v1.1v1.1v1.1v0v1.1H54.6z M56.9,148.1V147v0v-1.1v-1.1v-1.1v0v-1.1H58v1.1v0v1.1v1.1v1.1v0v1.1H56.9z
					 M62.5,143.5L62.5,143.5v1.1v1.1v1.1v0v1.1h-1.1h-1.1h0h-1.1V147v0v-1.1v-1.1v-1.1v0v-1.1h1.1h0h1.1h1.1V143.5z"/>
				<polygon class="st34" points="60.3,139 61.4,139 61.4,137.9 60.3,137.9 60.2,137.9 59.1,137.9 59.1,139 60.2,139 				"/>
				<polygon class="st34" points="54.6,139 55.7,139 55.7,137.9 54.6,137.9 54.6,137.9 53.4,137.9 53.4,139 54.6,139 				"/>
			</g>
		</g>
	</g>
</g>
<g>
	<polygon class="st35" points="51.1,146.9 51.1,145.6 51.1,144.3 51,143 49.6,143 48.2,143.1 46.7,143.1 46.8,144.4 46.8,145.7 
		46.9,147 46.9,148.3 46.9,149.6 48.4,149.5 49.8,149.5 51.2,149.5 51.2,148.2 	"/>
	<polygon class="st35" points="42.6,147.1 42.6,145.8 42.5,144.5 42.5,143.2 41.1,143.3 39.7,143.3 38.2,143.3 38.3,144.6 38.3,146 
		38.3,147.2 38.4,148.5 38.4,149.8 39.8,149.8 41.3,149.7 42.7,149.7 42.6,148.4 	"/>
	<polygon class="st35" points="70.7,139.5 69.5,139.5 69.5,140.8 69.5,142 70.7,142 71.9,142 71.9,140.8 71.9,139.5 	"/>
	<polygon class="st35" points="67,144.4 67,145.7 67,146.9 67,148.1 67,149.3 68.3,149.3 68.3,148.1 68.3,146.9 68.3,145.7 
		68.3,144.4 68.3,143.2 67,143.2 	"/>
	<rect x="67" y="140.8" class="st35" width="1.2" height="1.2"/>
	<polygon class="st35" points="63.4,139.5 63.4,140.8 63.4,142 64.6,142 65.8,142 65.8,140.8 65.8,139.5 64.6,139.5 	"/>
</g>
<g id="mavi">
	<rect x="49.2" y="116" class="st36" width="2.2" height="2.2"/>
	<rect x="38" y="127.2" class="st36" width="2.2" height="2.2"/>
	<rect x="29.1" y="102.6" class="st36" width="2.2" height="2.2"/>
	<rect x="17.9" y="134" class="st36" width="2.2" height="2.2"/>
</g>
<polygon class="st37" points="71.9,143.2 70.7,143.2 69.5,143.2 69.5,144.4 69.5,145.7 69.5,146.9 69.5,148.1 69.5,149.3 
	70.7,149.3 71.9,149.3 73.2,149.3 73.2,148.1 73.2,146.9 73.2,145.7 73.2,144.4 73.2,143.2 "/>
<polygon class="st37" points="63.4,143.2 62.1,143.2 62.1,144.4 62.1,145.7 62.1,146.9 62.1,148.1 62.1,149.3 63.4,149.3 
	64.6,149.3 65.8,149.3 65.8,148.1 65.8,146.9 65.8,145.7 65.8,144.4 65.8,143.2 64.6,143.2 "/>
<g>
	<path class="st38" d="M73.2,142v-1.2v-1.2H72v1.2v1.2h-1.2h-1.2v-1.2v-1.2h-1.2h-1.2h-1.2v1.2v1.2h-1.2h-1.2v-1.2v-1.2h-1.2v1.2
		v1.2H61v1.2v1.2v1.2v1.2v1.2v1.2v1.2h1.2h1.2h1.2h1.2h1.2h1.2h1.2h1.2H72h1.2h1.2v-1.2v-1.2v-1.2v-1.2v-1.2v-1.2V142H73.2z
		 M67,140.8h1.2v1.2H67V140.8z M64.6,149.3h-1.2h-1.2v-1.2v-1.2v-1.2v-1.2v-1.2h1.2h1.2h1.2v1.2v1.2v1.2v1.2v1.2H64.6z M67,149.3
		v-1.2v-1.2v-1.2v-1.2v-1.2h1.2v1.2v1.2v1.2v1.2v1.2H67z M73.2,144.4v1.2v1.2v1.2v1.2H72h-1.2h-1.2v-1.2v-1.2v-1.2v-1.2v-1.2h1.2H72
		h1.2V144.4z"/>
	<polygon class="st38" points="71.9,139.5 71.9,138.3 70.7,138.3 69.5,138.3 69.5,139.5 70.7,139.5 	"/>
	<polygon class="st38" points="65.8,139.5 65.8,138.3 64.6,138.3 63.4,138.3 63.4,139.5 64.6,139.5 	"/>
</g>
<polygon class="st2" points="17.5,141 16.1,141 14.8,141 14.8,142.3 14.8,143.6 14.8,145 14.8,146.3 14.8,147.6 16.1,147.6 
	17.5,147.6 18.8,147.6 20.2,147.6 20.2,146.3 20.2,145 20.2,143.6 20.2,142.3 20.2,141 18.8,141 "/>
<polygon class="st2" points="8.1,141 6.8,141 6.8,142.3 6.8,143.6 6.8,145 6.8,146.3 6.8,147.6 8.1,147.6 9.5,147.6 10.8,147.6 
	10.8,146.3 10.8,145 10.8,143.6 10.8,142.3 10.8,141 9.5,141 "/>
<polygon class="st39" points="17.5,136.9 17.5,135.6 16.1,135.6 14.8,135.6 14.8,136.9 16.1,136.9 "/>
<polygon class="st39" points="10.8,136.9 10.8,135.6 9.5,135.6 8.1,135.6 8.1,136.9 9.5,136.9 "/>
<path class="st39" d="M30.8,139.5v-1.3h-1.3v1.3v1.3h-1.3h-1.3v-1.3v-1.3h-1.3h-1.3h-1.3v1.3v1.3h-1.3v-1.2h-1.3h0v-0.1v-1.3h-1.3
	v-1.2h-1.3v1.3v1.3h-1.3h-1.3v-1.3v-1.3h-1.3h-1.3h-1.3v1.3v1.3H9.5H8.1v-1.3v-1.3H6.8v1.3v1.3H5.4v1.3v1.3v1.3v1.3v1.3v1.3v1.3h1.3
	h1.3h1.3h1.3h1.3h1.3h1.3h1.3h1.3v1.3h1.3h1.3h1.3h1.3h1.3h1.3h1.3h1.3h1.3h1.3h1.3v-1.3v-1.3v-1.3v-1.3v-1.3v-1.3v-1.3h-1.3
	L30.8,139.5L30.8,139.5z M24.1,139.5h1.3v1.3h-1.3V139.5z M20.2,143.6v1.3v1.3v1.3h-1.3h0v-0.1v-1.3v-1.3v-1.3v-1.3h1.3h0v0.1
	C20.2,142.3,20.2,143.6,20.2,143.6z M12.1,138.3h1.3v1.3h-1.3V138.3z M9.5,147.6H8.1H6.8v-1.3V145v-1.3v-1.3v-1.3h1.3h1.3h1.3v1.3
	v1.3v1.3v1.3v1.3H9.5z M12.1,147.6v-1.3V145v-1.3v-1.3v-1.3h1.3v1.3v1.3v1.3v1.3v1.3H12.1z M14.8,147.6v-1.3V145v-1.3v-1.3v-1.3h1.3
	h1.3v1.3v1.3v1.3v1.3v1.3v0.1h-1.3H14.8z M21.5,148.9v-1.3v-1.3V145v-1.3v-1.3v-0.1h1.3v1.3v1.3v1.3v1.3v1.3H21.5z M24.1,148.9v-1.3
	v-1.3v-1.3v-1.3v-1.3h1.3v1.3v1.3v1.3v1.3v1.3H24.1z M30.8,143.5v1.3v1.3v1.3v1.3h-1.3h-1.3h-1.3v-1.3v-1.3v-1.3v-1.3v-1.3h1.3h1.3
	h1.3V143.5z"/>
<polygon class="st39" points="29.5,138.2 29.5,136.8 28.1,136.8 26.8,136.8 26.8,138.2 28.1,138.2 "/>
<polygon class="st39" points="22.8,138.2 22.8,136.8 21.4,136.8 20.1,136.8 20.1,138.2 21.4,138.2 "/>
<g>
	<polygon class="st40" points="65.2,93.4 64.3,93.4 63.5,93.4 63.5,94.2 63.5,95.1 63.5,96 63.5,96.9 62.6,96.9 62.6,97.8 
		61.7,97.8 61.7,98.6 60.8,98.6 60.8,99.5 60.8,100.4 61.7,100.4 62.6,100.4 63.5,100.4 64.3,100.4 65.2,100.4 65.2,99.5 66.1,99.5 
		67,99.5 67,98.6 67,97.8 67,96.9 67,96 67,95.1 67,94.2 67,93.4 66.1,93.4 	"/>
	<polygon class="st40" points="77.2,93.4 76.3,93.4 75.5,93.4 75.5,94.2 75.5,95.1 75.5,96 75.5,96.9 74.6,96.9 74.6,97.8 
		73.7,97.8 73.7,98.6 72.9,98.6 72.9,99.5 72.9,100.4 73.7,100.4 74.6,100.4 75.5,100.4 76.3,100.4 77.2,100.4 77.2,99.5 78.1,99.5 
		78.9,99.5 78.9,98.6 78.9,97.8 78.9,96.9 78.9,96 78.9,95.1 78.9,94.2 78.9,93.4 78.1,93.4 	"/>
	<polygon class="st40" points="96,93.5 95.1,93.5 94.2,93.5 94.2,94.4 94.2,95.3 94.2,96.1 94.2,97 93.3,97 93.3,97.9 92.5,97.9 
		92.5,98.8 91.6,98.8 91.6,99.6 91.6,100.5 92.5,100.5 93.3,100.5 94.2,100.5 95.1,100.5 96,100.5 96,99.6 96.8,99.6 97.7,99.6 
		97.7,98.8 97.7,97.9 97.7,97 97.7,96.1 97.7,95.3 97.7,94.4 97.7,93.5 96.8,93.5 	"/>
	<polygon class="st40" points="108.6,93.7 107.7,93.7 106.8,93.7 106,93.7 106,94.5 106,95.4 106,96.3 106,97.2 105.1,97.2 
		105.1,98 104.2,98 104.2,98.9 103.4,98.9 103.4,99.8 103.4,100.7 104.2,100.7 105.1,100.7 106,100.7 106.8,100.7 107.7,100.7 
		107.7,99.8 108.6,99.8 109.5,99.8 109.5,98.9 109.5,98 109.5,97.2 109.5,96.3 109.5,95.4 109.5,94.5 109.5,93.7 	"/>
</g>
<polygon class="st41" points="60.8,98.6 60,98.6 60,99.5 60,100.4 60.8,100.4 60.8,99.5 "/>
<rect x="60.8" y="97.8" class="st41" width="0.9" height="0.9"/>
<rect x="61.7" y="96.9" class="st41" width="0.9" height="0.9"/>
<polygon class="st41" points="63.5,96 63.5,95.1 63.5,94.2 63.5,93.4 62.6,93.4 62.6,94.2 62.6,95.1 62.6,96 62.6,96.9 63.5,96.9 
	"/>
<polygon class="st41" points="63.5,100.4 62.6,100.4 61.7,100.4 60.8,100.4 60.8,101.2 61.7,101.2 62.6,101.2 63.5,101.2 
	64.3,101.2 65.2,101.2 65.2,100.4 64.3,100.4 "/>
<polygon class="st41" points="65.2,99.5 65.2,100.4 66.1,100.4 67,100.4 67,99.5 66.1,99.5 "/>
<polygon class="st41" points="67,94.2 67,95.1 67,96 67,96.9 67,97.8 67,98.6 67,99.5 67.8,99.5 67.8,98.6 67.8,97.8 67.8,96.9 
	67.8,96 67.8,95.1 67.8,94.2 67.8,93.4 67,93.4 "/>
<polygon class="st41" points="72.9,98.6 72,98.6 72,99.5 72,100.4 72.9,100.4 72.9,99.5 "/>
<rect x="72.9" y="97.8" class="st41" width="0.9" height="0.9"/>
<rect x="73.7" y="96.9" class="st41" width="0.9" height="0.9"/>
<polygon class="st41" points="75.5,96 75.5,95.1 75.5,94.2 75.5,93.4 74.6,93.4 74.6,94.2 74.6,95.1 74.6,96 74.6,96.9 75.5,96.9 
	"/>
<polygon class="st41" points="75.5,100.4 74.6,100.4 73.7,100.4 72.9,100.4 72.9,101.2 73.7,101.2 74.6,101.2 75.5,101.2 
	76.3,101.2 77.2,101.2 77.2,100.4 76.3,100.4 "/>
<polygon class="st41" points="77.2,99.5 77.2,100.4 78.1,100.4 78.9,100.4 78.9,99.5 78.1,99.5 "/>
<polygon class="st41" points="78.9,94.2 78.9,95.1 78.9,96 78.9,96.9 78.9,97.8 78.9,98.6 78.9,99.5 79.8,99.5 79.8,98.6 79.8,97.8 
	79.8,96.9 79.8,96 79.8,95.1 79.8,94.2 79.8,93.4 78.9,93.4 "/>
<polygon class="st41" points="91.6,98.8 90.7,98.8 90.7,99.6 90.7,100.5 91.6,100.5 91.6,99.6 "/>
<rect x="91.6" y="97.9" class="st41" width="0.9" height="0.9"/>
<rect x="92.5" y="97" class="st41" width="0.9" height="0.9"/>
<polygon class="st41" points="94.2,96.1 94.2,95.3 94.2,94.4 94.2,93.5 93.3,93.5 93.3,94.4 93.3,95.3 93.3,96.1 93.3,97 94.2,97 
	"/>
<polygon class="st41" points="94.2,100.5 93.3,100.5 92.5,100.5 91.6,100.5 91.6,101.4 92.5,101.4 93.3,101.4 94.2,101.4 
	95.1,101.4 96,101.4 96,100.5 95.1,100.5 "/>
<polygon class="st41" points="96,99.6 96,100.5 96.8,100.5 97.7,100.5 97.7,99.6 96.8,99.6 "/>
<polygon class="st41" points="97.7,94.4 97.7,95.3 97.7,96.1 97.7,97 97.7,97.9 97.7,98.8 97.7,99.6 98.6,99.6 98.6,98.8 98.6,97.9 
	98.6,97 98.6,96.1 98.6,95.3 98.6,94.4 98.6,93.5 97.7,93.5 "/>
<polygon class="st41" points="103.4,98.9 102.5,98.9 102.5,99.8 102.5,100.7 103.4,100.7 103.4,99.8 "/>
<rect x="103.4" y="98" class="st41" width="0.9" height="0.9"/>
<rect x="104.2" y="97.2" class="st41" width="0.9" height="0.9"/>
<polygon class="st41" points="106,96.3 106,95.4 106,94.5 106,93.7 105.1,93.7 105.1,94.5 105.1,95.4 105.1,96.3 105.1,97.2 
	106,97.2 "/>
<polygon class="st41" points="106,100.7 105.1,100.7 104.2,100.7 103.4,100.7 103.4,101.5 104.2,101.5 105.1,101.5 106,101.5 
	106.8,101.5 107.7,101.5 107.7,100.7 106.8,100.7 "/>
<polygon class="st41" points="107.7,99.8 107.7,100.7 108.6,100.7 109.5,100.7 109.5,99.8 108.6,99.8 "/>
<polygon class="st41" points="109.5,93.7 109.5,94.5 109.5,95.4 109.5,96.3 109.5,97.2 109.5,98 109.5,98.9 109.5,99.8 110.4,99.8 
	110.4,98.9 110.4,98 110.4,97.2 110.4,96.3 110.4,95.4 110.4,94.5 110.4,93.7 "/>
<g>
	<polygon class="st42" points="66.1,91.6 65.2,91.6 64.3,91.6 63.5,91.6 62.6,91.6 62.6,92.5 63.5,92.5 64.3,92.5 65.2,92.5 
		66.1,92.5 67,92.5 67.8,92.5 67.8,91.6 67,91.6 	"/>
	<polygon class="st42" points="78.1,91.6 77.2,91.6 76.3,91.6 75.5,91.6 74.6,91.6 74.6,92.5 75.5,92.5 76.3,92.5 77.2,92.5 
		78.1,92.5 78.9,92.5 79.8,92.5 79.8,91.6 78.9,91.6 	"/>
	<polygon class="st42" points="96.8,91.8 96,91.8 95.1,91.8 94.2,91.8 93.3,91.8 93.3,92.6 94.2,92.6 95.1,92.6 96,92.6 96.8,92.6 
		97.7,92.6 98.6,92.6 98.6,91.8 97.7,91.8 	"/>
	<polygon class="st42" points="109.5,91.9 108.6,91.9 107.7,91.9 106.8,91.9 106,91.9 105.1,91.9 105.1,92.8 106,92.8 106.8,92.8 
		107.7,92.8 108.6,92.8 109.5,92.8 110.4,92.8 110.4,91.9 	"/>
</g>
<g>
	<path class="st43" d="M67,90.8h-0.9h-0.9h-0.9h-0.9h-0.9h-0.9v0.9v0.9v0.9h0.9h0.9h0.9h0.9h0.9H67h0.9h0.9v-0.9v-0.9v-0.9h-0.9H67z
		 M67.8,92.5H67h-0.9h-0.9h-0.9h-0.9h-0.9v-0.9h0.9h0.9h0.9h0.9H67h0.9L67.8,92.5L67.8,92.5z"/>
	<path class="st43" d="M78.9,90.8h-0.9h-0.9h-0.9h-0.9h-0.9h-0.9v0.9v0.9v0.9h0.9h0.9h0.9h0.9h0.9h0.9h0.9h0.9v-0.9v-0.9v-0.9h-0.9
		H78.9z M79.8,92.5h-0.9h-0.9h-0.9h-0.9h-0.9h-0.9v-0.9h0.9h0.9h0.9h0.9h0.9h0.9V92.5z"/>
	<path class="st43" d="M97.7,90.9h-0.9h-0.9h-0.9h-0.9h-0.9h-0.9v0.9v0.9v0.9h0.9h0.9h0.9h0.9h0.9h0.9h0.9h0.9v-0.9v-0.9v-0.9h-0.9
		H97.7z M98.6,92.6h-0.9h-0.9h-0.9h-0.9h-0.9h-0.9v-0.9h0.9h0.9h0.9h0.9h0.9h0.9V92.6z"/>
	<path class="st43" d="M110.4,91.1h-0.9h-0.9h-0.9h-0.9H106h-0.9h-0.9v0.9v0.9v0.9h0.9h0.9h0.9h0.9h0.9h0.9h0.9h0.9v-0.9v-0.9v-0.9
		H110.4z M110.4,92.8h-0.9h-0.9h-0.9h-0.9H106h-0.9v-0.9h0.9h0.9h0.9h0.9h0.9h0.9V92.8z"/>
</g>
<g id="XMLID_38_">
	<g id="XMLID_39_">
		<g>
			<polygon class="st44" points="88.9,96.6 88.9,95.9 88.2,95.9 88.2,95.2 88.2,94.5 88.2,93.7 88.2,93 88.2,92.3 87.4,92.3 
				87.4,91.6 86.7,91.6 86.7,92.3 86.7,93 86.7,93.7 86.7,94.5 86.7,95.2 86.7,95.9 86.7,96.6 86,96.6 85.3,96.6 85.3,97.4 86,97.4 
				86.7,97.4 87.4,97.4 88.2,97.4 88.9,97.4 89.6,97.4 89.6,96.6 			"/>
			<polygon class="st45" points="86,90.9 86,91.6 85.3,91.6 85.3,92.3 86,92.3 86,93 86.7,93 86.7,92.3 86.7,91.6 86.7,90.9 			"/>
			<rect x="84.5" y="91.6" class="st11" width="0.7" height="0.7"/>
			<polygon class="st46" points="87.4,90.1 87.4,89.4 86.7,89.4 86.7,90.1 86,90.1 86,89.4 85.3,89.4 85.3,90.1 84.5,90.1 
				84.5,90.9 84.5,91.6 85.3,91.6 86,91.6 86,90.9 86.7,90.9 86.7,91.6 87.4,91.6 88.2,91.6 88.2,90.9 88.2,90.1 			"/>
			<g>
				<polygon class="st47" points="86.2,64.4 84.9,64.4 84.9,65.7 84.9,66.9 86.2,66.9 87.5,66.9 87.5,65.7 87.5,64.4 				"/>
				<polygon class="st47" points="86,92.3 85.3,92.3 84.5,92.3 84.5,93 84.5,93.7 84.5,94.5 84.5,95.2 84.5,95.9 83.8,95.9 
					83.8,96.6 83.1,96.6 83.1,97.4 83.8,97.4 84.5,97.4 85.3,97.4 85.3,96.6 86,96.6 86.7,96.6 86.7,95.9 86.7,95.2 86.7,94.5 
					86.7,93.7 86.7,93 86,93 				"/>
			</g>
		</g>
	</g>
</g>
<rect x="99.4" y="91.6" class="st16" width="4.8" height="1.5"/>
<g>
	<path class="st2" d="M47.2,157.9c0,0.6-0.1,1.1-0.4,1.4c-0.3,0.3-0.7,0.5-1.2,0.5c-0.5,0-0.9-0.2-1.2-0.5c-0.3-0.3-0.4-0.8-0.4-1.4
		v-0.8c0-0.6,0.1-1.1,0.4-1.5c0.3-0.3,0.7-0.5,1.2-0.5c0.5,0,0.9,0.2,1.2,0.5s0.4,0.8,0.4,1.4V157.9z M46.3,157.2
		c0-0.4-0.1-0.7-0.2-0.9c-0.1-0.2-0.3-0.3-0.5-0.3c-0.2,0-0.4,0.1-0.5,0.3c-0.1,0.2-0.2,0.5-0.2,0.9v0.8c0,0.4,0.1,0.7,0.2,0.9
		c0.1,0.2,0.3,0.3,0.5,0.3c0.2,0,0.4-0.1,0.5-0.3c0.1-0.2,0.2-0.5,0.2-0.9V157.2z"/>
	<path class="st2" d="M49.2,159.1c0.3,0,0.4-0.2,0.4-0.5h0.8c0,0.4-0.1,0.7-0.3,0.9c-0.2,0.2-0.5,0.3-0.9,0.3c-0.4,0-0.8-0.1-1-0.4
		c-0.2-0.3-0.3-0.7-0.3-1.2V158c0-0.5,0.1-0.9,0.3-1.2c0.2-0.3,0.6-0.4,1-0.4c0.4,0,0.7,0.1,0.9,0.3c0.2,0.2,0.3,0.6,0.3,1h-0.8
		c0-0.2,0-0.3-0.1-0.4c-0.1-0.1-0.2-0.2-0.3-0.2c-0.2,0-0.3,0.1-0.3,0.2c-0.1,0.1-0.1,0.3-0.1,0.6v0.3c0,0.3,0,0.5,0,0.6
		c0,0.1,0.1,0.2,0.1,0.2C49,159.1,49.1,159.1,49.2,159.1z"/>
	<path class="st2" d="M52.7,159.8c0-0.1-0.1-0.1-0.1-0.3c-0.2,0.2-0.4,0.3-0.6,0.3c-0.3,0-0.5-0.1-0.7-0.3c-0.2-0.2-0.3-0.4-0.3-0.7
		c0-0.4,0.1-0.6,0.3-0.8c0.2-0.2,0.5-0.3,1-0.3h0.3v-0.3c0-0.2,0-0.3-0.1-0.3c-0.1-0.1-0.1-0.1-0.2-0.1c-0.2,0-0.3,0.1-0.3,0.4H51
		c0-0.3,0.1-0.6,0.3-0.8c0.2-0.2,0.5-0.3,0.9-0.3c0.4,0,0.7,0.1,0.9,0.3c0.2,0.2,0.3,0.5,0.3,0.8v1.6c0,0.3,0,0.5,0.1,0.7v0.1H52.7z
		 M52.2,159.2c0.1,0,0.2,0,0.2-0.1c0.1,0,0.1-0.1,0.2-0.1v-0.7h-0.2c-0.1,0-0.3,0-0.4,0.1c-0.1,0.1-0.1,0.2-0.1,0.4
		C51.9,159,52,159.2,52.2,159.2z"/>
	<path class="st2" d="M55.3,158.5l-0.2,0.3v1h-0.9V155h0.9v2.6l0.1-0.2l0.6-1h1l-1,1.4l1.1,2h-1L55.3,158.5z"/>
	<path class="st2" d="M61.7,159.8H59v-0.6l1.2-1.6c0.2-0.2,0.3-0.4,0.3-0.6c0.1-0.2,0.1-0.3,0.1-0.5c0-0.2,0-0.4-0.1-0.5
		c-0.1-0.1-0.2-0.2-0.3-0.2c-0.1,0-0.3,0.1-0.3,0.2c-0.1,0.1-0.1,0.3-0.1,0.6H59c0-0.3,0.1-0.5,0.2-0.8c0.1-0.2,0.3-0.4,0.5-0.5
		c0.2-0.1,0.4-0.2,0.7-0.2c0.4,0,0.7,0.1,0.9,0.3s0.3,0.5,0.3,0.9c0,0.3-0.1,0.5-0.2,0.8c-0.1,0.3-0.3,0.6-0.7,1l-0.6,0.8h1.5V159.8
		z"/>
	<path class="st2" d="M65.1,157.9c0,0.6-0.1,1.1-0.3,1.4c-0.2,0.3-0.6,0.5-1,0.5c-0.4,0-0.7-0.2-1-0.5c-0.2-0.3-0.3-0.8-0.4-1.4
		v-0.9c0-0.6,0.1-1.1,0.3-1.4c0.2-0.3,0.6-0.5,1-0.5c0.4,0,0.7,0.2,1,0.5c0.2,0.3,0.3,0.8,0.3,1.4V157.9z M64.2,157
		c0-0.4,0-0.6-0.1-0.8c-0.1-0.2-0.2-0.3-0.3-0.3c-0.3,0-0.4,0.3-0.4,1v1.1c0,0.4,0,0.6,0.1,0.8c0.1,0.2,0.2,0.3,0.3,0.3
		c0.1,0,0.2-0.1,0.3-0.3c0.1-0.2,0.1-0.4,0.1-0.8V157z"/>
	<path class="st2" d="M68.5,159.8h-2.7v-0.6l1.2-1.6c0.2-0.2,0.3-0.4,0.3-0.6c0.1-0.2,0.1-0.3,0.1-0.5c0-0.2,0-0.4-0.1-0.5
		c-0.1-0.1-0.2-0.2-0.3-0.2c-0.1,0-0.3,0.1-0.3,0.2c-0.1,0.1-0.1,0.3-0.1,0.6h-0.9c0-0.3,0.1-0.5,0.2-0.8c0.1-0.2,0.3-0.4,0.5-0.5
		c0.2-0.1,0.4-0.2,0.7-0.2c0.4,0,0.7,0.1,0.9,0.3c0.2,0.2,0.3,0.5,0.3,0.9c0,0.3-0.1,0.5-0.2,0.8c-0.1,0.3-0.3,0.6-0.7,1l-0.6,0.8
		h1.5V159.8z"/>
	<path class="st2" d="M71.1,159.8h-0.9v-3.5l-0.9,0.3v-0.7l1.7-0.7h0.1V159.8z"/>
</g>
<rect x="64.4" y="30.6" class="st48" width="42.2" height="55.2"/>
<g>
	<polygon class="st49" points="101.5,75.6 100.1,75.6 98.6,75.6 98.6,77.1 97.2,77.1 97.2,78.6 98.6,78.6 100.1,78.6 101.5,78.6 
		103,78.6 103,77.1 103,75.6 	"/>
	<polygon class="st49" points="100.1,48 100.1,50.9 91.4,50.9 91.4,46.6 98.6,46.6 98.6,48 	"/>
	<polygon class="st49" points="94.3,68.4 92.8,68.4 92.8,69.8 92.8,71.3 94.3,71.3 95.7,71.3 95.7,69.8 94.3,69.8 	"/>
	<polygon class="st49" points="94.3,62.6 94.3,61.1 94.3,59.7 92.8,59.7 91.4,59.7 89.9,59.7 88.5,59.7 88.5,61.1 88.5,62.6 
		89.9,62.6 91.4,62.6 92.8,62.6 	"/>
	<polygon class="st49" points="91.4,81.5 91.4,85.8 85.6,85.8 85.6,78.6 89.9,78.6 89.9,81.5 	"/>
	<polygon class="st49" points="88.5,71.3 87,71.3 87,72.7 85.6,72.7 85.6,74.2 87,74.2 88.5,74.2 89.9,74.2 91.4,74.2 91.4,72.7 
		91.4,71.3 89.9,71.3 	"/>
	<polygon class="st49" points="78.3,69.8 76.8,69.8 76.8,71.3 78.3,71.3 79.7,71.3 81.2,71.3 81.2,69.8 79.7,69.8 	"/>
	<polygon class="st49" points="78.3,46.6 76.8,46.6 75.4,46.6 75.4,48 73.9,48 73.9,49.5 75.4,49.5 76.8,49.5 78.3,49.5 79.7,49.5 
		81.2,49.5 81.2,48 81.2,46.6 79.7,46.6 	"/>
	<polygon class="st49" points="76.8,68.4 76.8,66.9 78.3,66.9 78.3,65.5 76.8,65.5 75.4,65.5 73.9,65.5 72.5,65.5 72.5,66.9 
		72.5,68.4 72.5,69.8 73.9,69.8 73.9,68.4 73.9,66.9 75.4,66.9 75.4,68.4 	"/>
	<rect x="68.1" y="81.5" class="st49" width="4.4" height="4.4"/>
	<polygon class="st49" points="72.5,43.7 72.5,46.6 68.1,46.6 68.1,45.1 71,45.1 71,43.7 	"/>
	<rect x="66.7" y="42.2" class="st49" width="4.4" height="2.9"/>
	<polygon class="st49" points="66.7,52.4 66.7,56.7 64.4,56.7 64.4,55.3 65.2,55.3 65.2,55.3 64.4,55.3 64.4,52.4 	"/>
</g>
<g id="XMLID_31_">
	<g>
		<polygon class="st50" points="87.5,61.9 87.5,63.1 87.5,64.4 88.7,64.4 88.7,63.1 88.7,61.9 		"/>
		<polygon class="st50" points="83.6,63.1 83.6,64.4 84.9,64.4 84.9,63.1 84.9,61.9 83.6,61.9 		"/>
	</g>
	<g>
		<rect x="90" y="72" class="st51" width="1.3" height="1.3"/>
		<rect x="90" y="65.7" class="st51" width="1.3" height="1.3"/>
		<rect x="88.7" y="70.7" class="st51" width="1.3" height="1.3"/>
		<rect x="88.7" y="66.9" class="st51" width="1.3" height="1.3"/>
		<polygon class="st51" points="88.7,64.4 90,64.4 90,63.1 90,61.9 88.7,61.9 88.7,63.1 		"/>
		<rect x="87.5" y="60.6" class="st51" width="1.3" height="1.3"/>
		<polygon class="st51" points="84.9,73.3 84.9,74.5 84.9,75.8 86.2,75.8 87.5,75.8 87.5,74.5 87.5,73.3 86.2,73.3 		"/>
		<polygon class="st51" points="84.9,61.9 84.9,63.1 84.9,64.4 86.2,64.4 87.5,64.4 87.5,63.1 87.5,61.9 86.2,61.9 		"/>
		<rect x="83.6" y="60.6" class="st51" width="1.3" height="1.3"/>
		<rect x="82.4" y="70.7" class="st51" width="1.3" height="1.3"/>
		<rect x="82.4" y="66.9" class="st51" width="1.3" height="1.3"/>
		<polygon class="st51" points="82.4,63.1 82.4,64.4 83.6,64.4 83.6,63.1 83.6,61.9 82.4,61.9 		"/>
		<rect x="81.1" y="72" class="st51" width="1.3" height="1.3"/>
		<rect x="81.1" y="65.7" class="st51" width="1.3" height="1.3"/>
	</g>
	<g>
		<polygon class="st52" points="91.3,68.2 91.3,66.9 90,66.9 90,68.2 90,69.5 90,70.7 90,72 91.3,72 91.3,70.7 92.5,70.7 92.5,69.5 
			92.5,68.2 		"/>
		<polygon class="st52" points="90,64.4 88.7,64.4 87.5,64.4 87.5,65.7 87.5,66.9 88.7,66.9 90,66.9 90,65.7 		"/>
		<polygon class="st52" points="87.5,72 87.5,73.3 87.5,74.5 88.7,74.5 90,74.5 90,73.3 90,72 88.7,72 		"/>
		<polygon class="st52" points="82.4,74.5 83.6,74.5 83.6,75.8 84.9,75.8 84.9,74.5 84.9,73.3 84.9,72 83.6,72 82.4,72 82.4,73.3 		
			"/>
		<polygon class="st52" points="82.4,64.4 82.4,65.7 82.4,66.9 83.6,66.9 84.9,66.9 84.9,65.7 84.9,64.4 83.6,64.4 		"/>
		<polygon class="st52" points="81.1,68.2 79.8,68.2 79.8,69.5 79.8,70.7 81.1,70.7 81.1,72 82.4,72 82.4,70.7 82.4,69.5 82.4,68.2 
			82.4,66.9 81.1,66.9 		"/>
	</g>
	<g>
		<polygon class="st53" points="92.5,68.2 92.5,69.5 92.5,70.7 93.8,70.7 93.8,69.5 93.8,68.2 		"/>
		<polygon class="st53" points="91.3,72 91.3,73.3 92.5,73.3 92.5,72 92.5,70.7 91.3,70.7 		"/>
		<polygon class="st53" points="92.5,65.7 91.3,65.7 91.3,66.9 91.3,68.2 92.5,68.2 92.5,66.9 		"/>
		<rect x="90" y="73.3" class="st53" width="1.3" height="1.3"/>
		<rect x="90" y="64.4" class="st53" width="1.3" height="1.3"/>
		<polygon class="st53" points="87.5,74.5 87.5,75.8 86.2,75.8 84.9,75.8 83.6,75.8 83.6,74.5 82.4,74.5 82.4,75.8 82.4,77.1 
			83.6,77.1 84.9,77.1 86.2,77.1 87.5,77.1 88.7,77.1 88.7,75.8 90,75.8 90,74.5 88.7,74.5 		"/>
		<rect x="81.1" y="73.3" class="st53" width="1.3" height="1.3"/>
		<rect x="81.1" y="64.4" class="st53" width="1.3" height="1.3"/>
		<polygon class="st53" points="81.1,70.7 79.8,70.7 79.8,72 79.8,73.3 81.1,73.3 81.1,72 		"/>
		<polygon class="st53" points="81.1,66.9 81.1,65.7 79.8,65.7 79.8,66.9 79.8,68.2 81.1,68.2 		"/>
		<polygon class="st53" points="79.8,68.2 78.6,68.2 78.6,69.5 78.6,70.7 79.8,70.7 79.8,69.5 		"/>
	</g>
</g>
<g id="noel-markut">
	<polygon class="st54" points="72.5,48.6 71.3,48.6 71.3,47.4 70,47.4 70,46.1 68.8,46.1 67.5,46.1 67.5,47.4 66.3,47.4 66.3,48.6 
		66.3,49.9 67.5,49.9 67.5,51.1 68.8,51.1 68.8,52.4 70,52.4 70,51.1 71.3,51.1 72.5,51.1 73.8,51.1 73.8,49.9 73.8,48.6 	"/>
	<polygon class="st55" points="53.8,61.2 53.8,62.4 50,62.4 50,54.9 52.5,54.9 52.5,61.2 	"/>
	<rect x="43.7" y="49.9" class="st56" width="1.3" height="13.8"/>
	<rect x="38.7" y="47.4" class="st57" width="1.2" height="1.2"/>
	<rect x="37.5" y="47.4" class="st57" width="1.2" height="1.2"/>
	<rect x="35" y="47.4" class="st57" width="1.2" height="1.2"/>
	<polygon class="st58" points="42.5,47.4 42.5,49.9 40,49.9 40,51.1 38.7,51.1 38.7,49.9 36.2,49.9 36.2,51.1 35,51.1 35,48.6 
		36.2,48.6 36.2,47.4 35,47.4 35,46.1 40,46.1 40,47.4 37.5,47.4 37.5,48.6 40,48.6 40,47.4 	"/>
	<g>
		<polygon class="st59" points="51.2,46.1 51.2,55 50,55 50,65 47.5,65 47.5,48.7 45,48.7 45,47.4 47.5,47.4 47.5,43.6 50,43.6 
			50,46.1 		"/>
		<polygon class="st59" points="41.2,39.9 39.9,39.9 39.9,38.6 38.7,38.6 37.4,38.6 36.2,38.6 34.9,38.6 34.9,39.9 36.2,39.9 
			37.4,39.9 37.4,41.1 38.7,41.1 38.7,42.4 38.7,43.6 39.9,43.6 41.2,43.6 42.4,43.6 42.4,42.4 42.4,41.1 41.2,41.1 		"/>
	</g>
	<rect x="33.7" y="47.4" class="st57" width="1.2" height="1.2"/>
	<polygon class="st2" points="67.5,51.1 67.5,49.9 66.3,49.9 66.3,48.6 65,48.6 65,49.9 65,51.1 66.3,51.1 66.3,52.4 67.5,52.4 
		67.5,53.6 68.8,53.6 68.8,52.4 68.8,51.1 	"/>
	<polygon class="st2" points="62.5,58.6 62.5,57.4 62.5,56.1 62.5,54.9 61.3,54.9 61.3,53.6 61.3,52.4 61.3,51.1 60,51.1 60,49.9 
		60,48.6 60,47.4 58.8,47.4 58.8,46.1 58.8,44.9 58.8,43.6 57.5,43.6 57.5,42.4 56.2,42.4 55,42.4 55,43.6 56.2,43.6 56.2,44.9 
		56.2,46.1 57.5,46.1 57.5,47.4 57.5,48.6 57.5,49.9 58.8,49.9 58.8,51.1 58.8,52.4 58.8,53.6 60,53.6 60,54.9 60,56.1 60,57.4 
		60,58.6 61.3,58.6 61.3,59.9 61.3,61.2 61.3,62.4 62.5,62.4 63.8,62.4 63.8,61.2 63.8,59.9 62.5,59.9 	"/>
	<polygon class="st2" points="50,64.9 48.7,64.9 47.5,64.9 46.2,64.9 45,64.9 43.7,64.9 43.7,63.6 42.5,63.6 41.2,63.6 40,63.6 
		38.7,63.6 38.7,64.9 37.5,64.9 37.5,66.1 38.7,66.1 40,66.1 41.2,66.1 42.5,66.1 43.7,66.1 43.7,67.4 45,67.4 46.2,67.4 47.5,67.4 
		48.7,67.4 50,67.4 51.2,67.4 51.2,66.1 50,66.1 	"/>
	<polygon class="st2" points="38.7,56.1 40,56.1 40,54.9 41.2,54.9 41.2,53.6 41.2,52.4 41.2,51.1 41.2,49.9 40,49.9 40,51.1 
		38.7,51.1 38.7,49.9 37.5,49.9 36.2,49.9 36.2,51.1 35,51.1 35,49.9 33.7,49.9 32.5,49.9 32.5,51.1 32.5,52.4 32.5,53.6 32.5,54.9 
		32.5,56.1 33.7,56.1 35,56.1 36.2,56.1 37.5,56.1 	"/>
	<polygon class="st2" points="36.2,46.1 37.5,46.1 38.7,46.1 40,46.1 40,47.4 41.2,47.4 42.5,47.4 42.5,46.1 42.5,44.9 42.5,43.6 
		41.2,43.6 40,43.6 38.7,43.6 37.5,43.6 36.2,43.6 35,43.6 33.7,43.6 33.7,44.9 33.7,46.1 35,46.1 	"/>
	<g>
		<polygon class="st60" points="66.3,52.4 66.3,51.1 65,51.1 65,49.9 63.8,49.9 63.8,48.6 63.8,47.4 62.5,47.4 62.5,46.1 62.5,44.9 
			61.3,44.9 61.3,43.6 61.3,42.4 60,42.4 58.8,42.4 57.5,42.4 57.5,43.6 58.8,43.6 58.8,44.9 58.8,46.1 58.8,47.4 60,47.4 60,48.6 
			60,49.9 60,51.1 61.3,51.1 61.3,52.4 61.3,53.6 61.3,54.9 62.5,54.9 62.5,56.1 63.8,56.1 65,56.1 66.3,56.1 66.3,54.9 67.5,54.9 
			67.5,53.6 67.5,52.4 		"/>
		<polygon class="st60" points="61.3,58.6 61.3,62.4 55,62.4 55,59.9 53.8,59.9 53.8,53.6 52.5,53.6 52.5,44.9 51.2,44.9 51.2,43.6 
			56.2,43.6 56.2,46.1 57.5,46.1 57.5,49.9 58.8,49.9 58.8,53.6 60,53.6 60,58.6 		"/>
		<polygon class="st60" points="47.5,44.9 47.5,47.4 45,47.4 45,46.1 46.2,46.1 46.2,44.9 		"/>
		<rect x="45" y="48.6" class="st60" width="2.5" height="16.3"/>
		<rect x="42.5" y="44.9" class="st60" width="1.2" height="3.8"/>
		<polygon class="st60" points="43.7,58.6 43.7,63.6 38.7,63.6 38.7,56.1 40,56.1 40,54.9 41.2,54.9 41.2,49.9 42.5,49.9 42.5,58.6 
					"/>
		<polygon class="st60" points="38.7,42.4 38.7,41.1 37.5,41.1 37.5,39.9 36.2,39.9 35,39.9 33.7,39.9 33.7,41.1 32.5,41.1 
			32.5,42.4 32.5,43.6 32.5,44.9 32.5,46.1 33.7,46.1 33.7,44.9 33.7,43.6 35,43.6 36.2,43.6 37.5,43.6 38.7,43.6 		"/>
	</g>
	<polygon class="st61" points="32.5,46.1 31.2,46.1 31.2,47.4 31.2,48.6 32.5,48.6 33.7,48.6 33.7,47.4 33.7,46.1 	"/>
	<polygon class="st62" points="53.8,65.2 52.9,65.2 52,65.2 51.1,65.2 50.2,65.2 50.2,66 49.3,66 48.4,66 47.5,66 46.6,66 45.7,66 
		44.8,66 43.9,66 43,66 42.1,66 42.1,66.9 43,66.9 43.9,66.9 43.9,67.7 44.8,67.7 44.8,68.5 44.8,69.3 44.8,70.2 45.7,70.2 45.7,71 
		46.6,71 47.5,71 47.5,71.8 47.5,72.6 48.4,72.6 49.3,72.6 49.3,73.5 50.2,73.5 50.2,72.6 51.1,72.6 51.1,71.8 51.1,71 52,71 
		52,70.2 52,69.3 52.9,69.3 52.9,68.5 52.9,67.7 53.8,67.7 53.8,66.9 53.8,66 54.6,66 54.6,65.2 	"/>
	<rect x="41.2" y="79.3" class="st63" width="0.9" height="0.8"/>
	<polygon class="st64" points="43.9,76.8 43.9,76 43,76 43,75.2 42.1,75.2 42.1,76 42.1,76.8 42.1,77.6 42.1,78.5 41.2,78.5 
		41.2,79.3 42.1,79.3 43,79.3 43,78.5 43.9,78.5 43.9,77.6 44.8,77.6 44.8,76.8 	"/>
	<polygon class="st65" points="41.2,75.2 41.2,76 41.2,76.8 41.2,77.6 41.2,78.5 42.1,78.5 42.1,77.6 42.1,76.8 42.1,76 42.1,75.2 	
		"/>
	<g>
		<polygon class="st66" points="48.4,72.6 47.5,72.6 47.5,71.8 47.5,71 46.6,71 45.7,71 45.7,70.2 44.8,70.2 44.8,71 44.8,71.8 
			44.8,72.6 44.8,73.5 44.8,74.3 44.8,75.2 45.7,75.2 45.7,74.3 46.6,74.3 47.5,74.3 48.4,74.3 49.3,74.3 49.3,73.5 49.3,72.6 		"/>
		<polygon class="st66" points="42.1,69.3 41.2,69.3 41.2,70.2 41.2,71 41.2,71.8 41.2,72.6 42.1,72.6 42.1,71.8 43,71.8 43,71 
			43,70.2 42.1,70.2 		"/>
	</g>
	<g>
		<polygon class="st67" points="43.9,67.7 43.9,66.9 43,66.9 42.1,66.9 41.2,66.9 41.2,67.7 41.2,68.5 41.2,69.3 42.1,69.3 
			42.1,70.2 43,70.2 43,71 43,71.8 42.1,71.8 42.1,72.6 41.2,72.6 41.2,73.5 41.2,74.3 41.2,75.2 42.1,75.2 43,75.2 43.9,75.2 
			44.8,75.2 44.8,74.3 44.8,73.5 44.8,72.6 44.8,71.8 44.8,71 44.8,70.2 44.8,69.3 44.8,68.5 44.8,67.7 		"/>
		<rect x="43" y="78.5" class="st67" width="0.9" height="0.8"/>
	</g>
	<rect x="39.4" y="79.3" class="st63" width="0.9" height="0.8"/>
	<polygon class="st68" points="40.3,69.3 40.3,70.2 39.4,70.2 39.4,71 39.4,71.8 40.3,71.8 40.3,72.6 41.2,72.6 41.2,71.8 41.2,71 
		41.2,70.2 41.2,69.3 	"/>
	<g>
		<rect x="40.3" y="79.3" class="st69" width="0.9" height="0.8"/>
		<polygon class="st69" points="40.3,66.9 39.4,66.9 38.6,66.9 38.6,67.7 37.7,67.7 37.7,68.5 37.7,69.3 37.7,70.2 37.7,71 
			37.7,71.8 37.7,72.6 37.7,73.5 37.7,74.3 37.7,75.2 38.6,75.2 39.4,75.2 40.3,75.2 41.2,75.2 41.2,74.3 41.2,73.5 41.2,72.6 
			40.3,72.6 40.3,71.8 39.4,71.8 39.4,71 39.4,70.2 40.3,70.2 40.3,69.3 41.2,69.3 41.2,68.5 41.2,67.7 41.2,66.9 		"/>
		<rect x="38.6" y="78.5" class="st69" width="0.9" height="0.8"/>
	</g>
	<rect x="43" y="65.2" class="st39" width="0.9" height="0.8"/>
	<polygon class="st39" points="42.1,64.4 42.1,63.5 41.2,63.5 41.2,62.7 40.3,62.7 39.4,62.7 38.6,62.7 37.7,62.7 37.7,63.5 
		38.6,63.5 39.4,63.5 39.4,64.4 40.3,64.4 41.2,64.4 41.2,65.2 42.1,65.2 43,65.2 43,64.4 	"/>
	<polygon class="st70" points="36.8,70.2 36.8,71 35.9,71 35,71 35,71.8 35,72.6 34.1,72.6 33.2,72.6 33.2,73.5 33.2,74.3 
		34.1,74.3 35,74.3 35.9,74.3 36.8,74.3 36.8,75.2 37.7,75.2 37.7,74.3 37.7,73.5 37.7,72.6 37.7,71.8 37.7,71 37.7,70.2 	"/>
	<g>
		<polygon class="st71" points="39.4,75.2 39.4,76 38.6,76 38.6,76.8 37.7,76.8 37.7,77.6 38.6,77.6 38.6,78.5 39.4,78.5 39.4,79.3 
			40.3,79.3 40.3,78.5 40.3,77.6 40.3,76.8 40.3,76 40.3,75.2 		"/>
		<polygon class="st71" points="37.7,69.3 37.7,68.5 37.7,67.7 38.6,67.7 38.6,66.9 38.6,66 37.7,66 36.8,66 35.9,66 35,66 34.1,66 
			33.2,66 32.3,66 32.3,65.2 31.4,65.2 30.5,65.2 29.6,65.2 28.7,65.2 27.8,65.2 27.8,66 28.7,66 28.7,66.9 29.6,66.9 29.6,67.7 
			29.6,68.5 30.5,68.5 30.5,69.3 30.5,70.2 31.4,70.2 31.4,71 32.3,71 32.3,71.8 32.3,72.6 32.3,73.5 33.2,73.5 33.2,72.6 
			34.1,72.6 35,72.6 35,71.8 35,71 35.9,71 36.8,71 36.8,70.2 37.7,70.2 		"/>
	</g>
	<polygon class="st72" points="55,59.9 55,63.6 53.8,63.6 53.8,61.2 52.5,61.2 52.5,54.9 51.3,54.9 51.3,46.1 50,46.1 50,43.6 
		47.5,43.6 47.5,43.6 47.5,43.6 47.5,44.9 46.2,44.9 46.2,46.1 45,46.1 45,47.4 45,47.4 45,48.7 45,48.7 45,49.9 43.7,49.9 
		43.7,58.6 42.5,58.6 42.5,48.6 43.7,48.6 43.7,44.9 45,44.9 45,43.6 46.2,43.6 46.2,42.4 48.7,42.4 48.7,0 50,0 50,42.4 51.3,42.4 
		51.3,44.9 52.5,44.9 52.5,53.6 53.8,53.6 53.8,59.9 	"/>
	<rect x="45" y="47.4" class="st72" width="0" height="1.3"/>
	<rect x="47.5" y="43.6" class="st72" width="0" height="1.2"/>
	<polygon class="st41" points="41.2,65.2 41.2,64.4 40.3,64.4 39.4,64.4 39.4,65.2 39.4,66 38.6,66 38.6,66.9 39.4,66.9 40.3,66.9 
		41.2,66.9 42.1,66.9 42.1,66 43,66 43,65.2 42.1,65.2 	"/>
	<polygon class="st41" points="40.3,76 40.3,76.8 40.3,77.6 40.3,78.5 40.3,79.3 41.2,79.3 41.2,78.5 41.2,77.6 41.2,76.8 41.2,76 
		41.2,75.2 40.3,75.2 	"/>
</g>
<polygon id="alev-u2" class="st9" points="75.4,116.4 75.4,119.3 73.9,119.3 73.9,117.8 72.5,117.8 72.5,116.4 "/>
<rect x="88.5" y="124.3" class="st10" width="1.5" height="1.5"/>
<rect x="92.8" y="124.3" class="st10" width="2.2" height="1.5"/>
<polygon id="alev-beyaz" class="st73" points="94.3,119.3 94.3,126.5 92.8,126.5 92.8,125.1 87,125.1 87,126.5 78.3,126.5 
	78.3,123.6 76.8,123.6 76.8,116.3 82.6,116.3 82.6,114.9 84.1,114.9 84.1,112 85.6,112 85.6,113.4 87,113.4 87,117.8 88.5,117.8 
	88.5,119.3 89.9,119.3 89.9,116.3 91.4,116.3 91.4,117.8 92.8,117.8 92.8,119.3 "/>
<polygon id="alev-krem" class="st74" points="88.5,120.7 88.5,119.3 87,119.3 85.6,119.3 85.6,117.8 85.6,116.3 84.1,116.3 
	84.1,117.8 82.6,117.8 82.6,119.3 81.2,119.3 81.2,120.7 81.2,122.2 81.2,123.6 82.6,123.6 84.1,123.6 84.1,125.1 85.6,125.1 
	87,125.1 87,123.6 88.5,123.6 89.9,123.6 89.9,122.2 89.9,120.7 "/>
<polygon class="st75" points="98.9,127.9 98.9,131.9 93.3,131.9 93.3,135.9 90.4,135.9 90.4,139.9 79.1,139.9 79.1,135.9 
	76.3,135.9 76.3,131.9 73.5,131.9 73.5,127.9 "/>
</svg>
