<svg id="Layer_1" data-name="Layer 1" xmlns="http://www.w3.org/2000/svg" xmlns:xlink="http://www.w3.org/1999/xlink" viewBox="0 -30 333.38 360"><defs>
<style>
 #markut-logo{
   animation: markut-logo 12s ease infinite;
    transform-origin: center;
 }
 @keyframes markut-logo{
  0%{transform-origin: center; transform: rotateZ(0deg) translateY(18px) translateX(8px) scale(0.8); }
  50%{transform-origin: center; transform: rotateZ(-1deg) translateY(-6px) translateX(0px) scale(1);}
  100%{transform-origin: center; transform: rotateZ(0deg) translateY(18px) translateX(8px) scale(0.8);}
}
.cls-1{fill:none;}.cls-2{fill:url(#radial-gradient);}.cls-3{fill:#221dbf;}.cls-4{fill:#f7c421;}.cls-5{fill:#c30000;}.cls-6{fill:#eee;}.cls-7{opacity:0.2;isolation:isolate;}.cls-8{clip-path:url(#clip-path);}.cls-9{fill:url(#radial-gradient-2);}</style>
<radialGradient id="radial-gradient" cx="152.3" cy="353.42" fx="59.805010428775816" fy="323.08559186831667" r="249.97" gradientUnits="userSpaceOnUse"><stop offset="0" stop-color="#fd5"/><stop offset="0.1" stop-color="#fd5"/><stop offset="0.5" stop-color="#ff543e"/><stop offset="0.96" stop-color="#c837ab"/></radialGradient><clipPath id="clip-path" transform="translate(-3.18 -74.45)"><rect class="cls-1" x="138.57" y="263.22" width="159.87" height="102.86" transform="translate(-74.03 67.32) rotate(-15.01)"/></clipPath><radialGradient id="radial-gradient-2" cx="152.28" cy="353.42" fx="59.7770029214516" fy="323.0871063031311" r="249.97" xlink:href="#radial-gradient"/></defs><g id="instagram"><path id="Intersection_2" data-name="Intersection 2" class="cls-2" d="M158.18,398.44c-13.45-.62-22.63-2.75-30.66-5.87a64.66,64.66,0,0,1-36.94-36.95c-3.12-8-5.25-17.21-5.86-30.65S84,307.2,84,272.9s.16-38.6.76-52.08,2.74-22.62,5.87-30.65a64.59,64.59,0,0,1,37-36.94c8-3.12,17.21-5.25,30.66-5.86s17.77-.77,52.05-.77,38.59.15,52.06.77,22.62,2.74,30.68,5.86a64.69,64.69,0,0,1,36.94,36.94c3.1,8,5.23,17.21,5.87,30.65s.76,17.78.76,52.08-.16,38.6-.76,52.07-2.77,22.62-5.87,30.65A64.71,64.71,0,0,1,293,392.57c-8,3.12-17.22,5.25-30.67,5.87s-17.76.76-52.06.76S171.65,399.05,158.18,398.44Zm1-228.4c-12.32.56-19,2.62-23.45,4.35a41.89,41.89,0,0,0-24,24c-1.73,4.46-3.79,11.14-4.35,23.45-.61,13.32-.73,17.3-.73,51s.12,37.73.73,51c.56,12.32,2.62,19,4.35,23.45a41.86,41.86,0,0,0,24,24c4.45,1.73,11.14,3.79,23.45,4.35,13.32.6,17.31.74,51,.74s37.72-.13,51-.74c12.32-.56,19-2.61,23.45-4.35a41.88,41.88,0,0,0,24-24c1.72-4.45,3.78-11.13,4.35-23.45.6-13.31.73-17.31.73-51s-.13-37.7-.73-51c-.56-12.31-2.63-19-4.35-23.44a41.93,41.93,0,0,0-24-24c-4.45-1.73-11.14-3.79-23.45-4.35-13.32-.61-17.31-.73-51-.73H198.94v0c-23.55,0-28.06.19-39.71.71ZM145.4,272.9a64.86,64.86,0,1,1,64.86,64.85h0A64.87,64.87,0,0,1,145.4,272.9Zm22.76,0a42.1,42.1,0,1,0,42.1-42.1h0A42.1,42.1,0,0,0,168.16,272.9Zm94.36-67.41a15.17,15.17,0,0,1,15.16-15.16h0a15.16,15.16,0,1,1-15.16,15.16ZM210.26,208Zm0-61.44Z" transform="translate(-3.18 -74.45)"/></g><g id="markut-logo"><rect id="Rectangle_3" data-name="Rectangle 3" class="cls-3" x="138.95" y="191.53" width="114.38" height="57.24" transform="translate(-53.5 -16.15) rotate(-15.01)"/><path id="Path_1" data-name="Path 1" class="cls-4" d="M268.67,269.84l-14.9,18.1-14.93,18L226.9,320.44l-7.33,2L202,315.93l-43.79-16.38,26.85-46.81,36.86-9.88Z" transform="translate(-3.18 -74.45)"/><path id="Path_2" data-name="Path 2" class="cls-4" d="M141.14,142.28l-2.73,22.9h0a57.09,57.09,0,0,0-5,42.16L88,259,3.18,163.34Z" transform="translate(-3.18 -74.45)"/><path class="cls-5" d="M227.26,325.8l-2.65.71-2.66.71-2.38-4.82h0l-34.49-69.65,18.43-4.94.1,0,18.33-4.91,5,77.57Z" transform="translate(-3.18 -74.45)"/><path id="Path_4" data-name="Path 4" class="cls-4" d="M173.88,137.33l-40.39,70h0a57.07,57.07,0,0,1,5-42.17h0l2.73-22.9Z" transform="translate(-3.18 -74.45)"/><path id="Path_5" data-name="Path 5" class="cls-6" d="M133.39,207.34l14.83,55.28L88.09,259Z" transform="translate(-3.18 -74.45)"/><path id="Path_6" data-name="Path 6" class="cls-6" d="M309,199.75,258.78,233,244,177.7Z" transform="translate(-3.18 -74.45)"/><path id="Path_7" data-name="Path 7" class="cls-5" d="M229.16,122.51,210,139.43h0l-12.7,11.27-16,14.15-47.87,42.47h0l5-42.07,0-.1h0l2.73-22.9,4.42-36.86h0l20.9,4.27,51.09,10.49.12.07Z" transform="translate(-3.18 -74.45)"/><path id="Path_8" data-name="Path 8" d="M217.55,120.18l-51.08-10.49-20.9-4.28-41.7-8.57,34.31-9.2a48.16,48.16,0,0,1,38.95,6.19Z" transform="translate(-3.18 -74.45)"/><path id="Path_9" data-name="Path 9" class="cls-3" d="M180.06,307.7l6.35,23.7L202,315.92Z" transform="translate(-3.18 -74.45)"/><polygon class="cls-3" points="216.39 247.94 216.39 247.95 216.38 247.95 209.59 255.23 202.99 257 198.83 241.48 198.83 241.47 216.38 247.94 216.39 247.94"/><polygon class="cls-3" points="239.86 247.12 233.26 248.89 223.73 245.98 235.67 231.5 239.86 247.12"/><path id="Path_12" data-name="Path 12" class="cls-3" d="M253.77,287.94l6.32,23.6L238.84,306Z" transform="translate(-3.18 -74.45)"/><path id="Path_13" data-name="Path 13" class="cls-4" d="M334.7,74.46,309,199.75,244,177.7h0l-70.08-40.37.19-.05,43.48-17.1.1,0Z" transform="translate(-3.18 -74.45)"/><path id="Path_14" data-name="Path 14" class="cls-3" d="M244,177.7h0a57.25,57.25,0,0,1-40.37,70.08h0a57.23,57.23,0,0,1-69.9-39.71l-.2-.75a57.07,57.07,0,0,1,5-42.17h0a57.1,57.1,0,0,1,35.37-27.82l.19-.05A57.27,57.27,0,0,1,244,177.7Z" transform="translate(-3.18 -74.45)"/><circle id="Ellipse_1" data-name="Ellipse 1" class="cls-6" cx="185.5" cy="118.06" r="23.85"/><polygon class="cls-7" points="331.52 0 305.86 125.3 305.85 125.3 285.86 138.53 272.31 147.48 255.61 158.52 234.86 164.09 228.98 165.67 222.3 167.46 218.75 168.41 265.49 195.38 250.59 213.48 256.92 237.08 235.67 231.5 239.86 247.12 233.26 248.89 223.73 245.98 224.08 251.35 221.43 252.06 220.06 246.97 200.32 173.35 191.68 141.1 185.5 118.06 179.32 95.03 178.1 90.47 170.7 62.87 170.89 62.82 214.38 45.72 214.47 45.7 331.52 0"/></g><g id="ust"><g class="cls-8"><g id="instagram-2" data-name="instagram"><path id="Intersection_2-2" data-name="Intersection 2" class="cls-9" d="M158.15,398.44c-13.45-.62-22.63-2.74-30.66-5.87a64.69,64.69,0,0,1-36.93-36.95c-3.12-8-5.25-17.21-5.87-30.65s-.76-17.77-.76-52.07.15-38.6.76-52.08,2.74-22.62,5.86-30.65a64.66,64.66,0,0,1,37-36.94c8-3.12,17.21-5.25,30.66-5.86s17.77-.77,52.06-.77,38.58.15,52,.77,22.63,2.74,30.68,5.86a64.69,64.69,0,0,1,36.94,36.94c3.1,8,5.24,17.21,5.87,30.66s.76,17.77.76,52.07-.16,38.6-.76,52.07-2.77,22.62-5.87,30.65A64.72,64.72,0,0,1,293,392.57c-8,3.12-17.23,5.25-30.67,5.87s-17.77.76-52.07.76S171.62,399.05,158.15,398.44Zm1-228.4c-12.31.57-19,2.62-23.45,4.35a42,42,0,0,0-24,24c-1.73,4.46-3.79,11.14-4.35,23.45-.6,13.32-.72,17.3-.72,51s.12,37.73.72,51c.56,12.32,2.62,19,4.35,23.45a41.93,41.93,0,0,0,24,24c4.45,1.73,11.14,3.79,23.45,4.35,13.32.6,17.31.74,51,.74s37.72-.13,51-.74c12.32-.56,19-2.61,23.45-4.35a41.88,41.88,0,0,0,24-24c1.73-4.45,3.78-11.13,4.35-23.45.6-13.31.73-17.31.73-51s-.13-37.7-.73-51c-.56-12.32-2.62-19-4.35-23.45a41.86,41.86,0,0,0-24-24c-4.45-1.73-11.13-3.79-23.45-4.35-13.31-.6-17.31-.72-51-.72H198.91v0c-23.54,0-28.06.19-39.71.71ZM145.37,272.9a64.86,64.86,0,1,1,64.87,64.85h0A64.87,64.87,0,0,1,145.37,272.9Zm22.76,0a42.1,42.1,0,1,0,42.1-42.1h0A42.1,42.1,0,0,0,168.13,272.9Zm94.37-67.41a15.14,15.14,0,0,1,15.15-15.15h0a15.16,15.16,0,1,1-15.15,15.16ZM210.23,208Zm0-61.44Z" transform="translate(-3.18 -74.45)"/></g></g></g></svg>