<svg id="Layer_1" data-name="Layer 1" xmlns="http://www.w3.org/2000/svg" xmlns:xlink="http://www.w3.org/1999/xlink" viewBox="0 0 595.28 841.89"><defs><style>.cls-1{fill:none;}.cls-2{fill:#f2a28d;}.kcls-3{fill:#f2d144;}.cls-4{opacity:0.6;fill:url(#New_Pattern);}.cls-5{fill:#ec3c37;}.cls-6,.cls-7{fill:#1b1a17;}.cls-7{font-size:26px;font-family:RobotoCondensed-Bold, Roboto Condensed;font-weight:700;}.cls-8{letter-spacing:-0.01em;}


    .kcls-3{
       animation: sari-pembe 10s infinite;
     }
     @keyframes sari-pembe{
        0% {fill:#f2d144}
        50% {fill: #EBBCD8}
        100% {fill:#f2d144}
    }


#noktalar{
   animation: noktalar 6s ease infinite;
 }
 @keyframes noktalar{
  0%{ transform: rotateZ(0deg) translateY(3px) translateX(0px);  }
  50%{ transform: rotateZ(-2deg) translateY(30px) translateX(10px);}
  100%{ transform: rotateZ(0deg) translateY(3px) translateX(0px); }
}
     #less{
   animation: less 6s ease infinite;
 }
 @keyframes less{
  0%{ transform: rotateZ(0deg) translateY(3px) translateX(0px);  }
  50%{ transform: rotateZ(-2deg) translateY(35px) translateX(0px);}
  100%{ transform: rotateZ(0deg) translateY(3px) translateX(0px); }
}


#ucgen{
   animation: ucgen 15s ease infinite;
 }
 @keyframes ucgen{
  0%{ transform: rotateZ(0deg) translateY(3px)   }
  50%{ transform: rotateZ(-1deg) translateY(15px)}
  100%{ transform: rotateZ(0deg) translateY(3px)}
}

#u-markut{
   animation: u-markut 15s ease infinite;
 }
 @keyframes u-markut{
  0%{opacity: 0}
  25%{opacity: 1}
  50%{opacity: 0;}
  100%{opacity: 0;}
}


#sayi-9{
   animation: sayi-9 15s ease infinite;
 }
 @keyframes sayi-9{
  0%{opacity: 0}
  25%{opacity: 1}
  50%{opacity: 0;}
  100%{opacity: 0;}
}

#ihap{
   animation: ihap 15s ease infinite;
 }
 @keyframes ihap{
  0%{opacity: 0}
  50%{opacity: 0;}
  75%{opacity: 1;}
  100%{opacity: 0;}
}

#arka-nokta{
   animation: arka-nokta 6s ease infinite;
 }
 @keyframes arka-nokta{
  0%{opacity: 0.3}
  50%{opacity: 1;}
  100%{opacity: 0.3;}
}

</style>

<pattern id="New_Pattern" data-name="New Pattern" width="9.55" height="9.58" patternUnits="userSpaceOnUse" viewBox="0 0 9.55 9.57"><rect class="cls-1" width="9.55" height="9.58"/><ellipse class="cls-2" cx="4.77" cy="4.79" rx="2.27" ry="2.29"/></pattern></defs><rect id="sari" class="kcls-3" width="595.28" height="841.89"/><rect id="arka-nokta" class="cls-4" width="595.28" height="841.89"/><g id="ihap"><path class="cls-5" d="M181.91,311.58v35.09s15.94-2.39,15.15-4.78S185,310.39,185,310.39Z"/><polygon class="cls-5" points="203.44 304.01 207.02 344.28 217.39 340.69 217.39 324.14 221.78 324.14 228.56 335.51 237.33 330.72 224.57 298.03 216.99 300.02 220.38 315.57 213.4 317.96 211.81 303.61 203.44 304.01"/><path class="cls-5" d="M255.27,284.47l-7.57,5.18-3.79,36.48h9v-5.78l11.56-5.58,6,5.68,8.38-5.68Zm-2.19,25.91,1.2-10,2.49-1.2,3.69,8.77Z"/><path class="cls-5" d="M293.05,270.71c-3.69.2-14.25,4.39-14.25,4.39s10.12,47.25,11,47.25c.8-.2,9.77-5.19,9.77-5.19s-6.18-14.35-5.58-14.55a26.77,26.77,0,0,0,13.36-16.95C310.1,274.1,296.74,270.51,293.05,270.71Zm-.7,20.34-3.19-10.17s7.38-1.4,8.38,2.39C299.26,289.84,292.35,291.05,292.35,291.05Z"/><path class="cls-5" d="M182.23,297.43s9.74.7,9.94.6,6.28-25.12,6.28-25.12H191Z"/><polygon class="cls-5" points="347.97 268.42 370.5 286.27 376.18 280.29 353.65 261.25 347.97 268.42"/><polygon class="cls-5" points="194.17 365.71 206.13 404.58 214.95 401.89 210.31 383.8 219.58 381.56 225.26 397.41 235.58 393.67 223.17 354.8 213.75 359.28 216.15 374.08 207.32 375.73 202.39 362.72 194.17 365.71"/><path class="cls-5" d="M233.94,353.75s9.12,24.07,18.54,27.66S265,375.58,265,375.58s1.64-19.74,1.19-33.94l-10.46,2.64s2.54,22.63-1.65,22-8.22-9.57-8.22-9.57L242,348.22Z"/><polygon class="cls-5" points="277.15 335.51 290.01 367.5 285.22 370.79 286.72 382.22 311.09 368.7 309.44 356.14 299.28 361.93 286.87 330.57 277.15 335.51"/><path class="cls-5" d="M311.09,330s15,25.71,21.53,27.95,9.12-4.18,9.12-4.18L340,313.38l-8.38,6.28s4.79,21.83,1.05,22-13.91-14.21-14.95-17.5Z"/><path class="cls-5" d="M364.32,301.87a22.33,22.33,0,0,0-9.12-3.59c-5.84-1-6.43,20.48-6.43,20.48l.59,11.81s9-3.29,12.71.75-9,25.08-9,25.08h15.25s8.68-18.28,9-29.08-9.12-9.61-9.12-9.61l-9.12.6s-1.64-5.38.15-7.92S365.36,303.81,364.32,301.87Z"/><polygon class="cls-5" points="387.19 308 396.16 341.64 404.39 332.82 393.62 300.52 387.19 308"/></g><g id="markut"><path class="cls-6" d="M186.2,39l12.12,37.89L210.43,39H218V85.39h-5.84V67.31l.55-18.12-12.15,36.2h-4.47L184,49.32l.55,18V85.39h-5.84V39Z"/><path class="cls-6" d="M253.5,73.24H237.81l-3.6,12.15h-6l15-46.44h5l15,46.44h-6Zm-14.16-5H252l-6.35-21.11Z"/><path class="cls-6" d="M286.77,66.6h-8.16V85.39h-5.87V39h13q6.83,0,10.34,3.56t3.5,10.41a14.49,14.49,0,0,1-1.89,7.51,12,12,0,0,1-5.38,4.83l9,19.74v.39H295Zm-8.16-5h7.08a7.58,7.58,0,0,0,5.85-2.37,8.91,8.91,0,0,0,2.18-6.32q0-9-8.09-8.95h-7Z"/><path class="cls-6" d="M321.07,64l-4.56,5.52V85.39h-5.84V39h5.84V61.37l3.83-5.07L332.84,39h7L324.77,59.4l16.26,26h-7Z"/><path class="cls-6" d="M377.21,39V72q-.07,6.6-3.83,10.33T362.89,86q-6.88,0-10.52-3.65T348.66,72V39h5.81V71.71q0,4.7,2,7T362.89,81q4.47,0,6.46-2.31c1.32-1.54,2-3.87,2-7V39Z"/><path class="cls-6" d="M416.6,44H404.39V85.39h-5.83V44H386.37V39H416.6Z"/></g><g id="entas"><path class="cls-6" d="M186.42,100.56h-5v5h5.83v1.52h-7.61V93h7.51v1.52h-5.73V99h5Z"/><path class="cls-6" d="M191.9,96.59l0,1.14a3.07,3.07,0,0,1,2.56-1.33q2.79,0,2.83,3.72v7h-1.71v-6.9a2.92,2.92,0,0,0-.41-1.76,1.49,1.49,0,0,0-1.24-.52,1.76,1.76,0,0,0-1.16.43,3.08,3.08,0,0,0-.82,1.12v7.63h-1.72V96.59Z"/><path class="cls-6" d="M200.54,101.37a6.3,6.3,0,0,1,.91-3.7,3,3,0,0,1,2.61-1.27,2.7,2.7,0,0,1,2.35,1.22V92.18h1.72V107.1h-1.58l-.08-1.12a2.71,2.71,0,0,1-2.42,1.32,3,3,0,0,1-2.56-1.27,6,6,0,0,1-1-3.58Zm1.72,1a5,5,0,0,0,.52,2.59,1.88,1.88,0,0,0,1.71.83,2,2,0,0,0,1.92-1.29v-5.3a2.07,2.07,0,0,0-1.91-1.26,1.88,1.88,0,0,0-1.71.83,5,5,0,0,0-.53,2.55Z"/><path class="cls-6" d="M217.13,106.18a3,3,0,0,1-2.5,1.12,2.52,2.52,0,0,1-2.16-1,4.82,4.82,0,0,1-.73-2.87V96.59h1.71v6.72q0,2.46,1.47,2.46a2.14,2.14,0,0,0,2.16-1.4V96.59h1.72V107.1h-1.63Zm-5-12.4a1.05,1.05,0,0,1,.27-.74,1,1,0,0,1,.79-.3,1,1,0,0,1,.8.3,1,1,0,0,1-.8,1.76,1,1,0,0,1-.79-.29A1,1,0,0,1,212.15,93.78Zm4.18,0a1.1,1.1,0,0,1,.27-.75,1,1,0,0,1,.79-.3,1,1,0,0,1,.8.3,1.1,1.1,0,0,1,.27.75,1,1,0,0,1-.27.73,1.06,1.06,0,0,1-.8.29,1,1,0,0,1-.79-.29A1,1,0,0,1,216.33,93.8Z"/><path class="cls-6" d="M227.49,104.41a1.27,1.27,0,0,0-.42-1,5.84,5.84,0,0,0-1.61-.93,11.17,11.17,0,0,1-2-1,3,3,0,0,1-.85-.93,2.55,2.55,0,0,1-.28-1.24,2.72,2.72,0,0,1,.94-2.13,3.83,3.83,0,0,1,4.86,0,3,3,0,0,1,.93,2.29h-1.71a1.73,1.73,0,0,0-.47-1.21,1.64,1.64,0,0,0-1.22-.5,1.72,1.72,0,0,0-1.19.39,1.37,1.37,0,0,0-.43,1.06,1.15,1.15,0,0,0,.31.84,5.94,5.94,0,0,0,1.53.84,7.62,7.62,0,0,1,2.6,1.47,2.49,2.49,0,0,1,.69,1.81,2.76,2.76,0,0,1-.94,2.19,3.71,3.71,0,0,1-2.53.83,3.77,3.77,0,0,1-2.66-1,3.09,3.09,0,0,1-1-2.39h1.73a1.78,1.78,0,0,0,2,1.87,2,2,0,0,0,1.3-.38A1.3,1.3,0,0,0,227.49,104.41Z"/><path class="cls-6" d="M234.69,94v2.55h1.59V98h-1.59v6.53a1.72,1.72,0,0,0,.21.94.77.77,0,0,0,.7.32,2.48,2.48,0,0,0,.69-.11l0,1.44a3.78,3.78,0,0,1-1.2.2,1.81,1.81,0,0,1-1.55-.73,3.41,3.41,0,0,1-.54-2.06V98h-1.6V96.59H233V94Z"/><path class="cls-6" d="M243.66,98.2a4.75,4.75,0,0,0-.78-.06A1.89,1.89,0,0,0,241,99.58v7.52h-1.72V96.59H241l0,1.07a2.14,2.14,0,0,1,2-1.26,1.56,1.56,0,0,1,.68.13Z"/><path class="cls-6" d="M248.35,93.8a1.11,1.11,0,0,1-.24.73,1.08,1.08,0,0,1-1.47,0,1.11,1.11,0,0,1-.24-.73,1.15,1.15,0,0,1,.24-.74.89.89,0,0,1,.73-.3.85.85,0,0,1,.73.31A1.1,1.1,0,0,1,248.35,93.8Zm-.13,13.3H246.5V96.59h1.72Z"/><path class="cls-6" d="M254.79,104.25l1.91-7.66h1.83l-3.44,12a4.58,4.58,0,0,1-1.1,2,2.23,2.23,0,0,1-1.61.71,3.17,3.17,0,0,1-.89-.16v-1.45l.37,0a1.79,1.79,0,0,0,1.18-.36,2.53,2.53,0,0,0,.68-1.23l.34-1.17L251,96.59h1.88Z"/><path class="cls-6" d="M264.83,107.3a3.83,3.83,0,0,1-3-1.17,5.06,5.06,0,0,1-1.07-3.44v-1.27a6,6,0,0,1,1-3.69,3.42,3.42,0,0,1,2.87-1.33,3.25,3.25,0,0,1,2.75,1.17,6,6,0,0,1,.94,3.66v1.13h-5.87v.24a3.8,3.8,0,0,0,.64,2.46,2.24,2.24,0,0,0,1.83.77,3,3,0,0,0,1.33-.29,3.33,3.33,0,0,0,1.09-.9l.89,1.08A3.9,3.9,0,0,1,264.83,107.3Zm-.19-9.43a1.82,1.82,0,0,0-1.59.74,4.28,4.28,0,0,0-.58,2.27h4.14v-.23a4.11,4.11,0,0,0-.54-2.14A1.68,1.68,0,0,0,264.64,97.87Z"/><path class="cls-6" d="M273.24,107.1h-1.72V92.18h1.72Z"/><path class="cls-6" d="M290.61,94.48h-3.72V107.1h-1.78V94.48H281.4V93h9.21Z"/><path class="cls-6" d="M297.76,107.1a4,4,0,0,1-.22-1.14,2.74,2.74,0,0,1-2.33,1.34,2.78,2.78,0,0,1-3-3.06,3.22,3.22,0,0,1,1.08-2.55,4.47,4.47,0,0,1,3-1h1.26V99.61a1.79,1.79,0,0,0-.42-1.34,2.08,2.08,0,0,0-2.53.06,1.53,1.53,0,0,0-.49,1.17h-1.72a2.79,2.79,0,0,1,.48-1.54,3.39,3.39,0,0,1,1.28-1.15,3.85,3.85,0,0,1,1.8-.41,3.4,3.4,0,0,1,2.45.8,3.11,3.11,0,0,1,.86,2.33v5.31a6.63,6.63,0,0,0,.33,2.11v.15Zm-2.29-1.37a2.26,2.26,0,0,0,1.21-.35,2.09,2.09,0,0,0,.83-.87V102h-1a3.3,3.3,0,0,0-1.93.55,1.72,1.72,0,0,0-.71,1.48,1.92,1.92,0,0,0,.36,1.3A1.55,1.55,0,0,0,295.47,105.73Z"/><path class="cls-6" d="M308,104.41a1.27,1.27,0,0,0-.42-1,6,6,0,0,0-1.61-.93,11.17,11.17,0,0,1-2-1,3,3,0,0,1-.85-.93,2.55,2.55,0,0,1-.28-1.24,2.72,2.72,0,0,1,.94-2.13,3.83,3.83,0,0,1,4.86,0,3,3,0,0,1,.93,2.29h-1.71a1.73,1.73,0,0,0-.47-1.21,1.64,1.64,0,0,0-1.22-.5,1.72,1.72,0,0,0-1.19.39,1.37,1.37,0,0,0-.43,1.06,1.15,1.15,0,0,0,.31.84,5.94,5.94,0,0,0,1.53.84,7.62,7.62,0,0,1,2.6,1.47,2.49,2.49,0,0,1,.69,1.81,2.76,2.76,0,0,1-.94,2.19,3.71,3.71,0,0,1-2.53.83,3.77,3.77,0,0,1-2.66-1,3.09,3.09,0,0,1-1-2.39h1.73a1.9,1.9,0,0,0,.53,1.37,2.33,2.33,0,0,0,2.72.12A1.3,1.3,0,0,0,308,104.41Z"/><path class="cls-6" d="M318.35,107.1a3.71,3.71,0,0,1-.22-1.14,2.74,2.74,0,0,1-2.33,1.34,3,3,0,0,1-2.23-.8,3,3,0,0,1-.81-2.26,3.22,3.22,0,0,1,1.09-2.55,4.46,4.46,0,0,1,3-1h1.27V99.61a1.79,1.79,0,0,0-.42-1.34,2.08,2.08,0,0,0-2.53.06,1.53,1.53,0,0,0-.49,1.17h-1.72a2.86,2.86,0,0,1,.47-1.54,3.42,3.42,0,0,1,1.29-1.15,3.8,3.8,0,0,1,1.79-.41,3.41,3.41,0,0,1,2.46.8,3.11,3.11,0,0,1,.86,2.33v5.31a6.63,6.63,0,0,0,.33,2.11v.15Zm-2.29-1.37a2.4,2.4,0,0,0,2-1.22V102h-1a3.36,3.36,0,0,0-1.94.55,1.75,1.75,0,0,0-.71,1.48,1.92,1.92,0,0,0,.36,1.3A1.57,1.57,0,0,0,316.06,105.73Z"/><path class="cls-6" d="M327.81,98.2a4.75,4.75,0,0,0-.78-.06,1.9,1.9,0,0,0-1.85,1.44v7.52h-1.71V96.59h1.67l0,1.07a2.14,2.14,0,0,1,1.95-1.26,1.53,1.53,0,0,1,.68.13Z"/><path class="cls-6" d="M332.37,107.1h-1.72V96.59h1.72Z"/><path class="cls-6" d="M337.8,96.59l0,1a3.13,3.13,0,0,1,2.54-1.16,2.49,2.49,0,0,1,2.46,1.52,3.11,3.11,0,0,1,2.76-1.52c1.94,0,2.93,1.2,3,3.62v7.08h-1.71v-6.92a2.82,2.82,0,0,0-.41-1.7,1.6,1.6,0,0,0-1.38-.56,1.54,1.54,0,0,0-1.26.6,2.8,2.8,0,0,0-.56,1.54v7h-1.73v-7c0-1.46-.62-2.19-1.78-2.19a1.87,1.87,0,0,0-1.84,1.3v7.88h-1.71V96.59Z"/><path class="cls-6" d="M357.94,107.1V93h3.38a4.83,4.83,0,0,1,3.84,1.55,6.31,6.31,0,0,1,1.37,4.35v2.37a6.2,6.2,0,0,1-1.39,4.34,5.16,5.16,0,0,1-4,1.53Zm1.78-12.62v11.1h1.43a3.31,3.31,0,0,0,2.74-1.08,5,5,0,0,0,.88-3.18V98.81a5.07,5.07,0,0,0-.86-3.28,3.15,3.15,0,0,0-2.59-1Z"/><path class="cls-6" d="M373.81,107.3a3.84,3.84,0,0,1-3-1.17,5.11,5.11,0,0,1-1.07-3.44v-1.27a6,6,0,0,1,1-3.69,3.4,3.4,0,0,1,2.86-1.33,3.29,3.29,0,0,1,2.76,1.17,6,6,0,0,1,.93,3.66v1.13h-5.86v.24a3.86,3.86,0,0,0,.63,2.46,2.26,2.26,0,0,0,1.83.77,3,3,0,0,0,1.34-.29,3.41,3.41,0,0,0,1.08-.9l.9,1.08A3.93,3.93,0,0,1,373.81,107.3Zm-.19-9.43a1.8,1.8,0,0,0-1.58.74,4.27,4.27,0,0,0-.59,2.27h4.14v-.23a3.93,3.93,0,0,0-.54-2.14A1.67,1.67,0,0,0,373.62,97.87Z"/><path class="cls-6" d="M384.71,98.2a4.72,4.72,0,0,0-.77-.06,1.88,1.88,0,0,0-1.85,1.44v7.52h-1.72V96.59H382l0,1.07A2.14,2.14,0,0,1,384,96.4a1.53,1.53,0,0,1,.68.13Z"/><path class="cls-6" d="M386.89,101.37a6.38,6.38,0,0,1,.9-3.72,3,3,0,0,1,2.61-1.25,2.68,2.68,0,0,1,2.44,1.37l.09-1.18h1.55V107.2a4.17,4.17,0,0,1-1,3,3.71,3.71,0,0,1-2.79,1,4.85,4.85,0,0,1-1.74-.38,3.7,3.7,0,0,1-1.46-1l.7-1.18a3.32,3.32,0,0,0,2.36,1c1.44,0,2.17-.79,2.21-2.35v-1.37a2.69,2.69,0,0,1-2.37,1.24,3,3,0,0,1-2.55-1.23,6.13,6.13,0,0,1-.95-3.53Zm1.72,1a5.08,5.08,0,0,0,.52,2.59,1.88,1.88,0,0,0,1.71.83,2,2,0,0,0,1.92-1.31V99.21a2.08,2.08,0,0,0-1.9-1.29,1.88,1.88,0,0,0-1.71.83,4.94,4.94,0,0,0-.54,2.55Z"/><path class="cls-6" d="M400,93.8a1.11,1.11,0,0,1-.24.73,1.08,1.08,0,0,1-1.47,0,1.11,1.11,0,0,1-.24-.73,1.15,1.15,0,0,1,.24-.74.89.89,0,0,1,.73-.3.85.85,0,0,1,.73.31A1.1,1.1,0,0,1,400,93.8Zm-.14,13.3h-1.71V96.59h1.71Z"/><path class="cls-6" d="M408.69,104.41a1.29,1.29,0,0,0-.41-1,5.94,5.94,0,0,0-1.62-.93,11.56,11.56,0,0,1-2-1,3.08,3.08,0,0,1-.85-.93,2.67,2.67,0,0,1-.28-1.24,2.75,2.75,0,0,1,.94-2.13,3.83,3.83,0,0,1,4.86,0,3.05,3.05,0,0,1,.94,2.29H408.6a1.7,1.7,0,0,0-.48-1.21,1.62,1.62,0,0,0-1.22-.5,1.72,1.72,0,0,0-1.19.39,1.41,1.41,0,0,0-.43,1.06,1.15,1.15,0,0,0,.32.84,5.82,5.82,0,0,0,1.52.84,7.62,7.62,0,0,1,2.6,1.47,2.49,2.49,0,0,1,.69,1.81,2.73,2.73,0,0,1-.94,2.19,3.71,3.71,0,0,1-2.53.83,3.77,3.77,0,0,1-2.66-1,3.09,3.09,0,0,1-1-2.39H405a1.91,1.91,0,0,0,.54,1.37,1.93,1.93,0,0,0,1.41.5,2,2,0,0,0,1.31-.38A1.32,1.32,0,0,0,408.69,104.41Z"/><path class="cls-6" d="M415.63,93.8a1.11,1.11,0,0,1-.24.73,1.08,1.08,0,0,1-1.47,0,1.11,1.11,0,0,1-.24-.73,1.15,1.15,0,0,1,.24-.74.9.9,0,0,1,.73-.3.88.88,0,0,1,.74.31A1.14,1.14,0,0,1,415.63,93.8Zm-.13,13.3h-1.72V96.59h1.72Z"/></g><text class="cls-7" transform="translate(237.35 813.35)">M<tspan class="cls-8" x="19.72" y="0">a</tspan><tspan x="31.76" y="0">yıs 2021</tspan></text><g id="ucgen"><path class="cls-5" d="M330.06,520.73l-1.36,2.32-1.09-.64A4,4,0,0,1,330.06,520.73Z"/><path class="cls-5" d="M376.77,441l-1.47,2.51A4,4,0,0,1,376.77,441Z"/><path class="cls-5" d="M414.27,366.45a4,4,0,0,1-3.74,1Z"/><path class="cls-5" d="M431.65,363.54a4,4,0,0,1-8,.45l7.7-2A3.79,3.79,0,0,1,431.65,363.54Z"/><circle class="cls-5" cx="443.73" cy="363.54" r="4.03"/><path class="cls-5" d="M463,361.11l-3.75,6.41a4,4,0,0,1,.55-8A4,4,0,0,1,463,361.11Z"/><path class="cls-5" d="M367.2,379.65a4,4,0,0,1-7.85,1.27l7.77-2.05A4,4,0,0,1,367.2,379.65Z"/><circle class="cls-5" cx="379.28" cy="379.65" r="4.03"/><circle class="cls-5" cx="395.39" cy="379.65" r="4.03"/><circle class="cls-5" cx="411.5" cy="379.65" r="4.03"/><circle class="cls-5" cx="427.61" cy="379.65" r="4.03"/><circle class="cls-5" cx="443.73" cy="379.65" r="4.03"/><path class="cls-5" d="M302.75,395.83a4,4,0,0,1-7.5,2Z"/><circle class="cls-5" cx="314.83" cy="395.76" r="4.03"/><circle class="cls-5" cx="330.94" cy="395.76" r="4.03"/><circle class="cls-5" cx="347.05" cy="395.76" r="4.03"/><circle class="cls-5" cx="363.17" cy="395.76" r="4.03"/><circle class="cls-5" cx="379.28" cy="395.76" r="4.03"/><circle class="cls-5" cx="395.39" cy="395.76" r="4.03"/><circle class="cls-5" cx="411.5" cy="395.76" r="4.03"/><circle class="cls-5" cx="427.61" cy="395.76" r="4.03"/><path class="cls-5" d="M445,391.93l-4,6.8a4,4,0,0,1,4-6.8Z"/><path class="cls-5" d="M238.18,412.84a4,4,0,0,1-3.91,3.06,4,4,0,0,1-2.91-1.26Z"/><path class="cls-5" d="M254.41,411.87a4,4,0,1,1-8,0,4.23,4.23,0,0,1,.19-1.24h0l6.55-1.72A4,4,0,0,1,254.41,411.87Z"/><circle class="cls-5" cx="266.49" cy="411.87" r="4.03"/><circle class="cls-5" cx="282.61" cy="411.87" r="4.03"/><circle class="cls-5" cx="298.72" cy="411.87" r="4.03"/><circle class="cls-5" cx="314.83" cy="411.87" r="4.03"/><circle class="cls-5" cx="330.94" cy="411.87" r="4.03"/><circle class="cls-5" cx="347.05" cy="411.87" r="4.03"/><circle class="cls-5" cx="363.17" cy="411.87" r="4.03"/><path class="cls-5" d="M383.31,411.87c0,.15,0,.29,0,.43L376,414.2a3.93,3.93,0,0,1-.75-2.33,4,4,0,1,1,8.06,0Z"/><path class="cls-5" d="M399.42,411.87a4,4,0,0,1-7.12,2.57l3.1-5.3-3.6.94a4,4,0,0,1,3.59-2.24A4,4,0,0,1,399.42,411.87Z"/><circle class="cls-5" cx="411.5" cy="411.87" r="4.03"/><circle class="cls-5" cx="427.61" cy="411.87" r="4.03"/><path class="cls-5" d="M173.35,429.92a4,4,0,0,1-3.52,2.09,3.89,3.89,0,0,1-2.11-.61Z"/><path class="cls-5" d="M190,428a4,4,0,0,1-8.06,0,1.67,1.67,0,0,1,0-.32l7.34-1.94h0A4,4,0,0,1,190,428Z"/><circle class="cls-5" cx="202.05" cy="427.98" r="4.03"/><circle class="cls-5" cx="218.16" cy="427.98" r="4.03"/><circle class="cls-5" cx="234.27" cy="427.98" r="4.03"/><circle class="cls-5" cx="250.38" cy="427.98" r="4.03"/><circle class="cls-5" cx="266.49" cy="427.98" r="4.03"/><circle class="cls-5" cx="282.61" cy="427.98" r="4.03"/><circle class="cls-5" cx="298.72" cy="427.98" r="4.03"/><path class="cls-5" d="M318.86,428a4,4,0,0,1-.17,1.15L312,430.87a4,4,0,1,1,6.83-2.89Z"/><path class="cls-5" d="M333.83,425.18,327.06,427a4,4,0,0,1,6.77-1.77Z"/><circle class="cls-5" cx="395.39" cy="427.98" r="4.03"/><circle class="cls-5" cx="411.5" cy="427.98" r="4.03"/><path class="cls-5" d="M426.05,424.28l-2.43,4.17a3.59,3.59,0,0,1,0-.47A4,4,0,0,1,426.05,424.28Z"/><path class="cls-5" d="M125.49,443.6l-1.26-.74,1-.26A3.68,3.68,0,0,1,125.49,443.6Z"/><circle class="cls-5" cx="137.6" cy="444.1" r="4.03"/><circle class="cls-5" cx="153.71" cy="444.1" r="4.03"/><circle class="cls-5" cx="169.82" cy="444.1" r="4.03"/><circle class="cls-5" cx="185.93" cy="444.1" r="4.03"/><circle class="cls-5" cx="202.05" cy="444.1" r="4.03"/><circle class="cls-5" cx="218.16" cy="444.1" r="4.03"/><circle class="cls-5" cx="234.27" cy="444.1" r="4.03"/><path class="cls-5" d="M254.41,444.1a4,4,0,0,1-.48,1.91l-5.69,1.48a4,4,0,0,1-1.88-3.39,4,4,0,1,1,8,0Z"/><path class="cls-5" d="M269.85,441.86l-7.36,1.92a4,4,0,0,1,7.36-1.92Z"/><path class="cls-5" d="M383.31,444.1a4,4,0,0,1-8.06,0,4.48,4.48,0,0,1,.05-.64,4,4,0,0,1,8,.64Z"/><circle class="cls-5" cx="395.39" cy="444.1" r="4.03"/><path class="cls-5" d="M415.27,442.7l-3.14,5.37a4.21,4.21,0,0,1-.62.05,4,4,0,1,1,3.76-5.42Z"/><path class="cls-5" d="M157.74,460.21a4,4,0,0,1-.56,2l-6.93-4.08a4,4,0,0,1,7.49,2Z"/><circle class="cls-5" cx="169.82" cy="460.21" r="4.03"/><circle class="cls-5" cx="185.93" cy="460.21" r="4.03"/><circle class="cls-5" cx="202.05" cy="460.21" r="4.03"/><path class="cls-5" d="M222.16,460.67a4,4,0,0,1-8-.46,4,4,0,0,1,1.68-3.26Z"/><path class="cls-5" d="M367.2,460.21a4,4,0,0,1-4,4h0l3.52-6A3.89,3.89,0,0,1,367.2,460.21Z"/><circle class="cls-5" cx="379.28" cy="460.21" r="4.03"/><circle class="cls-5" cx="395.39" cy="460.21" r="4.03"/><path class="cls-5" d="M190,476.32a4,4,0,0,1-2.53,3.74l-5.5-3.24a4,4,0,1,1,8-.5Z"/><circle class="cls-5" cx="202.05" cy="476.32" r="4.03"/><circle class="cls-5" cx="218.16" cy="476.32" r="4.03"/><circle class="cls-5" cx="234.27" cy="476.32" r="4.03"/><path class="cls-5" d="M253.41,479a4,4,0,0,1-7-2.65,3.8,3.8,0,0,1,.24-1.35Z"/><circle class="cls-5" cx="363.17" cy="476.32" r="4.03"/><circle class="cls-5" cx="379.28" cy="476.32" r="4.03"/><path class="cls-5" d="M397.57,472.94l-4.06,6.94a4,4,0,0,1,1.88-7.59A3.88,3.88,0,0,1,397.57,472.94Z"/><path class="cls-5" d="M205.74,490.82l-4.08-2.4.39,0A4,4,0,0,1,205.74,490.82Z"/><circle class="cls-5" cx="218.16" cy="492.43" r="4.03"/><circle class="cls-5" cx="234.27" cy="492.43" r="4.03"/><circle class="cls-5" cx="250.38" cy="492.43" r="4.03"/><circle class="cls-5" cx="266.49" cy="492.43" r="4.03"/><path class="cls-5" d="M283.21,496.41a3.94,3.94,0,0,1-.6,0,4,4,0,0,1-3.76-2.6Z"/><path class="cls-5" d="M351.09,492.43a4,4,0,0,1-4,4,4,4,0,0,1-2.34-.76l4-6.91A4,4,0,0,1,351.09,492.43Z"/><circle class="cls-5" cx="363.17" cy="492.43" r="4.03"/><circle class="cls-5" cx="379.28" cy="492.43" r="4.03"/><path class="cls-5" d="M238.3,508.54a4,4,0,0,1-.22,1.31l-6.79-4a4,4,0,0,1,3-1.33A4,4,0,0,1,238.3,508.54Z"/><circle class="cls-5" cx="250.38" cy="508.54" r="4.03"/><circle class="cls-5" cx="266.49" cy="508.54" r="4.03"/><circle class="cls-5" cx="282.61" cy="508.54" r="4.03"/><path class="cls-5" d="M302.75,508.54a4,4,0,1,1-5.33-3.8l5.26,3.08A3.38,3.38,0,0,1,302.75,508.54Z"/><circle class="cls-5" cx="347.05" cy="508.54" r="4.03"/><circle class="cls-5" cx="363.17" cy="508.54" r="4.03"/><path class="cls-5" d="M379.07,504.53l-3.39,5.8a3.82,3.82,0,0,1-.43-1.79A4,4,0,0,1,379.07,504.53Z"/><path class="cls-5" d="M270.53,524.66a4,4,0,0,1-1.71,3.28l-6.32-3.72a4,4,0,0,1,8,.44Z"/><circle class="cls-5" cx="282.61" cy="524.66" r="4.03"/><circle class="cls-5" cx="298.72" cy="524.66" r="4.03"/><circle class="cls-5" cx="314.83" cy="524.66" r="4.03"/><path class="cls-5" d="M335,524.66a4,4,0,0,1-8.05,0,4,4,0,0,1,3.14-3.93,3.74,3.74,0,0,1,.89-.1A4,4,0,0,1,335,524.66Z"/><circle class="cls-5" cx="347.05" cy="524.66" r="4.03"/><circle class="cls-5" cx="363.17" cy="524.66" r="4.03"/><circle class="cls-5" cx="298.72" cy="540.77" r="4.03"/><circle class="cls-5" cx="314.83" cy="540.77" r="4.03"/><circle class="cls-5" cx="330.94" cy="540.77" r="4.03"/><circle class="cls-5" cx="347.05" cy="540.77" r="4.03"/><path class="cls-5" d="M318.86,556.88a3.87,3.87,0,0,1,0,.48l-6.36-3.74a4,4,0,0,1,2.36-.77A4,4,0,0,1,318.86,556.88Z"/><circle class="cls-5" cx="330.94" cy="556.88" r="4.03"/><path class="cls-5" d="M350,554.15l-3.89,6.65a4,4,0,1,1,3.89-6.65Z"/></g><g id="u-markut"><polygon class="cls-5" points="77.27 436.99 73.45 407.44 80.45 402.03 91.61 412.49 87.79 394.34 102.08 396.63 120.74 422.09 111.31 424.39 102.36 413.61 103.67 427.1 95.77 427.75 87.66 420.49 87.99 431.34 77.27 436.99"/><path class="cls-5" d="M130.52,381.68l-5.89,5.62-2.37,32.59,10.34,1.42L131.47,414l8.86-4.34,4.61,4.9,6.51-7.48Zm1.23,22.1.89-6,3.56,4.88Z"/><path class="cls-5" d="M174.8,400.81,164.25,393s8-6.35,3.33-17.11-22.05-.79-22.05-.79L156.8,412l7.69-4.08-2.23-6.23L170,407.4Zm-17.3-15.49-2.19-6.11s3.21-1.93,4,1.38A4.2,4.2,0,0,1,157.5,385.32Z"/><polygon class="cls-5" points="172.52 365.16 179.64 403.2 189.1 400.14 188.42 393.67 196.38 399.86 203.46 392.49 189.71 383.82 195.59 365.23 187.35 364.73 184.75 376.59 183.09 365.98 172.52 365.16"/><path class="cls-5" d="M199.78,366.47s15.17,36.29,26.45,21c0,0,4.56-18.51-.32-32.19l-9.34,1.89s4.29,16.72.56,18-9.49-14.92-9.49-14.92Z"/><polygon class="cls-5" points="232.22 351.06 256.59 341.73 258.14 352.68 252.99 354.17 256.94 375.92 249.02 381.49 242.21 358.79 230.84 362.58 232.22 351.06"/></g><g id="sayi-9"><circle class="cls-5" cx="407.94" cy="339.39" r="3.26"/><path class="cls-5" d="M392.49,299.47s-3.82-3-9.95-1.18-13.57,3.87-14.73,13.06c0,0,.42,8.2,5.74,13.28A16.71,16.71,0,0,0,385.74,329l1.68,17.19,10.74,2.14Zm-12.95,15.26s-.55-4.34,4-4.5l.91,9.1S381.2,320.43,379.54,314.73Z"/><path class="cls-5" d="M459.14,291.91l-7.44,4.72-9.39,34.13L453,334.45l.35-8.06,10.33-2.74,3.86,6.17,8.5-6.57Zm-3.35,23.73L458,309.4l2.75,5.94Z"/><path class="cls-5" d="M432.11,298.18l-7-3.43s-4.75,3-6.38,2.89c0,0-3.5,11-2.2,21.5,0,0,8.51-2,8.52,3.6s-9,16.51-9,16.51l12.68,2.56s16.73-24.5,7-30.64c0,0-1.7-2.85-9.93-1.09C425.74,310.08,425.33,301.58,432.11,298.18Z"/><path class="cls-5" d="M469.72,291.52s4.8,19.15,9.42,21.9L478,328.29l12.19-1.6-2.58-14.75s4.29-4.14,4.34-27.81l-8.23,2.37s-.85,14.53-2.52,14.15-3-13-3-13Z"/><polygon class="cls-5" points="495.1 291.37 502.01 285.33 508.68 316.09 499.06 325.97 495.1 291.37"/></g></svg>