<?xml version="1.0" encoding="utf-8"?>
<!-- Generator: Adobe Illustrator 24.3.0, SVG Export Plug-In . SVG Version: 6.00 Build 0)  -->
<svg version="1.1" id="Layer_1" xmlns="http://www.w3.org/2000/svg" xmlns:xlink="http://www.w3.org/1999/xlink" x="0px" y="0px"
	 viewBox="0 0 317.19 448.6" style="enable-background:new 0 0 317.19 448.6;" xml:space="preserve">
<style type="text/css">
	#parlak{
		animation: parlak 10s ease infinite;
		-webkit-animation: parlak 10s ease infinite;
		-moz-animation: parlak 10s ease infinite;
	  }
	  @keyframes parlak{
	   0%{transform-origin: center; -webkit-filter: blur(5px); -moz-filter: blur(5px); -o-filter: blur(5px); -ms-filter: blur(5px);}
	   100%{transform-origin: center;  -webkit-filter: blur(7px); -moz-filter: blur(7px); -o-filter: blur(7px); -ms-filter: blur(7px);}
	 } 
	 #isin{
		animation: isin 10s ease infinite;
	  }
	  @keyframes isin{
	   0%{transform-origin: center; transform:  translateY(500px) translateX(0px) ;}
	   10%{transform-origin: center; transform: translateY(0px) translateX(0px) ; }
	   90%{transform-origin: center; transform: translateY(0px) translateX(0px) ; }
	   100%{transform-origin: center; transform: translateY(500px) translateX(0px) ; }
	 }      
	 
	   #sifir{
		animation: sifir 10s ease infinite;
		-webkit-animation: sifir 10s ease infinite;
		-moz-animation: sifir 10s ease infinite;
	  }
	  @keyframes sifir{
	   0%{transform-origin: center; transform:  translateY(0px) translateX(50px) scale(0.5); -webkit-filter: blur(20px); -moz-filter: blur(20px); -o-filter: blur(20px); -ms-filter: blur(20px);}
	   50%{transform-origin: center; transform: translateY(0px) translateX(0px) scale(1); -webkit-filter: blur(0px); -moz-filter: blur(0px); -o-filter: blur(0px); -ms-filter: blur(0px);}
	   100%{transform-origin: center; transform:  translateY(0px) translateX(50px) scale(0.5); -webkit-filter: blur(20px); -moz-filter: blur(20px); -o-filter: blur(20px); -ms-filter: blur(20px);}
	 } 
	 
	 
	 
	   #golge{
		animation: golge 6s ease infinite;
	  }
	  @keyframes golge{
	   0%{opacity: 1;}
	   50%{opacity: 0.8;}
	   100%{opacity: 1;}
	 } 

	.st0{fill:#11113F;}
	.st1{opacity:0.8;fill:#E9FEFB;}
	.st2{fill:#E9FEFB;}
	.st3{opacity:0.43;}
	.st4{fill:#BDC6C4;}
	.st5{fill:#848988;}
	.st6{opacity:0.08;}
	.st7{fill:#F2F2F2;}
</style>
<rect id="background" class="st0" width="317.19" height="448.6"/>
<g id="isin">
	<path id="parlak" class="st1" d="M99.83,103.93L99.83,103.93c-3.73,0-6.75,3.02-6.75,6.75v154.97h13.5V110.68
		C106.58,106.95,103.56,103.93,99.83,103.93z"/>
	<g id="cubuk">
		<path class="st2" d="M103.23,265.65h-6.81v-152c0-1.88,1.52-3.4,3.4-3.4h0c1.88,0,3.4,1.52,3.4,3.4V265.65z"/>
	</g>
</g>
<rect x="65.73" y="265.65" class="st0" width="68.07" height="182.95"/>
<g id="Layer_2" class="st3">
</g>
<g>
	<path class="st2" d="M129.95,426.47h-1.95v-4.14h-2.88v4.14h-1.95v-9.67h1.95v3.91h2.88v-3.91h1.95V426.47z"/>
	<path class="st2" d="M134.84,426.47c-0.05-0.11-0.11-0.3-0.16-0.56c-0.34,0.46-0.79,0.69-1.37,0.69c-0.6,0-1.1-0.2-1.5-0.6
		c-0.4-0.4-0.59-0.91-0.59-1.55c0-0.75,0.24-1.34,0.72-1.75c0.48-0.41,1.17-0.62,2.08-0.63h0.57v-0.58c0-0.32-0.06-0.55-0.17-0.68
		c-0.11-0.13-0.27-0.2-0.48-0.2c-0.47,0-0.7,0.27-0.7,0.82h-1.88c0-0.66,0.25-1.21,0.75-1.64c0.5-0.43,1.13-0.65,1.89-0.65
		c0.79,0,1.4,0.2,1.83,0.61c0.43,0.41,0.65,1,0.65,1.76v3.38c0.01,0.62,0.1,1.1,0.27,1.45v0.11H134.84z M133.73,425.12
		c0.21,0,0.39-0.04,0.53-0.13c0.15-0.08,0.25-0.18,0.33-0.3v-1.49h-0.45c-0.32,0-0.57,0.1-0.75,0.31c-0.18,0.2-0.28,0.48-0.28,0.82
		C133.11,424.86,133.31,425.12,133.73,425.12z"/>
	<path class="st2" d="M139.91,424.9h2.84v1.56h-5.07v-1.18l2.78-4.44h-2.71v-1.57h4.97v1.14L139.91,424.9z"/>
	<path class="st2" d="M143.99,417.42c0-0.29,0.09-0.53,0.28-0.72c0.19-0.19,0.43-0.28,0.74-0.28c0.31,0,0.56,0.09,0.74,0.28
		c0.19,0.19,0.28,0.43,0.28,0.72c0,0.29-0.09,0.53-0.28,0.72c-0.18,0.19-0.43,0.29-0.75,0.29c-0.31,0-0.56-0.09-0.75-0.29
		C144.08,417.95,143.99,417.71,143.99,417.42z M145.96,426.47h-1.89v-7.19h1.89V426.47z"/>
	<path class="st2" d="M150.96,421.09l-0.62-0.05c-0.51,0-0.86,0.23-1.04,0.68v4.75h-1.89v-7.19h1.77l0.05,0.78
		c0.3-0.61,0.71-0.91,1.23-0.91c0.21,0,0.39,0.03,0.52,0.09L150.96,421.09z"/>
	<path class="st2" d="M155.14,426.47c-0.05-0.11-0.11-0.3-0.16-0.56c-0.34,0.46-0.79,0.69-1.37,0.69c-0.6,0-1.1-0.2-1.5-0.6
		c-0.4-0.4-0.59-0.91-0.59-1.55c0-0.75,0.24-1.34,0.72-1.75c0.48-0.41,1.17-0.62,2.08-0.63h0.57v-0.58c0-0.32-0.06-0.55-0.17-0.68
		c-0.11-0.13-0.27-0.2-0.48-0.2c-0.47,0-0.7,0.27-0.7,0.82h-1.88c0-0.66,0.25-1.21,0.75-1.64c0.5-0.43,1.13-0.65,1.89-0.65
		c0.79,0,1.4,0.2,1.83,0.61c0.43,0.41,0.65,1,0.65,1.76v3.38c0.01,0.62,0.1,1.1,0.27,1.45v0.11H155.14z M154.03,425.12
		c0.21,0,0.39-0.04,0.53-0.13c0.15-0.08,0.25-0.18,0.33-0.3v-1.49h-0.45c-0.32,0-0.57,0.1-0.75,0.31c-0.18,0.2-0.28,0.48-0.28,0.82
		C153.41,424.86,153.61,425.12,154.03,425.12z"/>
	<path class="st2" d="M159.85,419.28l0.05,0.71c0.43-0.56,0.98-0.84,1.67-0.84c1.24,0,1.87,0.87,1.91,2.6v4.72h-1.89v-4.58
		c0-0.41-0.06-0.7-0.18-0.89s-0.34-0.28-0.64-0.28c-0.34,0-0.61,0.18-0.8,0.52v5.22h-1.89v-7.19H159.85z"/>
	<path class="st2" d="M173.6,426.47h-5.7v-1.33l2.62-3.33c0.33-0.46,0.58-0.86,0.73-1.21c0.16-0.35,0.24-0.68,0.24-1
		c0-0.43-0.07-0.77-0.22-1.01c-0.15-0.24-0.36-0.37-0.64-0.37c-0.31,0-0.55,0.14-0.73,0.42c-0.18,0.28-0.27,0.68-0.27,1.2h-1.89
		c0-0.59,0.12-1.14,0.37-1.63c0.25-0.49,0.59-0.87,1.04-1.15c0.44-0.27,0.95-0.41,1.51-0.41c0.86,0,1.53,0.24,2.01,0.71
		c0.48,0.48,0.71,1.15,0.71,2.03c0,0.54-0.13,1.1-0.4,1.66c-0.26,0.56-0.74,1.25-1.43,2.07l-1.24,1.77h3.29V426.47z"/>
	<path class="st2" d="M180.41,422.47c0,1.34-0.24,2.36-0.73,3.07c-0.48,0.71-1.18,1.06-2.08,1.06c-0.89,0-1.58-0.34-2.06-1.03
		c-0.48-0.69-0.74-1.67-0.75-2.96v-1.83c0-1.33,0.24-2.35,0.72-3.06c0.48-0.71,1.18-1.06,2.08-1.06c0.9,0,1.6,0.35,2.08,1.05
		c0.48,0.7,0.73,1.7,0.74,3V422.47z M178.52,420.51c0-0.76-0.08-1.33-0.23-1.71c-0.15-0.38-0.39-0.57-0.7-0.57
		c-0.6,0-0.91,0.7-0.93,2.09v2.41c0,0.78,0.08,1.36,0.23,1.74c0.15,0.38,0.39,0.57,0.71,0.57c0.31,0,0.53-0.18,0.68-0.53
		s0.23-0.9,0.24-1.64V420.51z"/>
	<path class="st2" d="M187.37,426.47h-5.7v-1.33l2.62-3.33c0.33-0.46,0.58-0.86,0.73-1.21c0.16-0.35,0.24-0.68,0.24-1
		c0-0.43-0.07-0.77-0.22-1.01c-0.15-0.24-0.36-0.37-0.64-0.37c-0.31,0-0.55,0.14-0.73,0.42c-0.18,0.28-0.27,0.68-0.27,1.2h-1.89
		c0-0.59,0.12-1.14,0.37-1.63c0.25-0.49,0.59-0.87,1.04-1.15c0.44-0.27,0.95-0.41,1.51-0.41c0.86,0,1.53,0.24,2.01,0.71
		c0.48,0.48,0.71,1.15,0.71,2.03c0,0.54-0.13,1.1-0.4,1.66c-0.26,0.56-0.74,1.25-1.43,2.07l-1.24,1.77h3.29V426.47z"/>
	<path class="st2" d="M192.69,426.47h-1.89v-7.39l-1.84,0.71v-1.57l3.53-1.44h0.2V426.47z"/>
</g>
<g id="markut">
	<path class="st2" d="M98.39,24.49l6.55,20.47l6.55-20.47h4.06v25.09h-3.15V39.8l0.29-9.78l-6.56,19.56h-2.41l-6.52-19.49l0.29,9.72
		v9.77h-3.15V24.49H98.39z"/>
	<path class="st2" d="M134.75,43.01h-8.47l-1.95,6.56h-3.23l8.08-25.09h2.7l8.08,25.09h-3.23L134.75,43.01z M127.1,40.3h6.84
		l-3.43-11.4L127.1,40.3z"/>
	<path class="st2" d="M152.73,39.42h-4.41v10.15h-3.17V24.49h7.03c2.46,0,4.32,0.64,5.58,1.92c1.26,1.28,1.9,3.16,1.9,5.62
		c0.04,1.42-0.31,2.82-1.01,4.06c-0.68,1.15-1.69,2.06-2.9,2.61l4.86,10.66v0.21h-3.39L152.73,39.42z M148.32,36.72h3.82
		c1.19,0.06,2.34-0.41,3.16-1.27c0.79-0.86,1.18-2,1.18-3.43c0-3.22-1.46-4.83-4.37-4.83h-3.79V36.72z"/>
	<path class="st2" d="M171.25,38.01l-2.46,2.98v8.58h-3.15V24.49h3.15V36.6l2.05-2.74l6.75-9.37h3.8l-8.15,11.04l8.79,14.04h-3.77
		L171.25,38.01z"/>
	<path class="st2" d="M201.58,24.49v17.83c-0.02,2.38-0.71,4.24-2.06,5.58c-1.35,1.34-3.24,2.02-5.67,2.02
		c-2.48,0-4.37-0.66-5.68-1.97c-1.31-1.32-1.98-3.19-2-5.62V24.49h3.13v17.7c0,1.69,0.36,2.95,1.08,3.78s1.88,1.25,3.47,1.25
		c1.61,0,2.77-0.42,3.49-1.25c0.72-0.83,1.07-2.09,1.08-3.78v-17.7H201.58z"/>
	<path class="st2" d="M222.86,27.19h-6.6v22.38h-3.15V27.19h-6.58v-2.7h16.33V27.19z"/>
</g>
<g id="entas">
	<path class="st2" d="M98,57.77h-2.7v2.71h3.15v0.83h-4.11v-7.64h4.06v0.82h-3.1v2.46H98V57.77z"/>
	<path class="st2" d="M100.95,55.62l0.03,0.61c0.31-0.45,0.83-0.72,1.38-0.72c1.01,0,1.52,0.67,1.53,2.01v3.77h-0.91v-3.73
		c0.03-0.33-0.05-0.66-0.22-0.94c-0.16-0.2-0.41-0.3-0.67-0.28c-0.23,0-0.45,0.08-0.62,0.23c-0.19,0.16-0.34,0.37-0.44,0.6v4.13
		h-0.93v-5.68H100.95z"/>
	<path class="st2" d="M105.62,58.2c-0.04-0.7,0.13-1.4,0.49-2c0.32-0.45,0.85-0.71,1.41-0.69c0.51-0.02,0.99,0.23,1.27,0.66v-2.94
		h0.93v8.06h-0.85l-0.05-0.61c-0.27,0.46-0.77,0.74-1.31,0.72c-0.55,0.02-1.07-0.24-1.38-0.69c-0.37-0.58-0.55-1.25-0.51-1.94
		L105.62,58.2z M106.55,58.73c-0.03,0.49,0.06,0.97,0.28,1.4c0.2,0.3,0.56,0.47,0.92,0.45c0.46,0.01,0.87-0.27,1.03-0.7v-2.87
		c-0.17-0.41-0.58-0.68-1.03-0.68c-0.37-0.03-0.72,0.14-0.92,0.45c-0.22,0.42-0.32,0.9-0.29,1.38L106.55,58.73z"/>
	<path class="st2" d="M114.58,60.8c-0.32,0.41-0.83,0.64-1.35,0.6c-0.45,0.03-0.89-0.17-1.17-0.53c-0.29-0.46-0.43-1.01-0.4-1.55
		v-3.7h0.92v3.63c0,0.88,0.27,1.33,0.8,1.33c0.51,0.03,0.98-0.27,1.16-0.75v-4.2h0.93v5.68h-0.88L114.58,60.8z M111.9,54.12
		c-0.01-0.15,0.05-0.29,0.14-0.4c0.25-0.22,0.61-0.22,0.86,0c0.09,0.11,0.14,0.25,0.13,0.4c0,0.32-0.26,0.57-0.57,0.57
		c-0.32,0-0.57-0.26-0.57-0.57H111.9z M114.15,54.12c0-0.15,0.05-0.29,0.15-0.4c0.11-0.11,0.27-0.17,0.43-0.16
		c0.16-0.01,0.32,0.05,0.43,0.16c0.1,0.11,0.15,0.25,0.15,0.4c0,0.15-0.05,0.29-0.15,0.39c-0.12,0.11-0.27,0.17-0.43,0.16
		c-0.16,0.01-0.31-0.05-0.43-0.16C114.2,54.41,114.15,54.27,114.15,54.12z"/>
	<path class="st2" d="M120.18,59.87c0-0.2-0.08-0.38-0.23-0.52c-0.26-0.21-0.56-0.38-0.87-0.5c-0.37-0.14-0.73-0.32-1.06-0.53
		c-0.19-0.13-0.35-0.3-0.46-0.5c-0.11-0.21-0.16-0.44-0.15-0.67c-0.01-0.44,0.18-0.86,0.51-1.15c0.77-0.62,1.87-0.61,2.62,0.02
		c0.34,0.32,0.52,0.77,0.51,1.24h-0.92c0-0.24-0.09-0.48-0.26-0.65c-0.17-0.18-0.41-0.28-0.66-0.27c-0.23-0.01-0.46,0.06-0.64,0.21
		c-0.16,0.14-0.24,0.35-0.23,0.57c-0.01,0.17,0.05,0.33,0.17,0.46c0.25,0.19,0.52,0.35,0.82,0.46c0.52,0.17,1,0.44,1.41,0.79
		c0.25,0.27,0.37,0.62,0.36,0.98c0.02,0.45-0.17,0.89-0.51,1.18c-0.38,0.31-0.87,0.47-1.36,0.45c-0.53,0.02-1.04-0.16-1.44-0.51
		c-0.36-0.33-0.56-0.8-0.55-1.29h0.93c0.06,0.61,0.6,1.06,1.21,1c0.2-0.02,0.39-0.09,0.55-0.21
		C120.1,60.29,120.19,60.08,120.18,59.87z"/>
	<path class="st2" d="M124.07,54.25v1.38h0.85v0.75h-0.85v3.53c-0.01,0.18,0.03,0.35,0.11,0.51c0.09,0.12,0.23,0.19,0.38,0.17
		c0.12,0,0.24-0.02,0.36-0.06v0.78c-0.21,0.07-0.43,0.1-0.65,0.1c-0.33,0.02-0.64-0.13-0.84-0.39c-0.21-0.33-0.31-0.72-0.29-1.11
		v-3.53h-0.87v-0.75h0.87v-1.38L124.07,54.25z"/>
	<path class="st2" d="M128.91,56.5c-0.14-0.03-0.28-0.04-0.42-0.04c-0.47,0-0.89,0.32-0.99,0.78v4.06h-0.93v-5.68h0.9l0.02,0.58
		c0.19-0.42,0.6-0.68,1.06-0.68c0.12,0,0.25,0.02,0.36,0.07L128.91,56.5z"/>
	<path class="st2" d="M131.45,54.12c0.01,0.14-0.04,0.28-0.13,0.39c-0.1,0.11-0.25,0.17-0.4,0.16c-0.15,0.01-0.29-0.05-0.39-0.16
		c-0.09-0.11-0.14-0.25-0.13-0.39c0-0.15,0.04-0.29,0.13-0.4c0.1-0.11,0.24-0.17,0.39-0.16c0.15-0.01,0.3,0.05,0.4,0.17
		C131.41,53.84,131.46,53.98,131.45,54.12z M131.38,61.3h-0.93v-5.68h0.93V61.3z"/>
	<path class="st2" d="M134.94,59.76l1.03-4.14h0.99l-1.86,6.46c-0.1,0.42-0.3,0.8-0.6,1.11c-0.22,0.24-0.54,0.38-0.87,0.38
		c-0.16-0.01-0.33-0.04-0.48-0.09v-0.75l0.2,0.02c0.23,0.01,0.45-0.06,0.63-0.19c0.18-0.18,0.31-0.41,0.36-0.66l0.19-0.63
		l-1.67-5.63h1.01L134.94,59.76z"/>
	<path class="st2" d="M140.35,61.41c-0.61,0.04-1.2-0.19-1.63-0.63c-0.41-0.53-0.62-1.19-0.58-1.86v-0.69
		c-0.04-0.71,0.15-1.41,0.55-1.99c0.37-0.48,0.95-0.75,1.55-0.72c0.57-0.04,1.13,0.2,1.49,0.64c0.33,0.42,0.5,1.08,0.5,1.98v0.61
		h-3.17v0.13c-0.04,0.47,0.09,0.94,0.36,1.33c0.25,0.28,0.61,0.44,0.99,0.41c0.25,0.01,0.49-0.05,0.72-0.15
		c0.23-0.12,0.43-0.29,0.58-0.49l0.48,0.59C141.78,61.14,141.08,61.46,140.35,61.41z M140.25,56.32c-0.33-0.02-0.66,0.13-0.86,0.39
		c-0.21,0.37-0.32,0.8-0.31,1.23h2.23v-0.13c0.01-0.41-0.09-0.81-0.29-1.16C140.84,56.42,140.55,56.29,140.25,56.32L140.25,56.32z"
		/>
	<path class="st2" d="M144.9,61.3h-0.93v-8.06h0.93V61.3z"/>
	<path class="st2" d="M154.28,54.48h-2.01v6.82h-0.96v-6.82h-2.01v-0.83h4.97L154.28,54.48z"/>
	<path class="st2" d="M158.15,61.3c-0.07-0.2-0.11-0.41-0.12-0.62c-0.26,0.44-0.74,0.72-1.26,0.72c-0.44,0.03-0.88-0.13-1.2-0.43
		c-0.31-0.33-0.46-0.77-0.43-1.22c-0.02-0.52,0.19-1.03,0.59-1.38c0.46-0.36,1.03-0.54,1.61-0.52h0.68v-0.6
		c0.09-0.43-0.2-0.85-0.63-0.94c-0.1-0.02-0.19-0.02-0.29,0c-0.25-0.01-0.5,0.08-0.68,0.25c-0.17,0.17-0.27,0.4-0.26,0.64h-0.93
		c0-0.3,0.09-0.59,0.25-0.83c0.17-0.26,0.41-0.48,0.69-0.62c0.3-0.15,0.64-0.23,0.97-0.23c0.48-0.03,0.96,0.12,1.33,0.43
		c0.32,0.34,0.49,0.8,0.46,1.26v2.87c0,0.39,0.06,0.77,0.18,1.14v0.09H158.15z M156.91,60.56c0.23,0,0.46-0.07,0.65-0.19
		c0.19-0.11,0.35-0.28,0.45-0.47v-1.35h-0.52c-0.37-0.01-0.74,0.09-1.04,0.3c-0.25,0.19-0.4,0.49-0.38,0.8
		c-0.03,0.26,0.04,0.51,0.19,0.72C156.43,60.52,156.67,60.59,156.91,60.56z"/>
	<path class="st2" d="M163.66,59.87c0-0.2-0.08-0.38-0.23-0.52c-0.26-0.21-0.56-0.38-0.87-0.5c-0.38-0.14-0.74-0.31-1.08-0.53
		c-0.19-0.13-0.35-0.3-0.46-0.5c-0.11-0.21-0.16-0.44-0.15-0.67c-0.01-0.44,0.18-0.86,0.51-1.15c0.77-0.62,1.87-0.61,2.62,0.02
		c0.34,0.32,0.52,0.77,0.51,1.24h-0.92c0-0.24-0.09-0.48-0.26-0.65c-0.17-0.18-0.41-0.28-0.66-0.27c-0.23-0.01-0.46,0.06-0.64,0.21
		c-0.16,0.14-0.24,0.35-0.23,0.57c-0.01,0.17,0.05,0.33,0.17,0.46c0.25,0.19,0.52,0.35,0.82,0.46c0.52,0.17,1,0.44,1.41,0.79
		c0.25,0.27,0.37,0.62,0.36,0.98c0.02,0.45-0.17,0.89-0.51,1.18c-0.38,0.31-0.87,0.47-1.36,0.45c-0.53,0.02-1.04-0.16-1.44-0.51
		c-0.36-0.33-0.56-0.8-0.55-1.29h0.93c0.06,0.61,0.6,1.06,1.21,1c0.2-0.02,0.39-0.09,0.55-0.21
		C163.57,60.29,163.67,60.08,163.66,59.87z"/>
	<path class="st2" d="M169.27,61.3c-0.07-0.2-0.11-0.41-0.12-0.62c-0.27,0.44-0.74,0.72-1.26,0.72c-0.44,0.03-0.88-0.13-1.21-0.43
		c-0.3-0.33-0.46-0.77-0.43-1.22c-0.02-0.52,0.19-1.03,0.59-1.38c0.46-0.36,1.03-0.54,1.61-0.52h0.68v-0.6
		c0.02-0.26-0.06-0.52-0.23-0.72c-0.41-0.3-0.97-0.29-1.37,0.03c-0.17,0.16-0.27,0.4-0.26,0.64h-0.93c0-0.3,0.09-0.59,0.25-0.83
		c0.17-0.26,0.41-0.48,0.7-0.62c0.3-0.15,0.63-0.23,0.97-0.23c0.48-0.03,0.96,0.12,1.33,0.43c0.32,0.34,0.49,0.8,0.46,1.26v2.87
		c0,0.39,0.06,0.77,0.18,1.14v0.08H169.27z M168.03,60.56c0.23,0,0.46-0.07,0.65-0.19c0.19-0.11,0.35-0.28,0.45-0.47v-1.35h-0.52
		c-0.37-0.01-0.74,0.09-1.04,0.3c-0.25,0.19-0.4,0.49-0.38,0.8c-0.03,0.26,0.04,0.51,0.19,0.72
		C167.55,60.52,167.79,60.59,168.03,60.56L168.03,60.56z"/>
	<path class="st2" d="M174.38,56.5c-0.14-0.03-0.28-0.04-0.42-0.04c-0.47,0-0.89,0.32-1,0.78v4.06h-0.93v-5.68h0.9v0.58
		c0.19-0.42,0.6-0.68,1.06-0.68c0.12,0,0.25,0.02,0.36,0.07L174.38,56.5z"/>
	<path class="st2" d="M176.84,61.3h-0.93v-5.68h0.93V61.3z"/>
	<path class="st2" d="M179.78,55.62l0.02,0.52c0.33-0.41,0.84-0.65,1.37-0.63c0.57-0.04,1.11,0.29,1.33,0.82
		c0.31-0.52,0.88-0.84,1.49-0.82c1.05,0,1.58,0.65,1.61,1.96v3.83h-0.93v-3.74c0.02-0.32-0.05-0.65-0.22-0.92
		c-0.18-0.22-0.46-0.33-0.75-0.3c-0.27-0.01-0.52,0.11-0.68,0.33c-0.18,0.24-0.29,0.53-0.3,0.83v3.81h-0.94v-3.78
		c0-0.79-0.33-1.18-0.96-1.18c-0.45-0.01-0.86,0.28-0.99,0.72v4.24h-0.92v-5.68H179.78z"/>
	<path class="st2" d="M190.66,61.3v-7.64h1.82c0.78-0.04,1.53,0.26,2.06,0.82c0.53,0.67,0.79,1.51,0.74,2.36v1.28
		c0.06,0.85-0.2,1.7-0.74,2.36c-0.57,0.58-1.37,0.88-2.18,0.83H190.66z M191.62,54.48v6h0.77c0.56,0.05,1.11-0.16,1.48-0.58
		c0.35-0.51,0.51-1.11,0.47-1.72v-1.35c0.05-0.63-0.11-1.25-0.46-1.77c-0.35-0.4-0.87-0.6-1.4-0.56L191.62,54.48z"/>
	<path class="st2" d="M199.23,61.41c-0.61,0.04-1.21-0.19-1.63-0.63c-0.41-0.53-0.62-1.19-0.57-1.86v-0.69
		c-0.04-0.71,0.15-1.41,0.55-1.99c0.37-0.48,0.95-0.75,1.55-0.72c0.57-0.04,1.13,0.2,1.49,0.64c0.33,0.42,0.5,1.08,0.5,1.98v0.61
		h-3.17v0.13c-0.04,0.47,0.09,0.94,0.36,1.33c0.25,0.28,0.61,0.44,0.99,0.41c0.25,0.01,0.49-0.05,0.72-0.15
		c0.23-0.12,0.43-0.29,0.59-0.49l0.48,0.59C200.65,61.14,199.96,61.46,199.23,61.41z M199.13,56.32c-0.33-0.02-0.66,0.13-0.86,0.39
		c-0.22,0.37-0.33,0.8-0.32,1.23h2.24v-0.13c0.01-0.4-0.09-0.8-0.29-1.16C199.72,56.42,199.43,56.29,199.13,56.32L199.13,56.32z"/>
	<path class="st2" d="M205.12,56.5c-0.14-0.03-0.28-0.04-0.42-0.04c-0.47,0-0.89,0.32-1,0.78v4.06h-0.93v-5.68h0.9v0.58
		c0.19-0.42,0.6-0.68,1.06-0.68c0.12,0,0.25,0.02,0.36,0.07L205.12,56.5z"/>
	<path class="st2" d="M206.3,58.2c-0.05-0.7,0.12-1.4,0.48-2.01c0.32-0.45,0.86-0.71,1.41-0.68c0.54-0.02,1.05,0.26,1.31,0.74
		l0.05-0.64h0.84v5.75c0.04,0.59-0.16,1.17-0.54,1.62c-0.4,0.39-0.95,0.6-1.51,0.56c-0.32-0.01-0.64-0.08-0.94-0.2
		c-0.3-0.11-0.57-0.28-0.78-0.51l0.38-0.64c0.33,0.35,0.79,0.56,1.27,0.57c0.78,0,1.17-0.42,1.19-1.27v-0.74
		c-0.28,0.43-0.77,0.69-1.28,0.67c-0.54,0.02-1.06-0.23-1.38-0.66c-0.36-0.57-0.54-1.23-0.51-1.91L206.3,58.2z M207.23,58.73
		c-0.03,0.48,0.06,0.97,0.28,1.4c0.2,0.31,0.56,0.48,0.92,0.45c0.46,0,0.87-0.29,1.04-0.72v-2.84c-0.17-0.42-0.58-0.69-1.03-0.7
		c-0.37-0.03-0.72,0.14-0.92,0.45c-0.22,0.42-0.32,0.9-0.29,1.38L207.23,58.73z"/>
	<path class="st2" d="M213.39,54.12c0,0.14-0.04,0.28-0.13,0.39c-0.1,0.11-0.25,0.17-0.4,0.16c-0.15,0.01-0.29-0.05-0.39-0.16
		c-0.09-0.11-0.14-0.25-0.13-0.39c0-0.15,0.04-0.29,0.13-0.4c0.1-0.11,0.25-0.17,0.39-0.16c0.15-0.01,0.3,0.05,0.39,0.17
		C213.34,53.84,213.39,53.98,213.39,54.12z M213.32,61.3h-0.93v-5.68h0.93V61.3z"/>
	<path class="st2" d="M218.07,59.87c0-0.2-0.08-0.38-0.23-0.52c-0.27-0.21-0.56-0.38-0.87-0.5c-0.37-0.14-0.72-0.32-1.06-0.53
		c-0.19-0.13-0.35-0.3-0.46-0.5c-0.11-0.21-0.16-0.44-0.15-0.67c-0.01-0.44,0.18-0.86,0.51-1.15c0.77-0.62,1.87-0.61,2.62,0.02
		c0.34,0.32,0.52,0.77,0.51,1.24h-0.93c0-0.24-0.09-0.48-0.25-0.65c-0.17-0.18-0.41-0.28-0.66-0.27c-0.23-0.01-0.46,0.06-0.64,0.21
		c-0.16,0.14-0.24,0.35-0.23,0.57c-0.01,0.17,0.05,0.33,0.17,0.46c0.25,0.19,0.53,0.35,0.82,0.46c0.52,0.17,1,0.44,1.41,0.79
		c0.25,0.27,0.37,0.62,0.36,0.98c0.02,0.45-0.17,0.89-0.51,1.18c-0.38,0.31-0.87,0.47-1.36,0.45c-0.53,0.02-1.04-0.16-1.44-0.51
		c-0.36-0.33-0.56-0.8-0.55-1.29h0.96c-0.03,0.53,0.37,0.98,0.9,1.01c0.05,0,0.11,0,0.16,0c0.26,0.02,0.51-0.05,0.72-0.21
		C218.01,60.28,218.09,60.07,218.07,59.87z"/>
	<path class="st2" d="M221.83,54.12c0,0.14-0.04,0.28-0.13,0.39c-0.1,0.11-0.25,0.17-0.4,0.16c-0.15,0.01-0.29-0.05-0.39-0.16
		c-0.1-0.11-0.15-0.25-0.15-0.39c0-0.14,0.04-0.29,0.13-0.4c0.22-0.22,0.57-0.22,0.79,0C221.78,53.83,221.83,53.97,221.83,54.12z
		 M221.76,61.3h-0.93v-5.68h0.93V61.3z"/>
</g>
<g id="kilic">
	<rect x="92.07" y="265.65" class="st4" width="15.71" height="2.15"/>
	<rect x="93.98" y="268.21" class="st4" width="11.7" height="2.15"/>
	<rect x="92.57" y="275.52" class="st4" width="14.38" height="2.15"/>
	<rect x="93.61" y="336.04" class="st4" width="12.77" height="2.15"/>
	<rect x="92.91" y="280.86" class="st4" width="14.38" height="53.28"/>
	<rect x="93.98" y="270.91" class="st4" width="11.7" height="4.61"/>
	<rect x="95.84" y="277.68" class="st4" width="7.98" height="3.19"/>
	<rect x="89.11" y="298.46" class="st5" width="3.27" height="13.9"/>
	<path class="st4" d="M100.1,341.48L100.1,341.48c-2.2,0-3.99-1.79-3.99-3.99v-3.34h7.98v3.34
		C104.09,339.69,102.31,341.48,100.1,341.48z"/>
	<rect x="92.55" y="280.86" class="st5" width="3.24" height="53.28"/>
	<rect x="92.74" y="283.11" width="14.38" height="2.15"/>
	<rect x="92.74" y="287.51" width="14.38" height="2.15"/>
	<rect x="92.74" y="291.91" width="14.38" height="2.15"/>
	<rect x="92.74" y="296.31" width="14.38" height="2.15"/>
</g>
<g id="sifir" class="st6">
	<path class="st7" d="M289.37,213.63c0,131.07-48.63,203.42-134.03,203.42c-75.32,0-126.32-70.57-127.51-198.08
		c0-129.29,55.75-200.46,134.03-200.46C243.11,18.51,289.37,90.86,289.37,213.63z M80.02,219.56c0,100.23,30.84,157.16,78.28,157.16
		c53.38,0,78.88-62.27,78.88-160.72c0-94.89-24.32-157.16-78.28-157.16C113.23,58.84,80.02,114.58,80.02,219.56z"/>
</g>
</svg>
