<svg id="Layer_2" data-name="Layer 2" xmlns="http://www.w3.org/2000/svg" xmlns:xlink="http://www.w3.org/1999/xlink" viewBox="0 0 841.89 1190.55">
  <defs>
    <style>
     #arkaplan{
   animation:arkaplan 15s ease infinite;
 }
 @keyframes arkaplan{
  0%{ fill:#D2E6C4 }
  50%{ fill:#95AD86}
  100%{ fill:#D2E6C4 }
} 


     #koltuk{
   animation: koltuk 4s ease-out infinite;
 }
 @keyframes koltuk{
  0%{ transform:  translateY(6px) translateX(0px); }
  50%{ transform: translateY(-2px) translateX(0px);}
  100%{ transform: translateY(6px) translateX(0px); }
} 

     #sol-arka-tekerlek{
   animation: sol-arka-tekerlek 4s ease infinite;
 }
 @keyframes sol-arka-tekerlek{
  0%{ transform:  translateY(6px) translateX(0px); }
  50%{ transform: translateY(-2px) translateX(0px);}
  100%{ transform: translateY(6px) translateX(0px); }
} 
  #highlight{
   animation: highlight 4s ease infinite;
 }
 @keyframes highlight{
  0%{ transform:  translateY(6px) translateX(0px); }
  50%{ transform: translateY(-2px) translateX(0px);}
  100%{ transform: translateY(6px) translateX(0px); }
} 
  #sol-arka-golge{
   animation: sol-arka-golge 4s ease infinite;
 }
 @keyframes sol-arka-golge{
  0%{opacity: 1;}
  50%{opacity: 0.5;}
  100%{opacity: 1;}
} 

     #arka-sag-tekerlek{
   animation: arka-sag-tekerlek 4s ease infinite;
 }
 @keyframes arka-sag-tekerlek{
  0%{ transform:  translateY(6px) translateX(0px); }
  50%{ transform: translateY(-2px) translateX(0px);}
  100%{ transform: translateY(6px) translateX(0px); }
} 
  #sag-arka-golge{
   animation: sag-arka-golge 4s ease infinite;
 }
 @keyframes sag-arka-golge{
  0%{opacity: 1;}
  50%{opacity: 0.5;}
  100%{opacity: 1;}
} 


     #on-tekerlek{
   animation: on-tekerlek 4s ease infinite;
 }
 @keyframes on-tekerlek{
  0%{ transform:  translateY(8px) translateX(0px); }
  50%{ transform: translateY(-2px) translateX(0px);}
  100%{ transform: translateY(8px) translateX(0px); }
} 

  #on-golge{
   animation: on-golge 4s ease infinite;
 }
 @keyframes on-golge{
  0%{opacity: 1;}
  50%{opacity: 0.5;}
  100%{opacity: 1;}
} 

     #alt-duman{
   animation: alt-duman 10s ease infinite;
 }
 @keyframes alt-duman{
  0%{transform-origin: center; transform:  translateY(-150px) translateX(-50px) scale(0.1); -webkit-filter: blur(0px);}
  100%{transform-origin: center; transform: translateY(-160px) translateX(-30px) scale(3); -webkit-filter: blur(10px);}
}      

  #ust-duman{
   animation: ust-duman 10s ease infinite;
 }
 @keyframes ust-duman{
  0%{transform-origin: center; transform:  translateY(-150px) translateX(-50px) scale(0.1); -webkit-filter: blur(0px);}
  100%{transform-origin: center; transform: translateY(-190px) translateX(-30px) scale(3); -webkit-filter: blur(10px);}
} 



  #golge{
   animation: golge 6s ease infinite;
 }
 @keyframes golge{
  0%{opacity: 1;}
  50%{opacity: 0.8;}
  100%{opacity: 1;}
} 


      .cls-1 {
        fill: #d2e6c4;
      }

      .cls-2 {
        fill: url(#radial-gradient);
      }

      .cls-3 {
        fill: #f7dd41;
      }

      .cls-4 {
        fill: #f5dd34;
      }

      .cls-5 {
        fill: #d1bd65;
      }

      .cls-6 {
        fill: #c9b656;
      }

      .cls-7 {
        fill: #d7bc2e;
      }

      .cls-8 {
        fill: #edeeb5;
      }

      .cls-9 {
        fill: url(#radial-gradient-2);
      }

      .cls-10 {
        fill: url(#radial-gradient-3);
      }

      .cls-11 {
        fill: url(#radial-gradient-4);
      }

      .cls-12 {
        fill: #416730;
      }

      .cls-13 {
        fill: #696563;
      }

      .cls-14 {
        fill: #564f4d;
      }

      .cls-15, .cls-17, .cls-39, .cls-43, .cls-47 {
        fill: none;
      }

      .cls-15, .cls-17 {
        stroke: #000;
      }

      .cls-15, .cls-17, .cls-43, .cls-47 {
        stroke-miterlimit: 10;
      }

      .cls-15 {
        stroke-width: 2px;
      }

      .cls-16 {
        fill: #6d965b;
      }

      .cls-17 {
        stroke-width: 0.75px;
      }

      .cls-18, .cls-48 {
        fill: #fdfdfd;
      }

      .cls-19 {
        fill: #3d3a33;
      }

      .cls-20 {
        fill: #4e4b44;
      }

      .cls-21 {
        fill: url(#linear-gradient);
      }

      .cls-22 {
        fill: url(#linear-gradient-2);
      }

      .cls-23 {
        fill: url(#linear-gradient-3);
      }

      .cls-24 {
        fill: url(#linear-gradient-4);
      }

      .cls-25 {
        fill: url(#linear-gradient-5);
      }

      .cls-26 {
        fill: url(#linear-gradient-6);
      }

      .cls-27 {
        fill: url(#linear-gradient-7);
      }

      .cls-28 {
        fill: url(#linear-gradient-8);
      }

      .cls-29 {
        fill: url(#linear-gradient-9);
      }

      .cls-30 {
        fill: url(#linear-gradient-10);
      }

      .cls-31 {
        fill: url(#linear-gradient-11);
      }

      .cls-32 {
        fill: url(#linear-gradient-12);
      }

      .cls-33 {
        fill: #f4f4f4;
      }

      .cls-34 {
        fill: #2c441f;
      }

      .cls-35 {
        fill: #383735;
      }

      .cls-36 {
        fill: #f4f3ed;
        opacity: 0.68;
      }

      .cls-37, .cls-41 {
        fill: #e1e5df;
      }

      .cls-37 {
        opacity: 0.62;
      }

      .cls-38, .cls-45 {
        fill: #3f5f30;
      }

      .cls-40 {
        fill: #94b287;
      }

      .cls-42 {
        fill: #393635;
      }

      .cls-43 {
        stroke: #c1b161;
      }

      .cls-44 {
        fill: #f2f2f0;
      }

      .cls-45 {
        font-size: 34px;
        font-family: RobotoCondensed-Bold, Roboto Condensed;
        font-weight: 700;
      }

      .cls-46 {
        fill: #c2ccba;
      }

      .cls-47 {
        stroke: #c9b656;
        stroke-width: 3px;
        opacity: 0.48;
      }

      .cls-48 {
        opacity: 0.78;
      }
    </style>
  <radialGradient id="radial-gradient" cx="469.83" cy="775.71" r="832.28" gradientTransform="translate(975.38 958.88) rotate(170.82) scale(1 0.34)" gradientUnits="userSpaceOnUse">
      <stop offset="0" stop-color="#3f5f30" stop-opacity="0.4"/>
      <stop offset="0.45" stop-color="#161412" stop-opacity="0.04"/>
      <stop offset="0.91" stop-color="#161412" stop-opacity="0"/>
    </radialGradient>
    <radialGradient id="radial-gradient-2" cx="838.27" cy="894.41" fx="877.6857275371887" fy="904.7254419358757" r="234.88" gradientTransform="matrix(0.69, -0.04, -0.02, 0.27, 80.82, 579.49)" gradientUnits="userSpaceOnUse">
      <stop offset="0.01" stop-color="#161412" stop-opacity="0.7"/>
      <stop offset="0.39" stop-color="#161412" stop-opacity="0.04"/>
      <stop offset="0.56" stop-color="#161412" stop-opacity="0"/>
    </radialGradient>
    <radialGradient id="radial-gradient-3" cx="290.76" cy="875.72" r="199.18" gradientTransform="matrix(0.97, -0.1, -0.08, 0.55, 65.64, 372.8)" gradientUnits="userSpaceOnUse">
      <stop offset="0" stop-color="#161412" stop-opacity="0.7"/>
      <stop offset="0.39" stop-color="#161412" stop-opacity="0.04"/>
      <stop offset="0.56" stop-color="#161412" stop-opacity="0"/>
    </radialGradient>
    <radialGradient id="radial-gradient-4" cx="434.3" cy="734.85" r="199.18" gradientTransform="matrix(0.96, -0.14, -0.14, 0.48, 123.97, 447.58)" xlink:href="#radial-gradient-3"/>
    <linearGradient id="linear-gradient" x1="183.17" y1="556.85" x2="191.75" y2="556.85" gradientUnits="userSpaceOnUse">
      <stop offset="0" stop-color="#1d1d1b"/>
      <stop offset="0.07"/>
      <stop offset="0.19" stop-color="#020202"/>
      <stop offset="0.24" stop-color="#090807"/>
      <stop offset="0.27" stop-color="#141311"/>
      <stop offset="0.3" stop-color="#25231f"/>
      <stop offset="0.32" stop-color="#3b3831"/>
      <stop offset="0.32" stop-color="#3d3a33"/>
      <stop offset="1" stop-color="#acacac"/>
      <stop offset="1" stop-color="#f9f9f9"/>
      <stop offset="1" stop-color="#fff"/>
    </linearGradient>
    <linearGradient id="linear-gradient-2" x1="188.04" y1="556.98" x2="196.6" y2="556.98" xlink:href="#linear-gradient"/>
    <linearGradient id="linear-gradient-3" x1="193.03" y1="557.42" x2="201.55" y2="557.42" xlink:href="#linear-gradient"/>
    <linearGradient id="linear-gradient-4" x1="198.2" y1="558.24" x2="206.78" y2="558.24" xlink:href="#linear-gradient"/>
    <linearGradient id="linear-gradient-5" x1="170.39" y1="561.41" x2="178.1" y2="561.41" xlink:href="#linear-gradient"/>
    <linearGradient id="linear-gradient-6" x1="173.2" y1="558.81" x2="182.35" y2="558.81" xlink:href="#linear-gradient"/>
    <linearGradient id="linear-gradient-7" x1="177.85" y1="557.22" x2="187.16" y2="557.22" xlink:href="#linear-gradient"/>
    <linearGradient id="linear-gradient-8" x1="203.44" y1="559.31" x2="212.01" y2="559.31" xlink:href="#linear-gradient"/>
    <linearGradient id="linear-gradient-9" x1="208.79" y1="560.92" x2="216.53" y2="560.92" xlink:href="#linear-gradient"/>
    <linearGradient id="linear-gradient-10" x1="214.14" y1="562.86" x2="221.55" y2="562.86" xlink:href="#linear-gradient"/>
    <linearGradient id="linear-gradient-11" x1="219.41" y1="565.6" x2="226.63" y2="565.6" xlink:href="#linear-gradient"/>
    <linearGradient id="linear-gradient-12" x1="224.46" y1="569.24" x2="230.4" y2="569.24" xlink:href="#linear-gradient"/>
  </defs>
  <rect id="arkaplan" class="cls-1" width="841.89" height="1190.55"/>
  <rect id="golge" class="cls-2" width="841.89" height="1190.55"/>
  <g id="koltuk">
    <path class="cls-3" d="M487.31,550.85l36.6,1.52L554.24,550l-38.44-2.14Z"/>
    <path class="cls-4" d="M516.88,532l-22.25-.27s-4.19.52-4.69,2.18l-3.83,14.61L492,550q2.09-7.26,4.16-14.52l25.26-2.72Z"/>
    <path class="cls-5" d="M520.49,533.14l-24.63.4-4.11,17,24-2.69Q518.14,540.5,520.49,533.14Z"/>
    <path class="cls-5" d="M493.77,550.56q1.14,7,2.27,13.91l24.78,1.21.1-13.49Z"/>
    <path class="cls-4" d="M522.39,517.52s19.65-3.13,35.12,1.77q-3.5,15.27-7,30.54l-34.73-2Q519.1,532.68,522.39,517.52Z"/>
    <path class="cls-6" d="M557.51,519.29h4L559.76,531l-5,.27Q556.14,525.28,557.51,519.29Z"/>
    <path class="cls-6" d="M520.92,552.19l-.1,13.49,32.85-3.33.86-11.79Z"/>
    <path class="cls-7" d="M559.76,531l-19,1,3,.5,18.43-1.21Z"/>
    <path class="cls-6" d="M543.75,532.56q-1.5,9.41-3,18.81l18.17-1.14q1.65-9.43,3.28-18.88"/>
    <path class="cls-7" d="M537.67,550.66l3.06.71q1.51-9.4,3-18.81l-3-.5Q539.2,541.36,537.67,550.66Z"/>
    <path class="cls-8" d="M561.56,519.29h-4s-13.89-4.77-35.12-1.77C522.39,517.52,548.25,514.46,561.56,519.29Z"/>
  </g>
  <path id="sol-arka-golge" class="cls-9" d="M824.8,766.59c6.05,24.15-87.54,38.07-181,61.5s-180,6.07-186-18.08S512.32,763.38,605.83,740,818.74,742.44,824.8,766.59Z"/>
  <path id="on-golge" class="cls-10" d="M533.87,786.45c8,28.89-123.72,53.83-255.53,90.34S25.42,899.53,17.42,870.64s77.66-61.43,209.47-97.94S525.87,757.56,533.87,786.45Z"/>
  <path id="sag-arka-golge" class="cls-11" d="M690.05,691.18c5.67,20.48-125.19,48.54-257,85.05s-249.37,35.54-255,15.06,80.65-50.64,212.46-87.15S684.38,670.71,690.05,691.18Z"/>
  <path class="cls-12" d="M478,669.74V699s7.66-9,18.56-10.46v-18L478,669Z"/>
  <g id="arka-sag-tekerlek">
    <path class="cls-13" d="M485.59,660.33a99.3,99.3,0,0,1-8.5,40.71c-1.19,2.61-2.48,5.14-3.89,7.57a76.64,76.64,0,0,1-10.13,14c-1.1,1.21-2.22,2.38-3.39,3.47C448.62,736.7,434.81,743,419.81,743,383.48,743,354,706,354,660.33c0-25,8.82-47.37,22.76-62.54,11.53-12.54,26.56-20.13,43-20.13,30.49,0,56.13,26.08,63.58,61.43A102.34,102.34,0,0,1,485.59,660.33Z"/>
    <path class="cls-14" d="M484.29,662.67a99.3,99.3,0,0,1-8.5,40.71c-.81,1.78-1.67,3.53-2.59,5.23a76.64,76.64,0,0,1-10.13,14c-1.1,1.21-2.22,2.38-3.39,3.47a54,54,0,0,1-24.69,6c-36.34,0-65.78-37-65.78-82.67a99.14,99.14,0,0,1,8.5-40.71c11.53-12.54,26.56-20.13,43-20.13,28,0,51.84,21.93,61.36,52.84A102.34,102.34,0,0,1,484.29,662.67Z"/>
    <ellipse class="cls-6" cx="444.52" cy="660.34" rx="31.79" ry="39.95"/>
  </g>
  <line class="cls-15" x1="506.66" y1="526.82" x2="487.84" y2="511.76"/>
  <line class="cls-15" x1="463.82" y1="508.28" x2="482.2" y2="509.36"/>
  <line class="cls-15" x1="489.53" y1="492.56" x2="486.11" y2="507.47"/>
  <path class="cls-16" d="M177.19,567.48c-.25.13-2.45-3.7-10-18.82,0,0-7.61-14.07,6.27-17.5s34,0,34,0,14.5,1.33,27.05,18.26c0,0,5.05,6.08,9.46,29.09S255,660.66,255,660.66s0,7.61,9.32,12.55c0,0,.95,1.72,12.55,0l93.18-11v1.43l-99.58,13s-14,2.48-19.78-15.46L234.3,574c-2.36-6.33-9.18-22.34-23.38-30.78A37.54,37.54,0,0,0,200.77,539c-4.63-1.13-15.74-3.85-22.21,2.6A16.83,16.83,0,0,0,174,553.46a29.71,29.71,0,0,0,.9,5.56C176.06,564.44,177.41,567.38,177.19,567.48Z"/>
  <ellipse class="cls-15" cx="486.11" cy="508.99" rx="15.78" ry="27.95" transform="translate(-209.24 617.9) rotate(-55.22)"/>
  <ellipse class="cls-15" cx="485.42" cy="509.65" rx="2.23" ry="3.25" transform="translate(-210.08 617.62) rotate(-55.22)"/>
  <path class="cls-4" d="M486.89,508.71a3.65,3.65,0,0,0-1.5-.93,2.17,2.17,0,0,0-1.93.09,1.43,1.43,0,0,0-.34.41q-4.74,8.43-9.49,16.87l3.89,2.29,10.12-16.24a1.64,1.64,0,0,0,.15-.74,1.88,1.88,0,0,0-.23-.83A3.23,3.23,0,0,0,486.89,508.71Z"/>
  <path class="cls-17" d="M272.68,319.28"/>
  <path class="cls-18" d="M175.34,567.86c-.25.13-2.46-3.7-10.05-18.82,0,0-7.63-14.07,6.3-17.5s34.12,0,34.12,0,14.55,1.34,27.14,18.26c0,0,5.08,6.08,9.51,29.09S253.47,661,253.47,661s0,7.61,9.35,12.56c0,0,.95,1.71,12.59,0l92-10.73c0,.7,0,1.39,0,2.08L269,677s-14.06,2.48-19.85-15.46l-16.48-87.14c-2.37-6.33-9.21-22.34-23.47-30.78A37.67,37.67,0,0,0,199,539.4c-4.65-1.13-15.8-3.85-22.3,2.6a16.75,16.75,0,0,0-4.59,11.84,29.71,29.71,0,0,0,.9,5.56C174.2,564.82,175.57,567.76,175.34,567.86Z"/>
  <path class="cls-12" d="M174.53,569c-.26.12-2.46-3.7-10-18.82,0,0-7.61-14.08,6.27-17.5s34,0,34,0,14.5,1.33,27.05,18.26c0,0,5.06,6.08,9.47,29.09s11.07,82.15,11.07,82.15,0,7.61,9.32,12.55c0,0,.95,1.71,12.55,0l93.18-11v1.43l-99.58,13s-14,2.47-19.78-15.46l-16.42-87.14c-2.36-6.33-9.18-22.34-23.39-30.78a37.31,37.31,0,0,0-10.14-4.17c-4.63-1.14-15.74-3.85-22.22,2.6a16.87,16.87,0,0,0-4.58,11.84,30.75,30.75,0,0,0,.91,5.56C173.39,565.92,174.75,568.86,174.53,569Z"/>
  <path class="cls-16" d="M173.81,570.05c-.26.12-2.46-3.7-10-18.82,0,0-7.6-14.08,6.28-17.5s34,0,34,0,14.5,1.33,27.05,18.26c0,0,5.06,6.08,9.47,29.09s11.07,82.15,11.07,82.15,0,7.61,9.32,12.55c0,0,.95,1.71,12.55,0l93.18-11v1.43l-99.59,13s-14,2.47-19.77-15.47l-16.42-87.13c-2.36-6.33-9.18-22.34-23.39-30.78a37.31,37.31,0,0,0-10.14-4.17c-4.64-1.14-15.75-3.85-22.22,2.6A16.83,16.83,0,0,0,170.59,556a29.71,29.71,0,0,0,.9,5.56C172.67,567,174,570,173.81,570.05Z"/>
  <g>
    <path class="cls-19" d="M228.26,569.42a.06.06,0,0,0,0,0,60.44,60.44,0,0,0-3.75-7.66c-.79-1.35-1.68-2.75-2.7-4.18-.73-1-1.52-2.09-2.38-3.11a0,0,0,0,1,0,0,44.82,44.82,0,0,0-3.26-3.59c-.64-.64-1.29-1.27-2-1.89l0,0c-.15-.12-.28-.23-.43-.37-.52-.45-1.55-1.32-3.07-2.43-.46-.32-1-.7-1.55-1.07-1.1-.73-2.38-1.5-3.83-2.29l-1.8-.93c-1.1-.53-2.26-1-3.51-1.55-.53-.2-1.05-.4-1.58-.58h0c-1.15-.41-2.34-.8-3.6-1.13-.55-.15-1.11-.28-1.67-.42h0c-1.07-.25-2.18-.5-3.32-.71-.55-.11-1.11-.19-1.67-.27a23.73,23.73,0,0,0-3.26-.25h-.06a14.87,14.87,0,0,0-5.35.91,14.16,14.16,0,0,0-1.52.65c-.28.15-.58.31-.86.49a13.37,13.37,0,0,0-2.46,1.92,14.69,14.69,0,0,0-1.33,1.51,15.32,15.32,0,0,0-1.73,2.73c-.17.37-.34.73-.47,1.1a12.19,12.19,0,0,0-.61,2h0c-.94,4.09.06,8.17,1.08,12.5.11.4.21.84.33,1.28a1,1,0,0,1,.06.23,46.69,46.69,0,0,0,2.73,7.27.06.06,0,0,1,0,0,46.37,46.37,0,0,0,2.46,4.48h.48l2.11,0h2.13c.93,0,1.83,0,2.74,0h6.75c.92,0,1.83,0,2.73,0h5c.73,0,1.43,0,2.13,0,1,0,2.07,0,3.07,0h5.19c.73,0,1.43,0,2.13,0s1.66,0,2.45,0h5c.73,0,1.41,0,2.08,0,1.05,0,2,0,2.91,0H226l1.75,0c.91,0,1.55,0,1.9-.06h.06Z"/>
    <path class="cls-20" d="M229.67,574c-.07-.19-.15-.38-.22-.59,0,0,0-.05,0-.08a59.66,59.66,0,0,0-4.25-8.92c-.79-1.36-1.68-2.79-2.69-4.22h0c-.76-1.06-1.59-2.16-2.47-3.22a45,45,0,0,0-3.34-3.65c-.65-.66-1.32-1.28-2-1.89v0h0c-.08-.09-.17-.15-.24-.22a37.72,37.72,0,0,0-3.25-2.56h0c-.57-.41-1.21-.84-1.91-1.3-1-.64-2.16-1.33-3.43-2h0v0l-1.85-.92c-1.08-.54-2.25-1-3.48-1.52-.58-.24-1.18-.46-1.79-.65a32.83,32.83,0,0,0-3.44-1.06c-.48-.14-1-.26-1.46-.37l-.27-.06c-1.06-.24-2.16-.5-3.29-.69-.57-.1-1.13-.19-1.7-.27a26.55,26.55,0,0,0-3.23-.21,15.53,15.53,0,0,0-1.66.09,13.34,13.34,0,0,0-3.67.87,10.47,10.47,0,0,0-1.54.68c-.24.12-.48.26-.71.4a14.4,14.4,0,0,0-2.54,2,18,18,0,0,0-1.35,1.55,16,16,0,0,0-1.63,2.62c0,.09-.08.18-.11.27a12.82,12.82,0,0,0-1.05,3.17c-.71,3.53,0,7.06.82,10.77a1,1,0,0,1,.06.23c.11.38.2.77.28,1.16a45.1,45.1,0,0,0,2.89,8.29,43.65,43.65,0,0,0,2.69,5h3.9l8,.05h7l8,0,.85,0c.43,0,.88,0,1.31,0,1.06,0,2.07,0,3.07,0h14.67l2.11,0h1.78c1,0,1.69,0,2-.06Z"/>
    <path class="cls-21" d="M183.17,537.05q3.21,19.88,6.43,39.75l2.15,0q-3.5-19.93-7-39.87l-.87.06C183.65,537,183.4,537,183.17,537.05Z"/>
    <path class="cls-22" d="M196.6,576.74v0l-2.16,0a.15.15,0,0,0,0-.06c-.14-.89-.28-1.77-.43-2.66q-2.76-17.16-5.53-34.31c-.15-.88-.28-1.74-.43-2.62.56.08,1.12.16,1.67.27.15.88.31,1.74.46,2.62q3,17,6,34C196.29,575,196.44,575.85,196.6,576.74Z"/>
    <path class="cls-23" d="M201.55,576.67c-.73,0-1.45,0-2.16,0-.15-.86-.28-1.74-.43-2.61q-2.75-16.67-5.5-33.36c-.15-.87-.28-1.73-.43-2.6h0c.56.14,1.12.27,1.67.42.15.87.31,1.74.46,2.61l5.9,32.93C201.24,575,201.4,575.81,201.55,576.67Z"/>
    <path class="cls-24" d="M206.78,576.77c-.43,0-.88,0-1.31,0h-.85v0c-.17-.89-.32-1.77-.46-2.66q-2.76-15.93-5.53-31.89c-.13-.84-.28-1.69-.43-2.52l.13,0h0c.53.18,1.05.38,1.58.58.16.87.32,1.75.49,2.61l5.85,31.24C206.45,575,206.61,575.88,206.78,576.77Z"/>
    <path class="cls-25" d="M178.1,576.67h-.38a43.65,43.65,0,0,1-2.69-5c-.14-.71-.28-1.43-.43-2.14a.06.06,0,0,0,0,0c-1.19-6.1-2.4-12.17-3.61-18.27-.21-1-.4-2-.59-3h0a12.19,12.19,0,0,1,.61-2c.21,0,.41-.05.62-.06.14.62.27,1.26.41,1.89q2.75,13,5.51,26C177.72,574.9,177.91,575.78,178.1,576.67Z"/>
    <path class="cls-26" d="M182.35,576.66l-.73,0h-.11c-.43,0-.87.05-1.31.06,0,0,0,0,0-.06l-.54-2.66q-2.94-14.43-5.88-28.87c-.2-.92-.39-1.85-.57-2.77a14.69,14.69,0,0,1,1.33-1.51c.19.91.4,1.82.59,2.73q3.33,15.23,6.65,30.43h0C182,574.91,182.15,575.78,182.35,576.66Z"/>
    <path class="cls-27" d="M187.16,576.57c-.72,0-1.43.06-2.15.07-.16-.86-.32-1.73-.49-2.59q-3.08-16.41-6.15-32.85c-.16-.91-.34-1.83-.52-2.74a14.16,14.16,0,0,1,1.52-.65l.54,2.71q3.36,16.76,6.74,33.53C186.82,574.88,187,575.73,187.16,576.57Z"/>
    <path class="cls-28" d="M205.24,542.74c.17.86.35,1.72.51,2.59h0c1.9,9.61,3.8,19.18,5.72,28.79.17.88.35,1.78.53,2.65-.38,0-.75,0-1.14,0h-1c-.17-.89-.33-1.77-.5-2.67q-2.7-14.88-5.45-29.73c-.15-.86-.31-1.71-.46-2.58Z"/>
    <path class="cls-29" d="M216.53,576.8c-.16-.89-.34-1.77-.5-2.66-1.66-8.51-3.28-17-4.92-25.5h0c-.15-.85-.32-1.69-.48-2.54-.46-.32-1-.7-1.55-1.07l-.28,0c.13.76.27,1.53.4,2.29l4.74,26.8c.15.89.31,1.77.46,2.66Z"/>
    <path class="cls-30" d="M221.55,576.79c-.17-.89-.37-1.77-.55-2.67-1.44-6.92-2.9-13.87-4.35-20.79-.17-.84-.35-1.69-.52-2.52-.64-.64-1.29-1.27-2-1.89.15.83.31,1.67.46,2.5h0v0q2.14,11.34,4.31,22.7c.18.89.34,1.77.5,2.66Z"/>
    <path class="cls-31" d="M226.63,576.77c-.22-.89-.44-1.77-.67-2.66l-3.48-13.89h0v0c-.22-.88-.44-1.77-.67-2.65-.73-1-1.52-2.09-2.38-3.11.19.84.39,1.71.58,2.56,1.31,5.72,2.62,11.42,3.92,17.14.21.9.4,1.78.61,2.67Z"/>
    <path class="cls-32" d="M230.4,576.7c-.3,0-1,0-2,.06-.23-.89-.47-1.77-.7-2.67q-1.28-4.82-2.54-9.65c-.23-.91-.47-1.82-.71-2.73h0a60.44,60.44,0,0,1,3.75,7.66.06.06,0,0,1,0,0c.39,1.32.77,2.63,1.16,3.94,0,0,0,.06,0,.08.06.21.1.4.16.59C229.88,574.93,230.13,575.82,230.4,576.7Z"/>
  </g>
  <path class="cls-13" d="M360.18,431.9v94.6l16,1.11V431.9a9.33,9.33,0,0,0-6.26-4.4,8.78,8.78,0,0,0-1.85-.16A9.8,9.8,0,0,0,360.18,431.9Z"/>
  <polygon class="cls-33" points="366.65 427.33 366.65 526.95 364.78 526.95 364.78 427.68 366.65 427.33"/>
  <path class="cls-14" d="M372.47,428.4v99l-3.29-.18q.36-49.83.71-99.67a9.49,9.49,0,0,1,1.24.32A10.3,10.3,0,0,1,372.47,428.4Z"/>
  <polyline class="cls-16" points="569.04 661.35 533.93 666.42 579.55 670.86 591.96 664.39"/>
  <path class="cls-16" d="M568.06,647.58l-31.33,4.53,45.62,4.43,12.41-6.46"/>
  <path class="cls-34" d="M543.92,691.39c8.59,2.25,18.26-6.26,21.6-19,2.28-8.72,1-17.15-2.76-22.34,7.16,4.14,10.53,15,7.6,26.17-3.34,12.75-13.6,21.1-22.92,18.66a14.13,14.13,0,0,1-8-5.86A11.21,11.21,0,0,0,543.92,691.39Z"/>
  <path class="cls-12" d="M555.24,692.82c-9.28,0-16.8-10.68-16.8-23.86,0-9,3.52-16.84,8.71-20.9-8.34,2.19-14.62,11.82-14.62,23.38,0,13.18,8.16,23.86,18.23,23.86a15.12,15.12,0,0,0,9.63-3.63A12.33,12.33,0,0,1,555.24,692.82Z"/>
  <path class="cls-16" d="M367.4,570.27c0,8.86,2.68,91.92,2.68,91.92L270.73,673.9C258.2,675.34,255.08,663,255.08,663l-12-88.87c-.39-1.49-1-3.77-1.74-6.56-1.11-4.21-1.82-6.89-1.89-7.17-.94-3.52-4.64-9.88-16.16-22.28a61.82,61.82,0,0,0-19.55-7.3,77.51,77.51,0,0,0-18.21-.9c-4.16.17-7.68.55-9.66.81,6.61-1,31.39-4.91,60.88-7.2,60.86-4.74,109.5-.26,139.41,2.58q14.42,1.38,29.4,3.31a858.45,858.45,0,0,1,86.59,15.8s3.29,3.45,4,21Z"/>
  <path class="cls-16" d="M175.42,530.81l-1.23.18C174.33,531,174.76,530.89,175.42,530.81Z"/>
  <g id="on-tekerlek">
    <ellipse class="cls-13" cx="245.14" cy="765.94" rx="64.85" ry="43.17" transform="translate(-523.36 1002.92) rotate(-89.39)"/>
    <ellipse class="cls-35" cx="250.16" cy="765.14" rx="47.4" ry="28.65" transform="translate(-517.6 1007.16) rotate(-89.39)"/>
    <ellipse class="cls-13" cx="290.3" cy="774.71" rx="71.08" ry="42.01" transform="translate(-533.25 853.5) rotate(-74.92)"/>
    <ellipse class="cls-14" cx="304.72" cy="776.68" rx="72.12" ry="39.56" transform="translate(-524.48 868.89) rotate(-74.92)"/>
    <ellipse class="cls-6" cx="305.48" cy="774.19" rx="36.7" ry="19.68" transform="translate(-514.49 916.82) rotate(-78.33)"/>
    <ellipse class="cls-4" cx="304.67" cy="778.11" rx="32.7" ry="19.68" transform="translate(-518.98 919.15) rotate(-78.33)"/>
    <path class="cls-14" d="M295.72,771.66s-3.17,22.31,6.21,20.66,13.82-17.61,13.82-17.61a13.24,13.24,0,0,1-11.92,4.81,12.19,12.19,0,0,1-3.83-1.91A12.43,12.43,0,0,1,295.72,771.66Z"/>
    <path class="cls-6" d="M258.84,740.3l-.36.74c-11.2,23.73-12.76,50.39-12.76,50.39-16.53-52.74,11.71-72,11.71-72L255.08,675s5.09-.18,30.68-4.15l2.84,37.63s-18.2,7-29.88,32.09"/>
    <path class="cls-36" d="M288.3,711.63a107.17,107.17,0,0,0-31.31,42c-12.46,30.17-7.18,57.2-4.82,66.81A133.5,133.5,0,0,1,288.3,711.63Z"/>
    <path class="cls-36" d="M230.45,708.94a77.88,77.88,0,0,0-23.9,38.53c-7.16,27.44,3.51,49.71,6.39,55.29a87.33,87.33,0,0,1,17.51-93.82Z"/>
    <path class="cls-36" d="M224.75,719.73c-.43-.24-8.62,9.91-13,24.9-3.73,12.72-3.25,23.92-2.82,24s.66-9.18,4.27-21.75C218,730.06,225.16,720,224.75,719.73Z"/>
    <path class="cls-36" d="M293.63,712.58A107.79,107.79,0,0,0,257.88,820a136.68,136.68,0,0,1,35.75-107.44Z"/>
  </g>
  <path class="cls-37" d="M224.46,539s-9.15-15.28,269.27,8.78c0,0,2.34,4.27,1.56,8.33,0,0-256.35-21.29-260.79-6.71Z"/>
  <path class="cls-12" d="M496.91,688.6a340.16,340.16,0,0,1,41.53.89l-1.05-23.62-40.48,4.7Z"/>
  <polygon class="cls-14" points="367.42 569.51 370.08 665.44 467.76 652.23 463.26 567.28 367.42 569.51"/>
  <path class="cls-38" d="M463.26,567.28l12.73-.65,2.66,100.88L461.33,642.8Q462.29,605,463.26,567.28Z"/>
  <path class="cls-16" d="M478.65,667.51,569,654.26,565.75,632l-69.88,3.59V565.75l-20.13.37L478.38,667"/>
  <line class="cls-39" x1="484.35" y1="562.83" x2="485.01" y2="577.62"/>
  <path class="cls-40" d="M425.17,532.21l13.17-5.39a40,40,0,0,1,14.07-3.45,66.47,66.47,0,0,1,9.18.38c6.43.5,12,1.41,12,1.4l-1.37-.2a9.11,9.11,0,0,1,8.06,7.07,8.23,8.23,0,0,0,1.05,5.4,8.14,8.14,0,0,0,3,2.87s6.21,2.37,7.79,4.94Z"/>
  <path class="cls-41" d="M459.21,538.15l14.42-13s4.85,1.16,5.41,3.87L467.91,540Z"/>
  <path class="cls-4" d="M477.89,651.16q.39,8.18.76,16.35L288.6,693a157.89,157.89,0,0,1-32.44,2.46l-14.45.41s-25.48-1.33-36.51-4.43-12.55-17.24-12.55-17.24l-14.79-97.42,53-.5q8.2,43.57,16.42,87.14c1.28,4.31,4,11,10.14,14a17.42,17.42,0,0,0,9.64,1.47C277.85,677.76,362.37,666.7,477.89,651.16Z"/>
  <path class="cls-16" d="M535.13,649.25v17.84l39.75,2.77q.52-7.11,1.06-14.21Z"/>
  <path class="cls-16" d="M479,529,467.91,540l3.28.57,8.8-9.59A4.36,4.36,0,0,0,479,529Z"/>
  <path class="cls-12" d="M234.5,549.42s-11-14.35,226.54,4.05c0,0-222.46-16.5-224.32.95Z"/>
  <path class="cls-16" d="M463.26,567.28"/>
  <path class="cls-42" d="M463.26,567.28q7.31,41.94,14.63,83.88L370.08,665.44q-1.33-48-2.66-95.93Z"/>
  <polygon class="cls-16" points="495.87 635.54 565.75 631.95 495.87 626.85 495.87 635.54"/>
  <path class="cls-16" d="M434,673.44l.27,3,19.05-1.37-.52-4.18,19.55-2.62"/>
  <path class="cls-16" d="M452.78,670.92l.52,4.18,32.29-5.54-.21-3Z"/>
  <polygon class="cls-37" points="452.78 670.92 453.3 675.1 452.78 675.1 452.28 670.96 452.78 670.92"/>
  <path class="cls-16" d="M485.25,668.27c0-.64-.07-1.29-.1-1.93l48.78-7,5,.49,1,6.5L510.79,671l-25.2-1.47"/>
  <path class="cls-37" d="M565.75,632l-69.88,3.28v-1.62Z"/>
  <path class="cls-12" d="M496.65,635.19"/>
  <polygon class="cls-37" points="495.87 635.19 495.87 670.14 497.29 670.14 497.29 635.23 495.87 635.19"/>
  <path class="cls-12" d="M564.61,669.32"/>
  <path class="cls-38" d="M495.87,566.11l19.67,1.64,38.13-3.69,1.86,66.56-59.66-3.79Z"/>
  <polygon class="cls-37" points="515.1 567.7 515.1 627.96 517.57 627.96 517.57 567.75 515.1 567.7"/>
  <path class="cls-43" d="M191.7,576.25l15.64,101.09a39.84,39.84,0,0,0,9,16.18"/>
  <path class="cls-44" d="M216.33,576.25l5.06.23,13,93.36a11.19,11.19,0,0,0,1,3.5c.77,1.68,1.59,2.33,1.29,2.95s-2,.83-3.25.38a3.91,3.91,0,0,1-1.69-1.25C230.7,671.47,229.73,667.47,216.33,576.25Z"/>
  <text class="cls-45" transform="translate(338.97 1143.75)">Nisan 2021</text>
  <g id="alt-duman">
    <path class="cls-46" d="M389.23,384.74a22.77,22.77,0,0,0-5.57-12.43,20.65,20.65,0,0,0-3.89-3.37,25.83,25.83,0,0,0-25.17-.8,20.56,20.56,0,0,0-4.35,3.37q-6.45,6.51-6.71,17.62a25.36,25.36,0,0,0,.6,6.36.11.11,0,0,0,0,.08,22.8,22.8,0,0,0,5.6,12.55,20.29,20.29,0,0,0,3.89,3.36,25.74,25.74,0,0,0,25.16.78,20.74,20.74,0,0,0,4.34-3.35q6.47-6.51,6.72-17.61A25.52,25.52,0,0,0,389.23,384.74Zm-13.35,17.58q-3.35,4.06-9.38,3.92a12.3,12.3,0,0,1-1.24-.08h0c-.35,0-.7-.09-1-.15a10.57,10.57,0,0,1-6.92-4.12,13.91,13.91,0,0,1-2-3.81,21.92,21.92,0,0,1-1.3-8.46q.17-7.46,3.53-11.51t9.37-3.92h.23a8.46,8.46,0,0,1,.87.05c.37,0,.73.08,1.09.14l.22,0,.53.12a2.52,2.52,0,0,1,.47.13,10.33,10.33,0,0,1,5.81,3.87A13.37,13.37,0,0,1,378,382c0,.06.05.12.07.17a21.61,21.61,0,0,1,1.38,8.65Q379.23,398.27,375.88,402.32Z"/>
  </g>
  <g id="markut">
    <path class="cls-38" d="M248.23,57.47l18.23,57,18.23-57H296v69.86h-8.78V100.12l.81-27.25-18.28,54.46h-6.72L244.87,73.06l.82,27.06v27.21h-8.78V57.47Z"/>
    <path class="cls-38" d="M349.48,109.05h-23.6l-5.42,18.28h-9l22.5-69.86h7.53L364,127.33h-9Zm-21.3-7.54h19.05l-9.55-31.76Z"/>
    <path class="cls-38" d="M399.54,99.07H387.26v28.26h-8.83V57.47H398q10.26,0,15.54,5.35t5.28,15.66A21.78,21.78,0,0,1,416,89.78a18,18,0,0,1-8.09,7.27l13.53,29.7v.58H412Zm-12.28-7.54h10.65A11.42,11.42,0,0,0,406.72,88Q410,84.41,410,78.46,410,65,397.82,65H387.26Z"/>
    <path class="cls-38" d="M451.14,95.13l-6.86,8.3v23.9H435.5V57.47h8.78V91.2L450,83.57l18.81-26.1H479.4L456.71,88.22l24.47,39.11H470.67Z"/>
    <path class="cls-38" d="M535.6,57.47v49.66q-.09,9.93-5.75,15.54t-15.79,5.62q-10.36,0-15.83-5.5t-5.57-15.66V57.47h8.73v49.28q0,7.05,3,10.53t9.67,3.47q6.72,0,9.71-3.47t3-10.53V57.47Z"/>
    <path class="cls-38" d="M594.87,65H576.5v62.33h-8.78V65H549.39V57.47h45.48Z"/>
  </g>
  <g id="entas">
    <path class="cls-16" d="M247.13,150.16H239.6v7.54h8.77V160H236.92V138.71h11.3V141H239.6v6.85h7.53Z"/>
    <path class="cls-16" d="M255.36,144.18l.07,1.71a4.64,4.64,0,0,1,3.85-2c2.8,0,4.22,1.86,4.25,5.6V160H261V149.6a4.32,4.32,0,0,0-.62-2.63,2.21,2.21,0,0,0-1.86-.79,2.65,2.65,0,0,0-1.74.65,4.56,4.56,0,0,0-1.23,1.68V160h-2.59V144.18Z"/>
    <path class="cls-16" d="M268.36,151.37a9.56,9.56,0,0,1,1.37-5.57,4.54,4.54,0,0,1,3.93-1.91,4,4,0,0,1,3.53,1.84v-8.19h2.59V160h-2.37l-.13-1.7a4.07,4.07,0,0,1-3.64,2,4.52,4.52,0,0,1-3.85-1.91,9.14,9.14,0,0,1-1.43-5.39Zm2.59,1.47a7.5,7.5,0,0,0,.79,3.91,2.82,2.82,0,0,0,2.57,1.24,3,3,0,0,0,2.88-1.94v-8a3.11,3.11,0,0,0-2.86-1.9,2.81,2.81,0,0,0-2.57,1.25,7.35,7.35,0,0,0-.81,3.83Z"/>
    <path class="cls-16" d="M293.32,158.61a4.43,4.43,0,0,1-3.75,1.68,3.77,3.77,0,0,1-3.25-1.48,7.28,7.28,0,0,1-1.11-4.32V144.18h2.57V154.3c0,2.46.74,3.69,2.23,3.69a3.24,3.24,0,0,0,3.24-2.1V144.18h2.59V160h-2.46ZM285.84,140a1.59,1.59,0,0,1,.4-1.11,1.81,1.81,0,0,1,2.39,0A1.6,1.6,0,0,1,289,140a1.6,1.6,0,1,1-3.2,0Zm6.28,0a1.63,1.63,0,0,1,.41-1.12,1.5,1.5,0,0,1,1.19-.45,1.56,1.56,0,0,1,1.2.45,1.63,1.63,0,0,1,.41,1.12,1.56,1.56,0,0,1-.41,1.1,1.59,1.59,0,0,1-1.2.44,1.53,1.53,0,0,1-1.19-.44A1.56,1.56,0,0,1,292.12,140Z"/>
    <path class="cls-16" d="M308.91,156a1.93,1.93,0,0,0-.63-1.44,9.84,9.84,0,0,0-2.42-1.4,16.08,16.08,0,0,1-2.95-1.47,4.21,4.21,0,0,1-1.28-1.4,3.87,3.87,0,0,1-.42-1.86,4.14,4.14,0,0,1,1.41-3.21,5.75,5.75,0,0,1,7.31.06,4.57,4.57,0,0,1,1.41,3.45h-2.57a2.54,2.54,0,0,0-.72-1.82,2.43,2.43,0,0,0-1.83-.75,2.57,2.57,0,0,0-1.79.59,2,2,0,0,0-.65,1.58,1.71,1.71,0,0,0,.48,1.27,8.39,8.39,0,0,0,2.28,1.27,11.43,11.43,0,0,1,3.92,2.2,3.79,3.79,0,0,1,1,2.73,4.13,4.13,0,0,1-1.42,3.3,5.54,5.54,0,0,1-3.8,1.24,5.67,5.67,0,0,1-4-1.42,4.67,4.67,0,0,1-1.53-3.59h2.6a3.1,3.1,0,0,0,4.9,2.22A1.92,1.92,0,0,0,308.91,156Z"/>
    <path class="cls-16" d="M319.75,140.35v3.83h2.38v2.09h-2.38v9.82a2.6,2.6,0,0,0,.31,1.42,1.14,1.14,0,0,0,1.05.48,3.19,3.19,0,0,0,1-.17l0,2.18a5.84,5.84,0,0,1-1.8.29,2.74,2.74,0,0,1-2.34-1.1,5.13,5.13,0,0,1-.8-3.1v-9.82h-2.42v-2.09h2.42v-3.83Z"/>
    <path class="cls-16" d="M333.23,146.61a6.15,6.15,0,0,0-1.17-.1,2.82,2.82,0,0,0-2.77,2.17V160H326.7V144.18h2.51l.05,1.61a3.21,3.21,0,0,1,2.94-1.9,2.38,2.38,0,0,1,1,.2Z"/>
    <path class="cls-16" d="M340.3,140a1.62,1.62,0,0,1-.37,1.09,1.36,1.36,0,0,1-1.11.44,1.34,1.34,0,0,1-1.09-.44,1.62,1.62,0,0,1-.37-1.09,1.72,1.72,0,0,1,.37-1.12,1.32,1.32,0,0,1,1.09-.45,1.34,1.34,0,0,1,1.11.46A1.71,1.71,0,0,1,340.3,140Zm-.21,20h-2.58V144.18h2.58Z"/>
    <path class="cls-16" d="M350,155.7l2.88-11.52h2.75l-5.17,18a6.86,6.86,0,0,1-1.66,3.09,3.35,3.35,0,0,1-2.42,1.07,5.06,5.06,0,0,1-1.35-.24V164l.57.06a2.63,2.63,0,0,0,1.76-.54,3.69,3.69,0,0,0,1-1.85l.52-1.76-4.65-15.69h2.82Z"/>
    <path class="cls-16" d="M365.09,160.29a5.77,5.77,0,0,1-4.53-1.76,7.6,7.6,0,0,1-1.61-5.17v-1.91a8.91,8.91,0,0,1,1.54-5.55,5.12,5.12,0,0,1,4.31-2,4.93,4.93,0,0,1,4.15,1.77c.91,1.18,1.38,3,1.4,5.51v1.69h-8.83v.37a5.77,5.77,0,0,0,1,3.7,3.38,3.38,0,0,0,2.76,1.15,4.44,4.44,0,0,0,2-.43,5,5,0,0,0,1.62-1.37l1.35,1.64A5.87,5.87,0,0,1,365.09,160.29Zm-.29-14.18a2.74,2.74,0,0,0-2.39,1.1,6.56,6.56,0,0,0-.87,3.43h6.22v-.35a5.94,5.94,0,0,0-.81-3.22A2.5,2.5,0,0,0,364.8,146.11Z"/>
    <path class="cls-16" d="M377.74,160h-2.59V137.54h2.59Z"/>
    <path class="cls-16" d="M403.87,141h-5.6v19H395.6V141H390v-2.3h13.85Z"/>
    <path class="cls-16" d="M414.64,160a5.62,5.62,0,0,1-.34-1.73,4.1,4.1,0,0,1-3.51,2,4.5,4.5,0,0,1-3.35-1.21,4.56,4.56,0,0,1-1.21-3.4,4.83,4.83,0,0,1,1.64-3.83,6.77,6.77,0,0,1,4.49-1.44h1.9v-1.68a2.22,2.22,0,0,0-2.55-2.62,2.66,2.66,0,0,0-1.9.69,2.37,2.37,0,0,0-.73,1.77H406.5a4.16,4.16,0,0,1,.71-2.32,5,5,0,0,1,1.93-1.73,5.79,5.79,0,0,1,2.71-.63,5.19,5.19,0,0,1,3.69,1.2,4.75,4.75,0,0,1,1.29,3.52v8a9.63,9.63,0,0,0,.5,3.17V160Zm-3.45-2.06a3.45,3.45,0,0,0,1.81-.53,3.25,3.25,0,0,0,1.26-1.32v-3.77H412.8a4.9,4.9,0,0,0-2.91.83,2.6,2.6,0,0,0-1.07,2.23,2.89,2.89,0,0,0,.54,2A2.37,2.37,0,0,0,411.19,157.94Z"/>
    <path class="cls-16" d="M430,156a1.93,1.93,0,0,0-.63-1.44,9.84,9.84,0,0,0-2.42-1.4,16.08,16.08,0,0,1-3-1.47,4.32,4.32,0,0,1-1.28-1.4,3.87,3.87,0,0,1-.42-1.86,4.14,4.14,0,0,1,1.41-3.21,5.75,5.75,0,0,1,7.31.06,4.57,4.57,0,0,1,1.41,3.45h-2.57a2.54,2.54,0,0,0-.72-1.82,2.43,2.43,0,0,0-1.83-.75,2.59,2.59,0,0,0-1.79.59,2,2,0,0,0-.65,1.58,1.71,1.71,0,0,0,.48,1.27,8.57,8.57,0,0,0,2.28,1.27,11.43,11.43,0,0,1,3.92,2.2,3.79,3.79,0,0,1,1,2.73,4.13,4.13,0,0,1-1.42,3.3,5.54,5.54,0,0,1-3.8,1.24,5.67,5.67,0,0,1-4-1.42,4.67,4.67,0,0,1-1.53-3.59h2.6a3.1,3.1,0,0,0,4.9,2.22A1.92,1.92,0,0,0,430,156Z"/>
    <path class="cls-16" d="M445.61,160a5.39,5.39,0,0,1-.33-1.73,4.11,4.11,0,0,1-3.51,2,4.52,4.52,0,0,1-3.36-1.21,4.59,4.59,0,0,1-1.2-3.4,4.82,4.82,0,0,1,1.63-3.83,6.77,6.77,0,0,1,4.49-1.44h1.9v-1.68a2.7,2.7,0,0,0-.63-2,3.14,3.14,0,0,0-3.81.09,2.33,2.33,0,0,0-.73,1.77h-2.59a4.24,4.24,0,0,1,.71-2.32,5,5,0,0,1,1.94-1.73,5.72,5.72,0,0,1,2.7-.63,5.15,5.15,0,0,1,3.69,1.2,4.75,4.75,0,0,1,1.29,3.52v8a9.63,9.63,0,0,0,.5,3.17V160Zm-3.45-2.06a3.43,3.43,0,0,0,1.81-.53,3.18,3.18,0,0,0,1.26-1.32v-3.77h-1.46a4.9,4.9,0,0,0-2.91.83,2.62,2.62,0,0,0-1.07,2.23,2.89,2.89,0,0,0,.54,2A2.37,2.37,0,0,0,442.16,157.94Z"/>
    <path class="cls-16" d="M459.84,146.61a6.15,6.15,0,0,0-1.17-.1,2.84,2.84,0,0,0-2.78,2.17V160h-2.58V144.18h2.51l0,1.61a3.22,3.22,0,0,1,2.94-1.9,2.34,2.34,0,0,1,1,.2Z"/>
    <path class="cls-16" d="M466.7,160h-2.58V144.18h2.58Z"/>
    <path class="cls-16" d="M474.88,144.18l.06,1.46a4.68,4.68,0,0,1,3.81-1.75,3.73,3.73,0,0,1,3.7,2.29,4.68,4.68,0,0,1,4.15-2.29q4.38,0,4.48,5.45V160H488.5V149.59a4.37,4.37,0,0,0-.61-2.57,2.4,2.4,0,0,0-2.08-.84,2.32,2.32,0,0,0-1.9.91,4.1,4.1,0,0,0-.84,2.31V160h-2.61V149.47c0-2.19-.92-3.29-2.67-3.29a2.83,2.83,0,0,0-2.77,2V160h-2.57V144.18Z"/>
    <path class="cls-16" d="M505.18,160V138.71h5.07A7.32,7.32,0,0,1,516,141a9.61,9.61,0,0,1,2.06,6.56v3.57A9.37,9.37,0,0,1,516,157.7a7.8,7.8,0,0,1-6.07,2.3Zm2.67-19V157.7H510a5,5,0,0,0,4.13-1.61,7.65,7.65,0,0,0,1.32-4.8v-3.77a7.75,7.75,0,0,0-1.29-4.94,4.76,4.76,0,0,0-3.91-1.57Z"/>
    <path class="cls-16" d="M529.06,160.29a5.81,5.81,0,0,1-4.54-1.76,7.59,7.59,0,0,1-1.6-5.17v-1.91a8.91,8.91,0,0,1,1.54-5.55,5.12,5.12,0,0,1,4.31-2,4.93,4.93,0,0,1,4.15,1.77c.91,1.18,1.38,3,1.4,5.51v1.69h-8.83v.37a5.77,5.77,0,0,0,1,3.7,3.36,3.36,0,0,0,2.75,1.15,4.44,4.44,0,0,0,2-.43,4.89,4.89,0,0,0,1.63-1.37l1.35,1.64A5.87,5.87,0,0,1,529.06,160.29Zm-.29-14.18a2.73,2.73,0,0,0-2.39,1.1,6.55,6.55,0,0,0-.88,3.43h6.23v-.35a6.12,6.12,0,0,0-.81-3.22A2.5,2.5,0,0,0,528.77,146.11Z"/>
    <path class="cls-16" d="M545.45,146.61a6.15,6.15,0,0,0-1.17-.1,2.84,2.84,0,0,0-2.78,2.17V160h-2.59V144.18h2.52l0,1.61a3.22,3.22,0,0,1,2.94-1.9,2.34,2.34,0,0,1,1,.2Z"/>
    <path class="cls-16" d="M548.73,151.37a9.61,9.61,0,0,1,1.35-5.59,4.5,4.5,0,0,1,3.93-1.89,4,4,0,0,1,3.66,2.06l.14-1.77h2.34v16a6.28,6.28,0,0,1-1.51,4.51,5.52,5.52,0,0,1-4.2,1.57,7.31,7.31,0,0,1-2.62-.57,5.44,5.44,0,0,1-2.18-1.43l1.05-1.78a5,5,0,0,0,3.55,1.58c2.16,0,3.26-1.18,3.32-3.53v-2.06a4.06,4.06,0,0,1-3.57,1.86,4.52,4.52,0,0,1-3.83-1.85,9.1,9.1,0,0,1-1.43-5.31Zm2.59,1.47a7.62,7.62,0,0,0,.78,3.91,2.79,2.79,0,0,0,2.57,1.24,3.09,3.09,0,0,0,2.89-2v-7.9a3.14,3.14,0,0,0-2.87-1.94,2.82,2.82,0,0,0-2.57,1.25,7.46,7.46,0,0,0-.8,3.83Z"/>
    <path class="cls-16" d="M568.48,140a1.66,1.66,0,0,1-.36,1.09,1.39,1.39,0,0,1-1.11.44,1.37,1.37,0,0,1-1.1-.44,1.67,1.67,0,0,1-.37-1.09,1.78,1.78,0,0,1,.37-1.12,1.34,1.34,0,0,1,1.1-.45,1.32,1.32,0,0,1,1.1.46A1.71,1.71,0,0,1,568.48,140Zm-.2,20h-2.59V144.18h2.59Z"/>
    <path class="cls-16" d="M581.53,156a1.93,1.93,0,0,0-.63-1.44,9.75,9.75,0,0,0-2.43-1.4,16.25,16.25,0,0,1-2.94-1.47,4.21,4.21,0,0,1-1.28-1.4,3.87,3.87,0,0,1-.42-1.86,4.14,4.14,0,0,1,1.41-3.21,5.75,5.75,0,0,1,7.31.06,4.57,4.57,0,0,1,1.41,3.45h-2.58a2.57,2.57,0,0,0-.71-1.82,2.43,2.43,0,0,0-1.83-.75,2.57,2.57,0,0,0-1.79.59,2,2,0,0,0-.65,1.58,1.75,1.75,0,0,0,.47,1.27,8.68,8.68,0,0,0,2.29,1.27,11.43,11.43,0,0,1,3.92,2.2,3.79,3.79,0,0,1,1,2.73,4.17,4.17,0,0,1-1.42,3.3,5.56,5.56,0,0,1-3.8,1.24,5.67,5.67,0,0,1-4-1.42,4.67,4.67,0,0,1-1.53-3.59H576a2.66,2.66,0,0,0,2.94,2.8,2.9,2.9,0,0,0,2-.58A2,2,0,0,0,581.53,156Z"/>
    <path class="cls-16" d="M592,140a1.66,1.66,0,0,1-.36,1.09,1.39,1.39,0,0,1-1.11.44,1.35,1.35,0,0,1-1.1-.44A1.66,1.66,0,0,1,589,140a1.77,1.77,0,0,1,.36-1.12,1.56,1.56,0,0,1,2.2,0A1.71,1.71,0,0,1,592,140Zm-.2,20h-2.59V144.18h2.59Z"/>
  </g>
  <g id="sol-arka-tekerlek">
    <path class="cls-13" d="M721.51,675.14a174.47,174.47,0,0,1-14.32,58.44A124.63,124.63,0,0,1,691,760.5c-.75.92-1.5,1.83-2.27,2.71a81.48,81.48,0,0,1-15.44,14.06,24.12,24.12,0,0,1-3.4,0c-8.4-.62-16-5.54-22.39-13.7-14.73-18.8-23.06-54.82-20.06-95.38,2.94-39.81,16-73.71,32.9-90.47,7.79-7.72,16.36-11.82,25.12-11.18a23.94,23.94,0,0,1,3.38.49,86.68,86.68,0,0,1,16.55,21.88C717.6,611.29,724,641.92,721.51,675.14Z"/>
    <path class="cls-13" d="M728.48,663.31c0,1.35-.07,2.7-.12,4.07,1.93-52.15-14.92-95-39.53-100.36a23.94,23.94,0,0,0-3.38-.49c-8.76-.64-17.33,3.46-25.12,11.18-16.87,16.76-30,50.66-32.9,90.47-3,40.56,5.33,76.58,20.06,95.38,6.38,8.16,14,13.08,22.39,13.7a24.12,24.12,0,0,0,3.4,0,56.36,56.36,0,0,1-20.3,9,46.74,46.74,0,0,1-13.36.94c-40.43-3-69.32-58-64.52-122.92S616.56,549.22,657,552.21a44.59,44.59,0,0,1,4.78.61l11.85.83h.06l3.51.25c.64,0,1.28,0,1.92,0,.44,0,.88,0,1.3.07a7.3,7.3,0,0,1,.94.09h.07a27.48,27.48,0,0,1,3.71.67,29.79,29.79,0,0,1,7.78,3.22h0C715.15,570.83,729.73,612.94,728.48,663.31Z"/>
    <path class="cls-13" d="M728.36,667.38c-.05,1.24-.1,2.49-.17,3.74,0,.22,0,.44,0,.67-.07,1.27-.16,2.54-.25,3.82-.13,1.78-.28,3.55-.45,5.3a.88.88,0,0,0,0,.16c-.13,1.36-.28,2.71-.44,4.06,0,.39-.08.79-.13,1.19C719.87,746,692.35,791.14,663,789a28.44,28.44,0,0,1-10-2.66h0a56.36,56.36,0,0,0,20.3-9,24.12,24.12,0,0,1-3.4,0c-8.4-.62-16-5.54-22.39-13.7-14.73-18.8-23.06-54.82-20.06-95.38,2.94-39.81,16-73.71,32.9-90.47,7.79-7.72,16.36-11.82,25.12-11.18a23.94,23.94,0,0,1,3.38.49C713.44,572.34,730.29,615.23,728.36,667.38Z"/>
    <path class="cls-14" d="M728.36,667.38c-.05,1.24-.1,2.49-.17,3.74,0,.22,0,.44,0,.67-.07,1.27-.16,2.54-.25,3.82-.13,1.78-.28,3.55-.45,5.3a.88.88,0,0,0,0,.16c-5.24,53.19-28.58,94.55-54.15,96.2a24.12,24.12,0,0,1-3.4,0c-8.4-.62-16-5.54-22.39-13.7-14.73-18.8-23.06-54.82-20.06-95.38,2.94-39.81,16-73.71,32.9-90.47,7.79-7.72,16.36-11.82,25.12-11.18a23.94,23.94,0,0,1,3.38.49C713.44,572.34,730.29,615.23,728.36,667.38Z"/>
    <ellipse class="cls-6" cx="682.62" cy="672.74" rx="93.18" ry="40.97" transform="translate(-38.61 1303.92) rotate(-85.77)"/>
    <path class="cls-6" d="M695.8,673.72c-3,40.27-16.77,73.72-33.49,85.45-14.8-14.06-23.52-49.18-20.55-89.45s16.77-73.72,33.48-85.46C690.05,598.33,698.77,633.46,695.8,673.72Z"/>
    <path class="cls-4" d="M714,694.25a197.81,197.81,0,0,1-6.8,39.27,146.12,146.12,0,0,1-5.41,15.69,0,0,0,0,1,0,0,51.71,51.71,0,0,1-11.53,12.88c-4.88,3.69-10,5.55-15.23,5.16-4.86-.36-9.36-2.62-13.43-6.49a37.9,37.9,0,0,1-4.41-5c-.27-.36-.53-.73-.8-1.11s-.53-.76-.78-1.16-.51-.79-.76-1.2-.38-.61-.56-.92c-.7-1.19-1.38-2.42-2-3.72-.19-.36-.37-.72-.55-1.1-.37-.76-.73-1.56-1.1-2.39-.23-.49-.44-1-.64-1.49-.44-1-.85-2.1-1.26-3.18-.31-.84-.61-1.7-.91-2.55a125.56,125.56,0,0,1-4.42-17c-.19-1-.37-2-.54-3.1-.38-2.27-.73-4.59-1-6.95-.12-.91-.23-1.83-.32-2.74l-.24-2.43c-.07-.79-.15-1.6-.2-2.42-.15-1.77-.27-3.57-.36-5.39-.05-1-.1-2.08-.13-3.12-.1-2.52-.13-5.07-.11-7.65,0-1.18,0-2.37,0-3.58,0-.62,0-1.23.06-1.84,0-1.08.07-2.15.11-3.23,0-.72.06-1.44.1-2.18.08-1.3.16-2.61.26-3.93s.21-2.62.32-3.92c.07-.73.14-1.45.23-2.17.11-1.11.22-2.2.36-3.29.06-.58.14-1.17.21-1.75.15-1.18.3-2.36.48-3.53.37-2.58.79-5.13,1.24-7.63.19-1,.39-2,.59-3,.15-.72.29-1.45.46-2.18s.26-1.24.39-1.84c.08-.36.16-.71.25-1,.21-.91.41-1.81.64-2.69s.36-1.5.55-2.24q.35-1.35.72-2.67c.63-2.29,1.31-4.54,2-6.72.33-1,.65-2,1-3,.88-2.52,1.8-4.93,2.76-7.27l0,0c7.88-12,17.22-18.75,26.76-18a18.16,18.16,0,0,1,3.8.69C704.27,604.93,717.59,645.87,714,694.25Z"/>
    <path class="cls-47" d="M670.3,598.27l.52.77c.2.32.41.64.59,1,11,17.67,17.38,50.94,15.39,88.61-1.62,30.61-8.39,57.69-17.75,75.47h0c-.28.54-.56,1.07-.86,1.59"/>
    <path class="cls-14" d="M655.64,667.66s-7.15,27.77,2,28.05,16.27-19,16.27-19a10.62,10.62,0,0,1-2,1.83,11.14,11.14,0,0,1-4.13,1.79,10.79,10.79,0,0,1-7.33-1.58,12.54,12.54,0,0,1-2.31-2.38A13.83,13.83,0,0,1,655.64,667.66Z"/>
    <polygon class="cls-13" points="639.33 787.08 662.75 788.81 662.75 785.49 640.17 783.08 639.33 787.08"/>
    <path class="cls-14" d="M657.58,663.54a19,19,0,0,0-.27,5.68,14.13,14.13,0,0,0,2,6.69,12,12,0,0,0,2.13,2.47,8.12,8.12,0,0,0,3.78,1.77c4.81.82,8.42-3.4,8.65-3.68a16.19,16.19,0,0,1-4.34-.24,18.53,18.53,0,0,1-5.57-2.07,12.91,12.91,0,0,1-2.15-2A22.48,22.48,0,0,1,657.58,663.54Z"/>
  </g>
  <g id="highlight">
    <path class="cls-48" d="M640,567.44l1.76,7.26,15.5-13.09,7.27,5-2.92-6.36-2.3-4.94Z"/>
    <path class="cls-48" d="M639.53,569.81l-2.85,3.77L631,562.08l-5.49,1.09,3.3-3c.86-.76,1.72-1.52,2.57-2.29Z"/>
    <path class="cls-48" d="M612.25,598.64l-2.86,3.77L603.7,590.9l-5.48,1.1,3.29-3,2.58-2.29Z"/>
    <path class="cls-48" d="M596.23,633l-2.3,4.13-7.23-10.62-5.28,1.84,2.86-3.38c.74-.88,1.49-1.75,2.24-2.62Z"/>
    <path class="cls-48" d="M589.47,674.05l-1.73,4.4-8.58-9.54-5,2.53,2.38-3.74,1.86-2.9Z"/>
    <path class="cls-48" d="M593.35,720.59l-.89,4.64-10.2-7.8-4.44,3.41,1.65-4.11c.43-1.06.86-2.13,1.3-3.19Z"/>
    <path class="cls-48" d="M607.23,755.52l-.89,4.64-10.2-7.8-4.44,3.41,1.65-4.11c.43-1.06.86-2.13,1.3-3.19Z"/>
    <path class="cls-48" d="M613.24,595.15l1.76,7.26,15.5-13.1,7.26,5L634.85,588c-.77-1.65-1.53-3.3-2.3-4.94Z"/>
    <path class="cls-48" d="M597.45,630.39l1.76,7.27,15.5-13.1,7.26,5-2.91-6.36-2.3-4.94Z"/>
    <path class="cls-48" d="M593,672l1.76,7.26,15.5-13.1,7.27,5-2.92-6.37c-.77-1.64-1.53-3.29-2.3-4.93Z"/>
    <path class="cls-48" d="M596.23,717.28l1.77,7.27,15.5-13.1,7.26,5-2.92-6.36c-.76-1.65-1.53-3.29-2.29-4.94Z"/>
    <path class="cls-48" d="M609.71,752.9l1.76,7.26,15.5-13.1,7.27,5-2.92-6.37c-.77-1.64-1.53-3.29-2.3-4.93Z"/>
  </g>
  <g id="ust-duman">
    <path class="cls-46" d="M386.18,344.32a19.54,19.54,0,0,0-4.82-10.75,17.19,17.19,0,0,0-3.36-2.92,22.3,22.3,0,0,0-21.76-.68,17.16,17.16,0,0,0-3.76,2.91c-3.72,3.74-5.65,8.83-5.8,15.23a21.92,21.92,0,0,0,.51,5.5.56.56,0,0,0,0,.07A19.77,19.77,0,0,0,352,364.53a17.73,17.73,0,0,0,3.36,2.91,22.26,22.26,0,0,0,21.76.67,17.92,17.92,0,0,0,3.76-2.9q5.58-5.61,5.81-15.23A22.21,22.21,0,0,0,386.18,344.32Zm-11.55,15.2a9.63,9.63,0,0,1-8.11,3.39c-.36,0-.72,0-1.07-.07h0l-.9-.13a9.15,9.15,0,0,1-6-3.57,11.53,11.53,0,0,1-1.71-3.29,18.67,18.67,0,0,1-1.13-7.32q.15-6.43,3-9.95a9.61,9.61,0,0,1,8.1-3.39h.2c.25,0,.5,0,.75,0s.64.07.95.12l.19,0,.46.09a3,3,0,0,1,.4.12,8.9,8.9,0,0,1,5,3.35,11.48,11.48,0,0,1,1.6,3,.88.88,0,0,1,.05.15,18.55,18.55,0,0,1,1.2,7.48Q377.54,356,374.63,359.52Z"/>
  </g>
</svg>
