<svg xmlns="http://www.w3.org/2000/svg" xmlns:xlink="http://www.w3.org/1999/xlink" width="745" height="932" viewBox="0 0 745 932"><defs><filter id="a" x="131" y="680" width="484" height="243" filterUnits="userSpaceOnUse"><feOffset dy="15" input="SourceAlpha"/><feGaussianBlur stdDeviation="25" result="b"/><feFlood flood-color="#033eff" flood-opacity="0.769"/><feComposite operator="in" in2="b"/><feComposite in="SourceGraphic"/></filter><filter id="c" x="197" y="684" width="334" height="234" filterUnits="userSpaceOnUse"><feOffset dx="-9" dy="15" input="SourceAlpha"/><feGaussianBlur stdDeviation="30" result="d"/><feFlood flood-opacity="0.161"/><feComposite operator="in" in2="d"/><feComposite in="SourceGraphic"/></filter><radialGradient id="e" cx="0.266" cy="1.077" r="0.991" gradientTransform="translate(-2.918 5.666) rotate(-90) scale(1 0.93)" gradientUnits="objectBoundingBox"><stop offset="0" stop-color="#fd5"/><stop offset="0.1" stop-color="#fd5"/><stop offset="0.5" stop-color="#ff543e"/><stop offset="1" stop-color="#c837ab"/></radialGradient><clipPath id="f"><rect width="159.853" height="104.852" transform="translate(-2.671 16.759) rotate(-11)" fill="#ac1e1e"/></clipPath><clipPath id="i"><rect width="745" height="932"/></clipPath></defs><g id="h" clip-path="url(#i)"><text transform="translate(88 532)" font-size="134" font-family="RobotoCondensed-Regular, Roboto" letter-spacing="0.15em"><tspan x="0" y="0">MARKUT</tspan></text><text transform="translate(94 600)" font-size="38" font-family="SegoeUI, Segoe UI" letter-spacing="0.054em"><tspan x="0" y="0">Instagram Hesabını Takip Edin</tspan></text><text transform="translate(235 676)" font-size="38" font-family="SegoeUI, Segoe UI" letter-spacing="0.054em"><tspan x="0" y="0">@markutworks</tspan></text><g transform="matrix(1, 0, 0, 1, 0, 0)" filter="url(#a)"><g transform="translate(206 740)" fill="#fff" stroke="#000" stroke-width="5"><rect width="334" height="93" rx="46.5" stroke="none"/><rect x="2.5" y="2.5" width="329" height="88" rx="44" fill="none"/></g></g><g transform="matrix(1, 0, 0, 1, 0, 0)" filter="url(#c)"><text transform="translate(296 803)" font-size="41" font-family="SegoeUI, Segoe UI" letter-spacing="0.054em"><tspan x="0" y="0">Takip Et</tspan></text></g><g transform="translate(249.068 135.591)" style="isolation:isolate"><path d="M74.222,251.835c-13.443-.616-22.624-2.744-30.659-5.867A61.858,61.858,0,0,1,21.2,231.39,61.891,61.891,0,0,1,6.63,209.017C3.51,200.986,1.381,191.808.763,178.363.152,164.891,0,160.6,0,126.3s.158-38.608.761-52.08C1.365,60.778,3.5,51.6,6.628,43.565A62,62,0,0,1,21.2,21.195,61.853,61.853,0,0,1,43.578,6.63C51.608,3.507,60.786,1.379,74.232.763,87.7.15,92.006,0,126.29,0s38.583.15,52.052.763c13.446.616,22.628,2.744,30.68,5.867a61.732,61.732,0,0,1,22.366,14.564,61.984,61.984,0,0,1,14.577,22.373c3.1,8.03,5.236,17.208,5.867,30.654.606,13.472.764,17.776.764,52.078s-.158,38.595-.764,52.066c-.631,13.44-2.763,22.62-5.867,30.654a64.71,64.71,0,0,1-36.935,36.948c-8.035,3.123-17.224,5.251-30.669,5.867-13.472.613-17.764.763-52.066.763S87.694,252.447,74.222,251.835Zm1.053-228.4c-12.314.566-19,2.618-23.452,4.355A39.191,39.191,0,0,0,37.3,37.245,39.122,39.122,0,0,0,27.846,51.77c-1.729,4.452-3.787,11.136-4.35,23.449-.606,13.314-.726,17.293-.726,51.019s.121,37.727.726,51.041c.56,12.314,2.621,19,4.35,23.444A39.145,39.145,0,0,0,37.3,215.239a39.1,39.1,0,0,0,14.525,9.446c4.454,1.729,11.138,3.787,23.452,4.355,13.315.6,17.311.737,51.036.737s37.721-.132,51.035-.737c12.314-.564,19-2.616,23.449-4.352a41.886,41.886,0,0,0,23.965-23.955c1.729-4.446,3.786-11.13,4.35-23.444.6-13.314.737-17.313.737-51.019s-.132-37.705-.737-51.019c-.56-12.314-2.621-19-4.35-23.444a39.2,39.2,0,0,0-9.452-14.525,39.055,39.055,0,0,0-14.513-9.445c-4.452-1.729-11.136-3.787-23.449-4.35-13.317-.606-17.313-.726-51.035-.726-4.215,0-7.968-.006-11.33,0v-.032C91.44,22.755,86.925,22.913,75.274,23.439ZM61.449,126.3a64.854,64.854,0,1,1,64.86,64.846A64.862,64.862,0,0,1,61.449,126.3Zm22.76,0a42.1,42.1,0,1,0,42.1-42.1A42.1,42.1,0,0,0,84.209,126.3ZM178.57,58.882a15.153,15.153,0,0,1,15.156-15.151v-.006A15.156,15.156,0,1,1,178.57,58.882Zm-52.264,2.557h0ZM126.27,0h0Z" transform="translate(0 0)" fill="url(#e)"/></g><g transform="matrix(0.966, -0.259, 0.259, 0.966, 155.612, 107.239)"><rect width="114.362" height="57.23" transform="translate(114.459 114.362)" fill="#221dbf"/><path d="M114.362,38.153,95.285,51.779,76.209,65.308l-15.281,10.9H53.337l-15.281-10.8L0,38.25,38.056,0H76.209Z" transform="translate(114.459 171.592)" fill="#f7c421"/><path d="M138.694,15.378,130.129,36.79h0a57.065,57.065,0,0,0-15.767,39.418l-57.23,38.153L0,0Z" transform="translate(0 38.153)" fill="#f7c421"/><path d="M38.153,0,22.872,76.209l-3.8,19.077-3.8-19.077h0L0,0Z" transform="translate(152.515 171.592)" fill="#c30000"/><path d="M57.132,3.7,0,60.831H0A57.065,57.065,0,0,1,15.767,21.412h0L24.332,0Z" transform="translate(114.459 53.531)" fill="#f7c421"/><path d="M57.132,0V57.23L0,38.153Z" transform="translate(57.23 114.362)" fill="#eee"/><path d="M57.132,38.153,0,57.23V0Z" transform="translate(228.821 114.362)" fill="#eee"/><path d="M114.362,38.153,91.49,49.541h0L76.306,57.132,57.23,66.671,0,95.285H0L15.767,55.964v-.1h0l8.565-21.412L38.153,0h0L57.23,9.538,103.85,32.9l.1.1Z" transform="translate(114.459 19.077)" fill="#c30000"/><path d="M103.753,51.974,57.132,28.615,38.056,19.077,0,0H35.525A48.134,48.134,0,0,1,71.537,16.059l32.216,35.915Z" transform="translate(114.459 0)"/><path d="M0,0V24.527l19.077-10.9Z" transform="translate(133.439 223.371)" fill="#221dbf"/><path d="M0,0V20.342L15.281,10.8Z" transform="translate(152.515 236.997)" fill="#221dbf"/><path d="M15.281,0V20.439L0,10.9Z" transform="translate(175.388 236.9)" fill="#221dbf"/><path d="M19.077,0V24.43L0,13.529Z" transform="translate(190.668 223.371)" fill="#221dbf"/><path d="M171.592,0l-57.23,114.362L57.23,76.209h0L0,19.077H.195l46.426-5.256h.1Z" transform="translate(171.592 38.153)" fill="#f7c421"/><path d="M114.362,57.132h0a57.239,57.239,0,0,1-57.132,57.23h0A57.225,57.225,0,0,1,0,57.911v-.779A57.065,57.065,0,0,1,15.767,17.714h0A57.08,57.08,0,0,1,57.132,0h.195A56.4,56.4,0,0,1,91.49,11.485,56.82,56.82,0,0,1,114.362,57.132Z" transform="translate(114.459 57.23)" fill="#221dbf"/><ellipse cx="23.846" cy="23.846" rx="23.846" ry="23.846" transform="translate(147.746 90.516)" fill="#eee"/><path d="M171.592,0l-57.23,114.362L57.23,133.439H19.077L57.23,171.592,38.153,185.218v24.43l-19.077-10.9v20.439L3.8,209.647,0,228.724V19.077H.195l46.426-5.256h.1Z" transform="translate(171.592 38.153)" opacity="0.2"/></g><g transform="translate(295.091 235.678)" clip-path="url(#f)" style="isolation:isolate"><path d="M144.309,18c-34.3,0-38.605.15-52.077.763-13.446.616-22.623,2.744-30.654,5.868A61.845,61.845,0,0,0,39.205,39.195,62,62,0,0,0,24.628,61.565C21.5,69.6,19.366,78.779,18.76,92.219,18.158,105.691,18,110,18,144.3s.153,38.592.763,52.064c.618,13.446,2.747,22.623,5.868,30.654a64.631,64.631,0,0,0,36.932,36.95c8.036,3.123,17.216,5.252,30.659,5.868,13.472.613,17.774.763,52.072.763s38.595-.15,52.067-.763c13.446-.616,22.634-2.744,30.67-5.868a64.711,64.711,0,0,0,36.935-36.948c3.1-8.033,5.236-17.213,5.868-30.654.605-13.472.763-17.766.763-52.067s-.158-38.605-.763-52.077c-.631-13.446-2.763-22.623-5.868-30.654a61.988,61.988,0,0,0-14.577-22.373,61.726,61.726,0,0,0-22.365-14.564c-8.052-3.123-17.235-5.252-30.68-5.868C182.87,18.15,178.581,18,144.27,18Zm-11.33,22.76c3.363-.005,7.115,0,11.33,0,33.722,0,37.719.121,51.035.726,12.314.563,19,2.621,23.45,4.349a39.058,39.058,0,0,1,14.514,9.446,39.2,39.2,0,0,1,9.451,14.524c1.729,4.447,3.789,11.13,4.349,23.444.605,13.314.737,17.313.737,51.019s-.132,37.705-.737,51.019c-.563,12.314-2.621,19-4.349,23.444a41.882,41.882,0,0,1-23.965,23.955c-4.447,1.737-11.135,3.789-23.45,4.352-13.314.605-17.313.737-51.035.737s-37.721-.132-51.035-.737c-12.314-.568-19-2.626-23.452-4.355a41.843,41.843,0,0,1-23.976-23.963c-1.729-4.447-3.789-11.13-4.349-23.444-.605-13.314-.726-17.313-.726-51.04s.121-37.705.726-51.019c.563-12.314,2.621-19,4.349-23.449A39.131,39.131,0,0,1,55.3,55.245a39.2,39.2,0,0,1,14.524-9.451C74.274,44.057,80.96,42,93.274,41.439c11.651-.526,16.166-.684,39.705-.71Zm78.747,20.971a15.153,15.153,0,1,0,0-.005ZM144.309,79.439a64.853,64.853,0,1,0,64.849,64.86,64.862,64.862,0,0,0-64.849-64.86Zm0,22.76a42.1,42.1,0,1,1-42.1,42.1A42.1,42.1,0,0,1,144.309,102.2Z" transform="translate(-64.024 -118.087)" fill="url(#e)"/></g></g></svg>