<svg id="Layer_1" data-name="Layer 1" xmlns="http://www.w3.org/2000/svg" viewBox="0 0 283.46 283.46"><defs><style>.cls-1{fill:#fff;}</style></defs><path d="M175.72,129.38v33.5a.5.5,0,0,1-.5.5H108a.27.27,0,0,1-.28-.26V129.38a33.73,33.73,0,0,1,9.36-23.4v0a34,34,0,0,1,58.64,23.42Z"/><path class="cls-1" d="M175.22,163.88H108a.77.77,0,0,1-.78-.76V129.38a34.15,34.15,0,0,1,9.36-23.6l.14-.16a34.5,34.5,0,0,1,59.5,23.76v33.5A1,1,0,0,1,175.22,163.88Zm-67-1h67v-33.5a33.5,33.5,0,0,0-57.64-23.22l-.14.17a33.18,33.18,0,0,0-9.22,23Z"/><path d="M130.55,164.16l8.9,44.54-9.06-6.44-11.32-8.06-11.34-8.08,22.1-22.18A.43.43,0,0,1,130.55,164.16Z"/><path class="cls-1" d="M140.19,209.83,107,186.18l22.51-22.59a.94.94,0,0,1,1.57.47h0ZM108.5,186.05l30.21,21.51-8.64-43.21Zm21.56-21.79Z"/><path d="M175.73,186.06l-11.34,8.1-11.34,8.08L144,208.7l8.86-44.33a.55.55,0,0,1,.92-.28Z"/><path class="cls-1" d="M143.25,209.84l9.11-45.57a1.05,1.05,0,0,1,.72-.79,1,1,0,0,1,1,.26l22.38,22.38Zm10.16-45.39-8.68,43.1L175,186Z"/><polyline points="139.45 208.7 130.39 163.38 153.05 163.38 143.99 208.7 141.73 220.04 139.45 208.7"/><path class="cls-1" d="M141.73,222.58l-11.95-59.7h23.88Zm-1.79-14,1.79,8.89,10.71-53.61H131Z"/><path d="M121.84,93.16a.27.27,0,0,1,.22.36l-5,12.44v0a33.74,33.74,0,0,0-9.36,23.26.25.25,0,0,1-.1.21L74,151.87a.27.27,0,0,1-.39-.1L39.73,84Z"/><path class="cls-1" d="M73.83,152.41a.62.62,0,0,1-.19,0,.76.76,0,0,1-.49-.4L38.87,83.44l83,9.22a.75.75,0,0,1,.58.37.78.78,0,0,1,0,.68l-4.93,12.45-.14.16a33.19,33.19,0,0,0-9.22,22.92.71.71,0,0,1-.33.62L74.26,152.29A.82.82,0,0,1,73.83,152.41ZM40.59,84.63l33.33,66.68,33.31-22.2a34.2,34.2,0,0,1,9.42-23.4l4.83-12.09ZM107.35,129h0Zm14.24-35.69Z"/><path d="M107.73,129.8v33.27a.23.23,0,0,1-.3.21l-33.27-11.1a.22.22,0,0,1,0-.4l33.27-22.17A.23.23,0,0,1,107.73,129.8Z"/><path class="cls-1" d="M107.51,163.79a.67.67,0,0,1-.24,0L74,152.66a.71.71,0,0,1-.49-.6.69.69,0,0,1,.32-.69l33.26-22.18a.73.73,0,0,1,1.13.61v33.27a.7.7,0,0,1-.3.58A.75.75,0,0,1,107.51,163.79Zm.08-1ZM74.86,151.89l32.37,10.79V130.31Zm-.47.31Z"/><path d="M209.39,152.15l-33.47,11.16a.15.15,0,0,1-.19-.14V129.38l33.71,22.46A.17.17,0,0,1,209.39,152.15Z"/><path class="cls-1" d="M175.88,163.82a.66.66,0,0,1-.38-.12.64.64,0,0,1-.27-.52V128.44l34.48,23a.66.66,0,0,1-.16,1.19l-33.47,11.17A.64.64,0,0,1,175.88,163.82Zm-.11-1h0Zm.46-32.53v32.37l32.37-10.79Z"/><path d="M169.47,92.3l-27.74,3.08A33.89,33.89,0,0,0,117.09,106l5.1-12.76,8.2-20.48,11.34,5.68Z"/><path class="cls-1" d="M115.66,108.18,130.13,72,171.2,92.61l-29.42,3.26a33.29,33.29,0,0,0-24.33,10.43Zm15-34.77-12.21,30.52a34.11,34.11,0,0,1,23.29-9.05l26-2.89Z"/><path d="M169.07,92.1a.08.08,0,0,0,.1-.13l-18.86-21a28.74,28.74,0,0,0-21.44-9.56H107.73l22.66,11.34,11.34,5.68Z"/><path class="cls-1" d="M169.11,92.61a.62.62,0,0,1-.26-.06L105.61,60.88h23.26a29.25,29.25,0,0,1,21.81,9.72l19.14,21.34-.24.44A.6.6,0,0,1,169.11,92.61ZM109.85,61.88l57.49,28.79-17.4-19.4a28.19,28.19,0,0,0-21.07-9.39Z"/><polygon points="119.06 194.19 119.06 208.77 130.39 202.26 119.06 194.19"/><path class="cls-1" d="M118.56,209.63v-16.4l12.76,9.07Zm1-14.47v12.75l9.91-5.7Z"/><path d="M130.39,202.26v12.13l8.14-5.1a.74.74,0,0,0,0-1.22Z"/><path class="cls-1" d="M129.89,215.3v-14l9,6.38a1.2,1.2,0,0,1,.52,1,1.22,1.22,0,0,1-.57,1Zm1-12.07v10.26l7.38-4.62a.22.22,0,0,0,.1-.19.22.22,0,0,0-.09-.2Z"/><path d="M153.05,202.24v12.14l-8.3-5.2a.59.59,0,0,1,0-1Z"/><path class="cls-1" d="M153.55,215.29l-9.07-5.69a1.1,1.1,0,0,1,0-1.82l9.12-6.51Zm-1-12.08L145,208.59v.16l7.54,4.73Z"/><polygon points="164.39 194.16 164.39 208.7 153.05 202.24 164.39 194.16"/><path class="cls-1" d="M164.89,209.56l-12.77-7.27,12.77-9.1ZM154,202.2l9.91,5.64V195.13Z"/><path d="M243.73,84,209.9,151.7a.34.34,0,0,1-.49.13l-33.68-22.45a34,34,0,0,0-34-34l27.74-3.08h0Z"/><path class="cls-1" d="M209.6,152.38a.83.83,0,0,1-.46-.14l-33.91-22.6v-.26a33.51,33.51,0,0,0-33.5-33.5l0-1L244.59,83.44l-34.24,68.48a.84.84,0,0,1-.53.43Zm-.15-.91Zm-33.22-22.36,33.31,22.2,33.33-66.68L147.08,95.29a34.54,34.54,0,0,1,29.15,33.82Z"/><circle cx="141.73" cy="129.38" r="14.17"/><path class="cls-1" d="M141.73,144a14.67,14.67,0,1,1,14.67-14.66A14.68,14.68,0,0,1,141.73,144Zm0-28.33a13.67,13.67,0,1,0,13.67,13.67A13.68,13.68,0,0,0,141.73,115.71Z"/></svg>