<svg id="Layer_1" data-name="Layer 1" xmlns="http://www.w3.org/2000/svg" viewBox="0 0 283.46 283.46"><defs><style>.cls-1{fill:#fff;}</style></defs><path d="M168.39,109.85V135a.37.37,0,0,1-.38.37H117.6a.2.2,0,0,1-.21-.19V109.85a25.29,25.29,0,0,1,7-17.55h0a25.5,25.5,0,0,1,44,17.56Z"/><path class="cls-1" d="M168,135.73H117.59a.58.58,0,0,1-.58-.57V109.85a25.62,25.62,0,0,1,7-17.7l.1-.12a25.87,25.87,0,0,1,44.63,17.82V135A.74.74,0,0,1,168,135.73ZM117.76,135H168V109.85a25.12,25.12,0,0,0-43.23-17.41l-.1.12a24.89,24.89,0,0,0-6.92,17.29Z"/><path d="M134.5,135.93l6.68,33.41-6.79-4.83-8.49-6-8.51-6.06L134,135.77A.32.32,0,0,1,134.5,135.93Z"/><path class="cls-1" d="M141.73,170.19l-24.92-17.74,16.89-16.94a.7.7,0,0,1,.69-.18.68.68,0,0,1,.48.53h0ZM118,152.35l22.66,16.14-6.48-32.41ZM134.14,136Z"/><path d="M168.39,152.36l-8.5,6.07-8.51,6.06-6.79,4.85,6.64-33.25a.41.41,0,0,1,.69-.2Z"/><path class="cls-1" d="M144,170.19,150.87,136a.76.76,0,0,1,.53-.59.77.77,0,0,1,.78.19L169,152.41Zm7.62-34-6.51,32.33,22.67-16.17Z"/><polyline points="141.18 169.34 134.39 135.35 151.38 135.35 144.59 169.34 142.89 177.84 141.18 169.34"/><path class="cls-1" d="M142.89,179.75l-9-44.78h17.91Zm-1.34-10.49,1.34,6.67,8-40.21H134.84Z"/><path d="M128,82.68a.2.2,0,0,1,.16.28l-3.73,9.32v0a25.3,25.3,0,0,0-7,17.44.17.17,0,0,1-.08.16L92.08,126.72a.2.2,0,0,1-.29-.08l-25.4-50.8Z"/><path class="cls-1" d="M92,127.13l-.15,0a.54.54,0,0,1-.36-.3L65.75,75.39,128,82.31a.58.58,0,0,1,.43.28.61.61,0,0,1,0,.51l-3.7,9.33-.11.13a24.86,24.86,0,0,0-6.91,17.19.53.53,0,0,1-.25.46L92.29,127A.63.63,0,0,1,92,127.13ZM67,76.29l25,50,25-16.65a25.61,25.61,0,0,1,7.06-17.55L127.7,83Zm50.07,33.3h0Zm10.68-26.77Z"/><path d="M117.39,110.16v25a.16.16,0,0,1-.22.16l-25-8.32a.17.17,0,0,1,0-.3L117.13,110A.17.17,0,0,1,117.39,110.16Z"/><path class="cls-1" d="M117.22,135.66l-.17,0-25-8.32a.54.54,0,0,1-.13-1l25-16.63a.56.56,0,0,1,.56,0,.55.55,0,0,1,.29.48v25a.54.54,0,0,1-.55.55Zm.07-.74Zm-24.55-8.19,24.28,8.1V110.55Zm-.35.23Z"/><path d="M193.64,126.93l-25.1,8.37a.12.12,0,0,1-.15-.1V109.85l25.28,16.85A.13.13,0,0,1,193.64,126.93Z"/><path class="cls-1" d="M168.5,135.68a.47.47,0,0,1-.28-.09.47.47,0,0,1-.2-.39v-26l25.86,17.23a.51.51,0,0,1,.22.49.51.51,0,0,1-.34.41l-25.11,8.38Zm-.08-.74h0Zm.35-24.39v24.28l24.28-8.1Z"/><path d="M163.7,82l-20.81,2.31a25.42,25.42,0,0,0-18.48,7.93l3.83-9.57,6.15-15.36,8.5,4.26Z"/><path class="cls-1" d="M123.34,94l10.85-27.12L165,82.27l-22.07,2.45a24.94,24.94,0,0,0-18.25,7.82Zm11.24-26.08-9.16,22.89A25.63,25.63,0,0,1,142.89,84L162.4,81.8Z"/><path d="M163.4,81.89a.06.06,0,0,0,.07-.1L149.33,66a21.53,21.53,0,0,0-16.08-7.17H117.39l17,8.5,8.5,4.26Z"/><path class="cls-1" d="M163.43,82.27a.48.48,0,0,1-.2,0L115.8,58.47h17.45a22,22,0,0,1,16.36,7.3l14.35,16-.18.33A.46.46,0,0,1,163.43,82.27ZM119,59.22l43.12,21.6-13-14.55a21.19,21.19,0,0,0-15.8-7Z"/><polygon points="125.89 158.46 125.89 169.39 134.39 164.51 125.89 158.46"/><path class="cls-1" d="M125.52,170V157.73l9.56,6.81Zm.75-10.85v9.55l7.42-4.27Z"/><path d="M134.39,164.51v9.1l6.1-3.83a.55.55,0,0,0,0-.91Z"/><path class="cls-1" d="M134,174.29V163.78l6.73,4.78a1,1,0,0,1,.39.79.92.92,0,0,1-.44.75Zm.75-9.06v7.7l5.53-3.46a.22.22,0,0,0,.09-.15.16.16,0,0,0-.08-.14Z"/><path d="M151.38,164.5v9.1l-6.22-3.9a.45.45,0,0,1,0-.75Z"/><path class="cls-1" d="M151.76,174.28,145,170a.82.82,0,0,1-.39-.68.81.81,0,0,1,.35-.69l6.84-4.88Zm-.75-9.05-5.66,4v.12l5.66,3.55Z"/><polygon points="159.89 158.44 159.89 169.34 151.38 164.5 159.89 158.44"/><path class="cls-1" d="M160.26,170l-9.57-5.46,9.57-6.82Zm-8.18-5.53,7.43,4.24v-9.53Z"/><path d="M219.39,75.84,194,126.59a.25.25,0,0,1-.37.09l-25.26-16.83a25.49,25.49,0,0,0-25.5-25.5L163.7,82h0Z"/><path class="cls-1" d="M193.79,127.1a.59.59,0,0,1-.34-.1l-25.43-17v-.2a25.14,25.14,0,0,0-25.13-25.13l0-.74L220,75.39l-25.68,51.36a.66.66,0,0,1-.4.33Zm-.11-.68Zm-24.91-16.77,25,16.64,25-50-71.84,8a25.91,25.91,0,0,1,21.86,25.37Z"/><circle cx="142.89" cy="109.85" r="10.62"/><path class="cls-1" d="M142.89,120.85a11,11,0,1,1,11-11A11,11,0,0,1,142.89,120.85Zm0-21.25a10.25,10.25,0,1,0,10.25,10.25A10.26,10.26,0,0,0,142.89,99.6Z"/><path d="M75.63,198.93l7.88,22.87,7.91-22.87h2.7v26h-2V213.66l.18-11.34-8,22.61H82.72l-7.92-22.5L75,213.59v11.34h-2v-26Z"/><path d="M116.08,217.66h-9.75l-2.22,7.27H102l8.28-26h1.9l8.28,26h-2.12Zm-9.16-1.91h8.57L111.2,201.8Z"/><path d="M136.06,214.11H130v10.82h-2v-26h7.13a7.25,7.25,0,0,1,5.5,2,7.73,7.73,0,0,1,2,5.63,8.14,8.14,0,0,1-1.21,4.42,6.3,6.3,0,0,1-3.27,2.63l5.41,11.05v.24h-2.18Zm-6.08-1.9h5.43a4.61,4.61,0,0,0,3.68-1.58,6.79,6.79,0,0,0-.05-8.27,5.28,5.28,0,0,0-4-1.5H130Z"/><path d="M156.78,212.11l-3,3.5v9.32h-2v-26h2v13.86l2.86-3.58,8.06-10.28h2.55l-9.07,11.57,9.76,14.43h-2.48Z"/><path d="M190.57,198.93v18.44a8.14,8.14,0,0,1-2,5.84,9,9,0,0,1-11.45,0,8.15,8.15,0,0,1-2-5.94V198.93h2v18.3q0,6.17,5.69,6.16t5.68-6V198.93Z"/><path d="M214.85,200.86h-7.4v24.07h-2V200.86H198v-1.93h16.82Z"/></svg>