<svg id="Layer_1" data-name="Layer 1" xmlns="http://www.w3.org/2000/svg" viewBox="0 0 283.46 70.87"><path d="M73.46,22.25l7.88,22.88,7.91-22.88H92v26h-2V37l.18-11.34-8,22.6H80.55l-7.92-22.5.17,11.16V48.25h-2v-26Z"/><path d="M113.91,41h-9.75l-2.22,7.26H99.82l8.28-26H110l8.28,26h-2.12Zm-9.16-1.91h8.57L109,25.13Z"/><path d="M133.89,37.43h-6.08V48.25h-2v-26h7.13a7.29,7.29,0,0,1,5.5,2,7.76,7.76,0,0,1,2,5.64,8.14,8.14,0,0,1-1.21,4.42A6.35,6.35,0,0,1,135.87,37L141.28,48v.23H139.1Zm-6.08-1.89h5.43A4.64,4.64,0,0,0,136.92,34a5.91,5.91,0,0,0,1.38-4,5.91,5.91,0,0,0-1.43-4.24,5.28,5.28,0,0,0-4-1.5h-5.06Z"/><path d="M154.61,35.43l-3,3.5v9.32h-2v-26h2V36.11l2.86-3.57,8.06-10.29h2.55L156,33.83l9.76,14.42h-2.48Z"/><path d="M188.4,22.25V40.7a8.14,8.14,0,0,1-2,5.84,9,9,0,0,1-11.45,0,8.17,8.17,0,0,1-2-5.94V22.25h2V40.56q0,6.16,5.69,6.16t5.68-6V22.25Z"/><path d="M212.68,24.18h-7.4V48.25h-2.05V24.18h-7.37V22.25h16.82Z"/></svg>