<svg id="Layer_1" data-name="Layer 1" xmlns="http://www.w3.org/2000/svg" viewBox="0 0 283.46 283.46"><path d="M166.08,136.28H115.65a.94.94,0,0,1-1-.95V110a26,26,0,0,1,7-17.85h0l.21-.23A26.24,26.24,0,0,1,167.2,110v25.12A1.13,1.13,0,0,1,166.08,136.28Zm-49.88-1.5h49.5V110a24.74,24.74,0,0,0-42.49-17.25L123,93a24.52,24.52,0,0,0-6.81,17Z"/><path d="M140.35,171.23l-26-18.54,17.19-17.26a1.07,1.07,0,0,1,1.81.54h0Zm-23.74-18.74,21.53,15.33L132,137.06Zm16-16Z"/><path d="M141.54,171.24l7-35.11a1.15,1.15,0,0,1,1.95-.59l17.1,17.1Zm8.36-34.18-6.15,30.75,21.55-15.36Z"/><path d="M141,181.85l-9.43-47.06h18.83Zm-1-12.47,1,4.83,7.58-37.92H133.36Z"/><path d="M90,127.69a1,1,0,0,1-.24,0,.94.94,0,0,1-.61-.49l-26-52,63,7a.94.94,0,0,1,.77,1.3l-3.67,9.34L123,93a24.57,24.57,0,0,0-6.81,16.93.93.93,0,0,1-.42.79L90.56,127.53A1,1,0,0,1,90,127.69ZM65.74,76.93l24.5,49,24.47-16.31a26,26,0,0,1,7.11-17.55l3.41-8.54Zm49,33Zm.26-.47h0Zm11-25.84Zm-.45-.75Z"/><path d="M115.28,136.22a1,1,0,0,1-.29-.05L90,127.85a.92.92,0,0,1-.22-1.64l25-16.62a.92.92,0,0,1,1,0,.91.91,0,0,1,.48.81v25a.91.91,0,0,1-.38.75A1,1,0,0,1,115.28,136.22Zm.18-1.47h0Zm-23.82-8,23.06,7.7V111.44Zm-1,.66h0Zm-.15-1h0Zm25.1-15.6h0Z"/><path d="M166.47,136.32l-.4-.23a.89.89,0,0,1-.37-.71V108.63l26.84,17.89v.59a.88.88,0,0,1-.59.72Zm-.1-1.55h0Zm.83-23.33v23.05l23.06-7.69Z"/><path d="M120.33,95.81,132.05,66.5l32.31,16.19L141,85.28A24.6,24.6,0,0,0,123,93Zm12.51-27.23L124.4,89.66A26,26,0,0,1,141,83.79l18.2-2Z"/><path d="M161.76,83l-.64-.25L112.28,58.29h19a22.67,22.67,0,0,1,10,2.34,22.07,22.07,0,0,1,6.65,5.07l14.57,16.24ZM118.63,59.79l39.93,20L146.83,66.71A20.62,20.62,0,0,0,140.62,62a20.84,20.84,0,0,0-9.31-2.18Z"/><path d="M123.2,170.88V157.19l10.64,7.57Zm1.5-10.78v8.18l6.36-3.65Z"/><path d="M131.7,175.15V163.24l7.31,5.21a1.3,1.3,0,0,1-.06,2.16Zm1.5-9v6.29l4.7-2.94Z"/><path d="M150.19,175.15l-7.37-4.63a1.19,1.19,0,0,1-.56-1,1.16,1.16,0,0,1,.5-1l7.43-5.3ZM144,169.49l4.69,2.95v-6.3Z"/><path d="M158.7,170.82l-10.65-6.06,10.65-7.59Zm-7.87-6.2,6.37,3.62v-8.16Z"/><path d="M191.85,127.66a1,1,0,0,1-.55-.16l-25.6-17.06V110A24.74,24.74,0,0,0,141,85.29l-.08-1.5,77.87-8.66-26,52a1.05,1.05,0,0,1-.63.52A1.24,1.24,0,0,1,191.85,127.66Zm-.44-1.22ZM167.2,109.63l24.46,16.31,24.5-49-68.77,7.65a26.28,26.28,0,0,1,19.81,25Z"/><path d="M141,121.41A11.38,11.38,0,1,1,152.33,110,11.38,11.38,0,0,1,141,121.41Zm0-21.25a9.88,9.88,0,1,0,9.88,9.88A9.89,9.89,0,0,0,141,100.16Z"/><path d="M74,198.82l7.88,22.87,7.91-22.87h2.69v26h-2V213.55l.18-11.34-8,22.61H81.12l-7.93-22.5.18,11.16v11.34h-2v-26Z"/><path d="M114.47,217.55h-9.75l-2.21,7.27h-2.12l8.28-26h1.89l8.29,26h-2.13Zm-9.16-1.91h8.57l-4.28-13.95Z"/><path d="M134.45,214h-6.07v10.82h-2v-26h7.12a7.26,7.26,0,0,1,5.51,2,7.75,7.75,0,0,1,2,5.63,8,8,0,0,1-1.22,4.42,6.25,6.25,0,0,1-3.27,2.63l5.42,11.06v.23h-2.18Zm-6.07-1.89h5.43a4.62,4.62,0,0,0,3.68-1.59,6.83,6.83,0,0,0-.05-8.27,5.29,5.29,0,0,0-4-1.5h-5.05Z"/><path d="M155.18,212l-3,3.5v9.32h-2v-26h2v13.86l2.86-3.57,8-10.29h2.56l-9.08,11.57,9.77,14.43h-2.48Z"/><path d="M189,198.82v18.44a8.12,8.12,0,0,1-2,5.84,9,9,0,0,1-11.45,0,8.15,8.15,0,0,1-2-5.94V198.82h2v18.3q0,6.16,5.7,6.16t5.68-6V198.82Z"/><path d="M213.24,200.75h-7.39v24.07h-2V200.75h-7.38v-1.93h16.82Z"/></svg>