<svg id="Layer_1" data-name="Layer 1" xmlns="http://www.w3.org/2000/svg" viewBox="0 0 283.46 283.46"><defs><style>.cls-1{fill:#221dbf;}.cls-2{fill:#f7c421;}.cls-3{fill:#c30000;}.cls-4{fill:#eee;}.cls-5{opacity:0.2;}</style></defs><rect class="cls-1" x="116.23" y="109.66" width="51" height="25.5"/><polygon class="cls-2" points="167.23 152.17 158.73 158.25 150.22 164.31 143.43 169.15 140.02 169.15 133.23 164.32 116.23 152.22 133.23 135.16 150.22 135.16 167.23 152.17"/><polygon class="cls-2" points="65.23 75.65 90.73 126.65 116.23 109.65 65.23 75.65"/><polygon class="cls-3" points="150.22 135.16 143.43 169.15 141.73 177.66 140.04 169.15 140.02 169.15 133.23 135.16 150.22 135.16"/><polygon class="cls-2" points="65.23 75.65 141.73 84.15 116.23 109.65 65.23 75.65"/><polygon class="cls-2" points="218.23 75.66 192.73 126.66 167.23 109.66 218.23 75.66"/><polygon class="cls-4" points="90.73 126.65 116.23 109.65 116.23 135.15 90.73 126.65"/><polygon class="cls-4" points="192.73 126.66 167.23 135.16 167.23 109.66 192.73 126.66"/><polygon class="cls-3" points="167.23 84.19 157.05 89.28 150.25 92.68 141.73 96.92 116.23 109.66 123.25 92.11 127.08 82.53 133.23 67.17 133.23 67.15 141.73 71.41 162.52 81.82 162.55 81.85 167.23 84.19"/><path d="M162.54,81.85,141.73,71.42l-8.5-4.26-17-8.5h15.86a21.53,21.53,0,0,1,16.08,7.17l14.35,16Z"/><polygon class="cls-1" points="124.73 158.27 124.73 169.2 133.23 164.32 124.73 158.27"/><polygon class="cls-1" points="133.23 164.32 133.23 173.41 140.03 169.15 133.23 164.32"/><polygon class="cls-1" points="150.22 164.31 150.22 173.41 143.43 169.15 150.22 164.31"/><polygon class="cls-1" points="158.73 158.25 158.73 169.15 150.22 164.31 158.73 158.25"/><polygon class="cls-2" points="218.23 75.66 167.23 109.66 141.73 84.16 162.54 81.85 162.55 81.85 218.23 75.66"/><circle class="cls-1" cx="141.73" cy="109.65" r="25.5"/><circle class="cls-4" cx="141.72" cy="109.66" r="10.62"/><g class="cls-5"><polygon points="218.23 75.66 192.73 126.66 167.23 135.16 150.22 135.16 167.23 152.17 158.73 158.25 158.73 169.16 150.22 164.31 150.22 173.41 143.43 169.16 141.73 177.66 141.73 84.16 162.54 81.85 162.55 81.85 218.23 75.66"/></g><path d="M74.8,198.44l7.88,22.88,7.91-22.88h2.7v26h-2V213.18l.18-11.34-8,22.6H81.89L74,201.94l.17,11.16v11.34h-2v-26Z"/><path d="M115.25,217.18H105.5l-2.22,7.26h-2.12l8.28-26h1.9l8.28,26H117.5Zm-9.16-1.92h8.57l-4.29-13.94Z"/><path d="M135.23,213.62h-6.08v10.82H127.1v-26h7.13a7.29,7.29,0,0,1,5.5,2,7.75,7.75,0,0,1,2,5.63,8.09,8.09,0,0,1-1.21,4.42,6.32,6.32,0,0,1-3.27,2.64l5.41,11.05v.23h-2.18Zm-6.08-1.89h5.43a4.64,4.64,0,0,0,3.68-1.58,6.8,6.8,0,0,0,0-8.28,5.28,5.28,0,0,0-4-1.5h-5.06Z"/><path d="M156,211.62l-3,3.5v9.32h-2v-26h2V212.3l2.86-3.57,8.06-10.29h2.55L157.33,210l9.77,14.43h-2.49Z"/><path d="M189.74,198.44v18.45a8.14,8.14,0,0,1-2,5.84,9,9,0,0,1-11.45,0,8.23,8.23,0,0,1-2-5.94V198.44h2v18.31c0,4.1,1.9,6.16,5.69,6.16s5.63-2,5.68-6V198.44Z"/><path d="M214,200.37h-7.4v24.07h-2.05V200.37H197.2v-1.93H214Z"/></svg>