<svg id="Layer_1" data-name="Layer 1" xmlns="http://www.w3.org/2000/svg" viewBox="0 0 283.46 283.46"><defs><style>.cls-1{fill:#221dbf;}.cls-2{fill:#f7c421;}.cls-3{fill:#c30000;}.cls-4{fill:#eee;}.cls-5{opacity:0.2;}</style></defs><rect class="cls-1" x="107.73" y="130.4" width="68" height="34"/><polygon class="cls-2" points="175.73 187.08 164.39 195.18 153.05 203.26 143.99 209.72 139.45 209.72 130.39 203.28 107.73 187.14 130.39 164.4 153.05 164.4 175.73 187.08"/><polygon class="cls-2" points="39.73 85.06 73.73 153.06 107.73 130.39 39.73 85.06"/><polygon class="cls-3" points="153.05 164.4 143.99 209.72 141.73 221.06 139.47 209.72 139.45 209.72 130.39 164.4 153.05 164.4"/><polygon class="cls-2" points="39.73 85.06 141.73 96.39 107.73 130.39 39.73 85.06"/><polygon class="cls-2" points="243.73 85.06 209.73 153.06 175.73 130.4 243.73 85.06"/><polygon class="cls-4" points="73.73 153.06 107.73 130.39 107.73 164.39 73.73 153.06"/><polygon class="cls-4" points="209.73 153.06 175.73 164.4 175.73 130.4 209.73 153.06"/><polygon class="cls-3" points="175.73 96.44 162.15 103.22 153.09 107.76 141.73 113.42 107.73 130.4 117.09 107 122.19 94.22 130.39 73.74 130.39 73.72 141.73 79.4 169.45 93.28 169.49 93.32 175.73 96.44"/><path d="M169.47,93.32l-27.74-13.9-11.34-5.68L107.73,62.4h21.14A28.74,28.74,0,0,1,150.31,72l19.14,21.32Z"/><polygon class="cls-1" points="119.06 195.21 119.06 209.79 130.39 203.27 119.06 195.21"/><polygon class="cls-1" points="130.39 203.27 130.39 215.41 139.46 209.73 130.39 203.27"/><polygon class="cls-1" points="153.05 203.26 153.05 215.4 143.99 209.72 153.05 203.26"/><polygon class="cls-1" points="164.39 195.18 164.39 209.72 153.05 203.26 164.39 195.18"/><polygon class="cls-2" points="243.73 85.06 175.73 130.4 141.73 96.4 169.47 93.32 169.49 93.32 243.73 85.06"/><circle class="cls-1" cx="141.73" cy="130.39" r="34"/><circle class="cls-4" cx="141.72" cy="130.4" r="14.17"/><g class="cls-5"><polygon points="243.73 85.06 209.73 153.06 175.73 164.4 153.05 164.4 175.73 187.08 164.39 195.18 164.39 209.74 153.05 203.26 153.05 215.4 143.99 209.74 141.73 221.06 141.73 96.4 169.47 93.32 169.49 93.32 243.73 85.06"/></g></svg>