<svg id="Layer_1" data-name="Layer 1" xmlns="http://www.w3.org/2000/svg" viewBox="0 0 283.46 283.46"><defs><style>.cls-1{fill:#fff;}</style></defs><path class="cls-1" d="M174.45,163.35H107.21a1.25,1.25,0,0,1-1.26-1.26V128.35a34.65,34.65,0,0,1,9.36-23.8h0l.28-.3A35,35,0,0,1,176,128.35v33.5A1.5,1.5,0,0,1,174.45,163.35Zm-66.5-2h66v-33a33,33,0,0,0-56.65-23l-.27.3A32.69,32.69,0,0,0,108,128.35Z"/><path class="cls-1" d="M140.15,210l-34.74-24.73,22.93-23a1.43,1.43,0,0,1,1.42-.36,1.45,1.45,0,0,1,1,1.09h0Zm-31.66-25L137.2,205.4l-8.2-41Zm21.27-21.34Z"/><path class="cls-1" d="M141.74,210l9.35-46.8a1.55,1.55,0,0,1,2.6-.79l22.8,22.8Zm11.15-45.57-8.2,41,28.72-20.48Z"/><path class="cls-1" d="M141,224.11l-12.57-62.76h25.1Zm-1.31-16.63,1.3,6.44,10.1-50.57H130.83Z"/><path class="cls-1" d="M73.06,151.89a1.24,1.24,0,0,1-.33,0,1.27,1.27,0,0,1-.81-.66L37.24,81.82l83.93,9.32a1.26,1.26,0,0,1,1,.61,1.24,1.24,0,0,1,.09,1.12l-4.9,12.47-.28.3A32.74,32.74,0,0,0,108,128.22a1.24,1.24,0,0,1-.56,1L73.76,151.68A1.27,1.27,0,0,1,73.06,151.89ZM40.67,84.21l32.67,65.34L106,127.81a34.66,34.66,0,0,1,9.48-23.39L120,93Zm65.28,44Zm.34-.62h0ZM121,93.13Zm-.6-1Z"/><path class="cls-1" d="M106.73,163.27a1,1,0,0,1-.39-.07L73.07,152.11a1.22,1.22,0,0,1-.29-2.18l33.27-22.18a1.22,1.22,0,0,1,1.25-.06,1.23,1.23,0,0,1,.65,1.08V162a1.22,1.22,0,0,1-1.22,1.23Zm.24-2h0ZM75.21,150.71,106,161V130.22Zm-1.32.88Zm-.19-1.38Zm33.46-20.79Z"/><path class="cls-1" d="M175,163.4l-.54-.31a1.15,1.15,0,0,1-.49-.94V126.48l35.78,23.85v.79a1.14,1.14,0,0,1-.79.95Zm-.14-2.06h0ZM176,130.22V161l30.74-10.25Z"/><path class="cls-1" d="M113.45,109.39l15.64-39.08,43.07,21.58-31.1,3.46a32.77,32.77,0,0,0-24,10.27Zm16.68-36.32-11.24,28.11A34.6,34.6,0,0,1,141,93.35l24.27-2.7Z"/><path class="cls-1" d="M168.7,92.31l-.85-.34L102.72,59.35h25.37a30.09,30.09,0,0,1,13.31,3.13,29.42,29.42,0,0,1,8.87,6.77l19.42,21.64Zm-57.52-31L164.43,88,148.79,70.58a27.77,27.77,0,0,0-20.7-9.23Z"/><path class="cls-1" d="M117.28,209.47V191.23l14.19,10.09Zm2-14.36V206l8.48-4.88Z"/><path class="cls-1" d="M128.61,215.18V199.29l9.76,7a1.73,1.73,0,0,1-.09,2.88Zm2-12v8.39l6.27-3.93Z"/><path class="cls-1" d="M153.27,215.17,143.44,209a1.61,1.61,0,0,1-.75-1.31,1.59,1.59,0,0,1,.67-1.34l9.91-7.07ZM145,207.63l6.26,3.92v-8.39Z"/><path class="cls-1" d="M164.61,209.4l-14.19-8.09,14.19-10.11Zm-10.48-8.27,8.48,4.83V195.08Z"/><path class="cls-1" d="M208.82,151.86a1.39,1.39,0,0,1-.74-.22L174,128.89v-.54a33,33,0,0,0-33-33l-.11-2L244.67,81.82,210,151.12a1.34,1.34,0,0,1-.85.69A1.41,1.41,0,0,1,208.82,151.86Zm-.59-1.64h0ZM176,127.82l32.61,21.73,32.68-65.34-91.71,10.2A35.05,35.05,0,0,1,176,127.82Z"/><path class="cls-1" d="M141,143.52a15.17,15.17,0,1,1,15.17-15.17A15.19,15.19,0,0,1,141,143.52Zm0-28.33a13.17,13.17,0,1,0,13.17,13.16A13.18,13.18,0,0,0,141,115.19Z"/></svg>