<?xml version="1.0" encoding="utf-8"?>
<!-- Generator: Adobe Illustrator 21.0.0, SVG Export Plug-In . SVG Version: 6.00 Build 0)  -->
<svg version="1.1" id="Layer_1" xmlns="http://www.w3.org/2000/svg" xmlns:xlink="http://www.w3.org/1999/xlink" x="0px" y="0px"
	 viewBox="0 0 200 110" style="enable-background:new 0 0 200 110;" xml:space="preserve">
<g>
	<path d="M16.5,85.5l-6.3,19.7L3.9,85.5H0v24.1h3v-9.4l-0.3-9.3L9,109.7h2.3l6.3-18.8l-0.3,9.4v9.4h3V85.5H16.5z"/>
	<path d="M51.4,85.5h-2.6L41,109.7h3.1l1.9-6.3l0.8-2.6l3.3-11l3.3,11l0.8,2.6l1.9,6.3h3.1L51.4,85.5z"/>
	<path d="M89.6,99.2c1.2-0.6,2.1-1.4,2.8-2.5c0.6-1.1,1-2.4,1-3.9c0-2.4-0.6-4.2-1.8-5.4c-1.2-1.2-3-1.8-5.4-1.8h-6.7v24.1h3v-9.8
		h4.3l4.3,9.8h3.3v-0.2L89.6,99.2z M86.2,97.3h-3.7v-9.2h3.7c2.8,0,4.2,1.6,4.2,4.7c0,1.4-0.4,2.4-1.1,3.3
		C88.4,96.9,87.4,97.3,86.2,97.3z"/>
	<path d="M121.7,96.2l7.8-10.6h-3.6l-6.5,9l-2,2.6V85.5h-3v24.1h3v-8.3l2.4-2.9l6.7,11.1h3.6L121.7,96.2z"/>
	<path d="M161.2,85.5v17c0,1.6-0.4,2.8-1,3.7c-0.7,0.8-1.8,1.2-3.4,1.2c-1.5,0-2.6-0.4-3.4-1.2c-0.7-0.8-1-2-1-3.7v-17h-3v17.2
		c0,2.3,0.7,4.2,1.9,5.4c1.3,1.3,3.1,1.9,5.5,1.9c2.3,0,4.2-0.6,5.5-2c1.3-1.3,2-3.1,2-5.3V85.5H161.2z"/>
	<path d="M184.3,85.5v2.6h6.3v21.6h3V88.1h6.3v-2.6H184.3z"/>
</g>
<path d="M46.8,100.7"/>
<path d="M46.8,100.7"/>
<path d="M134.6,8.9v22.9c-2.2,1.3-4.7,2.3-7.4,3c-2.5,0.6-5.2,1-8,1c-5.3,0-10.1-1.2-14-3.2c-0.1,0.1-0.2,0.3-0.3,0.4
	c-0.5,0.8-0.7,1.8-0.7,2.7c0,3.2,3,6,7.3,7.1c0,0.2,0,0.4,0,0.5c0,6.4-5.2,11.5-11.5,11.5c-6.4,0-11.5-5.2-11.5-11.5V43
	c4.5-1,7.7-3.9,7.7-7.2c0-1-0.3-2-0.8-2.9c-0.1-0.2-0.2-0.3-0.3-0.4c-3.9,2.1-8.9,3.3-14.3,3.3c-2.7,0-5.2-0.3-7.6-0.9
	c-2.9-0.7-5.5-1.7-7.8-3.1V8.9c0.1,4.2,6.9,7.6,15.4,7.6s15.3-3.4,15.4-7.6V8.8c0-1.8-1.2-3.4-3.2-4.7C95,4.7,97.5,5,100,5
	c2.1,0,3.8,1.7,3.8,3.8v0.1c0.1,4.2,7,7.6,15.4,7.6C127.7,16.5,134.6,13.1,134.6,8.9z"/>
</svg>
