<?xml version="1.0" encoding="utf-8"?>
<!-- Generator: Adobe Illustrator 21.0.0, SVG Export Plug-In . SVG Version: 6.00 Build 0)  -->
<svg version="1.1" id="Layer_1" xmlns="http://www.w3.org/2000/svg" xmlns:xlink="http://www.w3.org/1999/xlink" x="0px" y="0px"
	 viewBox="0 0 283.5 283.5" style="enable-background:new 0 0 283.5 283.5;" xml:space="preserve">
<g>
	<path d="M141.7,219.3c-19.7,0-35.7-16-35.7-35.7c0-0.5,0-1,0-1.5l0.2-1.9l1.8-0.4c12-2.8,20-10.1,20-18.2c0-1-0.1-2-0.4-3.1
		c-2.1,0.9-4.3,1.7-6.6,2.4c-7,2.1-15.1,3.3-23.5,3.3c-12.4,0-24-2.5-32.8-6.9l-2.2-1.1l1.1-2.3c0.1-0.2,0.2-0.5,0.3-0.7
		c-3.2-0.1-6.3-1.4-9.1-3.6c-9.1-7.2-15-24.1-15-43.2c0-5.8,0.5-11.4,1.6-16.8l1.4-7.1l3.4,6.3c4.7,8.6,21.6,14.9,40.3,14.9
		c22.5,0,41.5-8.9,41.5-19.5c0-5.1-4.4-8.9-8-11.3l-13.8-8.9l15.9,4.2c6,1.6,12.7,2.4,19.6,2.4c7.5,0,13.7,6.1,13.7,13.6
		c0,10.5,19,19.5,41.5,19.5c18.6,0,35.6-6.3,40.3-14.9l3.4-6.3l1.4,7.1c1.1,5.3,1.6,11,1.6,16.8c0,19.1-5.9,36-15,43.1
		c-2.9,2.3-6,3.5-9.2,3.6c0.1,0.2,0.2,0.5,0.3,0.7l1,2.3l-2.2,1.1c-8.7,4.5-20.3,6.9-32.7,6.9c-8.2,0-16.3-1.1-23.4-3.2l-0.6-0.2
		c-2.1-0.6-4.1-1.4-6-2.2c-0.3,1-0.4,2-0.4,3.1c0,8.1,8,15.4,20,18.2l1.8,0.4l0.2,1.9c0,0.5,0,1,0,1.5
		C177.4,203.3,161.4,219.3,141.7,219.3z M111.2,184.4c0.4,16.5,13.9,29.7,30.5,29.7c16.6,0,30.1-13.3,30.5-29.7
		c-13.3-3.7-22.1-12.7-22.1-22.8c0-2.7,0.6-5.3,1.8-7.8l1.2-2.4l2.4,1.2c2.5,1.3,5.4,2.4,8.4,3.3l0.6,0.2c6.4,1.9,13.8,2.8,21.3,2.8
		c10.4,0,20.2-1.8,27.9-5.2c-0.7-1.1-1.6-2.1-2.7-3l-18.5-16.8l21.6,12.6c3.7,2.1,7.5,1.8,11.2-1.1c7.8-6.1,13-21.8,13-39.1
		c0-3.4-0.2-6.7-0.6-9.9c-8,7.7-23.4,12.6-40.9,12.6c-26.2,0-46.7-10.8-46.7-24.7c0-4.6-3.8-8.4-8.4-8.4c-3.9,0-7.8-0.3-11.6-0.8
		c2.1,2.8,3.2,5.9,3.2,9.2c0,13.8-20.5,24.7-46.7,24.7c-17.5,0-32.9-4.9-40.9-12.6c-0.4,3.2-0.6,6.6-0.6,9.9c0,17.2,5.2,32.9,13,39
		c3.6,2.9,7.4,3.3,11.1,1.2l18.9-10.7l-15.8,14.9c-1,1-1.9,1.9-2.6,3c7.6,3.3,17.6,5.2,27.9,5.2c7.8,0,15.4-1.1,22-3.1
		c3.1-0.9,5.9-2,8.4-3.3l2.4-1.3l1.1,2.5c1.2,2.5,1.7,5.2,1.7,7.8C133.3,171.6,124.5,180.6,111.2,184.4z"/>
</g>
</svg>
