<svg id="Layer_1" data-name="Layer 1" xmlns="http://www.w3.org/2000/svg" viewBox="0 0 800 531"><defs><style>.cls-1{fill:#0099b2;}.cls-2{fill:#d3d5d7;}.cls-3{fill:#5ea9d1;}.cls-4{fill:#72bcdb;}.cls-5{fill:#d2d5d7;}.cls-6{fill:#145265;}.cls-7{fill:#fdf235;}.cls-8{fill:#f9ca25;}.cls-9{fill:#fcfcfc;}.cls-10{fill:#e0cf50;}.cls-11{fill:#fe0d0e;}.cls-12{fill:#0bfd13;}.cls-13{fill:#fe14e3;}.cls-14{fill:#fdfdfd;}.cls-15{fill:#0aa60c;}.cls-16{fill:#fde0fc;}</style></defs><path class="cls-1" d="M399.5,530.91Q202,530.91,4.59,531C.84,531,0,530.16,0,526.41Q.17,265.5,0,4.59C0,.84.84,0,4.59,0Q400,.15,795.41,0c3.75,0,4.59.84,4.59,4.59q-.16,260.91,0,521.82c0,3.75-.84,4.59-4.59,4.59Q597.46,530.84,399.5,530.91ZM655.31,149.75c-2.47-5.57-6.35-10-10.82-14,3,5.13,5.58,10.58,10.3,14.47,0,2.85,2.47,4.2,3.86,6.2,1.74,2.49,3.24,4.68-1,6.45-2.79,1.17-2,2.73.36,3.59a68.59,68.59,0,0,1,9.94,4.46c2.7,1.53,3.19-.11,2.9-2.36-.45-3.45-1-6.89-1.46-10.34-.34-2.5-1.37-3.26-3.43-1.42-2.39,2.14-3.84,1.4-5.49-1.13C659.09,153.48,657.85,151,655.31,149.75ZM19.19,377.92l0,0c-.43,1.63.36,2.86,1.26,4.12a85.88,85.88,0,0,0,31,26.58,82.7,82.7,0,0,0,44.27,9.3A83.58,83.58,0,0,0,145.13,398,86,86,0,0,0,173,354.2a81.74,81.74,0,0,0-2.5-51.86c-8.12-21.15-22.45-36.91-43.21-47.13-16.58-8.16-33.77-10.14-51.39-7.39-20,3.11-36.89,12.75-50.24,28.1A82.56,82.56,0,0,0,5,326.56c-.82,14,.92,27.57,6.88,40.27C13.7,370.74,14.16,376,19.19,377.92ZM282,33.17l0,0c.5-1.39-.33-2.25-1.3-2.94-9.83-7-20.51-12.5-32.32-14.81-17.24-3.36-34.28-2.46-50.86,4.37a85.55,85.55,0,0,0-53.37,85.42,82.18,82.18,0,0,0,15.34,43.07c9.4,13,21.43,23.21,36.62,29.46,14.92,6.14,30.11,9.07,46.2,6.32,26.05-4.46,46.36-17.9,60.47-40,12.71-19.89,15.19-42.07,10.31-64.8-3.49-16.21-11.91-30.15-23.85-41.72C287.31,35.73,285.76,32.35,282,33.17ZM408.74,223.85A143.8,143.8,0,0,0,264.48,368.14c.09,79.94,63.09,144.3,144.47,144.49,80.73.18,144.4-64.13,144.69-144.18A143.92,143.92,0,0,0,408.74,223.85ZM691.67,511.79a165.34,165.34,0,0,1,13.26-17.12c6.79-7.35,13.57-14.71,24.17-16.27,8.54-1.26,16.94.29,25,2.74,10.8,3.26,21.38,7.32,31,13.47,2.08,1.33,3,1.15,2.92-1.45a13.11,13.11,0,0,0-.5-3.94c-7.22-18.9-20.06-31.79-40-36.79-3.05-.76-6.4-.68-8.94-2.78-3.16-2.62-.26-5.91-.47-8.88a110.13,110.13,0,0,1,2.58-30.68c.84-3.93,3.06-7.23,3.5-11.32a191.85,191.85,0,0,1,6.81-32.56c3.45-12,6.32-24,6.09-36.66a22.27,22.27,0,0,1,3.27-11.8c5.39-9.31,9.52-19.35,16.13-28,2.31-3,1.5-5.12-1.53-7.4a38,38,0,0,0-17.77-7.27c-3.73-.53-5.51-2.27-6.36-5.81a192.77,192.77,0,0,0-8-26,214,214,0,0,0-29.8-52c-5.77-7.48-7.73-7.91-13.83-.89-7.57,8.69-16.26,13.64-28,8.27-2.11-1-4.48-1.37-6.55-2.39-2.86-1.4-4.28-.91-4.73,2.41-1.19,8.7-3.22,17.34-3.64,26.07-.86,17.74-4,35.34-3.23,53.16.1,2.55-.44,5.17-3.4,6-3.94,1.1-7,3.77-10.35,5.81a27.25,27.25,0,0,0-9.09,9c-2.29,3.78-1.41,5.58,2.76,6.54s8.28.65,12.43.75c8.24.2,9.87,1.69,10.64,9.75,1,10.78,5.33,20.41,10.2,29.91,5.45,10.64,12.92,20,18.55,30.53,4.66,8.73,9.33,17.43,14.66,25.78,5.5,8.63,12.42,16.36,16.25,26,2.5,6.31,4.54,13,8.11,18.64,2.47,3.93,1.27,5-1.75,6.62-1.75.94-3.32,2.29-5.15,3C697.05,464.2,687.79,490.26,691.67,511.79ZM636.4,86.29c-10.68-2.63-19.48-.43-27.36,6.95-2.23,2.09-2,7.47-6.47,6.25-3.23-.88-6-3.43-9-5.25-.28-.17-.46-.49-.73-.68-10.29-7.2-17.55-17.52-26.64-26-7-6.52-12.3-15.12-20.49-20.07-10.23-6.18-14.32-16.24-19-26-3.36-7.06-5.56-8.26-12.06-3.53-1.87,1.36-4.13,2.57-5.3,4.42-1.86,3-4.06,3-6.81,2-8.48-3.09-17.36-4.37-26.17-6-12.35-2.35-24.66-3-37.05-.34-2.95.64-4.58,1.31-3.42,5.13,3.6,11.86,1.89,16.3-8.36,23.7-2.39,1.73-3.7,2.73-.54,5.47C440.47,64,454.07,75.37,469,85c3,1.92,4.28,3.92,4,7.66-.32,4.42-.66,9,.66,13.39.44,1.47.68,3,2.35,3.55,2.08.67,3-1.07,4-2.26a45.65,45.65,0,0,0,5.39-7.14c2.23-4,4.9-3.58,8.31-1.81,4.73,2.45,9.72,4.56,15.07,4.83,19.73,1,39.5,2.81,59.2,2.27,9.58-.26,18.35,2.29,27.53,3,4.57.33,5.88,2.42,5.9,6.91,0,8.92,3,16.85,9.7,23.16,1.13,1.06,2.28,2.39,3.77,1.91s.79-2.32.78-3.53C615.53,117.41,623.43,101.25,636.4,86.29ZM590.06,223c-14.7,18.84-15.75,20.68-18.08,43.64-3.79,37.12-2.68,74.51-3.06,111.81,0,2.3.85,4.11,2.71,4.92,3.21,1.41,3.49,3.77,3.47,6.8-.16,23.81-1.5,47.62-.06,71.44.63,10.27,3.16,20.85.1,30.78-2.82,9.18.28,14.94,6.87,20.18,2.21,1.76,4.44,3.47,6.76,5.08,3.25,2.26,6.1,1.88,8.72-1.28,4.27-5.17,3.85-11.28,3.23-17.16-2.43-23-3-46.14-4.63-69.2C594.67,409.8,594,389.5,593,369.22c-1.59-32.25-4.48-64.46-3.63-96.78C589.77,256.29,590,240.16,590.06,223Zm-365.2,20.11-1.54.11c-2.13,19-4.64,38-3.15,57.1.66,8.51,2.52,17.47,8.73,24,4.6,4.8,4.91,10,5,15.95.49,31.63.44,63.26-2.94,94.75-2.55,23.69-2.27,47.54-4.84,71.19-.51,4.78,1.18,7.1,5.62,8.19a28.41,28.41,0,0,0,15.7-.16c3.45-1.07,4.67-2.77,4.6-6.43-.37-17.65-1.81-35.22-3.2-52.8-3.06-38.84-5.84-77.69-4.58-116.69.16-5.17,1.37-9.83,4.93-13.74s5.29-8.64,6.8-13.64c3.44-11.33,2-22.79,1.44-34.22-.67-13-1.63-25.89-2.47-38.83a45.64,45.64,0,0,0-3.06,15.61c-.35,7-.66,14-1,20.95-.07,1.33-.12,3.1-1.74,3.11-1.88,0-1.36-1.94-1.45-3.14-.41-5.81-.65-11.63-1.13-17.43-.57-6.83-.19-13.78-2.59-20.47a14.37,14.37,0,0,0-1,4.58c-.67,11-1.3,21.91-2,32.87-.08,1.26.32,3-1.6,3.09s-1.74-1.72-1.81-2.95c-.26-4-.32-8-.58-12-.54-8.33-.71-16.7-3.42-24.92q-1.83,20.21-3.68,40.41l-1.67,0ZM346.31,41.79c2.87,1.58,4.6,1.05,6.31.82l21.17-2.8c1.24-.17,3-1.06,3.1,1.06.48,7.74,3.91,3.91,6.83,1.79,2.5-1.82,4.89-3.81,7.46-5.83-3.85-3.71-9-3.67-12.81-6.29-1.2-.82-2.54-.14-2.31,1.38.94,6.3-3.45,5.76-7.43,6.19A146.69,146.69,0,0,0,346.31,41.79ZM151,230.06l1.38.7c3.32-7.3,6.76-14.54,9.89-21.92,1.43-3.38,2.47-6.34,6.92-3.39,1.8,1.2,2.83.14,2.69-1.86-.27-3.8-.56-7.61-1-11.4-.26-2.33-1.8-3-3.39-1.33-2.47,2.57-5.62,4.1-8.41,6.17-1.91,1.41-2.71,3-.18,4,4.66,1.88,3,4.39,1.46,7.42A182.86,182.86,0,0,0,151,230.06Z" transform="translate(0 0)"/><path class="cls-2" d="M408.74,223.85a143.92,143.92,0,0,1,144.9,144.6c-.29,80.05-64,144.36-144.69,144.18-81.38-.19-144.38-64.55-144.47-144.49A143.8,143.8,0,0,1,408.74,223.85ZM308.1,409.1c-.69.9-1.34,1.84-2.08,2.69-1.36,1.57-3.59,3.08-2.51,5.32s2.79,4.17,5.79,3.74l0,2A.82.82,0,0,0,310,424l7,.07a2.09,2.09,0,0,1,0,.56c.55,1.72.68,3.76,1.72,5.1,6.47,8.38,13.24,16.45,21.59,23.15a113.47,113.47,0,0,0,28.43,16.86c14.76,6,30.37,7.82,46.26,7.2a10.56,10.56,0,0,0,2.11,2c2.38,1.26,2.86,6,5.11,5.17,3-1.06,2.21-5.33,2.95-8.26,11-1.28,21.25-4.84,31.2-9.54a105.76,105.76,0,0,0,43.93-38.4A103,103,0,0,0,515.54,391c3.56-18.2,3.74-36.15-2.38-53.88.12-1.47.34-2.95.36-4.43.13-10.14,4.7-20.86-3.89-29.88a1.69,1.69,0,0,1-.21-1.39c1-3.58-1.6-3.35-3.74-3.49-4.38-.3-8.5,1.28-12.75,1.88a11,11,0,0,0-1.29-2.61c-8.06-8.88-16.86-16.88-27.3-22.95-9.22-5.36-18.95-9.87-29.31-11.94-11.94-2.38-24.16-4.35-36.46-2.26-6.82,1.16-14,.76-20.35,4a2.83,2.83,0,0,0-2.54,1.29,5.71,5.71,0,0,0-3.88.26,102.94,102.94,0,0,0-27.43,14.77,114.82,114.82,0,0,0-35.1,43.6c-2.67,5.69-5.75,11.65-5.21,18.42a2.76,2.76,0,0,1-2.95,1.4c-5.53-5.49-12.37-9.24-18.51-13.93-2.14-1.64-2.46.43-3.34,1.32-1.13,1.14-2.06,2.56-.11,3.65,5.9,3.28,10.42,8.63,16.79,11.2.07,2.34-1.79,3.13-3.42,3.77-3.94,1.55-6.06,3.41-2.26,7.32a7.27,7.27,0,0,1,1.38,2.63c1.58,4.26,4.24,5.59,8.35,3.19l.18,6.27c-3.07,3.93-5.29,7.78.91,10.94A88.33,88.33,0,0,0,308.1,409.1Z" transform="translate(0 0)"/><path class="cls-3" d="M691.67,511.79c-3.88-21.53,5.38-47.59,25.1-55.48,1.83-.73,3.4-2.08,5.15-3,3-1.61,4.22-2.69,1.75-6.62-3.57-5.67-5.61-12.33-8.11-18.64-3.83-9.69-10.75-17.42-16.25-26-5.33-8.35-10-17.05-14.66-25.78-5.63-10.5-13.1-19.89-18.55-30.53-4.87-9.5-9.17-19.13-10.2-29.91-.77-8.06-2.4-9.55-10.64-9.75-4.15-.1-8.31.21-12.43-.75s-5.05-2.76-2.76-6.54a27.25,27.25,0,0,1,9.09-9c3.36-2,6.41-4.71,10.35-5.81,3-.83,3.5-3.45,3.4-6-.73-17.82,2.37-35.42,3.23-53.16.42-8.73,2.45-17.37,3.64-26.07.45-3.32,1.87-3.81,4.73-2.41,2.07,1,4.44,1.43,6.55,2.39,11.77,5.37,20.46.42,28-8.27,6.1-7,8.06-6.59,13.83.89a214,214,0,0,1,29.8,52,192.77,192.77,0,0,1,8,26c.85,3.54,2.63,5.28,6.36,5.81a38,38,0,0,1,17.77,7.27c3,2.28,3.84,4.39,1.53,7.4-6.61,8.62-10.74,18.66-16.13,28a22.27,22.27,0,0,0-3.27,11.8c.23,12.62-2.64,24.61-6.09,36.66a191.85,191.85,0,0,0-6.81,32.56c-.44,4.09-2.66,7.39-3.5,11.32a110.13,110.13,0,0,0-2.58,30.68c.21,3-2.69,6.26.47,8.88,2.54,2.1,5.89,2,8.94,2.78,20,5,32.82,17.89,40,36.79a13.11,13.11,0,0,1,.5,3.94c.12,2.6-.84,2.78-2.92,1.45-9.59-6.15-20.17-10.21-31-13.47-8.07-2.45-16.47-4-25-2.74-10.6,1.56-17.38,8.92-24.17,16.27A165.34,165.34,0,0,0,691.67,511.79ZM722,295.93c.67,1.68-1.4,4.67,2.33,4.89,1.45.08,2.56-.11,2.6-2,.09-4.2-3.33-1.91-5-2.8a17.68,17.68,0,0,0,.09-3c-.41-2.84-2.64-3.69-5-4s-3.66,1.31-4.55,3.2c-1.1,2.33.59,3.47,2,5C717.84,301.06,719.36,295.56,722,295.93Zm-18.71,18.16a6.32,6.32,0,0,1-1.87.52c-2.36-.11-2.87,1.2-2.44,3.13.49,2.21,2.51,1.65,3.6,1.25,2.71-1,1.37-3.09.79-4.87.76-.32,1.55-.59,2.28-1,2.12-1.11,3.42-2.73,2.51-5.23a5.86,5.86,0,0,0-5.16-3.83c-2.34-.23-3.34,1.87-4.06,3.59-.95,2.27,0,4.22,2.06,5.52A12.37,12.37,0,0,0,703.28,314.09Zm14.48-49.52c-7.46-.9-12.93,4.27-19.93,3.74-6.37-.48-12.72-2.06-19.15-1.78C693.67,274.37,706.25,275.87,717.76,264.57Zm-8.93-31.51a6.51,6.51,0,0,0-6.35-6.91c-3,0-6.64,3.49-6.47,6.44.22,3.89,2.42,6.15,6.35,6.3S708.71,237.26,708.83,233.06Zm6.46,91c2.23-.29,4.81-.64,4.8-3.3s-2.34-3.93-4.82-4a4.16,4.16,0,0,0-4.44,3.79C710.61,323.44,713.2,323.7,715.29,324.1Zm-12.57-33.19c-2.15.69-4.56,1.36-4.19,4.09a3.77,3.77,0,0,0,4.37,3.21c2.3-.28,5.05-.94,4.76-3.92C707.41,291.81,704.82,291.41,702.72,290.91Zm24.5,14.26c-1.88.32-3,1.36-2.73,3.34s1.41,3.85,3.74,3.79c1.88-.05,2.84-1.46,2.78-3.39C730.94,306.49,729.41,305.51,727.22,305.17Zm-7.32,2.09a3.48,3.48,0,0,0-3.68-3c-2,0-3.27,1.4-3.12,3.68s1.33,3.45,3.5,3.24C718.62,311,719.93,309.77,719.9,307.26Z" transform="translate(0 0)"/><path class="cls-4" d="M636.4,86.29c-13,15-20.87,31.12-20.69,50.59,0,1.21.84,3-.78,3.53s-2.64-.85-3.77-1.91c-6.65-6.31-9.66-14.24-9.7-23.16,0-4.49-1.33-6.58-5.9-6.91-9.18-.67-17.95-3.22-27.53-3-19.7.54-39.47-1.23-59.2-2.27-5.35-.27-10.34-2.38-15.07-4.83-3.41-1.77-6.08-2.2-8.31,1.81a45.65,45.65,0,0,1-5.39,7.14c-1,1.19-1.95,2.93-4,2.26-1.67-.55-1.91-2.08-2.35-3.55-1.32-4.41-1-9-.66-13.39.26-3.74-1-5.74-4-7.66-14.93-9.61-28.53-21-41.92-32.58-3.16-2.74-1.85-3.74.54-5.47,10.25-7.4,12-11.84,8.36-23.7-1.16-3.82.47-4.49,3.42-5.13,12.39-2.69,24.7-2,37.05.34,8.81,1.68,17.69,3,26.17,6,2.75,1,4.95.93,6.81-2,1.17-1.85,3.43-3.06,5.3-4.42,6.5-4.73,8.7-3.53,12.06,3.53,4.63,9.72,8.72,19.78,19,26,8.19,4.95,13.48,13.55,20.49,20.07,9.09,8.45,16.35,18.77,26.64,26,.27.19.45.51.73.68,3,1.82,5.74,4.37,9,5.25,4.46,1.22,4.24-4.16,6.47-6.25C616.92,85.86,625.72,83.66,636.4,86.29ZM521.94,54c.52,1.74-1.2,4.72,2.61,4.64,1.57,0,2.52-.6,2.38-2.36-.27-3.38-2.91-1.71-4.55-2.15-.16,0-.32,0-.49-.08,0-1.29.33-2.71-.09-3.85-1.1-2.93-3.67-3.77-6.45-3.16-2.6.57-3.7,2.68-3.14,5.25.67,3,2.92,3.78,5.68,3.15A35.51,35.51,0,0,0,521.94,54ZM473.36,66.23c10.43-3.88,17.1-15.45,13.18-24.2C485.28,52.12,480,59.13,473.36,66.23Zm35,1.26c-.06-3.68-2.61-4.54-5.05-4.7-2.73-.17-4.9,1.42-4.84,4.42,0,2.79,2.24,4.13,4.72,4.09S508.1,70.32,508.36,67.49ZM467.64,39.06c-.66-2.61-2.25-4.6-5-4.48s-4.27,2.43-4.21,5.13a3.86,3.86,0,0,0,4.23,3.92C465.23,43.5,467.32,42.16,467.64,39.06Zm47.52,43.18c2.74,0,4.74-1.2,4.72-3.66a4.6,4.6,0,0,0-9.18.15C510.82,81.05,512.86,82.34,515.16,82.24Zm-12-26.18c1.94-.34,4.55-.73,4.46-3.4s-2.48-3.91-4.92-4a4,4,0,0,0-4.35,3.92C498.34,55.15,500.53,56,503.17,56.06ZM516,69.38c2.42,0,3.71-1.24,3.75-3.59a3.5,3.5,0,0,0-3.1-3.8c-2.5-.32-3.39,1.53-3.5,3.7C513,67.68,513.61,69.26,516,69.38Zm12,.67c1.86-.15,3.16-.75,3.16-2.93,0-2.48-1.65-3.64-3.6-3.94a2.67,2.67,0,0,0-3.12,2.95A3.73,3.73,0,0,0,527.92,70.05ZM504,75.1c.24-1.75-.71-2.32-2.28-2.25-1.24.06-2.74-.29-2.93,1.65s.74,2.64,2.58,2.58C502.79,77,504.07,77,504,75.1Z" transform="translate(0 0)"/><path class="cls-5" d="M590.06,223c0,17.12-.29,33.25-.72,49.4-.85,32.32,2,64.53,3.63,96.78,1,20.28,1.7,40.58,3.12,60.83,1.63,23.06,2.2,46.19,4.63,69.2.62,5.88,1,12-3.23,17.16-2.62,3.16-5.47,3.54-8.72,1.28-2.32-1.61-4.55-3.32-6.76-5.08-6.59-5.24-9.69-11-6.87-20.18,3.06-9.93.53-20.51-.1-30.78-1.44-23.82-.1-47.63.06-71.44,0-3-.26-5.39-3.47-6.8-1.86-.81-2.73-2.62-2.71-4.92.38-37.3-.73-74.69,3.06-111.81C574.31,243.72,575.36,241.88,590.06,223Z" transform="translate(0 0)"/><path class="cls-5" d="M224.86,243.15l3.39,34.44,1.67,0q1.85-20.21,3.68-40.41c2.71,8.22,2.88,16.59,3.42,24.92.26,4,.32,8,.58,12,.07,1.23-.09,3,1.81,2.95s1.52-1.83,1.6-3.09c.65-11,1.28-21.92,2-32.87a14.37,14.37,0,0,1,1-4.58c2.4,6.69,2,13.64,2.59,20.47.48,5.8.72,11.62,1.13,17.43.09,1.2-.43,3.14,1.45,3.14,1.62,0,1.67-1.78,1.74-3.11.35-7,.66-14,1-20.95A45.64,45.64,0,0,1,255,237.89c.84,12.94,1.8,25.88,2.47,38.83.6,11.43,2,22.89-1.44,34.22-1.51,5-3.25,9.75-6.8,13.64s-4.77,8.57-4.93,13.74c-1.26,39,1.52,77.85,4.58,116.69,1.39,17.58,2.83,35.15,3.2,52.8.07,3.66-1.15,5.36-4.6,6.43a28.41,28.41,0,0,1-15.7.16c-4.44-1.09-6.13-3.41-5.62-8.19,2.57-23.65,2.29-47.5,4.84-71.19,3.38-31.49,3.43-63.12,2.94-94.75-.09-5.91-.4-11.15-5-15.95-6.21-6.49-8.07-15.45-8.73-24-1.49-19.12,1-38.13,3.15-57.1Z" transform="translate(0 0)"/><path class="cls-6" d="M282,33.17c3.79-.82,5.34,2.56,7.27,4.43,11.94,11.57,20.36,25.51,23.85,41.72,4.88,22.73,2.4,44.91-10.31,64.8-14.11,22.07-34.42,35.51-60.47,40-16.09,2.75-31.28-.18-46.2-6.32-15.19-6.25-27.22-16.45-36.62-29.46a82.18,82.18,0,0,1-15.34-43.07,85.55,85.55,0,0,1,53.37-85.42c16.58-6.83,33.62-7.73,50.86-4.37,11.81,2.31,22.49,7.82,32.32,14.81,1,.69,1.8,1.55,1.29,2.94a16.55,16.55,0,0,1-3.1-1.43,79.17,79.17,0,0,0-44.67-16.09c-27.38-1.17-50,8.87-68.1,29.43C154,58.92,147.79,75.23,146.26,93.32a78.61,78.61,0,0,0,12.82,50.78c13.59,20.55,32.67,33.89,57.65,37.54,28.8,4.21,53.56-4.47,73.77-24.87,9.14-9.23,15.3-20.72,19.16-33.59,7.88-26.29,3-50-11.78-72.44C293.45,44,287,39.24,282,33.17Z" transform="translate(0 0)"/><path class="cls-6" d="M19.19,377.92c-5-1.95-5.49-7.18-7.32-11.09-6-12.7-7.7-26.29-6.88-40.27a82.56,82.56,0,0,1,20.7-50.64c13.35-15.35,30.29-25,50.24-28.1,17.62-2.75,34.81-.77,51.39,7.39,20.76,10.22,35.09,26,43.21,47.13A81.74,81.74,0,0,1,173,354.2,86,86,0,0,1,145.13,398,83.58,83.58,0,0,1,95.7,417.89a82.7,82.7,0,0,1-44.27-9.3,85.88,85.88,0,0,1-31-26.58c-.9-1.26-1.69-2.49-1.27-4.12a47.93,47.93,0,0,1,4.74,4.94,77.67,77.67,0,0,0,39.48,28.65c23.91,7.83,47.11,5.76,69.08-7.37,25.39-15.18,39.21-37.61,41.13-66.8,1.63-24.7-6.59-46.09-24.3-63.93-17-17.16-37.79-25.57-61.37-24.83-28.1.88-51.33,13.4-67,36.93C6.61,306.93,2.4,330.69,10.19,356,12.54,363.64,16.09,370.66,19.19,377.92Z" transform="translate(0 0)"/><path class="cls-6" d="M346.31,41.79a146.69,146.69,0,0,1,22.32-3.68c4-.43,8.37.11,7.43-6.19-.23-1.52,1.11-2.2,2.31-1.38,3.85,2.62,9,2.58,12.81,6.29-2.57,2-5,4-7.46,5.83-2.92,2.12-6.35,6-6.83-1.79-.14-2.12-1.86-1.23-3.1-1.06l-21.17,2.8C350.91,42.84,349.18,43.37,346.31,41.79Z" transform="translate(0 0)"/><path class="cls-6" d="M151,230.06a182.86,182.86,0,0,1,9.37-21.61c1.54-3,3.2-5.54-1.46-7.42-2.53-1-1.73-2.59.18-4,2.79-2.07,5.94-3.6,8.41-6.17,1.59-1.65,3.13-1,3.39,1.33.43,3.79.72,7.6,1,11.4.14,2-.89,3.06-2.69,1.86-4.45-2.95-5.49,0-6.92,3.39-3.13,7.38-6.57,14.62-9.89,21.92Z" transform="translate(0 0)"/><path class="cls-6" d="M655.31,149.74c2.54,1.25,3.78,3.74,5.2,5.9,1.65,2.53,3.1,3.27,5.49,1.13,2.06-1.84,3.09-1.08,3.43,1.42.46,3.45,1,6.89,1.46,10.34.29,2.25-.2,3.89-2.9,2.36a68.59,68.59,0,0,0-9.94-4.46c-2.33-.86-3.15-2.42-.36-3.59,4.2-1.77,2.7-4,1-6.45-1.39-2-3.83-3.35-3.86-6.2C655,150,655.13,149.88,655.31,149.74Z" transform="translate(0 0)"/><path class="cls-6" d="M654.79,150.19c-4.72-3.89-7.28-9.34-10.3-14.47,4.47,4,8.35,8.46,10.82,14A5.27,5.27,0,0,0,654.79,150.19Z" transform="translate(0 0)"/><path class="cls-3" d="M492.93,299.8c4.25-.6,8.37-2.18,12.75-1.88,2.14.14,4.73-.09,3.74,3.49a1.69,1.69,0,0,0,.21,1.39c8.59,9,4,19.74,3.89,29.88,0,1.48-.24,3-.36,4.43q-.63,2.42-1.24,4.83l-.29,1c-.09.63-.19,1.25-.28,1.88a9.89,9.89,0,0,0-2.37,5.39,54.88,54.88,0,0,1-6.54,17.15c-3.61,6.45-5.33,11.45-.12,18.25,4.68,6.13,2.91,8.23-4.62,10.7-7.69,2.51-16,3.87-22.33,9.42-5.84,5.13-11.55,10.25-18.27,14.33-7.34,4.46-13.81,10.42-21.29,14.58-7.3,4.06-13.1,9.5-18.57,15.52-1.93,2.12-1.76,4.13.46,6,5.12,4.38,7.46,10,7.52,16.72l0,2.9c-.74,2.93.05,7.2-2.95,8.26-2.25.79-2.73-3.91-5.11-5.17a10.56,10.56,0,0,1-2.11-2c-.67-1.73-2.64-2-3.71-3.26-8.3-8.4-18.82-12.54-29.9-15.62-1.46-.41-3.9.81-4.21-1.4-.27-1.87,1.73-3,3.32-4,7.13-4.37,14.89-5.37,23-4.27,1.65.22,3.45,1,4.14-1.29,2.1-7,5.77-13.43,6.67-20.77,2-.94,1.32-2.79,1.4-4.32.15-3.27.19-6.55.28-9.82a189.44,189.44,0,0,0,6.13-24c2.26-11.17,3.51-22.76,10.88-32.18,3.52-4.51,2.71-8-1.75-11.21a17.3,17.3,0,0,1-3.08-3.25c-3.1-3.77-2.6-5.11,2.3-6.12,4.38-.9,8.57.51,12.79,1.29,2.31.42,4.53.53,5.95-1.37,5.6-7.49,13.54-12.64,19.51-19.78,5.51-6.6,11.07-13.39,20.39-14.91Zm-30,91c.43,1.62-1.22,4.12,1.9,4.63,2.2.36,2.55-1.48,2.52-2.74-.08-3.63-2.64-2-4.47-1.83a4,4,0,0,1-.37-1.25c.14-3-1.39-4.85-4.13-5.19-2.4-.3-3.88,1.38-4.48,3.71s0,4.51,1.94,5.61c2.63,1.46,4.65.11,6-2.44C462,391,462.58,391,463,390.81ZM450,369a6.36,6.36,0,0,1-2.21-.88c-1.72-1.68-3-1.42-4.44.39-2,2.5-2.27,5.19-.71,7.78,1.09,1.8,3.07,1.57,4.89.72,3.83-1.78,2.77-5,2.42-8.05,2.61.15,4.84-.2,5-3.55.07-1.75-1.29-1.86-2.31-1.74-3.11.35-2.17,3-2.49,4.86A3.62,3.62,0,0,1,450,369Zm16.3-27c3.45,10.89,9.74,16.12,19,15.94C477.91,353.8,470.51,349.79,466.25,342Zm1.8,38.85c.17,1.73.3,4.16,3.37,3.91,2.76-.22,3.82-2.59,4.11-4.84a3.46,3.46,0,0,0-3.4-4.06C469.47,375.83,468,377.58,468.05,380.85Zm30.65-50.17c-1.51,2.5-3,4.53-5.53,5.39l5.27,5.7a12.85,12.85,0,0,1,5.76-5.37C502.24,334.72,499.08,334.31,498.7,330.68Zm-51.5,55c-.47-1.48-.14-4-3.07-3.8-3.12.19-4,2.54-4.12,5.15a3.34,3.34,0,0,0,3.56,3.82C446.78,390.84,447,388.39,447.2,385.66Zm16.42-9.32c-.6-2.32-1.87-3.69-4.24-3.61-2.05.06-3.57.81-3.53,3.22,0,2.75,1.82,4,4.19,3.83A4,4,0,0,0,463.62,376.34Zm3.16-11c-.6-2.19-2.23-2.72-4.21-2.47-1.67.21-3.48.56-3.38,2.8s1.86,3.07,3.82,3A3.68,3.68,0,0,0,466.78,365.38Z" transform="translate(0 0)"/><path class="cls-5" d="M489.16,300.6c-9.32,1.52-14.88,8.31-20.39,14.91-6,7.14-13.91,12.29-19.51,19.78-1.42,1.9-3.64,1.79-5.95,1.37-4.22-.78-8.41-2.19-12.79-1.29-4.9,1-5.4,2.35-2.3,6.12a17.3,17.3,0,0,0,3.08,3.25c4.46,3.19,5.27,6.7,1.75,11.21-7.37,9.42-8.62,21-10.88,32.18a188.87,188.87,0,0,1-6.13,24q-.07-19.38-.16-38.77c0-1.52,0-3.1,1.25-4.15,3-2.54,1.51-4-1-5.55-1.56-.92-2.94-2.13-4.41-3.2-2.17-1.57-4.08-2.22-5.48,1-.71,1.66-1.73,3.26-3.93,3.29,0-.62-.09-1.24-.14-1.86.71-2.26,1.74-5.2,4.23-4.82,7.39,1.12,7.55-3,7-8.29a6.11,6.11,0,0,1,.64-3.33c1.42-2.72.25-4.29-2.07-5.53-.36-8.72-5.77-2.06-9-2.9V325.22c1.78,1.26,4-3.05,5.75.58.71,1.49,2.42,1.69,3.85.63,1.1-.81,1.93-2,1.13-3.39s-1.93-2.53-3.61-1.72c-2.94,1.43-2.79-.64-3-2.41,3.89.88,6.68.17,6-4.77,1.76.34,2.8.82,3.52,1.8.92,1.27,2,2.59,3.66,1.62a2.53,2.53,0,0,0,.86-3.87c-.77-1.19-.44-2.81.31-3.17,3.75-1.84,2.93-5.5,3.81-8.49.3-1-1.67-10.75-2.4-11.51a5.94,5.94,0,0,0-.77-.64c-3.45-2.52-3.45-2.52-2-7.28.64.72,1.43,1.21,1.62,1.88.78,2.73,2.53,4.09,5.19,3.16s1.58-3.23,1.6-5.41c0-3.19-4.56-6.08-.54-9.6.79-.7-.42-2.54-1.7-3.19-1.71-.87-3.6-1.17-5.13.26a3.45,3.45,0,0,0-.4,4.95c.8,1.1,1.59,1.94.22,3.3-1.18,1.18-2,.69-2.89-.12-2.22-2-4.7-1.66-7.44-.29.2-1.05.23-1.54.38-2,.52-1.52,1.93-1,3-1.18a2.7,2.7,0,0,0,2.33-2.78c.14-1.3-.45-3-1.36-2.89-3.06.37-5-2.11-7.57-2.52-4.68-.74-7.55,1.62-8.53,6.24-.26,1.24-1.46,3.43-1.85,2.26-1.21-3.59-4.88-2.56-6.64-4.61-2.06-2.42-4.07-2.73-6.05.08a2.9,2.9,0,0,1-3.43,1.22,5.67,5.67,0,0,0-5.38,2c-3.51,4-6.05,3.11-8.49-.87.07-2.67,2.36-2.35,4-2.9,2.19-.76,4.6-1.21,4.84-4.2a2.83,2.83,0,0,1,2.54-1.29c1.27,3.3,3.8,1.78,5.85,1.35,15-3.17,29.81-3.87,45.2-.89,22.54,4.37,41,15.16,56.85,31.12C487.51,297.06,489.16,298.34,489.16,300.6Zm-61.53-3.36c0,1.75-.18,3.39,1.95,3.55,1.83.13,3.5-.6,3.58-2.56.11-2.52-1.09-4.93-.92-7.57.06-.87-1.41-1.78-2.76-1.41a2,2,0,0,0-1.59,2.65A6.25,6.25,0,0,1,427.63,297.24Z" transform="translate(0 0)"/><path class="cls-7" d="M301.11,343.82a2.76,2.76,0,0,0,2.95-1.4q1.92-1.28,3.85-2.54c3.69-1,6.7-3.39,9.85-5.37,1.61-1,4.62-1.33,4.68-3.24.15-4.48,2.85-4.06,6.07-3.38-1.41-3.08-2.52-5.66-3.76-8.17-.54-1.09-1.33-2.22.1-3,3.19-1.69,6.43-4.19,9.77-4.38,2.41-.14,3.17,4.08,4.34,6.56a3.34,3.34,0,0,1,.17,1c-1.46,6.06-6.43,9.73-10,14.32-6.29,8.13-13,15.95-19.94,24.43,5.28.05,9,3.44,13.76,3.39,2.39,1.78,5.17,2,8,2,1,1.72,2.78,2.27,4.52,2.88,4.36,1.53,9.1,1.89,13.21,4.27,1.46.84,3.45,1.49,4.61,0,1.37-1.73-.29-3.79-.55-5.67-.3-2.17-2.09-.68-3.24-.69-1,0-2,.3-3.12-.95,2-1.41,1.26-5.56,4.79-5.23,11,1,21.87-.59,32.8-.71-1.65,1.8-4.58,1.14-6.1,3.18-11.09,2.71-11.67,3.4-10.93,13a8.08,8.08,0,0,1,0,1,2.3,2.3,0,0,0,2,2.42l9,2.46,2,.94c2.31,1.44,5,1.36,7.55,2a3,3,0,0,0,3.38,1c-1.6,5.42.95,6.66,5.82,6.09,1.68-.2,3.47.59,5.21.93-.12.63-.23,1.25-.35,1.88-.84.29-1.58.82-1.49,1.74.38,4-1.89,4.53-5.19,4.41-5.28-.2-10.57,0-15.85,0l-1.18-.22a16.52,16.52,0,0,1,1-3.17c3.45-6.21,3.48-6.19-3.59-7.64a5.23,5.23,0,0,0-1.13-.94c-2.1-.92-4.27-2-6.59-1.43-.9.23-.85,1.81-.53,2.7,1.12,3.15,4.07.94,6,1.88a29.77,29.77,0,0,1-4.43,7c-1.32,1.72-4,3.59-1.79,6.47s4.77,1.7,7.21.18h2.86A96,96,0,0,0,401.37,410l1.4.79c1.55,1.59,6.11.12,4.87,4.48-.69,2.46.08,6.49-4.71,5.69a11.15,11.15,0,0,0-5.87-2c-7.62-2-15.19-4.23-22.88-5.88-3.46-.74-7.76-1.14-7.24,4.83q-4.51-16.23-9.05-32.45c-.43-1.55-.36-3.8-2.16-4.2-4.43-1-8.36-3.88-13.48-3.78,2,7.4,3.85,14.42,5.73,21.43-1.36,1.36-.92,3.1-.93,4.71-.05,4.47-.15,9,0,13.41.12,3.1-1.21,4-4.13,4-6.37-.06-3.05-4.85-3.89-7.6a32.35,32.35,0,0,0-.15-15l-1-.34c-3.59.43-7.38-.88-10.77,1.26-1.68-2.2-4.08-1-6.17-1.33a23.67,23.67,0,0,1-.93-9c3.82,0,7.65,0,11.47,0,7.39,0,7.39,0,7.51-7.36a10.79,10.79,0,0,1,.28-3c.51-1.63,0-2.32-1.58-3A104.28,104.28,0,0,0,319.84,370l-15.73-6c-.6-3.53-2-3.63-4.12-1-4.11,2.4-6.77,1.07-8.35-3.19a7.27,7.27,0,0,0-1.38-2.63c-3.8-3.91-1.68-5.77,2.26-7.32,1.63-.64,3.49-1.43,3.42-3.77C298,346,299.82,345.56,301.11,343.82Z" transform="translate(0 0)"/><path class="cls-8" d="M320.08,389a23.67,23.67,0,0,0,.93,9c-1.54,3.12-1.14,6.32-.43,9.54q-.34,8.19-.7,16.39L317,424l-7-.07-.69-1.07c0-.68,0-1.36,0-2a37.38,37.38,0,0,0-.27-11.94l-.12-11.07q0-4.51,0-9c.23-2.48.51-5-.21-7.43l-3.91,1.36c-.89-1.38-2.45-1.8-3.76-2.57-6.2-3.16-4-7-.91-10.94,2-1.22,4.14-2.39,3.94-5.28l15.73,6Z" transform="translate(0 0)"/><path class="cls-9" d="M511.92,341.94q.62-2.42,1.24-4.83c6.12,17.73,5.94,35.68,2.38,53.88a103,103,0,0,1-15.21,36.91,105.76,105.76,0,0,1-43.93,38.4c-9.95,4.7-20.22,8.26-31.2,9.54,0-1,0-1.93,0-2.9,7.76-2.26,15.81-3.34,23.33-6.61A112,112,0,0,0,469,455.22c13.25-9.42,24.21-21,32.18-35.37a115.5,115.5,0,0,0,11.72-32c2.32-10.81,1.15-21.88.86-32.83-.09-3.31.58-7.32-2.42-10.16.09-.63.19-1.25.28-1.88C511.72,342.63,511.82,342.29,511.92,341.94Z" transform="translate(0 0)"/><path class="cls-9" d="M489.16,300.6c0-2.26-1.65-3.54-3-4.94-15.89-16-34.31-26.75-56.85-31.12-15.39-3-30.19-2.28-45.2.89-2.05.43-4.58,1.95-5.85-1.35,6.39-3.28,13.53-2.88,20.35-4,12.3-2.09,24.52-.12,36.46,2.26,10.36,2.07,20.09,6.58,29.31,11.94,10.44,6.07,19.24,14.07,27.3,22.95a11,11,0,0,1,1.29,2.61Z" transform="translate(0 0)"/><path class="cls-9" d="M411.32,473.65c1.07,1.27,3,1.53,3.71,3.26-15.89.62-31.5-1.21-46.26-7.2a113.47,113.47,0,0,1-28.43-16.86c-8.35-6.7-15.12-14.77-21.59-23.15-1-1.34-1.17-3.38-1.71-5.1l2.87.14a3.85,3.85,0,0,0,2.17,2.25c.16,2,.13,4.09,3,4,1.2,1.47-.38,4.64,2.93,4.83a101.43,101.43,0,0,0,34.82,27.32C378.18,470.46,394.23,474.48,411.32,473.65Z" transform="translate(0 0)"/><path class="cls-9" d="M307.91,339.88q-1.94,1.26-3.85,2.54c-.54-6.77,2.54-12.73,5.21-18.42a114.82,114.82,0,0,1,35.1-43.6,102.94,102.94,0,0,1,27.43-14.77,5.71,5.71,0,0,1,3.88-.26c-.24,3-2.65,3.44-4.84,4.2-1.6.55-3.89.23-4,2.9-1.59-.23-2.77.6-3.93,1.51a13,13,0,0,0-3.35.76,102.13,102.13,0,0,0-22.37,15.54,111.65,111.65,0,0,0-18.64,23.11C313.62,321.52,308.83,330,307.91,339.88Z" transform="translate(0 0)"/><path class="cls-10" d="M301.11,343.82c-1.29,1.74-3.14,2.21-5.17,2.24-6.37-2.57-10.89-7.92-16.79-11.2-1.95-1.09-1-2.51.11-3.65.88-.89,1.2-3,3.34-1.32C288.74,334.58,295.58,338.33,301.11,343.82Z" transform="translate(0 0)"/><path class="cls-9" d="M301.08,380.18c1.31.77,2.87,1.19,3.76,2.57.11,2.13.21,4.27.32,6.4,0,1.62,0,3.26-.12,4.87-.31,3,.86,4.28,3.87,3.82l.12,11.07-.93.19A88.33,88.33,0,0,1,301.08,380.18Z" transform="translate(0 0)"/><path class="cls-10" d="M308.1,409.1l.93-.19a37.38,37.38,0,0,1,.27,11.94c-3,.43-4.76-1.63-5.79-3.74s1.15-3.75,2.51-5.32C306.76,410.94,307.41,410,308.1,409.1Z" transform="translate(0 0)"/><path class="cls-9" d="M304.11,364c.2,2.89-1.91,4.06-3.94,5.28L300,363C302.08,360.33,303.51,360.43,304.11,364Z" transform="translate(0 0)"/><path class="cls-10" d="M319.9,424.74,317,424.6A2.59,2.59,0,0,0,317,424l2.89-.13A7.61,7.61,0,0,1,319.9,424.74Z" transform="translate(0 0)"/><path class="cls-10" d="M309.32,422.9,310,424A.82.82,0,0,1,309.32,422.9Z" transform="translate(0 0)"/><path class="cls-9" d="M717.76,264.57c-11.51,11.3-24.09,9.8-39.08,2,6.43-.28,12.78,1.3,19.15,1.78C704.83,268.84,710.3,263.67,717.76,264.57Z" transform="translate(0 0)"/><path class="cls-9" d="M708.83,233.06c-.12,4.2-2.56,6-6.47,5.83s-6.13-2.41-6.35-6.3c-.17-3,3.47-6.41,6.47-6.44A6.51,6.51,0,0,1,708.83,233.06Z" transform="translate(0 0)"/><path class="cls-11" d="M703.28,314.09a12.37,12.37,0,0,1-2.29-.89c-2-1.3-3-3.25-2.06-5.52.72-1.72,1.72-3.82,4.06-3.59a5.86,5.86,0,0,1,5.16,3.83c.91,2.5-.39,4.12-2.51,5.23-.73.38-1.52.65-2.28,1Z" transform="translate(0 0)"/><path class="cls-11" d="M722,295.93c-2.63-.37-4.15,5.13-7.57,1.27-1.38-1.55-3.07-2.69-2-5,.89-1.89,2.2-3.54,4.55-3.2s4.59,1.2,5,4a17.68,17.68,0,0,1-.09,3Z" transform="translate(0 0)"/><path class="cls-12" d="M715.29,324.1c-2.09-.4-4.68-.66-4.46-3.48a4.16,4.16,0,0,1,4.44-3.79c2.48,0,4.8,1.36,4.82,4S717.52,323.81,715.29,324.1Z" transform="translate(0 0)"/><path class="cls-12" d="M702.72,290.91c2.1.5,4.69.9,4.94,3.38.29,3-2.46,3.64-4.76,3.92a3.77,3.77,0,0,1-4.37-3.21C698.16,292.27,700.57,291.6,702.72,290.91Z" transform="translate(0 0)"/><path class="cls-12" d="M727.22,305.17c2.19.34,3.72,1.32,3.79,3.74.06,1.93-.9,3.34-2.78,3.39-2.33.06-3.41-1.73-3.74-3.79S725.34,305.49,727.22,305.17Z" transform="translate(0 0)"/><path class="cls-13" d="M719.9,307.26c0,2.51-1.28,3.71-3.3,3.91-2.17.21-3.36-1-3.5-3.24s1.08-3.65,3.12-3.68A3.48,3.48,0,0,1,719.9,307.26Z" transform="translate(0 0)"/><path class="cls-7" d="M721.91,296c1.68.89,5.1-1.4,5,2.8,0,1.9-1.15,2.09-2.6,2-3.73-.22-1.66-3.21-2.33-4.89Z" transform="translate(0 0)"/><path class="cls-7" d="M703.28,314.09l.08,0c.58,1.78,1.92,3.86-.79,4.87-1.09.4-3.11,1-3.6-1.25-.43-1.93.08-3.24,2.44-3.13A6.32,6.32,0,0,0,703.28,314.09Z" transform="translate(0 0)"/><path class="cls-9" d="M473.36,66.23c6.68-7.1,11.92-14.11,13.18-24.2C490.46,50.78,483.79,62.35,473.36,66.23Z" transform="translate(0 0)"/><path class="cls-11" d="M508.36,67.49c-.26,2.83-2.63,3.77-5.17,3.81s-4.67-1.3-4.72-4.09c-.06-3,2.11-4.59,4.84-4.42C505.75,63,508.3,63.81,508.36,67.49Z" transform="translate(0 0)"/><path class="cls-11" d="M521.94,54a35.51,35.51,0,0,1-4.05,1.44c-2.76.63-5-.14-5.68-3.15-.56-2.57.54-4.68,3.14-5.25,2.78-.61,5.35.23,6.45,3.16.42,1.14.08,2.56.09,3.85Z" transform="translate(0 0)"/><path class="cls-9" d="M467.64,39.06c-.32,3.1-2.41,4.44-5,4.57a3.86,3.86,0,0,1-4.23-3.92c-.06-2.7,1.3-5,4.21-5.13S467,36.45,467.64,39.06Z" transform="translate(0 0)"/><path class="cls-12" d="M515.16,82.24c-2.3.1-4.34-1.19-4.46-3.51a4.6,4.6,0,0,1,9.18-.15C519.9,81,517.9,82.23,515.16,82.24Z" transform="translate(0 0)"/><path class="cls-12" d="M503.17,56.06c-2.64,0-4.83-.91-4.81-3.47a4,4,0,0,1,4.35-3.92c2.44.08,4.83,1.41,4.92,4S505.11,55.72,503.17,56.06Z" transform="translate(0 0)"/><path class="cls-13" d="M516,69.38c-2.35-.12-3-1.7-2.85-3.69.11-2.17,1-4,3.5-3.7a3.5,3.5,0,0,1,3.1,3.8C519.67,68.14,518.38,69.37,516,69.38Z" transform="translate(0 0)"/><path class="cls-12" d="M527.92,70.05a3.73,3.73,0,0,1-3.56-3.92,2.67,2.67,0,0,1,3.12-2.95c1.95.3,3.61,1.46,3.6,3.94C531.08,69.3,529.78,69.9,527.92,70.05Z" transform="translate(0 0)"/><path class="cls-7" d="M521.89,54c.17,0,.33,0,.49.08,1.64.44,4.28-1.23,4.55,2.15.14,1.76-.81,2.32-2.38,2.36-3.81.08-2.09-2.9-2.61-4.64Z" transform="translate(0 0)"/><path class="cls-7" d="M504,75.1c0,1.88-1.25,1.94-2.63,2-1.84.06-2.75-.7-2.58-2.58s1.69-1.59,2.93-1.65C503.33,72.78,504.28,73.35,504,75.1Z" transform="translate(0 0)"/><path class="cls-14" d="M282,33.17C287,39.24,293.45,44,297.88,50.74c14.8,22.42,19.66,46.15,11.78,72.44-3.86,12.87-10,24.36-19.16,33.59-20.21,20.4-45,29.08-73.77,24.87-25-3.65-44.06-17-57.65-37.54a78.61,78.61,0,0,1-12.82-50.78c1.53-18.09,7.72-34.4,19.86-48.21,18.07-20.56,40.72-30.6,68.1-29.43a79.17,79.17,0,0,1,44.67,16.09A16.55,16.55,0,0,0,282,33.2Zm-8.35,46.24.07,0c-1.09,2.09-.13,3.9.88,5.62,2.61,4.49,5.33,8.92,3.92,15.28,2.6-1.56,3.92-3.49,6.36-3.39,2.07.08,2.21-1.31,1-2.57-2.49-2.57-2-5.54-1.92-8.71.15-4.79.82-9.68-.41-14.38-.91-3.46-.19-4.61,3.05-3.21,1.83-3.94-9.83-2.67-2.36-8.39a16,16,0,0,0-2.1-.58c-1.3-.17-2.9.1-3.44-1.43-.61-1.74,1.31-2.06,2.17-2.91,3.71-3.68,8.18-5.46,14.19.29l.36.19-.35-.2c-1.79-8-6.93-9.17-14.35-3a13.88,13.88,0,0,1-14.58,2.67c-3.69-1.28-7.9-1.75-10.56,1.78C251.36,62,251,69,249,75.44,252.4,72,253,67.23,254.8,63.06c3.6-8.49,8.46-9.56,14.83-2.6-2.16.94-4.4,1.85-4.6,4.61-2,.35-2.61,1.57-2.51,3.94A4.72,4.72,0,0,0,265,65.07c4.47-1.07,5.05-.86,4.39.78-1.81,4.48,1.36,7.58,2.55,11.22a.49.49,0,0,1,.23.63C272.19,78.67,272.26,79.58,273.62,79.41ZM211.05,130c3.93,0,5.39,4.43,9,5l.36.2L220,135a9.56,9.56,0,0,0-6.11-6.73,89.46,89.46,0,0,1-11.42-5.71c-4.34-2.43-9.24-4-14.52-2.75a85.67,85.67,0,0,0,11.14,3.2c3.25.75,3.9,3.35,2.08,5.15-3.31,3.27-2.85,7.53-4.27,11.26-2.38,6.25-4.48,12.73-9.49,17.52-1.08,1-1.61,1.65-1.06,3.17,1,2.78,3.8-1,5.06,1.52.3.59,1.4-.84,1.62-1.85.61-2.75,2.13-5,3.4-7.47,1.94-3.73,5.13-6.95,5.62-11.41l1-.86c1.45-1.59,4.94-1.85,4.41-4.52-.68-3.43,1.71-4.1,3.51-5.51ZM225,111l-.08.23.06-.06c-.11,2,.28,4-.94,6.09-1.56,2.66,1.12,4.51,2.68,5.86s3-.07,3.35-2h0c3.07-1.94,3.21-5.85,5.32-8.24,2.81-3.18,4.14-8.74,2.29-12.47-.83-1.66-4.83-2.72-2.32-4.78,1.68-1.38,3.28,2,4.8,3.37a8.81,8.81,0,0,0,1.9.81c0-2.55.12-4.66,0-6.75-.39-5.81-3.42-7.72-8.88-5.58-1.19.46-2.28.77-3.24-.13-4.23-4-6.64-.41-8.74,2.4-1.68,2.24-2.53,5.08-4,8.16,3.61-.64,5.57-4.22,9.85-2.74-3.76,2.63-6.19,5.37-4.13,9.74.26.56-.19,1.66-.61,2.31C220,110.73,222.11,111.08,225,111ZM229,36.09v0C227.78,40.92,228,46,225.2,50.63c-2.68,4.47-1.34,10.82,1.74,13.34s6.22,4.87,9.83,7.68c.77-5.92,5.13-10.13,5.83-15.81.77-6.18,1.58-12.72-4.4-16.76a41.24,41.24,0,0,1-8.81-8.36c-1.51-1.84-2.77-1.9-4.38-.85-.27,1.92,3.42.41,2,3C225.22,36.2,225.24,36.21,229,36.09Zm-23.4,31.06c1.57-3.37-2-5.27-1.45-8.35,1.12-5.8-3.54-11.51-9.42-12.73-11.28-2.35-19.11,4.75-24.24,13.51-5.87,10-3.27,21.81-5.28,33,8.4-3.43,4.63-11.3,6.42-17.26,2.4,2,.19,6,2.91,5.81,3.23-.25-.53-3.75,1.14-5.34,2-.29.58,3.08,2.91,2.55.69-1.68,1.39-3.42,2.1-5.15,4.77,2.75,1.85-1.72,2.21-2.62.8-2-1.13-4-1.11-6.36,8.27,6.32,12.68,6.78,15.1,1.77,1.28.28,1.4,4.58,3.6,1.23.63-1-.72-3.15,1.6-3.4C204.28,63.53,204.47,65.7,205.64,67.15ZM276,137.87a22.94,22.94,0,0,0-3.16-12.12c-2.65-4-8.72-5.91-11.54-3-2.3,2.38-3.77,3.21-7,1.69-2.64-1.23-4.75.1-4.58,3.69.22,4.73,2.72,4.07,5.69,2.71,1.21-.56,2.61-1.37,3.71-.29,1.26,1.23-.12,2.48-.67,3.54-1.75,3.32-1.34,6.47-.54,10.06,1.16,5.19,4.76,7.57,8.6,10.29,3.29,2.35,3.22,2.42,5.11-1.18C274.39,148,275.1,142.31,276,137.87Zm-9.27-65.95c-.67,3.43-1.45,6.87.47,10.74C268.35,77.62,268.3,75.48,266.75,71.92ZM261,70.83c-1,2.33-2.64,3.7-.79,5.93C261.66,75,262.45,73.64,261,70.83ZM221,33.18c-.88.08-1.73.31-1.47,1.44.16.74.35,1.88,1.42,1.58a2.74,2.74,0,0,0,1.56-1.68C222.81,33.46,221.89,33.2,221,33.18ZM290.1,62.71a5.65,5.65,0,0,0-1.69-1.19c-.78-.23-1.13.45-.85,1.17a1.89,1.89,0,0,0,1.9,1.21C290,63.89,290.39,63.67,290.1,62.71Zm6.7-5.19a4.64,4.64,0,0,0-.57,1.28.91.91,0,0,0,.46.74c.53.22,1-.08.91-.62S297.19,58.18,296.8,57.52ZM224.63,39.3l.13-.34c-.1,0-.26-.13-.29-.09a.84.84,0,0,0-.14.32Z" transform="translate(0 0)"/><path class="cls-9" d="M19.19,377.92c-3.1-7.26-6.65-14.28-9-21.91C2.4,330.69,6.61,306.93,20.9,285.48c15.68-23.53,38.91-36.05,67-36.93,23.58-.74,44.33,7.67,61.37,24.83,17.71,17.84,25.93,39.23,24.3,63.93-1.92,29.19-15.74,51.62-41.13,66.8-22,13.13-45.17,15.2-69.08,7.37a77.67,77.67,0,0,1-39.48-28.65,47.93,47.93,0,0,0-4.74-4.94Zm67.52-113.2c-5.55,0-9.1,2.69-9.18,6.92s3.7,7.3,9.4,7.29,9-2.64,9-7C96.06,267.24,92.79,264.71,86.71,264.72ZM112.4,370c4.73.11,9.15-3,9.34-6.52.17-3.35-4.34-6.8-9-6.92-4.51-.11-8.5,2.85-8.66,6.42C103.84,367.32,106.87,369.86,112.4,370Zm-8.77-31.75c4.23,0,8.08-3.8,7.94-7.88-.13-3.84-3.8-7.15-7.93-7.16-4.37,0-7.72,3.06-7.83,7.19A7.89,7.89,0,0,0,103.63,338.25ZM77.45,361.57c.06.86.14,1.68.19,2.51.19,3.28.94,7.32,4.38,7.4,4,.09,4.32-4.22,4.66-7.55a10.87,10.87,0,0,0,.15-2.47c-.51-3.8.21-9.59-4.72-9.51C77.34,352,77.85,357.71,77.45,361.57ZM87.08,317c-.15-1.2-.26-2-.35-2.85-.34-2.94-1.69-5.35-4.85-5.19-2.88.14-4,2.56-4.34,5.28a19.64,19.64,0,0,0,.37,6.92,4.32,4.32,0,0,0,4.33,3.47,4,4,0,0,0,4.1-3.58C86.56,319.6,86.87,318.14,87.08,317Zm34.65,74.27c1.2-3.84-.29-5.39-4.45-5.1-2.9.21-5.47.06-4.72,4.23.51,2.88-1.56,6.85,4.37,6.67C121.3,397,122.73,395.55,121.73,391.29Zm18.39-34.47c.09-3.43-1.45-5.55-4.62-5.45s-4.06,2.67-4,5.35,1.38,5.08,4.44,4.89C138.65,361.44,140.47,359.74,140.12,356.82ZM35.21,350.11c-2.28.26-5.07.92-5.1,4s2.29,4.74,5.28,4.82a4.92,4.92,0,0,0,5.21-4.45C40.88,351.46,38.28,350.41,35.21,350.11ZM121.68,305c-.12-3.17-2.21-4.07-4.65-4.3-2.72-.25-5.34.63-5.5,3.62a4.51,4.51,0,0,0,4.44,5C119,309.39,120.82,307.64,121.68,305Zm-39.43-9.9c.06-3.71-1.26-5.27-3.51-5.29a3.67,3.67,0,0,0-3.69,3.92c0,2.21,1.58,3.27,3.62,3.28S82.26,296.18,82.25,295.08Zm40.57-16.39c1.72-.06,3.56.3,3.58-2.24s-1.7-2.31-3.38-2.34c-1.87,0-3.8-.13-3.72,2.54S121.44,278.5,122.82,278.69Zm-26.34,72.6c.07-1.72-.21-3-2.32-3.07s-2.5,1.16-2.52,2.84c0,1.44.22,2.66,2.06,2.74S96.55,353.15,96.48,351.29Zm-35,25.19a2.42,2.42,0,0,0-2.38,2.6c0,1.85.94,2.7,2.73,2.51,1.42-.15,2.46-.83,2.43-2.46C64.24,377.27,63,376.67,61.49,376.48Zm83.51-60c-.89-.07-1.88.44-1.92,2.19-.05,2.07,1.19,2.39,2.87,2.45,2,.06,2.61-1,2.56-2.76C148.45,316.45,147,316.6,145,316.51Zm-13.38,63.05c-.18-1.71-1.39-2.15-2.8-2.11s-2.68.62-2.52,2.34c.13,1.4,1.22,1.87,2.49,1.85S131.43,381.26,131.62,379.56ZM45.71,302.88a2.41,2.41,0,0,0-2.89-2.16c-1.21.1-2.32.76-2.22,2.19a2.26,2.26,0,0,0,2.59,2.36A2.33,2.33,0,0,0,45.71,302.88Zm57.8-19c1.58.11,2.52-.46,2.6-2.2s-.26-2.93-2.35-2.93c-1.71,0-2.37.84-2.35,2.45C101.42,282.66,101.67,283.89,103.51,283.89ZM41.74,278.7c-1.26.41-3.54-.76-3.59,1.34-.07,2.84,2.55,1.67,4.1,1.83,1.36.14,3.5.46,3.39-1.59C45.51,277.82,43.11,279.15,41.74,278.7Zm12.18,38.22c.16,1.35.11,3.21,1.7,3.2s1.64-1.8,1.65-3.16c0-1.2-.15-2.69-1.46-2.83C53.88,313.91,54.25,315.79,53.92,316.92ZM64.4,299c.11-1.83-1-2.24-2.53-2.17-1.31.05-2.76-.19-2.83,1.84-.06,1.82,1,2.24,2.52,2.2C62.92,300.88,64.31,301,64.4,299ZM31.45,334c.49-2.31,1.24-4.62-.17-7.56C29.57,329.51,29.72,331.78,31.45,334Zm106.47,4.08c-1.34.14-2.15.84-2,2.23.08,1.2.94,1.61,2.06,1.54,1.33-.09,2.23-.63,2-2.12A1.81,1.81,0,0,0,137.92,338.08Z" transform="translate(0 0)"/><path class="cls-2" d="M511.35,344.85c3,2.84,2.33,6.85,2.42,10.16.29,10.95,1.46,22-.86,32.83a115.5,115.5,0,0,1-11.72,32c-8,14.41-18.93,25.95-32.18,35.37a112,112,0,0,1-20.46,11.11c-7.52,3.27-15.57,4.35-23.33,6.61-.06-6.67-2.4-12.34-7.52-16.72-2.22-1.9-2.39-3.91-.46-6,5.47-6,11.27-11.46,18.57-15.52,7.48-4.16,13.95-10.12,21.29-14.58,6.72-4.08,12.43-9.2,18.27-14.33,6.31-5.55,14.64-6.91,22.33-9.42,7.53-2.47,9.3-4.57,4.62-10.7-5.21-6.8-3.49-11.8.12-18.25A54.88,54.88,0,0,0,509,350.24,9.89,9.89,0,0,1,511.35,344.85Z" transform="translate(0 0)"/><path class="cls-2" d="M411.32,473.65c-17.09.83-33.14-3.19-48.48-10.47A101.43,101.43,0,0,1,328,435.86l13.78-1.78c-.88,4.79,1.13,6.52,5.88,6,3.42-.36,6.9-.17,10.36-.22,1.5,1.47,1.73,3.51,2.32,5.37,2.79,8.76,2.74,8.63,11.57,6.82,2.84-.58,3.82-1.74,2.83-4.33-2.21-5.73-3.11-11.79-4.69-17.67L390,425.93c6.79.1,6.79.1,7.07-6.94a11.15,11.15,0,0,1,5.87,2c-.89,4.26,1,5.56,5.06,5.14a43.93,43.93,0,0,1,6.37.2c-.9,7.34-4.57,13.8-6.67,20.77-.69,2.29-2.49,1.51-4.14,1.29-8.13-1.1-15.89-.1-23,4.27-1.59,1-3.59,2.12-3.32,4,.31,2.21,2.75,1,4.21,1.4C392.5,461.11,403,465.25,411.32,473.65Z" transform="translate(0 0)"/><path class="cls-10" d="M414.36,426.31a43.93,43.93,0,0,0-6.37-.2c-4,.42-5.95-.88-5.06-5.14,4.79.8,4-3.23,4.71-5.69,1.24-4.36-3.32-2.89-4.87-4.48-.38-6.6,1.14-13.27-.8-19.8-1.74-.34-3.53-1.13-5.21-.93-4.87.57-7.42-.67-5.82-6.09a9.29,9.29,0,0,0,.77-6.74l1.24-.34c11.43.25,11.43.25,9.27-11.14a4,4,0,0,1,0-1c2.2,0,3.22-1.63,3.93-3.29,1.4-3.22,3.31-2.57,5.48-1,1.47,1.07,2.85,2.28,4.41,3.2,2.55,1.51,4.06,3,1,5.55-1.26,1.05-1.25,2.63-1.25,4.15q.09,19.38.16,38.77c-.09,3.28-.13,6.56-.28,9.83C415.68,423.52,416.37,425.37,414.36,426.31Z" transform="translate(0 0)"/><path class="cls-11" d="M449.9,369c.35,3,1.41,6.27-2.42,8.05-1.82.85-3.8,1.08-4.89-.72-1.56-2.59-1.27-5.28.71-7.78,1.44-1.81,2.72-2.07,4.44-.39A6.36,6.36,0,0,0,450,369Z" transform="translate(0 0)"/><path class="cls-9" d="M466.25,342c4.26,7.79,11.66,11.8,19,15.94C476,358.12,469.7,352.89,466.25,342Z" transform="translate(0 0)"/><path class="cls-11" d="M463,390.8c-.39.17-1,.23-1.12.51-1.32,2.55-3.34,3.9-6,2.44-2-1.1-2.53-3.31-1.94-5.61s2.08-4,4.48-3.71c2.74.34,4.27,2.23,4.13,5.19a4,4,0,0,0,.37,1.25Z" transform="translate(0 0)"/><path class="cls-12" d="M468.05,380.85c-.07-3.27,1.42-5,4.08-5a3.46,3.46,0,0,1,3.4,4.06c-.29,2.25-1.35,4.62-4.11,4.84C468.35,385,468.22,382.58,468.05,380.85Z" transform="translate(0 0)"/><path class="cls-9" d="M498.7,330.68c.38,3.63,3.54,4,5.5,5.72a12.85,12.85,0,0,0-5.76,5.37l-5.27-5.7C495.71,335.21,497.19,333.18,498.7,330.68Z" transform="translate(0 0)"/><path class="cls-12" d="M447.2,385.66c-.21,2.73-.42,5.18-3.63,5.17A3.34,3.34,0,0,1,440,387c.1-2.61,1-5,4.12-5.15C447.06,381.69,446.73,384.18,447.2,385.66Z" transform="translate(0 0)"/><path class="cls-13" d="M463.62,376.34a4,4,0,0,1-3.58,3.44c-2.37.14-4.14-1.08-4.19-3.83,0-2.41,1.48-3.16,3.53-3.22C461.75,372.65,463,374,463.62,376.34Z" transform="translate(0 0)"/><path class="cls-12" d="M466.78,365.38a3.68,3.68,0,0,1-3.77,3.31c-2,.09-3.71-.66-3.82-3s1.71-2.59,3.38-2.8C464.55,362.66,466.18,363.19,466.78,365.38Z" transform="translate(0 0)"/><path class="cls-7" d="M450,369a3.62,3.62,0,0,0,.13-.47c.32-1.9-.62-4.51,2.49-4.86,1-.12,2.38,0,2.31,1.74-.14,3.35-2.37,3.7-5,3.55Z" transform="translate(0 0)"/><path class="cls-7" d="M462.92,390.87c1.83-.18,4.39-1.8,4.47,1.83,0,1.26-.32,3.1-2.52,2.74-3.12-.51-1.47-3-1.9-4.63Z" transform="translate(0 0)"/><path class="cls-2" d="M511.92,341.94c-.1.35-.2.69-.29,1C511.73,342.63,511.82,342.29,511.92,341.94Z" transform="translate(0 0)"/><path class="cls-8" d="M393,376.9l-1.24.34c-2.13,1.37-2.86,3.75-4.15,5.73-2.52-.64-5.24-.56-7.55-2,3.76-3.79,5.6-8.9,9-13l.09-2a2.26,2.26,0,0,0,2-1c1.45-2.14,3.36-4,4.16-7.08h-4.22L389,358l-3,0h-2c-10.93.12-21.81,1.73-32.8.71-3.53-.33-2.81,3.82-4.79,5.23,1.13,1.25,2.15.95,3.12.95,1.15,0,2.94-1.48,3.24.69.26,1.88,1.92,3.94.55,5.67-1.16,1.46-3.15.81-4.61,0-4.11-2.38-8.85-2.74-13.21-4.27-1.74-.61-3.5-1.16-4.52-2.88A63.69,63.69,0,0,0,340,350a30.71,30.71,0,0,0,8.05-13c2.92-.46,3.44-3.23,4.91-5.08a62.8,62.8,0,0,1,8-10.93q3-5.07,6.07-10.15c2.22-1.35,3.11-3.72,4.42-5.77l1.79-2.89c2.19-3.08,4.42-6.14,6.57-9.24,1.06-1.52,2.07-2.57,4-1.11a48.39,48.39,0,0,0,5,3.27c2.33,1.36,2.25,2.49,1,5-2.22,4.53-6.67,7.64-7.75,12.78-3.12,2.34-5.43,5.21-5.95,9.22-6.4,5.63-10.13,13.06-15,20.76,4.35-.49,7.68.41,10.83-1L386,342l3.51-.28,1.32.2c6.1-.48,12.42,1.65,18.31-1.66.59-.33,1.82.45,2.74.72,2.32,1.24,3.49,2.81,2.07,5.53a6.11,6.11,0,0,0-.64,3.33c.59,5.27.43,9.41-7,8.29-2.49-.38-3.52,2.56-4.23,4.82C398.31,367.09,394.78,371.43,393,376.9Z" transform="translate(0 0)"/><path class="cls-15" d="M382,313c1.08-5.14,5.53-8.25,7.75-12.78,1.25-2.54,1.33-3.67-1-5a48.39,48.39,0,0,1-5-3.27c-1.92-1.46-2.93-.41-4,1.11-2.15,3.1-4.38,6.16-6.57,9.24-2.55-2.22-3.92-6-8.28-5.78-1.67.1-2.18-1.13-2.09-2.7.11-1.83-.06-4.59,2-4.56,4.85.06,3.17-2.84,3-5.22,1.32-1,4.51-1.12,3.81-2.85S369,277,366,278.19a5.16,5.16,0,0,1-1.95-.05c-1.37-1.13-1-2.69-1.06-4.16,1.16-.91,2.34-1.74,3.93-1.51,2.44,4,5,4.86,8.49.87a5.67,5.67,0,0,1,5.38-2,2.9,2.9,0,0,0,3.43-1.22c2-2.81,4-2.5,6.05-.08,1.76,2.05,5.43,1,6.64,4.61.39,1.17,1.59-1,1.85-2.26,1-4.62,3.85-7,8.53-6.24,2.57.41,4.51,2.89,7.57,2.52.91-.1,1.5,1.59,1.36,2.89a2.7,2.7,0,0,1-2.33,2.78c-1.05.2-2.46-.34-3,1.18-.15.45-.18.94-.38,2,2.74-1.37,5.22-1.7,7.44.29.9.81,1.71,1.3,2.89.12,1.37-1.36.58-2.2-.22-3.3a3.45,3.45,0,0,1,.4-4.95c1.53-1.43,3.42-1.13,5.13-.26,1.28.65,2.49,2.49,1.7,3.19-4,3.52.55,6.41.54,9.6,0,2.18,1.14,4.46-1.6,5.41s-4.41-.43-5.19-3.16c-.19-.67-1-1.16-1.62-1.88-1.41,4.76-1.41,4.76,2,7.28a5.94,5.94,0,0,1,.77.64c.73.76,2.7,10.46,2.4,11.51-.88,3-.06,6.65-3.81,8.49-.75.36-1.08,2-.31,3.17a2.53,2.53,0,0,1-.86,3.87c-1.69,1-2.74-.35-3.66-1.62-.72-1-1.76-1.46-3.52-1.8.66,4.94-2.13,5.65-6,4.77l.08.09c-1.87-1.45-1.33-5.24-5.1-5.06.1,2,.2,3.86.3,5.76l-.8.85c-4.28-.58-8.57-1.27-12.34,1.71-2.65.09-2.52-2-2.92-3.69C388.5,313.93,384.22,314.21,382,313Zm-2.6-34.77c-1.74,1.61-1.63,4.19-3.92,5.4a1.93,1.93,0,0,0,1.49,3.36c1.45.05,2.93.63,4.55-.31C381,283.93,379.28,281.36,379.4,278.18ZM415.67,299c1-2.69.81-5.34-1.13-7.3-.51-.51-3.09.57-3.38,2.05C410.49,297.06,412.83,298.3,415.67,299Zm-29.38-20.31c2.49.31,5.55,2.21,6.62.6,1.26-1.89-2.34-3.55-3.56-4.23C387.57,274,387.58,277.26,386.29,278.64Zm30.4,21.43c-3.27,6.15-.86,7.79,6.58,6.29C417.9,306,420.63,300.43,416.69,300.07Zm-27.15-11.44a2.06,2.06,0,0,0-1.27,1.93c.18,1.56,1.33,2.19,2.74,2.32,1.12.11,2.3-.72,1.81-1.57C392.17,290.17,390.69,289.51,389.54,288.63Zm.23,25.37c2.86-.47,4.64-.87,4.4-3.61-.06-.73-.11-1.42-.93-1.3C390.79,309.44,390.63,311.52,389.77,314Z" transform="translate(0 0)"/><path class="cls-7" d="M386.21,318.57c.4,1.68.27,3.78,2.91,3.69,4,2.56,8.55,1.41,12.87,1.73l.89,1.23v12.83c3.24.84,8.65-5.82,9,2.9-.92-.27-2.15-1.05-2.74-.72-5.89,3.31-12.21,1.18-18.31,1.66,1.31-3.14-.32-6-1.32-9v8.76L386,342Q386.12,330.27,386.21,318.57Z" transform="translate(0 0)"/><path class="cls-7" d="M393,376.9c1.83-5.47,5.36-9.81,9.18-14,.05.62.09,1.24.14,1.86a4,4,0,0,0,0,1C404.38,377.15,404.38,377.15,393,376.9Z" transform="translate(0 0)"/><path class="cls-15" d="M427.63,297.24a6.25,6.25,0,0,0,.26-5.34,2,2,0,0,1,1.59-2.65c1.35-.37,2.82.54,2.76,1.41-.17,2.64,1,5,.92,7.57-.08,2-1.75,2.69-3.58,2.56C427.45,300.63,427.6,299,427.63,297.24Z" transform="translate(0 0)"/><path class="cls-15" d="M402.88,325.22,402,324c-.18-1.14-.35-2.29-.52-3.44l.8-.85,4.8-.7-.08-.09c.22,1.77.07,3.84,3,2.41,1.68-.81,2.85.36,3.61,1.72s0,2.58-1.13,3.39c-1.43,1.06-3.14.86-3.85-.63C406.9,322.17,404.66,326.48,402.88,325.22Z" transform="translate(0 0)"/><path class="cls-2" d="M363,274c0,1.47-.31,3,1.06,4.16l.07,1.05c-2.16,3.63-1.8,5.66,3.06,4.84l.68-.07c.18,2.38,1.86,5.28-3,5.22-2,0-1.87,2.73-2,4.56-.09,1.57.42,2.8,2.09,2.7,4.36-.26,5.73,3.56,8.28,5.78l-1.8,2.89c-.88-.55-2.95.74-2.69-1.43.35-2.94-1-3.09-3.19-2.4-1.77.56-4,.33-3.23,3.63.7,2.91,1.53,5.23,4.7,6Q364,316,360.94,321a2.93,2.93,0,0,1-3-1.19c-1.55-2-1.78-5.44-4.88-5.7-2.78-.23-4.65,2.3-7,3.55a10.23,10.23,0,0,1-1.87.61c-2.17-1-3.05,2.1-5.06,1.6a3.34,3.34,0,0,0-.17-1c-1.17-2.48-1.93-6.7-4.34-6.56-3.34.19-6.58,2.69-9.77,4.38-1.43.75-.64,1.88-.1,3,1.24,2.51,2.35,5.09,3.76,8.17-3.22-.68-5.92-1.1-6.07,3.38-.06,1.91-3.07,2.21-4.68,3.24-3.15,2-6.16,4.34-9.85,5.37.92-9.89,5.71-18.36,10.68-26.49a111.65,111.65,0,0,1,18.64-23.11,102.13,102.13,0,0,1,22.37-15.54A13,13,0,0,1,363,274Z" transform="translate(0 0)"/><path class="cls-8" d="M370.07,430.07c1.58,5.88,2.48,11.94,4.69,17.67,1,2.59,0,3.75-2.83,4.33-8.83,1.81-8.78,1.94-11.57-6.82-.59-1.86-.82-3.9-2.32-5.37L357,431l-2.87-6c-.33-9.08-4.4-17.28-6.11-26-1.88-7-3.75-14-5.73-21.43,5.12-.1,9.05,2.79,13.48,3.78,1.8.4,1.73,2.65,2.16,4.2q4.56,16.22,9.05,32.45c.17,1.44-.26,3,1.1,4.15C367.93,425,369.66,427.34,370.07,430.07Z" transform="translate(0 0)"/><path class="cls-8" d="M339.13,319.9c2,.5,2.89-2.6,5.06-1.61,2.44,1.83,5.33,3.3,7.23,5.58,3.12,3.75-3.25,4.3-3,7.33a6.44,6.44,0,0,1-.42,1.88l-.85.84c-4.24,3.1-8,6.58-9.17,12-1.72-.2-2.62.84-3.59,2.07-3.73,4.73-7.57,9.37-11.37,14-4.73,0-8.48-3.34-13.76-3.39,7-8.48,13.65-16.3,19.94-24.43C332.7,329.63,337.67,326,339.13,319.9Z" transform="translate(0 0)"/><path class="cls-10" d="M348,398.94c1.71,8.76,5.78,17,6.1,26a45.25,45.25,0,0,1-12.12.95c-3.27-2.95-7.28-1.38-11-1.83s-4.81,1.25-3.79,4.66c-1.26.24-2.12.86-2.12,2.27-2.88.05-2.85-2.07-3-4,.07-5.61.18-11.22.15-16.82,0-1,.8-3-1.65-2.65-.71-3.22-1.11-6.42.43-9.54,2.09.29,4.49-.87,6.17,1.33-1.38,12.94-1.38,12.94,10.91,14,.32,0,.64.09,1,.14.84,2.75-2.48,7.54,3.89,7.6,2.92,0,4.25-.86,4.13-4-.18-4.46-.08-8.94,0-13.41C347.06,402,346.62,400.3,348,398.94Z" transform="translate(0 0)"/><path class="cls-10" d="M320.08,389l-.24-19a104.28,104.28,0,0,1,17.92,5.69c1.54.64,2.09,1.33,1.58,3a10.79,10.79,0,0,0-.28,3c-.12,7.39-.12,7.39-7.51,7.36C327.73,389,323.9,389,320.08,389Z" transform="translate(0 0)"/><path class="cls-10" d="M379.09,399c5.28,0,10.57-.15,15.85,0,3.3.12,5.57-.39,5.19-4.41-.09-.92.65-1.45,1.49-1.74.53,5.72,1,11.44-.25,17.13a96,96,0,0,1-24.46-6.14C377.83,402.33,379.38,401.06,379.09,399Z" transform="translate(0 0)"/><path class="cls-10" d="M368,422.09c-1.36-1.12-.93-2.71-1.1-4.15-.52-6,3.78-5.57,7.24-4.83,7.69,1.65,15.26,3.88,22.88,5.88-.28,7-.28,7-7.07,6.94-.55-3.91-1.39-6.58-6.73-5.19C378.4,422,373.13,421.7,368,422.09Z" transform="translate(0 0)"/><path class="cls-2" d="M339.06,413.42c-.33-.05-.65-.11-1-.14-12.29-1-12.29-1-10.91-14,3.39-2.14,7.18-.83,10.77-1.26l1,.34A32.35,32.35,0,0,1,339.06,413.42Z" transform="translate(0 0)"/><path class="cls-2" d="M378,380l-9-2.46a2.3,2.3,0,0,1-2-2.42,8.08,8.08,0,0,0,0-1c-.74-9.59-.16-10.28,10.93-13Q377.92,370.62,378,380Z" transform="translate(0 0)"/><path class="cls-10" d="M378,380q0-9.42-.08-18.85c1.52-2,4.45-1.38,6.1-3.18h2c0,2.24.08,4.49,0,6.73s.68,3.39,3,3.28c-3.39,4.05-5.23,9.16-9,13Z" transform="translate(0 0)"/><path class="cls-8" d="M375.33,388c7.07,1.45,7,1.43,3.59,7.64a16.52,16.52,0,0,0-1,3.17c-2.82.54-3.34,2.82-3.86,5.1-2.44,1.52-4.89,2.85-7.21-.18s.47-4.75,1.79-6.47a29.77,29.77,0,0,0,4.43-7A3.14,3.14,0,0,0,375.33,388Z" transform="translate(0 0)"/><path class="cls-10" d="M323,362c3.8-4.67,7.64-9.31,11.37-14,1-1.23,1.87-2.27,3.59-2.07A6.86,6.86,0,0,0,340,350a63.69,63.69,0,0,1-9,14.05C328.15,364,325.37,363.82,323,362Z" transform="translate(0 0)"/><path class="cls-2" d="M375.33,388a3.14,3.14,0,0,1-2.27,2.21c-1.91-.94-4.86,1.27-6-1.88-.32-.89-.37-2.47.53-2.7,2.32-.61,4.49.51,6.59,1.43A5.23,5.23,0,0,1,375.33,388Z" transform="translate(0 0)"/><path class="cls-2" d="M401.37,410c1.24-5.69.78-11.41.25-17.13.12-.63.23-1.25.35-1.88,1.94,6.53.42,13.2.8,19.8Z" transform="translate(0 0)"/><path class="cls-2" d="M387.56,383c1.29-2,2-4.36,4.15-5.73a9.29,9.29,0,0,1-.77,6.74A3,3,0,0,1,387.56,383Z" transform="translate(0 0)"/><path class="cls-2" d="M374.05,403.86c.52-2.28,1-4.56,3.86-5.1l1.18.22c.29,2.08-1.26,3.35-2.18,4.89Z" transform="translate(0 0)"/><path class="cls-10" d="M338.91,398.39l-1-.34Z" transform="translate(0 0)"/><path class="cls-5" d="M320.58,407.52c2.45-.32,1.64,1.61,1.65,2.65,0,5.6-.08,11.21-.15,16.82a3.85,3.85,0,0,1-2.17-2.25c0-.28,0-.56,0-.83Q320.23,415.71,320.58,407.52Z" transform="translate(0 0)"/><path class="cls-7" d="M308.91,397.84c-3,.46-4.18-.85-3.87-3.82.16-1.61.08-3.25.12-4.87l3.8-.33Q308.95,393.32,308.91,397.84Z" transform="translate(0 0)"/><path class="cls-2" d="M309,388.82l-3.8.33c-.11-2.13-.21-4.27-.32-6.4l3.91-1.36C309.47,383.85,309.19,386.34,309,388.82Z" transform="translate(0 0)"/><path class="cls-7" d="M342,425.93a45.25,45.25,0,0,0,12.12-.95l2.88,6-15.16,3.11L328,435.86c-3.31-.19-1.73-3.36-2.93-4.83,0-1.41.86-2,2.12-2.27Z" transform="translate(0 0)"/><path class="cls-16" d="M205.64,67.15c-1.17-1.45-1.36-3.62-3.51-3.39-2.32.25-1,2.44-1.6,3.4-2.2,3.35-2.32-1-3.6-1.23-2.42,5-6.83,4.55-15.1-1.77,0,2.4,1.91,4.35,1.11,6.36-.36.9,2.56,5.37-2.21,2.62-.71,1.73-1.41,3.47-2.1,5.15-2.33.53-.89-2.84-2.91-2.55-1.67,1.59,2.09,5.09-1.14,5.34-2.72.21-.51-3.82-2.91-5.81-1.79,6,2,13.83-6.42,17.26,2-11.14-.59-22.92,5.28-32.95,5.13-8.76,13-15.86,24.24-13.51,5.88,1.22,10.54,6.93,9.42,12.73C203.6,61.88,207.21,63.78,205.64,67.15ZM185,58.54c-.18-1.16-.35-2.33-.52-3.5a6,6,0,0,0,3.54,1.6c2.39.15,4.84,0,5.7-2.69.66-2.1-.77-3.39-2.58-4.18-2.64-1.16-4.8-.46-6.44,1.87-.73,1-.33,2.23-.28,3.36-.72-.38-1.44-.78-2.17-1.14-2.12-1.06-3.47.36-4.63,1.69a2.93,2.93,0,0,0,.27,4.06,3.8,3.8,0,0,0,4.94.77,16.37,16.37,0,0,0,2.2-1.9,4.1,4.1,0,0,1,.1,1c-.36,2.64.95,3.49,3.39,3.33,1.55-.09,2.5-.64,2.39-2.33-.18-2.79-2.27-2.19-4-2.17A15.8,15.8,0,0,0,185,58.54Zm-8.24,13.6a1.59,1.59,0,0,0-1.41-1.62c-.78-.12-1.08.52-1.08,1.2a1.49,1.49,0,0,0,1.32,1.66C176.26,73.44,176.59,72.81,176.72,72.14Z" transform="translate(0 0)"/><path class="cls-16" d="M272,77.07c-1.19-3.64-4.36-6.74-2.55-11.22.66-1.64.08-1.85-4.39-.78h0c.2-2.76,2.44-3.67,4.6-4.61-6.37-7-11.23-5.89-14.83,2.6C253,67.23,252.4,72,249,75.44c2-6.4,2.4-13.41,6.58-18.92,2.66-3.53,6.87-3.06,10.56-1.78a13.88,13.88,0,0,0,14.58-2.67c7.42-6.17,12.56-5,14.35,3h0c-6-5.75-10.48-4-14.19-.29-.86.85-2.78,1.17-2.17,2.91.54,1.53,2.14,1.26,3.44,1.43a16,16,0,0,1,2.1.58c-7.47,5.72,4.19,4.45,2.36,8.39-3.24-1.4-4-.25-3.05,3.21,1.23,4.7.56,9.59.41,14.38-.09,3.17-.57,6.14,1.92,8.71,1.22,1.26,1.08,2.65-1,2.57-2.44-.1-3.76,1.83-6.36,3.39,1.41-6.36-1.31-10.79-3.92-15.28-1-1.72-2-3.53-.88-5.62,1.38.59,2.83,1.13,4.28.58,1.75-.67,3.9-.88,4.21-3.47.28-2.4-.93-3.63-2.93-4.47s-4.14-.89-5.85.91A5.68,5.68,0,0,0,272,77.07Zm4.12-14.53c-2.12.51-3.47,1.69-3.44,3.76s.74,3.65,3.08,3.73c2.54.08,3.6-1.73,3.62-3.8S277.73,63.21,276.09,62.54Zm6.24,21.09c.09-1.33-.34-2.4-2.15-2.42-1.56,0-3.07-.1-3.19,2.09-.08,1.59.47,2.57,2.19,2.6C280.71,85.93,282.32,86.1,282.33,83.63Z" transform="translate(0 0)"/><path class="cls-16" d="M229,36.09c-3.8.12-3.82.11-2-3.24,1.39-2.57-2.3-1.06-2-3,1.61-1.05,2.87-1,4.38.85a41.24,41.24,0,0,0,8.81,8.36c6,4,5.17,10.58,4.4,16.76-.7,5.68-5.06,9.89-5.83,15.81-3.61-2.81-6.77-5.19-9.83-7.68s-4.42-8.87-1.74-13.34C228,46,227.78,40.92,229,36.07l1-.17-.26-.48Zm7.14,16.23c2.9-.78,3.63-2.67,2.42-5.25-.75-1.61-2.23-2.82-4-1.92-2.49,1.26-1.78,3.53-1,5.61a8.16,8.16,0,0,0,.44.89c-1.59.23-3.43.11-3.22,2.59.18,2.18,1.8,1.92,3.24,1.92C237.05,56.18,236.11,54,236.18,52.32Z" transform="translate(0 0)"/><path class="cls-16" d="M230,121.05c-.38,2-1.91,3.29-3.35,2s-4.24-3.2-2.68-5.86c1.22-2.07.83-4,.94-6.09,1.52.59,2.71,2.65,4.72.91s1.13-3.8.56-5.81c2.51-.81,4.15-2.26,3-5.09a3.12,3.12,0,0,0-4-2c-2.45.88-3.77,2.63-2.46,5.4-3,1.45-2.13,4-1.8,6.39-2.86.11-5-.24-2.7-3.82.42-.65.87-1.75.61-2.31-2.06-4.37.37-7.11,4.13-9.74-4.28-1.48-6.24,2.1-9.85,2.74,1.46-3.08,2.31-5.92,4-8.16,2.1-2.81,4.51-6.37,8.74-2.4,1,.9,2.05.59,3.24.13,5.46-2.14,8.49-.23,8.88,5.58.14,2.09,0,4.2,0,6.75a8.81,8.81,0,0,1-1.9-.81c-1.52-1.4-3.12-4.75-4.8-3.37-2.51,2.06,1.49,3.12,2.32,4.78,1.85,3.73.52,9.29-2.29,12.47-2.11,2.39-2.25,6.3-5.32,8.24l-.35-.2Z" transform="translate(0 0)"/><path class="cls-16" d="M276,137.87c-.92,4.44-1.63,10.15-4.39,15.42-1.89,3.6-1.82,3.53-5.11,1.18-3.84-2.72-7.44-5.1-8.6-10.29-.8-3.59-1.21-6.74.54-10.06.55-1.06,1.93-2.31.67-3.54-1.1-1.08-2.5-.27-3.71.29-3,1.36-5.47,2-5.69-2.71-.17-3.59,1.94-4.92,4.58-3.69,3.24,1.52,4.71.69,7-1.69,2.82-2.94,8.89-1,11.54,3A22.94,22.94,0,0,1,276,137.87ZM268.14,141c3.42.07,6.26-.33,4.05-4.91,1-2.69,0-4.27-2.54-5.51a5.07,5.07,0,0,0-6,.69c-2.1,1.72-1.81,3.68-.44,5.7-1.77,1.3-3.68,2.57-2.78,5.22A3.69,3.69,0,0,0,263.7,145C266.42,145.14,267.34,143.1,268.14,141Z" transform="translate(0 0)"/><path class="cls-16" d="M220,135.05c-3.6-.58-5.06-5-9-5l-.36-.2.35.21c-1.8,1.41-4.19,2.08-3.51,5.51.53,2.67-3,2.93-4.41,4.51-.18-1.18-.37-2.37-.55-3.56,2.06-.46,3.29-1.66,2.92-3.85a1.71,1.71,0,0,0-2.34-1.26c-2.31.8-2.07,2.67-1.61,4.54-1.33.3-2.47.75-2.43,2.44,0,2,1.7,2,3,2.56-.49,4.46-3.68,7.68-5.62,11.41-1.27,2.45-2.79,4.72-3.4,7.47-.22,1-1.32,2.44-1.62,1.85-1.26-2.53-4,1.26-5.06-1.52-.55-1.52,0-2.14,1.06-3.17,5-4.79,7.11-11.27,9.49-17.52,1.42-3.73,1-8,4.27-11.26,1.82-1.8,1.17-4.4-2.08-5.15a85.67,85.67,0,0,1-11.14-3.2c5.28-1.25,10.18.32,14.52,2.75a89.46,89.46,0,0,0,11.42,5.71A9.56,9.56,0,0,1,220,135Z" transform="translate(0 0)"/><path class="cls-11" d="M272,77.07A5.68,5.68,0,0,1,273.4,73c1.71-1.8,3.7-1.81,5.85-.91s3.21,2.07,2.93,4.47c-.31,2.59-2.46,2.8-4.21,3.47-1.45.55-2.9,0-4.28-.58l-.07,0L272.2,77.7A.49.49,0,0,0,272,77.07Z" transform="translate(0 0)"/><path class="cls-12" d="M225,111c-.33-2.4-1.2-4.94,1.8-6.39l3.46,1.66c.57,2,1.51,4-.56,5.81s-3.2-.32-4.72-.91l-.06.06Z" transform="translate(0 0)"/><path class="cls-16" d="M266.75,71.92c1.55,3.56,1.6,5.7.47,10.74C265.3,78.79,266.08,75.35,266.75,71.92Z" transform="translate(0 0)"/><path class="cls-12" d="M202.57,136.51c.18,1.19.37,2.38.55,3.56-.34.3-.69.58-1,.87-1.28-.52-2.94-.58-3-2.56,0-1.69,1.1-2.14,2.42-2.44Z" transform="translate(0 0)"/><path class="cls-16" d="M261,70.83c1.41,2.81.62,4.19-.79,5.93C258.4,74.53,260.09,73.16,261,70.83Z" transform="translate(0 0)"/><path class="cls-16" d="M221,33.18c.9,0,1.82.28,1.51,1.34a2.74,2.74,0,0,1-1.56,1.68c-1.07.3-1.26-.84-1.42-1.58C219.26,33.49,220.11,33.26,221,33.18Z" transform="translate(0 0)"/><path class="cls-16" d="M265,65.07A4.72,4.72,0,0,1,262.52,69c-.1-2.37.52-3.59,2.51-3.94Z" transform="translate(0 0)"/><path class="cls-16" d="M290.1,62.71c.29,1-.13,1.18-.64,1.19a1.89,1.89,0,0,1-1.9-1.21c-.28-.72.07-1.4.85-1.17A5.65,5.65,0,0,1,290.1,62.71Z" transform="translate(0 0)"/><path class="cls-16" d="M296.8,57.52c.39.66.76,1,.8,1.4s-.38.84-.91.62a.91.91,0,0,1-.46-.74A4.64,4.64,0,0,1,296.8,57.52Z" transform="translate(0 0)"/><path class="cls-16" d="M272.2,77.7l1.42,1.71C272.26,79.58,272.19,78.67,272.2,77.7Z" transform="translate(0 0)"/><path class="cls-16" d="M224.63,39.3l-.3-.11a.84.84,0,0,1,.14-.32s.19.06.29.09Z" transform="translate(0 0)"/><path class="cls-16" d="M295,55.07l.35.2-.36-.19Z" transform="translate(0 0)"/><path class="cls-16" d="M220,135l.36.21-.36-.2Z" transform="translate(0 0)"/><path class="cls-11" d="M86.71,264.72c6.08,0,9.35,2.52,9.27,7.18-.08,4.39-3.45,7-9,7s-9.49-2.92-9.4-7.29S81.16,264.73,86.71,264.72Z" transform="translate(0 0)"/><path class="cls-11" d="M112.4,370c-5.53-.14-8.56-2.68-8.35-7,.16-3.57,4.15-6.53,8.66-6.42,4.69.12,9.2,3.57,9,6.92C121.55,367,117.13,370.11,112.4,370Z" transform="translate(0 0)"/><path class="cls-12" d="M103.63,338.25a7.89,7.89,0,0,1-7.82-7.85c.11-4.13,3.46-7.2,7.83-7.19,4.13,0,7.8,3.32,7.93,7.16C111.71,334.45,107.86,338.27,103.63,338.25Z" transform="translate(0 0)"/><path class="cls-11" d="M77.45,361.57c.4-3.86-.11-9.55,4.66-9.62,4.93-.08,4.21,5.71,4.72,9.51a10.87,10.87,0,0,1-.15,2.47c-.34,3.33-.64,7.64-4.66,7.55-3.44-.08-4.19-4.12-4.38-7.4C77.59,363.25,77.51,362.43,77.45,361.57Z" transform="translate(0 0)"/><path class="cls-12" d="M87.08,317c-.21,1.12-.52,2.58-.74,4.05a4,4,0,0,1-4.1,3.58,4.32,4.32,0,0,1-4.33-3.47,19.64,19.64,0,0,1-.37-6.92c.37-2.72,1.46-5.14,4.34-5.28,3.16-.16,4.51,2.25,4.85,5.19C86.82,315,86.93,315.82,87.08,317Z" transform="translate(0 0)"/><path class="cls-7" d="M121.73,391.29c1,4.26-.43,5.67-4.8,5.8-5.93.18-3.86-3.79-4.37-6.67-.75-4.17,1.82-4,4.72-4.23C121.44,385.9,122.93,387.45,121.73,391.29Z" transform="translate(0 0)"/><path class="cls-12" d="M140.12,356.82c.35,2.92-1.47,4.62-4.22,4.79-3.06.19-4.42-2.09-4.44-4.89s1-5.25,4-5.35S140.21,353.39,140.12,356.82Z" transform="translate(0 0)"/><path class="cls-12" d="M35.21,350.11c3.07.3,5.67,1.35,5.39,4.34a4.92,4.92,0,0,1-5.21,4.45c-3-.08-5.3-1.89-5.28-4.82S32.93,350.37,35.21,350.11Z" transform="translate(0 0)"/><path class="cls-11" d="M121.68,305c-.86,2.66-2.69,4.41-5.71,4.28a4.51,4.51,0,0,1-4.44-5c.16-3,2.78-3.87,5.5-3.62C119.47,300.91,121.56,301.81,121.68,305Z" transform="translate(0 0)"/><path class="cls-13" d="M82.25,295.08c0,1.1-1.58,1.92-3.58,1.91s-3.66-1.07-3.62-3.28a3.67,3.67,0,0,1,3.69-3.92C81,289.81,82.31,291.37,82.25,295.08Z" transform="translate(0 0)"/><path class="cls-7" d="M122.82,278.69c-1.38-.19-3.45.54-3.52-2s1.85-2.57,3.72-2.54c1.68,0,3.4-.14,3.38,2.34S124.54,278.63,122.82,278.69Z" transform="translate(0 0)"/><path class="cls-7" d="M96.48,351.29c.07,1.86-.94,2.59-2.78,2.51s-2.07-1.3-2.06-2.74c0-1.68.43-2.9,2.52-2.84S96.55,349.57,96.48,351.29Z" transform="translate(0 0)"/><path class="cls-13" d="M61.49,376.48c1.53.19,2.75.79,2.78,2.65,0,1.63-1,2.31-2.43,2.46-1.79.19-2.73-.66-2.73-2.51A2.42,2.42,0,0,1,61.49,376.48Z" transform="translate(0 0)"/><path class="cls-7" d="M145,316.51c2,.09,3.45-.06,3.51,1.88.05,1.73-.55,2.82-2.56,2.76-1.68-.06-2.92-.38-2.87-2.45C143.12,317,144.11,316.44,145,316.51Z" transform="translate(0 0)"/><path class="cls-13" d="M131.63,379.56c-.2,1.7-1.43,2.06-2.84,2.08s-2.36-.45-2.49-1.85c-.16-1.72,1.09-2.29,2.52-2.34S131.44,377.85,131.63,379.56Z" transform="translate(0 0)"/><path class="cls-11" d="M45.71,302.88a2.33,2.33,0,0,1-2.52,2.39,2.26,2.26,0,0,1-2.59-2.36c-.1-1.43,1-2.09,2.22-2.19A2.41,2.41,0,0,1,45.71,302.88Z" transform="translate(0 0)"/><path class="cls-7" d="M103.51,283.9c-1.84,0-2.09-1.24-2.1-2.69,0-1.61.64-2.44,2.35-2.45,2.09,0,2.42,1.22,2.35,2.93S105.09,284,103.51,283.9Z" transform="translate(0 0)"/><path class="cls-7" d="M41.74,278.7c1.37.45,3.77-.88,3.9,1.58.11,2.05-2,1.73-3.39,1.59-1.55-.16-4.17,1-4.1-1.83C38.2,277.94,40.48,279.11,41.74,278.7Z" transform="translate(0 0)"/><path class="cls-13" d="M53.92,316.92c.33-1.13,0-3,1.89-2.79,1.31.14,1.47,1.63,1.46,2.83,0,1.36-.09,3.16-1.65,3.16S54.08,318.27,53.92,316.92Z" transform="translate(0 0)"/><path class="cls-7" d="M64.4,299c-.09,1.93-1.48,1.85-2.84,1.87-1.54,0-2.58-.38-2.52-2.2.07-2,1.52-1.79,2.83-1.84C63.4,296.79,64.51,297.2,64.4,299Z" transform="translate(0 0)"/><path class="cls-11" d="M31.45,334c-1.73-2.22-1.88-4.49-.17-7.56C32.69,329.38,31.94,331.69,31.45,334Z" transform="translate(0 0)"/><path class="cls-13" d="M137.92,338.08a1.81,1.81,0,0,1,2.06,1.65c.18,1.49-.72,2-2,2.12-1.12.07-2-.34-2.06-1.54C135.77,338.92,136.58,338.22,137.92,338.08Z" transform="translate(0 0)"/><path class="cls-7" d="M368,422.09c5.09-.39,10.36-.08,15.22-1.35,5.34-1.39,6.18,1.28,6.73,5.19l-19.92,4.14C369.66,427.34,367.93,425,368,422.09Z" transform="translate(0 0)"/><path class="cls-10" d="M341.8,434.08,357,431l1.08,8.91c-3.46.05-6.94-.14-10.36.22C342.93,440.6,340.92,438.87,341.8,434.08Z" transform="translate(0 0)"/><path class="cls-10" d="M386.21,318.57q-.1,11.7-.2,23.4l-14.12-.07c7.37-3.7,6-10.5,6-16.83,0-1.3.1-2.75-1.81-2.9.52-4,2.83-6.88,5.95-9.22C384.22,314.21,388.5,313.93,386.21,318.57Z" transform="translate(0 0)"/><path class="cls-2" d="M376.05,322.17c1.91.15,1.8,1.6,1.81,2.9.05,6.33,1.4,13.13-6,16.83-3.15,1.44-6.48.54-10.83,1C365.92,335.23,369.65,327.8,376.05,322.17Z" transform="translate(0 0)"/><path class="cls-7" d="M348,333.09a6.58,6.58,0,0,0,.42-1.89c-.21-3,6.16-3.58,3-7.33-1.9-2.28-4.79-3.75-7.23-5.58a9.5,9.5,0,0,0,1.87-.6c2.31-1.25,4.18-3.78,7-3.55,3.1.26,3.33,3.71,4.88,5.7a2.93,2.93,0,0,0,3,1.19A62.23,62.23,0,0,0,353,332Z" transform="translate(0 0)"/><path class="cls-7" d="M340,350a6.86,6.86,0,0,1-2.07-4.09c1.19-5.43,4.93-8.91,9.17-12,.32,1,.63,2.08.95,3.12A30.71,30.71,0,0,1,340,350Z" transform="translate(0 0)"/><path class="cls-15" d="M367,310.88c-3.17-.74-4-3.06-4.7-6-.8-3.3,1.46-3.07,3.23-3.63,2.15-.69,3.54-.54,3.19,2.4-.26,2.17,1.81.88,2.69,1.43C370.12,307.16,369.23,309.53,367,310.88Z" transform="translate(0 0)"/><path class="cls-7" d="M389,368c-2.32.11-3.08-1.13-3-3.28s0-4.49,0-6.73l3,0c0,2.7.07,5.39.1,8.09Z" transform="translate(0 0)"/><path class="cls-2" d="M389.52,341.69v-8.76c1,3,2.63,5.82,1.32,9Z" transform="translate(0 0)"/><path class="cls-7" d="M391.07,357.94h4.22c-.8,3.05-2.71,4.94-4.16,7.08Z" transform="translate(0 0)"/><path class="cls-10" d="M348.06,337c-.32-1-.63-2.08-.95-3.12l.85-.84,5-1.12C351.5,333.81,351,336.58,348.06,337Z" transform="translate(0 0)"/><path class="cls-10" d="M391.07,357.94l.06,7.08a2.26,2.26,0,0,1-2,1c0-2.7-.06-5.39-.1-8.09Z" transform="translate(0 0)"/><path class="cls-10" d="M401.47,320.55c.17,1.15.34,2.3.52,3.44-4.32-.32-8.85.83-12.87-1.73C392.9,319.28,397.19,320,401.47,320.55Z" transform="translate(0 0)"/><path class="cls-5" d="M379.4,278.18c-.12,3.18,1.57,5.75,2.12,8.45-1.62.94-3.1.36-4.55.31a1.93,1.93,0,0,1-1.49-3.36C377.77,282.37,377.66,279.79,379.4,278.18Z" transform="translate(0 0)"/><path class="cls-5" d="M415.67,299c-2.84-.65-5.18-1.89-4.51-5.25.29-1.48,2.87-2.56,3.38-2.05C416.48,293.61,416.71,296.26,415.67,299Z" transform="translate(0 0)"/><path class="cls-5" d="M386.29,278.64c1.29-1.38,1.28-4.63,3.06-3.63,1.22.68,4.82,2.34,3.56,4.23C391.84,280.85,388.78,279,386.29,278.64Z" transform="translate(0 0)"/><path class="cls-5" d="M416.69,300.07c3.94.36,1.21,5.95,6.58,6.29C415.83,307.86,413.42,306.22,416.69,300.07Z" transform="translate(0 0)"/><path class="cls-5" d="M364.08,279.19l-.07-1.05a5.16,5.16,0,0,0,1.95.05c3-1.16,5,1.33,5.67,2.92s-2.49,1.81-3.81,2.85l-.68.07C368.6,280.85,367.7,279.15,364.08,279.19Z" transform="translate(0 0)"/><path class="cls-5" d="M407.07,319l-4.8.7c-.1-1.9-.2-3.8-.3-5.76C405.74,313.76,405.2,317.55,407.07,319Z" transform="translate(0 0)"/><path class="cls-5" d="M389.54,288.63c1.15.88,2.63,1.54,3.28,2.68.49.85-.69,1.68-1.81,1.57-1.41-.13-2.56-.76-2.74-2.32A2.06,2.06,0,0,1,389.54,288.63Z" transform="translate(0 0)"/><path class="cls-5" d="M389.77,314c.86-2.48,1-4.56,3.47-4.91.82-.12.87.57.93,1.3C394.41,313.13,392.63,313.53,389.77,314Z" transform="translate(0 0)"/><path class="cls-15" d="M364.08,279.19c3.62,0,4.52,1.66,3.06,4.84C362.28,284.85,361.92,282.82,364.08,279.19Z" transform="translate(0 0)"/><path class="cls-2" d="M342,425.93l-14.75,2.83c-1-3.41,0-5.13,3.79-4.66S338.69,423,342,425.93Z" transform="translate(0 0)"/><path class="cls-12" d="M184.38,55c0-1.13-.45-2.31.28-3.36,1.64-2.33,3.8-3,6.44-1.87,1.81.79,3.24,2.08,2.58,4.18-.86,2.73-3.31,2.84-5.7,2.69a6,6,0,0,1-3.54-1.6Z" transform="translate(0 0)"/><path class="cls-13" d="M184.38,55l.06,0c.17,1.17.34,2.34.52,3.5l0-.06a16.37,16.37,0,0,1-2.2,1.9,3.8,3.8,0,0,1-4.94-.77,2.93,2.93,0,0,1-.27-4.06c1.16-1.33,2.51-2.75,4.63-1.69C182.94,54.22,183.66,54.62,184.38,55Z" transform="translate(0 0)"/><path class="cls-7" d="M185,58.48l0,.06a15.8,15.8,0,0,1,1.92-.26c1.72,0,3.81-.62,4,2.17.11,1.69-.84,2.24-2.39,2.33-2.44.16-3.75-.69-3.39-3.33A4.1,4.1,0,0,0,185,58.48Z" transform="translate(0 0)"/><path class="cls-14" d="M176.72,72.14c-.13.67-.46,1.3-1.17,1.24a1.49,1.49,0,0,1-1.32-1.66c0-.68.3-1.32,1.08-1.2A1.59,1.59,0,0,1,176.72,72.14Z" transform="translate(0 0)"/><path class="cls-13" d="M276.09,62.54c1.64.67,3.29,1.74,3.26,3.69s-1.08,3.88-3.62,3.8c-2.34-.08-3.06-1.8-3.08-3.73S274,63.05,276.09,62.54Z" transform="translate(0 0)"/><path class="cls-7" d="M282.33,83.63c0,2.47-1.62,2.3-3.15,2.27-1.72,0-2.27-1-2.19-2.6.12-2.19,1.63-2.1,3.19-2.09C282,81.23,282.42,82.3,282.33,83.63Z" transform="translate(0 0)"/><path class="cls-12" d="M234,51.65a8.16,8.16,0,0,1-.44-.89c-.74-2.08-1.45-4.35,1-5.61,1.75-.9,3.23.31,4,1.92,1.21,2.58.48,4.47-2.42,5.25Z" transform="translate(0 0)"/><path class="cls-7" d="M234,51.65l2.16.67c-.07,1.64.87,3.86-2.14,3.84-1.44,0-3.06.26-3.24-1.92C230.59,51.76,232.43,51.88,234,51.65Z" transform="translate(0 0)"/><path class="cls-14" d="M229,36.09l.69-.67.26.48-1,.17Z" transform="translate(0 0)"/><path class="cls-13" d="M230.23,106.24l-3.46-1.66c-1.31-2.77,0-4.52,2.46-5.4a3.12,3.12,0,0,1,4,2C234.38,104,232.74,105.43,230.23,106.24Z" transform="translate(0 0)"/><path class="cls-14" d="M230,121.05l-.35-.2.35.2Z" transform="translate(0 0)"/><path class="cls-11" d="M263.24,137c-1.37-2-1.66-4,.44-5.7a5.07,5.07,0,0,1,6-.69c2.57,1.24,3.54,2.82,2.54,5.51-1.53,1.29-4.25-.39-5.28,2.13Z" transform="translate(0 0)"/><path class="cls-13" d="M263.24,137l3.67,1.25,1.23,2.78c-.8,2.09-1.72,4.13-4.44,3.94a3.69,3.69,0,0,1-3.24-2.75C259.56,139.55,261.47,138.28,263.24,137Z" transform="translate(0 0)"/><path class="cls-7" d="M268.14,141l-1.23-2.78c1-2.52,3.75-.84,5.28-2.13C274.4,140.68,271.56,141.08,268.14,141Z" transform="translate(0 0)"/><path class="cls-13" d="M202.57,136.51l-1-.57c-.45-1.87-.69-3.74,1.62-4.54a1.71,1.71,0,0,1,2.34,1.26C205.86,134.85,204.63,136.05,202.57,136.51Z" transform="translate(0 0)"/><path class="cls-14" d="M211,130.05l-.35-.21.36.2Z" transform="translate(0 0)"/></svg>