<?xml version="1.0" encoding="utf-8"?>
<!-- Generator: Adobe Illustrator 24.3.0, SVG Export Plug-In . SVG Version: 6.00 Build 0)  -->
<svg version="1.1" id="Layer_1" xmlns="http://www.w3.org/2000/svg" xmlns:xlink="http://www.w3.org/1999/xlink" x="0px" y="0px"
	 viewBox="0 0 3061.4 3061.4" style="enable-background:new 0 0 3061.4 3061.4;" xml:space="preserve">
<style type="text/css">
	.st0{fill:#C2191A;}
	.st1{fill:#304090;}
	.st2{fill:#F5C21D;}
	.st3{fill:#EDEDEC;}
	.st4{fill:#333333;}
</style>
<g>
	<circle class="st0" cx="1516" cy="627.6" r="348.9"/>
	<polygon class="st1" points="1215.9,971 1813.6,971 1514.8,1496 	"/>
	<ellipse class="st0" cx="1512" cy="1756.3" rx="263" ry="260.3"/>
	<polygon class="st2" points="1777.8,1779.2 1514.8,1779.2 1514.8,2782.4 	"/>
	<polyline class="st1" points="1512,2782.4 1249,1779.2 1512,1779.2 	"/>
	<ellipse class="st0" cx="2160.7" cy="1420.2" rx="493.8" ry="486.4"/>
	<ellipse cx="2102.7" cy="1420.2" rx="435.7" ry="429.2"/>
	<ellipse class="st1" cx="2057.8" cy="1436.2" rx="366.7" ry="361.2"/>
	<ellipse class="st2" cx="1932.8" cy="1453.4" rx="246.8" ry="268.8"/>
	<ellipse class="st3" cx="1836.3" cy="1436.2" rx="140.3" ry="152.9"/>
	<ellipse class="st0" cx="870.5" cy="1420.2" rx="493.8" ry="486.4"/>
	<ellipse cx="928.5" cy="1420.2" rx="435.7" ry="429.2"/>
	<ellipse class="st1" cx="973.4" cy="1436.2" rx="366.7" ry="361.2"/>
	<ellipse class="st2" cx="1098.4" cy="1453.4" rx="246.8" ry="268.8"/>
	<ellipse class="st3" cx="1194.9" cy="1436.2" rx="140.3" ry="152.9"/>
	<path class="st3" d="M1428.6,833.3c0,0-3.9-58.9,53.3-64.5c57.2-5.6,107.8-3,117.4,48.1c9.5,51.1,27.3,124.3-39.4,151.6
		c-66.7,27.3-132.1-20.8-136-55S1428.6,833.3,1428.6,833.3z"/>
	<path class="st4" d="M1534.2,822.5c-1.3-0.3,30.8-27.3,47.2,0C1581.5,822.5,1557.6,828.5,1534.2,822.5z"/>
	<path class="st4" d="M1503.6,822.5c1.3-0.3-30.8-27.3-47.2,0C1456.4,822.5,1480.2,828.5,1503.6,822.5z"/>
	<path class="st4" d="M1536.4,842.8c0,0,39-19.9,47.2,0c0,0-5.7,10-25.8,0C1557.8,842.8,1547.2,841.1,1536.4,842.8z"/>
	<path class="st4" d="M1499.2,842.8c0,0-39-19.9-47.2,0c0,0,5.7,10,25.8,0C1477.7,842.8,1488.3,841.1,1499.2,842.8z"/>
	<ellipse class="st4" cx="1525.8" cy="880.2" rx="6.5" ry="8.7"/>
	<ellipse class="st4" cx="1505.7" cy="880.2" rx="6.5" ry="8.7"/>
	<path class="st4" d="M1503.4,910.3c7-3.1,18.3-5.5,28.9,4c0,0,1.5,11.3-13,4.8c0,0-2.8-6.5-7.2,0.4c-1.9,3.1-5.2,3.5-8.3,2.5
		C1498.4,920.1,1498.1,912.6,1503.4,910.3z"/>
	<circle class="st1" cx="1314.2" cy="756.2" r="128.6"/>
	<circle class="st2" cx="1712.3" cy="756.2" r="128.6"/>
	<circle cx="1516" cy="614.7" r="141.5"/>
	<polygon class="st2" points="1816.3,971 2429.6,955.4 1686,1554.3 	"/>
	<polygon class="st2" points="1344.9,1554.3 1214.6,971 601.3,955.4 	"/>
</g>
</svg>
