<?xml version="1.0" encoding="utf-8"?>
<!-- Generator: Adobe Illustrator 24.1.1, SVG Export Plug-In . SVG Version: 6.00 Build 0)  -->
<svg version="1.1" id="Layer_1" xmlns="http://www.w3.org/2000/svg" xmlns:xlink="http://www.w3.org/1999/xlink" x="0px" y="0px"
	 viewBox="0 0 3061.42 3061.42" style="enable-background:new 0 0 3061.42 3061.42;" xml:space="preserve">
<style type="text/css">
	.st0{fill:#F0DDDD;}
	.st1{fill:#EDBCBD;}
	.st2{fill:#F9F9F9;}
	.st3{fill:none;stroke:#262626;stroke-width:3;stroke-miterlimit:10;}
	.st4{fill:#979897;}
	.st5{fill:#F2C4A2;}
	.st6{fill:#253C74;}
	.st7{fill:#505656;}
	.st8{fill:#B1B1B1;}
	.st9{fill:#E6ADBB;}
	.st10{fill:#635CA3;}
	.st11{fill:none;stroke:#040505;stroke-miterlimit:10;}
	.st12{fill:#FCC933;}
	.st13{fill:#D2D6D6;}
	.st14{fill:#FCC52F;}
	.st15{fill:#2B4182;}
	.st16{fill:#F4CA39;}
	.st17{fill:#3C2415;}
	.st18{fill:#0F1313;}
	.st19{fill:none;}
	.st20{fill:#E84F82;}
	.st21{font-family:'GENISO';}
	.st22{font-size:165.1199px;}
	.st23{fill:none;stroke:#F7F7F6;stroke-width:9;stroke-miterlimit:10;}
	.st24{fill:none;stroke:#F6F6F1;stroke-width:9;stroke-miterlimit:10;}
</style>
<rect x="-2.85" y="-0.13" class="st0" width="3061.42" height="3061.42"/>
<g>
	<path class="st1" d="M2357.95,1989.59l-120.79,218.7c-1.01,1.83-3.07,2.56-4.68,1.67l-387.28-213.89
		c-0.92-0.51-1.18-1.67-0.68-2.59l121.65-220.27c32.67-59.15,82.84-101.81,138.3-122.98l0.07-0.13
		c59.23-22.84,124.22-21.53,180.11,9.33c44.25,24.44,75.77,63.48,93.06,109.5C2402.83,1835.63,2398.05,1916.99,2357.95,1989.59z"/>
	<path class="st0" d="M2230.68,2213.23l-387.29-213.89c-2.48-1.37-3.26-4.7-1.75-7.44l121.65-220.27
		c31.9-57.76,81.23-101.85,139.02-124.3l1.38-0.62c62.9-24.25,127.8-20.89,182.76,9.46c43.48,24.01,76.13,62.43,94.42,111.12
		c26.71,70.86,19.4,152.47-20.05,223.89l-120.79,218.7C2238.03,2213.54,2233.91,2215.01,2230.68,2213.23z M1848.27,1993.51
		l386.01,213.19l120.79-218.7c38.3-69.34,45.39-148.59,19.46-217.4c-17.76-47.27-49.46-84.58-91.68-107.89
		c-52.98-29.26-115.48-32.69-176.15-9.69l-1.39,0.63c-56.65,21.63-105.04,64.66-136.25,121.17L1848.27,1993.51z"/>
	<path class="st1" d="M1972.29,2072.89L1863,2391.99l-28.98-70.87l-36.16-88.64l-36.2-88.83l207.26-74.46
		C1971.18,2068.38,1973.11,2070.5,1972.29,2072.89z"/>
	<path class="st0" d="M1863.14,2401.75l-106.15-260.14l211.17-75.85c2.25-0.8,4.59-0.28,6.15,1.4c1.54,1.68,1.99,4.24,1.17,6.65
		l-0.01,0.01L1863.14,2401.75z M1766.33,2145.67l96.52,236.55l106.04-309.6L1766.33,2145.67z M1969.11,2071.99l-0.01,0.01
		L1969.11,2071.99z"/>
	<path class="st1" d="M2153.65,2359.62l-94.54,16.8l-94.47,16.67l-75.49,13.35l210.88-261.19c2.02-2.5,5.61-1.87,6.27,1.1
		L2153.65,2359.62z"/>
	<path class="st0" d="M1880.79,2411.53l216.77-268.48c1.79-2.22,4.47-3.34,7-2.89c2.53,0.38,4.46,2.35,5.05,5l48.26,217.33
		L1880.79,2411.53z M2102.99,2147.53l-205.45,253.8l251.9-44.58L2102.99,2147.53z"/>
	<polyline class="st1" points="1863,2391.99 1974.21,2067.29 2104.76,2139.39 1889.15,2406.43 1835.25,2473.27 1863,2391.99 	"/>
	<path class="st0" d="M1826.08,2489.91l146.42-427.82l137.56,75.98L1826.08,2489.91z M1866.17,2392.91l-21.75,63.73l255.02-315.93
		l-123.52-68.22L1866.17,2392.91z"/>
	<path class="st1" d="M2178.13,1581.67c0.94,0.69,0.91,2.22-0.06,3.08l-73.46,65.36l-0.07,0.13
		c-55.17,21.07-105.12,63.4-137.79,122.07c-0.32,0.57-0.76,0.94-1.35,1.03c-15.84,2.27-250.3,35.84-274.7,39.33
		c-1.09,0.16-1.96-0.74-1.85-1.9l49.1-549.92L2178.13,1581.67z"/>
	<path class="st0" d="M1687.89,1815.76c-0.38-0.21-0.74-0.47-1.04-0.79c-1.02-1.03-1.53-2.54-1.39-4.13l49.71-556.62l445.07,324.38
		c1.3,0.94,2.02,2.48,1.99,4.24c-0.04,1.74-0.82,3.42-2.16,4.6l-73.29,65.57l-1.39,0.63c-56.33,21.51-104.55,64.22-135.76,120.28
		c-0.94,1.7-2.46,2.8-4.17,3.02l-274.66,39.34C1689.76,1816.42,1688.75,1816.23,1687.89,1815.76z M1740.74,1267.47l-48.34,541.35
		l271.94-38.96c32.02-57.08,81.19-100.61,138.6-122.75l71.44-63.58L1740.74,1267.47z M1965.31,1769.74c-0.02,0.01-0.03,0-0.05,0.01
		L1965.31,1769.74z M2176.06,1582.05l-0.01,0.01L2176.06,1582.05z"/>
	<path class="st1" d="M1964.73,1775.95l-119.96,217.21c-0.55,1-1.8,1.23-2.47,0.45l-151.67-178.31c-0.81-0.95-0.14-2.59,1.13-2.77
		l271.64-38.89C1964.61,1773.45,1965.38,1774.78,1964.73,1775.95z"/>
	<path class="st0" d="M1840.87,1997.17c-0.45-0.25-0.85-0.59-1.19-0.98l-151.67-178.31c-1.2-1.41-1.47-3.49-0.68-5.42
		c0.79-1.93,2.46-3.28,4.35-3.54l271.62-38.9c1.83-0.25,3.54,0.56,4.41,2.14c0.9,1.58,0.87,3.64-0.1,5.39l-119.96,217.2
		c-0.84,1.52-2.29,2.6-3.86,2.87C1842.75,1997.81,1841.73,1997.65,1840.87,1997.17z M1844.92,1991.01l0.01,0.01L1844.92,1991.01z
		 M1695.7,1815.58l147.57,173.49L1960,1777.72L1695.7,1815.58z M1691.88,1816.12l-0.01-0.01
		C1691.86,1816.12,1691.86,1816.12,1691.88,1816.12z"/>
	<path class="st1" d="M2469.87,2245.38l-233.11-33.62c-0.66-0.09-0.97-0.86-0.61-1.51l121.86-220.65l113.2,253.91
		C2471.62,2244.4,2470.82,2245.51,2469.87,2245.38z"/>
	<path class="st0" d="M2234.67,2214.93c-0.75-0.42-1.37-1.11-1.72-1.96c-0.55-1.34-0.43-2.95,0.33-4.31l125.23-226.75l115.8,259.76
		c0.72,1.65,0.47,3.62-0.66,5.19c-1.12,1.55-2.87,2.36-4.58,2.12l-233.1-33.63C2235.51,2215.3,2235.07,2215.15,2234.67,2214.93z
		 M2237.59,2208.16c-0.02-0.01-0.05-0.01-0.08-0.01L2237.59,2208.16z M2357.54,1997.28l-116.72,211.33l225.43,32.53L2357.54,1997.28
		z"/>
	<path class="st1" d="M2455.65,1727.6l-170.93-68.16c-55.89-30.86-120.88-32.17-180.11-9.33l75.39-67.08l121.09-107.61l44.85,73.17
		L2455.65,1727.6z"/>
	<path class="st0" d="M2088.34,1660.1l213.74-190.03l162.45,265.07l-181.27-72.29c-53.7-29.63-116.73-32.89-177.78-9.35
		L2088.34,1660.1z M2300.11,1480.76l-180.42,160.39c57.83-17.95,116.51-12.78,166.84,15.02l160.24,63.87L2300.11,1480.76z"/>
	<path class="st1" d="M2454.08,1725.04c0.33,0.54,1.16,0.11,1.05-0.54l-32.86-197.32c-4.25-25.52-13.07-49.31-25.85-70
		c-15.75-25.4-37.16-46.25-63.2-60.64l-121.8-67.27l89.67,146.14l44.85,73.17L2454.08,1725.04z"/>
	<path class="st0" d="M2452.45,1728.47c-0.51-0.28-0.94-0.67-1.26-1.2l-250.16-408l133.99,74c26.29,14.52,47.91,35.26,64.3,61.7
		c13.12,21.24,21.97,45.2,26.31,71.21l33.34,200.19l-3,2.07C2454.78,1729.08,2453.48,1729.04,2452.45,1728.47z M2221.82,1339.28
		l227.42,370.94l-30.32-182.05c-4.19-25.13-12.73-48.26-25.4-68.77c-15.82-25.51-36.73-45.58-62.11-59.6L2221.82,1339.28z"/>
	<polygon class="st1" points="1797.82,2232.42 1745.26,2327.58 1834.04,2321.13 	"/>
	<path class="st0" d="M1739.27,2331.62l59.15-107.11l40.78,99.85L1739.27,2331.62z M1797.2,2240.35l-45.94,83.19l77.6-5.65
		L1797.2,2240.35z"/>
	<path class="st1" d="M1834.04,2321.13l-43.75,79.21l65.27-7.4c3.55-0.4,5.95-4.5,4.59-7.83L1834.04,2321.13z"/>
	<path class="st0" d="M1784.14,2404.66l50.51-91.45l28.65,70.15c1.08,2.64,0.79,5.8-0.77,8.46c-1.55,2.65-4.16,4.42-6.96,4.74
		L1784.14,2404.66z M1833.42,2329.04l-37,66.99l59.13-6.7c0.73-0.08,1.14-0.6,1.31-0.89c0.18-0.3,0.43-0.91,0.15-1.6
		L1833.42,2329.04z"/>
	<path class="st1" d="M1964.63,2393.14l-43.77,79.26l-29.07-60.41c-1.26-2.62,0.52-6.06,3.41-6.57L1964.63,2393.14z"/>
	<path class="st0" d="M1920.47,2479.89l-31.74-65.99c-1.08-2.26-0.99-5.07,0.26-7.49c1.27-2.43,3.5-4.14,5.99-4.58l76.02-13.44
		L1920.47,2479.89z M1958.25,2397.88l-62.83,11.11l-0.56,1.07l26.38,54.84L1958.25,2397.88z"/>
	<polygon class="st1" points="2059.1,2376.47 2006.68,2471.39 1964.63,2393.14 	"/>
	<path class="st0" d="M2006.47,2478.59l-47.35-88.1l106.37-18.76L2006.47,2478.59z M1970.14,2395.78l36.76,68.41l45.82-82.97
		L1970.14,2395.78z"/>
	<path class="st1" d="M2913.27,1909.97l-438.86,334.06c-1.18,0.89-2.71,0.56-3.28-0.71l-113.12-253.73
		c40.09-72.6,44.88-153.96,19.76-220.65c-17.29-46.02-48.81-85.06-93.06-109.5l170.93,68.16l0.12,0.06L2913.27,1909.97z"/>
	<path class="st0" d="M2470.2,2247.55c-0.93-0.52-1.69-1.35-2.15-2.38l-113.87-255.42l0.96-1.75
		c38.29-69.33,45.39-148.57,19.46-217.4c-17.77-47.27-49.47-84.58-91.68-107.89l3.28-6.68l634.17,252.77l-444.18,338.11
		c-1.38,1.05-3.07,1.48-4.63,1.15C2471.08,2247.95,2470.62,2247.78,2470.2,2247.55z M2472.65,2241.15L2472.65,2241.15
		L2472.65,2241.15z M2361.86,1989.43l111.86,250.89l432.47-329.18l-590.3-235.26c28.94,23.32,51.15,54.39,65.07,91.42
		C2407.43,1837.6,2400.46,1918.44,2361.86,1989.43z"/>
	
		<ellipse transform="matrix(0.4835 -0.8754 0.8754 0.4835 -530.0878 2864.4868)" class="st1" cx="2162.13" cy="1881.4" rx="105.65" ry="93.24"/>
	<path class="st0" d="M2109.25,1977.16c-46.6-25.74-60.78-89.63-31.62-142.43c29.15-52.79,90.79-74.81,137.39-49.07
		c46.59,25.73,60.77,89.62,31.62,142.41C2217.47,1980.87,2155.84,2002.89,2109.25,1977.16z M2211.41,1792.19
		c-43.42-23.98-100.85-3.47-128.02,45.73c-27.18,49.21-13.96,108.74,29.47,132.72c43.41,23.98,100.84,3.46,128.02-45.75
		C2268.04,1875.7,2254.82,1816.16,2211.41,1792.19z"/>
</g>
<polygon class="st2" points="928.71,1196.01 744.97,2611.9 1759.5,2611.9 1895.31,1196.01 "/>
<line class="st3" x1="286.11" y1="2612.44" x2="2323.16" y2="2612.44"/>
<path class="st4" d="M1907.82,1195.94c-2.32,24.2,151.78,1415.41,151.78,1415.41l-300.09,0.55L1907.82,1195.94z"/>
<path class="st5" d="M1567.9,872.01v79.54c0,0-190.58,36.59-221.07,50.91c0,0-24.77,6.36-11.43,11.14s91.48,20.68,104.82,0
	l9.46,10.35c0,0,165.87-0.8,173.49-26.26s17.15-128.86,17.15-128.86L1567.9,872.01z"/>
<path class="st5" d="M1412.82,827.47c0,0-23.86,116.13-20.68,128.86c0,0-74.77,15.91-87.5,23.86l6.36,15.91l84.32,6.36l47.27-22.27
	l12.72-68.41v-68.54L1412.82,827.47z"/>
<path class="st6" d="M1484.04,1023.95c0,0-367.88,48.86-276.3,171.98h250.17l69.85-173.53L1484.04,1023.95z"/>
<path class="st7" d="M1143.96,1023.95l-65.23,171.98c0,0,79.54,0,81.14,0c1.59,0,62.04-155.28,62.04-155.28h110.74l78.66,155.28
	h43.99l15.16-38.04l-68.78-133.94H1143.96z"/>
<path class="st8" d="M1250.55,856.11h-143.18c0,0-15.91-4.77-11.14,12.73c4.77,17.5,65.23,153.57,65.23,153.57l240.22,1.55
	l-6.36-21.48L1311,996.1C1311,996.1,1263.27,856.11,1250.55,856.11z"/>
<path class="st9" d="M1499.29,1554.5v44.54c0,0-26.96,33.41-43.99,54.09c-17.03,20.68,6.83,50.91,30.7,31.82
	c23.86-19.09,65.7-76.36,65.7-76.36l-2.07-54.09H1499.29z"/>
<polygon class="st10" points="928.71,1196.01 1907.82,1195.93 1882.24,1426.2 900.54,1426.2 "/>
<line class="st11" x1="1207.59" y1="1195.93" x2="1455.3" y2="1195.93"/>
<polygon class="st12" points="1171.04,1708.05 973.31,1708.05 938.45,1941.44 1133.81,1941.44 "/>
<polygon class="st13" points="1276.63,1828.32 1202.66,1828.32 1189.62,1915.64 1262.7,1915.64 "/>
<polygon class="st13" points="1376.16,1828.32 1302.18,1828.32 1289.14,1915.64 1362.23,1915.64 "/>
<polygon class="st13" points="1476.12,1828.32 1402.14,1828.32 1389.1,1915.64 1462.19,1915.64 "/>
<polygon class="st13" points="1576.82,1828.32 1502.84,1828.32 1489.8,1915.64 1562.89,1915.64 "/>
<polygon class="st13" points="1672.54,1828.32 1598.56,1828.32 1585.52,1915.64 1658.61,1915.64 "/>
<polygon class="st13" points="1643.13,1984.23 1569.15,1984.23 1556.11,2071.54 1629.2,2071.54 "/>
<polygon class="st13" points="1741.88,1984.23 1667.9,1984.23 1654.86,2071.54 1727.95,2071.54 "/>
<polygon class="st13" points="1765.78,1828.32 1691.81,1828.32 1678.77,1915.64 1751.86,1915.64 "/>
<polygon class="st13" points="1008.52,1984.23 934.54,1984.23 921.5,2071.54 994.59,2071.54 "/>
<polygon class="st13" points="1119.03,1984.23 1045.06,1984.23 1032.02,2071.54 1105.11,2071.54 "/>
<polygon class="st13" points="1224.41,1984.23 1150.43,1984.23 1137.39,2071.54 1210.48,2071.54 "/>
<polygon class="st13" points="1334.24,1984.23 1260.26,1984.23 1247.22,2071.54 1320.31,2071.54 "/>
<polygon class="st13" points="1446.71,1984.23 1372.73,1984.23 1359.69,2071.54 1432.78,2071.54 "/>
<polygon class="st13" points="1549.11,1984.23 1475.14,1984.23 1462.1,2071.54 1535.18,2071.54 "/>
<polygon class="st13" points="1629.03,2140.13 1555.06,2140.13 1542.01,2227.45 1615.1,2227.45 "/>
<polygon class="st13" points="1727.78,2140.13 1653.8,2140.13 1640.76,2227.45 1713.85,2227.45 "/>
<polygon class="st13" points="994.42,2140.13 920.45,2140.13 907.41,2227.45 980.49,2227.45 "/>
<polygon class="st13" points="1104.94,2140.13 1030.96,2140.13 1017.92,2227.45 1091.01,2227.45 "/>
<polygon class="st13" points="1210.31,2140.13 1136.33,2140.13 1123.29,2227.45 1196.38,2227.45 "/>
<polygon class="st13" points="1320.14,2140.13 1246.16,2140.13 1233.12,2227.45 1306.21,2227.45 "/>
<polygon class="st13" points="1432.61,2140.13 1358.64,2140.13 1345.59,2227.45 1418.68,2227.45 "/>
<polygon class="st13" points="1535.01,2140.13 1461.04,2140.13 1448,2227.45 1521.09,2227.45 "/>
<polygon class="st13" points="1604.56,2289.68 1530.58,2289.68 1517.54,2376.99 1590.63,2376.99 "/>
<polygon class="st13" points="1703.31,2289.67 1629.33,2289.67 1616.29,2376.48 1689.38,2376.48 "/>
<polygon class="st13" points="969.95,2289.68 895.97,2289.68 882.93,2376.99 956.02,2376.99 "/>
<polygon class="st13" points="950.33,2426.15 876.36,2426.15 863.32,2513.46 936.41,2513.46 "/>
<polygon class="st13" points="1080.46,2289.68 1006.49,2289.68 993.45,2376.99 1066.53,2376.99 "/>
<polygon class="st13" points="1185.83,2289.68 1111.86,2289.68 1098.82,2376.99 1171.91,2376.99 "/>
<polygon class="st13" points="1295.67,2289.68 1221.69,2289.68 1208.65,2376.99 1281.74,2376.99 "/>
<polygon class="st13" points="1408.14,2289.68 1334.16,2289.68 1321.12,2376.99 1394.21,2376.99 "/>
<polygon class="st13" points="1510.54,2289.68 1436.56,2289.68 1423.52,2376.99 1496.61,2376.99 "/>
<path class="st14" d="M1743.72,1323.88c0,0-90.68-20.39-70-127.95s87.5-86.76,87.5-86.76s57.27,5,66.82,86.76h-19.09
	c0,0,6.48-80.51-59.6-70.97s-54.94,101.82-54.94,101.82s-6.36,62.04,46.14,66.82c0,0,39.08-13.64,31.47,12.27
	S1763.06,1331.35,1743.72,1323.88z"/>
<path class="st14" d="M1064.41,1319.05c0,0-65.23-17.16-58.86-123.12c6.36-105.97,87.45-93.81,108.95-94.32l-9.57,25.23
	c0,0-83.48-9.9-78.7,91.16c4.77,101.06,63.64,63.86,63.64,63.86s35,10.15,17.5,30.83S1064.41,1319.05,1064.41,1319.05z"/>
<path class="st15" d="M1611.22,1009.21c0,0,41.82,60.07,45,80.76s17.04,84.66-22.5,105.97s-74.54,22.07-74.54,22.07
	s57.27,247.42,0,336.51h-116.59v-310.22c0,0-3.72-22.27,20.08-75.83c34.38-77.38,61.8-146.05,61.8-146.05L1611.22,1009.21z"/>
<path class="st16" d="M1395.85,815.68c14.78-49.84,42.82-66.88,52.59-69.88c12.1-3.71,53.86-12.2,53.86-12.2h41.33
	c0,0,26.69,5.83,67.9,20.15c41.21,14.32,42.04,115.07,42.04,115.07h-74.5l0.79,82.73l-113.58,28.14
	c9.98-13.76-0.44-75.33-14.75-105.56c-14.32-30.23,16.44-55.68,16.44-55.68l-2.65,42.95l-78.48-18.56L1395.85,815.68z"/>
<path class="st11" d="M1507.26,736.47"/>
<path class="st5" d="M1527.7,772.14h-6.7c-10.23,0-18.53-8.29-18.53-18.53v-66.11h43.75v66.11
	C1546.22,763.84,1537.93,772.14,1527.7,772.14z"/>
<ellipse class="st5" cx="1520.45" cy="633.75" rx="63.91" ry="78.31"/>
<g>
	<path class="st17" d="M1613.86,690.14c-3.68-5.87-0.2-13.36,2.07-19.9c6.07-17.54,2.1-38.17-10.04-52.2
		c-9.82-11.35-25.06-19.7-27.77-34.46c-0.93-5.04-0.2-10.29-1.35-15.28c-1.22-5.34-4.51-9.99-8.35-13.9
		c-11.05-11.26-27.34-17.17-43.04-15.59c-6.68,0.67-13.19,2.69-19.13,5.81l0.02-0.02c-12.1-1.23-34.96,13.33-39.18,23.72
		c-3.37,8.3-2.02,18.33-8.09,25.23c-3.5,3.98-8.91,6.17-12.85,9.78s-4.29,6.77-0.05,10.1l41.26-44.07l0,0
		c15.14,2.41,13.17,23.57,25.87,32.16c2.57,1.74,5.71,2.81,7.57,5.3c2.34,3.14,1.88,7.55,0.76,11.3
		c-4.09,13.7-15.38,28.04-8.36,40.51c4.67,8.3,16.26,11.91,18.6,21.14c3.28,12.97-14.48,26.36-7.66,37.87
		c2.1,3.54,6.07,5.54,10.01,6.71c11.27,3.34,24.05,1.12,33.54-5.83c1.92-2.42,5.57,0.12,8.07,1.94c6.04,4.4,14.63,3.79,21.31,0.45
		c6.68-3.35,11.89-8.98,16.94-14.49c2.52-2.75,5.23-6.21,4.26-9.81C1617.58,694.06,1615.25,692.36,1613.86,690.14z"/>
</g>
<g>
	<path class="st17" d="M1446.09,613.41c4.92,3.35,10.38,4.82,15.79,2.34s9.35-7.92,10.01-13.83c3.51,0.24,7.99,1.38,8.32,4.88
		c0.27,2.81-2.46,4.82-4.38,6.89c-2.15,2.31-3.54,5.32-3.9,8.46c-0.08,0.67-0.08,1.42,0.35,1.93c0.47,0.55,1.27,0.63,1.99,0.67
		c6.35,0.38,12.7,0.76,19.05,1.14c2.23,0.13,4.71,0.19,6.42-1.24c1.55-1.3,2.03-3.43,2.85-5.28c2.58-5.81,13.2-12.03,19.34-10.37
		c0,0-27.01-50.51-31.21-46.67c-4.2,3.84,15.72-16.56,15.72-16.56"/>
</g>
<ellipse transform="matrix(0.7071 -0.7071 0.7071 0.7071 -313.736 1122.8887)" class="st18" cx="1198.58" cy="940.16" rx="8.48" ry="10.34"/>
<g>
	<polygon class="st19" points="1486.41,1532.58 907,1334.62 788.37,1588.73 1418.51,1785.21 	"/>
	<text transform="matrix(0.9958 0.0918 -0.0918 0.9958 976.7612 1647.449)" class="st20 st21 st22">EKİM</text>
</g>
<g>
	<path class="st23" d="M1023.58,1785.07c0,0,29.7,1.06,41.36-30.76l-20.68,134.7"/>
	<line class="st24" x1="999.19" y1="1886.89" x2="1091.46" y2="1891.13"/>
</g>
</svg>
