<?xml version="1.0" encoding="utf-8"?>
<!-- Generator: Adobe Illustrator 24.1.1, SVG Export Plug-In . SVG Version: 6.00 Build 0)  -->
<svg version="1.1" id="Layer_1" xmlns="http://www.w3.org/2000/svg" xmlns:xlink="http://www.w3.org/1999/xlink" x="0px" y="0px"
	 viewBox="0 0 1190.55 841.89" style="enable-background:new 0 0 1190.55 841.89;" xml:space="preserve">
<style type="text/css">
	.st0{fill:#1D1E3C;}
	.st1{fill:#824B80;}
	.st2{fill:#1C1D3A;}
	.st3{fill:#50214F;}
	.st4{fill:#050606;}
	.st5{fill:#C74B4B;}
	.st6{fill:#BB2020;stroke:#0B0B0B;stroke-miterlimit:10;}
	.st7{fill:#8D1816;stroke:#0B0B0B;stroke-miterlimit:10;}
	.st8{fill:#36427F;}
	.st9{fill:#C74B4B;stroke:#0B0B0B;stroke-miterlimit:10;}
	.st10{fill:#F3AD91;}
	.st11{fill:#E52D2C;}
	.st12{fill:none;stroke:#050606;stroke-miterlimit:10;}
	.st13{fill:#C4403F;}
	.st14{fill:#AA2929;}
	.st15{fill:none;stroke:#283483;stroke-width:3;stroke-miterlimit:10;}
	.st16{fill:none;stroke:#E51D43;stroke-miterlimit:10;}
	.st17{fill:none;stroke:#E4201E;stroke-miterlimit:10;}
	.st18{fill:#E41E32;}
	.st19{fill:#E20D13;}
	.st20{fill:#6F1511;}
	.st21{fill:#981918;}
	.st22{fill:none;stroke:#1B2222;stroke-miterlimit:10;}
	.st23{fill:#3C4C8E;}
	.st24{fill:#D70F16;}
	.st25{fill:#481D0F;}
	.st26{fill:#010202;}
	.st27{fill:#E52E2D;}
	.st28{fill:#353A8E;}
	.st29{fill:none;stroke:#3E4B99;stroke-width:9;stroke-miterlimit:10;}
	.st30{fill:none;stroke:#253886;stroke-width:9;stroke-miterlimit:10;}
	.st31{fill:none;stroke:#E31918;stroke-width:9;stroke-miterlimit:10;}
	.st32{fill:none;stroke:#A81A17;stroke-width:9;stroke-miterlimit:10;}
	.st33{fill:none;stroke:#524D9A;stroke-width:9;stroke-miterlimit:10;}
	.st34{fill:none;stroke:#404F9C;stroke-width:9;stroke-miterlimit:10;}
	.st35{fill:none;stroke:#E42321;stroke-width:9;stroke-miterlimit:10;}
	.st36{fill:none;stroke:#283483;stroke-width:4;stroke-miterlimit:10;}
	.st37{fill:#9091C7;}
	.st38{fill:none;stroke:#1D1E3C;stroke-miterlimit:10;}
	.st39{fill:#593129;}
	.st40{fill:none;stroke:#000000;stroke-miterlimit:10;}
	.st41{fill:none;stroke:#000000;stroke-linecap:round;stroke-miterlimit:10;}
</style>
<rect x="0" y="0.04" class="st0" width="1190.55" height="842.31"/>
<g>
	<path class="st1" d="M120.3,840.79c26.29-8.31,31.97-45.46,19.62-70.18s-35.95-41.41-54.7-61.69
		c-23.35-25.26-39.6-57.06-46.39-90.83c-3.92-19.46-4.3-41.17,6.96-57.49c16.71-24.22,54.74-30.58,64.02-58.53
		c6.2-18.69-3.68-38.48-6.48-57.98c-2.8-19.5,9.48-45.39,28.65-41.09c18.34,4.12,20.5,30.36,34.9,42.46
		c11.22,9.43,28.04,8.43,41.75,3.26c31-11.69,53.24-42.24,57.96-75.12c4.72-32.88-7.01-67.09-28.52-92.35
		c-9.79-11.5-21.88-21.94-26.41-36.36c-5.27-16.74,1.02-35.06,10.32-49.93c16.13-25.78,46.81-46.53,75.85-37.69
		c8.82,2.68,16.83,7.9,25.89,9.58c18.82,3.49,37.15-9.19,48.7-24.49s18.75-33.56,30.41-48.78c21.92-28.61,59.78-44.02,95.37-38.82
		c17.36,2.53,34.03,9.56,51.57,10.16c53.73,1.85,95.14-55.28,148.89-56.19c18.69-0.32,36.69,6.34,54.53,11.94
		c50.5,15.86,103.46,23.81,156.37,23.47c19.67-0.13,41.65-2.48,54.41-17.5c9.38-11.04,16.82-29.72,30.93-26.57l194.77,0.12
		l2.13,841.67L120.3,840.79z"/>
</g>
<g>
	<path class="st2" d="M351.85,842.92c0.65-3.04,54.18-81.79,36.94-121.4c-7.15-16.41-19.54-29.83-29.66-44.58
		c-24.81-36.17-35.36-85.66-14.65-124.35c16.94-31.64,52.96-54.3,56.14-90.08c2.48-27.87-16.6-53.63-17.26-81.6
		c-0.14-6.17,0.68-12.53,3.65-17.93c11.32-20.59,41.33-14.65,64.74-13.83c37.04,1.3,76.06-22.69,83.7-59.12
		c4.07-19.41-0.72-39.46-1.19-59.29c-1.07-45.39,29.66-95.28,74.83-97.16c43.41-1.8,79.28,39.32,122.72,39.72
		c30.43,0.29,59.58-22.48,66.8-52.17c1.79-7.36,2.39-15.12,5.62-21.97c9.32-19.77,36.39-23.83,57.33-17.78s39.4,19.18,60.54,24.46
		c38.38,9.6,82.09-11.3,98.87-47.27c4.66-10,7.52-21.06,14.38-29.68c15.05-18.92,45.68-19.13,65.48-5.29
		c19.79,13.84,30.2,37.83,34.93,61.58c3.09,15.53,6.66,34.62,21.65,39.5c11.71,3.81,29.54-0.89,32.95,10.99l1.05,706.7
		L351.85,842.92z"/>
</g>
<g>
	<path class="st3" d="M636.5,841.72c5.05-15.18,8.43-25.48,8.48-41.47c0.05-15.99-5.8-32.84-18.84-42.19
		c-6.35-4.56-13.92-7.05-20.93-10.53c-21.44-10.64-37.59-31.28-42.68-54.56c-0.9-4.1-1.43-8.56,0.39-12.34
		c3.06-6.35,11.12-8.12,17.03-11.99c11.89-7.8,14.55-24.13,13.07-38.21s-5.95-28.13-3.91-42.15c2.04-14.02,13.97-28.25,28.04-26.01
		c8.77,1.4,15.34,8.56,23.35,12.36c17.54,8.34,38.27-0.51,54.73-10.8c16.23-10.15,32.56-23.43,36.65-42.05
		c2.84-12.93-0.74-26.26-2.12-39.42c-1.38-13.16,0.25-28.19,10.52-36.6c6.68-5.47,15.81-7.07,22.86-12.06
		c14.54-10.29,15.89-31.82,10.01-48.58c-5.88-16.76-17.21-31.12-23.91-47.57c-6.7-16.45-7.61-37.54,5.27-49.83
		c6.37-6.09,15.08-9.01,23.48-11.75c12.66-4.13,27.9-7.85,38.21,0.54c15.17,12.34,5.54,37.98,14.93,55.09
		c6.64,12.1,23.55,17.31,35.91,11.07c9.5-4.8,18.03-15.49,28.24-12.44c4.55,1.36,7.79,5.23,11.37,8.33
		c12.13,10.53,30.87,12.73,45.14,5.31c14.26-7.42,23.12-24,21.33-39.91c-1.85-16.43-13.44-29.82-22.98-43.36
		c-9.54-13.54-17.66-30.71-11.67-46.13c9-23.16,40.77-24.99,61.97-38.13c25.82-16.01,38.63-51.61,68.35-58.09
		c20.32-4.44,42.89,9.51,47.9,29.58c1.8,7.21,1.63,15.03,5.06,21.63c12.63,24.23,58.81,11.52,69.28,35.92l-1.85,636.54L636.5,841.72
		z"/>
</g>
<g>
	<path class="st4" d="M836.98,841.66c3.95-13.72-11.6-24.41-24.57-30.04c-27.66-12-56.04-24.17-86.09-25.73
		c-13.43-0.7-30.66-1.7-34.82-14.66c-4.29-13.34,12.18-25.53,25.86-23.34c13.68,2.18,24.3,12.7,35.12,21.44
		c12.78,10.31,26.95,18.68,41.07,27.01c12.81,7.56,32.18,13.7,39.9,0.87c6.46-10.73-0.7-28.91,10.31-34.71
		c6.19-3.26,14.07,0.52,20.61-1.94c10.71-4.03,9.21-20.9,1.22-29.17c-7.99-8.27-19.63-12.11-27.64-20.36
		c-2.62-2.69-4.8-5.81-7.46-8.45c-3.27-3.24-7.19-5.7-11.09-8.14c-21.25-13.3-42.5-26.6-63.74-39.9c-3.71-2.32-7.97-6.47-5.9-10.36
		c35.45,16.23,70.9,32.46,106.34,48.7c1.64-19.11-24.3-30.06-26.9-49.06c-1.27-9.25,3.38-18.24,4.23-27.54
		c1.8-19.79-13.23-36.49-21.03-54.72c-3.68-8.6-5.47-19.48,0.49-26.65s21.16-3.32,19.68,5.93c3.98-4.17,7.95-8.35,11.93-12.52
		c3.05-4.4,7.57,3.84,11.85,7.01c5.08,3.75,12.18-1.21,15.18-6.81c3-5.59,4.69-12.48,10.02-15.85c6.12-3.87,14.1-1.26,20.66,1.81
		c16.54,7.73,31.98,17.87,45.69,30.01c3.13,13.53-9.9,26.98-6.63,40.48c3.31,13.67,25.68,16.21,31.9,3.63
		c2.97-6,3.27-14.55,9.45-16.96c4.99-1.95,10.29,1.76,15.61,2.37c11.02,1.28,19.34-11.56,18.52-22.77s-7.5-20.93-12.93-30.74
		c-5.42-9.8-9.82-21.6-5.77-32.06c3.88-10.04,14.55-16.1,18.51-26.1c5.74-14.52-4.63-30.07-14.63-41.97
		c-10.01-11.91-21-26.63-16.56-41.61c1.96-6.61,6.72-11.96,9.61-18.21c11.14-24.1-7.67-53.73,1.48-78.68
		c1.55-4.23,3.85-8.13,6.14-12c13.73-23.19,27.45-46.37,41.18-69.56c7.27-12.29,16.52-25.91,30.59-27.4
		c12.15-1.28,23.59,7.74,28.87,18.9c5.29,11.16,5.64,24,5.25,36.37c-0.19,5.92-0.47,12.13,2.06,17.47
		c7.89,16.6,38.01,16.35,39.72,34.69c0.54,5.8-2.38,11.27-3.82,16.91s-0.61,12.95,4.62,15.35c6.95,3.18,13.98-5.59,14.1-13.32
		c0.13-7.73-3.33-15.29-2.48-22.97c1.36-12.34,15.73-21.27,27.86-17.03v582.26L836.98,841.66z"/>
</g>
<path class="st5" d="M1083.43,742.83"/>
<path class="st6" d="M1011.2,821.78l-94.04-29.63c-3.71-1.17-4.78-5.9-1.94-8.56l148.72-138.85c5.96-5.57,14.45-7.52,22.25-5.11
	l91.55,28.28c4.83,1.49,6.23,7.67,2.51,11.09l-150.68,138.68C1024.62,822.24,1017.62,823.8,1011.2,821.78z"/>
<path class="st7" d="M1182.06,672.25l3.4,9.56c0.34,2.67-0.62,5.34-2.58,7.18l-144.92,135.88c-6.83,6.4-16.57,8.66-25.52,5.91
	l-93.39-28.67c-1.83-0.56-3.21-2.09-3.58-3.97l-1.8-9.12l99.33,33.1c5.64,1.88,11.86,0.54,16.23-3.49L1182.06,672.25z"/>
<polygon class="st8" points="1062.48,651.56 1163.12,681.61 1040.89,801.83 936.06,771.36 "/>
<rect x="948.38" y="809.41" transform="matrix(0.9623 0.2718 -0.2718 0.9623 256.6965 -231.3451)" class="st9" width="29.9" height="2.8"/>
<circle class="st10" cx="681.93" cy="334.78" r="23.74"/>
<path class="st11" d="M404.82,244.44l-17.66-10.91l-24.71,11.44c0,0,26.15,8.46,25.47,15.36L404.82,244.44z"/>
<path class="st12" d="M357.1,241.5"/>
<path class="st12" d="M357.1,241.5"/>
<path class="st13" d="M361.92,244.21c-2.22-2.78-12.51-12.79-50.91-22.72c-0.11-0.03-0.22-0.07-0.32-0.14
	c-1.62-1-15.67-9.98-9.23-15.11c6.81-5.43,17.42-12.44,63.33,3.71c0.19,0.07,0.37,0.19,0.5,0.34c1.81,2.09,15.08,17.4,20.42,22.1
	c0.64,0.56,0.48,1.59-0.29,1.94l-22.08,10.22C362.85,244.79,362.27,244.64,361.92,244.21z"/>
<path class="st14" d="M301.46,206.24c0,0,58.6,30.68,63.63,3.81C365.09,210.06,308.14,188.54,301.46,206.24z"/>
<polygon class="st11" points="514.41,409.43 491.81,409.71 476.74,430.26 502.78,429.94 "/>
<path class="st13" d="M490.7,411.23c0.55-0.75,0.22-1.82-0.66-2.12c-7.17-2.42-33.61-11.23-33.59-9.24
	c0.03,2.3,13.06,2.9,0.17,13.79s-41.78,28.86-51.8,23.62c0,0,4.77,14.17,51.24-6.76l20.68-0.25L490.7,411.23z"/>
<path class="st14" d="M410.76,441.96c0,0-20.18-9.5,45-42.22c1.32-0.66,2.9-0.44,4.01,0.53
	C464.77,404.66,472.71,418.77,410.76,441.96z"/>
<line class="st15" x1="980.32" y1="742.83" x2="8.35" y2="372.02"/>
<line class="st16" x1="999.13" y1="726.72" x2="2.62" y2="-0.17"/>
<line class="st17" x1="1065.01" y1="670.68" x2="708.07" y2="-0.17"/>
<polygon class="st18" points="894.89,841.3 2.62,617.06 2.62,686.69 799.99,841.72 "/>
<polygon class="st18" points="976.62,730.59 2.62,245.48 2.62,226.45 "/>
<polygon class="st19" points="1109.8,648 980.32,412.11 1051.52,412.11 905.69,-0.17 958.87,-0.17 1083.43,420.77 1103.3,475.23 
	1025.18,449.52 "/>
<path class="st12" d="M712.53,429.56"/>
<path class="st20" d="M638.27,369.02c0,0-10.03,8.21-23.3,1.4c-13.28-6.81,0.16-8.97-28.34-15.89L638.27,369.02z"/>
<path class="st21" d="M508.41,256.04c0,0-7.49,16.19,10.22,31.28c0,0,18.06-3.82,17.54,14.45c0,0,2.13-22.43-6.69-28.12
	C529.48,273.65,515.56,258.76,508.41,256.04z"/>
<g>
	<g>
		<path class="st4" d="M640.12,305.74c-2.14,3.24,0.92,6.96,2.68,9.6c1.24,1.87,2.49,3.74,3.73,5.6c1.13,1.7,2.21,3.46,3.71,4.86
			c1.29,1.21,2.78,2.19,4.2,3.24c1.59,1.18,2.99,2.54,4.23,4.1c2.34,2.95,4.03,6.34,5.69,9.7c0.55,1.11,3.39,0.22,2.9-0.78
			c-1.55-3.14-3.11-6.3-5.17-9.14c-2.15-2.97-4.88-4.93-7.75-7.13c-3.25-2.49-5.24-6.22-7.47-9.57c-1.14-1.71-2.38-3.39-3.41-5.18
			c-0.88-1.54-1.67-3.49-0.6-5.12c0.39-0.6-0.34-0.97-0.83-1.01C641.34,304.84,640.51,305.15,640.12,305.74L640.12,305.74z"/>
	</g>
</g>
<g>
	<g>
		<path class="st22" d="M536.5,274.42"/>
	</g>
</g>
<path class="st23" d="M556.82,286.53c0,0-33.69,1.18-55.91,0.69c-22.22-0.49-38.42-9.48-46.05-7.09c0,0-41.01-33.2-43.42-42.36
	c0,0-33.49,17.27-28.83,22.57c4.66,5.3,48.88,50.72,48.88,50.72s11.62,10.23,25.43,12.15c13.81,1.92,74.62,25.39,74.62,25.39
	l17.56,57.53c0,0-49.83-3.22-51.32,0.63c0,0,20.71,2.31-0.42,28.1l72.21,16.21c0,0,25.27-0.31,22.59-31.69l-3.86-64.3L556.82,286.53
	z"/>
<path class="st24" d="M588.23,349.21l0.07,5.87l49.96,13.94c0,0,48.24,60.69,48.27,62.98s25.99-4.15,25.99-4.15l-52.79-98.13
	c-1.1-2.05-2.41-3.97-3.91-5.75l-50.25-59.5c-7.27-8.61-15.23,7.08-15.23,7.08l0.95,14.54l6.23,7.94l-89.1-38
	c0,0,32,19.06,27.57,36.43c-4.43,17.36,21.79,38.47,21.79,38.47s17.02,1.02,10.89,16.34c-6.13,15.32,7.83,26.69,7.83,24.75
	c0-1.94,8.64-21.39,11.81-16.94"/>
<g>
	<path class="st25" d="M665.78,343.59c0.86-4.56,7.16-5.29,11.6-4.01c5.27,1.51,10.23,4.28,15.68,4.77
		c9.37,0.84,17.97-5.33,21.57-13.77c3.59-8.4,2.26-18.43-2.3-26.34c-4.56-7.91-12.05-13.83-20.29-17.73
		c-5.56-2.64-11.49-4.43-17.07-7.03c-5.44-2.54-10.53-5.84-15.07-9.78c-5.8-5.03-10.81-11.33-12.81-18.76
		c-1.54-5.75-1.23-11.94-3.33-17.5c-2.42-6.4-7.87-11.32-14.01-14.3c-2.84-1.38-5.94-2.46-8.17-4.7c-2.59-2.61-3.59-6.36-5.27-9.64
		c-5.01-9.78-17.19-15.22-27.78-12.42c2.89,0.06,5.84,0.14,8.53,1.2c2.69,1.05,5.1,3.3,5.53,6.17c0.32,2.16-0.5,4.4,0.04,6.51
		c0.93,3.68,5.26,5.14,8.94,5.99c-4.94,1.54-11.04,2.82-14.7-0.85c-2.75-2.76-2.96-7.41-5.83-10.03c-2.15-1.97-5.27-2.33-8.17-2.6
		c-5.94-0.56-11.89-1.11-17.83-1.67c4.59-0.9,9.62,1.9,11.3,6.28c0.54,1.42,0.79,3.01,1.75,4.2c2.18,2.7,6.64,1.85,9.46,3.86
		c2.4,1.71,3.24,5.24,5.92,6.44c0.96,0.43,2.1,0.53,2.87,1.25c1.13,1.05,0.92,2.85,1.13,4.38c0.54,3.87,4.11,6.55,7.63,8.23
		c3.51,1.69,7.42,2.96,9.99,5.9c-8.09-0.86-16.05-2.92-23.55-6.09c-1.88-0.79-3.86-1.79-4.74-3.63c-0.75-1.59-0.5-3.47-0.9-5.19
		c-1-4.28-5.86-6.59-10.24-6.64c-4.38-0.05-8.62,1.5-12.97,2.05c-6.27,0.79-12.79-0.58-18.21-3.84c1.84-0.55,4.25-0.91,5.3,0.7
		c0.98,1.49-0.04,3.42-0.39,5.16c-1.09,5.42,4.63,9.82,9.98,11.12c5.35,1.3,11.31,1.17,15.77,4.4c3.8,2.74,5.76,7.43,9.34,10.45
		c2.9,2.45,6.62,3.62,10,5.34c9.03,4.59,15.73,13.53,17.62,23.51c0.42,2.21,0.62,4.48,1.39,6.59c1.45,3.99,4.76,6.99,8.25,9.4
		c7.85,5.42,17.85,9.43,21.24,18.37c1.25,3.29,1.43,6.95,2.93,10.13c3.78,8,14.98,11.28,16.84,19.94c0.47,2.17,1.62,5.37,3.61,4.4"
		/>
</g>
<polygon class="st26" points="362.46,244.97 387.16,233.53 390.01,235.29 366.82,246.5 "/>
<path class="st26" d="M374.52,249.64l20.61-11.19l2.54,1.57l-20.47,10.87C377.19,250.89,375.73,250.18,374.52,249.64z"/>
<path class="st4" d="M476.74,430.26c0,0,13.64-16.67,13.3-21.15c0,0,2.98,0.59,4.3,0.57c1.32-0.02,1.32-0.02,1.32-0.02l-14.82,20.59
	H476.74z"/>
<path class="st4" d="M500.88,408.72l-13.62,21.54h3.7l13.01-21.71C503.98,408.55,501.86,409.64,500.88,408.72z"/>
<polygon class="st27" points="248.38,552.14 248.38,541.1 290.25,599.53 285.15,608.72 "/>
<polygon class="st28" points="556.6,627.79 573.75,631.68 467.43,679.85 455.06,668.22 "/>
<line class="st29" x1="1079.53" y1="32.76" x2="1050.48" y2="124.23"/>
<line class="st30" x1="362.93" y1="329.37" x2="269.32" y2="308.24"/>
<line class="st31" x1="828.89" y1="104.95" x2="894.81" y2="174.69"/>
<line class="st32" x1="859.18" y1="329.37" x2="864.52" y2="425.2"/>
<line class="st33" x1="942.35" y1="267.28" x2="938.54" y2="324.68"/>
<line class="st34" x1="669.01" y1="118.92" x2="722.73" y2="139.49"/>
<line class="st35" x1="1125.33" y1="161.92" x2="1167.18" y2="201.4"/>
<polygon class="st19" points="963.33,767.45 812.38,711.45 823.57,738.53 672.7,691.43 685.84,714.98 842.6,757.37 835.86,740.44 
	950.77,769.75 "/>
<line class="st36" x1="1034.34" y1="691.05" x2="521.62" y2="-1.35"/>
<g>
	<g>
		<path class="st37" d="M31.4,527.82c3.22,0,3.22-5,0-5C28.19,522.82,28.18,527.82,31.4,527.82L31.4,527.82z"/>
	</g>
</g>
<g>
	<g>
		<path class="st37" d="M81.96,438.97c3.22,0,3.22-5,0-5C78.74,433.97,78.73,438.97,81.96,438.97L81.96,438.97z"/>
	</g>
</g>
<g>
	<g>
		<path class="st37" d="M23.98,402.53c-0.51-0.51-1.02-1.02-1.53-1.53c-0.23-0.24-0.49-0.42-0.8-0.52c-0.3-0.16-0.62-0.23-0.96-0.22
			c-0.34-0.01-0.67,0.06-0.96,0.22c-0.31,0.1-0.58,0.27-0.8,0.52c-0.13,0.17-0.26,0.34-0.39,0.51c-0.23,0.39-0.34,0.81-0.34,1.26
			c0.03,0.22,0.06,0.44,0.09,0.66c0.12,0.42,0.33,0.79,0.64,1.1c0.51,0.51,1.02,1.02,1.53,1.53c0.23,0.24,0.49,0.42,0.8,0.52
			c0.3,0.16,0.62,0.23,0.96,0.22c0.34,0.01,0.67-0.06,0.96-0.22c0.31-0.1,0.58-0.27,0.8-0.52c0.13-0.17,0.26-0.34,0.39-0.51
			c0.23-0.39,0.34-0.81,0.34-1.26c-0.03-0.22-0.06-0.44-0.09-0.66C24.5,403.21,24.29,402.84,23.98,402.53L23.98,402.53z"/>
	</g>
</g>
<g>
	<g>
		<path class="st37" d="M31.4,288.84c3.22,0,3.22-5,0-5C28.19,283.84,28.18,288.84,31.4,288.84L31.4,288.84z"/>
	</g>
</g>
<g>
	<g>
		<path class="st37" d="M178.47,385.35c3.22,0,3.22-5,0-5C175.25,380.35,175.25,385.35,178.47,385.35L178.47,385.35z"/>
	</g>
</g>
<g>
	<g>
		<path class="st37" d="M89.62,345.52c3.22,0,3.22-5,0-5C86.4,340.52,86.39,345.52,89.62,345.52L89.62,345.52z"/>
	</g>
</g>
<g>
	<g>
		<path class="st37" d="M175.4,276.59c3.22,0,3.22-5,0-5C172.19,271.59,172.18,276.59,175.4,276.59L175.4,276.59z"/>
	</g>
</g>
<g>
	<g>
		<path class="st37" d="M192.26,195.39c3.22,0,3.22-5,0-5C189.04,190.39,189.03,195.39,192.26,195.39L192.26,195.39z"/>
	</g>
</g>
<g>
	<g>
		<path class="st37" d="M95.74,115.73c3.22,0,3.22-5,0-5C92.53,110.73,92.52,115.73,95.74,115.73L95.74,115.73z"/>
	</g>
</g>
<g>
	<g>
		<path class="st37" d="M52.85,209.18c3.22,0,3.22-5,0-5C49.63,204.18,49.63,209.18,52.85,209.18L52.85,209.18z"/>
	</g>
</g>
<g>
	<g>
		<path class="st37" d="M118.72,193.86c3.22,0,3.22-5,0-5C115.51,188.86,115.5,193.86,118.72,193.86L118.72,193.86z"/>
	</g>
</g>
<g>
	<g>
		<path class="st37" d="M39.06,72.84c3.22,0,3.22-5,0-5C35.85,67.84,35.84,72.84,39.06,72.84L39.06,72.84z"/>
	</g>
</g>
<g>
	<g>
		<path class="st37" d="M89.62,17.69c3.22,0,3.22-5,0-5C86.4,12.69,86.39,17.69,89.62,17.69L89.62,17.69z"/>
	</g>
</g>
<g>
	<g>
		<path class="st37" d="M262.72,49.86c3.22,0,3.22-5,0-5C259.51,44.86,259.5,49.86,262.72,49.86L262.72,49.86z"/>
	</g>
</g>
<g>
	<g>
		<path class="st37" d="M229.02,123.39c3.22,0,3.22-5,0-5C225.8,118.39,225.8,123.39,229.02,123.39L229.02,123.39z"/>
	</g>
</g>
<g>
	<g>
		<path class="st37" d="M184.6,60.59c3.22,0,3.22-5,0-5C181.38,55.59,181.37,60.59,184.6,60.59L184.6,60.59z"/>
	</g>
</g>
<g>
	<g>
		<path class="st37" d="M342.38,109.61c3.22,0,3.22-5,0-5C339.17,104.61,339.16,109.61,342.38,109.61L342.38,109.61z"/>
	</g>
</g>
<g>
	<g>
		<path class="st37" d="M420.51,13.1c3.22,0,3.22-5,0-5C417.29,8.1,417.29,13.1,420.51,13.1L420.51,13.1z"/>
	</g>
</g>
<g>
	<g>
		<path class="st37" d="M521.62,45.27c3.22,0,3.22-5,0-5C518.4,40.27,518.39,45.27,521.62,45.27L521.62,45.27z"/>
	</g>
</g>
<g>
	<g>
		<path class="st37" d="M599.74,42.2c3.22,0,3.22-5,0-5C596.53,37.2,596.52,42.2,599.74,42.2L599.74,42.2z"/>
	</g>
</g>
<g>
	<g>
		<path class="st37" d="M645.7,8.5c3.22,0,3.22-5,0-5C642.48,3.5,642.48,8.5,645.7,8.5L645.7,8.5z"/>
	</g>
</g>
<g>
	<g>
		<path class="st37" d="M873.96,20.76c3.22,0,3.22-5,0-5C870.74,15.76,870.73,20.76,873.96,20.76L873.96,20.76z"/>
	</g>
</g>
<g>
	<g>
		<path class="st37" d="M55.91,720.84c3.22,0,3.22-5,0-5C52.7,715.84,52.69,720.84,55.91,720.84L55.91,720.84z"/>
	</g>
</g>
<g>
	<g>
		<path class="st37" d="M109.53,769.86c3.22,0,3.22-5,0-5C106.31,764.86,106.31,769.86,109.53,769.86L109.53,769.86z"/>
	</g>
</g>
<g>
	<g>
		<path class="st37" d="M26.81,826.54c3.22,0,3.22-5,0-5C23.59,821.54,23.59,826.54,26.81,826.54L26.81,826.54z"/>
	</g>
</g>
<g>
	<g>
		<path class="st37" d="M68.17,777.52c3.22,0,3.22-5,0-5C64.95,772.52,64.95,777.52,68.17,777.52L68.17,777.52z"/>
	</g>
</g>
<g>
	<g>
		<path class="st38" d="M124.85,557.49"/>
	</g>
</g>
<g>
	<g>
		<path class="st38" d="M150.89,583.53"/>
	</g>
</g>
<g>
	<g>
		<path class="st38" d="M101.87,554.43"/>
	</g>
</g>
<g>
	<g>
		<path class="st38" d="M132.51,603.45"/>
	</g>
</g>
<g>
	<g>
		<path class="st25" d="M595.27,190.32c-0.02-0.04-0.04-0.09-0.06-0.13c-0.17-0.35-0.52-0.54-0.91-0.53
			c-0.87,0.02-2.24,0.36-2.38,1.41c-0.04,0.27,0.1,0.47,0.32,0.61c0.94,0.6,2.58,0.6,3.66,0.86c1.33,0.32,2.64,0.69,3.92,1.15
			c2.41,0.87,4.83,2.14,6.52,4.12c2.08,2.43,2.27,5.36,2.14,8.43c-0.13,3.05-0.16,6.06,1.73,8.62c3.24,4.39,9.6,5.63,11.78,10.94
			c0.64,1.56,0.91,3.26,0.72,4.93c-0.2,1.69-0.84,3.28-1.24,4.93c-0.33,1.39-0.51,2.89-0.07,4.28c0.5,1.57,1.65,2.79,2.88,3.83
			c2.96,2.52,5.94,4.95,8.66,7.75c2.75,2.82,5.28,5.84,7.61,9.02c0.66,0.9,3.45-0.13,2.68-1.19c-4.22-5.78-9.16-11-14.72-15.5
			c-1.12-0.91-2.3-1.77-3.21-2.9c-1.24-1.54-1.41-3.28-1.01-5.17c0.32-1.53,0.91-2.99,1.2-4.52c0.32-1.67,0.26-3.43-0.21-5.07
			c-1.65-5.86-7.48-7.42-11.38-11.33c-2.37-2.38-2.67-5.26-2.53-8.48c0.13-2.99,0.16-5.89-1.46-8.52c-1.48-2.4-3.98-4.04-6.52-5.15
			c-1.44-0.63-2.92-1.13-4.43-1.54c-0.77-0.21-1.54-0.39-2.31-0.56c-0.57-0.12-1.65-0.11-2.13-0.42c0.11,0.2,0.21,0.4,0.32,0.61
			c-0.09,0.11-0.18,0.22-0.27,0.34c-0.49,0.13-0.98,0.26-1.46,0.39c0.04,0,0.08,0,0.13,0c-0.3-0.18-0.61-0.35-0.91-0.53
			c0.02,0.04,0.04,0.09,0.06,0.13C592.9,192.2,595.75,191.32,595.27,190.32L595.27,190.32z"/>
	</g>
</g>
<g>
	<g>
		<path class="st39" d="M684.39,338.7c2.86-5.29,2.56-11.59,0.41-17.08c-2.32-5.91-6.68-10.6-11.66-14.41
			c-10.22-7.81-23.25-12.34-31.26-22.84c-6.43-8.43-7.18-22.17-18.02-26.7c-5.8-2.42-12.55-1.97-17.21-6.78
			c-2.22-2.29-3.91-5.05-5.98-7.48c-2.23-2.62-4.7-5.03-7.33-7.25c-11.68-9.87-26.09-16.44-41.06-19.35
			c-0.76-0.15-3.37,1.07-1.83,1.37c13.47,2.62,26.36,8.35,37.27,16.7c2.68,2.05,5.23,4.26,7.58,6.68c2.31,2.37,4.29,4.96,6.28,7.59
			c1.86,2.45,3.9,4.6,6.71,5.93c2.74,1.3,5.77,1.79,8.7,2.48c2.89,0.68,5.71,1.59,8.05,3.47c2.05,1.64,3.61,3.78,4.88,6.05
			c2.62,4.71,4.15,9.94,6.8,14.64c6.31,11.2,18.55,16.48,28.88,23.17c5.99,3.88,11.87,8.55,15.19,15.02
			c3.05,5.95,4.01,13.17,0.74,19.23c-0.29,0.54,1.01,0.47,1.2,0.44C683.3,339.5,684.09,339.26,684.39,338.7L684.39,338.7z"/>
	</g>
</g>
<g>
	<g>
		<path class="st39" d="M707.4,335.62c3.52-6.52,2.15-14.15-1.57-20.28c-4.25-7.01-11.29-11.36-18.53-14.8
			c-7.55-3.58-15.57-6.32-22.48-11.14c-3.16-2.2-6.09-4.8-8.39-7.91c-2.34-3.17-3.68-6.75-4.43-10.59
			c-1.34-6.84-1.74-14.35-8.27-18.41c-5.06-3.15-11.2-3.6-16.64-5.82c-2.45-1-4.82-2.46-6.14-4.83c-2.2-3.93-0.8-8.42-0.36-12.6
			c0.33-3.11-0.03-6.8-2.32-9.15c-2.94-3.02-7.02-1.3-10.65-1.89c-5.39-0.87-9.27-5.65-12.64-9.54c-3.43-3.97-7.1-8.61-12.31-10.23
			c-1.26-0.39-2.53-0.59-3.85-0.62c-0.56-0.02-1.63,0.21-1.92,0.77c-0.3,0.58,0.25,0.76,0.76,0.77c5.4,0.14,9.44,4.51,12.76,8.28
			c3.5,3.97,6.89,8.6,11.79,10.93c2.98,1.41,5.82,1.23,9.04,1.14c2-0.06,3.71,0.54,4.9,2.2c0.97,1.36,1.4,3.07,1.57,4.71
			c0.42,4.16-1.31,8.22-0.81,12.38c0.34,2.9,1.92,5.44,4.3,7.11c4.63,3.25,10.61,3.78,15.83,5.66c2.71,0.98,5.33,2.31,7.25,4.53
			c2.44,2.83,3.3,6.59,3.93,10.18c0.65,3.69,1.09,7.46,2.55,10.95c1.43,3.4,3.67,6.42,6.32,8.98c5.67,5.48,12.88,8.86,20.02,11.97
			c7.51,3.27,15.49,6.48,21.46,12.29c5.14,4.99,8.94,12.53,7.85,19.84c-0.27,1.79-0.83,3.53-1.69,5.12
			C704.1,336.76,706.98,336.4,707.4,335.62L707.4,335.62z"/>
	</g>
</g>
<g>
	<g>
		<path class="st39" d="M670.29,325.88c-3.94-1.42-7.96-2.89-11.32-5.44c-3.67-2.79-5.47-6.78-7.29-10.87
			c-1.79-4.01-3.95-7.44-7.21-10.43c-3.22-2.95-6.91-5.32-10.23-8.15c-3.67-3.12-6.96-6.95-7.88-11.81
			c-0.25-1.31-3.15-0.57-2.9,0.78c1.72,9.12,10.53,13.9,17.07,19.35c3.66,3.04,6.22,6.53,8.16,10.85c1.8,4,3.49,7.99,6.85,10.96
			c3.7,3.28,8.49,5.03,13.07,6.69C669.82,328.24,672.01,326.5,670.29,325.88L670.29,325.88z"/>
	</g>
</g>
<g>
	<g>
		<path class="st39" d="M707.93,302.39c-4.82-5.93-11-10.7-18-13.78c-6.87-3.02-14.75-4.02-20.71-8.86
			c-0.61-0.5-3.17,0.63-2.73,0.99c5.97,4.85,13.84,5.84,20.71,8.86c7,3.08,13.18,7.84,18,13.78
			C705.65,303.93,708.38,302.95,707.93,302.39L707.93,302.39z"/>
	</g>
</g>
<g>
	<g>
		<path class="st39" d="M636.37,234.79c1.15-3.96-2.9-7.32-5.43-9.74c-3.18-3.05-6.6-5.86-10.21-8.4c-2.9-2.03-6.23-3.96-8.14-7.04
			c-1.07-1.73-1.32-3.64-1.56-5.63c-0.23-1.96-0.71-3.74-1.76-5.43c-2.12-3.42-5.59-5.71-8.93-7.8c-0.55-0.35-1.33-0.19-1.9,0.04
			c-0.19,0.08-1.34,0.7-0.81,1.03c2.95,1.85,5.98,3.83,8.12,6.63c1.08,1.42,1.83,3.03,2.16,4.79c0.37,2,0.32,4.07,1.15,5.96
			c1.36,3.11,4.17,5.21,6.88,7.09c3.4,2.36,6.71,4.8,9.81,7.54c1.78,1.58,3.52,3.23,5.15,4.97c1.6,1.71,3.29,3.92,2.57,6.39
			C633.24,236.07,636.11,235.67,636.37,234.79L636.37,234.79z"/>
	</g>
</g>
<path class="st40" d="M1067.31,733.13l-7.17,12.02c-0.06,0.1-0.18,0.14-0.27,0.08l-22.46-13.4c-0.05-0.03-0.07-0.09-0.03-0.15
	l7.23-12.11c1.94-3.25,4.89-5.51,8.14-6.53l0-0.01c3.47-1.1,7.26-0.82,10.5,1.11c2.57,1.53,4.38,3.85,5.36,6.52
	C1070.02,724.53,1069.69,729.13,1067.31,733.13z"/>
<path class="st40" d="M1044.77,736.61l-6.56,17.76l-1.65-4.12l-2.05-5.15l-2.06-5.16l12.13-3.55
	C1044.71,736.35,1044.82,736.47,1044.77,736.61z"/>
<path class="st40" d="M1055.17,753.47l-5.52,0.65l-5.52,0.64l-4.41,0.51l12.45-14.14c0.12-0.14,0.33-0.09,0.36,0.08L1055.17,753.47z
	"/>
<polyline class="st40" points="1038.2,754.36 1044.88,736.29 1052.45,740.81 1039.72,755.27 1036.54,758.89 1038.2,754.36 "/>
<path class="st40" d="M1057.07,709.39c0.05,0.04,0.05,0.13-0.01,0.17l-4.32,3.47l0,0.01c-3.23,1.02-6.17,3.26-8.11,6.48
	c-0.02,0.03-0.04,0.05-0.08,0.05c-0.93,0.08-14.62,1.22-16.04,1.34c-0.06,0.01-0.11-0.05-0.11-0.11l3.19-31.06L1057.07,709.39z"/>
<path class="st40" d="M1044.51,719.73l-7.13,11.94c-0.03,0.05-0.11,0.06-0.14,0.02l-8.74-10.61c-0.05-0.06-0.01-0.15,0.07-0.15
	l15.86-1.33C1044.5,719.58,1044.55,719.66,1044.51,719.73z"/>
<path class="st40" d="M1073.68,748.01l-13.57-2.66c-0.04-0.01-0.06-0.05-0.03-0.09l7.24-12.13l6.45,14.78
	C1073.78,747.96,1073.73,748.02,1073.68,748.01z"/>
<path class="st40" d="M1073.16,718.57l-9.92-4.42c-3.24-1.93-7.03-2.22-10.5-1.11l4.44-3.56l7.12-5.72l2.57,4.3L1073.16,718.57z"/>
<path class="st41" d="M1073.07,718.42c0.02,0.03,0.07,0.01,0.06-0.03l-1.8-11.31c-0.23-1.46-0.73-2.84-1.47-4.06
	c-0.9-1.49-2.14-2.75-3.65-3.65l-7.06-4.21l5.14,8.59l2.57,4.3L1073.07,718.42z"/>
<polygon class="st40" points="1034.5,745.1 1031.38,750.33 1036.56,750.25 "/>
<path class="st40" d="M1036.56,750.25l-2.6,4.35l3.81-0.21c0.21-0.01,0.35-0.24,0.27-0.43L1036.56,750.25z"/>
<path class="st40" d="M1044.13,754.76l-2.6,4.36l-1.66-3.52c-0.07-0.15,0.03-0.34,0.2-0.36L1044.13,754.76z"/>
<polygon class="st40" points="1049.65,754.12 1046.53,759.34 1044.13,754.76 "/>
<path class="st40" d="M1099.73,730.41l-25.79,17.54c-0.07,0.05-0.16,0.02-0.19-0.05l-6.44-14.77c2.38-3.99,2.71-8.59,1.29-12.46
	c-0.98-2.67-2.79-4.99-5.36-6.52l9.92,4.42l0.01,0L1099.73,730.41z"/>
<ellipse transform="matrix(0.5124 -0.8587 0.8587 0.5124 -108.8933 1260.9147)" class="st18" cx="1055.95" cy="726.35" rx="5.92" ry="5.51"/>
<polygon class="st18" points="744.8,464.61 1056.54,724.54 736.85,469.15 "/>
<g>
	<g>
		<path class="st0" d="M265.79,798.97c3.22,0,3.22-5,0-5C262.57,793.97,262.56,798.97,265.79,798.97L265.79,798.97z"/>
	</g>
</g>
<g>
	<g>
		<path class="st0" d="M301.02,661.1c3.22,0,3.22-5,0-5C297.8,656.1,297.8,661.1,301.02,661.1L301.02,661.1z"/>
	</g>
</g>
<g>
	<g>
		<path class="st0" d="M106.47,610.54c3.22,0,3.22-5,0-5C103.25,605.54,103.25,610.54,106.47,610.54L106.47,610.54z"/>
	</g>
</g>
<g>
	<g>
		<path class="st0" d="M161.62,535.48c3.22,0,3.22-5,0-5C158.4,530.48,158.39,535.48,161.62,535.48L161.62,535.48z"/>
	</g>
</g>
<g>
	<g>
		<path class="st0" d="M130.98,466.54c0.51,0,1.02,0,1.53,0c0.34,0.01,0.67-0.06,0.96-0.22c0.31-0.1,0.58-0.27,0.8-0.52
			c0.24-0.23,0.42-0.49,0.52-0.8c0.16-0.3,0.23-0.62,0.22-0.96c-0.03-0.22-0.06-0.44-0.09-0.66c-0.12-0.42-0.33-0.79-0.64-1.1
			c-0.17-0.13-0.34-0.26-0.51-0.39c-0.39-0.23-0.81-0.34-1.26-0.34c-0.51,0-1.02,0-1.53,0c-0.34-0.01-0.67,0.06-0.96,0.22
			c-0.31,0.1-0.58,0.27-0.8,0.52c-0.24,0.23-0.42,0.49-0.52,0.8c-0.16,0.3-0.23,0.62-0.22,0.96c0.03,0.22,0.06,0.44,0.09,0.66
			c0.12,0.42,0.33,0.79,0.64,1.1c0.17,0.13,0.34,0.26,0.51,0.39C130.11,466.43,130.53,466.54,130.98,466.54L130.98,466.54z"/>
	</g>
</g>
<g>
	<g>
		<path class="st0" d="M227.49,595.22c3.22,0,3.22-5,0-5C224.27,590.22,224.27,595.22,227.49,595.22L227.49,595.22z"/>
	</g>
</g>
<g>
	<g>
		<path class="st0" d="M320.37,519.19c0-0.51,0-1.02,0-1.53c0.01-0.34-0.06-0.67-0.22-0.96c-0.1-0.31-0.27-0.58-0.52-0.8
			c-0.23-0.24-0.49-0.42-0.8-0.52c-0.3-0.16-0.62-0.23-0.96-0.22c-0.22,0.03-0.44,0.06-0.66,0.09c-0.42,0.12-0.79,0.33-1.1,0.64
			c-0.13,0.17-0.26,0.34-0.39,0.51c-0.23,0.39-0.34,0.81-0.34,1.26c0,0.51,0,1.02,0,1.53c-0.01,0.34,0.06,0.67,0.22,0.96
			c0.1,0.31,0.27,0.58,0.52,0.8c0.23,0.24,0.49,0.42,0.8,0.52c0.3,0.16,0.62,0.23,0.96,0.22c0.22-0.03,0.44-0.06,0.66-0.09
			c0.42-0.12,0.79-0.33,1.1-0.64c0.13-0.17,0.26-0.34,0.39-0.51C320.26,520.06,320.37,519.64,320.37,519.19L320.37,519.19z"/>
	</g>
</g>
<g>
	<g>
		<path class="st0" d="M245.87,492.59c3.22,0,3.22-5,0-5C242.66,487.59,242.65,492.59,245.87,492.59L245.87,492.59z"/>
	</g>
</g>
<g>
	<g>
		<path class="st0" d="M348.51,465.01c3.22,0,3.22-5,0-5C345.29,460.01,345.29,465.01,348.51,465.01L348.51,465.01z"/>
	</g>
</g>
<g>
	<g>
		<path class="st0" d="M356.17,376.16c3.22,0,3.22-5,0-5C352.95,371.16,352.95,376.16,356.17,376.16L356.17,376.16z"/>
	</g>
</g>
<g>
	<g>
		<path class="st0" d="M317.87,263.93c-0.32,0-0.63,0-0.95,0c-3.22,0-3.22,5,0,5c0.32,0,0.63,0,0.95,0
			C321.09,268.93,321.09,263.93,317.87,263.93c-0.32,0-0.63,0-0.95,0c-3.22,0-3.22,5,0,5c0.32,0,0.63,0,0.95,0
			C321.09,268.93,321.09,263.93,317.87,263.93L317.87,263.93z"/>
	</g>
</g>
<g>
	<g>
		<path class="st0" d="M464.94,236.76c3.22,0,3.22-5,0-5C461.72,231.76,461.71,236.76,464.94,236.76L464.94,236.76z"/>
	</g>
</g>
<g>
	<g>
		<path class="st0" d="M515.49,160.16c3.22,0,3.22-5,0-5C512.27,155.16,512.27,160.16,515.49,160.16L515.49,160.16z"/>
	</g>
</g>
<g>
	<g>
		<path class="st0" d="M477.19,88.16c0.51,0,1.02,0,1.53,0c0.34,0.01,0.67-0.06,0.96-0.22c0.31-0.1,0.58-0.27,0.8-0.52
			c0.24-0.23,0.42-0.49,0.52-0.8c0.16-0.3,0.23-0.62,0.22-0.96c-0.03-0.22-0.06-0.44-0.09-0.66c-0.12-0.42-0.33-0.79-0.64-1.1
			c-0.17-0.13-0.34-0.26-0.51-0.39c-0.39-0.23-0.81-0.34-1.26-0.34c-0.51,0-1.02,0-1.53,0c-0.34-0.01-0.67,0.06-0.96,0.22
			c-0.31,0.1-0.58,0.27-0.8,0.52c-0.24,0.23-0.42,0.49-0.52,0.8c-0.16,0.3-0.23,0.62-0.22,0.96c0.03,0.22,0.06,0.44,0.09,0.66
			c0.12,0.42,0.33,0.79,0.64,1.1c0.17,0.13,0.34,0.26,0.51,0.39C476.32,88.04,476.74,88.16,477.19,88.16L477.19,88.16z"/>
	</g>
</g>
<g>
	<g>
		<path class="st0" d="M569.11,115.73c3.22,0,3.22-5,0-5C565.89,110.73,565.88,115.73,569.11,115.73L569.11,115.73z"/>
	</g>
</g>
<g>
	<g>
		<path class="st0" d="M867.83,59.05c3.22,0,3.22-5,0-5C864.61,54.05,864.61,59.05,867.83,59.05L867.83,59.05z"/>
	</g>
</g>
<g>
	<g>
		<path class="st0" d="M1005.14,64.21c0-0.51,0-1.02,0-1.53c0.01-0.34-0.06-0.67-0.22-0.96c-0.1-0.31-0.27-0.58-0.52-0.8
			c-0.23-0.24-0.49-0.42-0.8-0.52c-0.3-0.16-0.62-0.23-0.96-0.22c-0.22,0.03-0.44,0.06-0.66,0.09c-0.42,0.12-0.79,0.33-1.1,0.64
			c-0.13,0.17-0.26,0.34-0.39,0.51c-0.23,0.39-0.34,0.81-0.34,1.26c0,0.51,0,1.02,0,1.53c-0.01,0.34,0.06,0.67,0.22,0.96
			c0.1,0.31,0.27,0.58,0.52,0.8c0.23,0.24,0.49,0.42,0.8,0.52c0.3,0.16,0.62,0.23,0.96,0.22c0.22-0.03,0.44-0.06,0.66-0.09
			c0.42-0.12,0.79-0.33,1.1-0.64c0.13-0.17,0.26-0.34,0.39-0.51C1005.02,65.08,1005.14,64.66,1005.14,64.21L1005.14,64.21z"/>
	</g>
</g>
<g>
	<g>
		<path class="st0" d="M1109.87,16.16c3.22,0,3.22-5,0-5C1106.66,11.16,1106.65,16.16,1109.87,16.16L1109.87,16.16z"/>
	</g>
</g>
<g>
	<g>
		<path class="st0" d="M1152.77,85.1c1.02,0,2.04,0,3.06,0c0.64,0,1.31-0.28,1.77-0.73c0.24-0.23,0.42-0.49,0.52-0.8
			c0.16-0.3,0.23-0.62,0.22-0.96c-0.03-0.65-0.24-1.32-0.73-1.77c-0.49-0.45-1.09-0.73-1.77-0.73c-1.02,0-2.04,0-3.06,0
			c-0.64,0-1.31,0.28-1.77,0.73c-0.24,0.23-0.42,0.49-0.52,0.8c-0.16,0.3-0.23,0.62-0.22,0.96c0.03,0.65,0.24,1.32,0.73,1.77
			C1151.49,84.81,1152.09,85.1,1152.77,85.1L1152.77,85.1z"/>
	</g>
</g>
<g>
	<g>
		<path class="st0" d="M1169.62,22.29c3.22,0,3.22-5,0-5C1166.4,17.29,1166.39,22.29,1169.62,22.29L1169.62,22.29z"/>
	</g>
</g>
<g>
	<g>
		<path class="st0" d="M169.28,628.93c3.22,0,3.22-5,0-5C166.06,623.93,166.05,628.93,169.28,628.93L169.28,628.93z"/>
	</g>
</g>
<ellipse transform="matrix(0.8327 -0.5538 0.5538 0.8327 -276.9068 671.2924)" class="st6" cx="972.34" cy="793.85" rx="8.87" ry="7.33"/>
<path class="st10" d="M706.84,429.2l19.28,23.51c0,0,21.55,7.91,18.56,14.07c-2.99,6.16-5.57,4.15-5.57,4.15l-8.25-6.54
	c0,0-6.13,0.08-13.42-11.58l-21.56-21.31L706.84,429.2z"/>
<g>
	<g>
		<path class="st0" d="M716.17,96.59c3.22,0,3.22-5,0-5C712.95,91.59,712.95,96.59,716.17,96.59L716.17,96.59z"/>
	</g>
</g>
<g>
	<g>
		<path class="st0" d="M697.45,37.1c3.22,0,3.22-5,0-5C694.23,32.1,694.22,37.1,697.45,37.1L697.45,37.1z"/>
	</g>
</g>
<g>
	<g>
		<path class="st0" d="M756.34,136.84c3.22,0,3.22-5,0-5C753.12,131.84,753.12,136.84,756.34,136.84L756.34,136.84z"/>
	</g>
</g>
<g>
	<g>
		<path class="st0" d="M789.02,101.78c3.22,0,3.22-5,0-5C785.8,96.78,785.8,101.78,789.02,101.78L789.02,101.78z"/>
	</g>
</g>
<g>
	<g>
		<path class="st0" d="M767.91,38.8c3.22,0,3.22-5,0-5C764.7,33.8,764.69,38.8,767.91,38.8L767.91,38.8z"/>
	</g>
</g>
<g>
	<g>
		<path class="st0" d="M823.4,63.65c3.22,0,3.22-5,0-5C820.19,58.65,820.18,63.65,823.4,63.65L823.4,63.65z"/>
	</g>
</g>
<g>
	<g>
		<path class="st0" d="M916.34,88.84c3.22,0,3.22-5,0-5C913.12,83.84,913.12,88.84,916.34,88.84L916.34,88.84z"/>
	</g>
</g>
<g>
	<g>
		<path class="st0" d="M995.66,25.86c3.22,0,3.22-5,0-5C992.44,20.86,992.44,25.86,995.66,25.86L995.66,25.86z"/>
	</g>
</g>
<g>
	<g>
		<path class="st0" d="M1056.6,6.46c3.22,0,3.22-5,0-5C1053.38,1.46,1053.37,6.46,1056.6,6.46L1056.6,6.46z"/>
	</g>
</g>
<g>
	<g>
		<path class="st0" d="M288.77,417.52c3.22,0,3.22-5,0-5C285.55,412.52,285.54,417.52,288.77,417.52L288.77,417.52z"/>
	</g>
</g>
<g>
	<g>
		<path class="st0" d="M247.4,219.9c3.22,0,3.22-5,0-5C244.19,214.9,244.18,219.9,247.4,219.9L247.4,219.9z"/>
	</g>
</g>
<g>
	<g>
		<path class="st0" d="M264.26,276.59c3.22,0,3.22-5,0-5C261.04,271.59,261.03,276.59,264.26,276.59L264.26,276.59z"/>
	</g>
</g>
<g>
	<g>
		<path class="st0" d="M373.02,182.37c0.26,0,0.51,0,0.77,0c0.34,0.01,0.67-0.06,0.96-0.22c0.31-0.1,0.58-0.27,0.8-0.52
			c0.24-0.23,0.42-0.49,0.52-0.8c0.16-0.3,0.23-0.62,0.22-0.96c-0.03-0.22-0.06-0.44-0.09-0.66c-0.12-0.42-0.33-0.79-0.64-1.1
			c-0.17-0.13-0.34-0.26-0.51-0.39c-0.39-0.23-0.81-0.34-1.26-0.34c-0.26,0-0.51,0-0.77,0c-0.34-0.01-0.67,0.06-0.96,0.22
			c-0.31,0.1-0.58,0.27-0.8,0.52c-0.24,0.23-0.42,0.49-0.52,0.8c-0.16,0.3-0.23,0.62-0.22,0.96c0.03,0.22,0.06,0.44,0.09,0.66
			c0.12,0.42,0.33,0.79,0.64,1.1c0.17,0.13,0.34,0.26,0.51,0.39C372.15,182.26,372.57,182.37,373.02,182.37L373.02,182.37z"/>
	</g>
</g>
<g>
	<g>
		<path class="st0" d="M436.39,140.81c0,0.26,0,0.51,0,0.77c-0.01,0.34,0.06,0.67,0.22,0.96c0.1,0.31,0.27,0.58,0.52,0.8
			c0.23,0.24,0.49,0.42,0.8,0.52c0.3,0.16,0.62,0.23,0.96,0.22c0.22-0.03,0.44-0.06,0.66-0.09c0.42-0.12,0.79-0.33,1.1-0.64
			c0.13-0.17,0.26-0.34,0.39-0.51c0.23-0.39,0.34-0.81,0.34-1.26c0-0.26,0-0.51,0-0.77c0.01-0.34-0.06-0.67-0.22-0.96
			c-0.1-0.31-0.27-0.58-0.52-0.8c-0.23-0.24-0.49-0.42-0.8-0.52c-0.3-0.16-0.62-0.23-0.96-0.22c-0.22,0.03-0.44,0.06-0.66,0.09
			c-0.42,0.12-0.79,0.33-1.1,0.64c-0.13,0.17-0.26,0.34-0.39,0.51C436.51,139.94,436.4,140.36,436.39,140.81L436.39,140.81z"/>
	</g>
</g>
<g>
	<g>
		<path class="st0" d="M641.11,76.67c3.22,0,3.22-5,0-5C637.89,71.67,637.88,76.67,641.11,76.67L641.11,76.67z"/>
	</g>
</g>
<g>
	<g>
		<path class="st0" d="M671.74,138.71c3.22,0,3.22-5,0-5C668.53,133.71,668.52,138.71,671.74,138.71L671.74,138.71z"/>
	</g>
</g>
<g>
	<g>
		<path class="st0" d="M522.38,239.82c3.22,0,3.22-5,0-5C519.17,234.82,519.16,239.82,522.38,239.82L522.38,239.82z"/>
	</g>
</g>
<g>
	<g>
		<path class="st0" d="M405.19,327.9c3.22,0,3.22-5,0-5C401.97,322.9,401.97,327.9,405.19,327.9L405.19,327.9z"/>
	</g>
</g>
<g>
	<g>
		<path class="st0" d="M158.96,737.64c0.11-0.11,0.23-0.23,0.34-0.34c0.24-0.23,0.42-0.49,0.52-0.8c0.16-0.3,0.23-0.62,0.22-0.96
			c0.01-0.34-0.06-0.67-0.22-0.96c-0.1-0.31-0.27-0.58-0.52-0.8c-0.17-0.13-0.34-0.26-0.51-0.39c-0.39-0.23-0.81-0.34-1.26-0.34
			c-0.22,0.03-0.44,0.06-0.66,0.09c-0.42,0.12-0.79,0.33-1.1,0.64c-0.11,0.11-0.23,0.23-0.34,0.34c-0.24,0.23-0.42,0.49-0.52,0.8
			c-0.16,0.3-0.23,0.62-0.22,0.96c-0.01,0.34,0.06,0.67,0.22,0.96c0.1,0.31,0.27,0.58,0.52,0.8c0.17,0.13,0.34,0.26,0.51,0.39
			c0.39,0.23,0.81,0.34,1.26,0.34c0.22-0.03,0.44-0.06,0.66-0.09C158.28,738.16,158.65,737.95,158.96,737.64L158.96,737.64z"/>
	</g>
</g>
<g>
	<g>
		<path class="st0" d="M218.81,758.12c3.22,0,3.22-5,0-5C215.59,753.12,215.59,758.12,218.81,758.12L218.81,758.12z"/>
	</g>
</g>
<g>
	<g>
		<path class="st0" d="M334.21,773.44c0.11,0,0.23,0,0.34,0c0.34,0.01,0.67-0.06,0.96-0.22c0.31-0.1,0.58-0.27,0.8-0.52
			c0.24-0.23,0.42-0.49,0.52-0.8c0.16-0.3,0.23-0.62,0.22-0.96c-0.03-0.22-0.06-0.44-0.09-0.66c-0.12-0.42-0.33-0.79-0.64-1.1
			c-0.17-0.13-0.34-0.26-0.51-0.39c-0.39-0.23-0.81-0.34-1.26-0.34c-0.11,0-0.23,0-0.34,0c-0.34-0.01-0.67,0.06-0.96,0.22
			c-0.31,0.1-0.58,0.27-0.8,0.52c-0.24,0.23-0.42,0.49-0.52,0.8c-0.16,0.3-0.23,0.62-0.22,0.96c0.03,0.22,0.06,0.44,0.09,0.66
			c0.12,0.42,0.33,0.79,0.64,1.1c0.17,0.13,0.34,0.26,0.51,0.39C333.34,773.32,333.76,773.43,334.21,773.44L334.21,773.44z"/>
	</g>
</g>
<g>
	<g>
		<path class="st0" d="M193.62,810.54c3.22,0,3.22-5,0-5C190.4,805.54,190.39,810.54,193.62,810.54L193.62,810.54z"/>
	</g>
</g>
<g>
	<g>
		<path class="st0" d="M318.52,825.05c0.01,0.03,0.02,0.06,0.02,0.09c-0.03-0.22-0.06-0.44-0.09-0.66c0.01,0.04,0,0.09,0,0.13
			c0.03-0.22,0.06-0.44,0.09-0.66c-0.01,0.05-0.02,0.1-0.04,0.14c0.08-0.2,0.17-0.4,0.25-0.6c-0.02,0.04-0.04,0.09-0.07,0.13
			c0.13-0.17,0.26-0.34,0.39-0.51c-0.03,0.03-0.06,0.06-0.09,0.09c0.17-0.13,0.34-0.26,0.51-0.39c-0.03,0.03-0.07,0.05-0.11,0.06
			c0.2-0.08,0.4-0.17,0.6-0.25c-0.02,0.01-0.03,0.01-0.05,0.02c-0.33,0.08-0.61,0.23-0.85,0.45c-0.27,0.18-0.49,0.41-0.64,0.7
			c-0.18,0.29-0.28,0.6-0.3,0.93c-0.07,0.33-0.06,0.66,0.04,1c0.08,0.2,0.17,0.4,0.25,0.6c0.22,0.38,0.52,0.67,0.9,0.9
			c0.2,0.08,0.4,0.17,0.6,0.25c0.44,0.12,0.89,0.12,1.33,0c0.24-0.07,0.47-0.17,0.69-0.29c0.01-0.01,0.03-0.02,0.04-0.03
			c0.09-0.07,0.2-0.15,0.27-0.21c0.07-0.06,0.18-0.14,0.27-0.21c0.03-0.02,0.05-0.05,0.07-0.08c0.06-0.08,0.3-0.36,0.42-0.54
			c0.01-0.02,0.02-0.03,0.03-0.05c0-0.01,0.01-0.02,0.01-0.02c0-0.01,0-0.01,0.01-0.02c0.08-0.2,0.17-0.4,0.25-0.6
			c0.01-0.02,0.01-0.03,0.02-0.05c0.01-0.02,0.01-0.04,0.01-0.05c0.05-0.23,0.07-0.47,0.1-0.71c0-0.04,0-0.07,0-0.11
			c-0.01-0.11-0.03-0.23-0.05-0.34c-0.01-0.11-0.03-0.23-0.05-0.34c0-0.01,0-0.02,0-0.03c0-0.02-0.01-0.04-0.02-0.06
			c-0.08-0.33-0.23-0.61-0.45-0.85c-0.18-0.27-0.41-0.49-0.7-0.64c-0.29-0.18-0.6-0.28-0.93-0.3c-0.33-0.07-0.66-0.06-1,0.04
			c-0.2,0.08-0.4,0.17-0.6,0.25c-0.38,0.22-0.67,0.52-0.9,0.9c-0.08,0.2-0.17,0.4-0.25,0.6C318.4,824.16,318.4,824.61,318.52,825.05
			L318.52,825.05z"/>
	</g>
</g>
</svg>
