<?xml version="1.0" encoding="utf-8"?>
<!-- Generator: Adobe Illustrator 24.1.1, SVG Export Plug-In . SVG Version: 6.00 Build 0)  -->
<svg version="1.1" id="Layer_1" xmlns="http://www.w3.org/2000/svg" xmlns:xlink="http://www.w3.org/1999/xlink" x="0px" y="0px"
	 viewBox="0 0 3061.42 3061.42" style="enable-background:new 0 0 3061.42 3061.42;" xml:space="preserve">
<style type="text/css">
	.st0{fill:url(#SVGID_1_);}
	.st1{fill:#6060A6;}
	.st2{opacity:0.71;fill:#58558E;}
	.st3{fill:#D1B8B7;stroke:#F9F9F9;stroke-width:6;stroke-miterlimit:10;}
	.st4{fill:#FCEAEA;}
	.st5{fill:#6B66AB;}
	.st6{fill:none;stroke:#5E5C99;stroke-width:6;stroke-miterlimit:10;}
	.st7{fill:#F2CEAA;}
	.st8{fill:#DA2217;}
	.st9{fill:#26100D;}
	.st10{fill:#E9D1D1;}
	.st11{fill:none;stroke:#818281;stroke-miterlimit:10;}
	.st12{fill:#26100D;stroke:#6F6C6C;stroke-miterlimit:10;}
	.st13{fill:#818281;}
	.st14{fill:#E53076;}
	.st15{fill:#243880;}
</style>
<linearGradient id="SVGID_1_" gradientUnits="userSpaceOnUse" x1="1539.1969" y1="-88.8925" x2="1522.7871" y2="2132.3706">
	<stop  offset="0" style="stop-color:#FFFFFF"/>
	<stop  offset="0.8963" style="stop-color:#FBD0EB"/>
</linearGradient>
<rect x="0.4" class="st0" width="3061.42" height="2010.64"/>
<rect x="0.4" y="2010.64" class="st1" width="3061.42" height="1050.78"/>
<ellipse class="st2" cx="1529.41" cy="2415.44" rx="715.48" ry="258.89"/>
<ellipse class="st3" cx="1531.11" cy="2317.4" rx="654.67" ry="286.47"/>
<path class="st4" d="M861.67,1495.76l221.04,749.64c0,0,63.26,223.66,443.71,214.47c380.46-9.19,401.9-104.17,463.18-260.43
	s207.56-680.39,207.56-680.39L861.67,1495.76z"/>
<polygon class="st5" points="3061.82,1280.29 2406.28,1280.29 2286.79,1166.93 3061.82,1166.93 "/>
<path class="st6" d="M2286.79,1166.93c0,0-3.06-162.38,186.89-168.51c189.96-6.13,588.14,0,588.14,0"/>
<path class="st6" d="M2406.28,1280.29c0,0-18.38-171.57,202.21-165.45c220.6,6.13,453.33-0.16,453.33-0.16"/>
<ellipse class="st7" cx="2837.89" cy="708.59" rx="34.09" ry="36.38"/>
<path class="st8" d="M2876.57,741.83c0,0,42.13-6.89,54.38,43.66c12.26,50.55,19.15,134.04,19.15,134.04s-68.17,17.62-93.45,0
	c0,0-42.19-149.37-6.16-173.87L2876.57,741.83z"/>
<path class="st7" d="M2950.11,919.53c0,0,13.79,16.09,9.19,54.38c-4.6,38.3-18.38,107.4-18.38,107.4s32.17,41.96,45.19,130.81h-22.6
	c0,0-60.13-103.4-60.13-123.32s-2.3-106.21-2.3-106.21s-2.16,20.84-32.46,46.27c-6.29,5.28-13.79,10.75-22.73,16.28
	c0,0,13.75,58.05,0,152.35h-23.7c0,0-18.38-152.35-14.55-157.71c1.3-1.81,7.32-16.15,14.73-34.34
	c14.5-35.59,34.29-85.92,34.29-85.92H2950.11z"/>
<path class="st9" d="M2847.98,680.81c0,0-32.17,32.17-62.81,14.81c0,0-3.57-12.26,14.3-18.38c17.87-6.13,4.6-21.96,25.53-22.98
	c20.94-1.02,35.23-15.83,46.98,13.79c11.74,29.62,6.43,52.85-1.64,51.7C2862.28,718.59,2850.49,688.5,2847.98,680.81z"/>
<ellipse class="st10" cx="1531.11" cy="1500.37" rx="669.45" ry="234.39"/>
<path class="st9" d="M2062.11,1637.74c-41.87,25.5-228.95,87.81-530.99,87.81s-485.19-63.27-540.65-98.56
	c-60.68-38.6,58.54-230.27,538.03-153.67C1826.75,1520.96,2123.53,1600.33,2062.11,1637.74z"/>
<ellipse class="st11" cx="1526.96" cy="1603.53" rx="153.19" ry="47.49"/>
<ellipse class="st12" cx="1531.02" cy="1459.29" rx="40.6" ry="56.41"/>
<g>
	<path class="st9" d="M1622.73,1140.79v77.14c0,0.64-0.52,1.15-1.17,1.15h-157.73c-0.38,0-0.66-0.28-0.66-0.6v-77.69
		c0-20.86,8.31-39.88,21.96-53.88v-0.05c14.55-15.01,35.06-24.36,57.82-24.36c18.02,0,34.59,5.85,47.91,15.7
		C1610.2,1092.48,1622.73,1115.19,1622.73,1140.79z"/>
	<path class="st13" d="M1621.56,1220.24h-157.73c-1.01,0-1.83-0.78-1.83-1.75v-77.69c0-20.37,7.8-39.65,21.96-54.35l0.33-0.37
		c15.45-15.94,36.28-24.72,58.66-24.72c17.71,0,34.52,5.51,48.62,15.94c20.55,15.17,32.33,38.31,32.33,63.5v77.14
		C1623.9,1219.22,1622.87,1220.24,1621.56,1220.24z M1464.35,1217.93h157.21v-77.14c0-24.46-11.44-46.94-31.4-61.66
		c-13.69-10.12-30.01-15.48-47.21-15.48c-21.58,0-41.67,8.4-56.64,23.67l-0.33,0.38c-13.95,14.3-21.64,33.15-21.64,53.09V1217.93z"
		/>
	<path class="st9" d="M1516.73,1220.88l20.89,102.56l-21.26-14.83l-26.56-18.56l-26.61-18.61l51.85-51.06
		C1515.61,1219.82,1516.57,1220.11,1516.73,1220.88z"/>
	<path class="st13" d="M1539.35,1326.05l-77.96-54.46l52.83-52.02c0.56-0.55,1.38-0.76,2.16-0.54c0.77,0.22,1.35,0.85,1.51,1.62v0
		L1539.35,1326.05z M1465,1271.29l70.89,49.53l-20.27-99.51L1465,1271.29z M1515.58,1221.11L1515.58,1221.11L1515.58,1221.11z"/>
	<path class="st9" d="M1622.75,1271.3l-26.61,18.65l-26.61,18.61l-21.26,14.88l20.79-102.07c0.2-0.98,1.43-1.34,2.15-0.64
		L1622.75,1271.3z"/>
	<path class="st13" d="M1546.54,1326.06l21.37-104.92c0.17-0.87,0.82-1.57,1.69-1.83c0.86-0.27,1.8-0.03,2.44,0.6l52.52,51.54
		L1546.54,1326.06z M1570.38,1221.54l-20.37,99.26l70.93-49.65L1570.38,1221.54z"/>
	<polyline class="st9" points="1537.62,1323.43 1516.36,1219.08 1569.53,1219.08 1548.27,1323.43 1542.97,1349.55 1537.62,1323.43 	
		"/>
	<path class="st13" d="M1542.98,1355.41l-28.04-137.49h56.03L1542.98,1355.41z M1538.77,1323.21l4.2,20.47l25.13-123.45h-50.31
		L1538.77,1323.21z"/>
	<path class="st9" d="M1496.3,1057.39c0.41,0.04,0.67,0.46,0.51,0.84l-11.66,28.63v0.05c-13.59,13.93-21.88,32.83-21.96,53.56
		c0,0.2-0.07,0.37-0.24,0.48c-4.55,2.98-71.94,47.05-78.95,51.64c-0.31,0.21-0.74,0.09-0.91-0.24l-79.46-155.96L1496.3,1057.39z"/>
	<path class="st13" d="M1383.66,1193.83c-0.16,0-0.31-0.02-0.46-0.06c-0.49-0.13-0.92-0.46-1.15-0.91l-80.42-157.86l194.8,21.24
		c0.57,0.06,1.06,0.37,1.35,0.85c0.29,0.48,0.33,1.05,0.12,1.57l-11.57,28.66l-0.33,0.38c-13.87,14.22-21.56,32.96-21.64,52.77
		c0,0.6-0.28,1.12-0.78,1.44l-78.93,51.63C1384.36,1193.73,1384.01,1193.83,1383.66,1193.83z M1305.65,1037.76l78.22,153.53
		l78.15-51.12c0.16-20.21,8-39.31,22.1-53.87l11.34-27.85L1305.65,1037.76z M1462.3,1139.98c0,0-0.01,0-0.01,0.01L1462.3,1139.98z
		 M1495.72,1057.8L1495.72,1057.8L1495.72,1057.8z"/>
	<path class="st9" d="M1463.19,1141.75v76.61c0,0.35-0.35,0.6-0.69,0.49l-78.07-25.55c-0.41-0.14-0.49-0.68-0.13-0.92l78.07-51.06
		C1462.73,1141.09,1463.19,1141.34,1463.19,1141.75z"/>
	<path class="st13" d="M1462.67,1220.03c-0.18,0-0.37-0.03-0.54-0.09l-78.06-25.55c-0.62-0.2-1.06-0.72-1.15-1.36
		c-0.09-0.64,0.2-1.25,0.75-1.61l78.06-51.06c0.53-0.34,1.2-0.38,1.75-0.08c0.55,0.29,0.9,0.85,0.9,1.47v76.61
		c0,0.54-0.27,1.04-0.71,1.35C1463.37,1219.92,1463.02,1220.03,1462.67,1220.03z M1462.87,1217.76L1462.87,1217.76L1462.87,1217.76z
		 M1386.07,1192.62l75.96,24.86v-74.54L1386.07,1192.62z M1384.97,1193.34L1384.97,1193.34
		C1384.96,1193.34,1384.96,1193.34,1384.97,1193.34z"/>
	<path class="st9" d="M1701.74,1193.22l-78.54,25.71c-0.22,0.07-0.45-0.09-0.45-0.32v-77.82l79.09,51.73
		C1702.12,1192.7,1702.06,1193.12,1701.74,1193.22z"/>
	<path class="st13" d="M1623.1,1220.1c-0.31,0-0.62-0.09-0.88-0.27c-0.4-0.28-0.64-0.73-0.64-1.21v-79.98l80.91,52.92
		c0.51,0.34,0.77,0.91,0.69,1.5c-0.08,0.58-0.49,1.07-1.06,1.25l-78.54,25.71C1623.42,1220.07,1623.26,1220.1,1623.1,1220.1z
		 M1622.84,1217.83c-0.01,0-0.02,0-0.03,0.01L1622.84,1217.83z M1623.92,1142.93v74.54l75.96-24.86L1623.92,1142.93z"/>
	<path class="st9" d="M1608.06,1055.4l-65.09,7.09c-22.76,0-43.27,9.35-57.82,24.36l11.97-29.38l19.24-47.16l26.61,13.08
		L1608.06,1055.4z"/>
	<path class="st13" d="M1481.8,1091.99l33.95-83.27l96.38,47.39l-69.03,7.52c-21.86,0.01-42.1,8.54-57.09,24.01L1481.8,1091.99z
		 M1516.98,1011.91l-28.66,70.28c14.95-13.48,34.16-20.85,54.65-20.85l61.02-6.66L1516.98,1011.91z"/>
	<path class="st9" d="M1607.13,1054.94c0.19,0.1,0.38-0.14,0.24-0.3l-44.26-48.43c-5.73-6.26-12.58-11.38-20.13-15.06
		c-9.29-4.51-19.57-6.95-30.17-6.95h-49.6l53.17,26.11l26.61,13.08L1607.13,1054.94z"/>
	<path class="st13" d="M1607.22,1056.12c-0.21,0-0.41-0.04-0.6-0.14l-148.39-72.93h54.57c10.71,0,21.03,2.38,30.7,7.08
		c7.75,3.78,14.65,8.94,20.49,15.32l44.91,49.13l-0.58,1.01C1608.05,1055.93,1607.63,1056.12,1607.22,1056.12z M1468.16,985.35
		l134.9,66.31l-40.84-44.68c-5.64-6.17-12.29-11.14-19.78-14.8c-9.34-4.53-19.32-6.84-29.66-6.84H1468.16z"/>
	<polygon class="st9" points="1489.78,1290.04 1489.78,1323.6 1516.37,1308.61 	"/>
	<path class="st13" d="M1488.61,1325.59v-37.78l29.94,20.9L1488.61,1325.59z M1490.95,1292.27v29.34l23.24-13.11L1490.95,1292.27z"
		/>
	<path class="st9" d="M1516.37,1308.61v27.94l19.1-11.74c1.04-0.64,1.08-2.11,0.08-2.8L1516.37,1308.61z"/>
	<path class="st13" d="M1515.2,1338.63v-32.26l21.03,14.68c0.79,0.55,1.25,1.45,1.22,2.4c-0.03,0.95-0.54,1.82-1.36,2.32
		L1515.2,1338.63z M1517.54,1310.84v23.63l17.3-10.64c0.22-0.13,0.25-0.33,0.26-0.44c0-0.11-0.02-0.31-0.23-0.45L1517.54,1310.84z"
		/>
	<path class="st9" d="M1569.54,1308.57v27.95l-19.49-11.99c-0.84-0.52-0.88-1.71-0.07-2.28L1569.54,1308.57z"/>
	<path class="st13" d="M1570.71,1338.61l-21.28-13.1c-0.73-0.45-1.18-1.22-1.21-2.06c-0.02-0.85,0.38-1.64,1.08-2.13l21.41-14.98
		V1338.61z M1568.36,1310.81l-17.69,12.38l0.01,0.37l17.69,10.88V1310.81z"/>
	<polygon class="st9" points="1596.15,1289.97 1596.15,1323.45 1569.54,1308.57 	"/>
	<path class="st13" d="M1597.32,1325.43l-29.96-16.74l29.96-20.95V1325.43z M1571.71,1308.47l23.26,13v-29.26L1571.71,1308.47z"/>
	<path class="st9" d="M1782.31,1036.38l-79.38,155.8c-0.21,0.42-0.75,0.56-1.14,0.3l-79.03-51.69c0-25.61-12.53-48.31-31.86-62.59
		c-13.33-9.86-29.89-15.7-47.91-15.7l65.09-7.09h0.05L1782.31,1036.38z"/>
	<path class="st13" d="M1702.22,1193.76c-0.38,0-0.76-0.11-1.08-0.32l-79.56-52.04v-0.62c0-24.45-11.44-46.93-31.4-61.66
		c-13.69-10.12-30.02-15.48-47.21-15.48l-0.13-2.29l241.47-26.35l-80.34,157.68c-0.25,0.49-0.7,0.86-1.25,1
		C1702.56,1193.74,1702.39,1193.76,1702.22,1193.76z M1701.88,1191.66L1701.88,1191.66L1701.88,1191.66z M1623.92,1140.17
		l78.15,51.11l78.22-153.52l-224.77,24.53c13.05,1.98,25.34,7.07,36.06,14.99C1611.97,1092.33,1623.73,1115.22,1623.92,1140.17z"/>
	<ellipse class="st9" cx="1542.97" cy="1140.79" rx="33.24" ry="32.62"/>
	<path class="st13" d="M1542.97,1174.56c-18.98,0-34.42-15.15-34.42-33.78c0-18.62,15.44-33.77,34.42-33.77
		c18.97,0,34.41,15.15,34.41,33.77C1577.39,1159.41,1561.95,1174.56,1542.97,1174.56z M1542.97,1109.32
		c-17.69,0-32.07,14.12-32.07,31.47c0,17.36,14.39,31.47,32.07,31.47c17.68,0,32.07-14.12,32.07-31.47
		C1575.04,1123.43,1560.65,1109.32,1542.97,1109.32z"/>
</g>
<polygon class="st14" points="2286.79,1166.93 1892.45,1302.29 1998.79,1415.1 2406.28,1280.29 "/>
<path class="st7" d="M2963.51,1212.12c0,0-16.84,8.04-37.98,9.55c-21.14,1.51-12.72,19.41,19.4,17.76s42.12-5.54,42.12-5.54
	l-1.09-22.81L2963.51,1212.12z"/>
<path class="st7" d="M2822.19,1197.49c0,0-18.88,9.51-40.02,11.02c-21.14,1.51-12.72,19.41,19.4,17.76
	c32.11-1.65,42.12-5.54,42.12-5.54l2.21-23.24H2822.19z"/>
<path class="st7" d="M2866.68,728.07c0,0,4.54,13.75,9.9,13.75c5.36,0,3.06,26.04-17.62,20.68c0,0-5.06-19.57-13.06-18.55
	L2866.68,728.07z"/>
<path class="st10" d="M891.65,1603.53c0,0-112.34,63.32-44.94,292.09s196.09,196.09,196.09,196.09l-34.72-130.72
	c0,0-100.09-91.91-85.79-255.32L891.65,1603.53z"/>
<path class="st15" d="M2950.11,919.53c0,0,29.11,19.15,7.66,104.17l-55.51,5.32l-0.8-32.43c0,0-28.39,47.79-38.98,46.26l-51-23.74
	l45.19-99.57H2950.11z"/>
<path class="st7" d="M2884.02,781.66c0,0,19.92-33.7,39.06,0l-5.36,98.04c0,0-23.61,58.21-57,91.91c0,0-14.32,20.68-16.57,30.64
	s-16.81-6.55-16.81-6.55s6.13-23.32,23.74-37.11c0,0,11.99-45.2,40.19-78.13C2891.28,880.47,2873.49,793.15,2884.02,781.66z"/>
</svg>
