<?xml version="1.0" encoding="utf-8"?>
<!-- Generator: Adobe Illustrator 24.1.1, SVG Export Plug-In . SVG Version: 6.00 Build 0)  -->
<svg version="1.1" id="Layer_1" xmlns="http://www.w3.org/2000/svg" xmlns:xlink="http://www.w3.org/1999/xlink" x="0px" y="0px"
	 viewBox="0 0 3061.42 3061.42" style="enable-background:new 0 0 3061.42 3061.42;" xml:space="preserve">
<style type="text/css">
	.st0{fill:url(#SVGID_1_);}
	.st1{fill:#253339;}
	.st2{fill:#E8E8E3;stroke:#3D3939;stroke-width:0.5;stroke-miterlimit:10;}
	.st3{fill:#FFFFFD;}
	.st4{fill:none;stroke:#000000;stroke-width:3;stroke-miterlimit:10;}
	.st5{fill:none;stroke:#000000;stroke-width:3;stroke-linecap:round;stroke-miterlimit:10;}
	.st6{fill:#1C8BCC;}
	.st7{fill:none;stroke:#F3F4F8;stroke-width:0.75;stroke-miterlimit:10;}
	.st8{fill:none;stroke:#F8F9F9;stroke-width:0.75;stroke-miterlimit:10;}
	.st9{fill:#1D1D1B;}
	.st10{font-family:'ArialMT';}
	.st11{font-size:95.7843px;}
	.st12{fill:none;stroke:#1D1D1B;stroke-miterlimit:10;}
	.st13{font-size:78.0111px;}
	.st14{font-size:62.4089px;}
	.st15{fill:none;}
	.st16{fill:#EAEFF1;stroke:#A7A7A6;stroke-width:0.5;stroke-miterlimit:10;}
	.st17{fill:none;stroke:#050606;stroke-width:0.25;stroke-miterlimit:10;}
	.st18{fill:none;stroke:#010202;stroke-width:0.25;stroke-miterlimit:10;}
	.st19{fill:#F9F9F9;}
	.st20{fill:none;stroke:#040505;stroke-width:0.25;stroke-miterlimit:10;}
	.st21{fill:none;stroke:#000000;stroke-width:0.25;stroke-miterlimit:10;}
	.st22{fill:none;stroke:#000000;stroke-width:0.25;stroke-linecap:round;stroke-miterlimit:10;}
	.st23{fill:#E42235;}
	.st24{fill:#F7CC9A;}
	.st25{fill:#EA5982;}
	.st26{fill:#080809;}
	.st27{fill:#513520;}
	.st28{fill:#2576BB;}
	.st29{fill:#EC6780;}
	.st30{fill:#2F4250;}
	.st31{fill:#2D3E52;}
	.st32{fill:#23679B;}
	.st33{fill:none;stroke:#23679B;stroke-width:4;stroke-miterlimit:10;}
	.st34{fill:#F7C48C;}
	.st35{fill:#E63149;}
	.st36{fill:#F2B579;}
	.st37{fill:#CB92C0;}
	.st38{fill:none;stroke:#F7C48C;stroke-width:6;stroke-miterlimit:10;}
	.st39{fill:#683B11;}
	.st40{fill:#BD82B7;}
</style>
<radialGradient id="SVGID_1_" cx="1533.8429" cy="1530.7086" r="2349.9807" gradientUnits="userSpaceOnUse">
	<stop  offset="0.56" style="stop-color:#F7EAC9"/>
	<stop  offset="0.9442" style="stop-color:#E8A27D"/>
</radialGradient>
<rect x="3.13" y="0" class="st0" width="3061.42" height="3061.42"/>
<path class="st1" d="M1447.67,2700.43H698.14c-88.44,0-160.13-71.69-160.13-160.13V659.92c0-88.44,71.69-160.13,160.13-160.13
	h749.53c88.44,0,160.13,71.69,160.13,160.13V2540.3C1607.8,2628.74,1536.11,2700.43,1447.67,2700.43z"/>
<path class="st2" d="M1406.79,2624.85H739.02c-86.93,0-157.41-70.47-157.41-157.41v-209.82V726.96
	c0-86.93,70.47-157.41,157.41-157.41h667.77c86.93,0,157.41,70.47,157.41,157.41v1740.48
	C1564.2,2554.37,1493.72,2624.85,1406.79,2624.85z"/>
<path class="st1" d="M887.58,569.56c0,0,21.8,14.54,23.98,38.52s-11.63,59.59,27.62,61.05c39.25,1.45,292.89,0,292.89,0
	s33.43,2.91,29.07-45.06c-4.36-47.97,27.86-54.51,27.86-54.51H887.58z"/>
<rect x="581.23" y="723.22" class="st2" width="983.34" height="1728.19"/>
<ellipse transform="matrix(0.9999 -0.0113 0.0113 0.9999 -14.5653 10.345)" class="st3" cx="910.77" cy="1297.76" rx="250.32" ry="244.87"/>
<g>
	<path class="st4" d="M979.89,1277.43l0.01,59.93c0,0.5-0.4,0.89-0.91,0.9l-122.96,0.09c-0.26,0-0.48-0.18-0.48-0.46l-0.01-60.35
		c0-16.21,6.47-30.99,17.11-41.87v-0.04c11.34-11.67,27.32-18.94,45.05-18.96c14.04-0.01,26.96,4.52,37.34,12.17
		C970.11,1239.9,979.88,1257.53,979.89,1277.43z"/>
	<path class="st4" d="M897.28,1339.72l16.3,79.66l-16.57-11.51l-20.7-14.4l-20.74-14.44l40.4-39.7
		C896.4,1338.9,897.15,1339.12,897.28,1339.72z"/>
	<path class="st4" d="M979.91,1378.83l-20.73,14.5l-20.73,14.47l-16.57,11.57l16.19-79.3c0.16-0.76,1.11-1.04,1.67-0.5
		L979.91,1378.83z"/>
	<polyline class="st4" points="913.58,1419.38 896.99,1338.32 938.43,1338.29 921.88,1419.37 917.75,1439.66 913.58,1419.38 	"/>
	<path class="st4" d="M881.33,1212.72c0.32,0.03,0.52,0.36,0.4,0.65l-9.08,22.25v0.04c-10.59,10.83-17.04,25.51-17.11,41.62
		c0,0.16-0.06,0.29-0.19,0.37c-3.55,2.32-56.05,36.59-61.52,40.16c-0.24,0.16-0.57,0.07-0.71-0.18l-61.96-121.11L881.33,1212.72z"/>
	<path class="st4" d="M855.54,1278.28l0.01,59.51c0,0.27-0.27,0.47-0.54,0.38l-60.85-19.81c-0.32-0.11-0.38-0.53-0.1-0.71
		l60.83-39.71C855.17,1277.77,855.54,1277.96,855.54,1278.28z"/>
	<path class="st4" d="M1041.46,1318.13l-61.21,20.01c-0.17,0.06-0.35-0.07-0.35-0.25l-0.01-60.46l61.65,40.14
		C1041.75,1317.73,1041.71,1318.05,1041.46,1318.13z"/>
	<path class="st4" d="M968.42,1211.12l-50.73,5.55c-17.74,0.01-33.72,7.29-45.05,18.96l9.32-22.83l14.99-36.65l20.74,10.15
		L968.42,1211.12z"/>
	<path class="st5" d="M967.7,1210.77c0.15,0.07,0.3-0.11,0.18-0.24l-34.5-37.59c-4.46-4.86-9.8-8.83-15.69-11.69
		c-7.24-3.5-15.25-5.39-23.52-5.39l-38.66,0.03l41.44,20.26l20.74,10.15L967.7,1210.77z"/>
	<polygon class="st4" points="876.29,1393.46 876.29,1419.53 897.01,1407.87 	"/>
	<path class="st4" d="M897.01,1407.87l0.01,21.7l14.88-9.13c0.81-0.5,0.84-1.64,0.06-2.18L897.01,1407.87z"/>
	<path class="st4" d="M938.45,1407.82l0.01,21.72l-15.19-9.3c-0.66-0.4-0.69-1.33-0.05-1.77L938.45,1407.82z"/>
	<polygon class="st4" points="959.18,1393.35 959.19,1419.36 938.45,1407.82 	"/>
	<path class="st4" d="M1104.22,1196.25l-61.83,121.07c-0.17,0.32-0.58,0.43-0.89,0.23l-61.6-40.11c0-19.89-9.77-37.52-24.84-48.6
		c-10.39-7.65-23.3-12.18-37.34-12.17l50.73-5.55h0.04L1104.22,1196.25z"/>
	
		<ellipse transform="matrix(0.9999 -0.0113 0.0113 0.9999 -14.3365 10.4219)" class="st4" cx="917.71" cy="1277.49" rx="25.91" ry="25.34"/>
</g>
<g>
	
		<ellipse transform="matrix(0.015 -0.9999 0.9999 0.015 -469.1854 2526.4429)" class="st6" cx="1047.67" cy="1501.35" rx="61.69" ry="60.75"/>
	<line class="st7" x1="1015.19" y1="1501.37" x2="1082.85" y2="1501.32"/>
	<line class="st8" x1="1049.01" y1="1465.63" x2="1049.03" y2="1537.07"/>
</g>
<text transform="matrix(0.6485 -5.253174e-04 3.400000e-04 1 660.0822 900.333)" class="st9 st10 st11">markutworks</text>
<polyline class="st12" points="1047.67,845.51 1065.7,872.67 1086.04,845.48 "/>
<line class="st12" x1="1451.96" y1="806.46" x2="1522.01" y2="806.41"/>
<line class="st12" x1="1451.97" y1="840.09" x2="1522.02" y2="840.03"/>
<line class="st12" x1="1451.98" y1="872.36" x2="1522.03" y2="872.3"/>
<text transform="matrix(0.7521 -5.791324e-04 3.100000e-04 1 731.1804 1758.8656)"><tspan x="0" y="0" class="st9 st10 st13">MARKUT</tspan><tspan x="0" y="74.89" class="st9 st10 st14">Tasarımcı</tspan><tspan x="0" y="149.78" class="st9 st10 st14">Endüstriyel Tasarım Dergisi</tspan><tspan x="0" y="224.67" class="st6 st10 st14">www.markut.net/</tspan></text>
<polygon class="st15" points="961.97,1834.67 990.16,1834.65 990.16,1834.65 961.97,1834.67 "/>
<path class="st16" d="M1543.97,2534.17l-947.18,0.77l-15.29-293.45l983.34-0.8l0.09,272.5
	C1564.93,2524.77,1543.97,2534.17,1543.97,2534.17z"/>
<path class="st17" d="M626.67,2486.08l43.21-0.03l-0.02-64.44c0,0,13.5-33.52,29.71-0.02l0.02,64.44l40.51-0.03l-0.03-100.53
	l-56.73-54.09l-56.7,51.6L626.67,2486.08z"/>
<ellipse transform="matrix(1.487491e-03 -1 1 1.487491e-03 -1549.0808 3260.0635)" class="st18" cx="857.92" cy="2405.73" rx="55.02" ry="48.91"/>
<line class="st17" x1="900.24" y1="2433.21" x2="961.87" y2="2474.43"/>
<path class="st18" d="M1100.67,2496.33l-49.81,0.04c-26.17,0.02-47.4-21.19-47.41-47.36l-0.03-89.67
	c-0.01-26.15,21.18-47.36,47.33-47.38l49.81-0.04c26.17-0.02,47.4,21.19,47.41,47.36l0.03,89.67
	C1148.02,2475.1,1126.83,2496.31,1100.67,2496.33z"/>
<line class="st17" x1="1036.11" y1="2404.17" x2="1121.04" y2="2404.11"/>
<line class="st17" x1="1075.7" y1="2353.61" x2="1078.59" y2="2453.28"/>
<ellipse transform="matrix(0.0694 -0.9976 0.9976 0.0694 -1062.6123 3700.1665)" class="st19" cx="1451.96" cy="2419.64" rx="54.6" ry="49.19"/>
<ellipse transform="matrix(0.0694 -0.9976 0.9976 0.0694 -1062.6123 3700.1665)" class="st20" cx="1451.96" cy="2419.64" rx="84.81" ry="76.4"/>
<g>
	<path class="st21" d="M1464.35,2414.1l-0.3,13.4c0,0.11-0.08,0.2-0.18,0.2l-24.25-0.27c-0.05,0-0.09-0.04-0.09-0.1l0.3-13.49
		c0.08-3.62,1.43-6.91,3.58-9.32l0-0.01c2.29-2.58,5.48-4.17,8.98-4.13c2.77,0.03,5.29,1.07,7.3,2.81
		C1462.61,2405.69,1464.44,2409.66,1464.35,2414.1z"/>
	<path class="st21" d="M1447.75,2427.84l2.82,17.85l-3.21-2.61l-4.01-3.27l-4.02-3.28l8.16-8.78
		C1447.58,2427.65,1447.73,2427.7,1447.75,2427.84z"/>
	<path class="st21" d="M1463.85,2436.78l-4.16,3.19l-4.16,3.19l-3.32,2.55l3.59-17.69c0.03-0.17,0.22-0.23,0.33-0.11
		L1463.85,2436.78z"/>
	<polyline class="st21" points="1450.56,2445.69 1447.7,2427.52 1455.87,2427.62 1452.2,2445.71 1451.29,2450.23 1450.56,2445.69 	
		"/>
	<path class="st21" d="M1445.23,2399.41c0.06,0.01,0.1,0.08,0.08,0.15l-1.9,4.95l0,0.01c-2.14,2.4-3.49,5.66-3.58,9.27
		c0,0.03-0.01,0.06-0.04,0.08c-0.71,0.51-11.23,8.05-12.33,8.83c-0.05,0.04-0.11,0.01-0.14-0.04l-11.61-27.22L1445.23,2399.41z"/>
	<path class="st21" d="M1439.82,2414l-0.29,13.31c0,0.06-0.06,0.1-0.11,0.08l-11.9-4.57c-0.06-0.02-0.07-0.12-0.02-0.16l12.19-8.74
		C1439.75,2413.89,1439.82,2413.93,1439.82,2414z"/>
	<path class="st21" d="M1476.28,2423.35l-12.17,4.33c-0.03,0.01-0.07-0.02-0.07-0.06l0.3-13.52l11.96,9.12
		C1476.34,2423.26,1476.33,2423.33,1476.28,2423.35z"/>
	<path class="st21" d="M1462.42,2399.25l-10.03,1.12c-3.5-0.04-6.68,1.55-8.98,4.13l1.95-5.08l3.14-8.16l4.04,2.32L1462.42,2399.25z
		"/>
	<path class="st22" d="M1462.28,2399.17c0.03,0.02,0.06-0.02,0.04-0.05l-6.62-8.49c-0.86-1.1-1.89-2-3.04-2.65
		c-1.41-0.8-2.98-1.24-4.61-1.26l-7.62-0.08l8.07,4.63l4.04,2.32L1462.28,2399.17z"/>
	<polygon class="st21" points="1443.34,2439.8 1443.21,2445.63 1447.36,2443.08 	"/>
	<path class="st21" d="M1447.36,2443.08l-0.11,4.85l2.98-2.01c0.16-0.11,0.17-0.36,0.02-0.49L1447.36,2443.08z"/>
	<path class="st21" d="M1455.53,2443.16l-0.11,4.86l-2.95-2.12c-0.13-0.09-0.13-0.3,0-0.4L1455.53,2443.16z"/>
	<polygon class="st21" points="1459.69,2439.97 1459.56,2445.79 1455.53,2443.16 	"/>
	<path class="st21" d="M1489.27,2396.24l-12.8,26.93c-0.03,0.07-0.12,0.1-0.18,0.05l-11.95-9.11c0.1-4.45-1.74-8.41-4.66-10.93
		c-2.01-1.73-4.53-2.78-7.3-2.81l10.03-1.12l0.01,0L1489.27,2396.24z"/>
	
		<ellipse transform="matrix(0.0694 -0.9976 0.9976 0.0694 -1056.8434 3695.0183)" class="st21" cx="1452.09" cy="2413.97" rx="5.67" ry="5.11"/>
</g>
<g>
	
		<ellipse transform="matrix(0.0155 -0.9999 0.9999 0.0155 -1176.1926 3557.4629)" class="st23" cx="1218.46" cy="2376.03" rx="51.61" ry="40.7"/>
	
		<ellipse transform="matrix(0.0155 -0.9999 0.9999 0.0155 -1093.9427 3636.7761)" class="st23" cx="1299.86" cy="2373.92" rx="51.61" ry="40.7"/>
	<polygon class="st23" points="1184.04,2405.46 1260.53,2507.87 1336.2,2398.54 	"/>
	<polygon class="st23" points="1297.31,2419.54 1231.36,2421.25 1230.95,2381.27 1296.9,2379.56 	"/>
</g>
<g>
	
		<ellipse transform="matrix(0.6248 -0.7808 0.7808 0.6248 455.2287 2092.4153)" class="st23" cx="2404.71" cy="572.55" rx="36.32" ry="40.74"/>
	
		<ellipse transform="matrix(0.6248 -0.7808 0.7808 0.6248 434.9777 2159.9846)" class="st23" cx="2464.89" cy="627.41" rx="36.32" ry="40.74"/>
	<polygon class="st23" points="2365.27,563.79 2370.6,668.12 2479.21,664.82 	"/>
	<polygon class="st23" points="2440.66,648.73 2391.9,604.28 2411.21,583.78 2459.97,628.23 	"/>
</g>
<g>
	
		<ellipse transform="matrix(0.0871 -0.9962 0.9962 0.0871 987.5118 3209.6697)" class="st23" cx="2245.03" cy="1066.02" rx="40.74" ry="36.32"/>
	
		<ellipse transform="matrix(0.0871 -0.9962 0.9962 0.0871 896.103 3270.9104)" class="st23" cx="2232.74" cy="1146.52" rx="40.74" ry="36.32"/>
	<polygon class="st23" points="2230.46,1028.34 2146.59,1090.61 2209.55,1179.18 	"/>
	<polygon class="st23" points="2201.56,1138.17 2211.52,1072.95 2239.29,1077.66 2229.34,1142.88 	"/>
</g>
<g>
	
		<ellipse transform="matrix(0.9677 -0.252 0.252 0.9677 -140.2342 664.485)" class="st23" cx="2524.62" cy="879.84" rx="36.32" ry="40.74"/>
	
		<ellipse transform="matrix(0.9677 -0.252 0.252 0.9677 -159.8828 670.9476)" class="st23" cx="2540.03" cy="959.8" rx="36.32" ry="40.74"/>
	<polygon class="st23" points="2498.25,849.22 2440.12,936.02 2529.13,998.34 	"/>
	<polygon class="st23" points="2507.85,962.38 2495.37,897.6 2523.11,892.72 2535.6,957.51 	"/>
</g>
<g>
	
		<ellipse transform="matrix(0.8173 -0.5763 0.5763 0.8173 -57.9155 1427.9198)" class="st23" cx="2222.5" cy="805.28" rx="36.32" ry="40.74"/>
	
		<ellipse transform="matrix(0.8173 -0.5763 0.5763 0.8173 -90.1473 1465.1282)" class="st23" cx="2265.05" cy="874.7" rx="36.32" ry="40.74"/>
	<polygon class="st23" points="2187.04,785.89 2163.16,887.59 2268.4,914.62 	"/>
	<polygon class="st23" points="2235.84,888.44 2201.36,832.19 2225.62,817.87 2260.1,874.12 	"/>
</g>
<g>
	
		<ellipse transform="matrix(0.2323 -0.9726 0.9726 0.2323 1136.4285 2401.4058)" class="st23" cx="2089.52" cy="480.77" rx="36.32" ry="40.74"/>
	
		<ellipse transform="matrix(0.2323 -0.9726 0.9726 0.2323 1172.8561 2495.4963)" class="st23" cx="2167.34" cy="504.74" rx="36.32" ry="40.74"/>
	<polygon class="st23" points="2050.1,489.66 2099.4,581.76 2196.24,532.47 	"/>
	<polygon class="st23" points="2154.5,534.35 2091.45,514.93 2100.18,488.15 2163.24,507.57 	"/>
</g>
<g>
	
		<ellipse transform="matrix(0.3482 -0.9374 0.9374 0.3482 574.5208 2305.498)" class="st23" cx="1945.11" cy="739.62" rx="36.32" ry="40.74"/>
	
		<ellipse transform="matrix(0.3482 -0.9374 0.9374 0.3482 591.8658 2396.8379)" class="st23" cx="2019.46" cy="772.82" rx="36.32" ry="40.74"/>
	<polygon class="st23" points="1904.91,743.68 1942.71,841.06 2044.8,803.84 	"/>
	<polygon class="st23" points="2003.14,800.66 1942.9,773.77 1954.8,748.24 2015.05,775.14 	"/>
</g>
<g>
	<path class="st24" d="M986.12,1352.42c0,0,121.84-70.26,183.64,91.33c0,0,37.08,29.86,67.1,29.86c0,0,1.77,22.83-31.78,40.4
		c0,0,1.77,15.81,15.89,17.56l-31.78,64.99l60.04,15.81c0,0-8.83,22.83,8.83,49.18c0,0-19.42,19.32-107.71,26.35
		c0,0,17.66,101.87,38.85,107.14c21.19,5.27-8.83,0-8.83,0s-111.24,17.56-160.68-45.67c0,0-10.59-89.58-19.42-103.63
		c0,0-95.35-39.2-33.55-78.44C966.7,1567.3,851.92,1427.94,986.12,1352.42z"/>
	<path class="st25" d="M1176.82,1600.07c0,0,33.55-73.77,44.14-68.5c10.59,5.27,12.36,3.51-22.07,56.21l-9.71,8.78
		c0,0,70.63,5.27,68.86,17.56S1222.73,1617.64,1176.82,1600.07z"/>
	<path class="st26" d="M1164.46,1487.66c0,0-33.35-26.35-74.94,12.29h-20.41l20.41,14.05
		C1089.52,1514.01,1127.38,1482.39,1164.46,1487.66z"/>
	<path class="st27" d="M1132.68,1440.24c0,0-60.04-8.76-72.4,38.65c0,0,14.77-35.01,72.4-28.12V1440.24z"/>
	<path class="st24" d="M1223.86,2261.92c0,0-8.19,24.91-22.31,38.97c-14.13,14.05,180.11,59.72,280.76-22.83
		c0,0-26.37-55.03-31.73-74.06C1445.22,2184.96,1223.86,2261.92,1223.86,2261.92z"/>
	<path class="st28" d="M1482.3,2278.05c0,0,52.26,255.4,66.61,282.11c0,0-46.37,73.26-160.06,73.26s-280.89-0.36-280.89-0.36
		c-24.72-209.64,93.59-331.58,93.59-331.58C1337.51,2359.14,1482.3,2278.05,1482.3,2278.05"/>
	<path class="st29" d="M1295.85,1466.58l-28.33,22.83l14.16,14.05l-14.16,10.54c0,0,17.01,49.37,48.8,61.57l17.66-8.28l22.95,16.97
		c0,0,21.19-0.41,24.72-34.45L1295.85,1466.58z"/>
	<path class="st30" d="M1609.43,1060.85c0,0,146.56,106.5,188.94,257.87C1798.37,1318.72,1724.21,1306.75,1609.43,1060.85z"/>
	<path class="st29" d="M1665.94,1173.26l54.74-64.99c0,0,28.25,77.28,60.04,89.58l-70.63,47.42
		C1710.08,1245.27,1642.56,1201.01,1665.94,1173.26z"/>
	<path class="st31" d="M1720.68,1108.27c0,0,66.66,64.55,60.04,89.58C1780.71,1197.85,1750.93,1193.46,1720.68,1108.27z"/>
	<path class="st29" d="M1396.12,1541.78l55.11,70.21c0,0,66.38,91.71,84.03,96.98c17.66,5.27,77.69-21.08,74.16-70.26
		c0,0-146.57-110.64-131.56-142.26L1396.12,1541.78z"/>
	<path class="st29" d="M1780.71,1108.27c0,0,22.95-186.18,40.61-175.64C1838.98,943.17,1839.18,979.44,1780.71,1108.27z"/>
	<path class="st29" d="M1793.5,1123.6c0,0,121.79-143.2,130.76-124.76C1933.21,1017.28,1913.39,1047.72,1793.5,1123.6z"/>
	<path class="st29" d="M1807.15,1140.19c0,0,176.82-65.18,175.51-44.74C1981.36,1115.89,1949.06,1132.71,1807.15,1140.19z"/>
	<path class="st32" d="M1211.4,2304.72c0,0,123.46,47.1,270.9-26.67l8.21,31.39c0,0-131.45,93.01-312.44,21.08l26.27-32.64
		L1211.4,2304.72z"/>
	<path class="st32" d="M1133.7,2423.83h66.22l-18.54,129.1l-76.81,39.52C1104.56,2592.45,1117.8,2460.72,1133.7,2423.83z"/>
	<path class="st33" d="M1342.03,2349.54c0,0-26.49,22.06,18.54,274.87"/>
	<path class="st28" d="M1239.52,2350.68L1239.52,2350.68c2.89,1.14,6.16-0.27,7.31-3.14l10.62-26.66c1.15-2.87-0.27-6.13-3.16-7.27
		l0,0c-2.89-1.14-6.16,0.27-7.31,3.14l-10.62,26.66C1235.22,2346.29,1236.63,2349.54,1239.52,2350.68z"/>
	<path class="st28" d="M1305.76,2358.61L1305.76,2358.61c3.07,0.48,5.95-1.61,6.43-4.67l4.56-28.97c0.48-3.05-1.62-5.92-4.69-6.4
		l0,0c-3.07-0.48-5.95,1.61-6.43,4.67l-4.56,28.97C1300.59,2355.27,1302.69,2358.14,1305.76,2358.61z"/>
	<path class="st28" d="M1379.1,2353.35L1379.1,2353.35c3.08-0.45,5.2-3.3,4.75-6.35l-4.3-29.01c-0.45-3.06-3.31-5.17-6.39-4.72l0,0
		c-3.08,0.45-5.2,3.3-4.75,6.35l4.3,29.01C1373.16,2351.69,1376.02,2353.8,1379.1,2353.35z"/>
	<path class="st28" d="M1452.66,2333.85L1452.66,2333.85c2.95-0.97,4.56-4.13,3.59-7.07l-9.2-27.86c-0.97-2.94-4.15-4.54-7.1-3.57
		l0,0c-2.95,0.97-4.56,4.13-3.59,7.07l9.2,27.86C1446.52,2333.21,1449.7,2334.81,1452.66,2333.85z"/>
	<path class="st34" d="M1255.6,1657.64c0,0-62.23,29.15-109.24,20.59c0,0-16.55-0.66,11.26,113.29l1.32,4.6l30.24-1.09
		c0,0-25.6-14.49-38.85-107.14C1150.34,1687.89,1257.57,1679.86,1255.6,1657.64z"/>
	<path class="st35" d="M1295.85,1466.58c0,0,221.76-252.92,313.58-405.73c0,0,95.35,220.67,188.94,257.87l-416.72,231.09
		C1381.65,1549.81,1337.19,1536.84,1295.85,1466.58z"/>
	<path class="st29" d="M1427.91,1303.78c0,0,63.57,125.18,135.08,150.85l37.08-24.39c0,0-76.81-26.35-145.68-165.98L1427.91,1303.78
		z"/>
	<path class="st36" d="M1223.86,2261.92l226.72-57.93C1450.57,2203.99,1404.65,2311.43,1223.86,2261.92z"/>
	<path class="st37" d="M1019.67,1749.37c0,0-28.25,33.37-17.66,77.28c10.59,43.91-31.78,122.95,67.1,242.39
		c98.88,119.44,86.52,159.83,77.69,180.91c0,0,277.22,66.74,324.9-86.06c0,0-67.1-124.71-49.44-135.24
		c0,0,81.85-87.64-164.22-210.77l-68.86-22.83C1189.18,1795.03,1049.69,1807.33,1019.67,1749.37z"/>
	<path class="st24" d="M1293.36,1925.86l-25.84,125.76l223.61-28.26c0,0,42.38,10.54,44.14-87.82c1.77-98.36,0-226.58,0-226.58
		s51.21-75.53,52.97-96.6c1.77-21.08-40.61-75.53-63.57-59.72c-22.95,15.81-22.95,50.1-70.63,67.21c0,0-3.53-18.03-15.89-16.27
		c-12.36,1.76-1.77,17.56,24.72,63.23c26.49,45.67-26.49,261.71-26.49,261.71S1291.6,1912.67,1293.36,1925.86z"/>
	<path class="st38" d="M1436.39,1928.52c0,0,36.54-5.97,35.32,45.74"/>
	<path class="st27" d="M934.91,1782.74c0,0-123.6,31.62-137.73-14.05c0,0,1.77-122.95,26.49-284.54c0,0,21.19-102.41,132.43-146.93
		c0,0,107.71-58.57,208.36,32.76l-40.61,40.4c0,0-45.91-31.62-63.57-28.1l38.85,28.1c0,0,3.53,15.81-93.59,94.85
		c0,0-52.97-45.67-49.44-31.62c0,0,51.21,161.59,100.65,203.74c49.44,42.15,49.44,72.01,49.44,72.01s-84.76,75.53-155.39,31.62"/>
	<g>
		<g>
			<path class="st39" d="M896.7,1425.22c-13.72,10.71-17.69,28.69-18.69,45.21c-0.62,10.3-0.34,20.69,0.12,30.99
				c0.5,11.1,1.43,22.19,2.79,33.22c2.76,22.37,7.3,44.52,13.57,66.16c5.98,20.65,14.71,41.95,12.58,63.87
				c-1.55,15.92-9.96,33.07-25.19,39.87c-1.85,0.82-3.76,1.45-5.72,1.92c-1.36,0.33-0.94,1.87,0.41,1.54
				c16.19-3.9,26.84-18.54,30.98-33.97c5.41-20.2-0.92-41.27-6.88-60.59c-6.69-21.69-12.22-43.6-15.71-66.05
				c-3.49-22.41-5.21-45.12-5.04-67.8c0.12-16.75,1.79-36,13.57-49.01c1.43-1.58,2.99-3.01,4.67-4.32
				C899.31,1425.35,897.57,1424.54,896.7,1425.22L896.7,1425.22z"/>
		</g>
	</g>
	<g>
		<g>
			<path class="st39" d="M954.21,1396.51c12.64,5.78,24.5,13.19,35.27,21.98c10.82,8.84,20.52,19.04,28.76,30.33
				c4.63,6.34,8.78,13.01,12.43,19.96c0.29,0.55,2.36-0.22,2.17-0.58c-6.47-12.3-14.54-23.75-23.92-34
				c-9.41-10.29-20.13-19.39-31.83-26.98c-6.65-4.32-13.62-8.14-20.83-11.44c-0.42-0.19-0.99-0.05-1.4,0.11
				C954.76,1395.9,953.85,1396.35,954.21,1396.51L954.21,1396.51z"/>
		</g>
	</g>
	<g>
		<g>
			<path class="st39" d="M982.08,1374.02c15.24,0.83,30.26,4.57,44.19,10.79c13.85,6.18,26.63,14.8,37.5,25.38
				c6.19,6.02,11.74,12.68,16.53,19.86c0.37,0.56,2.38-0.27,2.17-0.58c-8.51-12.78-19.42-23.88-31.95-32.75
				c-12.55-8.89-26.68-15.57-41.53-19.55c-8.33-2.24-16.9-3.61-25.51-4.08c-0.46-0.03-1.18,0.08-1.54,0.41
				C981.66,1373.75,981.59,1373.99,982.08,1374.02L982.08,1374.02z"/>
		</g>
	</g>
	<g>
		<g>
			<path class="st39" d="M1015.49,1347.82c16.77-5.61,34.53-7.95,52.18-7.23c17.56,0.71,35.02,4.47,51.3,11.1
				c9.09,3.7,17.8,8.31,25.97,13.77c0.49,0.32,2.28-0.56,2.05-0.72c-14.97-10-31.79-17.11-49.33-21.15
				c-17.51-4.03-35.73-5-53.57-2.81c-9.98,1.23-19.81,3.45-29.34,6.64c-0.21,0.07-0.85,0.27-0.66,0.56
				C1014.26,1348.22,1015.32,1347.87,1015.49,1347.82L1015.49,1347.82z"/>
		</g>
	</g>
	<g>
		<g>
			<path class="st39" d="M916.4,1464.79c-3.37,20.58-2.97,41.6,0.44,62.15c3.47,20.87,9.93,41.16,18.08,60.65
				c8.34,19.97,18.46,39.16,29.44,57.8c5.46,9.27,11.14,18.41,16.96,27.46c5.74,8.92,11.86,17.65,16.82,27.05
				c4.72,8.93,8.38,18.73,8.64,28.93c0.22,8.81-1.84,18.05-7.27,25.15c-1.32,1.73-2.83,3.31-4.49,4.72
				c-1.13,0.95,0.63,1.59,1.42,0.92c14.41-12.15,14.85-33.17,8.7-49.65c-3.7-9.91-9.38-18.93-15.13-27.75
				c-5.94-9.11-11.84-18.24-17.51-27.52c-11.46-18.74-22.16-37.99-31.21-58.02c-8.84-19.58-16.12-39.96-20.53-61.02
				c-4.34-20.71-5.79-42.04-3.3-63.08c0.32-2.66,0.7-5.32,1.13-7.97C918.77,1463.57,916.55,1463.87,916.4,1464.79L916.4,1464.79z"/>
		</g>
	</g>
	<path class="st40" d="M1069.11,1963.65l27.37-82.55c0,0,116.88-26.35,176.31,14.05c59.42,40.4-14.74,175.64-14.74,175.64
		S1069.11,2101.7,1069.11,1963.65L1069.11,1963.65z"/>
</g>
</svg>
