<?xml version="1.0" encoding="utf-8"?>
<!-- Generator: Adobe Illustrator 24.3.0, SVG Export Plug-In . SVG Version: 6.00 Build 0)  -->
<svg version="1.1" id="Layer_1" xmlns="http://www.w3.org/2000/svg" xmlns:xlink="http://www.w3.org/1999/xlink" x="0px" y="0px"
	 viewBox="0 0 115.8 116.1" style="enable-background:new 0 0 115.8 116.1;" xml:space="preserve">
<style type="text/css">
	.st0{fill:#9879B4;}
	.st1{fill:#8A6BA9;}
	.st2{fill:#5E418C;}
	.st3{fill:#6D4494;}
	.st4{fill:#422564;}
	.st5{fill:#804895;}
	.st6{fill:#FCD177;}
	.st7{fill:#9C79B3;}
	.st8{fill:#EE7C12;}
	.st9{fill:#F5BC27;}
	.st10{fill:#4F2A84;}
	.st11{fill:#EE7D30;}
	.st12{fill:#FFFFFF;}
	.st13{fill:#7D401E;}
	.st14{fill:#E8E10C;}
	.st15{fill:#C92540;}
	.st16{fill:#DD1D39;}
	.st17{fill:#924794;}
	.st18{fill:#BD1F2F;}
	.st19{fill:#799E3D;}
	.st20{fill:#E62F50;}
	.st21{fill:#8EBF46;}
	.st22{fill:#E41F2A;}
	.st23{fill:#ECEB9C;}
	.st24{fill:#099339;}
	.st25{fill:#E1DD00;}
	.st26{fill:#FFFFFB;}
	.st27{fill:#2F5BA6;}
	.st28{fill:#FDD82D;}
	.st29{fill:#F7EC73;}
	.st30{fill:#244F24;}
	.st31{fill:#71144B;}
	.st32{fill:#AECA3B;}
	.st33{fill:#1F0B19;}
	.st34{fill:#EA5B1F;}
	.st35{fill:#2A4B9A;}
	.st36{fill:#234891;}
	.st37{fill:#272A5D;}
	.st38{fill:#FCECF1;}
	.st39{fill:#020303;}
	.st40{fill:#E20D17;}
	.st41{fill:#BF181A;}
	.st42{fill:#F2F9FB;}
	.st43{fill:#DBEDFB;}
	.st44{fill:#D1A923;}
	.st45{fill:#E1BB2B;}
	.st46{fill:#DD272B;}
	.st47{fill:#FAD139;}
	.st48{fill:#432566;}
	.st49{fill:#552883;}
	.st50{fill:#DE4E4D;}
	.st51{fill:#CC1417;}
	.st52{fill:#62AB30;}
	.st53{fill:#4C6B29;}
	.st54{fill:#5D102F;}
	.st55{fill:#DB254D;}
	.st56{fill:#7F1336;}
	.st57{fill:#24132C;}
	.st58{fill:#F4B5A7;}
	.st59{fill:#E4164A;stroke:#E4164A;stroke-width:2.095;stroke-miterlimit:10;}
	.st60{fill:#E30137;}
	.st61{fill:#F6C0CF;}
	.st62{fill:#C49C13;}
	.st63{fill:#263683;}
	.st64{fill:#C6991A;}
	.st65{fill:#9C1A17;}
	.st66{fill:#C7C5C5;}
	.st67{fill:#2A327E;}
	.st68{fill:#EEEEEC;}
	.st69{fill:#254090;}
	.st70{fill:#E8EBF7;}
	.st71{fill:#F6C320;}
	.st72{fill:#5E3289;}
	.st73{fill:#FFFAF2;}
	.st74{fill:#F9F1C6;}
	.st75{fill:#513177;}
</style>
<rect y="0" class="st0" width="115.8" height="116.1"/>
<polygon class="st1" points="115.9,0 115.9,99.4 110.2,99.4 110.2,71.4 113,71.4 113,63.4 104.6,63.4 104.6,19.5 70.7,19.5 
	70.7,63.4 62.2,63.4 62.2,71.4 65,71.4 65,99.4 0,99.4 0,39.4 17,39.4 17,35.5 22.6,35.5 22.6,31.5 39.6,31.5 39.6,27.4 42.4,27.4 
	42.4,19.5 48,19.5 48,23.4 50.9,23.4 50.9,19.5 53.7,19.5 53.7,11.5 56.5,11.5 56.5,7.5 62.2,7.5 62.2,0 "/>
<polygon class="st0" points="105.5,62.1 105.5,69 103.1,69 103.1,93 64.2,93 64.2,69 61.8,69 61.8,62.1 69.1,62.1 69.1,24.3 
	98.3,24.3 98.3,62.1 "/>
<polygon class="st2" points="115.9,93 115.8,116.1 0,116.1 0,93 49.6,93 49.6,96.5 47.2,96.5 47.2,103.4 49.6,103.4 49.6,106.8 
	52.1,106.8 52.1,110.3 103.1,110.3 103.1,106.8 98.3,106.8 98.3,103.4 105.5,103.4 105.5,99.9 103.1,99.9 103.1,96.5 100.7,96.5 
	100.7,93 "/>
<polygon class="st3" points="98.3,103.4 98.3,106.8 103.1,106.8 103.1,110.3 52.1,110.3 52.1,106.8 49.6,106.8 49.6,103.4 
	47.2,103.4 47.2,96.5 49.6,96.5 49.6,93 71.6,93 71.6,96.5 74,96.5 74,99.9 76.4,99.9 76.4,103.4 86.1,103.4 86.1,99.9 88.6,99.9 
	88.6,96.5 93.4,96.5 93.4,93 100.7,93 100.7,96.5 103.1,96.5 103.1,99.9 105.5,99.9 105.5,103.4 "/>
<polygon class="st4" points="105.7,64.3 105.7,93.1 95.6,93.1 95.6,91.8 98.2,91.8 98.2,85.6 99.4,85.6 99.4,80.6 98.2,80.6 
	98.2,69.4 65.7,69.4 65.7,80.6 64.4,80.6 64.4,83.2 65.7,83.2 65.7,90.6 64.4,90.6 64.4,91.8 65.7,91.8 65.7,93.1 58.1,93.1 
	58.1,64.3 "/>
<rect x="94.4" y="79.4" class="st3" width="1.2" height="1.2"/>
<path class="st5" d="M98.2,80.6v-3.8h-2.5v1.3h-2.5v2.5h-1.3v-1.2h-3.8v2.5h1.3v2.5h3.8v-1.2h1.3v3.8h1.2v5h2.5v-6.3h1.3v-5
	C99.4,80.6,98.2,80.6,98.2,80.6z M95.6,80.6h-1.2v-1.2h1.2V80.6z"/>
<polygon class="st3" points="98.2,69.4 98.2,76.9 95.6,76.9 95.6,78.1 93.1,78.1 93.1,80.6 91.9,80.6 91.9,79.4 87,79.4 87,78.1 
	84.5,78.1 84.5,79.4 83.2,79.4 83.2,76.9 82,76.9 82,75.6 75.7,75.6 75.7,78.1 71.9,78.1 71.9,76.9 74.4,76.9 74.4,75.6 70.7,75.6 
	70.7,73.1 73.2,73.1 73.2,71.9 74.4,71.9 74.4,69.4 "/>
<g>
	<polygon class="st6" points="80.7,78.1 80.7,78.1 80.7,76.9 79.4,76.9 79.4,78.1 79.4,78.1 79.4,79.4 79.4,80.6 78.2,80.6 
		78.2,80.6 76.9,80.6 76.9,79.4 75.7,79.4 75.7,80.6 75.7,81.9 76.9,81.9 78.2,81.9 78.2,81.9 76.9,81.9 75.7,81.9 75.7,83.1 
		76.9,83.1 78.2,83.1 79.4,83.1 79.4,81.9 80.7,81.9 80.7,80.6 80.7,79.4 82,79.4 82,78.1 	"/>
	<polygon class="st6" points="79.4,79.4 79.4,78.1 78.2,78.1 78.2,79.4 78.2,80.6 79.4,80.6 	"/>
	<rect x="74.4" y="81.9" class="st6" width="1.2" height="1.3"/>
</g>
<polygon id="duman" class="st7" points="80.7,75.6 80.7,76.9 79.4,76.9 79.4,78.1 78.2,78.1 78.2,80.6 76.9,80.6 76.9,79.4 
	75.7,79.4 75.7,81.9 73.2,81.9 73.2,78.1 75.7,78.1 75.7,75.6 "/>
<polygon class="st8" points="95.6,86.9 95.6,91.8 94.4,91.8 94.4,93.1 91.9,93.1 91.9,90.6 93.1,90.6 93.1,89.3 91.9,89.3 
	91.9,86.9 90.7,86.9 90.7,84.4 93.1,84.4 93.1,83.2 94.4,83.2 94.4,86.9 "/>
<polygon id="alev-u1" class="st8" points="88.2,79.4 88.2,80.6 85.7,80.6 85.7,81.9 84.5,81.9 84.5,78.1 87,78.1 87,79.4 "/>
<polygon class="st8" points="73.2,91.8 73.2,93.1 74.4,93.1 74.4,91.8 74.4,90.6 73.2,90.6 "/>
<rect id="alev-u3" x="73.2" y="81.9" class="st8" width="1.3" height="1.3"/>
<g id="alev-turuncu">
	<rect x="94.4" y="91.8" class="st9" width="1.2" height="1.2"/>
	<rect x="89.4" y="84.4" class="st9" width="1.3" height="1.3"/>
	<rect x="88.2" y="84.4" class="st9" width="1.3" height="1.3"/>
	<polygon class="st9" points="89.4,81.9 89.4,84.4 87,84.4 87,83.1 85.7,83.1 85.7,85.6 84.5,85.6 84.5,84.4 83.2,84.4 83.2,80.6 
		84.5,80.6 84.5,81.9 85.7,81.9 85.7,80.6 87,80.6 87,81.9 	"/>
	<rect x="87" y="80.6" class="st9" width="1.2" height="1.3"/>
	<polygon class="st9" points="84.5,80.6 84.5,79.4 83.2,79.4 83.2,79.4 83.2,79.4 83.2,78.1 83.2,76.9 82,76.9 82,78.1 82,79.4 
		82,79.4 82,80.6 83.2,80.6 83.2,80.6 	"/>
	<rect x="80.7" y="76.9" class="st9" width="1.3" height="1.3"/>
	<rect x="80.7" y="75.6" class="st9" width="1.3" height="1.2"/>
	<polygon class="st9" points="93.1,89.3 93.1,90.6 91.9,90.6 91.9,93.1 74.4,93.1 74.4,90.6 73.2,90.6 73.2,93.1 70.7,93.1 
		70.7,90.6 70.7,90.6 70.7,84.4 71.9,84.4 71.9,85.6 73.2,85.6 73.2,83.1 74.4,83.1 74.4,84.4 84.5,84.4 84.5,85.6 85.7,85.6 
		85.7,84.4 88.2,84.4 88.2,85.6 90.7,85.6 90.7,86.9 91.9,86.9 91.9,89.3 	"/>
	<rect x="69.4" y="84.4" class="st9" width="1.2" height="6.3"/>
</g>
<polygon class="st7" points="70.7,90.6 70.7,93.1 68.2,93.1 68.2,85.6 69.4,85.6 69.4,90.6 "/>
<polygon class="st3" points="73.2,78.1 73.2,83.2 70.7,83.2 70.7,84.4 69.4,84.4 69.4,85.6 68.2,85.6 68.2,93.1 65.7,93.1 
	65.7,91.8 64.4,91.8 64.4,90.6 65.7,90.6 65.7,83.2 64.4,83.2 64.4,80.6 65.7,80.6 65.7,75.6 68.2,75.6 68.2,78.1 "/>
<polygon class="st5" points="70.7,73.1 70.7,75.6 74.4,75.6 74.4,76.9 71.9,76.9 71.9,78.1 68.2,78.1 68.2,75.6 65.7,75.6 
	65.7,69.4 74.4,69.4 74.4,71.9 73.2,71.9 73.2,73.1 "/>
<g>
	<path class="st10" d="M106.9,58.1v1.3h-1.3v1.2h-1.3v1.3h-1.2v-1.3h1.2v-1.2h1.3v-1.3H106.9v-1.3h-50v1.3h1.3v1.3h1.2v1.2h1.3v1.3
		h2.5v1.3h-2.5v-1.3h-1.3v-1.3h-1.2v-1.2h-1.3v-1.3h-1.3v6.3h52.6v-6.3H106.9z M73.2,63.1h-6.3v-1.3h6.3V63.1z M88.2,63.1h-3.8v-1.3
		h-1.2v-1.3H82v1.3h-1.3v1.3h-3.8v-1.3h3.8v-1.3H82v-1.2h1.2v1.2h1.3v1.3h3.8L88.2,63.1L88.2,63.1z M98.2,63.1h-5v-1.3h5V63.1z"/>
</g>
<rect x="68" y="102.1" class="st11" width="1.9" height="1.9"/>
<rect x="50.7" y="102.1" class="st12" width="1.9" height="1.9"/>
<rect x="48.8" y="109.8" class="st13" width="1.9" height="1.9"/>
<rect x="48.8" y="107.9" class="st13" width="1.9" height="1.9"/>
<rect x="48.8" y="105.9" class="st13" width="1.9" height="1.9"/>
<rect x="46.8" y="109.8" class="st13" width="1.9" height="1.9"/>
<rect x="46.8" y="107.9" class="st13" width="1.9" height="1.9"/>
<rect x="46.8" y="105.9" class="st13" width="1.9" height="1.9"/>
<rect x="44.9" y="109.8" class="st13" width="1.9" height="1.9"/>
<rect x="44.9" y="107.9" class="st13" width="1.9" height="1.9"/>
<rect x="44.9" y="105.9" class="st13" width="1.9" height="1.9"/>
<rect x="43" y="109.8" class="st13" width="1.9" height="1.9"/>
<rect x="43" y="107.9" class="st13" width="1.9" height="1.9"/>
<rect x="43" y="105.9" class="st13" width="1.9" height="1.9"/>
<rect x="43" y="54" class="st14" width="1.9" height="1.9"/>
<rect x="41" y="109.8" class="st13" width="1.9" height="1.9"/>
<rect x="41" y="107.9" class="st13" width="1.9" height="1.9"/>
<rect x="41" y="105.9" class="st13" width="1.9" height="1.9"/>
<rect x="39.1" y="109.8" class="st13" width="1.9" height="1.9"/>
<rect x="39.1" y="107.9" class="st13" width="1.9" height="1.9"/>
<rect x="39.1" y="105.9" class="st13" width="1.9" height="1.9"/>
<rect x="37.1" y="109.8" class="st13" width="1.9" height="1.9"/>
<rect x="37.1" y="107.9" class="st13" width="1.9" height="1.9"/>
<rect x="37.1" y="105.9" class="st13" width="1.9" height="1.9"/>
<g id="beyaz">
	<rect x="48.8" y="90.6" class="st12" width="1.9" height="1.9"/>
	<rect x="44.9" y="73.3" class="st12" width="1.9" height="1.9"/>
	<rect x="43" y="59.8" class="st12" width="1.9" height="1.9"/>
	<rect x="37.1" y="84.8" class="st12" width="1.9" height="1.9"/>
</g>
<rect x="106.9" y="56.8" class="st15" width="1.3" height="1.3"/>
<rect x="105.7" y="58" class="st15" width="1.3" height="1.3"/>
<rect x="104.4" y="59.3" class="st15" width="1.3" height="1.3"/>
<rect x="103.2" y="60.5" class="st15" width="1.3" height="1.3"/>
<polygon class="st15" points="85.7,61.8 84.5,61.8 84.5,63 85.7,63 87,63 88.2,63 88.2,61.8 87,61.8 "/>
<rect x="83.2" y="60.5" class="st15" width="1.3" height="1.3"/>
<rect x="82" y="59.3" class="st15" width="1.3" height="1.3"/>
<rect x="80.7" y="60.5" class="st15" width="1.3" height="1.3"/>
<polygon class="st15" points="78.2,61.8 76.9,61.8 76.9,63 78.2,63 79.4,63 80.7,63 80.7,61.8 79.4,61.8 "/>
<polygon class="st15" points="70.7,61.8 69.4,61.8 68.2,61.8 66.9,61.8 66.9,63 68.2,63 69.4,63 70.7,63 71.9,63 73.2,63 73.2,61.8 
	71.9,61.8 "/>
<polygon class="st15" points="60.6,61.8 60.6,63 61.9,63 63.1,63 63.1,61.8 61.9,61.8 "/>
<rect x="59.4" y="60.5" class="st15" width="1.3" height="1.3"/>
<rect x="58.1" y="59.3" class="st15" width="1.3" height="1.3"/>
<rect x="56.9" y="58" class="st15" width="1.3" height="1.3"/>
<rect x="55.6" y="56.8" class="st15" width="1.3" height="1.3"/>
<polygon class="st15" points="48.8,59.8 46.8,59.8 46.8,61.6 44.9,61.6 44.9,63.6 43,63.6 41,63.6 41,65.5 39.1,65.5 39.1,67.4 
	37.1,67.4 37.1,65.5 35.3,65.5 35.3,67.4 33.4,67.4 33.4,69.4 35.3,69.4 37.1,69.4 39.1,69.4 41,69.4 41,67.4 43,67.4 43,65.5 
	44.9,65.5 46.8,65.5 46.8,63.6 48.8,63.6 48.8,61.6 50.7,61.6 50.7,59.8 "/>
<g id="sari">
	<rect x="66.1" y="98.3" class="st11" width="1.9" height="1.9"/>
	<rect x="54.5" y="94.4" class="st11" width="1.9" height="1.9"/>
	<rect x="44.9" y="80.9" class="st11" width="1.9" height="1.9"/>
	<rect x="33.4" y="75.2" class="st11" width="1.9" height="1.9"/>
	<rect x="31.4" y="98.3" class="st11" width="1.9" height="1.9"/>
</g>
<polygon class="st16" points="54.5,71.3 52.6,71.3 52.6,73.3 50.7,73.3 48.8,73.3 48.8,75.2 46.8,75.2 44.9,75.2 44.9,77 43,77 
	41,77 41,79 39.1,79 37.1,79 37.1,80.9 35.3,80.9 33.4,80.9 33.4,82.8 31.4,82.8 31.4,80.9 29.5,80.9 29.5,79 27.6,79 27.6,80.9 
	27.6,82.8 29.5,82.8 29.5,84.8 31.4,84.8 33.4,84.8 35.3,84.8 35.3,82.8 37.1,82.8 39.1,82.8 41,82.8 41,80.9 43,80.9 44.9,80.9 
	44.9,79 46.8,79 48.8,79 50.7,79 50.7,77 52.6,77 52.6,75.2 54.5,75.2 54.5,73.3 56.5,73.3 56.5,71.3 "/>
<g id="mor">
	<rect x="60.3" y="88.7" class="st17" width="1.9" height="1.9"/>
	<rect x="56.5" y="80.9" class="st17" width="1.9" height="1.9"/>
	<rect x="46.8" y="67.4" class="st17" width="1.9" height="1.9"/>
	<rect x="39.1" y="98.3" class="st17" width="1.9" height="1.9"/>
	<rect x="39.1" y="57.8" class="st17" width="1.9" height="1.9"/>
	<rect x="25.6" y="86.7" class="st17" width="1.9" height="1.9"/>
</g>
<rect x="23.7" y="104.1" class="st17" width="1.9" height="1.9"/>
<g id="turuncu">
	<rect x="56.5" y="90.6" class="st11" width="1.9" height="1.9"/>
	<rect x="54.5" y="77" class="st11" width="1.9" height="1.9"/>
	<rect x="41" y="71.3" class="st11" width="1.9" height="1.9"/>
	<rect x="37.1" y="61.6" class="st11" width="1.9" height="1.9"/>
	<rect x="31.4" y="88.7" class="st11" width="1.9" height="1.9"/>
	<rect x="21.7" y="94.4" class="st11" width="1.9" height="1.9"/>
</g>
<polygon class="st18" points="60.3,82.8 58.4,82.8 58.4,84.8 56.5,84.8 54.5,84.8 52.6,84.8 52.6,86.7 50.7,86.7 48.8,86.7 
	48.8,88.7 46.8,88.7 46.8,86.7 44.9,86.7 43,86.7 43,88.7 41,88.7 39.1,88.7 39.1,90.6 37.1,90.6 35.3,90.6 35.3,92.4 33.4,92.4 
	31.4,92.4 31.4,94.4 29.5,94.4 29.5,92.4 27.6,92.4 27.6,90.6 25.6,90.6 23.7,90.6 21.7,90.6 21.7,92.4 21.7,94.4 23.7,94.4 
	25.6,94.4 25.6,96.3 27.6,96.3 29.5,96.3 31.4,96.3 33.4,96.3 33.4,94.4 35.3,94.4 37.1,94.4 39.1,94.4 39.1,92.4 41,92.4 41,90.6 
	43,90.6 44.9,90.6 46.8,90.6 48.8,90.6 50.7,90.6 50.7,88.7 52.6,88.7 54.5,88.7 56.5,88.7 58.4,88.7 58.4,86.7 60.3,86.7 
	60.3,84.8 62.3,84.8 62.3,82.8 "/>
<g>
	<polygon class="st19" points="66.1,102.1 64.2,102.1 64.2,100.2 66.1,100.2 66.1,98.3 64.2,98.3 62.3,98.3 60.3,98.3 60.3,100.2 
		60.3,102.1 58.4,102.1 56.5,102.1 54.5,102.1 52.6,102.1 52.6,104.1 50.7,104.1 50.7,102.1 52.6,102.1 52.6,100.2 50.7,100.2 
		48.8,100.2 48.8,102.1 48.8,104.1 48.8,105.9 50.7,105.9 52.6,105.9 54.5,105.9 56.5,105.9 58.4,105.9 58.4,104.1 60.3,104.1 
		60.3,105.9 62.3,105.9 64.2,105.9 66.1,105.9 66.1,104.1 68,104.1 68,102.1 	"/>
	<path class="st19" d="M50.7,98.3h1.9h1.9v1.9h2.1v-1.9h1.9v-1.9h1.9h1.9v-1.9h-1.9v-1.9h-1.9h-1.9v-2.1h1.9h1.9v-1.9h-1.9h-1.9
		h-1.9h-1.9h-1.9v1.9v1.9h-2.1v-1.9h-1.9H45h-1.9H41v1.9h1.9v1.9H41v-1.9h-1.9v1.9h-1.9h-1.9h-1.9v1.9h-1.9h-1.9h-1.9h-1.9v1.9v1.9
		h1.9v1.9h1.9h1.9v1.9h1.9h1.9v-1.9h1.9h1.9H41h1.9v1.9h1.9v-1.9h1.9V100v-1.7h2.1H50.7z M56.5,96.3h-1.9v-1.9h1.9V96.3z M31.4,98.3
		h1.9v1.9h-1.9V98.3z M39.1,100.2v-1.9H41v1.9H39.1z"/>
	<polygon class="st19" points="44.9,63.6 44.9,61.6 43,61.6 43,59.8 44.9,59.8 44.9,61.6 46.8,61.6 46.8,59.8 46.8,57.8 44.9,57.8 
		44.9,55.9 43,55.9 43,57.8 41,57.8 41,59.8 39.1,59.8 39.1,61.6 41,61.6 41,63.6 43,63.6 	"/>
	<rect x="39.1" y="63.6" class="st19" width="1.9" height="1.9"/>
	<polygon class="st19" points="37.1,104.1 37.1,105.9 39.1,105.9 41,105.9 41,104.1 39.1,104.1 	"/>
	<rect x="37.1" y="65.5" class="st19" width="1.9" height="1.9"/>
	<path class="st19" d="M37.1,80.9V79H39h2v-1.9h1.9h1.9v-1.9v-1.9h1.9v1.9h2.1v-1.9h1.9v-1.9h1.9v-1.9h-1.9h-1.9h-1.9v-1.9h1.9h1.9
		v-1.9h-1.9v-1.9h-1.9v1.9H45h-1.9v1.9H41v1.9h-1.9h-1.9v1.9v1.9h-1.9h-1.9v1.9h1.9v1.9h-1.9h-1.9V79h1.9v1.9h1.9H37.1L37.1,80.9z
		 M43,71.3v1.9h-2v-1.9H43z"/>
	<rect x="31.4" y="80.9" class="st19" width="1.9" height="1.9"/>
	<path class="st19" d="M29.5,90.6v1.9v1.9h1.9v-1.9h1.9h1.9v-1.9h1.9H39v-1.9h1.9h1.9v-1.9h1.9h1.9v1.9h2.2v-1.9h1.9h1.9v-1.9h-1.9
		v-2.1h1.9v1.9h1.9h2.1v-1.9v-1.9h-1.9V79v-1.9h-1.9h-1.9V79h-2.1h-1.9H45v1.9h1.9v1.9H45v-1.9h-1.9H41v1.9h-1.9h-1.9h-1.9v1.9h-1.9
		h-1.9h-1.9h-1.9v1.9h1.9v1.9h-1.9h-1.9v1.9h1.9L29.5,90.6L29.5,90.6z M39.1,84.8v1.9h-1.9v-1.9H39.1z M33.4,88.7v1.9h-1.9v-1.9
		H33.4z"/>
	<polygon class="st19" points="25.6,104.1 25.6,105.9 27.6,105.9 29.5,105.9 29.5,104.1 27.6,104.1 	"/>
	<rect x="23.7" y="94.4" class="st19" width="1.9" height="1.9"/>
	<rect x="21.7" y="104.1" class="st19" width="1.9" height="1.9"/>
	<rect x="21.7" y="98.3" class="st19" width="1.9" height="1.9"/>
	<rect x="19.9" y="102.1" class="st19" width="1.9" height="1.9"/>
</g>
<rect x="18" y="102.1" class="st11" width="1.9" height="1.9"/>
<polygon class="st20" points="66.1,94.4 64.2,94.4 62.3,94.4 62.3,96.3 60.3,96.3 58.4,96.3 58.4,98.3 56.5,98.3 56.5,100.2 
	54.5,100.2 54.5,98.3 52.6,98.3 50.7,98.3 48.8,98.3 46.8,98.3 46.8,100.2 46.8,102.1 44.9,102.1 44.9,104.1 43,104.1 43,102.1 
	41,102.1 39.1,102.1 37.1,102.1 35.3,102.1 35.3,104.1 33.4,104.1 31.4,104.1 31.4,102.1 29.5,102.1 27.6,102.1 27.6,100.2 
	25.6,100.2 23.7,100.2 21.7,100.2 21.7,98.3 19.9,98.3 18,98.3 18,100.2 19.9,100.2 19.9,102.1 21.7,102.1 21.7,104.1 23.7,104.1 
	25.6,104.1 27.6,104.1 29.5,104.1 29.5,105.9 31.4,105.9 33.4,105.9 35.3,105.9 37.1,105.9 37.1,104.1 39.1,104.1 41,104.1 
	41,105.9 43,105.9 44.9,105.9 46.8,105.9 48.8,105.9 48.8,104.1 48.8,102.1 48.8,100.2 50.7,100.2 52.6,100.2 52.6,102.1 
	54.5,102.1 56.5,102.1 58.4,102.1 60.3,102.1 60.3,100.2 60.3,98.3 62.3,98.3 64.2,98.3 64.2,96.3 66.1,96.3 68,96.3 68,94.4 "/>
<polygon class="st21" points="69.9,102.1 69.9,104.1 68,104.1 66.1,104.1 66.1,105.9 68,105.9 69.9,105.9 71.8,105.9 71.8,104.1 
	71.8,102.1 "/>
<polygon class="st21" points="69.9,98.3 68,98.3 68,100.2 66.1,100.2 64.2,100.2 64.2,102.1 66.1,102.1 68,102.1 69.9,102.1 
	69.9,100.2 "/>
<polygon class="st21" points="66.1,96.3 64.2,96.3 64.2,98.3 66.1,98.3 68,98.3 68,96.3 "/>
<polygon class="st21" points="66.1,94.4 66.1,92.4 66.1,90.6 64.2,90.6 64.2,88.7 64.2,86.7 62.3,86.7 62.3,84.8 60.3,84.8 
	60.3,86.7 58.4,86.7 58.4,88.7 60.3,88.7 62.3,88.7 62.3,90.6 60.3,90.6 58.4,90.6 58.4,92.4 60.3,92.4 60.3,94.4 62.3,94.4 
	64.2,94.4 "/>
<polygon class="st21" points="60.3,82.8 60.3,80.9 60.3,79 58.4,79 58.4,77 58.4,75.2 56.5,75.2 56.5,73.3 54.5,73.3 54.5,75.2 
	52.6,75.2 52.6,77 54.5,77 56.5,77 56.5,79 54.5,79 54.5,80.9 56.5,80.9 58.4,80.9 58.4,82.8 "/>
<rect x="56.5" y="82.8" class="st21" width="1.9" height="1.9"/>
<polygon class="st21" points="54.5,71.3 54.5,69.4 54.5,67.4 52.6,67.4 52.6,65.5 52.6,63.6 50.7,63.6 50.7,61.6 48.8,61.6 
	48.8,63.6 48.8,65.5 50.7,65.5 50.7,67.4 48.8,67.4 48.8,69.4 50.7,69.4 52.6,69.4 52.6,71.3 "/>
<rect x="50.7" y="71.3" class="st21" width="1.9" height="1.9"/>
<polygon class="st21" points="48.8,59.8 48.8,57.8 48.8,55.9 46.8,55.9 46.8,54 46.8,52 44.9,52 44.9,50.1 44.9,48.2 43,48.2 
	43,50.1 43,52 41,52 41,54 41,55.9 39.1,55.9 39.1,57.8 41,57.8 43,57.8 43,55.9 43,54 44.9,54 44.9,55.9 44.9,57.8 46.8,57.8 
	46.8,59.8 "/>
<rect x="39.1" y="61.6" class="st21" width="1.9" height="1.9"/>
<rect x="37.1" y="59.8" class="st21" width="1.9" height="1.9"/>
<polygon class="st21" points="35.3,63.6 35.3,65.5 37.1,65.5 39.1,65.5 39.1,63.6 37.1,63.6 "/>
<polygon class="st21" points="33.4,69.4 33.4,71.3 35.3,71.3 35.3,73.3 37.1,73.3 37.1,71.3 37.1,69.4 35.3,69.4 "/>
<polygon class="st21" points="31.4,73.3 31.4,75.2 29.5,75.2 29.5,77 29.5,79 29.5,80.9 31.4,80.9 33.4,80.9 33.4,79 31.4,79 
	31.4,77 33.4,77 33.4,75.2 33.4,73.3 33.4,71.3 31.4,71.3 "/>
<rect x="27.6" y="90.6" class="st21" width="1.9" height="1.9"/>
<rect x="27.6" y="86.7" class="st21" width="1.9" height="1.9"/>
<polygon class="st21" points="25.6,82.8 25.6,84.8 25.6,86.7 27.6,86.7 27.6,84.8 29.5,84.8 29.5,82.8 27.6,82.8 "/>
<polygon class="st21" points="23.7,88.7 23.7,90.6 25.6,90.6 25.6,88.7 25.6,86.7 23.7,86.7 "/>
<polygon class="st21" points="21.7,96.3 21.7,94.4 19.9,94.4 19.9,96.3 19.9,98.3 21.7,98.3 23.7,98.3 25.6,98.3 25.6,96.3 
	23.7,96.3 "/>
<polygon class="st21" points="18,104.1 18,102.1 16,102.1 16,104.1 16,105.9 18,105.9 19.9,105.9 21.7,105.9 21.7,104.1 19.9,104.1 
	"/>
<rect x="18" y="100.2" class="st21" width="1.9" height="1.9"/>
<rect x="16" y="100.2" class="st12" width="1.9" height="1.9"/>
<g>
	<rect x="21.1" y="100.8" class="st22" width="2.3" height="2.3"/>
	<rect x="18.7" y="104.3" class="st22" width="1.1" height="5.8"/>
	<rect x="18.7" y="102" class="st22" width="1.1" height="1.1"/>
	<rect x="15.3" y="100.8" class="st22" width="2.3" height="2.3"/>
</g>
<g>
	<g>
		<polygon class="st23" points="43.8,105.3 43.8,104.4 43.8,103.5 42.8,103.5 41.9,103.5 41.9,104.4 41.9,105.3 42.8,105.3 		"/>
		<polygon class="st23" points="39.9,107.3 39.9,108.4 39.9,109.3 39.9,110.3 39.9,111.3 40.8,111.3 40.8,110.3 40.8,109.3 
			40.8,108.4 40.8,107.3 40.8,106.4 39.9,106.4 		"/>
		<rect x="39.9" y="104.4" class="st23" width="0.9" height="0.9"/>
		<polygon class="st23" points="37,103.5 37,104.4 37,105.3 37.9,105.3 38.9,105.3 38.9,104.4 38.9,103.5 37.9,103.5 		"/>
		<polygon class="st23" points="37,108.4 37,108.4 37,108.4 		"/>
	</g>
	<g>
		<path class="st24" d="M44.8,105.3v-0.9v-0.9h-0.9v0.9v0.9h-0.9l0,0h-1v-0.9v-0.9h-0.9H40l0,0H39v0.9v0.9h-0.9h-0.9v-0.9v-0.9h0.9
			H39v-0.9h-0.9h-0.9v0.9h-0.9v0.9v0.9H35v0.9v0.9v0.9l0,0v0.9v0.9v0.9l0,0v0.9h0.9h0.9l0,0h0.9h0.9h0.9l0,0h0.9h1.2h0.9l0,0h0.9
			h0.9h0.9V111l0,0v-0.9v-0.9v-0.9l0,0v-0.9v-0.9v-0.9L44.8,105.3L44.8,105.3z M40.8,104.4v0.9h-0.9v-0.9H40.8z M37.9,111.3H37l0,0
			H36v-0.9v-0.9v-0.9l0,0v-0.9v-0.9H37l0,0h0.9h0.9v0.9v0.9l0,0v0.9v0.9v0.9H37.9z M39.9,111.3v-0.9v-0.9v-0.9l0,0v-0.9v-0.9h0.9
			v0.9v0.9l0,0v0.9v0.9v0.9H39.9z M44.8,107.3v0.9l0,0v0.9v0.9v0.9h-0.9h-0.9l0,0h-1v-0.9v-0.9v-0.9l0,0v-0.9v-0.9h0.9l0,0h0.9h0.9
			L44.8,107.3L44.8,107.3z"/>
		<polygon class="st24" points="42.8,103.5 43.8,103.5 43.8,102.4 42.8,102.4 42.8,102.4 41.9,102.4 41.9,103.5 		"/>
	</g>
	<rect x="35.9" y="106.4" class="st23" width="2.9" height="4.9"/>
	<rect x="41.9" y="106.4" class="st23" width="2.9" height="4.9"/>
	<g>
		<rect x="43.8" y="110.3" class="st25" width="0.9" height="0.9"/>
		<rect x="43.8" y="108.3" class="st25" width="0.9" height="0.9"/>
		<rect x="43.8" y="106.4" class="st25" width="0.9" height="0.9"/>
		<rect x="42.8" y="109.3" class="st25" width="0.9" height="0.9"/>
		<rect x="42.8" y="107.3" class="st25" width="0.9" height="0.9"/>
		<rect x="41.9" y="110.3" class="st25" width="0.9" height="0.9"/>
		<rect x="41.9" y="108.3" class="st25" width="0.9" height="0.9"/>
		<rect x="41.9" y="106.4" class="st25" width="0.9" height="0.9"/>
		<rect x="37.9" y="110.3" class="st25" width="0.9" height="0.9"/>
		<rect x="37.9" y="108.3" class="st25" width="0.9" height="0.9"/>
		<rect x="37.9" y="106.4" class="st25" width="0.9" height="0.9"/>
		<rect x="37" y="109.3" class="st25" width="0.9" height="0.9"/>
		<rect x="37" y="107.3" class="st25" width="0.9" height="0.9"/>
		<rect x="35.9" y="110.3" class="st25" width="0.9" height="0.9"/>
		<rect x="35.9" y="108.3" class="st25" width="0.9" height="0.9"/>
		<rect x="35.9" y="106.4" class="st25" width="0.9" height="0.9"/>
	</g>
</g>
<g>
	<rect x="32.5" y="105.3" class="st26" width="2.3" height="1.1"/>
	<rect x="32.5" y="110" class="st26" width="2.3" height="1.1"/>
	<polygon class="st26" points="33.7,107.7 33.7,108.8 32.5,108.8 32.5,110 31.4,110 31.4,107.7 	"/>
	<rect x="31.4" y="101.9" class="st27" width="2.3" height="2.3"/>
	<rect x="29.1" y="105.3" class="st27" width="1.1" height="5.8"/>
	<rect x="29.1" y="103" class="st27" width="1.1" height="1.1"/>
	<rect x="25.6" y="103" class="st27" width="1.1" height="1.1"/>
	<polygon class="st27" points="27.9,101.9 27.9,104.2 26.7,104.2 26.7,103 25.6,103 25.6,101.9 	"/>
	<rect x="24.5" y="105.3" class="st26" width="3.4" height="5.8"/>
	<g>
		<polygon class="st28" points="34.8,106.5 34.8,110 32.5,110 32.5,108.8 33.7,108.8 33.7,107.7 31.4,107.7 31.4,105.3 32.5,105.3 
			32.5,106.5 		"/>
		<rect x="31.4" y="110" class="st28" width="1.1" height="1.1"/>
	</g>
</g>
<g>
	<g id="XMLID_21_">
		<g>
			<polygon class="st29" points="50.9,104.9 49.7,105 48.5,105 48.5,105 48.5,103.9 48.5,103.9 48.4,102.9 49.7,102.8 50.9,102.8 
				50.9,103.8 50.9,103.8 			"/>
			<polygon class="st30" points="50.9,102.8 49.7,102.8 48.4,102.9 48.4,101.7 49.6,101.6 50.8,101.6 			"/>
			<polygon class="st29" points="47.5,111.7 46.3,111.8 46.2,110.7 46.3,110.7 46.2,109.6 46.2,108.4 46.2,108.4 46.1,107.3 
				46.1,106.2 46.1,106.2 47.3,106.2 47.4,107.2 47.4,107.3 47.4,108.4 47.4,108.4 47.4,109.5 47.4,109.5 47.5,110.6 47.5,110.6 			
				"/>
			<polygon class="st29" points="47.3,105.1 47.3,105.1 46.1,105.1 46,104 47.3,104 			"/>
			<polygon class="st30" points="52.2,104.9 51,104.9 50.9,103.8 50.9,102.8 52.1,102.7 52.1,103.8 			"/>
			<polygon class="st29" points="44.9,105.1 44.8,105.1 43.6,105.2 43.6,105.2 42.4,105.2 42.4,104.1 42.4,104.1 42.3,102.9 
				42.4,102.9 43.5,102.9 43.6,102.9 44.8,102.9 44.8,102.9 44.8,104 44.8,104 44.8,104.1 			"/>
			<polygon class="st30" points="44.8,102.9 43.6,102.9 43.5,102.9 42.4,102.9 42.3,101.9 43.5,101.8 44.7,101.8 			"/>
			<polygon class="st30" points="42.4,104.1 41.2,104.1 41.1,103 42.3,102.9 42.3,102.9 			"/>
			<polygon class="st30" points="43.9,112.9 43.9,112.9 42.7,113 41.4,113 41.4,113 40.2,113 40.2,111.9 40.2,110.9 40.2,110.9 
				40.1,109.7 40.1,108.6 40.1,108.6 40.1,107.5 40,106.4 40,106.4 40,105.3 41.2,105.3 41.1,104.1 42.4,104.1 42.4,105.2 
				42.4,105.2 43.6,105.2 43.6,105.2 44.8,105.1 44.9,106.2 43.7,106.3 42.5,106.3 41.2,106.4 41.2,106.3 41.2,106.3 41.3,107.4 
				41.3,108.5 41.3,108.5 41.3,109.6 41.4,110.8 41.4,110.8 41.4,111.9 41.4,111.9 42.6,111.9 43.8,111.8 43.8,111.8 45.1,111.8 
				45.1,112.9 			"/>
			<path class="st30" d="M49.9,111.6h-1.2v-1.1v-1.1l0,0v-1.1v-1.1h-1.2v1.1l0,0v1.1l0,0v1.1l0,0v1.1l0,0l0,0h-1.2v-1.1l0,0v-1.1
				v-1.1l0,0v-1.1V106l0,0h1.2l0,0v1.1h1.2V106v-1.1l0,0v-1.1l0,0v-1.1l-2.4,0.1h-1.2v1.1l0,0l0,0v1.1l0,0v1.1l0,0v1.1v1.1l0,0v1.1
				v1.1l0,0v1.1v1.1h1.2h1.2l0,0h1.2h1.2L49.9,111.6z M46,104L46,104h1.2v1.1l0,0H46l0,0V104z"/>
			<polygon class="st30" points="53.6,112.7 52.4,112.7 51.2,112.7 51.2,112.7 50,112.7 50,111.6 51.2,111.6 51.2,111.6 52.4,111.6 
				52.4,111.6 52.4,110.5 52.3,109.4 52.3,109.4 52.3,108.3 52.2,107.2 52.3,107.2 52.2,106 51,106.1 51,106 49.8,106.1 48.6,106.1 
				48.5,105 49.7,105 50.9,104.9 50.9,105 53.4,104.9 53.4,106 53.5,107.1 53.4,107.1 53.5,108.2 53.5,109.3 53.5,109.3 53.6,110.4 
				53.6,111.5 53.6,111.5 			"/>
		</g>
	</g>
</g>
<g>
	<g id="XMLID_22_">
		<g>
			<g>
				<polygon class="st31" points="60.1,102.6 59.2,102.6 59.2,103.5 59.2,104.6 60.1,104.6 61.1,104.6 61.1,103.5 61.1,102.6 				
					"/>
				<polygon class="st31" points="57.3,106.5 57.3,107.5 57.3,108.4 57.3,109.4 57.3,110.4 58.2,110.4 58.2,109.4 58.2,108.4 
					58.2,107.5 58.2,106.5 58.2,105.5 57.3,105.5 				"/>
				<rect x="57.3" y="103.5" class="st31" width="0.9" height="0.9"/>
				<polygon class="st31" points="54.3,102.6 54.3,103.5 54.3,104.6 55.3,104.6 56.2,104.6 56.2,103.5 56.2,102.6 55.3,102.6 				
					"/>
			</g>
			<g>
				<polygon class="st32" points="61.1,105.5 60.1,105.5 59.2,105.5 59.2,106.5 59.2,107.5 59.2,108.4 59.2,109.4 59.2,110.4 
					60.1,110.4 61.1,110.4 62.1,110.4 62.1,109.4 62.1,108.4 62.1,107.5 62.1,106.5 62.1,105.5 				"/>
				<polygon class="st32" points="54.3,105.5 53.3,105.5 53.3,106.5 53.3,107.5 53.3,108.4 53.3,109.4 53.3,110.4 54.3,110.4 
					55.3,110.4 56.2,110.4 56.2,109.4 56.2,108.4 56.2,107.5 56.2,106.5 56.2,105.5 55.3,105.5 				"/>
			</g>
			<g>
				<path class="st33" d="M62.1,104.6v-0.9l0,0v-1h-0.9v0.9l0,0v0.9h-0.9l0,0h-0.9v-0.9l0,0v-0.9h-1l0,0h-0.9h-0.9v0.9l0,0v0.9h-0.9
					l0,0h-0.9v-0.9l0,0v-0.9h-0.9v0.9l0,0v0.9h-0.9v0.9v0.9l0,0v0.9v0.9v0.9l0,0v0.9v0.9h0.9l0,0h0.9h0.9l0,0h0.9h0.9h0.9l0,0h0.9
					h0.9l0,0h0.9H62H63v-0.9v-0.7l0,0v-0.9v-0.9v-0.9l0,0v-0.9v-0.9h-0.9V104.6z M57.3,103.6h0.9v0.9h-0.9V103.6z M55.3,110.4
					L55.3,110.4h-0.9h-0.9v-0.9l0,0v-0.9v-0.9v-0.9l0,0v-0.9h0.9h0.9l0,0h0.9v0.9l0,0v0.9v0.9v0.9l0,0v0.9H55.3z M57.3,110.4v-0.9
					l0,0v-0.9v-0.9v-0.9l0,0v-0.9h0.9v0.9l0,0v0.9v0.9v0.9l0,0v0.9H57.3z M62.1,106.5L62.1,106.5v0.9v0.9v0.9l0,0v0.9h-0.9h-0.9l0,0
					h-0.9v-0.8l0,0v-0.9v-0.9v-0.9l0,0v-0.9h0.9l0,0h0.9h0.9V106.5z"/>
				<polygon class="st33" points="60.2,102.6 61.1,102.6 61.1,101.6 60.2,101.6 60.1,101.6 59.2,101.6 59.2,102.6 60.1,102.6 				
					"/>
				<polygon class="st33" points="55.3,102.6 56.2,102.6 56.2,101.6 55.3,101.6 55.3,101.6 54.3,101.6 54.3,102.6 				"/>
			</g>
		</g>
	</g>
</g>
<g>
	<polygon class="st34" points="52.3,109.4 52.3,108.3 52.3,107.2 52.2,106 51,106 49.8,106.1 48.5,106.1 48.6,107.2 48.6,108.4 
		48.7,109.5 48.7,110.6 48.7,111.7 50,111.6 51.2,111.6 52.4,111.6 52.4,110.5 	"/>
	<polygon class="st34" points="45,109.6 45,108.4 44.9,107.3 44.9,106.2 43.7,106.3 42.5,106.3 41.2,106.3 41.3,107.4 41.3,108.6 
		41.3,109.6 41.4,110.8 41.4,111.9 42.6,111.9 43.9,111.8 45.1,111.8 45,110.7 	"/>
	<polygon class="st34" points="69.1,103 68.1,103 68.1,104.1 68.1,105.2 69.1,105.2 70.2,105.2 70.2,104.1 70.2,103 	"/>
	<polygon class="st34" points="66,107.2 66,108.4 66,109.4 66,110.4 66,111.5 67.1,111.5 67.1,110.4 67.1,109.4 67.1,108.4 
		67.1,107.2 67.1,106.2 66,106.2 	"/>
	<rect x="66" y="104.1" class="st34" width="1" height="1"/>
	<polygon class="st34" points="62.9,103 62.9,104.1 62.9,105.2 63.9,105.2 64.9,105.2 64.9,104.1 64.9,103 63.9,103 	"/>
</g>
<g id="mavi">
	<rect x="50.7" y="82.8" class="st35" width="1.9" height="1.9"/>
	<rect x="41" y="92.4" class="st35" width="1.9" height="1.9"/>
	<rect x="33.4" y="71.3" class="st35" width="1.9" height="1.9"/>
	<rect x="23.7" y="98.3" class="st35" width="1.9" height="1.9"/>
</g>
<polygon class="st36" points="70.2,106.2 69.1,106.2 68.1,106.2 68.1,107.2 68.1,108.4 68.1,109.4 68.1,110.4 68.1,111.5 
	69.1,111.5 70.2,111.5 71.3,111.5 71.3,110.4 71.3,109.4 71.3,108.4 71.3,107.2 71.3,106.2 "/>
<polygon class="st36" points="62.9,106.2 61.7,106.2 61.7,107.2 61.7,108.4 61.7,109.4 61.7,110.4 61.7,111.5 62.9,111.5 
	63.9,111.5 64.9,111.5 64.9,110.4 64.9,109.4 64.9,108.4 64.9,107.2 64.9,106.2 63.9,106.2 "/>
<g>
	<path class="st37" d="M71.3,105.2v-1v-1h-1v1v1h-1h-1v-1v-1h-1h-1h-1v1v1h-1h-1v-1v-1h-1v1v1h-1.2v1v1v1v1v1v1v1h1h1h1h1h1h1h1h1
		h1.2h1h1v-1v-1v-1v-1v-1v-1v-1H71.3z M66,104.1h1v1h-1V104.1z M63.9,111.5h-1h-1v-1v-1v-1v-1v-1h1h1h1v1v1v1v1v1H63.9z M66,111.5
		v-1v-1v-1v-1v-1h1v1v1v1v1v1H66z M71.3,107.2v1v1v1v1h-1h-1h-1v-1v-1v-1v-1v-1h1h1h1V107.2z"/>
	<polygon class="st37" points="70.2,103 70.2,102 69.1,102 68.1,102 68.1,103 69.1,103 	"/>
	<polygon class="st37" points="64.9,103 64.9,102 63.9,102 62.9,102 62.9,103 63.9,103 	"/>
</g>
<polygon class="st38" points="23.4,104.3 22.2,104.3 21.1,104.3 21.1,105.4 21.1,106.6 21.1,107.8 21.1,108.9 21.1,110 22.2,110 
	23.4,110 24.5,110 25.7,110 25.7,108.9 25.7,107.8 25.7,106.6 25.7,105.4 25.7,104.3 24.5,104.3 "/>
<polygon class="st38" points="15.3,104.3 14.2,104.3 14.2,105.4 14.2,106.6 14.2,107.8 14.2,108.9 14.2,110 15.3,110 16.5,110 
	17.6,110 17.6,108.9 17.6,107.8 17.6,106.6 17.6,105.4 17.6,104.3 16.5,104.3 "/>
<polygon class="st39" points="23.4,100.8 23.4,99.7 22.2,99.7 21.1,99.7 21.1,100.8 22.2,100.8 "/>
<polygon class="st39" points="17.6,100.8 17.6,99.7 16.5,99.7 15.3,99.7 15.3,100.8 16.5,100.8 "/>
<path class="st39" d="M34.8,103v-1.1h-1.1v1.1v1.1h-1.1h-1.1V103v-1.1h-1.1h-1.1h-1.1v1.1v1.1H27v-1h-1.1l0,0V103v-1.1h-1.1v-1h-1.1
	v1.1v1.1h-1.1h-1.1V102v-1.1h-1.1h-1.1H18v1.1v1.1h-1.5h-1.2V102v-1.1h-1.1v1.1v1.1H13v1.1v1.1v1.1v1.1v1.1v1.1v1.1h1.1h1.1h1.1h1.1
	h1.1h1.1h1.1h1.1H23v1.1h1.1h1.1h1.1h1.1h1.1h1.1h1.1H32h1.1h1.1h1.1v-1.1v-1.1v-1.1v-1.1v-1.1v-1.1v-1.1h-1.1L34.8,103L34.8,103z
	 M29.1,103h1.1v1.1h-1.1V103z M25.7,106.6v1.1v1.1v1.1h-1.1l0,0v-0.1v-1.1v-1.1v-1.1v-1.1h1.1l0,0v0.1V106.6z M18.7,102h1.1v1.1
	h-1.1V102z M16.5,110h-1.2h-1.1v-1.1v-1.1v-1.1v-1.1v-1.1h1.1h1.1h1.1v1.1v1.1v1.1v1.1v1.1H16.5z M18.7,110v-1.1v-1.1v-1.1v-1.1
	v-1.1h1.1v1.1v1.1v1.1v1.1v1.1H18.7z M21.1,110v-1.1v-1.1v-1.1v-1.1v-1.1h1.1h1.1v1.1v1.1v1.1v1.1v1.1v0.1h-1.1L21.1,110L21.1,110z
	 M26.8,111.1V110v-1.1v-1.1v-1.1v-1.1v-0.1h1.1v1.1v1.1v1.1v1.1v1.1L26.8,111.1L26.8,111.1z M29.1,111.1V110v-1.1v-1.1v-1.1v-1.1
	h1.1v1.1v1.1v1.1v1.1v1.1H29.1z M34.8,106.5v1.1v1.1v1.1v1.1h-1.1h-1.1h-1.1v-1.1v-1.1v-1.1v-1.1v-1.1h1.1h1.1h1.1V106.5z"/>
<polygon class="st39" points="33.7,101.9 33.7,100.7 32.5,100.7 31.4,100.7 31.4,101.9 32.5,101.9 "/>
<polygon class="st39" points="27.9,101.9 27.9,100.7 26.7,100.7 25.6,100.7 25.6,101.9 26.7,101.9 "/>
<g>
	<polygon class="st40" points="64.4,63.4 63.6,63.4 63,63.4 63,64.1 63,64.8 63,65.6 63,66.4 62.2,66.4 62.2,67.2 61.4,67.2 
		61.4,67.8 60.6,67.8 60.6,68.6 60.6,69.4 61.4,69.4 62.2,69.4 63,69.4 63.6,69.4 64.4,69.4 64.4,68.6 65.2,68.6 66,68.6 66,67.8 
		66,67.2 66,66.4 66,65.6 66,64.8 66,64.1 66,63.4 65.2,63.4 	"/>
	<polygon class="st40" points="74.7,63.4 74,63.4 73.3,63.4 73.3,64.1 73.3,64.8 73.3,65.6 73.3,66.4 72.5,66.4 72.5,67.2 
		71.7,67.2 71.7,67.8 71,67.8 71,68.6 71,69.4 71.7,69.4 72.5,69.4 73.3,69.4 74,69.4 74.7,69.4 74.7,68.6 75.5,68.6 76.2,68.6 
		76.2,67.8 76.2,67.2 76.2,66.4 76.2,65.6 76.2,64.8 76.2,64.1 76.2,63.4 75.5,63.4 	"/>
	<polygon class="st40" points="90.9,63.5 90.1,63.5 89.4,63.5 89.4,64.2 89.4,65 89.4,65.7 89.4,66.5 88.6,66.5 88.6,67.2 
		87.9,67.2 87.9,68 87.1,68 87.1,68.7 87.1,69.5 87.9,69.5 88.6,69.5 89.4,69.5 90.1,69.5 90.9,69.5 90.9,68.7 91.6,68.7 92.4,68.7 
		92.4,68 92.4,67.2 92.4,66.5 92.4,65.7 92.4,65 92.4,64.2 92.4,63.5 91.6,63.5 	"/>
	<polygon class="st40" points="101.7,63.6 101,63.6 100.2,63.6 99.5,63.6 99.5,64.3 99.5,65.1 99.5,65.9 99.5,66.6 98.7,66.6 
		98.7,67.3 98,67.3 98,68.1 97.3,68.1 97.3,68.9 97.3,69.6 98,69.6 98.7,69.6 99.5,69.6 100.2,69.6 101,69.6 101,68.9 101.7,68.9 
		102.5,68.9 102.5,68.1 102.5,67.3 102.5,66.6 102.5,65.9 102.5,65.1 102.5,64.3 102.5,63.6 	"/>
</g>
<polygon class="st41" points="60.6,67.8 59.9,67.8 59.9,68.6 59.9,69.4 60.6,69.4 60.6,68.6 "/>
<rect x="60.6" y="67.2" class="st41" width="0.8" height="0.8"/>
<rect x="61.4" y="66.4" class="st41" width="0.8" height="0.8"/>
<polygon class="st41" points="63,65.6 63,64.8 63,64.1 63,63.4 62.2,63.4 62.2,64.1 62.2,64.8 62.2,65.6 62.2,66.4 63,66.4 "/>
<polygon class="st41" points="63,69.4 62.2,69.4 61.4,69.4 60.6,69.4 60.6,70.1 61.4,70.1 62.2,70.1 63,70.1 63.6,70.1 64.4,70.1 
	64.4,69.4 63.6,69.4 "/>
<polygon class="st41" points="64.4,68.6 64.4,69.4 65.2,69.4 66,69.4 66,68.6 65.2,68.6 "/>
<polygon class="st41" points="66,64.1 66,64.8 66,65.6 66,66.4 66,67.2 66,67.8 66,68.6 66.7,68.6 66.7,67.8 66.7,67.2 66.7,66.4 
	66.7,65.6 66.7,64.8 66.7,64.1 66.7,63.4 66,63.4 "/>
<polygon class="st41" points="71,67.8 70.3,67.8 70.3,68.6 70.3,69.4 71,69.4 71,68.6 "/>
<rect x="71" y="67.2" class="st41" width="0.8" height="0.8"/>
<rect x="71.7" y="66.4" class="st41" width="0.8" height="0.8"/>
<polygon class="st41" points="73.3,65.6 73.3,64.8 73.3,64.1 73.3,63.4 72.5,63.4 72.5,64.1 72.5,64.8 72.5,65.6 72.5,66.4 
	73.3,66.4 "/>
<polygon class="st41" points="73.3,69.4 72.5,69.4 71.7,69.4 71,69.4 71,70.1 71.7,70.1 72.5,70.1 73.3,70.1 74,70.1 74.7,70.1 
	74.7,69.4 74,69.4 "/>
<polygon class="st41" points="74.7,68.6 74.7,69.4 75.5,69.4 76.2,69.4 76.2,68.6 75.5,68.6 "/>
<polygon class="st41" points="76.2,64.1 76.2,64.8 76.2,65.6 76.2,66.4 76.2,67.2 76.2,67.8 76.2,68.6 77,68.6 77,67.8 77,67.2 
	77,66.4 77,65.6 77,64.8 77,64.1 77,63.4 76.2,63.4 "/>
<polygon class="st41" points="87.1,68 86.4,68 86.4,68.7 86.4,69.5 87.1,69.5 87.1,68.7 "/>
<rect x="87.1" y="67.2" class="st41" width="0.8" height="0.8"/>
<rect x="87.9" y="66.5" class="st41" width="0.8" height="0.8"/>
<polygon class="st41" points="89.4,65.7 89.4,65 89.4,64.2 89.4,63.5 88.6,63.5 88.6,64.2 88.6,65 88.6,65.7 88.6,66.5 89.4,66.5 
	"/>
<polygon class="st41" points="89.4,69.5 88.6,69.5 87.9,69.5 87.1,69.5 87.1,70.3 87.9,70.3 88.6,70.3 89.4,70.3 90.1,70.3 
	90.9,70.3 90.9,69.5 90.1,69.5 "/>
<polygon class="st41" points="90.9,68.7 90.9,69.5 91.6,69.5 92.4,69.5 92.4,68.7 91.6,68.7 "/>
<polygon class="st41" points="92.4,64.2 92.4,65 92.4,65.7 92.4,66.5 92.4,67.2 92.4,68 92.4,68.7 93.1,68.7 93.1,68 93.1,67.2 
	93.1,66.5 93.1,65.7 93.1,65 93.1,64.2 93.1,63.5 92.4,63.5 "/>
<polygon class="st41" points="97.3,68.1 96.5,68.1 96.5,68.9 96.5,69.6 97.3,69.6 97.3,68.9 "/>
<rect x="97.3" y="67.3" class="st41" width="0.8" height="0.8"/>
<rect x="98" y="66.6" class="st41" width="0.8" height="0.8"/>
<polygon class="st41" points="99.5,65.9 99.5,65.1 99.5,64.3 99.5,63.6 98.7,63.6 98.7,64.3 98.7,65.1 98.7,65.9 98.7,66.6 
	99.5,66.6 "/>
<polygon class="st41" points="99.5,69.6 98.7,69.6 98,69.6 97.3,69.6 97.3,70.3 98,70.3 98.7,70.3 99.5,70.3 100.2,70.3 101,70.3 
	101,69.6 100.2,69.6 "/>
<polygon class="st41" points="101,68.9 101,69.6 101.7,69.6 102.5,69.6 102.5,68.9 101.7,68.9 "/>
<polygon class="st41" points="102.5,63.6 102.5,64.3 102.5,65.1 102.5,65.9 102.5,66.6 102.5,67.3 102.5,68.1 102.5,68.9 
	103.3,68.9 103.3,68.1 103.3,67.3 103.3,66.6 103.3,65.9 103.3,65.1 103.3,64.3 103.3,63.6 "/>
<g>
	<polygon class="st42" points="65.2,61.8 64.4,61.8 63.6,61.8 63,61.8 62.2,61.8 62.2,62.6 63,62.6 63.6,62.6 64.4,62.6 65.2,62.6 
		66,62.6 66.7,62.6 66.7,61.8 66,61.8 	"/>
	<polygon class="st42" points="75.5,61.8 74.7,61.8 74,61.8 73.3,61.8 72.5,61.8 72.5,62.6 73.3,62.6 74,62.6 74.7,62.6 75.5,62.6 
		76.2,62.6 77,62.6 77,61.8 76.2,61.8 	"/>
	<polygon class="st42" points="91.6,62 90.9,62 90.1,62 89.4,62 88.6,62 88.6,62.7 89.4,62.7 90.1,62.7 90.9,62.7 91.6,62.7 
		92.4,62.7 93.1,62.7 93.1,62 92.4,62 	"/>
	<polygon class="st42" points="102.5,62.1 101.7,62.1 101,62.1 100.2,62.1 99.5,62.1 98.7,62.1 98.7,62.9 99.5,62.9 100.2,62.9 
		101,62.9 101.7,62.9 102.5,62.9 103.3,62.9 103.3,62.1 	"/>
</g>
<g>
	<path class="st43" d="M66,61.1h-0.8h-0.8h-0.8h-0.8h-0.8h-0.8v0.8v0.8v0.8h0.8h0.8h0.8h0.8h0.8H66h0.8h0.8v-0.8v-0.8v-0.8h-0.8H66z
		 M66.7,62.6H66h-0.8h-0.8h-0.8h-0.8h-0.8v-0.8h0.8h0.8h0.8h0.8H66h0.8L66.7,62.6L66.7,62.6z"/>
	<path class="st43" d="M76.2,61.1h-0.8h-0.8h-0.8h-0.8h-0.8h-0.8v0.8v0.8v0.8h0.8h0.8h0.8h0.8h0.8h0.8H77h0.8v-0.8v-0.8v-0.8H77
		H76.2z M77,62.6h-0.8h-0.8h-0.8h-0.8h-0.8h-0.8v-0.8h0.8h0.8h0.8h0.8h0.8H77V62.6z"/>
	<path class="st43" d="M92.4,61.2h-0.8h-0.8h-0.8h-0.8h-0.8h-0.8V62v0.8v0.8h0.8h0.8h0.8h0.8h0.8h0.8h0.8h0.8v-0.8V62v-0.8h-0.8
		H92.4z M93.1,62.7h-0.8h-0.8h-0.8h-0.8h-0.8h-0.8v-0.8h0.8h0.8h0.8h0.8h0.8h0.8V62.7z"/>
	<path class="st43" d="M103.3,61.4h-0.8h-0.8H101h-0.8h-0.7h-0.8H98v0.8v0.8v0.8h0.8h0.8h0.8h0.8h0.8h0.8h0.8h0.8v-0.8v-0.8v-0.8
		H103.3z M103.3,62.9h-0.8h-0.8H101h-0.8h-0.7h-0.8v-0.8h0.8h0.8h0.8h0.8h0.8h0.8L103.3,62.9L103.3,62.9z"/>
</g>
<g id="XMLID_38_">
	<g id="XMLID_39_">
		<g>
			<polygon class="st44" points="84.8,66.1 84.8,65.5 84.2,65.5 84.2,64.9 84.2,64.3 84.2,63.6 84.2,63 84.2,62.4 83.5,62.4 
				83.5,61.8 82.9,61.8 82.9,62.4 82.9,63 82.9,63.6 82.9,64.3 82.9,64.9 82.9,65.5 82.9,66.1 82.3,66.1 81.7,66.1 81.7,66.8 
				82.3,66.8 82.9,66.8 83.5,66.8 84.2,66.8 84.8,66.8 85.4,66.8 85.4,66.1 			"/>
			<polygon class="st45" points="82.3,61.2 82.3,61.8 81.7,61.8 81.7,62.4 82.3,62.4 82.3,63 82.9,63 82.9,62.4 82.9,61.8 
				82.9,61.2 			"/>
			<rect x="81" y="61.8" class="st10" width="0.6" height="0.6"/>
			<polygon class="st46" points="83.5,60.5 83.5,59.9 82.9,59.9 82.9,60.5 82.3,60.5 82.3,59.9 81.7,59.9 81.7,60.5 81,60.5 
				81,61.2 81,61.8 81.7,61.8 82.3,61.8 82.3,61.2 82.9,61.2 82.9,61.8 83.5,61.8 84.2,61.8 84.2,61.2 84.2,60.5 			"/>
			<g>
				<polygon class="st47" points="82.5,38.4 81.4,38.4 81.4,39.5 81.4,40.6 82.5,40.6 83.6,40.6 83.6,39.5 83.6,38.4 				"/>
				<polygon class="st47" points="82.3,62.4 81.7,62.4 81,62.4 81,63 81,63.6 81,64.3 81,64.9 81,65.5 80.4,65.5 80.4,66.1 
					79.8,66.1 79.8,66.8 80.4,66.8 81,66.8 81.7,66.8 81.7,66.1 82.3,66.1 82.9,66.1 82.9,65.5 82.9,64.9 82.9,64.3 82.9,63.6 
					82.9,63 82.3,63 				"/>
			</g>
		</g>
	</g>
</g>
<rect x="93.8" y="61.8" class="st15" width="4.1" height="1.3"/>
<rect x="63.7" y="9.3" class="st48" width="36.3" height="47.5"/>
<g>
	<polygon class="st49" points="95.6,48.1 94.4,48.1 93.1,48.1 93.1,49.3 91.9,49.3 91.9,50.6 93.1,50.6 94.4,50.6 95.6,50.6 
		96.9,50.6 96.9,49.3 96.9,48.1 	"/>
	<polygon class="st49" points="94.4,24.3 94.4,26.8 87,26.8 87,23.1 93.1,23.1 93.1,24.3 	"/>
	<polygon class="st49" points="89.4,41.9 88.2,41.9 88.2,43.1 88.2,44.4 89.4,44.4 90.7,44.4 90.7,43.1 89.4,43.1 	"/>
	<polygon class="st49" points="89.4,36.9 89.4,35.6 89.4,34.4 88.2,34.4 87,34.4 85.7,34.4 84.5,34.4 84.5,35.6 84.5,36.9 
		85.7,36.9 87,36.9 88.2,36.9 	"/>
	<polygon class="st49" points="87,53.1 87,56.8 82,56.8 82,50.6 85.7,50.6 85.7,53.1 	"/>
	<polygon class="st49" points="84.5,44.4 83.2,44.4 83.2,45.6 82,45.6 82,46.9 83.2,46.9 84.5,46.9 85.7,46.9 87,46.9 87,45.6 
		87,44.4 85.7,44.4 	"/>
	<polygon class="st49" points="75.7,43.1 74.4,43.1 74.4,44.4 75.7,44.4 76.9,44.4 78.2,44.4 78.2,43.1 76.9,43.1 	"/>
	<polygon class="st49" points="75.7,23.1 74.4,23.1 73.2,23.1 73.2,24.3 71.9,24.3 71.9,25.6 73.2,25.6 74.4,25.6 75.7,25.6 
		76.9,25.6 78.2,25.6 78.2,24.3 78.2,23.1 76.9,23.1 	"/>
	<polygon class="st49" points="74.4,41.9 74.4,40.6 75.7,40.6 75.7,39.4 74.4,39.4 73.2,39.4 71.9,39.4 70.7,39.4 70.7,40.6 
		70.7,41.9 70.7,43.1 71.9,43.1 71.9,41.9 71.9,40.6 73.2,40.6 73.2,41.9 	"/>
	<rect x="66.9" y="53.1" class="st49" width="3.8" height="3.8"/>
	<polygon class="st49" points="70.7,20.6 70.7,23.1 66.9,23.1 66.9,21.8 69.4,21.8 69.4,20.6 	"/>
	<rect x="65.7" y="19.3" class="st49" width="3.8" height="2.5"/>
	<polygon class="st49" points="65.7,28.1 65.7,31.8 63.7,31.8 63.7,30.6 64.4,30.6 64.4,30.6 63.7,30.6 63.7,28.1 	"/>
</g>
<g id="XMLID_31_">
	<g>
		<polygon class="st50" points="83.6,36.3 83.6,37.3 83.6,38.4 84.6,38.4 84.6,37.3 84.6,36.3 		"/>
		<polygon class="st50" points="80.2,37.3 80.2,38.4 81.4,38.4 81.4,37.3 81.4,36.3 80.2,36.3 		"/>
	</g>
	<g>
		<rect x="85.7" y="45" class="st51" width="1.1" height="1.1"/>
		<rect x="85.7" y="39.5" class="st51" width="1.1" height="1.1"/>
		<rect x="84.6" y="43.8" class="st51" width="1.1" height="1.1"/>
		<rect x="84.6" y="40.6" class="st51" width="1.1" height="1.1"/>
		<polygon class="st51" points="84.6,38.4 85.7,38.4 85.7,37.3 85.7,36.3 84.6,36.3 84.6,37.3 		"/>
		<rect x="83.6" y="35.2" class="st51" width="1.1" height="1.1"/>
		<polygon class="st51" points="81.4,46.1 81.4,47.1 81.4,48.2 82.5,48.2 83.6,48.2 83.6,47.1 83.6,46.1 82.5,46.1 		"/>
		<polygon class="st51" points="81.4,36.3 81.4,37.3 81.4,38.4 82.5,38.4 83.6,38.4 83.6,37.3 83.6,36.3 82.5,36.3 		"/>
		<rect x="80.2" y="35.2" class="st51" width="1.1" height="1.1"/>
		<rect x="79.2" y="43.8" class="st51" width="1.1" height="1.1"/>
		<rect x="79.2" y="40.6" class="st51" width="1.1" height="1.1"/>
		<polygon class="st51" points="79.2,37.3 79.2,38.4 80.2,38.4 80.2,37.3 80.2,36.3 79.2,36.3 		"/>
		<rect x="78.1" y="45" class="st51" width="1.1" height="1.1"/>
		<rect x="78.1" y="39.5" class="st51" width="1.1" height="1.1"/>
	</g>
	<g>
		<polygon class="st52" points="86.9,41.7 86.9,40.6 85.7,40.6 85.7,41.7 85.7,42.8 85.7,43.8 85.7,45 86.9,45 86.9,43.8 87.9,43.8 
			87.9,42.8 87.9,41.7 		"/>
		<polygon class="st52" points="85.7,38.4 84.6,38.4 83.6,38.4 83.6,39.5 83.6,40.6 84.6,40.6 85.7,40.6 85.7,39.5 		"/>
		<polygon class="st52" points="83.6,45 83.6,46.1 83.6,47.1 84.6,47.1 85.7,47.1 85.7,46.1 85.7,45 84.6,45 		"/>
		<polygon class="st52" points="79.2,47.1 80.2,47.1 80.2,48.2 81.4,48.2 81.4,47.1 81.4,46.1 81.4,45 80.2,45 79.2,45 79.2,46.1 		
			"/>
		<polygon class="st52" points="79.2,38.4 79.2,39.5 79.2,40.6 80.2,40.6 81.4,40.6 81.4,39.5 81.4,38.4 80.2,38.4 		"/>
		<polygon class="st52" points="78.1,41.7 77,41.7 77,42.8 77,43.8 78.1,43.8 78.1,45 79.2,45 79.2,43.8 79.2,42.8 79.2,41.7 
			79.2,40.6 78.1,40.6 		"/>
	</g>
	<g>
		<polygon class="st53" points="87.9,41.7 87.9,42.8 87.9,43.8 89,43.8 89,42.8 89,41.7 		"/>
		<polygon class="st53" points="86.9,45 86.9,46.1 87.9,46.1 87.9,45 87.9,43.8 86.9,43.8 		"/>
		<polygon class="st53" points="87.9,39.5 86.9,39.5 86.9,40.6 86.9,41.7 87.9,41.7 87.9,40.6 		"/>
		<rect x="85.7" y="46.1" class="st53" width="1.1" height="1.1"/>
		<rect x="85.7" y="38.4" class="st53" width="1.1" height="1.1"/>
		<polygon class="st53" points="83.6,47.1 83.6,48.2 82.5,48.2 81.4,48.2 80.2,48.2 80.2,47.1 79.2,47.1 79.2,48.2 79.2,49.3 
			80.2,49.3 81.4,49.3 82.5,49.3 83.6,49.3 84.6,49.3 84.6,48.2 85.7,48.2 85.7,47.1 84.6,47.1 		"/>
		<rect x="78.1" y="46.1" class="st53" width="1.1" height="1.1"/>
		<rect x="78.1" y="38.4" class="st53" width="1.1" height="1.1"/>
		<polygon class="st53" points="78.1,43.8 77,43.8 77,45 77,46.1 78.1,46.1 78.1,45 		"/>
		<polygon class="st53" points="78.1,40.6 78.1,39.5 77,39.5 77,40.6 77,41.7 78.1,41.7 		"/>
		<polygon class="st53" points="77,41.7 75.9,41.7 75.9,42.8 75.9,43.8 77,43.8 77,42.8 		"/>
	</g>
</g>
<g id="noel-markut">
	<polygon class="st54" points="70.7,24.8 69.7,24.8 69.7,23.8 68.5,23.8 68.5,22.7 67.5,22.7 66.4,22.7 66.4,23.8 65.4,23.8 
		65.4,24.8 65.4,25.9 66.4,25.9 66.4,27 67.5,27 67.5,28.1 68.5,28.1 68.5,27 69.7,27 70.7,27 71.8,27 71.8,25.9 71.8,24.8 	"/>
	<polygon class="st55" points="54.6,35.7 54.6,36.7 51.3,36.7 51.3,30.3 53.5,30.3 53.5,35.7 	"/>
	<rect x="45.9" y="25.9" class="st56" width="1.1" height="11.9"/>
	<rect x="41.6" y="23.8" class="st57" width="1" height="1"/>
	<rect x="40.6" y="23.8" class="st57" width="1" height="1"/>
	<rect x="38.4" y="23.8" class="st57" width="1" height="1"/>
	<polygon class="st58" points="44.9,23.8 44.9,25.9 42.7,25.9 42.7,27 41.6,27 41.6,25.9 39.5,25.9 39.5,27 38.4,27 38.4,24.8 
		39.5,24.8 39.5,23.8 38.4,23.8 38.4,22.7 42.7,22.7 42.7,23.8 40.6,23.8 40.6,24.8 42.7,24.8 42.7,23.8 	"/>
	<g>
		<polygon class="st59" points="52.4,22.7 52.4,30.3 51.3,30.3 51.3,38.9 49.2,38.9 49.2,24.9 47,24.9 47,23.8 49.2,23.8 49.2,20.5 
			51.3,20.5 51.3,22.7 		"/>
		<polygon class="st59" points="43.8,17.3 42.7,17.3 42.7,16.2 41.6,16.2 40.5,16.2 39.5,16.2 38.4,16.2 38.4,17.3 39.5,17.3 
			40.5,17.3 40.5,18.4 41.6,18.4 41.6,19.5 41.6,20.5 42.7,20.5 43.8,20.5 44.8,20.5 44.8,19.5 44.8,18.4 43.8,18.4 		"/>
	</g>
	<rect x="37.3" y="23.8" class="st57" width="1" height="1"/>
	<polygon class="st38" points="66.4,27 66.4,25.9 65.4,25.9 65.4,24.8 64.2,24.8 64.2,25.9 64.2,27 65.4,27 65.4,28.1 66.4,28.1 
		66.4,29.1 67.5,29.1 67.5,28.1 67.5,27 	"/>
	<polygon class="st38" points="62.1,33.4 62.1,32.4 62.1,31.3 62.1,30.3 61.1,30.3 61.1,29.1 61.1,28.1 61.1,27 59.9,27 59.9,25.9 
		59.9,24.8 59.9,23.8 58.9,23.8 58.9,22.7 58.9,21.6 58.9,20.5 57.8,20.5 57.8,19.5 56.7,19.5 55.6,19.5 55.6,20.5 56.7,20.5 
		56.7,21.6 56.7,22.7 57.8,22.7 57.8,23.8 57.8,24.8 57.8,25.9 58.9,25.9 58.9,27 58.9,28.1 58.9,29.1 59.9,29.1 59.9,30.3 
		59.9,31.3 59.9,32.4 59.9,33.4 61.1,33.4 61.1,34.6 61.1,35.7 61.1,36.7 62.1,36.7 63.2,36.7 63.2,35.7 63.2,34.6 62.1,34.6 	"/>
	<polygon class="st38" points="51.3,38.9 50.2,38.9 49.2,38.9 48.1,38.9 47,38.9 45.9,38.9 45.9,37.7 44.9,37.7 43.8,37.7 
		42.7,37.7 41.6,37.7 41.6,38.9 40.6,38.9 40.6,39.9 41.6,39.9 42.7,39.9 43.8,39.9 44.9,39.9 45.9,39.9 45.9,41 47,41 48.1,41 
		49.2,41 50.2,41 51.3,41 52.4,41 52.4,39.9 51.3,39.9 	"/>
	<polygon class="st38" points="41.6,31.3 42.7,31.3 42.7,30.3 43.8,30.3 43.8,29.1 43.8,28.1 43.8,27 43.8,25.9 42.7,25.9 42.7,27 
		41.6,27 41.6,25.9 40.6,25.9 39.5,25.9 39.5,27 38.4,27 38.4,25.9 37.3,25.9 36.3,25.9 36.3,27 36.3,28.1 36.3,29.1 36.3,30.3 
		36.3,31.3 37.3,31.3 38.4,31.3 39.5,31.3 40.6,31.3 	"/>
	<polygon class="st38" points="39.5,22.7 40.6,22.7 41.6,22.7 42.7,22.7 42.7,23.8 43.8,23.8 44.9,23.8 44.9,22.7 44.9,21.6 
		44.9,20.5 43.8,20.5 42.7,20.5 41.6,20.5 40.6,20.5 39.5,20.5 38.4,20.5 37.3,20.5 37.3,21.6 37.3,22.7 38.4,22.7 	"/>
	<g>
		<polygon class="st60" points="65.4,28.1 65.4,27 64.2,27 64.2,25.9 63.2,25.9 63.2,24.8 63.2,23.8 62.1,23.8 62.1,22.7 62.1,21.6 
			61.1,21.6 61.1,20.5 61.1,19.5 59.9,19.5 58.9,19.5 57.8,19.5 57.8,20.5 58.9,20.5 58.9,21.6 58.9,22.7 58.9,23.8 59.9,23.8 
			59.9,24.8 59.9,25.9 59.9,27 61.1,27 61.1,28.1 61.1,29.1 61.1,30.3 62.1,30.3 62.1,31.3 63.2,31.3 64.2,31.3 65.4,31.3 
			65.4,30.3 66.4,30.3 66.4,29.1 66.4,28.1 		"/>
		<polygon class="st60" points="61.1,33.4 61.1,36.7 55.6,36.7 55.6,34.6 54.6,34.6 54.6,29.1 53.5,29.1 53.5,21.6 52.4,21.6 
			52.4,20.5 56.7,20.5 56.7,22.7 57.8,22.7 57.8,25.9 58.9,25.9 58.9,29.1 59.9,29.1 59.9,33.4 		"/>
		<polygon class="st60" points="49.2,21.6 49.2,23.8 47,23.8 47,22.7 48.1,22.7 48.1,21.6 		"/>
		<rect x="47" y="24.8" class="st60" width="2.2" height="14"/>
		<rect x="44.9" y="21.6" class="st60" width="1" height="3.3"/>
		<polygon class="st60" points="45.9,33.4 45.9,37.7 41.6,37.7 41.6,31.3 42.7,31.3 42.7,30.3 43.8,30.3 43.8,25.9 44.9,25.9 
			44.9,33.4 		"/>
		<polygon class="st60" points="41.6,19.5 41.6,18.4 40.6,18.4 40.6,17.3 39.5,17.3 38.4,17.3 37.3,17.3 37.3,18.4 36.3,18.4 
			36.3,19.5 36.3,20.5 36.3,21.6 36.3,22.7 37.3,22.7 37.3,21.6 37.3,20.5 38.4,20.5 39.5,20.5 40.6,20.5 41.6,20.5 		"/>
	</g>
	<polygon class="st61" points="36.3,22.7 35.2,22.7 35.2,23.8 35.2,24.8 36.3,24.8 37.3,24.8 37.3,23.8 37.3,22.7 	"/>
	<polygon class="st62" points="54.6,39.1 53.8,39.1 53.1,39.1 52.3,39.1 51.5,39.1 51.5,39.8 50.7,39.8 50,39.8 49.2,39.8 
		48.4,39.8 47.6,39.8 46.9,39.8 46.1,39.8 45.3,39.8 44.5,39.8 44.5,40.6 45.3,40.6 46.1,40.6 46.1,41.3 46.9,41.3 46.9,41.9 
		46.9,42.6 46.9,43.4 47.6,43.4 47.6,44.1 48.4,44.1 49.2,44.1 49.2,44.8 49.2,45.5 50,45.5 50.7,45.5 50.7,46.3 51.5,46.3 
		51.5,45.5 52.3,45.5 52.3,44.8 52.3,44.1 53.1,44.1 53.1,43.4 53.1,42.6 53.8,42.6 53.8,41.9 53.8,41.3 54.6,41.3 54.6,40.6 
		54.6,39.8 55.3,39.8 55.3,39.1 	"/>
	<rect x="43.8" y="51.2" class="st63" width="0.8" height="0.7"/>
	<polygon class="st64" points="46.1,49.1 46.1,48.4 45.3,48.4 45.3,47.7 44.5,47.7 44.5,48.4 44.5,49.1 44.5,49.8 44.5,50.6 
		43.8,50.6 43.8,51.2 44.5,51.2 45.3,51.2 45.3,50.6 46.1,50.6 46.1,49.8 46.9,49.8 46.9,49.1 	"/>
	<polygon class="st65" points="43.8,47.7 43.8,48.4 43.8,49.1 43.8,49.8 43.8,50.6 44.5,50.6 44.5,49.8 44.5,49.1 44.5,48.4 
		44.5,47.7 	"/>
	<g>
		<polygon class="st66" points="50,45.5 49.2,45.5 49.2,44.8 49.2,44.1 48.4,44.1 47.6,44.1 47.6,43.4 46.9,43.4 46.9,44.1 
			46.9,44.8 46.9,45.5 46.9,46.3 46.9,46.9 46.9,47.7 47.6,47.7 47.6,46.9 48.4,46.9 49.2,46.9 50,46.9 50.7,46.9 50.7,46.3 
			50.7,45.5 		"/>
		<polygon class="st66" points="44.5,42.6 43.8,42.6 43.8,43.4 43.8,44.1 43.8,44.8 43.8,45.5 44.5,45.5 44.5,44.8 45.3,44.8 
			45.3,44.1 45.3,43.4 44.5,43.4 		"/>
	</g>
	<g>
		<polygon class="st67" points="46.1,41.3 46.1,40.6 45.3,40.6 44.5,40.6 43.8,40.6 43.8,41.3 43.8,41.9 43.8,42.6 44.5,42.6 
			44.5,43.4 45.3,43.4 45.3,44.1 45.3,44.8 44.5,44.8 44.5,45.5 43.8,45.5 43.8,46.3 43.8,46.9 43.8,47.7 44.5,47.7 45.3,47.7 
			46.1,47.7 46.9,47.7 46.9,46.9 46.9,46.3 46.9,45.5 46.9,44.8 46.9,44.1 46.9,43.4 46.9,42.6 46.9,41.9 46.9,41.3 		"/>
		<rect x="45.3" y="50.6" class="st67" width="0.8" height="0.7"/>
	</g>
	<rect x="42.2" y="51.2" class="st63" width="0.8" height="0.7"/>
	<polygon class="st68" points="43,42.6 43,43.4 42.2,43.4 42.2,44.1 42.2,44.8 43,44.8 43,45.5 43.8,45.5 43.8,44.8 43.8,44.1 
		43.8,43.4 43.8,42.6 	"/>
	<g>
		<rect x="43" y="51.2" class="st69" width="0.8" height="0.7"/>
		<polygon class="st69" points="43,40.6 42.2,40.6 41.5,40.6 41.5,41.3 40.8,41.3 40.8,41.9 40.8,42.6 40.8,43.4 40.8,44.1 
			40.8,44.8 40.8,45.5 40.8,46.3 40.8,46.9 40.8,47.7 41.5,47.7 42.2,47.7 43,47.7 43.8,47.7 43.8,46.9 43.8,46.3 43.8,45.5 
			43,45.5 43,44.8 42.2,44.8 42.2,44.1 42.2,43.4 43,43.4 43,42.6 43.8,42.6 43.8,41.9 43.8,41.3 43.8,40.6 		"/>
		<rect x="41.5" y="50.6" class="st69" width="0.8" height="0.7"/>
	</g>
	<rect x="45.3" y="39.1" class="st39" width="0.8" height="0.7"/>
	<polygon class="st39" points="44.5,38.4 44.5,37.6 43.8,37.6 43.8,37 43,37 42.2,37 41.5,37 40.8,37 40.8,37.6 41.5,37.6 
		42.2,37.6 42.2,38.4 43,38.4 43.8,38.4 43.8,39.1 44.5,39.1 45.3,39.1 45.3,38.4 	"/>
	<polygon class="st70" points="40,43.4 40,44.1 39.2,44.1 38.4,44.1 38.4,44.8 38.4,45.5 37.7,45.5 36.9,45.5 36.9,46.3 36.9,46.9 
		37.7,46.9 38.4,46.9 39.2,46.9 40,46.9 40,47.7 40.8,47.7 40.8,46.9 40.8,46.3 40.8,45.5 40.8,44.8 40.8,44.1 40.8,43.4 	"/>
	<g>
		<polygon class="st71" points="42.2,47.7 42.2,48.4 41.5,48.4 41.5,49.1 40.8,49.1 40.8,49.8 41.5,49.8 41.5,50.6 42.2,50.6 
			42.2,51.2 43,51.2 43,50.6 43,49.8 43,49.1 43,48.4 43,47.7 		"/>
		<polygon class="st71" points="40.8,42.6 40.8,41.9 40.8,41.3 41.5,41.3 41.5,40.6 41.5,39.8 40.8,39.8 40,39.8 39.2,39.8 
			38.4,39.8 37.7,39.8 36.9,39.8 36.1,39.8 36.1,39.1 35.3,39.1 34.6,39.1 33.8,39.1 33,39.1 32.2,39.1 32.2,39.8 33,39.8 33,40.6 
			33.8,40.6 33.8,41.3 33.8,41.9 34.6,41.9 34.6,42.6 34.6,43.4 35.3,43.4 35.3,44.1 36.1,44.1 36.1,44.8 36.1,45.5 36.1,46.3 
			36.9,46.3 36.9,45.5 37.7,45.5 38.4,45.5 38.4,44.8 38.4,44.1 39.2,44.1 40,44.1 40,43.4 40.8,43.4 		"/>
	</g>
	<polygon class="st72" points="55.6,34.6 55.6,37.7 54.6,37.7 54.6,35.7 53.5,35.7 53.5,30.3 52.5,30.3 52.5,22.7 51.3,22.7 
		51.3,20.5 49.2,20.5 49.2,20.5 49.2,20.5 49.2,21.6 48.1,21.6 48.1,22.7 47,22.7 47,23.8 47,23.8 47,24.9 47,24.9 47,25.9 
		45.9,25.9 45.9,33.4 44.9,33.4 44.9,24.8 45.9,24.8 45.9,21.6 47,21.6 47,20.5 48.1,20.5 48.1,19.5 50.2,19.5 50.3,0 51.3,0 
		51.3,19.5 52.5,19.5 52.5,21.6 53.5,21.6 53.5,29.1 54.6,29.1 54.6,34.6 	"/>
	<rect x="47" y="23.8" class="st72" width="0" height="1.1"/>
	<rect x="49.2" y="20.5" class="st72" width="0" height="1"/>
	<polygon class="st41" points="43.8,39.1 43.8,38.4 43,38.4 42.2,38.4 42.2,39.1 42.2,39.8 41.5,39.8 41.5,40.6 42.2,40.6 43,40.6 
		43.8,40.6 44.5,40.6 44.5,39.8 45.3,39.8 45.3,39.1 44.5,39.1 	"/>
	<polygon class="st41" points="43,48.4 43,49.1 43,49.8 43,50.6 43,51.2 43.8,51.2 43.8,50.6 43.8,49.8 43.8,49.1 43.8,48.4 
		43.8,47.7 43,47.7 	"/>
</g>
<polygon id="alev-u2" class="st8" points="73.2,83.2 73.2,85.6 71.9,85.6 71.9,84.4 70.7,84.4 70.7,83.2 "/>
<rect x="84.5" y="89.9" class="st9" width="1.3" height="1.3"/>
<rect x="88.2" y="89.9" class="st9" width="1.9" height="1.3"/>
<polygon id="alev-beyaz" class="st73" points="89.4,85.6 89.4,91.8 88.2,91.8 88.2,90.6 83.2,90.6 83.2,91.8 75.7,91.8 75.7,89.3 
	74.4,89.3 74.4,83.1 79.4,83.1 79.4,81.9 80.7,81.9 80.7,79.4 82,79.4 82,80.6 83.2,80.6 83.2,84.4 84.5,84.4 84.5,85.6 85.7,85.6 
	85.7,83.1 87,83.1 87,84.4 88.2,84.4 88.2,85.6 "/>
<polygon id="alev-krem" class="st74" points="84.5,86.9 84.5,85.6 83.2,85.6 82,85.6 82,84.4 82,83.1 80.7,83.1 80.7,84.4 
	79.4,84.4 79.4,85.6 78.2,85.6 78.2,86.9 78.2,88.1 78.2,89.3 79.4,89.3 80.7,89.3 80.7,90.6 82,90.6 83.2,90.6 83.2,89.3 
	84.5,89.3 85.7,89.3 85.7,88.1 85.7,86.9 "/>
<polygon class="st75" points="93.4,93 93.4,96.5 88.6,96.5 88.6,99.9 86.1,99.9 86.1,103.4 76.4,103.4 76.4,99.9 74,99.9 74,96.5 
	71.6,96.5 71.6,93 "/>
</svg>
