<?xml version="1.0" encoding="utf-8"?>
<!-- Generator: Adobe Illustrator 24.1.1, SVG Export Plug-In . SVG Version: 6.00 Build 0)  -->
<svg version="1.1" id="Layer_1" xmlns="http://www.w3.org/2000/svg" xmlns:xlink="http://www.w3.org/1999/xlink" x="0px" y="0px"
	 viewBox="0 0 3061.42 3061.42" style="enable-background:new 0 0 3061.42 3061.42;" xml:space="preserve">
<style type="text/css">
	.st0{fill:#F4BCA8;}
	.st1{fill:#DFA189;}
	.st2{fill:#445D71;}
	.st3{fill:#C8C1B9;}
	.st4{fill:#E6E1DD;}
	.st5{fill:#E4DBD6;stroke:#5C5A5A;stroke-width:2;stroke-miterlimit:10;}
	.st6{fill:#CAC7B8;}
	.st7{fill:#676B6E;}
	.st8{fill:#415568;}
	.st9{fill:#334C5B;}
	.st10{fill:#283949;}
	.st11{fill:#94BF1F;}
	.st12{fill:none;stroke:#889E9C;stroke-width:9;stroke-miterlimit:10;}
	.st13{fill:none;stroke:#5D5952;stroke-width:5;stroke-miterlimit:10;}
	.st14{fill:#3B4E20;}
</style>
<rect class="st0" width="3061.42" height="3061.42"/>
<g>
	<path class="st1" d="M1976.93,433.23c0,0,56.63-24.05,100.19,130.91s91.48,1429.06,0,2046.88c0,0-4.36,259.29-187.31,272.25
		c-182.95,12.96-601.13,21.6-622.91,0c-21.78-21.6-74.05-32.31-108.9-106.87C1123.16,2701.85,1976.93,433.23,1976.93,433.23z"/>
	<g>
		<path class="st2" d="M1157.44,2783.19c0,0-78.9,8.24-107.96-185.31c-29.07-193.54-124.57-1593.63-29.07-2075.42
			c0,0,12.46-226.48,182.71-238.84h320.78l-9.39,2499.62C1514.51,2783.24,1192.87,2796.73,1157.44,2783.19z"/>
		<path class="st2" d="M1867.55,2783.19c0,0,78.9,8.24,107.96-185.31c29.07-193.54,124.57-1593.63,29.07-2075.42
			c0,0-12.46-226.48-182.71-238.84h-320.78l9.39,2499.62C1510.48,2783.24,1832.12,2796.73,1867.55,2783.19z"/>
		<path class="st3" d="M1244.12,303.18c154.26-2.9,515.43,0,515.43,0s160.39-16.99,188.42,121.99s112.12,671.73,54.5,1002.19
			s-207.11,504.96-518.54,514.22s-431.34-435.47-440.68-512.68c0,0-60.73-551.28,60.73-1033.08
			C1103.98,395.84,1108.63,305.73,1244.12,303.18z"/>
		<path class="st4" d="M1320.59,1616.34c37.56-14.48,176.12-56.3,412.82,1.02c7.72,1.87,11.61,10.46,7.82,17.39
			c-14.98,27.46-64.88,85.51-218.21,82.36c-156.18-3.21-198.23-59.91-209.18-84.8C1311.09,1626.06,1314.18,1618.81,1320.59,1616.34z
			"/>
		<path class="st5" d="M1140.15,1699.8l48.43-35.27c0,0,2.08-6.56,45.68,17.64c43.6,24.2,116.27,59.2,116.27,59.2
			s8.3,18.53-14.53,51.47c-22.84,32.94-54.22,84.84-80.12,59.19C1229.97,1826.37,1151.51,1721.16,1140.15,1699.8z"/>
		<path class="st5" d="M1607.02,1927.67l-13.57-134.84c0,0-16.61-28.05,31.14-31.53c47.75-3.48,172.33-45.97,197.24-96.79
			c0,0,33.22-3.46,51.91,10.95c18.69,14.41,33.74,26.77,33.74,26.77S1840.67,1877.2,1607.02,1927.67z"/>
		<path class="st6" d="M1413.85,2057.49c-10.07-17.08-2.82-38.95,15.48-46.85c20.84-9,53.16-19.26,90.49-18.08
			c47.64,1.5,72.68,9.57,92.42,19.42c14.41,7.19,21.81,23.54,17.5,38.95c-7.58,27.08-27.98,57.71-109.91,56.93
			C1454.4,2107.23,1426.2,2078.45,1413.85,2057.49z"/>
		<path class="st6" d="M1413.55,2237.69c-10.07-17.08-2.82-38.95,15.48-46.85c20.84-9,53.16-19.26,90.49-18.08
			c47.64,1.5,72.68,9.57,92.42,19.42c14.41,7.19,21.82,23.54,17.5,38.95c-7.58,27.08-27.98,57.71-109.91,56.93
			C1454.09,2287.43,1425.9,2258.65,1413.55,2237.69z"/>
		<path class="st6" d="M1413.55,2424.16c-10.07-17.08-2.82-38.95,15.48-46.85c20.84-9,53.16-19.26,90.49-18.08
			c47.64,1.5,72.68,9.57,92.42,19.42c14.41,7.19,21.82,23.54,17.5,38.95c-7.58,27.08-27.98,57.71-109.91,56.93
			C1454.09,2473.9,1425.9,2445.12,1413.55,2424.16z"/>
		<path class="st6" d="M1413.85,2610.63c-10.07-17.08-2.82-38.95,15.48-46.85c20.84-9,53.16-19.26,90.49-18.08
			c47.64,1.5,72.68,9.57,92.42,19.42c14.41,7.19,21.81,23.54,17.5,38.95c-7.58,27.08-27.98,57.71-109.91,56.93
			C1454.4,2660.37,1426.2,2631.59,1413.85,2610.63z"/>
		<path class="st6" d="M1749.95,2054.52c-12.97-13.24-12.28-34.53,1.32-47.13c25.54-23.66,74.72-65.18,105.87-65.65
			c43.6-0.66,99.66,3.46,78.9,65.23s-130.8,61.77-153.64,61.77C1770.23,2068.73,1758.71,2063.47,1749.95,2054.52z"/>
		<path class="st6" d="M1740.22,2237.17c-12.97-13.24-12.28-34.53,1.32-47.13c25.54-23.66,74.72-65.18,105.87-65.65
			c43.6-0.66,99.66,3.46,78.9,65.23s-130.8,61.77-153.64,61.77C1760.5,2251.39,1748.98,2246.13,1740.22,2237.17z"/>
		<path class="st6" d="M1723.88,2419.83c-12.97-13.24-12.28-34.53,1.32-47.13c25.54-23.66,74.72-65.18,105.87-65.65
			c43.6-0.66,99.66,3.46,78.9,65.23s-130.8,61.77-153.64,61.77C1744.16,2434.05,1732.64,2428.78,1723.88,2419.83z"/>
		<path class="st6" d="M1712.74,2602.48c-12.97-13.24-12.28-34.53,1.32-47.13c25.53-23.66,74.72-65.18,105.87-65.65
			c43.6-0.66,99.66,3.46,78.9,65.23s-130.8,61.77-153.64,61.77C1733.03,2616.7,1721.51,2611.44,1712.74,2602.48z"/>
		<path class="st6" d="M1293.44,2054.52c12.97-13.24,12.28-34.53-1.32-47.13c-25.54-23.66-74.72-65.18-105.87-65.65
			c-43.6-0.66-99.66,3.46-78.9,65.23s130.8,61.77,153.64,61.77C1273.15,2068.73,1284.67,2063.47,1293.44,2054.52z"/>
		<path class="st6" d="M1303.17,2237.17c12.97-13.24,12.28-34.53-1.32-47.13c-25.53-23.66-74.72-65.18-105.87-65.65
			c-43.6-0.66-99.66,3.46-78.9,65.23s130.8,61.77,153.64,61.77C1282.88,2251.39,1294.4,2246.13,1303.17,2237.17z"/>
		<path class="st6" d="M1319.51,2419.83c12.97-13.24,12.28-34.53-1.32-47.13c-25.54-23.66-74.72-65.18-105.87-65.65
			c-43.6-0.66-99.66,3.46-78.9,65.23s130.8,61.77,153.64,61.77C1299.22,2434.05,1310.74,2428.78,1319.51,2419.83z"/>
		<path class="st6" d="M1330.64,2602.48c12.97-13.24,12.28-34.53-1.32-47.13c-25.54-23.66-74.72-65.18-105.87-65.65
			c-43.6-0.66-99.66,3.46-78.9,65.23s130.8,61.77,153.64,61.77C1310.35,2616.7,1321.87,2611.44,1330.64,2602.48z"/>
		<polygon class="st7" points="1653.66,1795.91 1653.66,1846.37 1703.42,1846.37 1666.12,1831.95 		"/>
		<polygon class="st7" points="1802.59,1706.94 1853.09,1700.87 1859.08,1749.86 1840.16,1714.87 		"/>
		<path class="st8" d="M1132.37,453.32c0,0,9.73-104.13,133.84-120.39c124.11-16.26,356.18-21.05,493.28-0.69
			s141.94,121.08,141.94,121.08s205.94,1112.19-129.71,1189.82c0,0-78.28-58.7-257-55.39s-246.79,55.39-246.79,55.39
			S934.97,1619.55,1132.37,453.32z"/>
		<path class="st9" d="M1656.53,825.13h-277.73c-9.88,0-17.89-8.01-17.89-17.89v-21.86c0-9.88,8.01-17.89,17.89-17.89h277.73
			c9.88,0,17.89,8.01,17.89,17.89v21.86C1674.43,817.12,1666.42,825.13,1656.53,825.13z"/>
		<ellipse class="st10" cx="1523.9" cy="453.32" rx="28.03" ry="14.41"/>
		<ellipse class="st10" cx="1525.14" cy="525.23" rx="28.03" ry="14.41"/>
		<ellipse class="st10" cx="1525.14" cy="584.23" rx="28.03" ry="14.41"/>
		<ellipse class="st10" cx="1523.9" cy="653.56" rx="28.03" ry="14.41"/>
		<ellipse class="st10" cx="1523.9" cy="386.57" rx="28.03" ry="14.41"/>
		<path class="st11" d="M1134.6,1043.38c0,0-20.76-86.48,64.36-88.53s315.75,0,315.75,0l-0.41,533.25h-327.79
			c0,0-24.92-6.16-31.14-82.34C1149.14,1329.57,1134.6,1043.38,1134.6,1043.38z"/>
		<path class="st11" d="M1905.19,1043.38c0,0,21.34-86.48-66.15-88.53c-87.49-2.06-324.53,0-324.53,0l0.43,533.25h336.91
			c0,0,25.61-6.16,32.01-82.34C1890.25,1329.57,1905.19,1043.38,1905.19,1043.38z"/>
		<path class="st12" d="M1431.51,1644.21c0,0,89.05,37.86,186.86,0"/>
		<path class="st13" d="M1240.03,1712.54l-11.13,12.83c0,0-12.92,40.7,5.57,46.88s18.49,6.18,18.49,6.18"/>
		<path class="st2" d="M1203.12,283.62c0,0,282.43-38.09,618.75,0H1203.12z"/>
		<path class="st2" d="M1205.34,2782.08c0,0,294.9,32.13,646.09,0H1205.34z"/>
		<g>
			<rect x="1186.08" y="994.06" class="st14" width="8.46" height="8.39"/>
			<rect x="1195.65" y="994.06" class="st14" width="8.46" height="8.39"/>
			<rect x="1205.01" y="994.06" class="st14" width="8.46" height="8.39"/>
			<rect x="1220.37" y="1006.59" class="st14" width="8.46" height="8.39"/>
			<rect x="1230.84" y="996.26" class="st14" width="8.46" height="8.39"/>
			<rect x="1230.62" y="1006.59" class="st14" width="8.46" height="8.39"/>
			<rect x="1230.62" y="1016.91" class="st14" width="8.46" height="8.39"/>
			<rect x="1230.62" y="1027.24" class="st14" width="8.46" height="8.39"/>
			<rect x="1230.62" y="1037.56" class="st14" width="8.46" height="8.39"/>
			<rect x="1793.05" y="1004.66" class="st14" width="8.46" height="8.39"/>
			<rect x="1803.51" y="994.33" class="st14" width="8.46" height="8.39"/>
			<rect x="1840.87" y="994.33" class="st14" width="8.46" height="8.39"/>
			<rect x="1850.61" y="994.33" class="st14" width="8.46" height="8.39"/>
			<rect x="1831.13" y="994.33" class="st14" width="8.46" height="8.39"/>
			<rect x="1831.13" y="1005.59" class="st14" width="8.46" height="8.39"/>
			<rect x="1831.13" y="1015.7" class="st14" width="8.46" height="8.39"/>
			<rect x="1831.13" y="1034.91" class="st14" width="8.46" height="8.39"/>
			<rect x="1840.87" y="1034.91" class="st14" width="8.46" height="8.39"/>
			<rect x="1850.61" y="1034.91" class="st14" width="8.46" height="8.39"/>
			<rect x="1850.61" y="1025.3" class="st14" width="8.46" height="8.39"/>
			<rect x="1850.61" y="1015.7" class="st14" width="8.46" height="8.39"/>
			<rect x="1841.4" y="1015.7" class="st14" width="8.46" height="8.39"/>
			<rect x="1831.13" y="1025.3" class="st14" width="8.46" height="8.39"/>
			<rect x="1803.29" y="1004.66" class="st14" width="8.46" height="8.39"/>
			<rect x="1803.29" y="1014.98" class="st14" width="8.46" height="8.39"/>
			<rect x="1803.29" y="1025.3" class="st14" width="8.46" height="8.39"/>
			<rect x="1803.29" y="1035.63" class="st14" width="8.46" height="8.39"/>
			<rect x="1205.01" y="1004.77" class="st14" width="8.46" height="8.39"/>
			<rect x="1205.01" y="1014.98" class="st14" width="8.46" height="8.39"/>
			<rect x="1205.01" y="1024.64" class="st14" width="8.46" height="8.39"/>
			<rect x="1205.01" y="1035.35" class="st14" width="8.46" height="8.39"/>
			<rect x="1195.65" y="1035.35" class="st14" width="8.46" height="8.39"/>
			<rect x="1186.08" y="1035.35" class="st14" width="8.46" height="8.39"/>
			<rect x="1186.08" y="1025.19" class="st14" width="8.46" height="8.39"/>
			<rect x="1186.08" y="1014.98" class="st14" width="8.46" height="8.39"/>
			<rect x="1186.08" y="1004.77" class="st14" width="8.46" height="8.39"/>
			<rect x="1253.33" y="994.33" class="st14" width="8.46" height="8.39"/>
			<rect x="1262.91" y="994.33" class="st14" width="8.46" height="8.39"/>
			<rect x="1272.26" y="994.33" class="st14" width="8.46" height="8.39"/>
			<rect x="1272.26" y="1005.04" class="st14" width="8.46" height="8.39"/>
			<rect x="1272.26" y="1015.26" class="st14" width="8.46" height="8.39"/>
			<rect x="1272.26" y="1024.92" class="st14" width="8.46" height="8.39"/>
			<rect x="1272.26" y="1035.63" class="st14" width="8.46" height="8.39"/>
			<rect x="1262.91" y="1035.63" class="st14" width="8.46" height="8.39"/>
			<rect x="1253.33" y="1035.63" class="st14" width="8.46" height="8.39"/>
			<rect x="1253.33" y="1025.47" class="st14" width="8.46" height="8.39"/>
			<rect x="1253.33" y="1015.26" class="st14" width="8.46" height="8.39"/>
			<rect x="1253.33" y="1005.04" class="st14" width="8.46" height="8.39"/>
			<rect x="1288.52" y="994.33" class="st14" width="8.46" height="8.39"/>
			<rect x="1298.09" y="994.33" class="st14" width="8.46" height="8.39"/>
			<rect x="1307.45" y="994.33" class="st14" width="8.46" height="8.39"/>
			<rect x="1711.54" y="1010.78" class="st14" width="8.46" height="8.39"/>
			<rect x="1711.54" y="1022.16" class="st14" width="8.46" height="8.39"/>
			<rect x="1721.56" y="1033.97" class="st14" width="8.46" height="8.39"/>
			<rect x="1732.92" y="1033.97" class="st14" width="8.46" height="8.39"/>
			<rect x="1742.94" y="1033.97" class="st14" width="8.46" height="8.39"/>
			<rect x="1742.94" y="1023.87" class="st14" width="8.46" height="8.39"/>
			<rect x="1752.96" y="1023.87" class="st14" width="8.46" height="8.39"/>
			<rect x="1752.96" y="1033.97" class="st14" width="8.46" height="8.39"/>
			<rect x="1762.76" y="1023.87" class="st14" width="8.46" height="8.39"/>
			<rect x="1762.76" y="1033.97" class="st14" width="8.46" height="8.39"/>
			<rect x="1772.33" y="1033.97" class="st14" width="8.46" height="8.39"/>
			<rect x="1762.76" y="1013.77" class="st14" width="8.46" height="8.39"/>
			<rect x="1747.17" y="1013.77" class="st14" width="8.46" height="8.39"/>
			<rect x="1747.17" y="1003.66" class="st14" width="8.46" height="8.39"/>
			<rect x="1757.19" y="1003.66" class="st14" width="8.46" height="8.39"/>
			<rect x="1737.15" y="1013.77" class="st14" width="8.46" height="8.39"/>
			<rect x="1732.92" y="1023.87" class="st14" width="8.46" height="8.39"/>
			<g>
				<rect x="1512.36" y="1218.12" class="st14" width="3.75" height="3.72"/>
				<rect x="1512.36" y="1223.16" class="st14" width="3.75" height="3.72"/>
				<rect x="1516.81" y="1228.4" class="st14" width="3.75" height="3.72"/>
				<rect x="1521.84" y="1228.4" class="st14" width="3.75" height="3.72"/>
				<rect x="1526.29" y="1228.4" class="st14" width="3.75" height="3.72"/>
				<rect x="1526.29" y="1223.92" class="st14" width="3.75" height="3.72"/>
				<rect x="1530.73" y="1223.92" class="st14" width="3.75" height="3.72"/>
				<rect x="1530.73" y="1228.4" class="st14" width="3.75" height="3.72"/>
				<rect x="1535.08" y="1223.92" class="st14" width="3.75" height="3.72"/>
				<rect x="1535.08" y="1228.4" class="st14" width="3.75" height="3.72"/>
				<rect x="1539.33" y="1228.4" class="st14" width="3.75" height="3.72"/>
				<rect x="1535.08" y="1219.44" class="st14" width="3.75" height="3.72"/>
				<rect x="1528.17" y="1219.44" class="st14" width="3.75" height="3.72"/>
				<rect x="1528.17" y="1214.96" class="st14" width="3.75" height="3.72"/>
				<rect x="1532.61" y="1214.96" class="st14" width="3.75" height="3.72"/>
				<rect x="1523.72" y="1219.44" class="st14" width="3.75" height="3.72"/>
				<rect x="1521.84" y="1223.92" class="st14" width="3.75" height="3.72"/>
			</g>
			<rect x="1307.45" y="1005.04" class="st14" width="8.46" height="8.39"/>
			<rect x="1307.45" y="1015.26" class="st14" width="8.46" height="8.39"/>
			<rect x="1297.98" y="1015.26" class="st14" width="8.46" height="8.39"/>
			<rect x="1307.45" y="1024.92" class="st14" width="8.46" height="8.39"/>
			<rect x="1307.45" y="1035.63" class="st14" width="8.46" height="8.39"/>
			<rect x="1298.09" y="1035.63" class="st14" width="8.46" height="8.39"/>
			<rect x="1288.52" y="1035.63" class="st14" width="8.46" height="8.39"/>
			<rect x="1288.52" y="1025.47" class="st14" width="8.46" height="8.39"/>
			<rect x="1288.52" y="1015.26" class="st14" width="8.46" height="8.39"/>
			<rect x="1288.52" y="1005.04" class="st14" width="8.46" height="8.39"/>
			<rect x="1181.18" y="1051.92" class="st14" width="677.9" height="8.94"/>
			<g>
				<path class="st14" d="M1859.08,1079.06v385.28h-677.9v-385.28H1859.08 M1865.08,1073.06h-6h-677.9h-6v6v385.28v6h6h677.9h6v-6
					v-385.28V1073.06L1865.08,1073.06z"/>
			</g>
			<polygon class="st14" points="1488.4,1165.66 1479.98,1164.86 1480.79,1156.5 1489.21,1157.31 			"/>
			<polygon class="st14" points="1478.04,1164.67 1469.62,1163.86 1470.43,1155.51 1478.86,1156.32 			"/>
			<polygon class="st14" points="1467.25,1163.64 1458.83,1162.83 1459.64,1154.48 1468.06,1155.28 			"/>
			<polygon class="st14" points="1455.96,1162.18 1447.53,1161.38 1448.35,1153.02 1456.77,1153.83 			"/>
			<polygon class="st14" points="1444.66,1161.47 1436.24,1160.67 1437.05,1152.31 1445.47,1153.12 			"/>
			<polygon class="st14" points="1433.87,1160.44 1425.44,1159.63 1426.26,1151.28 1434.68,1152.09 			"/>
			<polygon class="st14" points="1422.86,1159.02 1414.44,1158.21 1415.25,1149.86 1423.68,1150.66 			"/>
			<polygon class="st14" points="1412.51,1158.02 1404.09,1157.22 1404.9,1148.86 1413.32,1149.67 			"/>
			<polygon class="st14" points="1401.72,1156.99 1393.29,1156.18 1394.11,1147.83 1402.53,1148.64 			"/>
			<polygon class="st14" points="1390.42,1155.54 1382,1154.73 1382.81,1146.38 1391.23,1147.18 			"/>
			<polygon class="st14" points="1379.12,1154.83 1370.7,1154.02 1371.51,1145.67 1379.94,1146.47 			"/>
			<polygon class="st14" points="1368.33,1153.79 1359.91,1152.99 1360.72,1144.63 1369.14,1145.44 			"/>
			<polygon class="st14" points="1357.68,1152.4 1349.26,1151.59 1350.07,1143.24 1358.49,1144.05 			"/>
			<polygon class="st14" points="1346.89,1151.37 1338.46,1150.56 1339.28,1142.21 1347.7,1143.01 			"/>
			<polygon class="st14" points="1419.65,1257.97 1415.64,1250.58 1423.1,1246.61 1427.11,1254 			"/>
			<polygon class="st14" points="1410.66,1263.24 1406.66,1255.85 1414.11,1251.88 1418.12,1259.27 			"/>
			<polygon class="st14" points="1437.85,1248.03 1433.85,1240.64 1441.3,1236.66 1445.31,1244.05 			"/>
			<polygon class="st14" points="1446.95,1243.18 1442.94,1235.79 1450.39,1231.81 1454.4,1239.2 			"/>
			<polygon class="st14" points="1455.99,1237.5 1451.99,1230.1 1459.44,1226.13 1463.45,1233.52 			"/>
			<polygon class="st14" points="1410.42,1270.37 1413.09,1262.41 1421.12,1265.06 1418.44,1273.03 			"/>
			<polygon class="st14" points="1420.21,1273.61 1422.89,1265.65 1430.92,1268.31 1428.24,1276.27 			"/>
			<polygon class="st14" points="1430.59,1276.24 1433.26,1268.28 1441.29,1270.94 1438.61,1278.9 			"/>
			<polygon class="st14" points="1440.75,1280 1443.43,1272.04 1451.45,1274.7 1448.78,1282.66 			"/>
			<polygon class="st14" points="1450.55,1283.24 1453.22,1275.28 1461.25,1277.94 1458.57,1285.9 			"/>
			
				<rect x="1462.08" y="1278.99" transform="matrix(-1.836970e-16 1 -1 -1.836970e-16 2749.4963 -183.0468)" class="st14" width="8.39" height="8.46"/>
			
				<rect x="1471.93" y="1278.99" transform="matrix(-1.836970e-16 1 -1 -1.836970e-16 2759.3508 -192.9013)" class="st14" width="8.39" height="8.46"/>
			
				<rect x="1482.39" y="1278.99" transform="matrix(-1.836970e-16 1 -1 -1.836970e-16 2769.8062 -203.3566)" class="st14" width="8.39" height="8.46"/>
			
				<rect x="1492.72" y="1278.99" transform="matrix(-1.836970e-16 1 -1 -1.836970e-16 2780.1409 -213.6914)" class="st14" width="8.39" height="8.46"/>
			<polygon class="st14" points="1497.79,1300.09 1492.18,1293.81 1498.51,1288.24 1504.12,1294.53 			"/>
			<polygon class="st14" points="1490.45,1307.16 1484.84,1300.88 1491.18,1295.31 1496.79,1301.59 			"/>
			<polygon class="st14" points="1483.01,1313.38 1477.4,1307.1 1483.74,1301.53 1489.35,1307.82 			"/>
			<polygon class="st14" points="1475.67,1320.45 1470.06,1314.16 1476.4,1308.6 1482.01,1314.88 			"/>
			<polygon class="st14" points="1462.51,1322.72 1467.87,1316.22 1474.42,1321.54 1469.07,1328.03 			"/>
			<polygon class="st14" points="1470.08,1328.86 1475.44,1322.36 1481.99,1327.67 1476.64,1334.17 			"/>
			<polygon class="st14" points="1477.48,1335.17 1482.66,1328.53 1489.36,1333.66 1484.18,1340.3 			"/>
			<polygon class="st14" points="1485.22,1341.1 1490.39,1334.46 1497.09,1339.59 1491.91,1346.23 			"/>
			<polygon class="st14" points="1492.95,1347.02 1498.12,1340.38 1504.82,1345.52 1499.64,1352.16 			"/>
			<polygon class="st14" points="1500.68,1352.95 1505.86,1346.31 1512.55,1351.44 1507.38,1358.08 			"/>
			<polygon class="st14" points="1497.79,1300.09 1492.18,1293.81 1498.51,1288.24 1504.12,1294.53 			"/>
			<polygon class="st14" points="1490.45,1307.16 1484.84,1300.88 1491.18,1295.31 1496.79,1301.59 			"/>
			<polygon class="st14" points="1483.01,1313.38 1477.4,1307.1 1483.74,1301.53 1489.35,1307.82 			"/>
			<polygon class="st14" points="1475.67,1320.45 1470.06,1314.16 1476.4,1308.6 1482.01,1314.88 			"/>
			<polygon class="st14" points="1462.51,1322.72 1467.87,1316.22 1474.42,1321.54 1469.07,1328.03 			"/>
			<polygon class="st14" points="1470.08,1328.86 1475.44,1322.36 1481.99,1327.67 1476.64,1334.17 			"/>
			<polygon class="st14" points="1477.48,1335.17 1482.66,1328.53 1489.36,1333.66 1484.18,1340.3 			"/>
			
				<rect x="1481.39" y="1342.97" transform="matrix(-1.836970e-16 1 -1 -1.836970e-16 2830.2566 -138.3918)" class="st14" width="5.88" height="5.93"/>
			
				<rect x="1481.39" y="1349.87" transform="matrix(-1.836970e-16 1 -1 -1.836970e-16 2837.158 -131.4904)" class="st14" width="5.88" height="5.93"/>
			
				<rect x="1481.39" y="1357.27" transform="matrix(-1.836970e-16 1 -1 -1.836970e-16 2844.5562 -124.092)" class="st14" width="5.88" height="5.93"/>
			<polygon class="st14" points="1536.08,1369.86 1531.05,1366.75 1534.18,1361.76 1539.21,1364.87 			"/>
			<polygon class="st14" points="1541.88,1373.44 1536.84,1370.33 1539.98,1365.34 1545.01,1368.45 			"/>
			<rect x="1544.4" y="1357.99" class="st14" width="5.93" height="5.88"/>
			<polygon class="st14" points="1556.18,1360.47 1551.05,1357.53 1554.01,1352.44 1559.14,1355.38 			"/>
			<polygon class="st14" points="1562.94,1364.33 1557.8,1361.39 1560.77,1356.3 1565.9,1359.24 			"/>
			<polygon class="st14" points="1569.45,1367.58 1564.31,1364.64 1567.28,1359.55 1572.41,1362.49 			"/>
			<polygon class="st14" points="1570.39,1350.21 1564.48,1349.75 1564.94,1343.89 1570.85,1344.35 			"/>
			<rect x="1564.7" y="1352.15" class="st14" width="5.93" height="5.88"/>
			<rect x="1544.4" y="1364.69" class="st14" width="5.93" height="5.88"/>
			<rect x="1544.4" y="1371.39" class="st14" width="5.93" height="5.88"/>
			
				<rect x="1501.65" y="1358.35" transform="matrix(-1.836970e-16 1 -1 -1.836970e-16 2865.9038 -143.2785)" class="st14" width="5.88" height="5.93"/>
			
				<rect x="1501.65" y="1365.25" transform="matrix(-1.836970e-16 1 -1 -1.836970e-16 2872.8052 -136.3771)" class="st14" width="5.88" height="5.93"/>
			
				<rect x="1501.65" y="1372.15" transform="matrix(-1.836970e-16 1 -1 -1.836970e-16 2879.7065 -129.4757)" class="st14" width="5.88" height="5.93"/>
			<polygon class="st14" points="1511.26,1372.74 1507.92,1367.88 1512.82,1364.58 1516.16,1369.43 			"/>
			<polygon class="st14" points="1517.99,1368.66 1514.65,1363.8 1519.55,1360.49 1522.88,1365.35 			"/>
			<polygon class="st14" points="1490.65,1363.56 1487.69,1358.47 1492.82,1355.53 1495.79,1360.62 			"/>
			<polygon class="st14" points="1496.74,1360.08 1493.77,1354.99 1498.9,1352.05 1501.87,1357.14 			"/>
			<polygon class="st14" points="1492.95,1347.02 1498.12,1340.38 1504.82,1345.52 1499.64,1352.16 			"/>
			<polygon class="st14" points="1500.68,1352.95 1505.86,1346.31 1512.55,1351.44 1507.38,1358.08 			"/>
			<polygon class="st14" points="1556.19,1299.18 1561.8,1292.89 1555.47,1287.33 1549.86,1293.61 			"/>
			<polygon class="st14" points="1563.53,1306.24 1569.14,1299.96 1562.8,1294.4 1557.19,1300.68 			"/>
			<polygon class="st14" points="1570.97,1312.46 1576.58,1306.18 1570.24,1300.62 1564.63,1306.9 			"/>
			<polygon class="st14" points="1578.31,1319.53 1583.92,1313.25 1577.58,1307.69 1571.97,1313.97 			"/>
			<polygon class="st14" points="1591.47,1321.81 1586.11,1315.31 1579.56,1320.62 1584.91,1327.12 			"/>
			<polygon class="st14" points="1583.9,1327.94 1578.54,1321.44 1571.99,1326.75 1577.34,1333.25 			"/>
			<polygon class="st14" points="1576.49,1334.26 1571.32,1327.62 1564.62,1332.75 1569.8,1339.39 			"/>
			<polygon class="st14" points="1568.76,1340.18 1563.59,1333.54 1556.89,1338.68 1562.07,1345.32 			"/>
			<polygon class="st14" points="1561.03,1346.11 1555.86,1339.47 1549.16,1344.6 1554.34,1351.24 			"/>
			<polygon class="st14" points="1553.3,1352.04 1548.12,1345.4 1541.43,1350.53 1546.6,1357.17 			"/>
			<polygon class="st14" points="1544.84,1358.52 1539.66,1351.88 1532.97,1357.02 1538.14,1363.66 			"/>
			<polygon class="st14" points="1508.35,1358.83 1513.53,1352.19 1520.22,1357.33 1515.05,1363.97 			"/>
			
				<rect x="1503.87" y="1278.99" transform="matrix(-1.836970e-16 1 -1 -1.836970e-16 2791.292 -224.8426)" class="st14" width="8.39" height="8.46"/>
			<polygon class="st14" points="1506.44,1298.06 1504.88,1289.82 1513.19,1288.26 1514.76,1296.51 			"/>
			<polygon class="st14" points="1508.84,1308.26 1507.27,1300.01 1515.59,1298.46 1517.16,1306.7 			"/>
			<polygon class="st14" points="1510.92,1319.17 1509.35,1310.93 1517.66,1309.37 1519.23,1317.62 			"/>
			<polygon class="st14" points="1513.31,1329.37 1511.74,1321.12 1520.06,1319.57 1521.63,1327.81 			"/>
			<polygon class="st14" points="1515.31,1339.59 1513.74,1331.35 1522.06,1329.79 1523.63,1338.04 			"/>
			<polygon class="st14" points="1517.71,1349.79 1516.14,1341.54 1524.45,1339.99 1526.02,1348.23 			"/>
			<polygon class="st14" points="1519.65,1359.99 1518.08,1351.74 1526.39,1350.18 1527.96,1358.43 			"/>
			
				<rect x="1523.25" y="1361.16" transform="matrix(-1.836970e-16 1 -1 -1.836970e-16 2892.8362 -162.0512)" class="st14" width="8.39" height="8.46"/>
			<polygon class="st14" points="1548.46,1298.17 1550.03,1289.93 1541.71,1288.37 1540.14,1296.62 			"/>
			<polygon class="st14" points="1546.06,1308.37 1547.63,1300.12 1539.31,1298.57 1537.75,1306.82 			"/>
			<polygon class="st14" points="1543.99,1319.28 1545.55,1311.04 1537.24,1309.48 1535.67,1317.73 			"/>
			<polygon class="st14" points="1541.59,1329.48 1543.16,1321.23 1534.84,1319.68 1533.27,1327.92 			"/>
			<polygon class="st14" points="1539.59,1339.7 1541.16,1331.46 1532.84,1329.9 1531.28,1338.15 			"/>
			<polygon class="st14" points="1537.2,1349.9 1538.76,1341.65 1530.45,1340.1 1528.88,1348.34 			"/>
			<polygon class="st14" points="1535.26,1360.1 1536.83,1351.85 1528.51,1350.29 1526.94,1358.54 			"/>
			
				<rect x="1523.25" y="1371.49" transform="matrix(-1.836970e-16 1 -1 -1.836970e-16 2903.1636 -151.7238)" class="st14" width="8.39" height="8.46"/>
			
				<rect x="1523.25" y="1381.87" transform="matrix(-1.836970e-16 1 -1 -1.836970e-16 2913.5432 -141.344)" class="st14" width="8.39" height="8.46"/>
			<g>
				
					<rect x="1746.35" y="1243.06" transform="matrix(-1.836970e-16 1 -1 -1.836970e-16 2997.833 -503.251)" class="st14" width="8.39" height="8.46"/>
				
					<rect x="1746.35" y="1263.6" transform="matrix(-1.836970e-16 1 -1 -1.836970e-16 3018.3716 -482.7124)" class="st14" width="8.39" height="8.46"/>
				
					<rect x="1755.39" y="1253.22" transform="matrix(-1.836970e-16 1 -1 -1.836970e-16 3017.0369 -502.1371)" class="st14" width="8.39" height="8.46"/>
				
					<rect x="1737.88" y="1253.22" transform="matrix(-1.836970e-16 1 -1 -1.836970e-16 2999.5293 -484.6295)" class="st14" width="8.39" height="8.46"/>
			</g>
			<g>
				
					<rect x="1752.06" y="1360.98" transform="matrix(-1 1.940030e-06 -1.940030e-06 -1 3512.5813 2730.3457)" class="st14" width="8.46" height="8.39"/>
				
					<rect x="1752.06" y="1370.81" transform="matrix(-1 1.940031e-06 -1.940031e-06 -1 3512.5813 2750.001)" class="st14" width="8.46" height="8.39"/>
				
					<rect x="1742.37" y="1370.81" transform="matrix(-1 1.940031e-06 -1.940031e-06 -1 3493.2063 2750.001)" class="st14" width="8.46" height="8.39"/>
				
					<rect x="1752.06" y="1380.63" transform="matrix(-1 1.940030e-06 -1.940030e-06 -1 3512.5813 2769.656)" class="st14" width="8.46" height="8.39"/>
				
					<rect x="1742.37" y="1380.63" transform="matrix(-1 1.940031e-06 -1.940031e-06 -1 3493.2065 2769.6563)" class="st14" width="8.46" height="8.39"/>
				
					<rect x="1752.06" y="1390.46" transform="matrix(-1 1.940033e-06 -1.940033e-06 -1 3512.5815 2789.3113)" class="st14" width="8.46" height="8.39"/>
			</g>
			<g>
				
					<rect x="1523.36" y="1391.98" transform="matrix(-1.836970e-16 1 -1 -1.836970e-16 2923.7656 -131.3524)" class="st14" width="8.39" height="8.46"/>
				
					<rect x="1533.26" y="1391.98" transform="matrix(-1.836970e-16 1 -1 -1.836970e-16 2933.658 -141.2449)" class="st14" width="8.39" height="8.46"/>
				
					<rect x="1533.26" y="1401.56" transform="matrix(-1.836970e-16 1 -1 -1.836970e-16 2943.2412 -131.6618)" class="st14" width="8.39" height="8.46"/>
				
					<rect x="1542.92" y="1401.56" transform="matrix(-1.836970e-16 1 -1 -1.836970e-16 2952.9031 -141.3236)" class="st14" width="8.39" height="8.46"/>
			</g>
			<g>
				
					<rect x="1551.38" y="1391.98" transform="matrix(-1.836970e-16 1 -1 -1.836970e-16 2951.7825 -159.3693)" class="st14" width="8.39" height="8.46"/>
				
					<rect x="1561.27" y="1391.98" transform="matrix(-1.836970e-16 1 -1 -1.836970e-16 2961.675 -169.2618)" class="st14" width="8.39" height="8.46"/>
				
					<rect x="1561.27" y="1401.56" transform="matrix(-1.836970e-16 1 -1 -1.836970e-16 2971.2581 -159.6787)" class="st14" width="8.39" height="8.46"/>
				
					<rect x="1570.93" y="1401.56" transform="matrix(-1.836970e-16 1 -1 -1.836970e-16 2980.9199 -169.3406)" class="st14" width="8.39" height="8.46"/>
			</g>
			<g>
				
					<rect x="1579.27" y="1391.53" transform="matrix(-1.836970e-16 1 -1 -1.836970e-16 2979.2271 -187.714)" class="st14" width="8.39" height="8.46"/>
				
					<rect x="1589.17" y="1391.53" transform="matrix(-1.836970e-16 1 -1 -1.836970e-16 2989.1196 -197.6065)" class="st14" width="8.39" height="8.46"/>
				
					<rect x="1589.17" y="1401.11" transform="matrix(-1.836970e-16 1 -1 -1.836970e-16 2998.7026 -188.0234)" class="st14" width="8.39" height="8.46"/>
				
					<rect x="1598.83" y="1401.11" transform="matrix(-1.836970e-16 1 -1 -1.836970e-16 3008.3645 -197.6852)" class="st14" width="8.39" height="8.46"/>
			</g>
			<g>
				
					<rect x="1607.29" y="1390.93" transform="matrix(-1.836970e-16 1 -1 -1.836970e-16 3006.6487 -216.3264)" class="st14" width="8.39" height="8.46"/>
				
					<rect x="1617.18" y="1390.93" transform="matrix(-1.836970e-16 1 -1 -1.836970e-16 3016.541 -226.2189)" class="st14" width="8.39" height="8.46"/>
				
					<rect x="1617.18" y="1400.51" transform="matrix(-1.836970e-16 1 -1 -1.836970e-16 3026.1243 -216.6358)" class="st14" width="8.39" height="8.46"/>
				
					<rect x="1626.85" y="1400.51" transform="matrix(-1.836970e-16 1 -1 -1.836970e-16 3035.7861 -226.2977)" class="st14" width="8.39" height="8.46"/>
			</g>
			<g>
				
					<rect x="1638.92" y="1390.86" transform="matrix(-1.836970e-16 1 -1 -1.836970e-16 3038.2073 -248.0306)" class="st14" width="8.39" height="8.46"/>
				
					<rect x="1648.82" y="1390.86" transform="matrix(-1.836970e-16 1 -1 -1.836970e-16 3048.0999 -257.9231)" class="st14" width="8.39" height="8.46"/>
				
					<rect x="1648.82" y="1400.44" transform="matrix(-1.836970e-16 1 -1 -1.836970e-16 3057.6829 -248.34)" class="st14" width="8.39" height="8.46"/>
				
					<rect x="1658.48" y="1400.44" transform="matrix(-1.836970e-16 1 -1 -1.836970e-16 3067.3447 -258.0019)" class="st14" width="8.39" height="8.46"/>
			</g>
			<g>
				
					<rect x="1666.94" y="1390.86" transform="matrix(-1.836970e-16 1 -1 -1.836970e-16 3066.2244 -276.0476)" class="st14" width="8.39" height="8.46"/>
				
					<rect x="1676.83" y="1390.86" transform="matrix(-1.836970e-16 1 -1 -1.836970e-16 3076.1167 -285.9401)" class="st14" width="8.39" height="8.46"/>
				
					<rect x="1676.83" y="1400.44" transform="matrix(-1.836970e-16 1 -1 -1.836970e-16 3085.7 -276.357)" class="st14" width="8.39" height="8.46"/>
				
					<rect x="1686.49" y="1400.44" transform="matrix(-1.836970e-16 1 -1 -1.836970e-16 3095.3618 -286.0188)" class="st14" width="8.39" height="8.46"/>
			</g>
			<g>
				
					<rect x="1694.83" y="1390.41" transform="matrix(-1.836970e-16 1 -1 -1.836970e-16 3093.6689 -304.3922)" class="st14" width="8.39" height="8.46"/>
				
					<rect x="1704.73" y="1390.41" transform="matrix(-1.836970e-16 1 -1 -1.836970e-16 3103.5615 -314.2847)" class="st14" width="8.39" height="8.46"/>
				
					<rect x="1704.73" y="1399.99" transform="matrix(-1.836970e-16 1 -1 -1.836970e-16 3113.1445 -304.7016)" class="st14" width="8.39" height="8.46"/>
				
					<rect x="1714.39" y="1399.99" transform="matrix(-1.836970e-16 1 -1 -1.836970e-16 3122.8064 -314.3635)" class="st14" width="8.39" height="8.46"/>
			</g>
			<g>
				
					<rect x="1722.85" y="1389.81" transform="matrix(-1.836970e-16 1 -1 -1.836970e-16 3121.0903 -333.0047)" class="st14" width="8.39" height="8.46"/>
				
					<rect x="1732.74" y="1389.81" transform="matrix(-1.836970e-16 1 -1 -1.836970e-16 3130.9829 -342.8972)" class="st14" width="8.39" height="8.46"/>
				
					<rect x="1732.74" y="1399.39" transform="matrix(-1.836970e-16 1 -1 -1.836970e-16 3140.5659 -333.3141)" class="st14" width="8.39" height="8.46"/>
				
					<rect x="1742.41" y="1399.39" transform="matrix(-1.836970e-16 1 -1 -1.836970e-16 3150.2278 -342.9759)" class="st14" width="8.39" height="8.46"/>
			</g>
			<g>
				
					<rect x="1752.03" y="1333.16" transform="matrix(-1 1.442247e-06 -1.442247e-06 -1 3512.5327 2674.7014)" class="st14" width="8.46" height="8.39"/>
				
					<rect x="1752.03" y="1342.97" transform="matrix(-1 1.442247e-06 -1.442247e-06 -1 3512.5327 2694.3218)" class="st14" width="8.46" height="8.39"/>
				
					<rect x="1742.37" y="1342.97" transform="matrix(-1 1.442244e-06 -1.442244e-06 -1 3493.2056 2694.3218)" class="st14" width="8.46" height="8.39"/>
				
					<rect x="1742.37" y="1352.55" transform="matrix(-1 1.442245e-06 -1.442245e-06 -1 3493.2058 2713.4844)" class="st14" width="8.46" height="8.39"/>
			</g>
			<g>
				
					<rect x="1751.43" y="1305.72" transform="matrix(-1 1.442247e-06 -1.442247e-06 -1 3511.3318 2619.8264)" class="st14" width="8.46" height="8.39"/>
				
					<rect x="1751.43" y="1315.53" transform="matrix(-1 1.442248e-06 -1.442248e-06 -1 3511.3318 2639.4468)" class="st14" width="8.46" height="8.39"/>
				
					<rect x="1741.77" y="1315.53" transform="matrix(-1 1.442247e-06 -1.442247e-06 -1 3492.0046 2639.4468)" class="st14" width="8.46" height="8.39"/>
				
					<rect x="1741.77" y="1325.11" transform="matrix(-1 1.442245e-06 -1.442245e-06 -1 3492.0046 2658.6094)" class="st14" width="8.46" height="8.39"/>
			</g>
			
				<rect x="1515.02" y="1278.99" transform="matrix(-1.836970e-16 1 -1 -1.836970e-16 2802.4434 -235.9939)" class="st14" width="8.39" height="8.46"/>
			
				<rect x="1526.08" y="1278.99" transform="matrix(-1.836970e-16 1 -1 -1.836970e-16 2813.499 -247.0495)" class="st14" width="8.39" height="8.46"/>
			
				<rect x="1536.53" y="1278.99" transform="matrix(-1.836970e-16 1 -1 -1.836970e-16 2823.9543 -257.5048)" class="st14" width="8.39" height="8.46"/>
			
				<rect x="1546.87" y="1278.99" transform="matrix(-1.836970e-16 1 -1 -1.836970e-16 2834.2891 -267.8396)" class="st14" width="8.39" height="8.46"/>
			
				<rect x="1558.02" y="1278.99" transform="matrix(-1.836970e-16 1 -1 -1.836970e-16 2845.4402 -278.9908)" class="st14" width="8.39" height="8.46"/>
			
				<rect x="1569.17" y="1278.99" transform="matrix(-1.836970e-16 1 -1 -1.836970e-16 2856.5916 -290.142)" class="st14" width="8.39" height="8.46"/>
			
				<rect x="1579.9" y="1278.99" transform="matrix(-1.836970e-16 1 -1 -1.836970e-16 2867.3196 -300.8701)" class="st14" width="8.39" height="8.46"/>
			<polygon class="st14" points="1592.47,1286.97 1589.88,1278.98 1597.93,1276.41 1600.53,1284.4 			"/>
			<polygon class="st14" points="1601.9,1283.96 1599.31,1275.97 1607.36,1273.4 1609.95,1281.39 			"/>
			<polygon class="st14" points="1611.24,1280.98 1608.65,1272.99 1616.71,1270.42 1619.3,1278.41 			"/>
			<polygon class="st14" points="1620.67,1277.97 1618.08,1269.98 1626.14,1267.41 1628.73,1275.4 			"/>
			<polygon class="st14" points="1630.15,1274.95 1627.56,1266.96 1635.62,1264.39 1638.21,1272.37 			"/>
			<polygon class="st14" points="1639.51,1272.42 1636.91,1264.43 1644.97,1261.86 1647.56,1269.85 			"/>
			
				<rect x="1579.9" y="1268.31" transform="matrix(-1.836970e-16 1 -1 -1.836970e-16 2856.6362 -311.5534)" class="st14" width="8.39" height="8.46"/>
			
				<rect x="1579.9" y="1257.63" transform="matrix(-1.836970e-16 1 -1 -1.836970e-16 2845.9529 -322.2367)" class="st14" width="8.39" height="8.46"/>
			
				<rect x="1579.9" y="1246.94" transform="matrix(-1.836970e-16 1 -1 -1.836970e-16 2835.2695 -332.92)" class="st14" width="8.39" height="8.46"/>
			
				<rect x="1579.9" y="1236.26" transform="matrix(-1.836970e-16 1 -1 -1.836970e-16 2824.5862 -343.6033)" class="st14" width="8.39" height="8.46"/>
			
				<rect x="1579.9" y="1225.58" transform="matrix(-1.836970e-16 1 -1 -1.836970e-16 2813.9028 -354.2867)" class="st14" width="8.39" height="8.46"/>
			
				<rect x="1462.08" y="1269.36" transform="matrix(-1.836970e-16 1 -1 -1.836970e-16 2739.8618 -192.6812)" class="st14" width="8.39" height="8.46"/>
			
				<rect x="1462.08" y="1259.47" transform="matrix(-1.836970e-16 1 -1 -1.836970e-16 2729.9719 -202.571)" class="st14" width="8.39" height="8.46"/>
			
				<rect x="1462.08" y="1249.83" transform="matrix(-1.836970e-16 1 -1 -1.836970e-16 2720.3376 -212.2054)" class="st14" width="8.39" height="8.46"/>
			
				<rect x="1462.08" y="1240.2" transform="matrix(-1.836970e-16 1 -1 -1.836970e-16 2710.7034 -221.8397)" class="st14" width="8.39" height="8.46"/>
			
				<rect x="1462.08" y="1230.57" transform="matrix(-1.836970e-16 1 -1 -1.836970e-16 2701.0691 -231.4741)" class="st14" width="8.39" height="8.46"/>
			
				<rect x="1462.08" y="1220.68" transform="matrix(-1.836970e-16 1 -1 -1.836970e-16 2691.1792 -241.3639)" class="st14" width="8.39" height="8.46"/>
			
				<rect x="1462.08" y="1211.04" transform="matrix(-1.836970e-16 1 -1 -1.836970e-16 2681.5447 -250.9983)" class="st14" width="8.39" height="8.46"/>
			
				<rect x="1463.79" y="1200.92" transform="matrix(-1.836970e-16 1 -1 -1.836970e-16 2673.1406 -262.8415)" class="st14" width="8.39" height="8.46"/>
			
				<rect x="1468.61" y="1190.35" transform="matrix(-1.836970e-16 1 -1 -1.836970e-16 2667.3845 -278.2244)" class="st14" width="8.39" height="8.46"/>
			
				<rect x="1476.63" y="1180.46" transform="matrix(-1.836970e-16 1 -1 -1.836970e-16 2665.5205 -296.1366)" class="st14" width="8.39" height="8.46"/>
			
				<rect x="1486.07" y="1171.17" transform="matrix(-1.836970e-16 1 -1 -1.836970e-16 2665.6755 -314.8647)" class="st14" width="8.39" height="8.46"/>
			<polygon class="st14" points="1489.24,1163.38 1491.65,1155.34 1499.76,1157.72 1497.36,1165.77 			"/>
			<polygon class="st14" points="1492.14,1153.7 1494.54,1145.66 1502.65,1148.04 1500.25,1156.09 			"/>
			<polygon class="st14" points="1494.85,1144.64 1497.25,1136.59 1505.37,1138.97 1502.96,1147.02 			"/>
			
				<rect x="1458.6" y="1102.72" transform="matrix(-1.836970e-16 1 -1 -1.836970e-16 2569.7402 -355.8441)" class="st14" width="8.39" height="8.46"/>
			<polygon class="st14" points="1474.24,1118.68 1477.97,1111.14 1485.57,1114.84 1481.84,1122.38 			"/>
			<polygon class="st14" points="1483.54,1123.2 1487.27,1115.67 1494.86,1119.37 1491.13,1126.9 			"/>
			<polygon class="st14" points="1493.25,1127.93 1496.98,1120.4 1504.58,1124.1 1500.85,1131.63 			"/>
			<polygon class="st14" points="1502.38,1132.47 1506.11,1124.94 1513.71,1128.64 1509.98,1136.17 			"/>
			<polygon class="st14" points="1511.68,1137 1515.41,1129.47 1523.01,1133.17 1519.28,1140.7 			"/>
			<polygon class="st14" points="1521.4,1141.73 1525.13,1134.2 1532.72,1137.9 1528.99,1145.43 			"/>
			<polygon class="st14" points="1531.06,1146.43 1534.79,1138.9 1542.38,1142.6 1538.65,1150.13 			"/>
			<polygon class="st14" points="1540.36,1150.96 1544.08,1143.43 1551.68,1147.13 1547.95,1154.66 			"/>
			<polygon class="st14" points="1550.07,1155.69 1553.8,1148.16 1561.4,1151.86 1557.67,1159.39 			"/>
			
				<rect x="1550.21" y="1159.91" transform="matrix(-0.9983 0.0588 -0.0588 -0.9983 3172.0447 2232.3079)" class="st14" width="5.91" height="5.86"/>
			
				<rect x="1468.61" y="1102.72" transform="matrix(-1.836970e-16 1 -1 -1.836970e-16 2579.7527 -365.8564)" class="st14" width="8.39" height="8.46"/>
			
				<rect x="1478.48" y="1102.72" transform="matrix(-1.836970e-16 1 -1 -1.836970e-16 2589.6206 -375.7243)" class="st14" width="8.39" height="8.46"/>
			
				<rect x="1488.49" y="1102.72" transform="matrix(-1.836970e-16 1 -1 -1.836970e-16 2599.6328 -385.7367)" class="st14" width="8.39" height="8.46"/>
			
				<rect x="1498.3" y="1102.72" transform="matrix(-1.836970e-16 1 -1 -1.836970e-16 2609.4404 -395.5443)" class="st14" width="8.39" height="8.46"/>
			
				<rect x="1508.1" y="1102.72" transform="matrix(-1.836970e-16 1 -1 -1.836970e-16 2619.2468 -405.3506)" class="st14" width="8.39" height="8.46"/>
			
				<rect x="1517.59" y="1106.06" transform="matrix(-1.836970e-16 1 -1 -1.836970e-16 2632.0752 -411.4933)" class="st14" width="8.39" height="8.46"/>
			
				<rect x="1527.72" y="1109.5" transform="matrix(-1.836970e-16 1 -1 -1.836970e-16 2645.6472 -418.1779)" class="st14" width="8.39" height="8.46"/>
			
				<rect x="1534.28" y="1118.94" transform="matrix(-1.836970e-16 1 -1 -1.836970e-16 2661.6553 -415.3038)" class="st14" width="8.39" height="8.46"/>
			
				<rect x="1543.8" y="1126.04" transform="matrix(-1.836970e-16 1 -1 -1.836970e-16 2678.2717 -417.7283)" class="st14" width="8.39" height="8.46"/>
			
				<rect x="1551.1" y="1135.15" transform="matrix(-1.836970e-16 1 -1 -1.836970e-16 2694.6772 -415.914)" class="st14" width="8.39" height="8.46"/>
			
				<rect x="1560.29" y="1140.54" transform="matrix(-1.836970e-16 1 -1 -1.836970e-16 2709.2539 -419.7102)" class="st14" width="8.39" height="8.46"/>
			
				<rect x="1569.48" y="1150.2" transform="matrix(-1.836970e-16 1 -1 -1.836970e-16 2728.1113 -419.2407)" class="st14" width="8.39" height="8.46"/>
			<polygon class="st14" points="1560.22,1169.59 1559.37,1161.24 1567.79,1160.39 1568.64,1168.74 			"/>
			<polygon class="st14" points="1571.38,1168.47 1570.53,1160.12 1578.95,1159.27 1579.8,1167.62 			"/>
			<polygon class="st14" points="1582.71,1167.13 1581.86,1158.79 1590.28,1157.94 1591.13,1166.29 			"/>
			<polygon class="st14" points="1593.4,1165.68 1592.55,1157.33 1600.97,1156.49 1601.82,1164.84 			"/>
			<polygon class="st14" points="1604.61,1165.05 1603.76,1156.7 1612.18,1155.85 1613.03,1164.2 			"/>
			<polygon class="st14" points="1615.95,1163.72 1615.1,1155.37 1623.52,1154.52 1624.37,1162.87 			"/>
			<polygon class="st14" points="1626.64,1162.26 1625.79,1153.91 1634.21,1153.07 1635.06,1161.42 			"/>
			<polygon class="st14" points="1637.39,1160.95 1636.54,1152.6 1644.96,1151.76 1645.81,1160.11 			"/>
			<polygon class="st14" points="1648.08,1159.5 1647.23,1151.15 1655.65,1150.3 1656.5,1158.65 			"/>
			<polygon class="st14" points="1659.29,1158.86 1658.44,1150.52 1666.86,1149.67 1667.71,1158.02 			"/>
			<polygon class="st14" points="1670.63,1157.53 1669.78,1149.18 1678.2,1148.34 1679.05,1156.69 			"/>
			<polygon class="st14" points="1681.32,1156.08 1680.47,1147.73 1688.89,1146.88 1689.74,1155.23 			"/>
			<polygon class="st14" points="1691.78,1155.12 1690.93,1146.77 1699.35,1145.92 1700.2,1154.27 			"/>
			<polygon class="st14" points="1703.12,1153.92 1702.27,1145.57 1710.69,1144.72 1711.54,1153.07 			"/>
			<polygon class="st14" points="1698.7,1161.98 1702.59,1154.52 1710.1,1158.38 1706.22,1165.83 			"/>
			<polygon class="st14" points="1694.12,1170.76 1698.01,1163.31 1705.53,1167.16 1701.64,1174.61 			"/>
			<polygon class="st14" points="1689.16,1180.29 1693.04,1172.83 1700.56,1176.69 1696.68,1184.14 			"/>
			<polygon class="st14" points="1684.58,1189.07 1688.47,1181.62 1695.98,1185.47 1692.1,1192.92 			"/>
			<polygon class="st14" points="1679.62,1198.6 1683.5,1191.14 1691.02,1195 1687.14,1202.45 			"/>
			<polygon class="st14" points="1674.65,1208.13 1678.54,1200.67 1686.06,1204.52 1682.17,1211.98 			"/>
			<polygon class="st14" points="1670.08,1216.91 1673.96,1209.45 1681.48,1213.31 1677.59,1220.76 			"/>
			<polygon class="st14" points="1664.59,1227.44 1668.47,1219.99 1675.99,1223.84 1672.1,1231.3 			"/>
			<polygon class="st14" points="1659.62,1236.97 1663.51,1229.51 1671.03,1233.37 1667.14,1240.82 			"/>
			<polygon class="st14" points="1655.04,1245.75 1658.93,1238.3 1666.45,1242.15 1662.56,1249.61 			"/>
			<polygon class="st14" points="1649.88,1255.67 1653.76,1248.22 1661.28,1252.07 1657.39,1259.52 			"/>
			<polygon class="st14" points="1645.3,1264.46 1649.18,1257 1656.7,1260.85 1652.82,1268.31 			"/>
			<polygon class="st14" points="1636.54,1259.97 1640.42,1252.51 1647.94,1256.36 1644.06,1263.82 			"/>
			<polygon class="st14" points="1628.02,1255.26 1631.9,1247.81 1639.42,1251.66 1635.54,1259.12 			"/>
			<polygon class="st14" points="1619.39,1250.84 1623.28,1243.39 1630.8,1247.24 1626.91,1254.69 			"/>
			<polygon class="st14" points="1610.62,1246.85 1614.51,1239.4 1622.03,1243.25 1618.14,1250.71 			"/>
			<polygon class="st14" points="1602.1,1242.15 1605.99,1234.7 1613.51,1238.55 1609.62,1246 			"/>
			<polygon class="st14" points="1593.48,1237.73 1597.36,1230.28 1604.88,1234.13 1601,1241.58 			"/>
			<polygon class="st14" points="1585.06,1232.34 1588.95,1224.89 1596.47,1228.74 1592.58,1236.19 			"/>
			
				<rect x="1496.95" y="1166.98" transform="matrix(-1.836970e-16 1 -1 -1.836970e-16 2672.3567 -329.9381)" class="st14" width="8.39" height="8.46"/>
			
				<rect x="1508.1" y="1163.84" transform="matrix(-1.836970e-16 1 -1 -1.836970e-16 2680.3655 -344.232)" class="st14" width="8.39" height="8.46"/>
			
				<rect x="1519.25" y="1162.78" transform="matrix(-1.836970e-16 1 -1 -1.836970e-16 2690.4631 -356.4366)" class="st14" width="8.39" height="8.46"/>
			
				<rect x="1530.05" y="1162.78" transform="matrix(-1.836970e-16 1 -1 -1.836970e-16 2701.2615 -367.235)" class="st14" width="8.39" height="8.46"/>
			
				<rect x="1540.76" y="1163.84" transform="matrix(-1.836970e-16 1 -1 -1.836970e-16 2713.0276 -376.8941)" class="st14" width="8.39" height="8.46"/>
			
				<rect x="1551.1" y="1168.03" transform="matrix(-1.836970e-16 1 -1 -1.836970e-16 2727.5583 -383.0329)" class="st14" width="8.39" height="8.46"/>
			
				<rect x="1562.25" y="1173.88" transform="matrix(-1.836970e-16 1 -1 -1.836970e-16 2744.562 -388.3318)" class="st14" width="8.39" height="8.46"/>
			
				<rect x="1572.05" y="1182.84" transform="matrix(-1.836970e-16 1 -1 -1.836970e-16 2763.3206 -389.1708)" class="st14" width="8.39" height="8.46"/>
			
				<rect x="1576.28" y="1193.53" transform="matrix(-1.836970e-16 1 -1 -1.836970e-16 2778.2351 -382.7188)" class="st14" width="8.39" height="8.46"/>
			
				<rect x="1579.9" y="1204.21" transform="matrix(-1.836970e-16 1 -1 -1.836970e-16 2792.5364 -375.6533)" class="st14" width="8.39" height="8.46"/>
			
				<rect x="1579.9" y="1214.89" transform="matrix(-1.836970e-16 1 -1 -1.836970e-16 2803.2195 -364.97)" class="st14" width="8.39" height="8.46"/>
			<polygon class="st14" points="1428.86,1253.3 1424.86,1245.91 1432.31,1241.93 1436.32,1249.32 			"/>
			<polygon class="st14" points="1401.57,1268.09 1397.56,1260.7 1405.02,1256.73 1409.03,1264.12 			"/>
			<polygon class="st14" points="1396.51,1257.97 1392.5,1250.58 1399.95,1246.61 1403.96,1254 			"/>
			<polygon class="st14" points="1390.82,1248.27 1386.81,1240.88 1394.27,1236.9 1398.28,1244.3 			"/>
			<polygon class="st14" points="1385.69,1238.8 1381.68,1231.41 1389.13,1227.43 1393.14,1234.82 			"/>
			<polygon class="st14" points="1380.76,1228.94 1376.75,1221.55 1384.21,1217.57 1388.22,1224.96 			"/>
			<polygon class="st14" points="1375.83,1219.85 1371.83,1212.46 1379.28,1208.49 1383.29,1215.88 			"/>
			<polygon class="st14" points="1370.7,1210.38 1366.69,1202.99 1374.14,1199.02 1378.15,1206.41 			"/>
			<polygon class="st14" points="1365.63,1200.26 1361.63,1192.87 1369.08,1188.9 1373.09,1196.29 			"/>
			<polygon class="st14" points="1359.95,1190.56 1355.94,1183.17 1363.39,1179.19 1367.4,1186.58 			"/>
			<polygon class="st14" points="1354.81,1181.09 1350.8,1173.7 1358.26,1169.72 1362.27,1177.11 			"/>
			<polygon class="st14" points="1350.06,1171.54 1346.05,1164.15 1353.5,1160.17 1357.51,1167.56 			"/>
			<polygon class="st14" points="1344.92,1162.07 1340.91,1154.67 1348.36,1150.7 1352.37,1158.09 			"/>
			<g>
				<path class="st14" d="M1526.04,1201.1c13.26,0,24.01,10.66,24.01,23.81c0,13.15-10.75,23.81-24.01,23.81
					c-13.26,0-24.01-10.66-24.01-23.81C1502.04,1211.76,1512.79,1201.1,1526.04,1201.1 M1526.04,1195.1
					c-16.54,0-30.01,13.37-30.01,29.81s13.46,29.81,30.01,29.81s30.01-13.37,30.01-29.81S1542.59,1195.1,1526.04,1195.1
					L1526.04,1195.1z"/>
			</g>
		</g>
	</g>
</g>
</svg>
