<?xml version="1.0" encoding="utf-8"?>
<!-- Generator: Adobe Illustrator 24.1.1, SVG Export Plug-In . SVG Version: 6.00 Build 0)  -->
<svg version="1.1" id="Layer_1" xmlns="http://www.w3.org/2000/svg" xmlns:xlink="http://www.w3.org/1999/xlink" x="0px" y="0px"
	 viewBox="0 0 3061.42 3061.42" style="enable-background:new 0 0 3061.42 3061.42;" xml:space="preserve">
<style type="text/css">
	.st0{fill:#FFFDF5;}
	.st1{fill:#F4EFD2;}
	.st2{fill:#EEEDED;}
	.st3{fill:#F6C31E;}
	.st4{fill:#F4EFC3;}
	.st5{fill:#F2933F;}
	.st6{fill:#081510;}
	.st7{fill:#FAFCFB;}
	.st8{fill:#8C8C8C;}
	.st9{fill:#2F3F91;}
	.st10{fill:#C31718;}
	.st11{fill:#F5F6F5;}
	.st12{opacity:0.2;}
	.st13{fill:#FAC58A;}
	.st14{fill:#ED713C;}
	.st15{fill:#2F3F92;}
	.st16{fill:#60615A;}
	.st17{fill:#633919;}
	.st18{fill:#F1B275;}
	.st19{fill:#FACAA2;}
	.st20{fill:none;stroke:#090A07;stroke-miterlimit:10;}
	.st21{fill:#E8A879;}
	.st22{fill:#8B8A8A;}
	.st23{fill:#524545;}
	.st24{fill:#097365;}
	.st25{fill:#2E2B75;}
	.st26{fill:#5B2B1A;}
	.st27{fill:#F6AD63;}
	.st28{fill:#1E509E;}
	.st29{fill:#D84B4C;}
	.st30{fill:#F4E877;}
	.st31{fill:#5D3811;}
	.st32{fill:#461A46;}
	.st33{fill:none;stroke:#5D3811;stroke-miterlimit:10;}
	.st34{fill:#CB9BC6;}
	.st35{fill:#77521C;}
	.st36{fill:#F1B070;}
	.st37{fill:#B498B4;}
	.st38{fill:none;stroke:#9A4291;stroke-miterlimit:10;}
</style>
<rect x="14.2" class="st0" width="3057.86" height="3057.86"/>
<polygon class="st1" points="1867.8,1282.54 1747.86,1433.23 1583.57,1396.25 1583.53,1396.28 1460.31,1368.55 1488.64,1241.68 
	1488.92,1241.71 1591.75,1252.82 1591.81,1252.83 "/>
<path class="st2" d="M1703.31,1487.68c-0.29,1.33-0.63,2.68-0.98,4l-12.1,15.26l-126.67,14.17l-6.01,0.67l1.57-7.08
	c-9.33-15.05-13.82-33.3-11.8-52.1c0.31-3.11,0.81-6.24,1.5-9.36c4.85-21.94,17.86-39.88,35-51.14c0.68-2.38,1.28-4.8,1.82-7.24
	l101.01,22.52C1702.08,1436.02,1709.05,1461.73,1703.31,1487.68z"/>
<polygon class="st3" points="1715.61,1654.2 1673.8,1740.53 1548.31,1783.72 1464.63,1783.72 1548.31,1870.15 1506.47,1901.02 
	1506.47,1956.48 1464.63,1931.79 1464.63,1978.04 1431.19,1956.48 1422.85,1999.61 1422.85,1654.2 "/>
<path class="st4" d="M541.44,733.3c8.75,0,2187.17,0,2187.17,0s102.07,81.9,0,163.81h-212.88c0,0-93.32,67.28-2.92,111.16h408.27
	c0,0,122.48,86.7,0,158.9l-236.21,2.17c0,0-75.82,75.68,2.92,138.67h151.64c0,0,96.24,76.89,0,153.31h-390.77
	c0,0-87.49,72.61,2.92,140.33h167.07c0,0,85.42,94.95,0,142.76l-100-1.7c0,0-81.65,55.29,0,119.68h487.01c0,0,87.49,120.39,0,152.35
	H2781.1c0,0-87.32,96.83,5.83,124.21c14.58,4.29,151.64,0,151.64,0s78.74,85.74,5.83,125.46h-207.05c0,0-61.24,51.41,2.92,101.14
	h104.98c0,0,75.82,30.64,5.83,88.45H305.23c0,0-102.07-102.84,0-197.54l199.28-9.6c0,0,89.43-89.99-23.33-155.8H88.46
	c0,0-124.43-120.51,0-202.36l264.4-4.96c0,0,104.98-114.14-15.55-187.17l-147.76-6.76c0,0-93.32-70.91-3.89-168.05h377.16
	c0,0,81.65-98.67-3.89-168.11H310.09c0,0-93.32-74.24-3.89-155.69h264.4c0,0,136.09-139.96-11.66-241.36H65.13
	c0,0-116.65-103.36,0-223.29H541.44z"/>
<path class="st5" d="M1019.39,1993.72c0,0-773,31.2-422.36,170.93c0,0,251.74-93.16,350.64,0c0,0,325.05,218.92,531.14,83.84
	c170.81-111.95,675.71-83.05,843.6-69.88c34.94,2.74,68.72,13.93,98.68,32.77c141.42,88.94,385.54,51.08,302.26-4.82
	c-421.92-283.17-624.46-250.65-624.46-250.65L1019.39,1993.72z"/>
<polygon class="st6" points="2036.48,746.55 2036.41,746.55 2036.31,746.38 "/>
<polygon class="st7" points="1755.01,1923.19 1755.01,1923.26 1754.98,1923.22 "/>
<path class="st8" d="M1327.25,2091.98h-245.62c-53.57,0-97-43.43-97-97v-255.21c0-53.57,43.43-97,97-97h245.62
	c53.57,0,97,43.43,97,97v255.21C1424.24,2048.55,1380.82,2091.98,1327.25,2091.98z"/>
<g>
	<rect x="1295.1" y="1652.97" class="st9" width="126.76" height="129.56"/>
	<polygon class="st3" points="1421.86,1782.53 1421.86,1955.19 1413.38,1955.19 1405.82,1949.71 1379.59,1930.66 1379.56,1930.63 
		1337.35,1899.92 1295.1,1869.18 1379.59,1782.53 	"/>
	<polygon class="st3" points="1285.88,1659.22 1168.31,1739.3 1129.12,1659.22 	"/>
	<polygon class="st10" points="1421.86,1782.53 1421.86,1998.39 1421.83,1998.23 1413.44,1955.19 1413.38,1955.19 1379.59,1782.53 	
		"/>
	<polygon class="st2" points="1295.07,1652.94 1295.07,1782.5 1168.31,1739.3 1285.88,1659.22 	"/>
	<polygon class="st10" points="1525.39,1511.69 1525.3,1511.69 1525.23,1511.56 	"/>
	<polygon class="st9" points="1337.34,1899.91 1337.34,1955.45 1379.6,1930.64 	"/>
	<polygon class="st9" points="1379.6,1930.64 1379.6,1976.87 1413.4,1955.22 	"/>
	<path class="st9" d="M1421.86,1652.97v129.53h-0.03c-67.95-0.03-123.4-54.64-126.61-123.28c-0.06-0.98-0.09-1.95-0.12-2.93
		c-0.03-1.1-0.03-2.24-0.03-3.34l0.06-0.06l-0.03,0.09H1421.86z"/>
	<path class="st2" d="M1421.86,1652.97v53.98h-0.03c-27.09,0-49.43-20.84-52.46-47.74c-0.25-2.05-0.37-4.13-0.37-6.24H1421.86z"/>
</g>
<path class="st8" d="M1768.06,2085.6h-242.81c-54.34,0-98.4-44.06-98.4-98.4v-252.41c0-54.34,44.06-98.4,98.4-98.4h242.81
	c54.34,0,98.4,44.06,98.4,98.4v252.41C1866.46,2041.54,1822.41,2085.6,1768.06,2085.6z"/>
<rect x="1422.85" y="1654.2" class="st9" width="125.46" height="129.53"/>
<polygon class="st3" points="1548.31,1870.15 1506.47,1901.02 1464.63,1931.79 1431.19,1956.41 1422.85,1956.41 1422.85,1783.72 
	1464.63,1783.72 "/>
<polygon class="st10" points="1464.63,1783.72 1431.19,1956.41 1431.19,1956.48 1422.85,1999.61 1422.85,1783.72 "/>
<polygon class="st3" points="1715.61,1654.2 1673.8,1740.53 1548.31,1654.2 "/>
<polygon class="st2" points="1297.36,1654.16 1297.36,1654.2 1297.3,1654.2 "/>
<polygon class="st2" points="1673.8,1740.52 1548.32,1783.73 1548.32,1654.18 "/>
<polygon class="st10" points="1525.29,1512.91 1525.22,1512.91 1525.13,1512.75 "/>
<polygon class="st9" points="1464.62,1931.79 1464.62,1978.04 1431.19,1956.4 "/>
<polygon class="st9" points="1506.47,1901 1506.47,1956.4 1464.62,1931.79 "/>
<path class="st9" d="M1548.31,1654.2c-0.03,71.51-56.19,129.46-125.46,129.49V1654.2H1548.31z"/>
<path class="st2" d="M1475.08,1654.2c0,29.8-23.36,53.95-52.22,53.98v-53.98H1475.08z"/>
<ellipse class="st1" cx="1601.58" cy="1689.07" rx="79.43" ry="81.17"/>
<path class="st8" d="M1322.98,1657.65H1085.9c-55.93,0-101.26-45.34-101.26-101.26V1309.7c0-55.93,45.34-101.26,101.26-101.26
	h237.08c55.93,0,101.26,45.34,101.26,101.26v246.68C1424.24,1612.31,1378.91,1657.65,1322.98,1657.65z"/>
<g>
	<polygon class="st3" points="1382.22,1939.86 1382.22,1939.89 1382.19,1939.86 	"/>
	<polygon class="st3" points="1297.27,1660.82 1297.27,1660.85 1127.44,1660.85 1042.49,1487.24 	"/>
	<polygon class="st3" points="1042.49,1487.24 1424.69,1530.63 1297.29,1660.81 	"/>
	<polygon class="st10" points="1424.96,1530.63 1424.71,1530.66 1424.71,1595.83 1424.68,1595.83 1297.3,1660.85 1297.33,1660.75 
		1332.39,1571.24 1332.48,1570.99 1351.49,1522.3 1382.22,1443.89 1382.22,1443.83 1424.68,1465.55 1424.68,1530.63 	"/>
	<polygon class="st10" points="1528.73,1518.87 1528.64,1518.87 1528.58,1518.71 	"/>
	<path d="M1424.68,1412.04v53.57l-42.46-21.72l-84.92-43.42h79.21C1393.45,1400.47,1409.84,1404.54,1424.68,1412.04z"/>
	<path class="st9" d="M1424.68,1660.85H1297.3v3.34c-0.03-1.14-0.03-2.21-0.03-3.34v-0.03c0-34.84,13.39-66.47,35.21-89.83
		c23.2-24.88,55.94-40.36,92.2-40.36h0.28l-0.25,0.03"/>
	<path class="st2" d="M1424.68,1660.85h-53.1c0-29.95,23.76-54.26,53.1-54.26h0.03"/>
</g>
<polygon class="st6" points="1496.63,1195.83 1496.63,1195.86 1496.57,1195.86 "/>
<polygon class="st6" points="1496.63,1195.83 1496.63,1195.86 1496.57,1195.86 "/>
<path class="st8" d="M1538.58,1392.05c26.81,35.49,20.4,86.44-14.33,113.84c-2.59,2.04-5.27,3.92-8.05,5.55l8.3,9.59l0.13,0.17
	l-0.04-0.01l-13.36-6.95c-29.28,15.01-64.88,9.99-89.08-12.7l0.21-33.62l0.03-0.06l0.35-53.25l0.23-33.64
	c1.34-1.22,2.77-2.42,4.21-3.56C1461.9,1350.01,1511.76,1356.56,1538.58,1392.05z"/>
<g>
	
		<rect x="1423.45" y="1791.22" transform="matrix(6.904631e-03 -1 1 6.904631e-03 -377.5518 3202.2993)" class="st9" width="0.03" height="0.03"/>
	<polygon class="st3" points="1380.19,1939.04 1380.19,1939.1 1380.16,1939.07 	"/>
	<path class="st10" d="M1425.27,1525.9c0.3-0.05,0.59-0.09,0.89-0.12l0.19-24.23c24.2,22.69,59.8,27.71,89.08,12.7l13.36,6.95
		l0.04,0.01l-0.13-0.17l-13.15-6.83l-88.96-46.33l-0.89-0.45l-0.01,0.04l0.02,0.03l-0.27,33.23L1425.27,1525.9z"/>
	<path d="M1528.71,1521.03l0.09,0.17l-13.36-6.95l-88.87-46.32l-0.85-0.45l-0.02-0.02l0.01-0.04l0.37-53.27
		c0.31,0.15,0.58,0.3,0.86,0.47c11.63,6.16,22.18,14.49,30.94,24.7l62.53,72.13L1528.71,1521.03z"/>
</g>
<rect x="1361.35" y="1730.11" transform="matrix(7.209253e-03 -1 1 7.209253e-03 -378.5272 3078.988)" class="st7" width="0.03" height="0.03"/>
<path class="st8" d="M1814.94,1449.84l-280.87-63.21c-40.45-9.1-65.7-50.24-56.4-91.89l64.58-289.18
	c9.3-41.64,49.63-68.02,90.08-58.92l280.87,63.21c40.45,9.1,65.7,50.24,56.4,91.89l-64.58,289.18
	C1895.72,1432.56,1855.39,1458.94,1814.94,1449.84z"/>
<polygon class="st9" points="1431.98,1495.42 1431.97,1495.45 1431.94,1495.44 1431.95,1495.41 "/>
<polygon class="st3" points="1358.48,1631.26 1358.47,1631.32 1358.45,1631.28 "/>
<polygon class="st3" points="1867.8,1282.54 1747.86,1433.23 1583.57,1396.25 "/>
<polygon class="st10" points="1611.83,1269.56 1557,1283.76 1556.96,1283.78 1520.33,1293.31 1474.46,1305.18 1474.43,1305.17 
	1502.78,1178.21 1502.81,1178.25 1591.7,1252.64 1591.81,1252.83 "/>
<path d="M1591.75,1252.82l-88.96-74.51l-0.02-0.04l11.66-52.22l0.03,0.01c10.33,8.62,19.07,19.28,25.62,31.42l51.62,95.17
	L1591.75,1252.82z"/>
<polygon class="st3" points="1867.8,1282.54 1583.57,1396.25 1583.53,1396.28 1488.64,1241.68 1488.92,1241.71 1591.75,1252.82 
	1591.81,1252.83 "/>
<path class="st9" d="M1583.54,1396.25l-0.01,0.03l-123.25-27.74l28.34-126.9l0.3,0.07c27.7,6.3,51.08,21.52,68.08,42.05
	C1581.7,1313.64,1592.8,1354.8,1583.54,1396.25z"/>
<path class="st2" d="M1511.61,1380.06l-0.01,0.03l-51.32-11.55l11.81-52.87l0.03,0.01
	C1500.46,1322.09,1518.1,1350.87,1511.61,1380.06z"/>
<polygon class="st7" points="1404.35,1409.59 1404.37,1409.61 1404.36,1409.64 1404.33,1409.62 "/>
<polygon class="st6" points="1572.08,1467.27 1572.1,1467.13 1572.15,1467.32 "/>
<polygon class="st11" points="1125.22,1460.94 1125.25,1460.94 1125.21,1460.97 "/>
<polygon class="st3" points="1405.05,1665.32 1405.01,1665.34 1405.02,1665.31 "/>
<polygon class="st2" points="1339.05,1339.85 1339.05,1339.88 1338.99,1339.86 "/>
<polygon class="st10" points="1593.65,1251.36 1593.59,1251.34 1593.53,1251.17 "/>
<path class="st9" d="M1583.82,1402.1c-6.69,23.96-19.61,44.62-36.5,60.5c0.31-3.11,0.81-6.24,1.5-9.36
	C1553.67,1431.3,1566.68,1413.36,1583.82,1402.1z"/>
<polygon class="st12" points="1405.02,1665.31 1405.05,1665.32 1405.01,1665.34 "/>
<ellipse transform="matrix(0.0453 -0.999 0.999 0.0453 356.3546 2681.6243)" class="st1" cx="1581.23" cy="1154.36" rx="81.18" ry="79.42"/>
<ellipse transform="matrix(0.0255 -0.9997 0.9997 0.0255 435.9348 2473.8528)" class="st13" cx="1486.84" cy="1013.33" rx="34.65" ry="32.16"/>
<path class="st14" d="M1442.43,986.17l-5.78,122.96l-38.96-1.97l1.56-33.18c0,0-70.23-23.11-65.94,29.93l-68.01-70.44
	C1265.3,1033.47,1339.02,926.44,1442.43,986.17z"/>
<path class="st14" d="M1441.42,990.67l13.29,0.67c0,0-3.32,70.52,31.45,99.9l-41.76-2.11l-6.94-14.16L1441.42,990.67z"/>
<polygon class="st13" points="1405.91,1107.58 1409.19,1154.06 1472.68,1217.23 1477.23,1236.65 1521.73,1238.9 1522.15,1230.12 
	1509.13,1229.47 1502.27,1207.53 1483.46,1200.99 1439.08,1137.98 1435.89,1109.09 "/>
<path class="st15" d="M1272.04,1040.45c0,0-13.52,57.08,23.58,130.26l-113-10.42l-0.86,18.37l99.7,26.88l33.94,1.71
	c4.58,0.23,9.02-2.01,11.64-6.08c2.83-4.4,6.12-11.13,7.95-20.43c0.1-0.49,0.16-1.01,0.19-1.51c0.5-8.34,5.05-83.44,5.71-84.62
	l39.79-3.99l-0.74,15.64c0,0-31.67,81.66-32.8,88.88l13.36,3.24l42.5-66.81l1.13-24.1l-8.33-0.42l3.44-33.09
	c0,0-43.26-12.16-60.3,5.9c0,0-8.59,14.29-5.63,24.03L1272.04,1040.45z"/>
<path class="st16" d="M1189.53,1196.98l-7.63-3.65l9.39-33.68c0,0-14.5-14-21.8-1.1l-2.12,45.14c0,0,18.89,10.74,25.36,1.28"/>
<path class="st16" d="M1350.48,1191.67c0,0-14.39,16.01-10.06,24.35l46.88,6.91l0.66-14.07l-20.38-1.63l-3.25-8.41L1350.48,1191.67z
	"/>
<path class="st17" d="M1477.23,1023.77c0,0,11.39-1.35,12.49,0.63c1.1,1.98-0.45,9.61,3.12,9.79c3.57,0.18,4.58,4.09,4.58,4.09
	s1.62,16.26,14.24,14.27c0,0,5.37-12.76,15.88-7.99s6.68-15.34,6.68-15.34s-8.65-12,1.84-16.61c10.49-4.61-1.83-21.54-9.91-14.63
	c-8.08,6.91-5.56-17.63-5.56-17.63s-46.13-11.67-41.28-0.65c0,0-12.52-1.43-23.95,26.9c0,0,4.44,7.74,12.29,5.67
	c0,0,18.84-20.15,8.56,8.24"/>
<ellipse transform="matrix(0.0255 -0.9997 0.9997 0.0255 427.0333 2456.9731)" class="st18" cx="1473.73" cy="1009.46" rx="6.42" ry="5.96"/>
<path class="st13" d="M1477.12,1087.28l3.52,20.3l42.9-8.87l5.13-7.74l13.76-7.36l4.84-10.45l11.96,3.25
	c5.98,28.09-19.13,31.17-19.13,31.17l-83.76,33.12l-7.94-51.36L1477.12,1087.28z"/>
<path class="st13" d="M1456.33,1022.94v26.81c3.45-10.04,9.93-8.29,9.93-8.29L1456.33,1022.94z"/>
<path class="st18" d="M1485.21,1047.94c0,0-23.87-15.8-24.93-34.1C1460.28,1013.84,1458.77,1043.33,1485.21,1047.94z"/>
<polygon class="st14" points="1442.43,986.17 1454.71,991.35 1441.42,990.67 "/>
<ellipse class="st19" cx="934.72" cy="1662.02" rx="37.26" ry="38.6"/>
<path class="st20" d="M765.37,1853.61"/>
<path class="st19" d="M771.89,2055.22c0,0-10.27,7.15-6.52,21.45l17.56,12.87h37.26c0,0,6.9-12.87-19.32-17.16l-16.45-17.16H771.89z
	"/>
<path class="st19" d="M819.71,2048.61c0,0-10.27,7.15-6.52,21.45l17.56,12.87h37.26c0,0,6.9-12.87-19.32-17.16l-16.45-17.16H819.71z
	"/>
<path class="st19" d="M916.06,1709.12c0,0,20.65,17.48,14.43,32.73c0,0-24.97,5.01-48.18-3.26L916.06,1709.12z"/>
<path class="st19" d="M930.49,1764.4l16.26,18.1l37.88-9.05v12.59l-12.62,9.85l-37.29-10.9l-7.49-15l7.49,15l64.86,18.97
	c0,0,17.94-12.49,26.22,0c0,0,23.46,5.34,20.7,11.06c-2.76,5.72-28.11,9.52-46.92,7.15l-80.04-18.21l-32.9-36.75L930.49,1764.4z"/>
<path class="st19" d="M798.4,1914.27c0,3.49,11.71,54.3,0,62.59c0,0-32.79,23.64-26.51,78.35h12.53l39.67-80.25l11.87-60.28
	L798.4,1914.27z"/>
<path class="st19" d="M855.35,1909.64c0,0,6.21,17.82,3.47,24.05c-2.74,6.23-37.72,89.73-39.12,114.93h12.53l63.54-111.26
	l-9.28-36.17L855.35,1909.64z"/>
<path class="st21" d="M971.39,1668.71c0,0-21.35,29.39-46.41,30.55C924.98,1699.26,960.44,1708.43,971.39,1668.71z"/>
<ellipse class="st21" cx="924.98" cy="1662.02" rx="8.28" ry="8.58"/>
<path class="st22" d="M812.37,2055.22c0,0,31.54,22.67,36.32,10.55c0,0,26.37,2.19,19.32,17.16h-37.26l-17.56-12.87
	C813.19,2070.06,808.26,2052.44,812.37,2055.22z"/>
<path class="st22" d="M765.37,2062.18c0,0,25.09,20.81,35.49,10.19c0,0,22.75,2.59,19.32,17.16h-37.26l-17.56-12.87
	C765.37,2076.66,760.37,2058.45,765.37,2062.18z"/>
<ellipse class="st13" cx="1951.91" cy="1653.76" rx="31.47" ry="32.61"/>
<path class="st13" d="M1927.19,1736.44l-10.11,41.95l-56.19,34.91v13.97l70.8-24.45c0,0,56.19-53.57,32.03-66.37H1927.19z"/>
<path class="st13" d="M1923.54,1751.57c0,0-42.22,18.09-57.95,7.61l-1.13,19.2c0,0,44.58,3.42,43.59,4.04
	C1908.05,1782.42,1926.91,1784.18,1923.54,1751.57z"/>
<path class="st13" d="M1945.51,1684.3c0,0,7.87,32.19-15.73,32.19l50.57-22.8c0,0-18.46-4-9.14-16.02L1945.51,1684.3z"/>
<path class="st13" d="M2006.98,1850.55c0,0,12.36,46.58-6.74,57.06l-6.74,66.37c0,0,24.83,37.79,31.58,103l-16.72,6.39
	l-44.63-111.71v-57.06c0,0-20.83,44.1-34.31,47.01c0,0,27.01,48.48,7.9,131.16l-15.02-2.68l-14.24-118.43l20.27-109.46
	L2006.98,1850.55z"/>
<path class="st23" d="M1942.47,2126.88h-55.46c0,0-12.05-31.73,32.26-25.38l6.03-9.52h19.81L1942.47,2126.88z"/>
<path class="st23" d="M2038.65,2108.04l-48.43,18.84c0,0-20.16-22.5,20.47-32.24l2.37-10.03l17.3-6.73L2038.65,2108.04z"/>
<path class="st13" d="M1863.38,1826.21c-6.63,5.48-23.44,15.87-38.38-4.09c-2.76-3.68-0.34-9.07,4.13-9.07l0,0
	c3.53,0,6.08-3.53,5.11-7.08l-0.29-1.07l24.94,5.21c1.82,0.38,3.32,1.72,3.95,3.55l2.2,6.32
	C1865.83,1822.22,1865.18,1824.73,1863.38,1826.21z"/>
<path class="st24" d="M1927.19,1734.72l-6.95,30.09l38.25,10.69c0,0,22.12-32.91,12.53-43.2L1927.19,1734.72z"/>
<path class="st25" d="M1924.9,1863.36l-25.85,108.3h42.14c0,0,25.94-49.53,21.68-54.15c-4.26-4.62-0.33,2.37-0.33,2.37l-1.69,54.15
	h40.46l5.66-73.52c0,0,9.59-29.04,0-49.96L1924.9,1863.36z"/>
<path class="st24" d="M1927.63,1727.71c0.41-8.01,5.53-14.93,12.9-17.38c15.94-5.3,38.35-15.81,38.35-15.81s6.74-24.45,28.1,156.04
	l-86.54,12.81l11.24-60.55c0,0,48.62-37.56,39.33-68.7l-43.83,2.33L1927.63,1727.71z"/>
<path class="st26" d="M1920.45,1643.28c0,0,31.47-10.48,31.47,0s4.2,10.48,17.84,10.48c0,0,8.84,17.6,0,26.85
	c0,0,24.87-4.72,23.75-26.85c0,0,4.46-12.19-11.94-20.17c-2.56-1.25,0.04-5.84-1.36-8.38c-3.71-6.74-6.77-8.77-16.48-12.16
	c0,0-8.65,2.91-26.41-0.04C1924.65,1610.9,1909.21,1630.47,1920.45,1643.28z"/>
<path class="st27" d="M1921.18,1660.73c0,0,18.23,23.93,50.03,16.94C1971.21,1677.67,1936.57,1700.85,1921.18,1660.73z"/>
<path class="st28" d="M798.4,1914.27c0,0-25.93-76.85,21.31-91.4h49.12c0,0,23.97,76.59,17.67,78.3l-31.14,8.46l-14.76-37.04
	l-4.64,42.09h-32.43"/>
<path class="st29" d="M837.8,1760.65"/>
<path class="st30" d="M821.88,1759.73l-29.1,78.87c0,0,94.2,5.82,92.28,0c-1.92-5.82-8.83-67.11,4.47-71.4
	c13.3-4.29,39.51-2.8,39.51-2.8l5.68-22.56c0,0-40.72-0.43-45.19-1.85C885.06,1738.58,824.2,1753.44,821.88,1759.73z"/>
<path class="st31" d="M967.78,1641.84c0,0-29.05-47.4-66.29-7.38c-2.13,2.29-3.84,4.96-5.03,7.88
	c-8.33,20.43-48.24,113.42-85.73,117.39l78.8-19.73l22.13-25.76c2.89-3.37,5.03-7.36,6.25-11.68l10.75-37.94l43.32-5.18
	L967.78,1641.84z"/>
<ellipse class="st13" cx="1740.48" cy="1884.03" rx="29.22" ry="30.28"/>
<path class="st13" d="M1718.75,1996.3c0,0-7.49-23.56-15.73-66.76c0,0-44.95-80.74-38.96-94.71c0,0-22.48-32.61-14.98-31.05
	c7.49,1.55-1.53-20.18-1.53-20.18s12.02,6.21,10.52,13.97c-1.5,7.76,21.74-1.24,14.98,26.39l34.46,65.99l23.98,31.83v59
	L1718.75,1996.3z"/>
<path class="st32" d="M1707.31,2035.78v153.04h74.81c0,0-5.99-55.88,0-63.86c5.99-7.98,13.81-30.23,4.82-59.24
	C1786.94,2065.72,1707.31,2026.43,1707.31,2035.78z"/>
<path class="st13" d="M1769.7,2188.82c0,0-6.74,21.74-2.33,41.92c4.41,20.18,13.57,72.97,13.57,72.97l-13.57,4.66
	c7.41-17.08-20.72-55.12-20.72-55.12l-6.17-64.43l-8.99,51.24l8.99,77.63H1724l-12.74-83.84v-45.03"/>
<path class="st33" d="M1648.4,2471.43"/>
<path class="st33" d="M1629.13,2465.04"/>
<path class="st33" d="M1639.24,2401.94"/>
<path class="st34" d="M1734.41,1919.82l-27.1,34.24c0,0-8.17,28.04,8.94,33.81l-13.07,50.17l22.98,6.04c0,0,35.71-11.66,18.15-38.82
	s4.84-74.66,4.84-74.66L1734.41,1919.82z"/>
<path class="st13" d="M1746.78,1996.24l-16.48,18.63l-58.44,31.05l-10.49,17.08h-22.48v-18.63l22.48-6.21l34.45-24.84l29.24-31.05
	c0,0,4.77-41.06,15.43-38.71L1746.78,1996.24z"/>
<path class="st35" d="M1715,1853.15c0,0,43.46-43.12,65.94,27.22c0,0-3,31.53,0,37.74c3,6.21,25.47,10.87,19.48,46.58
	c-5.99,35.71,1.5,60.55,8.99,65.21s-17.98,52.79-39.71,32.61c-21.73-20.18-45.7-17.08-45.7-17.08s32.97-9.32,16.48-38.82
	c-16.48-29.5,0-63.66,0-63.66s2.51-4.95,4.39-11c2.61-8.43,3.99-19-4.39-21.3c0,0,14.98-17.38,11.99-24.36
	C1749.47,1879.3,1715,1877.37,1715,1853.15z"/>
<path class="st13" d="M1731.49,1912.83c0,0,10.54,5.11,2.92,6.99l10.46,12.73c0,0,4.06-15.2-4.39-21.3L1731.49,1912.83z"/>
<path class="st36" d="M1711.26,1884.03c0,0,24.51,33.26,29.22,27.22C1740.48,1911.25,1714.09,1919.97,1711.26,1884.03z"/>
<ellipse class="st5" cx="1745.84" cy="2350.29" rx="182.64" ry="51.65"/>
<path class="st37" d="M1724,2317.69c0,0-18.01,27.95-34.48,23.29v18.63h50.96v-41.92H1724z"/>
<path class="st37" d="M1770.89,2296.75c0,0-18.59,27.54-34.96,22.52l-0.39,18.63l50.95,1.14l0.87-41.91L1770.89,2296.75z"/>
<line class="st38" x1="1689.52" y1="2350.29" x2="1740.48" y2="2350.29"/>
<line class="st38" x1="1735.98" y1="2329.15" x2="1786.94" y2="2329.15"/>
<path class="st8" d="M1703.31,1485.13c-0.29,1.33-0.63,2.68-0.98,4c-11.35,41.59-52.48,67.54-93.87,58.31
	c-18.55-4.13-34.1-14.67-44.91-28.88l-6.01,0.67l1.57-7.08c-9.33-15.05-13.82-33.3-11.8-52.1c0.31-3.11,0.81-6.24,1.5-9.36
	c4.85-21.94,17.86-39.88,35-51.14c0.68-2.38,1.28-4.8,1.82-7.24l0.01-0.03l0.05,0.04l7.86,1.75c0.07-0.05,0.14-0.07,0.21-0.11
	l92.73,20.67c0.05,0.08,0.1,0.12,0.15,0.19C1702.08,1433.47,1709.05,1459.17,1703.31,1485.13z"/>
<polygon class="st2" points="1690.23,1506.94 1563.55,1521.11 1557.55,1521.78 1585.65,1394.82 1585.7,1394.87 1589.36,1398.8 "/>
<path class="st3" d="M1703.31,1487.68c-0.29,1.33-0.63,2.68-0.98,4l-12.1,15.26l-100.9-108.12l-3.69-3.97l101.01,22.52
	C1702.08,1436.02,1709.05,1461.73,1703.31,1487.68z"/>
<path class="st9" d="M1585.64,1394.86l-26.52,119.85c-9.33-15.05-13.82-33.3-11.8-52.1c0.31-3.11,0.81-6.24,1.5-9.36
	c4.85-21.94,17.86-39.88,35-51.14C1584.5,1399.72,1585.1,1397.3,1585.64,1394.86z"/>
</svg>
