<?xml version="1.0" encoding="utf-8"?>
<!-- Generator: Adobe Illustrator 24.3.0, SVG Export Plug-In . SVG Version: 6.00 Build 0)  -->
<svg version="1.1" id="Layer_1" xmlns="http://www.w3.org/2000/svg" xmlns:xlink="http://www.w3.org/1999/xlink" x="0px" y="0px"
	 viewBox="0 0 3061.4 1518.9" style="enable-background:new 0 0 3061.4 1518.9;" xml:space="preserve">
<style type="text/css">
	.st0{fill:#EFB678;}
	.st1{fill:url(#SVGID_1_);}
	.st2{fill:#EFB806;stroke:#EFB806;stroke-width:1.0492;stroke-miterlimit:10;}
	.st3{fill:#F6BDAA;}
	.st4{fill:#E53B11;}
	.st5{fill:#E42D16;}
	.st6{fill:#E86633;}
	.st7{fill:#FFFFFF;stroke:#1D1D1B;stroke-width:1.0307;stroke-miterlimit:10;}
	.st8{fill:#EFB806;stroke:#EFB806;stroke-width:1.0307;stroke-miterlimit:10;}
	.st9{fill:#C32C18;}
	.st10{fill:#EA5D4A;}
	.st11{fill:none;stroke:#030202;stroke-width:1.0307;stroke-miterlimit:10;}
	.st12{fill:#264495;stroke:#264495;stroke-width:1.0307;stroke-miterlimit:10;}
	.st13{fill:none;stroke:#151011;stroke-width:1.0307;stroke-miterlimit:10;}
	.st14{fill:#524A4B;stroke:#524A4B;stroke-width:1.0307;stroke-miterlimit:10;}
	.st15{fill:#E7DBD9;}
	.st16{fill:none;stroke:#0E0405;stroke-width:1.0307;stroke-miterlimit:10;}
	.st17{fill:#695C5E;}
	.st18{fill:#F5A220;stroke:#E5C10B;stroke-width:1.0307;stroke-miterlimit:10;}
	.st19{fill:#264495;stroke:#264495;stroke-width:1.0492;stroke-miterlimit:10;}
	.st20{fill:#4A4A4C;}
	.st21{fill:#76849A;stroke:#76849A;stroke-width:1.0492;stroke-miterlimit:10;}
	.st22{fill:#04475E;}
	.st23{fill:#396391;}
	.st24{fill:#FFFFFF;}
	.st25{fill:none;stroke:#000000;stroke-width:0.9306;stroke-miterlimit:10;}
	.st26{fill:#EC6B51;}
	.st27{fill:#BA271D;}
	.st28{fill:#E95439;}
	.st29{fill:#EE931B;}
	.st30{fill:#F6A75A;}
	.st31{fill:#4062AA;}
	.st32{fill:#E07552;}
	.st33{fill:#D1C4C1;}
	.st34{fill:#736C6E;}
	.st35{fill:#274E93;}
	.st36{fill:#7D3C28;}
	.st37{fill:#33373A;}
	.st38{fill:none;stroke:#000000;stroke-width:2.0064;stroke-miterlimit:10;}
	.st39{fill:none;stroke:#000000;stroke-width:2.0064;stroke-linecap:round;stroke-miterlimit:10;}
	.st40{fill:#CECDCE;}
</style>
<ellipse class="st0" cx="2654.7" cy="631.3" rx="61.9" ry="61.2"/>
<linearGradient id="SVGID_1_" gradientUnits="userSpaceOnUse" x1="67.6777" y1="3117.7373" x2="2833.4709" y2="3117.7373" gradientTransform="matrix(1 0 0 -1 0 3735.8899)">
	<stop  offset="2.237672e-07" style="stop-color:#E0D1B4"/>
	<stop  offset="0.1899" style="stop-color:#C6A772"/>
	<stop  offset="0.7869" style="stop-color:#6D441E"/>
	<stop  offset="0.9759" style="stop-color:#422918"/>
	<stop  offset="0.9897" style="stop-color:#683B11"/>
	<stop  offset="0.9966" style="stop-color:#FCD294"/>
	<stop  offset="1" style="stop-color:#422918"/>
</linearGradient>
<path class="st1" d="M2241.6,932.1c50.4,7.5,107.8-12.7,130.8-52c4.6-7.5,8.6-15.5,11.6-23.8c6-16.5,8.6-34.1,7.2-51.2
	c1.2-3.9,3.2-8.6,6.6-13.9c10.4-15.9,33.4-36.8,84.1-57.3c101.6-40.8,126.7-84.3,126.7-84.3c6.7-6.5,11.1-23.1,15.7-26.4
	c7.2-5.2,1.2-17.5,10.6-15.9c44.2,8,73.2-14.2,73.2-14.2s1.9-44.7-84.3-54.7c0,0-70.4-15.4-197.4,33.1
	c-127,48.6-218.8-76.2-218.8-76.2s-83.7-130.2-251.3-48.6c0,0-221.8,28.2-242.8-170.6c0,0,29.9-158.9-176.6-166.4
	c0,0-700.2-11.7-1032.3-8.2c-12.8,0.2-25,0.3-36.6,0.4c-44.9,2.9-94.2-9.6-131.4,10.5c-36.9,19.5-53.2,59.6-41.3,91.4
	c6,15.9,19.1,29.7,40.3,37.7c8.9,2,17.7,3.5,26.6,4.6c9,1.1,17.9,1.8,26.9,2.3c39.1,3.1,79.3-1.1,118.6-1.9
	c28.2-0.8,59.4-3.4,83.5,12.6c18.1,12.6,23.1,31,24.2,48.6c1,25.2-20.1,49.5-51.3,51.2c-77.5,4.2-154-2.5-231.9-1c-7,0-14,0-20.8,0
	c-56.2,0.2-116.5-11.6-165.9,4.4c-55.4,18.5-58.4,103.2,1,122.4c21.6,7.1,45.5,8.4,70,8.1c8.2-0.1,16.4-0.4,24.8-0.7
	c40.1-1.5,79.3-4.9,118.6,2.7c24.2,4.2,41.3,24.3,50.3,44.4c6.5,15.1,3,30.6-6.1,43.3c-4.6,6.4-10.6,12-17.5,16.5
	c-39.8,23.2-96.1,1.4-136.4,15.7c-46.3,15.1-53.3,86.4,2,99.8c17.1,3.8,35.2,4.9,53.7,4.9c9.3,0,18.6-0.3,28-0.6
	c46.1-1.8,95.4-8.5,137.7,3.3c29.2,7.5,50.3,44.4,35.2,73c-6,12.6-19.1,24.3-34.2,26c-44.3,5-88.6,1.7-133,1.6c-7.1,0-14.3,0-21.5,0
	c-11.8,0-23.7,0-35.5,0c-54.7,0.1-114-10.8-159.3,6C80,843.9,75,916,122.3,933.7c20.1,7.1,43.1,8,66.8,7c8-0.3,16-0.8,24.2-1.3
	c48.9-4.1,100.2-10,144.5,1.8c36,9.8,40.7,56.3,16.7,78.2c-4.8,4.4-10.8,7.8-17.8,9.8c-44.3,12.6-98.6-5.9-135.9,9.2
	c-34.2,14.3-41.3,77.2,0,89.7c44.3,13.4,98.6,4.2,149.3,3.9c11.6,0,23.7,0,36.2,0c390.5,0,1258.5,0,1258.5,0s183.4,13.4,228.3-202.7
	c19.6-94.5,90.2-104.9,163.3-86.7c10.5,2.6,20.9,5.8,31.4,9.4c8.6,2.9,16.9,6,25.1,9.3c6.7,2.7,13.2,5.5,19.6,8.6
	c31.8,14.9,61,33.4,91.1,51.2C2234.9,927.9,2241.6,932.1,2241.6,932.1z"/>
<path d="M595.3,634.2L1037,370.5l13.2,23.9L612.9,658.2C612.9,658.2,614.9,636.8,595.3,634.2z"/>
<path class="st0" d="M888.5,492.2l102.3-64.3l12.7,12.6L942.3,497c0,0-47.1,29.1-49.6,24.1L888.5,492.2z"/>
<path class="st0" d="M768.2,498.6c0,0-38.4,11.1-100.5,93.4l113.6-64.8L768.2,498.6z"/>
<path class="st2" d="M742.1,548.8l5.9,119c0,0,127.2-35.6,118.6-53c-8.7-17.4,0.2-89.7,0-87.9s12.4,1.8,17.1,3.5
	c4.7,1.8,14.4,5.8,14.4,5.8l-5-46.1c-29.1-31.5-59.4-28-59.4-28l-54.9,4.8c-7.3-3.4-30.7,9.6-30.7,9.6L699,517.2l27.3,39.4
	L742.1,548.8z"/>
<path class="st3" d="M2919.6,926.5c-0.8-0.1,46.6,6.8,46.6,6.8l-12.1,50.8l-27.5-4L2919.6,926.5z"/>
<path class="st4" d="M2652.7,1414.4v63.6h121.2c0,0,4.9-20.6-26.2-20.6c0,0-49.1-15-49.1-26.2c0,0-3.2-11.2-11.5-16.9
	c-8.2-5.6-8.2-5.6-8.2-5.6L2652.7,1414.4z"/>
<path class="st5" d="M962.5,909.3l12.8,38.7l85-25.6c0,0-0.7-13.6-22.5-7c0,0-37.4,1.3-39.8-5.6c0,0-4.5-6.1-11.5-7.8
	c-6.8-1.7-6.8-1.7-6.8-1.7L962.5,909.3z"/>
<path class="st5" d="M748.5,959.6l0.1,40.6l89.2-0.2c0,0,3.6-13.1-19.3-13.1c0,0-36.1-9.5-36.1-16.6c0,0-2.4-7.2-8.5-10.7
	c-6-3.6-6-3.6-6-3.6L748.5,959.6z"/>
<polygon class="st6" points="2773.8,1478 2774.1,1490.8 2652.7,1490.8 2652.7,1478 "/>
<path class="st4" d="M2699.3,775.1c11.6,11.4,61.3,409.5,59.5,411.2c-3.9,3.9-76.8-15.5-76.8-15.5v-82.3"/>
<path class="st7" d="M2628.2,686.6"/>
<polyline class="st0" points="2638.1,685 2638.1,714.3 2662.9,727.9 2653.4,686.9 "/>
<polyline class="st8" points="2664.2,733.5 2664.2,715.3 2628.2,712.1 2628.2,720.7 "/>
<polygon class="st4" points="2705.8,791.8 2776.2,876.2 2927.8,900.2 2853.8,982.6 2728.7,942 "/>
<polyline class="st9" points="2664.2,733.5 2704.5,744.5 2704.5,783.5 2696.4,773.2 "/>
<polygon class="st10" points="2621.1,725.1 2613.2,705.6 2690.7,748 2696.4,783.5 "/>
<path class="st10" d="M2413,1025.3c4.6,0,156.2-282.8,156.2-282.8s25.5-28.6,59,6.9l-89.1,293.5L2413,1025.3z"/>
<path class="st8" d="M2684.3,783.5c0,0,14.7,39.6,12.1,72.5l8.1,51.3v57.9c0,0,7.1,21.7,12.2,17.4h-25.3L2684.3,783.5z"/>
<path class="st11" d="M2691.5,1035"/>
<path class="st4" d="M2587.3,733.5l33.8-8.4l63.2,49l7,421.4l-233.1-15.8l38.4-140.8l42.4,5.9l89.1-293.4
	C2628.2,751.4,2605.5,722.5,2587.3,733.5z"/>
<path class="st12" d="M2656.7,1200.3l32.6,2.6V982.7l146.3,439.4h-177.1C2658.6,1422.1,2709.2,1294.3,2656.7,1200.3"/>
<path class="st13" d="M2656.7,1214.7l-196.2,193.5l-112.3-120c0,0,148.4-31.9,180.2-103.3l126.2,8.6L2656.7,1214.7z"/>
<line class="st13" x1="2654.7" y1="1193.1" x2="2691.5" y2="1195.5"/>
<path class="st4" d="M2392.9,1310.3l-55.8,38.2l84,120.1c0,0,21.4-7.5-0.1-38.3c0,0-20.9-57.7-11.1-64.4c0,0,7.5-10,6.8-21.5
	s-0.7-11.5-0.7-11.5L2392.9,1310.3z"/>
<polygon class="st6" points="2421.2,1468.7 2408.3,1477.9 2324.1,1357.5 2337.2,1348.5 "/>
<path class="st14" d="M2810.3,695.5l-5.2,4.5l141.4,150.8l8.1-9.8c5.6-8.3,0.4-14.7,0.4-14.7l-29-36.8c-6.1-7.8-6.2-18.9,0-26.8l0,0
	c2.7-3.5,2.4-8.6-0.7-11.7l-23.3-23.1c-3.6-3.6-9.4-3.6-13.1-0.2l0,0c-5.8,5.4-14.9,5.2-20.5-0.3l-31.2-31
	C2829.7,689.3,2818.1,688.8,2810.3,695.5z"/>
<path class="st15" d="M2413,1101.6v-19.5c0-11.5,10-20.6,21.5-19.7l61.2,4.9c14,1.1,24.9,12.7,24.9,26.6v21.4l-18-7.1v-25.8
	l-71.8-6.6v27.1L2413,1101.6z"/>
<path class="st16" d="M2442.2,1185"/>
<path class="st17" d="M2676,1417.3l-472-34.9c-7.1-0.5-12.5-6.6-11.9-13.7l20.4-270.1c0.5-7,6.7-12.3,13.8-11.8l472,34.9
	c7.1,0.5,12.5,6.7,11.9,13.7l-20.4,270.1C2689.2,1412.6,2683.1,1417.8,2676,1417.3z"/>
<path class="st0" d="M2458.3,1033.6c0,0-24.2,33.9-16.1,43.3c0,0,18,23.8,33.5,3.1l10.8-42.5L2458.3,1033.6z"/>
<ellipse class="st12" cx="2654.7" cy="631.3" rx="26" ry="25.7"/>
<ellipse class="st18" cx="2654.7" cy="631.3" rx="18.3" ry="18.2"/>
<path class="st12" d="M2640.8,607.4c-10.3-41.3,14-63.9,14-63.9s44.8,11.6,29.6,15.1s-20.1,48.8-20.1,48.8l-1.3-19.5h-16.7
	c0,0-2.5,24.7,0,19.2"/>
<path class="st19" d="M762.5,660.7l94.2-37.1l100,87.6l54.7,189.9l-68.6,13.5l-27.9-165.9c0,0-72.2-20.6-76.8-37.5l-38.3,253.9
	l-83.2-8.2L762.5,660.7z"/>
<polygon class="st20" points="792.6,991.3 798.3,1034.4 722.1,1044.4 716.4,1001.3 "/>
<path class="st21" d="M797.9,1031.3l-4.7-35.4l17.8-2.3c0,0-10.9,19,6.4,33.6L797.9,1031.3z"/>
<g>
	<ellipse class="st22" cx="836.3" cy="1005.8" rx="27.5" ry="27.3"/>
</g>
<g>
	<ellipse class="st23" cx="836.3" cy="1005.8" rx="14.1" ry="14"/>
</g>
<path class="st21" d="M862.1,1022.9c0,0,10.6-12.6,1.4-20.7l46.8,4.1l2.5,19.3L862.1,1022.9z"/>
<path class="st21" d="M865.8,1002c0,0-0.7-13.1-9-19.1l45.5-13.2l6,18.3L865.8,1002z"/>
<path class="st21" d="M920.3,1029l-1.1-23l249.7,14.8c0,0,17.9,12.3-8.5,23.6L920.3,1029z"/>
<polyline class="st20" points="1167.3,1043.5 1245.1,1037 1174.1,1023.8 "/>
<path class="st20" d="M1151.4,904.7l68-30.3l-72.8,13.2C1146.6,887.5,1167.8,891.6,1151.4,904.7z"/>
<g>
	<path class="st22" d="M1142.8,1043.2c0,0,5.2,9.7-5.7,10.6l-12.9,1.7c0,0-5.3-3.6-2.5-13.6L1142.8,1043.2z"/>
</g>
<g>
	<polygon class="st22" points="1128.5,1018.4 1123.4,979.3 1132.4,978.1 1137.5,1017.3 	"/>
</g>
<g>
	<path class="st23" d="M1140.2,974l-33.6,7.5c0,0-15.9-8.9-2.6-20l34-4.5C1138,957,1147.7,966.7,1140.2,974z"/>
</g>
<g>
	<polygon class="st22" points="1119.6,959.4 1116,922.9 1124.3,917.1 1129.7,958.1 	"/>
</g>
<g>
	<path class="st22" d="M1101.4,900.5c0,0-5-8.5,1.2-13l15.5-2c0,0,10.2,2.7,5.7,8.3L1101.4,900.5z"/>
</g>
<polygon class="st24" points="1037,370.5 1101.2,343.3 1050.1,394.4 "/>
<polygon points="1087.2,349.2 1101.2,343.3 1090.7,353.8 "/>
<path class="st25" d="M613.9,657.2c0,0-17.5,8.1-18.7-23"/>
<polyline class="st0" points="784.5,472.9 784.5,433.5 808.5,433.5 814,471.8 "/>
<ellipse class="st0" cx="796.5" cy="400.2" rx="39.2" ry="38.9"/>
<polygon class="st9" points="2520.6,1040.3 2615.9,791.8 2539.1,1044.8 "/>
<polygon class="st9" points="2603.1,971.9 2581.9,996.9 2646.2,1035 2662.9,1010.1 "/>
<polygon class="st26" points="2593.9,982.6 2654.7,1022.2 2662.9,1010.1 2603.1,971.9 "/>
<polygon class="st27" points="2640.8,740.3 2684.3,791.8 2684.3,774.1 "/>
<polygon class="st4" points="2694.4,770.9 2699.3,775.1 2696.4,823.8 2685.1,779.9 2684.3,774.1 2696.4,783.5 "/>
<polygon class="st28" points="2716.6,862.1 2773.7,923.5 2893.4,938.6 2927.8,900.2 2776.2,876.2 2705.8,791.8 "/>
<polygon class="st15" points="2729.8,889.2 2856,758.5 2887.1,791.8 2732.8,952.5 "/>
<g>
	<path class="st29" d="M2647.8,589.9h13.2l1.3,15.1l-0.4-0.1c0,0-4.2-1-8.7-1c-2.5,0-4.7,0.3-6.3,1l-0.4,0.2L2647.8,589.9z"/>
	<path class="st29" d="M2660.8,590.1l1.2,14.6c0,0-4.2-1-8.7-1c-2.2,0-4.5,0.2-6.4,1l1.1-14.6H2660.8 M2661.3,589.6h-0.5h-12.7h-0.5
		v0.5l-1.1,14.6l-0.1,0.8l0.8-0.3c1.6-0.6,3.7-0.9,6.2-0.9c4.3,0,8.6,1,8.6,1l0.7,0.2l-0.1-0.7l-1.2-14.6L2661.3,589.6L2661.3,589.6
		z"/>
</g>
<path class="st30" d="M2622.3,679.7c0,0,69.2,4.9,90.2-48.4C2712.5,631.3,2711.8,711.3,2622.3,679.7z"/>
<polygon class="st31" points="2720.5,1064.6 2755.3,1422.1 2839.6,1422.1 "/>
<polygon class="st32" points="2672.2,1438.3 2703.6,1438.3 2715.9,1445.3 2672.2,1460.7 "/>
<polygon class="st3" points="2947.5,929.4 2943.7,927.7 2961.3,885.3 2965.1,887 "/>
<polyline class="st33" points="2912.1,925.4 2974.6,934.5 2976.4,921.6 2913.7,913.9 "/>
<path class="st0" d="M2887.3,935.4h16.3c0,0,15.3-8.8,16.8-4.9l2.8,15.2c0,0,20.9-0.1,21,6.6c0,0-18.1,8.6-31.4,9.4l-34.5-6.1
	L2887.3,935.4z"/>
<path class="st34" d="M2654.7,1118.5c0,0-200.1,263.8-450.8,263.9l485.9,23.1l20.4-270.1l-46-20"/>
<polygon class="st19" points="763.4,663.6 793.2,544.4 822.3,538.7 859.7,623.8 "/>
<polygon class="st19" points="793.2,544.4 757.4,475.1 771.4,465.7 808.9,544.4 "/>
<polygon class="st19" points="808.9,544.4 830.3,462 840.7,465.7 822.3,538.7 "/>
<path class="st0" d="M999.3,436.5l4,4c0,0,2.7-14.1,12.2-16.8c0,0,12.8-4.8,16.6-19.2l-41.4,23.4"/>
<polygon class="st35" points="763.4,663.6 859.7,623.8 872.4,633.2 762.2,681.1 "/>
<path class="st36" d="M831.1,384.4c0,0-27.3,21.7-46.6,19.4l8.2,71h-60.6c0,0,28.5-108.1,25.3-103.6
	C754.1,375.7,806.3,330.2,831.1,384.4z"/>
<ellipse class="st36" cx="757.3" cy="376.3" rx="15.7" ry="15"/>
<polygon class="st37" points="908.7,991.4 902.6,966.3 911.1,965.2 917,988.7 "/>
<polygon class="st37" points="913.4,1029.9 910.4,1004.1 918.9,1003 920.3,1029 "/>
<g>
	<path class="st38" d="M1372.2,416.8v62.5c0,0.5-0.4,0.9-1,0.9h-131.3c-0.3,0-0.5-0.2-0.5-0.5v-62.9c0-16.9,6.9-32.3,18.3-43.6l0,0
		c12.1-12.2,29.2-19.7,48.1-19.7c15,0,28.8,4.7,39.9,12.7C1361.7,377.7,1372.2,396.1,1372.2,416.8z"/>
	<path class="st38" d="M1283.9,481.7l17.4,83l-17.7-12l-22.1-15l-22.1-15.1l43.2-41.3C1283,480.8,1283.8,481,1283.9,481.7z"/>
	<path class="st38" d="M1372.2,522.5l-22.1,15.1l-22.1,15.1l-17.7,12l17.3-82.6c0.2-0.8,1.2-1.1,1.8-0.5L1372.2,522.5z"/>
	<polyline class="st38" points="1301.3,564.7 1283.6,480.2 1327.9,480.2 1310.2,564.7 1305.8,585.8 1301.3,564.7 	"/>
	<path class="st38" d="M1106.5,332.3l160.4,17c0.3,0,0.5,0.4,0.4,0.7l-9.7,23.2l0,0c-11.3,11.3-18.2,26.6-18.3,43.4
		c0,0.2-0.1,0.3-0.2,0.4c-3.8,2.4-59.9,38.1-65.7,41.8"/>
	<path class="st38" d="M1239.3,417.6v62c0,0.3-0.3,0.5-0.6,0.4l-65-20.7c-0.3-0.1-0.4-0.5-0.1-0.7l65-41.3
		C1238.9,417.1,1239.3,417.3,1239.3,417.6z"/>
	<path class="st38" d="M1438,459.3l-65.4,20.8c-0.2,0.1-0.4-0.1-0.4-0.3v-63l65.8,41.9C1438.3,458.8,1438.2,459.2,1438,459.3z"/>
	<path class="st38" d="M1360,347.7l-54.2,5.7c-18.9,0-36,7.6-48.1,19.7l10-23.8l16-38.2l22.1,10.6L1360,347.7z"/>
	<path class="st39" d="M1359.2,347.3c0.2,0.1,0.3-0.1,0.2-0.2l-36.8-39.2c-4.7-5.1-10.5-9.2-16.8-12.2c-7.7-3.7-16.3-5.6-25.2-5.6
		h-41.3l44.3,21.1l22.1,10.6L1359.2,347.3z"/>
	<polygon class="st38" points="1261.5,537.7 1261.5,564.8 1283.6,552.7 	"/>
	<path class="st38" d="M1283.6,552.7v22.6l15.9-9.5c0.9-0.5,0.9-1.7,0.1-2.3L1283.6,552.7z"/>
	<path class="st38" d="M1327.9,552.7v22.6l-16.2-9.7c-0.7-0.4-0.7-1.4-0.1-1.9L1327.9,552.7z"/>
	<polygon class="st38" points="1350.1,537.6 1350.1,564.7 1327.9,552.7 	"/>
	<path class="st38" d="M1505.1,332.3L1439,458.4c-0.2,0.3-0.6,0.5-1,0.2l-65.8-41.9c0-20.7-10.5-39.1-26.6-50.7
		c-11.1-8-24.9-12.7-39.9-12.7l54.2-5.7l0,0L1505.1,332.3z"/>
	<ellipse class="st38" cx="1305.8" cy="416.8" rx="27.7" ry="26.4"/>
</g>
<path class="st21" d="M916.6,986l-5.5-20.8l228.8-76.8c0,0,38.1-0.8,3,22.6L916.6,986z"/>
<path class="st30" d="M835.6,400.2c0,0-1.2,2-3.6,5.1c-6.6,8.9-22.2,27.1-43.4,35.2C788.7,440.5,826.4,441,835.6,400.2z"/>
<polygon class="st35" points="956.7,711.3 968,909.7 1011.4,901.2 "/>
<polygon class="st35" points="826.2,802 741,959.4 799.7,965.2 "/>
<rect y="1490.8" class="st40" width="3061.4" height="28.1"/>
</svg>
