<?xml version="1.0" encoding="utf-8"?>
<!-- Generator: Adobe Illustrator 24.1.1, SVG Export Plug-In . SVG Version: 6.00 Build 0)  -->
<svg version="1.1" id="Layer_1" xmlns="http://www.w3.org/2000/svg" xmlns:xlink="http://www.w3.org/1999/xlink" x="0px" y="0px"
	 viewBox="0 0 3061.42 3061.42" style="enable-background:new 0 0 3061.42 3061.42;" xml:space="preserve">
<style type="text/css">
	.st0{fill:#F9E9E4;}
	.st1{fill:#F8DCC4;}
	.st2{fill:#838383;}
	.st3{fill:#354293;}
	.st4{fill:#CCC2C2;}
	.st5{fill:#4ABBC2;}
	.st6{fill:#BCE0E1;}
	.st7{fill:#F7AB21;}
	.st8{fill:#F6D8CD;}
	.st9{fill:#124167;}
	.st10{fill:#C6C3C2;}
	.st11{fill:#DBD6D5;}
	.st12{fill:none;stroke:#A94117;stroke-miterlimit:10;}
	.st13{fill:#716E6E;}
	.st14{fill:#ED711A;}
	.st15{fill:#DB3215;}
	.st16{fill:#1095B3;}
	.st17{fill:none;}
	.st18{clip-path:url(#SVGID_2_);fill:#FFFCFC;}
	.st19{fill:#E8F3F3;}
	.st20{fill:none;stroke:#4D4F4F;stroke-miterlimit:10;}
	.st21{fill:#12B1CB;}
	.st22{fill:none;stroke:#383A3A;stroke-miterlimit:10;}
	.st23{fill:#E4AB82;}
	.st24{fill:#C13233;}
	.st25{fill:#182A48;}
	.st26{fill:#7B463E;}
	.st27{fill:#CECECE;}
	.st28{fill:#D7D6D6;}
	.st29{fill:#4465AC;}
	.st30{fill:#EF800D;}
	.st31{fill:#005289;}
	.st32{fill:#010101;}
	.st33{font-family:'RobotoCondensed-Light';}
	.st34{font-size:89.7637px;}
	.st35{letter-spacing:9;}
	.st36{letter-spacing:8;}
	.st37{font-size:34.6807px;}
	.st38{letter-spacing:3;}
	.st39{letter-spacing:1;}
	.st40{font-size:33.1359px;}
	.st41{letter-spacing:2;}
	.st42{clip-path:url(#SVGID_4_);fill:#E4AB82;}
	.st43{clip-path:url(#SVGID_4_);fill:#512619;}
	.st44{clip-path:url(#SVGID_4_);fill:#D86D11;}
	.st45{clip-path:url(#SVGID_4_);fill:none;stroke:#A1B0B7;stroke-width:3;stroke-miterlimit:10;}
	.st46{clip-path:url(#SVGID_4_);fill:none;stroke:#9C9E9F;stroke-width:3;stroke-miterlimit:10;}
	.st47{clip-path:url(#SVGID_4_);fill:none;stroke:#118C99;stroke-width:3;stroke-miterlimit:10;}
	.st48{clip-path:url(#SVGID_4_);fill:none;stroke:#002E37;stroke-width:3;stroke-miterlimit:10;}
	.st49{clip-path:url(#SVGID_4_);fill:#182A48;}
	.st50{clip-path:url(#SVGID_4_);fill:#888787;}
	.st51{clip-path:url(#SVGID_4_);fill:#C6C8C9;}
	.st52{clip-path:url(#SVGID_4_);fill:#B782B7;}
	.st53{clip-path:url(#SVGID_4_);fill:#503126;}
	.st54{clip-path:url(#SVGID_4_);fill:#C299C6;}
	.st55{clip-path:url(#SVGID_4_);fill:#39173D;}
	.st56{clip-path:url(#SVGID_4_);fill:#472015;}
	.st57{clip-path:url(#SVGID_4_);fill:#7C7A7A;}
	.st58{clip-path:url(#SVGID_4_);fill:#91908F;}
	.st59{clip-path:url(#SVGID_4_);fill:#E95433;}
	.st60{clip-path:url(#SVGID_4_);fill:#A03916;}
	.st61{clip-path:url(#SVGID_4_);fill:#532818;}
	.st62{clip-path:url(#SVGID_4_);fill:#375424;}
	.st63{clip-path:url(#SVGID_4_);fill:#FDE4C5;}
	.st64{clip-path:url(#SVGID_4_);fill:none;stroke:#EFF0F1;stroke-miterlimit:10;}
	.st65{clip-path:url(#SVGID_4_);fill:#CD631E;}
	.st66{clip-path:url(#SVGID_4_);fill:#4465AC;}
	.st67{clip-path:url(#SVGID_4_);fill:#C62F27;}
	.st68{clip-path:url(#SVGID_4_);fill:#CCC9CA;}
	.st69{clip-path:url(#SVGID_4_);fill:#CCC6C7;}
	.st70{opacity:0.91;}
	.st71{clip-path:url(#SVGID_6_);fill:#2F3F92;}
	.st72{clip-path:url(#SVGID_6_);fill:#F7C420;}
	.st73{clip-path:url(#SVGID_6_);fill:#C31617;}
	.st74{clip-path:url(#SVGID_6_);fill:#EEEEED;}
	.st75{clip-path:url(#SVGID_6_);fill:#010101;}
	.st76{opacity:0.2;clip-path:url(#SVGID_6_);}
	.st77{clip-path:url(#SVGID_8_);fill:#010101;}
	.st78{fill:#FFFFFF;}
</style>
<rect class="st0" width="3061.42" height="3061.42"/>
<path class="st1" d="M617.77,707.85c-146.83-94.36-78.7-233.1,18.31-378.2c97.01-145.09,304.84-197.75,465.08-128.56
	c73.09,31.56,135.26,83.79,205.56,121.16c137.99,73.33,307.22,85.22,454.11,31.9c78.8-28.6,151.94-75.08,234.68-88.57
	c84.07-13.71,170.62,8.36,247.68,44.65c64.1,30.19,126.28,73.37,156.43,137.48c38.24,81.29,17.39,176.28,16.3,266.11
	c-1.16,94.68,21.11,189.57,64.25,273.86c51.04,99.73,133.21,209.31,86.33,311.07c-38.96,84.57-156.35,123.27-170.19,215.35
	c-11.53,76.68,55.78,138.92,101.55,201.52c89.11,121.87,104.09,293.8,37.4,429.24c-44.23,89.82-118.99,160.43-175.75,242.91
	c-56.76,82.48-95.6,190.03-56.07,282.02c16.28,37.87,44.66,69.92,58.4,108.79c33.91,95.91-40.75,207.75-139.44,232.46
	c-98.68,24.71-205.55-24.27-270.61-102.48c-37.64-45.25-63.71-99.2-101.37-144.44c-94.71-113.76-254.58-158.5-401.75-142.56
	c-120.36,13.04-233.57,61.36-349.48,96.31c-115.91,34.94-242.62,56.28-356.58,15.4c-121.95-43.75-214.06-161.12-227.57-289.97
	c-13.52-128.85,52.25-262.78,162.47-330.87c27.42-16.94,57.38-30.18,81.94-51.05c84.08-71.44,76.19-207.63,23.99-304.83
	c-52.21-97.19-137.81-172.01-199.53-263.47c-61.71-91.46-97.02-216.93-38.01-310.16c28.71-45.36,75.52-76.07,109.35-117.74
	C739.11,961.87,721.24,791.51,617.77,707.85"/>
<path class="st2" d="M1022.24,1013.24c-9.2-5.52-11.67-18.29-5.53-28.53c6.14-10.24,18.58-14.06,27.78-8.54
	c9.2,5.52,11.68,18.29,5.53,28.53C1043.88,1014.94,1031.44,1018.77,1022.24,1013.24"/>
<polygon class="st2" points="1122.19,1149.78 1166.94,1251.96 1193.86,1280.2 1177.47,1205.82 "/>
<polyline class="st2" points="1000.84,1250.53 1181.25,1469.76 1208.68,1442.06 1098.43,1309.9 1000.92,1246.28 "/>
<rect x="957.64" y="1079.91" transform="matrix(0.7609 -0.6489 0.6489 0.7609 -488.355 905.904)" class="st3" width="54.82" height="71.38"/>
<rect x="1714.56" y="1905.65" transform="matrix(0.7884 -0.6152 0.6152 0.7884 -769.9216 1696.1108)" class="st4" width="731.34" height="122.89"/>
<path class="st4" d="M1848.2,1662.43c-137.22,107.09-159.8,307.1-50.47,447.19l85.61-63.27c0,0-122.26-154.42,29.93-291.93
	c152.19-137.51,0,0,0,0s146.56-124.86,293.77,39.33c147.2,164.18,0,0,0,0l82.18-67.67c-109.32-140.09-308.83-166.8-446.05-59.71"/>
<path class="st5" d="M2229.04,2357.75c0,51.4-307.65,93.06-687.16,93.06s-687.16-41.67-687.16-93.06s307.65-93.06,687.16-93.06
	S2229.04,2306.35,2229.04,2357.75"/>
<path class="st6" d="M2229.04,2275.33c0,51.4-307.65,93.06-687.16,93.06s-687.16-41.67-687.16-93.06
	c0-51.39,307.65-93.06,687.16-93.06S2229.04,2223.94,2229.04,2275.33"/>
<path class="st5" d="M2154.78,2234.32c0,49.84-277.77,90.24-620.42,90.24c-342.64,0-620.41-40.41-620.41-90.24
	c0-49.84,277.77-90.24,620.41-90.24C1877.01,2144.07,2154.78,2184.48,2154.78,2234.32"/>
<path class="st6" d="M2154.78,2159.98c0,49.84-277.77,90.24-620.42,90.24c-342.64,0-620.41-40.4-620.41-90.24
	c0-49.84,277.77-90.24,620.41-90.24C1877.01,2069.74,2154.78,2110.15,2154.78,2159.98"/>
<rect x="1662.07" y="1524.44" transform="matrix(0.6088 -0.7933 0.7933 0.6088 -503.1444 2160.1577)" class="st7" width="553.32" height="131.6"/>
<polygon class="st8" points="2054.95,1330.7 2268.26,1160.83 2159.36,1410.82 "/>
<polygon class="st9" points="2194.34,1218.54 2278.48,1147.48 2231.61,1247.15 "/>
<path class="st2" d="M993.67,775.78l7.44-4.65l-13.94-22.33c0,0,0.66,6.97-14.01-14.16l38.28-23.89l5.71,0.87l113.9-75.54
	l-37.86-7.39l-135.4,46.12l-91.83,57.33l17.59,28.17l-5.98,2.26l9.29,14.89l-37.87,22.17l36.28-9.35l27.97-16.73
	c0,0,6.84-7.97,11.42,13.56l14.27,22.86L993.67,775.78z"/>
<polygon class="st10" points="877.42,762.57 867.85,768.55 863,767.88 823.66,792.44 840.93,796.43 885.33,775.25 "/>
<path class="st2" d="M864.44,791.61l-13.15,17.29l-5.33,21.06l41.47-25.89l2.59-5.31l16.54-6.63l15.27,24.45l124.79,199.88
	l27.64-17.26L951.6,797.99l-12.76,7.96l-14.27-22.86c0,0-3.87-18.07-11.42-13.56c-7.55,4.51-27.97,16.73-27.97,16.73L864.44,791.61z
	"/>
<path class="st2" d="M987.82,779.43l124.79,199.88l29.24-18.25l-88.28-141.4c0,0-8.43-2.86,9.71-22.32
	c18.14-19.45,79.22-84.92,79.22-84.92l12.77-37.53l-116.95,73.02c0,0,0.2,5.05-11.63,10.95
	C1014.87,764.76,987.82,779.43,987.82,779.43"/>
<rect x="1167.83" y="722.11" transform="matrix(0.8483 -0.5296 0.5296 0.8483 -434.1165 815.8864)" class="st10" width="77.71" height="886.76"/>
<rect x="1172.21" y="722.73" transform="matrix(0.8483 -0.5296 0.5296 0.8483 -433.9157 815.0158)" class="st11" width="66.12" height="883.94"/>
<path class="st12" d="M1479.14,1210.8l-22.57,37.62l6.05,3.63l12.58-20.96c0,0,6.53-6.31,11.69-0.29l6.77-11.28L1479.14,1210.8z"/>
<path class="st13" d="M959.63,902.49l-13.52-20.36c-0.96-1.44-2.9-1.84-4.34-0.88l-5.74,3.81c-1.44,0.96-1.83,2.9-0.88,4.34
	l13.52,20.36c0.96,1.44,2.9,1.84,4.34,0.88l5.74-3.81C960.19,905.87,960.58,903.93,959.63,902.49"/>
<path class="st2" d="M962.92,892.72l-6.53-9.83c-0.96-1.44-2.9-1.83-4.34-0.88l-1.56,1.04c-1.44,0.95-1.83,2.9-0.88,4.34l6.53,9.83
	c0.96,1.44,2.9,1.83,4.34,0.88l1.57-1.04C963.48,896.1,963.87,894.16,962.92,892.72"/>
<rect x="959.02" y="881.96" transform="matrix(0.8331 -0.5531 0.5531 0.8331 -329.2236 680.3713)" class="st2" width="7.52" height="7.52"/>
<rect x="910.94" y="697.96" transform="matrix(0.8483 -0.5296 0.5296 0.8483 -252.9347 611.5576)" class="st10" width="59.54" height="98.39"/>
<path class="st14" d="M1058.94,1099.86l-95.51,82.09c0,0-21.07,22.74,10.72,45.98l95.41,80.8c0,0,14.46,14.08,35.98-3.75
	c21.52-17.83,61.41-53.01,61.41-53.01s14.57-14.97-2.52-39.93c-17.08-24.96-67.69-99.92-67.69-99.92S1084.31,1085.3,1058.94,1099.86
	"/>
<path class="st15" d="M2316.14,978.65l-55.92-44.92l10.04-12.51c18.33-22.82,14.69-56.17-8.13-74.5l-45.91-36.87
	c-22.82-18.33-56.18-14.69-74.5,8.13l-10.05,12.51l-58.07-46.64c-37.58-30.19-92.53-24.19-122.71,13.39l-10.38,12.93
	c-3.23,4.02-2.59,9.89,1.43,13.12l364.09,292.44c4.02,3.23,9.89,2.59,13.12-1.43l10.39-12.93
	C2359.72,1063.78,2353.72,1008.84,2316.14,978.65"/>
<path class="st16" d="M1876.82,2154.67h-659.9c-30.37,0-54.99-24.62-54.99-54.99V638.88c0-30.37,24.62-54.99,54.99-54.99h659.9
	c30.37,0,54.99,24.62,54.99,54.99v1460.8C1931.81,2130.05,1907.19,2154.67,1876.82,2154.67"/>
<rect x="425.18" y="11.88" class="st17" width="2191.67" height="3099.64"/>
<g>
	<defs>
		<path id="SVGID_1_" d="M1235.75,2000.09h617.96c31.05,0,56.22-25.17,56.22-56.22V736.51c0-31.05-25.17-56.22-56.22-56.22h-617.96
			c-31.05,0-56.22,25.17-56.22,56.22v1207.36C1179.53,1974.92,1204.7,2000.09,1235.75,2000.09z"/>
	</defs>
	<use xlink:href="#SVGID_1_"  style="overflow:visible;fill:#FFFCFC;"/>
	<clipPath id="SVGID_2_">
		<use xlink:href="#SVGID_1_"  style="overflow:visible;"/>
	</clipPath>
	<rect x="1179.53" y="680.3" class="st18" width="730.4" height="1319.8"/>
</g>
<path class="st19" d="M1584.94,654.39h-84.6c-7.79,0-14.1-6.31-14.1-14.1c0-7.79,6.31-14.1,14.1-14.1h84.6
	c7.79,0,14.1,6.31,14.1,14.1C1599.04,648.07,1592.73,654.39,1584.94,654.39"/>
<path class="st20" d="M1584.94,654.39h-84.6c-7.79,0-14.1-6.31-14.1-14.1c0-7.79,6.31-14.1,14.1-14.1h84.6
	c7.79,0,14.1,6.31,14.1,14.1C1599.04,648.07,1592.73,654.39,1584.94,654.39z"/>
<path class="st21" d="M1587.76,2081.34c0,24.92-20.2,45.12-45.12,45.12c-24.92,0-45.12-20.2-45.12-45.12s20.2-45.12,45.12-45.12
	C1567.56,2036.22,1587.76,2056.42,1587.76,2081.34"/>
<path class="st22" d="M1587.76,2081.34c0,24.92-20.2,45.12-45.12,45.12c-24.92,0-45.12-20.2-45.12-45.12s20.2-45.12,45.12-45.12
	C1567.56,2036.22,1587.76,2056.42,1587.76,2081.34z"/>
<path class="st5" d="M854.73,2275.33v82.41l70.91-41.21C925.64,2316.54,863.19,2300.11,854.73,2275.33"/>
<path class="st5" d="M2229.04,2275.33v82.41l-70.9-41.21C2158.14,2316.54,2242.8,2293.95,2229.04,2275.33"/>
<polygon class="st5" points="913.95,2163.14 913.95,2234.32 964.09,2198.73 "/>
<polyline class="st5" points="2104.64,2198.73 2154.78,2163.14 2154.78,2234.32 "/>
<path class="st23" d="M1497.52,1986.87c0,16.35-13.26,29.61-29.61,29.61c-16.35,0-29.61-13.26-29.61-29.61
	c0-16.35,13.26-29.61,29.61-29.61C1484.26,1957.26,1497.52,1970.52,1497.52,1986.87"/>
<path class="st24" d="M1431.7,2027.29h68.59c4.86,0,9.44,2.18,12.49,5.95c12.85,15.93,46.64,60.56,50.06,93.22
	c4.23,40.42-41.83,37.59-41.83,37.59v-79.9h-109.51v70.51c0,0-26.79,9.4-31.96-2.35c-5.04-11.44-19.44-23.78,38.47-117.38
	C1420.94,2030.2,1426.13,2027.29,1431.7,2027.29"/>
<path class="st25" d="M1379.55,2152.32c0,0-39.01,7.99-10.81,38.07l109.75,41.1v-55.66h-74.96l-0.94-11.71h8.46l0.47-9.44
	C1411.51,2154.67,1384.72,2167.41,1379.55,2152.32"/>
<path class="st25" d="M1438.3,2200.42l15.04,49.81c0,0,119.07-48.25,127.85-70.34c8.77-22.09-18.42-31.46-31.77-22.39
	C1536.06,2166.58,1438.3,2200.42,1438.3,2200.42"/>
<path class="st26" d="M1418.49,2209.02c0,0-12.29,13.42,0,22.47c12.29,9.04,30.13,3.12,30.13,3.12l-4.87-16.13L1418.49,2209.02z"/>
<path class="st26" d="M1487.11,2235.75c0,0,34.53,2.36,36.42-4.27c1.88-6.63,0-12.82,0-12.82l-26.97,12.82L1487.11,2235.75z"/>
<polygon class="st27" points="1931.81,1125.65 2082.61,937.89 2163.78,1003.08 1931.81,1291.89 "/>
<path class="st28" d="M1161.93,1303c0,0-344.05,260.76-335.59,258.7c8.46-2.07,335.59,358.9,335.59,358.9V1303z"/>
<path class="st14" d="M950.98,1113.69l37.55-32.02c7.76-6.62,8.69-18.27,2.07-26.03l-82.99-97.32c-6.62-7.76-18.27-8.69-26.03-2.07
	l-37.55,32.02c-7.76,6.62-8.69,18.27-2.07,26.03l82.99,97.32C931.57,1119.38,943.23,1120.3,950.98,1113.69"/>
<path class="st29" d="M976.84,1209.61c3.07,8.46,12.43,12.82,20.88,9.74c8.46-3.07,12.82-12.43,9.74-20.88
	c-3.08-8.46-12.43-12.82-20.88-9.75C978.13,1191.81,973.77,1201.15,976.84,1209.61"/>
<path class="st23" d="M1343.91,1251.89c0,14.28-11.58,25.85-25.85,25.85c-14.28,0-25.85-11.57-25.85-25.85
	c0-14.28,11.57-25.85,25.85-25.85C1332.34,1226.04,1343.91,1237.61,1343.91,1251.89"/>
<rect x="1308.9" y="1275.58" class="st23" width="14.76" height="14.27"/>
<path class="st30" d="M1408.22,1244.25c0,0-26.32,49.35-24.44,60.63c0,0-61.4-26-94.11-11.46c-8.61,3.83-13.88,12.7-13.88,22.12
	v117.18h63.81c0,0,17.86-83.19,0-94.23l53.58-9.17c0,0,26.32-28.2,31.96-75.2L1408.22,1244.25z"/>
<path class="st31" d="M1275.79,1432.73c0,0-6.47,18.8,0,54.52c6.47,35.72-35.61,204.92-35.61,204.92l27.56-7.52l39.13-154.17
	l22.39,161.68h32.43l-22.09-259.45H1275.79z"/>
<path class="st24" d="M1267.74,1684.64c0,0,31.43-3.7,25.79,7.4c-5.64,11.1-56.87,11.1-56.87,11.1l3.52-11.1"/>
<path class="st24" d="M1352.77,1684.65c0,0,31.43-3.76,25.79,7.52c-5.64,11.28-56.87,11.28-56.87,11.28l3.52-11.28"/>
<path class="st23" d="M2092.18,1918.89c0,18.38-13.19,33.28-29.46,33.28c-3.54,0-6.94-0.71-10.09-2
	c-11.3-4.65-19.37-16.9-19.37-31.28c0-18.38,13.19-33.28,29.46-33.28C2079,1885.61,2092.18,1900.51,2092.18,1918.89"/>
<rect x="425.18" y="11.88" class="st17" width="2191.67" height="3099.64"/>
<text transform="matrix(1 0 0 1 1380.9612 1423.4076)"><tspan x="0" y="0" class="st32 st33 st34 st35">M</tspan><tspan x="76.8" y="0" class="st32 st33 st34 st36">A</tspan><tspan x="134.91" y="0" class="st32 st33 st34 st36">RK</tspan><tspan x="251.48" y="0" class="st32 st33 st34 st36">U</tspan><tspan x="311.56" y="0" class="st32 st33 st34">T</tspan></text>
<text transform="matrix(1 0 0 1 1427.9387 1507.6986)"><tspan x="0" y="0" class="st32 st33 st37 st38">ww</tspan><tspan x="52.11" y="0" class="st32 st33 st37 st39">w</tspan><tspan x="76.09" y="0" class="st32 st33 st37 st38">.</tspan><tspan x="87.84" y="0" class="st32 st33 st37 st38">m</tspan><tspan x="117.71" y="0" class="st32 st33 st37 st38">a</tspan><tspan x="137.5" y="0" class="st32 st33 st37 st38">rkut</tspan><tspan x="203.51" y="0" class="st32 st33 st37 st38">.</tspan><tspan x="215.26" y="0" class="st32 st33 st37 st38">ne</tspan><tspan x="254.69" y="0" class="st32 st33 st37">t</tspan></text>
<text transform="matrix(1 0 0 1 1397.8772 1952.1771)"><tspan x="0" y="0" class="st32 st33 st40 st41">A</tspan><tspan x="20.66" y="0" class="st32 st33 st40 st38">ylık</tspan><tspan x="75.96" y="0" class="st32 st33 st40 st38"> D</tspan><tspan x="108.91" y="0" class="st32 st33 st40 st38">i</tspan><tspan x="119.16" y="0" class="st32 st33 st40 st38">j</tspan><tspan x="129.53" y="0" class="st32 st33 st40 st38">it</tspan><tspan x="152.68" y="0" class="st32 st33 st40 st38">a</tspan><tspan x="171.59" y="0" class="st32 st33 st40 st38">l</tspan><tspan x="181.84" y="0" class="st32 st33 st40 st38"> D</tspan><tspan x="214.79" y="0" class="st32 st33 st40 st38">e</tspan><tspan x="233.23" y="0" class="st32 st33 st40 st41">r</tspan><tspan x="246.23" y="0" class="st32 st33 st40 st38">g</tspan><tspan x="265.63" y="0" class="st32 st33 st40">i</tspan></text>
<g>
	<defs>
		<rect id="SVGID_3_" x="425.18" y="11.88" width="2191.67" height="3099.64"/>
	</defs>
	<clipPath id="SVGID_4_">
		<use xlink:href="#SVGID_3_"  style="overflow:visible;"/>
	</clipPath>
	<path class="st42" d="M1408.22,1244.25c0,0,11.28-45.48,16.92-43.18c5.64,2.29,0,21.55,0,21.55l11.91,8.8l-11.91,22.71
		L1408.22,1244.25z"/>
	<path class="st43" d="M1310.39,1245c-1.43-3.97,1.9-8.03,6.06-7.31c10.26,1.79,24.96,3.27,28.01-2.13
		c4.78-8.46,1.59-32.46-30.26-21.17c0,0-9.46,7.05-18.99,9.86c-4.9,1.44-8.27,5.91-8.72,11c-0.74,8.38,0.7,21.1,11.78,34.19
		C1314.95,1289.15,1318.28,1266.93,1310.39,1245"/>
	<polygon class="st44" points="1275.79,1327.7 1265.43,1432.73 1275.79,1432.73 	"/>
	<polygon class="st42" points="1265.44,1432.73 1273.76,1442.88 1275.79,1432.73 	"/>
	<polyline class="st45" points="1249.03,2002.55 1249.03,1709.73 1372.27,1700.95 1372.27,2001.6 	"/>
	<line class="st46" x1="1249.03" y1="1831.52" x2="1371.6" y2="1825.34"/>
	<line class="st46" x1="1249.03" y1="1950.79" x2="1371.6" y2="1946.56"/>
	<line class="st47" x1="1249.03" y1="2084.16" x2="1372.27" y2="2081.34"/>
	<line class="st48" x1="1205.12" y1="1831.52" x2="1325.75" y2="1831.52"/>
	<line class="st48" x1="1122.14" y1="2081.34" x2="1240.18" y2="2081.34"/>
	<line class="st48" x1="1166.74" y1="1950.79" x2="1288.12" y2="1950.79"/>
	<path class="st42" d="M1467.91,2051.26L1467.91,2051.26c-5.84,0-10.58-4.73-10.58-10.57v-26.09h21.15v26.09
		C1478.48,2046.53,1473.75,2051.26,1467.91,2051.26"/>
	<polygon class="st49" points="1478.48,2175.82 1501.31,2177.74 1478.48,2186.14 	"/>
	<polygon class="st50" points="1411.51,2084.16 1521.02,2084.16 1521.02,2164.06 1525.07,2164.06 1525.07,2176.6 1403.52,2175.82 
		1402.58,2164.11 1411.04,2164.11 	"/>
	<polygon class="st51" points="1402.58,2164.11 1525.07,2164.06 1525.07,2176.6 1403.52,2175.82 	"/>
	<path class="st42" d="M1844.26,1716.07v18.99c0,0-31.73,29.4-28.64,34.44c0,0-8.65-15.08,4.33-32.66c0,0,4.05-2.17,4.87-10.37
		C1824.81,1726.46,1839.53,1727.27,1844.26,1716.07"/>
	<path class="st52" d="M1795.71,1780.87l-21.72,31.59l-31.59-38.52l-10.78,10.01l21.11,39.02c7.47,13.79,25.98,16.75,37.34,5.94
		c5.03-4.8,11.16-10.7,18.59-17.99C1808.66,1810.92,1792,1810.15,1795.71,1780.87"/>
	<path class="st42" d="M1732.53,1782.81c-3.2,0.93-26.35,7.2-38.49-2.26c-1.15-0.89-0.6-2.76,0.84-2.98l19.62-3.02
		c1.28-0.2,1.89-1.71,1.08-2.72c-1.52-1.9-4.12-4.26-7.67-4.26c0,0-12.73-15.26,31.9,5.5c1.09,0.51,1.34,1.98,0.46,2.79l-7.07,6.56
		C1732.99,1782.61,1732.78,1782.74,1732.53,1782.81"/>
	<path class="st53" d="M1805.38,1713.14c0,0-20.93,34.74-2.4,47.24l24.65-33.14C1827.64,1727.24,1807.43,1727.66,1805.38,1713.14"/>
	<path class="st54" d="M1849.47,1856.76c0,0,51.66,13.87,25.85,141.76l-93.61,3.08l23.88-144.84H1849.47z"/>
	<path class="st42" d="M1781.71,2001.6l-20.8,137.91c0,0-30.05,33.9-36.98,30.82c0,0,41.6,6.16,47.76-26.2
		c6.16-32.36,44.17-122.5,43.28-142.53H1781.71z"/>
	<path class="st55" d="M1713.91,2165.7c0,0-11.56,4.62-4.23,14.64c7.32,10.01,29.66,0,29.66,0l30.12,0.77c0,0,19.19-1.54,2.24-36.98
		C1771.7,2144.13,1760.14,2183.42,1713.91,2165.7"/>
	<path class="st42" d="M1841.02,1999.64l3.24,147.57c0,0-2.63,31.59,12.49,29.27c15.11-2.31,13.04-10.01,0-32.36l12.32-145.4
		L1841.02,1999.64z"/>
	<path class="st55" d="M1844.13,2154.86c0,0-12.33,39.35,20.02,36.27c0,0,20.33-2.64,0-33.31c0,0,7.46,22.64-7.4,18.67
		C1856.75,2176.48,1844.29,2176.42,1844.13,2154.86"/>
	<path class="st42" d="M1728.56,1831.33c0,0-30.05-1.54-33.13-6.94c-3.08-5.39-1.54-19.26,5.39-18.49
		c6.93,0.77,23.88,6.16,27.73,12.32C1732.41,1824.4,1728.56,1831.33,1728.56,1831.33"/>
	<path class="st54" d="M1844.26,1733.49c0,0,52.16,15.41,5.21,123.27h-43.87v-46.99c0,0-32.26-15.11,11.53-69.19l-1.51,24.51
		L1844.26,1733.49z"/>
	<path class="st52" d="M1855.13,1740.57l-54.98,85.37l-71.6-7.7v13.1l77.04,16.95c0,0,45.92-30.82,49.54-60.86
		C1858.76,1757.37,1855.13,1740.57,1855.13,1740.57"/>
	<path class="st42" d="M1849.47,1702.59c0,13.62-11.04,24.65-24.65,24.65c-13.62,0-24.66-11.04-24.66-24.65
		c0-13.62,11.04-24.65,24.66-24.65C1838.43,1677.94,1849.47,1688.97,1849.47,1702.59"/>
	<path class="st53" d="M1813.33,1656.86c0,0-26.13,10.27-14.81,40.83h38.56l5.53-5.29c0,0,4.76,32.66,0,39.77
		c-4.76,7.12,24.81,33.14,24.81,33.14s20.34-34.5-12.32-94.59C1855.1,1670.73,1848.13,1653.78,1813.33,1656.86"/>
	<path class="st56" d="M1452.26,1970.13c0,7.1-6.23,12.86-13.91,12.86s-13.91-5.75-13.91-12.86c0-7.1,6.23-12.86,13.91-12.86
		S1452.26,1963.03,1452.26,1970.13"/>
	<path class="st56" d="M1483.03,1953.22c0,9.95-8.61,18.02-19.23,18.02c-10.63,0-19.24-8.07-19.24-18.02
		c0-9.95,8.61-18.02,19.24-18.02C1474.42,1935.2,1483.03,1943.27,1483.03,1953.22"/>
	<path class="st56" d="M1516.23,1968.14c-3.42,9.23-14.43,13.66-24.61,9.89c-10.17-3.77-15.65-14.3-12.23-23.53
		c3.42-9.23,14.44-13.65,24.61-9.89C1514.18,1948.38,1519.65,1958.91,1516.23,1968.14"/>
	<path class="st56" d="M1512.32,1981.3c0,6.89-5.59,12.48-12.47,12.48c-6.89,0-12.47-5.59-12.47-12.48
		c0-6.89,5.59-12.47,12.47-12.47C1506.74,1968.82,1512.32,1974.41,1512.32,1981.3"/>
	<path class="st56" d="M1439.74,1957.72c0,0,4.22,0.01,4.83-4.5l2.05,8.1L1439.74,1957.72z"/>
	<path class="st56" d="M1479.6,1942.94c0,0,3.52,2.48,10.46,1.41l-9.52,7.71L1479.6,1942.94z"/>
	
		<rect x="2115.93" y="2044.07" transform="matrix(0.3399 -0.9405 0.9405 0.3399 -490.8905 3393.4685)" class="st57" width="111.86" height="4.7"/>
	<rect x="2092.18" y="2090.82" class="st58" width="63.64" height="8.67"/>
	<path class="st42" d="M2121.22,2091.24c0,0,10.51-6.73,18.31-3.58c7.8,3.16,15.04,19.2,4.23,21.95
		c-10.81,2.75-22.54-4.45-22.54-4.45V2091.24z"/>
	<path class="st42" d="M2084.68,2108.92l69.26-7.86c8.08-0.92,15.72,3.88,18.4,11.56l41.01,117.72l-14.44,5.82
		c0,0-36.91-60.6-44.12-94.65l-90.46,24.61C2064.32,2166.12,2081.97,2144.48,2084.68,2108.92"/>
	<path class="st59" d="M2052.63,1950.17c0,0-14.45,7.46,0,29.28c14.45,21.82,22.09,54.56,10.09,79.66
		c-12,25.09,20.73,31.64,20.73,31.64s8.59,67.65-18.62,76.38h-56.67l-8.73-207.32l33.82-3.27v-20.73L2052.63,1950.17z"/>
	<path class="st60" d="M2021.96,1986.75c0,0,7.87-15.85,16.28,4.83c8.41,20.69,19.04,94.61,19.04,94.61l62.54,5.04v13.92
		c0,0-78.43,9.13-81.58,6.1c-3.15-3.03-19.42-87.17-19.42-87.17S2016.95,1983.89,2021.96,1986.75"/>
	<path class="st61" d="M2064.09,1904.42c0,0,28.68,33.02,38.92,0c10.24-33.02-30.73-50.94-46.1-47.17
		c-15.36,3.78-21.51,46.33-29.71,61.85c-8.19,15.51-30.73,22.12-30.73,22.12s-32.78,6.6-13.31,61.32
		c19.46,54.72-1.08,67.93-6.17,69.81c-5.1,1.89-13.29,49.06,21.53,43.4c34.83-5.66,20.49-86.79,20.49-86.79s-3.06-57.55,19.47-66.98
		C2061.01,1952.53,2064.09,1904.42,2064.09,1904.42"/>
	<path class="st62" d="M2191.58,2262.67c10.6,8,71.56,0,71.56,0s-1.24-36.26-26.41-28.92c0,0-15.87,6.87-21.45-6.33l-18.01,5.98
		L2191.58,2262.67z"/>
	<line class="st47" x1="1249.03" y1="2001.6" x2="1249.03" y2="2154.67"/>
	<line class="st47" x1="1371.6" y1="2001.6" x2="1371.6" y2="2154.06"/>
	<polyline class="st48" points="1091.1,2182.27 1249.03,1709.73 1372.27,1700.95 1203.8,2192.17 	"/>
	<polygon class="st63" points="994.06,1562.45 1161.93,1432.73 1161.93,1751.39 	"/>
	<line class="st64" x1="2075.02" y1="1346.1" x2="1931.81" y2="1533.31"/>
	<line class="st64" x1="2108.62" y1="1371.89" x2="1931.81" y2="1604.75"/>
	<line class="st64" x1="2143.61" y1="1398.74" x2="1931.81" y2="1677.94"/>
	<path class="st65" d="M989.24,1081.06l-21.25,18.12L861.03,973.76l21.25-18.12c7.71-6.57,19.28-5.65,25.85,2.05l83.16,97.52
		C997.87,1062.92,996.95,1074.49,989.24,1081.06"/>
	<path class="st65" d="M1008.45,1142.55l126.17,137.65l27.31-23.82v-47.99l-63.84-94.26c0,0-17.94-32.5-41.22-12.49
		C1033.6,1121.64,1008.45,1142.55,1008.45,1142.55"/>
	<path class="st66" d="M1059.41,1135.99c3.07,8.46,12.43,12.82,20.88,9.74c8.46-3.07,12.82-12.43,9.75-20.88
		c-3.08-8.46-12.43-12.82-20.88-9.74C1060.69,1118.19,1056.33,1127.54,1059.41,1135.99"/>
	<path class="st67" d="M2122.61,967.91l117.53-139.15l26.33,22.41c9.44,7.88,15.19,19.41,15.46,31.7
		c0.33,15.04-3.48,35.11-21.72,50.87l70.12,59.34c0,0,53,61.72-17.19,125.98L2122.61,967.91z"/>
	<polygon class="st68" points="860.9,1533.31 1166.28,1862.91 1161.93,1920.6 826.34,1561.7 	"/>
	<polygon class="st68" points="860.9,1533.31 883.43,1557.62 1161.93,1342.7 1161.93,1303 	"/>
	<polygon class="st69" points="2122.61,967.91 1931.81,1202.52 1931.81,1291.89 2163.78,1003.09 	"/>
</g>
<rect x="425.18" y="11.88" class="st17" width="2191.67" height="3099.64"/>
<g class="st70">
	<g>
		<defs>
			<rect id="SVGID_5_" x="1356.68" y="986.84" width="375.55" height="292.07"/>
		</defs>
		<clipPath id="SVGID_6_">
			<use xlink:href="#SVGID_5_"  style="overflow:visible;"/>
		</clipPath>
		<rect x="1481.87" y="1112.02" class="st71" width="125.18" height="62.59"/>
		<polygon class="st72" points="1607.05,1216.36 1586.17,1231.27 1565.3,1246.14 1548.62,1258.03 1540.26,1258.03 1523.58,1246.18 
			1481.87,1216.47 1523.58,1174.6 1565.3,1174.6 		"/>
		<polygon class="st72" points="1356.68,1028.55 1419.27,1153.73 1481.86,1112 		"/>
		<polygon class="st73" points="1565.3,1174.6 1548.62,1258.03 1544.46,1278.91 1540.3,1258.03 1540.26,1258.03 1523.58,1174.6 		
			"/>
		<polygon class="st72" points="1356.68,1028.55 1544.45,1049.41 1481.86,1112 		"/>
		<polygon class="st72" points="1732.23,1028.55 1669.64,1153.73 1607.05,1112.01 		"/>
		<polygon class="st74" points="1419.27,1153.73 1481.86,1112 1481.86,1174.59 		"/>
		<polygon class="st74" points="1669.64,1153.73 1607.05,1174.6 1607.05,1112.01 		"/>
		<polygon class="st73" points="1607.05,1049.5 1582.05,1061.98 1565.37,1070.34 1544.46,1080.76 1481.87,1112.01 1499.1,1068.94 
			1508.49,1045.41 1523.58,1007.71 1523.58,1007.67 1544.46,1018.13 1595.49,1043.68 1595.56,1043.75 		"/>
		<path class="st75" d="M1595.53,1043.75l-51.07-25.59l-20.88-10.46l-41.71-20.88h38.92c8.32,0,16.38,1.95,23.67,5.56
			c5.93,2.95,11.3,7.03,15.79,12.04l35.23,39.25L1595.53,1043.75z"/>
		<polygon class="st71" points="1502.72,1231.32 1502.72,1258.15 1523.59,1246.17 		"/>
		<polygon class="st71" points="1523.59,1246.17 1523.59,1268.5 1540.28,1258.04 		"/>
		<polygon class="st71" points="1565.3,1246.14 1565.3,1268.49 1548.62,1258.03 		"/>
		<polygon class="st71" points="1586.17,1231.27 1586.17,1258.03 1565.3,1246.14 		"/>
		<polygon class="st72" points="1732.23,1028.55 1607.05,1112.01 1544.46,1049.42 1595.53,1043.75 1595.56,1043.75 		"/>
		<path class="st71" d="M1607.04,1112c0-34.57-28.02-62.59-62.59-62.59c-34.57,0-62.59,28.02-62.59,62.59
			c0,34.57,28.02,62.59,62.59,62.59C1579.02,1174.59,1607.04,1146.57,1607.04,1112"/>
		<path class="st74" d="M1518.36,1112.01c0-14.4,11.68-26.08,26.08-26.08c14.4,0,26.08,11.67,26.08,26.08s-11.67,26.08-26.08,26.08
			C1530.04,1138.09,1518.36,1126.42,1518.36,1112.01"/>
		<g class="st76">
			<g>
				<defs>
					<rect id="SVGID_7_" x="1544.46" y="1028.55" width="187.77" height="250.36"/>
				</defs>
				<clipPath id="SVGID_8_">
					<use xlink:href="#SVGID_7_"  style="overflow:visible;"/>
				</clipPath>
				<polygon class="st77" points="1732.23,1028.55 1669.64,1153.73 1607.05,1174.6 1565.3,1174.6 1607.05,1216.35 1586.17,1231.27 
					1586.17,1258.07 1565.3,1246.14 1565.3,1268.49 1548.62,1258.07 1544.46,1278.91 1544.46,1049.42 1595.53,1043.75 
					1595.56,1043.75 				"/>
			</g>
		</g>
	</g>
</g>
<circle class="st78" cx="1676.37" cy="846.62" r="59.52"/>
</svg>
