<?xml version="1.0" encoding="utf-8"?>
<!-- Generator: Adobe Illustrator 24.1.1, SVG Export Plug-In . SVG Version: 6.00 Build 0)  -->
<svg version="1.1" id="Layer_1" xmlns="http://www.w3.org/2000/svg" xmlns:xlink="http://www.w3.org/1999/xlink" x="0px" y="0px"
	 viewBox="0 0 3061.42 3061.42" style="enable-background:new 0 0 3061.42 3061.42;" xml:space="preserve">
<style type="text/css">
	.st0{fill:url(#SVGID_1_);}
	.st1{fill:#631516;}
	.st2{fill:#EBECEC;}
	.st3{fill:#AAACAD;}
	.st4{fill:#192644;}
	.st5{fill:none;stroke:#0F0F0F;stroke-miterlimit:10;}
	.st6{fill:#ECB78D;}
	.st7{fill:none;stroke:#E21B1C;stroke-miterlimit:10;}
	.st8{fill:#1B1D1D;}
	.st9{fill:#CB4B4D;}
	.st10{fill:#BA212B;}
	.st11{fill:#E86535;}
	.st12{fill:#5E3D25;stroke:#1D1E1C;stroke-miterlimit:10;}
	.st13{fill:#274380;}
	.st14{fill:none;stroke:#141A2B;stroke-width:3;stroke-miterlimit:10;}
	.st15{fill:url(#SVGID_2_);}
	.st16{fill:#E8E8E9;}
</style>
<linearGradient id="SVGID_1_" gradientUnits="userSpaceOnUse" x1="2408.3257" y1="548.5562" x2="-713.5154" y2="4042.2585">
	<stop  offset="0.4495" style="stop-color:#25418E"/>
	<stop  offset="0.9184" style="stop-color:#23006B"/>
</linearGradient>
<rect class="st0" width="3061.42" height="3061.42"/>
<path class="st1" d="M1480.92,1634.83l29.53,31.66c0,0,35.98,41.6,44.46,43.37s34.83-13.72,30.4-37.47c0,0-74.23-47.21-69.06-63.25
	L1480.92,1634.83z"/>
<path class="st2" d="M417.31,2419.75l543-384.9c34.62-24.54,77.36-33.9,119.33-26.12l1177.86,218.07
	c28.02,5.19,38.95,41.68,18.39,61.38l-446.11,427.45c-38.29,36.69-91.83,51.08-143.54,38.59L423.19,2448.95
	C409.9,2445.74,406.25,2427.59,417.31,2419.75z"/>
<path class="st3" d="M413.13,2442.93l14.5,47.27c2.29,7.47,8.25,13.17,15.56,14.89l1292.45,304.13
	c32.21,7.58,65.46-1.61,89.12-24.63l457.3-445.04c13.98-13.6,19.01-34.61,12.94-54.04l-12.07-38.66c0,0,7.01,27.86-44.6,77.31
	c-51.61,49.45-465.36,426.26-465.36,426.26s-49.11,12.89-114.48-2.91C1593.12,2731.72,413.13,2442.93,413.13,2442.93z"/>
<polygon class="st4" points="565.12,2465.33 1128.97,2056.84 2131.86,2232.34 1640.51,2714 "/>
<ellipse transform="matrix(0.956 -0.2933 0.2933 0.956 -599.1267 349.8773)" class="st5" cx="867.09" cy="2172.71" rx="21.16" ry="16.5"/>
<path class="st5" d="M829.48,2201.49l-184.32,125.87c-1.69,1.15-3.99,0.63-5.14-1.17h0c-1.15-1.8-0.72-4.19,0.97-5.34l184.32-125.87
	c1.69-1.15,3.99-0.63,5.14,1.17l0,0C831.6,2197.95,831.17,2200.34,829.48,2201.49z"/>
<ellipse transform="matrix(0.956 -0.2933 0.2933 0.956 -639.9186 688.3485)" class="st5" cx="1975.32" cy="2477.97" rx="49.46" ry="31.94"/>
<ellipse transform="matrix(0.956 -0.2933 0.2933 0.956 -413.9588 453.7746)" class="st6" cx="1306.12" cy="1607.22" rx="78.09" ry="100.86"/>
<path class="st6" d="M1287.59,1689.14l3.13,71.62c0,0,33.09,53.46,67.48-1.75l-8.11-59.91L1287.59,1689.14z"/>
<path class="st6" d="M1358.98,1758.36c0,0,56.67,1.13,72,14.44c15.34,13.31,122.8,100.49,122.8,100.49l-45.85-160.63l39.76-13.94
	c0,0,89.11,221.81,92.73,241.72c3.62,19.9-41.4,29.21-52.43,31.1s-148.99-72.11-148.99-72.11S1312.47,1863.7,1358.98,1758.36z"/>
<path class="st6" d="M1237.89,1760.07c0,0-156.71,169.87,11.17,357.92C1249.06,2117.99,1194.53,1907.38,1237.89,1760.07z"/>
<path class="st7" d="M1499.15,1640.45c-3.5,2-35.02-46.51-35.02-46.51l45.01-28.98l23.65,56.3L1499.15,1640.45z"/>
<path class="st1" d="M1430.16,1602.77l-11.84,12.37l7.36,6.2l-5.97,5.76c0,0,10.69,23.24,26.11,27.74l7.72-4.82l11.6,7.22
	c0,0,9.8-1.15,9.51-17.85L1430.16,1602.77z"/>
<path class="st8" d="M1552.54,1391.52c0,0,73.99,45.2,102.22,116.88C1654.76,1508.4,1619.7,1505.9,1552.54,1391.52z"/>
<path class="st1" d="M1585.11,1443.63l21.69-34.04c0,0,17.48,36.3,32.91,40.85l-30.06,26.21
	C1609.66,1476.65,1575.85,1458.16,1585.11,1443.63z"/>
<path class="st9" d="M1606.81,1409.59c0,0,34.57,28.39,32.91,40.85C1639.72,1450.44,1625.66,1449.64,1606.81,1409.59z"/>
<path class="st10" d="M1430.16,1602.77c0,0,88.48-132.86,122.38-211.25c0,0,56.72,102.99,102.22,116.88l-180.1,130.98
	C1474.66,1639.38,1453.31,1635.06,1430.16,1602.77z"/>
<path class="st1" d="M1482.16,1517.72c0,0,36.57,58,71.18,67.27l15.81-13.51c0,0-37.11-9.37-76.95-74.15L1482.16,1517.72z"/>
<polyline class="st3" points="1554.11,1958.86 1564.73,1955.6 1623.43,2710.05 1612.12,2707.42 1554.11,1958.86 "/>
<path class="st11" d="M1290.72,1760.76c0,0-24.26,10.86-52.83-0.69c0,0-69.39,131.5,15.09,369.2l223.01,31.66
	c0,0-48.5-134.22-37.06-172.25c11.44-38.02,28.98-59.45,0.08-89.25c-28.9-29.8-80.03-141.07-80.03-141.07
	S1317.99,1809.92,1290.72,1760.76z"/>
<path class="st12" d="M1303.59,1503.77c7.52-0.82,15.1,0.65,22.16,3.75c9.56,4.19,26.54,3.58,31.22,12.21
	c6.04,11.14,29.03,10.93,27.33,20.32c-1.7,9.39,4.69,17.71,4.69,17.71s-36.27,31.05-50.64,26.05c-14.37-5.01-30.92-22.2-30.92-22.2
	s0,0,3.05,30.75c3.05,30.75-22.5,41.72-3.5,61.81c19,20.1,35.09,51.95,33.61,65.48c-1.48,13.54-2.33,28.92,18.37,38.72
	c20.69,9.79-31.34,31.05-60.97,18.15c-29.63-12.89-11.85,13.68-48.27-5.65s-57.55-28.78-57.12-72.8
	c0.43-44.02-36.92-71.61-4.07-110.97s15.29-69.05,64.55-76.54C1276.73,1506.97,1293.03,1504.93,1303.59,1503.77z"/>
<path class="st6" d="M1507.94,1712.67l-37.59-56.54l51.03-46.64c0,0,10.5-4.11,13.17,9.75c0,0,4.35-1.54,6.85,10.49
	c0,0,13.86,12.24,11.18,17.63c-2.68,5.39-30.3,22.22-30.3,22.22l25.42,29.15L1507.94,1712.67z"/>
<polyline class="st3" points="1573.88,2215.59 1572.76,2199.5 1323.83,2152.37 1319.92,2164.73 1573.88,2215.59 "/>
<polyline class="st3" points="1590.44,2412.13 1588.09,2397.26 1342.33,2350.72 1336.48,2361.27 1590.44,2412.13 "/>
<polygon class="st3" points="1352.25,2549.3 1606.21,2600.15 1603,2589.68 1356.12,2542.07 "/>
<path class="st13" d="M1265.86,2131.1c0,0-50.52,57.47-13.33,169.74c4.41,13.32,7.21,27.12,8.1,41.08
	c2.3,36.16,9.04,121.11,28.46,286.35l248.9,57.56c0,0-54.95-351.97-74.46-526.67L1265.86,2131.1z"/>
<line class="st14" x1="1404.53" y1="2658.18" x2="1367.31" y2="2295.5"/>
<g>
	<linearGradient id="SVGID_2_" gradientUnits="userSpaceOnUse" x1="1249.9393" y1="1336.0771" x2="2906.8958" y2="-308.5283">
		<stop  offset="0.3157" style="stop-color:#CC4E50"/>
		<stop  offset="0.8872" style="stop-color:#8C2D40"/>
	</linearGradient>
	<path class="st15" d="M3061.42,0l0,1391.52c-159.2,149.64-377.57,134.46-423.25,138.02c-47.12,3.68-94.56,2.1-139.96-11.05
		c-89.28-25.87-171.85-74.56-237.69-140.17c-49.75-49.56-90.49-108.87-147.57-149.77c-88.22-63.22-211.8-73.01-308.87-24.47
		c-97.07,48.54-162.01,137.86-164.35,246.36l-32.92-40.85c45.17-76.38,89.68-171.62,91.59-260.33
		c1.91-88.72-29.47-180.39-95.33-239.84c-54.14-48.87-125.72-72.39-193.67-98.9c-183.05-71.43-356.74-175.56-485.64-323.86
		C806.97,352.31,729.72,178.99,726.85,1.85L3061.42,0z"/>
</g>
<g>
	<g>
		<path class="st16" d="M842.02,2411.43c3.22,0,3.22-5,0-5C838.8,2406.43,838.8,2411.43,842.02,2411.43L842.02,2411.43z"/>
	</g>
</g>
<g>
	<g>
		<path class="st16" d="M919.97,2377.49c0-0.84,0-1.68,0-2.52c0.01-0.34-0.06-0.67-0.22-0.96c-0.1-0.31-0.27-0.58-0.52-0.8
			c-0.23-0.24-0.49-0.42-0.8-0.52c-0.3-0.16-0.62-0.23-0.96-0.22c-0.22,0.03-0.44,0.06-0.66,0.09c-0.42,0.12-0.79,0.33-1.1,0.64
			c-0.45,0.49-0.73,1.09-0.73,1.77c0,0.84,0,1.68,0,2.52c-0.01,0.34,0.06,0.67,0.22,0.96c0.1,0.31,0.27,0.58,0.52,0.8
			c0.23,0.24,0.49,0.42,0.8,0.52c0.3,0.16,0.62,0.23,0.96,0.22c0.22-0.03,0.44-0.06,0.66-0.09c0.42-0.12,0.79-0.33,1.1-0.64
			C919.69,2378.77,919.97,2378.17,919.97,2377.49L919.97,2377.49z"/>
	</g>
</g>
<g>
	<g>
		<path class="st16" d="M996.7,2462.99c3.22,0,3.22-5,0-5C993.48,2457.99,993.48,2462.99,996.7,2462.99L996.7,2462.99z"/>
	</g>
</g>
<g>
	<g>
		<path class="st16" d="M1033.17,2338.49c3.22,0,3.22-5,0-5C1029.95,2333.49,1029.95,2338.49,1033.17,2338.49L1033.17,2338.49z"/>
	</g>
</g>
<g>
	<g>
		<path class="st16" d="M970.29,2296.99c3.22,0,3.22-5,0-5C967.08,2291.99,967.07,2296.99,970.29,2296.99L970.29,2296.99z"/>
	</g>
</g>
<g>
	<g>
		<path class="st16" d="M1122.46,2201.42c3.22,0,3.22-5,0-5C1119.24,2196.42,1119.24,2201.42,1122.46,2201.42L1122.46,2201.42z"/>
	</g>
</g>
<g>
	<g>
		<path class="st16" d="M1181.56,2284.42c3.22,0,3.22-5,0-5C1178.35,2279.42,1178.34,2284.42,1181.56,2284.42L1181.56,2284.42z"/>
	</g>
</g>
<g>
	<g>
		<path class="st16" d="M1176.53,2436.58c3.22,0,3.22-5,0-5C1173.32,2431.58,1173.31,2436.58,1176.53,2436.58L1176.53,2436.58z"/>
	</g>
</g>
<g>
	<g>
		<path class="st16" d="M1127.49,2527.13c3.22,0,3.22-5,0-5C1124.27,2522.13,1124.27,2527.13,1127.49,2527.13L1127.49,2527.13z"/>
	</g>
</g>
<g>
	<g>
		<path class="st16" d="M1666.98,2554.79c3.22,0,3.22-5,0-5C1663.77,2549.79,1663.76,2554.79,1666.98,2554.79L1666.98,2554.79z"/>
	</g>
</g>
<g>
	<g>
		<path class="st16" d="M1858.13,2431.55c1.26,0,2.52,0,3.77,0c0.64,0,1.31-0.28,1.77-0.73c0.43-0.43,0.76-1.15,0.73-1.77
			c-0.03-0.65-0.24-1.32-0.73-1.77c-0.49-0.45-1.09-0.73-1.77-0.73c-1.26,0-2.52,0-3.77,0c-0.64,0-1.31,0.28-1.77,0.73
			c-0.43,0.43-0.76,1.15-0.73,1.77c0.03,0.65,0.24,1.32,0.73,1.77C1856.85,2431.27,1857.46,2431.55,1858.13,2431.55L1858.13,2431.55
			z"/>
	</g>
</g>
<g>
	<g>
		<path class="st16" d="M1677.04,2418.98c3.22,0,3.22-5,0-5C1673.83,2413.98,1673.82,2418.98,1677.04,2418.98L1677.04,2418.98z"/>
	</g>
</g>
<g>
	<g>
		<path class="st16" d="M1658.18,2246.69c0.84,0,1.68,0,2.52,0c0.34,0.01,0.67-0.06,0.96-0.22c0.31-0.1,0.58-0.27,0.8-0.52
			c0.24-0.23,0.42-0.49,0.52-0.8c0.16-0.3,0.23-0.62,0.22-0.96c-0.03-0.22-0.06-0.44-0.09-0.66c-0.12-0.42-0.33-0.79-0.64-1.1
			c-0.49-0.45-1.09-0.73-1.77-0.73c-0.84,0-1.68,0-2.52,0c-0.34-0.01-0.67,0.06-0.96,0.22c-0.31,0.1-0.58,0.27-0.8,0.52
			c-0.24,0.23-0.42,0.49-0.52,0.8c-0.16,0.3-0.23,0.62-0.22,0.96c0.03,0.22,0.06,0.44,0.09,0.66c0.12,0.42,0.33,0.79,0.64,1.1
			C1656.9,2246.41,1657.5,2246.69,1658.18,2246.69L1658.18,2246.69z"/>
	</g>
</g>
<g>
	<g>
		<path class="st16" d="M1926.04,2269.33c3.22,0,3.22-5,0-5C1922.82,2264.33,1922.82,2269.33,1926.04,2269.33L1926.04,2269.33z"/>
	</g>
</g>
<g>
	<g>
		<path class="st16" d="M1772.63,2327.19c0,0.42,0,0.84,0,1.26c-0.01,0.34,0.06,0.67,0.22,0.96c0.1,0.31,0.27,0.58,0.52,0.8
			c0.23,0.24,0.49,0.42,0.8,0.52c0.3,0.16,0.62,0.23,0.96,0.22c0.22-0.03,0.44-0.06,0.66-0.09c0.42-0.12,0.79-0.33,1.1-0.64
			c0.13-0.17,0.26-0.34,0.39-0.51c0.23-0.39,0.34-0.81,0.34-1.26c0-0.42,0-0.84,0-1.26c0.01-0.34-0.06-0.67-0.22-0.96
			c-0.1-0.31-0.27-0.58-0.52-0.8c-0.23-0.24-0.49-0.42-0.8-0.52c-0.3-0.16-0.62-0.23-0.96-0.22c-0.22,0.03-0.44,0.06-0.66,0.09
			c-0.42,0.12-0.79,0.33-1.1,0.64c-0.13,0.17-0.26,0.34-0.39,0.51C1772.75,2326.32,1772.64,2326.74,1772.63,2327.19L1772.63,2327.19
			z"/>
	</g>
</g>
<g>
	<g>
		<path class="st16" d="M1172.75,2125.98c0-0.84,0-1.68,0-2.52c0.01-0.34-0.06-0.67-0.22-0.96c-0.1-0.31-0.27-0.58-0.52-0.8
			c-0.23-0.24-0.49-0.42-0.8-0.52c-0.3-0.16-0.62-0.23-0.96-0.22c-0.22,0.03-0.44,0.06-0.66,0.09c-0.42,0.12-0.79,0.33-1.1,0.64
			c-0.45,0.49-0.73,1.09-0.73,1.77c0,0.84,0,1.68,0,2.52c-0.01,0.34,0.06,0.67,0.22,0.96c0.1,0.31,0.27,0.58,0.52,0.8
			c0.23,0.24,0.49,0.42,0.8,0.52c0.3,0.16,0.62,0.23,0.96,0.22c0.22-0.03,0.44-0.06,0.66-0.09c0.42-0.12,0.79-0.33,1.1-0.64
			C1172.46,2127.26,1172.75,2126.66,1172.75,2125.98L1172.75,2125.98z"/>
	</g>
</g>
<g>
	<g>
		<path class="st16" d="M1516.08,2280.64c3.22,0,3.22-5,0-5C1512.86,2275.64,1512.85,2280.64,1516.08,2280.64L1516.08,2280.64z"/>
	</g>
</g>
<g>
	<g>
		<path class="st16" d="M1535.45,2173.02c0.42-0.42,0.84-0.84,1.26-1.26c0.24-0.23,0.42-0.49,0.52-0.8c0.16-0.3,0.23-0.62,0.22-0.96
			c0.01-0.34-0.06-0.67-0.22-0.96c-0.1-0.31-0.27-0.58-0.52-0.8c-0.17-0.13-0.34-0.26-0.51-0.39c-0.39-0.23-0.81-0.34-1.26-0.34
			c-0.22,0.03-0.44,0.06-0.66,0.09c-0.42,0.12-0.79,0.33-1.1,0.64c-0.42,0.42-0.84,0.84-1.26,1.26c-0.24,0.23-0.42,0.49-0.52,0.8
			c-0.16,0.3-0.23,0.62-0.22,0.96c-0.01,0.34,0.06,0.67,0.22,0.96c0.1,0.31,0.27,0.58,0.52,0.8c0.17,0.13,0.34,0.26,0.51,0.39
			c0.39,0.23,0.81,0.34,1.26,0.34c0.22-0.03,0.44-0.06,0.66-0.09C1534.77,2173.54,1535.14,2173.33,1535.45,2173.02L1535.45,2173.02z
			"/>
	</g>
</g>
<g>
	<g>
		<path class="st16" d="M1500.98,2335.98c3.22,0,3.22-5,0-5C1497.77,2330.98,1497.76,2335.98,1500.98,2335.98L1500.98,2335.98z"/>
	</g>
</g>
<g>
	<g>
		<path class="st16" d="M1578.02,2476.21c-0.1,0.58-0.15,0.9,0,1.49c0.14,0.52,0.36,0.83,0.71,1.23c0.02,0.02,0.03,0.03,0.05,0.05
			c0.01,0.01,0.38,0.33,0.57,0.43c0.01,0.01,0.03,0.01,0.04,0.02c0.15,0.07,0.45,0.2,0.6,0.25c0.01,0,0.01,0.01,0.02,0.01
			c0.03,0.01,0.06,0.02,0.08,0.02c0.62,0.13,1.05,0.14,1.67,0c0.03-0.01,0.05-0.01,0.08-0.02c0.23-0.08,0.45-0.17,0.67-0.28
			c0.02-0.01,0.05-0.03,0.07-0.04c0.17-0.12,0.4-0.27,0.56-0.44c0.34-0.37,0.59-0.75,0.72-1.24c0.14-0.52,0.12-0.99,0-1.51
			c-0.08-0.33-0.23-0.61-0.45-0.85c-0.18-0.27-0.41-0.49-0.7-0.64c-0.29-0.18-0.6-0.28-0.93-0.3c-0.33-0.07-0.66-0.06-1,0.04
			c-0.2,0.08-0.4,0.17-0.6,0.25c-0.38,0.22-0.67,0.52-0.9,0.9c-0.08,0.2-0.17,0.4-0.25,0.6c-0.12,0.44-0.12,0.89,0,1.33
			c0,0.02,0.01,0.03,0.01,0.05c-0.03-0.22-0.06-0.44-0.09-0.66c0,0.03,0,0.06,0,0.09c0.03-0.22,0.06-0.44,0.09-0.66
			c0,0.03-0.01,0.06-0.02,0.08c0.08-0.2,0.17-0.4,0.25-0.6c-0.01,0.02-0.02,0.05-0.04,0.07c0.13-0.17,0.26-0.34,0.39-0.51
			c-0.02,0.03-0.04,0.05-0.07,0.07c0.17-0.13,0.34-0.26,0.51-0.39c-0.03,0.03-0.07,0.05-0.11,0.06c0.2-0.08,0.4-0.17,0.6-0.25
			c-0.06,0.03-0.12,0.04-0.19,0.05c0.22-0.03,0.44-0.06,0.66-0.09c-0.07,0.01-0.14,0.01-0.21,0c0.22,0.03,0.44,0.06,0.66,0.09
			c-0.06-0.01-0.11-0.02-0.17-0.04c0.2,0.08,0.4,0.17,0.6,0.25c-0.04-0.02-0.07-0.03-0.1-0.06c0.17,0.13,0.34,0.26,0.51,0.39
			c-0.02-0.02-0.05-0.04-0.07-0.06c0.13,0.17,0.26,0.34,0.39,0.51c-0.02-0.02-0.03-0.04-0.04-0.07c0.08,0.2,0.17,0.4,0.25,0.6
			c-0.01-0.03-0.02-0.06-0.02-0.08c0.03,0.22,0.06,0.44,0.09,0.66c0-0.03,0-0.06,0-0.1c-0.03,0.22-0.06,0.44-0.09,0.66
			c0-0.01,0-0.01,0-0.02c0.1-0.33,0.12-0.66,0.04-1c-0.02-0.33-0.11-0.64-0.3-0.93c-0.16-0.29-0.37-0.53-0.64-0.7
			c-0.24-0.22-0.52-0.37-0.85-0.45c-0.22-0.03-0.44-0.06-0.66-0.09c-0.45,0-0.87,0.12-1.26,0.34c-0.17,0.13-0.34,0.26-0.51,0.39
			C1578.36,2475.42,1578.14,2475.79,1578.02,2476.21L1578.02,2476.21z"/>
	</g>
</g>
<g>
	<g>
		<path class="st16" d="M1550.03,2557.31c3.22,0,3.22-5,0-5C1546.81,2552.31,1546.81,2557.31,1550.03,2557.31L1550.03,2557.31z"/>
	</g>
</g>
<g>
	<g>
		<path class="st16" d="M1553.8,2644.08c3.22,0,3.22-5,0-5C1550.59,2639.08,1550.58,2644.08,1553.8,2644.08L1553.8,2644.08z"/>
	</g>
</g>
<g>
	<g>
		<path class="st16" d="M1576.44,2680.55c3.22,0,3.22-5,0-5C1573.22,2675.55,1573.22,2680.55,1576.44,2680.55L1576.44,2680.55z"/>
	</g>
</g>
<g>
	<g>
		<path class="st16" d="M667.22,2434.07c3.22,0,3.22-5,0-5C664,2429.07,664,2434.07,667.22,2434.07L667.22,2434.07z"/>
	</g>
</g>
<g>
	<g>
		<path class="st16" d="M899.87,2503.23c3.22,0,3.22-5,0-5C896.65,2498.23,896.65,2503.23,899.87,2503.23L899.87,2503.23z"/>
	</g>
</g>
<g>
	<g>
		<path class="st16" d="M1011.79,2193.87c3.22,0,3.22-5,0-5C1008.57,2188.87,1008.57,2193.87,1011.79,2193.87L1011.79,2193.87z"/>
	</g>
</g>
<g>
	<g>
		<path class="st16" d="M1766.33,2436.58c3.22,0,3.22-5,0-5C1763.11,2431.58,1763.11,2436.58,1766.33,2436.58L1766.33,2436.58z"/>
	</g>
</g>
<g>
	<g>
		<path class="st16" d="M1742.44,2531.84c3.22,0,3.22-5,0-5C1739.22,2526.84,1739.21,2531.84,1742.44,2531.84L1742.44,2531.84z"/>
	</g>
</g>
<g>
	<g>
		<path class="st16" d="M1656.92,2610.13c3.22,0,3.22-5,0-5C1653.71,2605.13,1653.7,2610.13,1656.92,2610.13L1656.92,2610.13z"/>
	</g>
</g>
<g>
	<g>
		<path class="st16" d="M1878.25,2333.46c1.68,0,3.35,0,5.03,0c0.64,0,1.31-0.28,1.77-0.73c0.43-0.43,0.76-1.15,0.73-1.77
			c-0.03-0.65-0.24-1.32-0.73-1.77c-0.49-0.45-1.09-0.73-1.77-0.73c-1.68,0-3.35,0-5.03,0c-0.64,0-1.31,0.28-1.77,0.73
			c-0.43,0.43-0.76,1.15-0.73,1.77c0.03,0.65,0.24,1.32,0.73,1.77C1876.98,2333.18,1877.58,2333.46,1878.25,2333.46L1878.25,2333.46
			z"/>
	</g>
</g>
<g>
	<g>
		<path class="st16" d="M1742.44,2222.8c3.22,0,3.22-5,0-5C1739.22,2217.8,1739.21,2222.8,1742.44,2222.8L1742.44,2222.8z"/>
	</g>
</g>
<g>
	<g>
		<path class="st16" d="M1043.23,2368.67c3.22,0,3.22-5,0-5C1040.01,2363.67,1040.01,2368.67,1043.23,2368.67L1043.23,2368.67z"/>
	</g>
</g>
<g>
	<g>
		<path class="st16" d="M1043.23,2373.73c-1.68,0-3.35,0-5.03,0c-0.64,0-1.31,0.28-1.77,0.73c-0.43,0.43-0.76,1.14-0.73,1.77
			c0.03,0.65,0.24,1.32,0.73,1.77c0.49,0.45,1.09,0.73,1.77,0.73c1.68,0,3.35,0,5.03,0c0.64,0,1.31-0.28,1.77-0.73
			c0.43-0.43,0.76-1.15,0.73-1.77c-0.03-0.65-0.24-1.32-0.73-1.77C1044.51,2374.02,1043.91,2373.73,1043.23,2373.73L1043.23,2373.73
			z"/>
	</g>
</g>
</svg>
