<?xml version="1.0" encoding="utf-8"?>
<!-- Generator: Adobe Illustrator 24.3.0, SVG Export Plug-In . SVG Version: 6.00 Build 0)  -->
<svg version="1.1" id="Layer_1" xmlns="http://www.w3.org/2000/svg" xmlns:xlink="http://www.w3.org/1999/xlink" x="0px" y="0px"
	 viewBox="0 0 3061.42 3061.42" style="enable-background:new 0 0 3061.42 3061.42;" xml:space="preserve">
<style type="text/css">
	.st0{fill:#C4DEE5;}
	.st1{fill:#ED7175;}
	.st2{fill:#E8CA9E;}
	.st3{fill:#696A6A;}
	.st4{fill:#224081;}
	.st5{fill:#D09AC5;}
	.st6{fill:#908E90;}
	.st7{fill:none;stroke:#151315;stroke-miterlimit:10;}
	.st8{fill:#D4666C;}
	.st9{fill:#46321D;}
	.st10{fill:none;stroke:#3F3D3D;stroke-width:2;stroke-miterlimit:10;}
	.st11{fill:#D2AC7C;}
	.st12{fill:#989595;}
	.st13{fill:#2B2A4C;}
	.st14{fill:url(#SVGID_1_);}
	.st15{fill:#C1B8B8;}
	.st16{fill:#E8E8E9;}
	.st17{fill:#25418E;}
	.st18{fill:#F7CFA9;}
	.st19{fill:#F9CEB2;}
	.st20{fill:#B081AA;}
	.st21{fill:#EBECEC;}
	.st22{fill:#B987B1;}
	.st23{fill:#DE4546;}
	.st24{fill:#301E13;}
	.st25{fill:#FCEF82;}
	.st26{fill:#C1191A;}
	.st27{fill:#020303;}
	.st28{fill:none;}
	.st29{fill:#F6B8BA;}
	.st30{fill:#DBAE85;}
	.st31{fill:#F7F7F6;}
	.st32{fill:none;stroke:#706F6E;stroke-width:6;stroke-miterlimit:10;}
	.st33{fill:#1D1E1C;}
	.st34{font-family:'RobotoCondensed-Regular';}
	.st35{font-size:37.2515px;}
	.st36{fill:#706F6E;}
	.st37{font-size:35.3411px;}
	.st38{fill:#5B5A5A;}
	.st39{fill:#F7F7F6;stroke:#000000;stroke-width:0.75;stroke-miterlimit:10;}
	.st40{font-size:54.4404px;}
	.st41{letter-spacing:10.98;}
	.st42{fill:none;stroke:#1D1E1C;stroke-miterlimit:10;}
	.st43{font-family:'RobotoCondensed-Light';}
	.st44{font-size:44.7256px;}
</style>
<rect class="st0" width="3061.42" height="3061.42"/>
<path class="st1" d="M2434.87,1113.9c0,0-90.86,37.7-113.07,231.38l83.14,121.13v-83.14L2434.87,1113.9z"/>
<path class="st2" d="M2321.8,1238.61v98.1l41.57,68.73l16.61-42.11l11.66-73.17C2391.63,1290.16,2363.37,1217,2321.8,1238.61z"/>
<path class="st3" d="M2022.5,1268.6h256l128.84,197.81h45.18l-15.06,28.27h-250.24C2187.21,1494.68,2139.62,1464.87,2022.5,1268.6z"
	/>
<circle class="st4" cx="2232.7" cy="1381.64" r="15.49"/>
<path class="st1" d="M2434.87,1113.9c0,0,246.78-78.15,347.87,59.86c101.08,138.01,67.83,508.81-60.21,547.06h-31.59L2434.87,1113.9
	z"/>
<path class="st2" d="M2775.51,1329.45c0,0,8.54,178.54-16.4,208.47c-24.94,29.93-98.1,0-98.1,0l-14.96-58.2l49.88,0.18
	c0,0-13.3-68.35-14.96-113.25L2775.51,1329.45z"/>
<ellipse class="st2" cx="2518.01" cy="994.18" rx="83.14" ry="119.72"/>
<path class="st5" d="M2646.04,1135.52c0,0,144.66,18.29,136.35,184.57c0,0-26.6,48.22-101.43,46.56l-9.98-28.27
	c0,0-38.19,144.23-34.86,149.22c3.33,4.99-44.87-97.49-88.1-74.77s-88.21,50.26-88.21,50.26l-54.87,3.33v-83.14
	c0,0-59.86-18.17-26.6-114.67l-56.53-29.99c0,0,26.6-147.99,138.01-111.41L2646.04,1135.52z"/>
<path class="st6" d="M2186.18,1494.68h219.71l-112.37,69.76C2293.53,1564.44,2245.83,1561.5,2186.18,1494.68z"/>
<path class="st7" d="M2139.72,1617.7c0,0,16.21,75.22,112.45,45.94L2139.72,1617.7z"/>
<path class="st1" d="M2145.88,1633.27l-171.76,5.53c0,0,362,149.47,368.59,139.86c5.95-8.67,251.08,65.59,346.56-22.92
	c0,0,49.24-4.99,50.4-3.33c1.15,1.66-6.28-49.19-6.28-49.19S2229.36,1540.73,2145.88,1633.27z"/>
<path class="st8" d="M1974.12,1659.19v-20.39c0,0,390.91,177.92,503.98,131.36s256.25-37.44,256.25-37.44l5.32,24.14l-50.4,3.33
	C2689.27,1760.18,2540.98,1905.71,1974.12,1659.19z"/>
<polygon class="st1" points="2055.63,1688.22 1944.35,2018.46 1964.3,2018.46 2086.4,1700.66 "/>
<polygon class="st8" points="1964.3,2018.46 1974.12,2010.14 2107.77,1706.63 2086.4,1700.66 "/>
<polygon class="st8" points="2568.21,1801.59 2539.94,2083.45 2556.57,2080.12 2607.97,1781.9 "/>
<polygon class="st8" points="2659.85,1773.48 2750.8,2018.46 2765.76,2005.16 2689.27,1755.74 "/>
<polygon class="st8" points="2139.72,1720.82 2201.36,1950.28 2218.7,1950.28 2165.5,1727.47 "/>
<polygon class="st1" points="2115.61,1716.38 2186.18,1950.28 2201.36,1950.28 2139.72,1720.82 "/>
<path class="st9" d="M2503.39,841.66c0,0-41.03-51.55,9.87-65.78s44.74,6.71,68.82,18.73c24.08,12.02,19.71,39.57,8.08,50.62
	C2590.16,845.24,2530.59,825.06,2503.39,841.66z"/>
<path class="st2" d="M2587.6,1059.68c0,0-13.06,72.51,58.44,75.84c0,0-118.06,136.35-149.65,133.02
	c-31.59-3.33-36.58-141.34-36.58-141.34s35.96,10.87,35.44-17.84C2494.73,1080.65,2587.6,1059.68,2587.6,1059.68z"/>
<path class="st10" d="M2413.25,994.18l46.74,5.82c0,0,9.18,41.99-18.78,40.12S2420.73,1024.94,2413.25,994.18z"/>
<path class="st10" d="M2485.58,1004.99h46.56c0,0,4.16,47.39-29.93,39.91C2468.12,1037.42,2485.58,1004.99,2485.58,1004.99z"/>
<path class="st10" d="M2459.99,1000c0,0,12.29,8.31,25.59,4.99"/>
<line class="st10" x1="2532.14" y1="1004.99" x2="2592.33" y2="978.44"/>
<path class="st2" d="M2599.97,967.29c0,0,20.19-25.19,20.67,0s-0.36,62.35-22.09,63.48
	C2576.82,1031.9,2599.97,967.29,2599.97,967.29z"/>
<path class="st11" d="M2495.25,1109.36c0,0,33.93,21.27,78.71-10.58C2573.95,1098.78,2520.19,1153.7,2495.25,1109.36z"/>
<path class="st9" d="M2477.6,844.54c-6.05,2.83-69.84,54.68-46.56,83.73s96.44-5.13,131.36,32.47s33.56,15.34,33.56,15.34
	s19.35-22.84,21.16,6.54c1.81,29.38-12.02,54.81-22.56,47.22l-11.45,26.59c0,0,78.4,0,72.91-88.85s-20.46-107.65-58.7-123.03
	C2559.08,829.16,2514.18,827.45,2477.6,844.54z"/>
<path class="st12" d="M2587.84,1687.38c0,0,91.45,3.34,103.09,33.44c0,0,94.3-68.55,20.55-123.72
	c-73.75-55.17-83.63-144.81-83.63-144.81s-51.65-75.42-109.85-33.02s-224.48,144.3-224.48,144.3s158.19,134.26,258.74,0
	C2552.27,1563.58,2651.03,1543.6,2587.84,1687.38z"/>
<path class="st12" d="M2126.54,1411.12c0,0-193.84-1.44-104.05,131.46c0,0,172.93,124.05,315.93,139.99h59.86l5.68-67.12
	C2403.96,1615.46,2189.02,1529.52,2126.54,1411.12z"/>
<path class="st13" d="M2403.96,1619.6c0,0,30.9,24.03,148.96-60.58c0,0,59.91-9.11,54.89,65.54c-5.01,74.65-19.98,63.01-19.98,63.01
	l-189.56-4.99L2403.96,1619.6z"/>
<linearGradient id="SVGID_1_" gradientUnits="userSpaceOnUse" x1="1375.6978" y1="1723.2183" x2="3905.7939" y2="662.7463">
	<stop  offset="0" style="stop-color:#25418E"/>
	<stop  offset="0.5411" style="stop-color:#C4DEE5"/>
</linearGradient>
<polyline class="st14" points="1379.96,1073.35 1377.01,2370.75 2236.16,1381.64 "/>
<path class="st15" d="M592.57,640.19c0,0,99.69-43.88,119.97-39.39s713.88,94.34,713.88,94.34s92.12,39.44,82.57,147.75
	c-9.56,108.31,0,1640.17,0,1640.17s-20.35,111.89-94.74,105.37L592.57,640.19z"/>
<path class="st16" d="M626.44,633.16l749.51,106.8c45.1,6.43,78.86,48.95,78.86,99.3v1667.18c0,50.72-41.18,89.27-86.34,80.81
	l-740.64-138.69c-37.19-6.96-64.41-42.64-64.41-84.41V694.54C563.42,657.23,593.02,628.4,626.44,633.16z"/>
<polygon class="st17" points="640.59,798.32 1377.01,896.74 1377.01,2370.75 660.11,2249.25 "/>
<ellipse class="st18" cx="478.2" cy="1218.4" rx="104.19" ry="118.34"/>
<path class="st19" d="M541.36,2647.2c0,0,35.57-343.71,38.15-393.5s-16.73-185.95-16.73-185.95l-82.09,98.51
	c0,0,26.08,53.21,14.49,87.45s-58.91,139.99-14.49,364.52L491.8,2667h46.84L541.36,2647.2z"/>
<path class="st20" d="M499.91,2667c-29.46,0-16.9,96.09-16.9,96.09h182.27c0,0,0.26-40.56-31.61-52.15
	c-31.87-11.59-86.92-43.94-86.92-43.94L499.91,2667L499.91,2667z"/>
<path class="st21" d="M965.47,1271.79v-35.16c0-10.09,4.94-19.55,13.25-25.28c16.23-11.18,46.26-22.73,83.75,4.47
	c10.8,7.83,12.79,18.68,12.79,32.01l4.39,34.93l-16.4-6.19l-1.21-24.19c-0.83-16.65-11.65-31.24-27.43-36.61
	c-5.27-1.79-10.9-3.14-16.44-3.49c-16-1.01-35.23,12.65-34.06,28.63l2.98,22.98L965.47,1271.79z"/>
<path class="st7" d="M1131.58,792.15l-208.75-27.47c-3.51-0.46-5.98-3.68-5.52-7.19l0,0c0.46-3.51,3.68-5.98,7.19-5.52l208.75,27.47
	c3.51,0.46,5.98,3.68,5.52,7.19l0,0C1138.31,790.14,1135.09,792.61,1131.58,792.15z"/>
<path class="st18" d="M475.26,2651.67c0,0,35.57-343.71,38.15-393.5c2.58-49.78-16.73-185.95-16.73-185.95l-82.09,98.51
	c0,0,26.08,53.21,14.49,87.45s-58.91,139.99-14.49,364.52l11.11,48.77h46.84L475.26,2651.67z"/>
<path class="st22" d="M436.11,2667c-29.46,0-16.9,96.09-16.9,96.09h182.27c0,0,0.26-40.56-31.61-52.15
	C538,2699.35,482.95,2667,482.95,2667H436.11z"/>
<path class="st23" d="M371.45,1886.64c0,0-46.42,46.51-4.54,284.09l278.14-15.71c0,0-19.56-216.17-31.05-270.93L371.45,1886.64z"/>
<path class="st24" d="M486.86,1169.52c0,0,48,27.88,77.48,0s-19.88-98.84-56.91-108.1C470.41,1052.17,473.67,1163.45,486.86,1169.52
	z"/>
<ellipse class="st7" cx="975.74" cy="2405.39" rx="58.84" ry="73.79"/>
<path class="st25" d="M731.17,1345.28"/>
<path class="st25" d="M753.37,1411.12"/>
<path class="st25" d="M758.68,1511.64"/>
<path class="st18" d="M832.18,1392.52c-57.57,29.95-267.56,73.13-267.56,73.13l-54.56-88.29c0,0,63.57,14.99,158.98-7.51
	c95.41-22.51,106.29-29.23,106.29-29.23s149.28-120.85,176.77-127.85c0,0,25.24-38.63,49.92-38.35
	c24.68,0.29,25.51-3.64,52.76,36.56c27.26,40.19-26.3,55.13-46.79,39.33c-20.49-15.8-20.49-15.8-20.49-15.8L832.18,1392.52z"/>
<polygon class="st26" points="987.11,1531.28 1018.38,1471.76 1121.93,1536.57 1041.38,1567.19 "/>
<path class="st27" d="M980.37,1445.92l63.93,7.25c0,0,23.07,3.95,40.86,31.64c17.8,27.68,43.5,57.34,43.5,57.34L980.37,1445.92z"/>
<path class="st21" d="M824.14,1542.44c0,0-183.85,317.45,34.94,472.4s580.01-32.99,373.47-459.04l-77.41-40.88l-120.35,51.64
	l-101.6-76.87L824.14,1542.44z"/>
<path class="st18" d="M855.1,1536.17c0,0,33.23,12.3,68.25,5.49c42.51-8.27,42.77-75.02,33.05-85.86s-15.55-4.32-23.33,14.15
	s-51.52,19.56-51.52,19.56s21.97-10.86,26.54-19.56c4.57-8.69-27.01-11.43-65.76,40.66L855.1,1536.17z"/>
<line class="st10" x1="2413.25" y1="994.18" x2="2434.87" y2="987.94"/>
<path class="st21" d="M849.94,1410.45c0,0,76.2-156.9,175.66-151.07c99.47,5.83,135.66,90.91,180.1,158.44l-68.2-33.13l-101.7,46.09
	l-92.98-63.18L849.94,1410.45z"/>
<line class="st28" x1="2452.52" y1="1463.53" x2="2173.14" y2="1471.76"/>
<path class="st29" d="M2236.16,1381.64"/>
<polygon class="st16" points="1377.01,1626.94 1377.01,1666.35 1454.37,1638.8 1454.81,1602.01 "/>
<polygon class="st15" points="1454.81,1602.01 1454.37,1638.8 1505.25,1620.41 1505.25,1590.33 "/>
<path class="st23" d="M445.81,1370.25h66.25c0,23.32,110.29,96.23,128.68,143.57c18.39,47.34-0.42,85.45-26.74,207.74
	c-26.33,122.29,0,162.52,0,162.52l-252.92,23.09c0,0,33.11-134.99,43.14-176.71C404.22,1730.46,317.55,1418.66,445.81,1370.25z"/>
<path class="st18" d="M529.25,1468.88c0,0-104.88-73.82-117.65-54.56c-12.77,19.26-56.06,97.09,41.87,145.23
	s165.34,58.57,165.34,58.57s215.72-54.79,236.3-81.95l-12.77-25.56c0,0-192.81,32.06-214.3,35.3L529.25,1468.88z"/>
<path class="st18" d="M480.56,1393.83h-1.36c-18.27,0-33.08-14.81-33.08-33.08V1329h67.53v31.75
	C513.64,1379.02,498.83,1393.83,480.56,1393.83z"/>
<path class="st30" d="M513.64,1329l-35.44,7.73C478.2,1336.74,492.83,1355.38,513.64,1329z"/>
<g>
	<path class="st24" d="M525.48,1080.9c-8.58-17.05-31.23-20.12-50.32-20.6c-47.83-1.19-101.86,2.97-132.89,39.38
		c-30.28,35.51-26.89,87.9-20.22,134.09s14.04,97.04-11.02,136.41c-15.75,24.74-41.84,40.55-65.15,58.34s-45.91,40.94-48.9,70.12
		c-4.41,43.06,35.19,86.16,18.38,126.04c-4.51,10.72-13,22.14-8.07,32.67c2.84,6.08,9.36,9.41,15.51,12.09
		c30.51,13.33,63.9,22.17,89.36,43.62s39.8,61.61,19.97,88.36c20.34-14.32,43.18-25.1,67.17-31.69
		c28.12-7.72,62.69-13.53,73.57-40.58c8.43-20.96-2.62-44.71-16.62-62.44s-31.58-33.56-39.13-54.86c-4.47-12.6-5.04-26.21-5.2-39.58
		c-0.36-28.62,1.43-58.87,17.1-82.83c10.97-16.78,27.79-28.89,39.95-44.83c21.63-28.36,26.32-68.7,11.77-101.27
		c-5.32-11.9-12.94-22.71-17.7-34.84c-7.78-19.81-7.44-41.74-7-63.02c0.33-16.05,1.14-33.44,11.37-45.82
		c6.15-7.44,14.95-12.06,22.68-17.83c29.11-21.71,42.46-62.41,31.86-97.14"/>
</g>
<polygon class="st21" points="1017.12,1727.82 1017.12,1793.12 1282.72,1694.2 1269.56,1647.04 "/>
<polygon class="st31" points="1377.01,1012.88 640.59,915.43 640.59,798.32 1377.01,896.74 "/>
<g>
	<line class="st32" x1="712.83" y1="845.71" x2="668.57" y2="894.6"/>
	<line class="st32" x1="673.64" y1="841.52" x2="707.76" y2="898.79"/>
</g>
<text transform="matrix(0.8848 0.1145 -0.1079 0.9942 775.4742 878.7535)" class="st33 st34 st35">Endüstriyel Tasarım Dergisinin 1.Sayısı</text>
<text transform="matrix(0.8848 0.1145 -0.1079 0.9942 770.8981 920.9175)" class="st36 st34 st37">www. markut.net</text>
<g>
	<g>
		<g>
			<path class="st38" d="M1336.02,941.7c5.79,0,5.8-9,0-9C1330.23,932.7,1330.22,941.7,1336.02,941.7L1336.02,941.7z"/>
		</g>
	</g>
	<g>
		<g>
			<path class="st38" d="M1336.29,960.98c5.79,0,5.8-9,0-9C1330.5,951.98,1330.49,960.98,1336.29,960.98L1336.29,960.98z"/>
		</g>
	</g>
	<g>
		<g>
			<path class="st38" d="M1336.57,980.26c5.79,0,5.8-9,0-9C1330.78,971.26,1330.77,980.26,1336.57,980.26L1336.57,980.26z"/>
		</g>
	</g>
</g>
<polygon class="st39" points="1379.96,1073.35 643.55,978.1 643.55,917.93 1379.96,1015.38 "/>
<text transform="matrix(0.902 0.1237 -0.1358 0.9907 879.3232 996.4484)" class="st33 st34 st40 st41">MARKUT</text>
<path class="st42" d="M1353.52,1060.44l-114.43-13.82c-3.34-0.4-5.73-3.44-5.32-6.78l3.46-28.68c0.4-3.34,3.44-5.73,6.78-5.32
	l114.43,13.82c3.34,0.4,5.73,3.44,5.32,6.78l-3.46,28.68C1359.9,1058.46,1356.86,1060.85,1353.52,1060.44z"/>
<text transform="matrix(0.906 0.0903 -0.0992 0.9951 1247.8439 1040.2417)" class="st33 st43 st44">menü</text>
</svg>
