<?xml version="1.0" encoding="utf-8"?>
<!-- Generator: Adobe Illustrator 24.3.0, SVG Export Plug-In . SVG Version: 6.00 Build 0)  -->
<svg version="1.1" id="Layer_1" xmlns="http://www.w3.org/2000/svg" xmlns:xlink="http://www.w3.org/1999/xlink" x="0px" y="0px"
	 viewBox="0 0 907.19 908.67" style="enable-background:new 0 0 907.19 908.67;" xml:space="preserve">
<style type="text/css">
	.st0{fill:#263062;}
	.st1{fill:#B6433C;}
	.st2{fill:#803A19;}
	.st3{fill:#B35F33;}
	.st4{fill:#72201E;}
	.st5{fill:#FFFFFF;}
	.st6{fill:#D5E1ED;}
	.st7{fill:#DDEAF8;}
	.st8{fill:#F1908D;}
	.st9{fill:#FFEFCD;}
	.st10{fill:#984E4F;}
	.st11{fill:#BC181B;}
	.st12{fill:#804344;}
	.st13{fill:#E7EDEF;}
	.st14{fill:#E21D21;}
	.st15{fill:#FFD578;}
	.st16{fill:#FFECC1;}
	.st17{fill:#FBFAFB;}
	.st18{fill:#CE181B;}
	.st19{fill:#9E1B19;}
	.st20{fill:#E00819;}
	.st21{fill:#020303;}
	.st22{fill:#F2F1F1;}
	.st23{fill:#3B1215;}
	.st24{fill:#A1B2B3;}
	.st25{clip-path:url(#SVGID_2_);}
	.st26{fill:#9879B4;}
	.st27{fill:#8A6BA9;}
	.st28{fill:#5E418C;}
	.st29{fill:#6D4494;}
	.st30{fill:#422564;}
	.st31{fill:#804895;}
	.st32{fill:#FCD177;}
	.st33{fill:#9C79B3;}
	.st34{fill:#EE7C12;}
	.st35{fill:#F5BC27;}
	.st36{fill:#4F2A84;}
	.st37{fill:#EE7D30;}
	.st38{fill:#7D401E;}
	.st39{fill:#E8E10C;}
	.st40{fill:#C92540;}
	.st41{fill:#DD1D39;}
	.st42{fill:#924794;}
	.st43{fill:#BD1F2F;}
	.st44{fill:#799E3D;}
	.st45{fill:#E62F50;}
	.st46{fill:#8EBF46;}
	.st47{fill:#E41F2A;}
	.st48{fill:#ECEB9C;}
	.st49{fill:#099339;}
	.st50{fill:#E1DD00;}
	.st51{fill:#FFFFFB;}
	.st52{fill:#2F5BA6;}
	.st53{fill:#FDD82D;}
	.st54{fill:#F7EC73;}
	.st55{fill:#244F24;}
	.st56{fill:#71144B;}
	.st57{fill:#AECA3B;}
	.st58{fill:#1F0B19;}
	.st59{fill:#EA5B1F;}
	.st60{fill:#2A4B9A;}
	.st61{fill:#234891;}
	.st62{fill:#272A5D;}
	.st63{fill:#FCECF1;}
	.st64{fill:#E20D17;}
	.st65{fill:#BF181A;}
	.st66{fill:#F2F9FB;}
	.st67{fill:#DBEDFB;}
	.st68{fill:#D1A923;}
	.st69{fill:#E1BB2B;}
	.st70{fill:#DD272B;}
	.st71{fill:#FAD139;}
	.st72{fill:#432566;}
	.st73{fill:#552883;}
	.st74{fill:#DE4E4D;}
	.st75{fill:#CC1417;}
	.st76{fill:#62AB30;}
	.st77{fill:#4C6B29;}
	.st78{fill:#FFFAF2;}
	.st79{fill:#F9F1C6;}
	.st80{fill:#513177;}
	.st81{fill:#C49C13;}
	.st82{fill:#263683;}
	.st83{fill:#C6991A;}
	.st84{fill:#9C1A17;}
	.st85{fill:#C7C5C5;}
	.st86{fill:#2A327E;}
	.st87{fill:#EEEEEC;}
	.st88{fill:#254090;}
	.st89{fill:#E8EBF7;}
	.st90{fill:#F6C320;}
</style>
<rect x="0.13" y="1.47" class="st0" width="907.19" height="465.08"/>
<rect x="461.16" y="373.27" class="st1" width="208.21" height="82.15"/>
<rect x="0.13" y="507.12" class="st1" width="907.19" height="401.55"/>
<g>
	<polygon class="st2" points="713.85,546.65 713.85,734.36 698.98,734.36 698.98,560.06 223.08,560.06 223.08,734.36 208.21,734.36 
		208.21,546.65 	"/>
	<polygon class="st2" points="713.85,734.36 713.85,895.26 208.21,895.26 208.21,734.36 223.08,734.36 223.08,881.85 698.98,881.85 
		698.98,734.36 	"/>
</g>
<g>
	<polygon class="st3" points="728.73,533.24 728.73,734.36 713.85,734.36 713.85,546.65 208.21,546.65 208.21,734.36 193.33,734.36 
		193.33,533.24 	"/>
	<polygon class="st3" points="713.85,734.36 728.73,734.36 728.73,908.67 193.33,908.67 193.33,734.36 208.21,734.36 208.21,895.26 
		713.85,895.26 	"/>
</g>
<g>
	<rect x="446.16" y="506.42" class="st4" width="44.62" height="13.41"/>
	<rect x="193.33" y="506.42" class="st4" width="44.62" height="13.41"/>
</g>
<g>
	<rect x="0" y="707.55" class="st4" width="29.74" height="13.41"/>
	<rect x="0" y="734.36" class="st4" width="29.74" height="13.41"/>
	<rect x="29.74" y="560.06" class="st4" width="74.36" height="13.41"/>
	<rect x="14.87" y="788" class="st4" width="59.49" height="13.41"/>
	<rect x="148.72" y="707.55" class="st4" width="29.75" height="13.41"/>
	<rect x="29.74" y="855.04" class="st4" width="89.23" height="13.41"/>
	<rect x="59.49" y="586.87" class="st4" width="44.62" height="13.41"/>
	<rect x="104.1" y="801.41" class="st4" width="44.62" height="13.41"/>
	<rect x="44.61" y="653.91" class="st4" width="74.36" height="13.41"/>
	<rect x="133.85" y="734.36" class="st4" width="44.62" height="13.41"/>
	<polygon class="st4" points="193.33,600.28 193.33,627.1 178.46,627.1 178.46,613.69 148.72,613.69 148.72,600.28 	"/>
</g>
<g>
	<rect x="743.6" y="868.45" class="st4" width="74.36" height="13.41"/>
	<polygon class="st4" points="803.09,814.81 817.96,814.81 817.96,828.22 788.21,828.22 788.21,814.81 758.47,814.81 758.47,801.41 
		803.09,801.41 	"/>
	<rect x="758.47" y="506.42" class="st4" width="74.36" height="13.41"/>
	<rect x="803.09" y="613.69" class="st4" width="59.49" height="13.41"/>
	<rect x="758.47" y="667.32" class="st4" width="74.36" height="13.41"/>
	<rect x="758.47" y="573.46" class="st4" width="59.49" height="13.41"/>
	<rect x="743.6" y="707.55" class="st4" width="74.36" height="13.41"/>
	<rect x="862.58" y="653.91" class="st4" width="14.87" height="13.41"/>
	<rect x="758.47" y="774.59" class="st4" width="104.1" height="13.41"/>
	<rect x="862.58" y="828.22" class="st4" width="44.62" height="13.41"/>
	<rect x="862.58" y="720.95" class="st4" width="44.62" height="13.41"/>
	<rect x="862.58" y="600.28" class="st4" width="44.62" height="13.41"/>
	<rect x="877.45" y="667.32" class="st4" width="29.75" height="13.41"/>
	<rect x="847.7" y="895.26" class="st4" width="59.49" height="13.41"/>
	<polygon class="st5" points="907.19,412.57 907.19,506.42 0,506.42 0,439.38 163.59,439.38 163.59,425.98 327.18,425.98 
		327.18,439.38 401.54,439.38 401.54,425.98 416.41,425.98 416.41,412.57 461.03,412.57 461.03,425.98 505.65,425.98 505.65,412.57 
		580.01,412.57 580.01,425.98 654.37,425.98 654.37,412.57 684.11,412.57 684.11,425.98 788.21,425.98 788.21,439.38 847.7,439.38 
		847.7,425.98 877.45,425.98 877.45,412.57 	"/>
</g>
<g>
	<polygon class="st6" points="282.57,412.57 267.7,412.57 252.82,412.57 237.95,412.57 223.08,412.57 208.21,412.57 193.33,412.57 
		178.46,412.57 178.46,425.98 193.33,425.98 208.21,425.98 223.08,425.98 237.95,425.98 252.82,425.98 267.7,425.98 282.57,425.98 
		297.44,425.98 297.44,412.57 	"/>
	<rect x="59.49" y="412.57" class="st6" width="14.87" height="13.41"/>
	<polygon class="st6" points="14.87,425.98 0,425.98 0,439.38 14.87,439.38 29.74,439.38 44.61,439.38 44.61,425.98 29.74,425.98 	
		"/>
</g>
<polygon class="st7" points="59.49,425.98 59.49,425.98 59.49,412.57 44.61,412.57 29.74,412.57 14.87,412.57 0,412.57 0,425.98 
	14.87,425.98 29.74,425.98 44.61,425.98 44.61,425.98 44.61,439.38 59.49,439.38 74.36,439.38 89.23,439.38 89.23,425.98 
	74.36,425.98 "/>
<g id="XMLID_23_">
	<g id="XMLID_24_">
		<g>
			<g>
				<rect x="218.25" y="269.37" class="st8" width="9.58" height="4.79"/>
				<rect x="194.28" y="269.37" class="st8" width="19.18" height="9.58"/>
				<polygon class="st8" points="179.91,269.37 179.91,274.16 175.12,274.16 175.12,278.95 165.53,278.95 165.53,264.58 
					170.33,264.58 170.33,269.37 				"/>
			</g>
			<g>
				<polygon class="st9" points="227.83,259.78 227.83,264.58 227.83,269.37 232.62,269.37 232.62,264.58 232.62,259.78 				"/>
				<rect x="213.45" y="269.37" class="st9" width="4.79" height="4.79"/>
				<polygon class="st9" points="199.08,259.78 194.28,259.78 194.28,264.58 194.28,269.37 199.08,269.37 203.87,269.37 
					208.66,269.37 208.66,264.58 208.66,259.78 203.87,259.78 				"/>
				<polygon class="st9" points="199.08,250.2 194.28,250.2 194.28,254.99 199.08,254.99 203.87,254.99 208.66,254.99 208.66,250.2 
					203.87,250.2 				"/>
				<polygon class="st9" points="160.74,254.99 160.74,259.79 165.53,259.79 170.33,259.79 170.33,254.99 165.53,254.99 				"/>
			</g>
			<g>
				<polygon class="st10" points="218.25,417.92 213.46,417.92 213.45,417.92 208.66,417.92 203.87,417.92 203.87,413.12 
					199.08,413.12 194.29,413.12 194.29,408.33 189.5,408.33 189.5,403.54 184.7,403.54 184.7,408.33 184.7,408.33 184.7,413.12 
					189.5,413.12 189.5,417.92 194.28,417.92 194.28,422.71 189.5,422.71 189.5,427.5 189.5,427.5 189.5,432.29 194.29,432.29 
					194.29,427.5 194.29,427.5 194.29,422.71 199.08,422.71 199.08,427.5 203.87,427.5 208.66,427.5 208.66,432.29 213.45,432.29 
					213.46,432.29 218.25,432.29 223.04,432.29 223.04,427.5 223.04,427.5 223.04,422.71 223.04,417.92 				"/>
				<polygon class="st10" points="179.91,417.92 175.12,417.92 170.33,417.92 170.33,422.71 165.53,422.71 160.75,422.71 
					160.74,422.71 155.95,422.71 151.16,422.71 146.37,422.71 146.37,422.71 141.58,422.71 141.58,427.5 141.58,427.5 
					141.58,432.29 146.37,432.29 146.37,432.29 151.16,432.29 155.95,432.29 160.74,432.29 160.75,432.29 165.53,432.29 
					170.33,432.29 175.12,432.29 179.91,432.29 179.91,432.29 184.7,432.29 184.7,427.5 184.7,427.5 184.7,422.71 179.91,422.71 
									"/>
			</g>
			<g>
				<polygon class="st11" points="237.41,341.25 237.41,346.04 232.62,346.04 227.83,346.04 227.83,346.04 223.04,346.04 
					218.25,346.04 213.45,346.04 213.45,350.83 213.45,355.62 213.45,360.42 218.25,360.42 223.04,360.42 227.83,360.42 
					227.83,360.42 232.62,360.42 232.62,365.2 237.41,365.2 242.21,365.2 242.21,360.42 242.21,360.41 242.21,355.62 242.21,350.83 
					242.21,346.04 242.21,346.04 242.21,341.25 				"/>
				<polygon class="st11" points="227.83,379.58 223.04,379.58 218.25,379.58 213.46,379.58 213.45,379.58 208.66,379.58 
					203.87,379.58 199.08,379.58 194.28,379.58 194.28,384.37 189.5,384.37 189.5,389.17 194.28,389.17 194.28,393.96 
					199.08,393.96 203.87,393.96 208.66,393.96 213.45,393.96 213.45,398.75 218.25,398.75 223.04,398.75 227.83,398.75 
					227.83,393.96 227.83,393.95 227.83,389.17 232.62,389.17 232.62,384.37 232.62,379.58 227.83,379.58 				"/>
				<polygon class="st11" points="194.28,360.42 194.29,360.42 199.08,360.42 203.87,360.42 203.87,355.62 203.87,350.83 
					203.87,346.04 199.08,346.04 194.29,346.04 194.28,346.04 189.5,346.04 184.7,346.04 179.91,346.04 179.91,346.04 
					175.12,346.04 170.33,346.04 170.33,341.25 165.53,341.25 160.75,341.25 160.75,336.45 155.95,336.45 155.95,341.25 
					155.95,346.04 155.95,346.04 155.95,350.83 160.74,350.83 160.74,355.62 165.53,355.62 165.53,360.41 165.53,360.42 
					165.53,365.2 170.33,365.2 175.12,365.2 179.91,365.2 179.91,365.2 184.7,365.2 184.7,360.42 189.5,360.42 				"/>
				<polygon class="st11" points="165.53,379.58 160.74,379.58 160.74,384.37 155.95,384.37 155.95,389.17 151.16,389.17 
					146.37,389.17 146.37,389.17 141.58,389.17 141.58,393.95 141.58,393.96 141.58,398.75 146.37,398.75 146.37,398.75 
					151.16,398.75 155.95,398.75 160.74,398.75 160.75,398.75 165.53,398.75 165.53,393.96 170.33,393.96 175.12,393.96 
					175.12,389.17 175.12,384.37 175.12,379.58 170.33,379.58 				"/>
			</g>
			<g>
				<polygon class="st12" points="223.04,437.08 218.25,437.08 213.46,437.08 213.45,437.08 208.66,437.08 208.66,432.29 
					203.87,432.29 199.08,432.29 199.08,437.08 203.87,437.08 203.87,441.88 208.66,441.88 213.45,441.88 213.46,441.88 
					218.25,441.88 223.04,441.88 227.83,441.88 227.83,437.08 				"/>
				<rect x="194.28" y="427.5" class="st12" width="4.79" height="4.79"/>
				<polygon class="st12" points="179.91,437.08 179.91,437.08 175.12,437.08 170.33,437.08 165.53,437.08 160.75,437.08 
					160.74,437.08 155.95,437.08 151.16,437.08 146.37,437.08 146.37,437.08 141.58,437.08 136.78,437.08 136.78,441.88 
					141.58,441.88 146.37,441.88 146.37,441.88 151.16,441.88 155.95,441.88 160.74,441.88 160.75,441.88 165.53,441.88 
					170.33,441.88 175.12,441.88 179.91,441.88 179.91,441.88 184.7,441.88 189.5,441.88 189.5,437.08 184.7,437.08 				"/>
			</g>
			<g>
				<polygon class="st13" points="242.21,293.33 242.21,288.54 242.21,283.74 237.41,283.74 237.41,278.95 232.62,278.95 
					232.62,283.74 232.62,288.54 232.62,293.33 227.83,293.33 227.83,293.33 223.04,293.33 218.25,293.33 213.46,293.33 
					213.45,293.33 208.66,293.33 203.87,293.33 199.08,293.33 194.29,293.33 194.28,293.33 189.5,293.33 184.7,293.33 
					179.91,293.33 179.91,293.33 175.12,293.33 170.33,293.33 165.53,293.33 160.75,293.33 160.74,293.33 155.95,293.33 
					155.95,288.54 151.16,288.54 151.16,283.74 151.16,278.95 151.16,278.95 151.16,274.16 151.16,269.37 151.16,264.58 
					151.16,259.79 151.16,259.78 151.16,254.99 146.37,254.99 146.37,254.99 141.58,254.99 141.58,259.78 141.58,259.79 
					141.58,264.58 141.58,269.37 141.58,274.16 136.78,274.16 136.78,278.95 136.78,278.95 136.78,283.74 136.78,288.54 
					136.78,293.33 136.78,293.33 136.78,298.12 136.78,302.91 136.78,307.7 136.78,312.49 136.78,312.5 136.78,317.29 
					141.58,317.29 141.58,322.08 146.37,322.08 146.37,326.87 151.16,326.87 155.95,326.87 155.95,331.66 160.74,331.66 
					160.75,331.66 165.53,331.66 165.53,336.45 170.33,336.45 175.12,336.45 175.12,341.25 179.91,341.25 179.91,341.25 
					184.7,341.25 189.5,341.25 194.28,341.25 194.29,341.25 199.08,341.25 203.87,341.25 208.66,341.25 213.45,341.25 
					213.46,341.25 218.25,341.25 223.04,341.25 227.83,341.25 227.83,341.25 232.62,341.25 232.62,336.45 237.41,336.45 
					237.41,331.66 242.21,331.66 242.21,326.87 247,326.87 247,322.08 247,317.29 247,312.5 247,312.49 247,307.7 247,302.91 
					247,298.12 247,293.33 				"/>
				<polygon class="st13" points="213.46,254.99 218.25,254.99 223.04,254.99 227.83,254.99 227.83,250.2 223.04,250.2 
					218.25,250.2 213.46,250.2 213.45,250.2 208.66,250.2 208.66,254.99 213.45,254.99 				"/>
				<polygon class="st13" points="170.33,254.99 175.12,254.99 179.91,254.99 179.91,254.99 184.7,254.99 189.5,254.99 
					194.29,254.99 194.29,250.2 189.5,250.2 184.7,250.2 179.91,250.2 179.91,250.2 175.12,250.2 170.33,250.2 165.53,250.2 
					160.74,250.2 160.74,254.99 165.53,254.99 				"/>
				<polygon class="st13" points="160.74,288.54 165.53,288.54 170.33,288.54 175.12,288.54 179.91,288.54 179.91,288.54 
					184.7,288.54 189.5,288.54 194.28,288.54 194.29,288.54 199.08,288.54 203.87,288.54 208.66,288.54 213.45,288.54 
					213.46,288.54 218.25,288.54 223.04,288.54 227.83,288.54 227.83,283.74 227.83,278.95 227.83,278.95 227.83,274.16 
					223.04,274.16 218.25,274.16 213.45,274.16 213.45,278.95 208.66,278.95 203.87,278.95 199.08,278.95 194.29,278.95 
					194.29,274.16 194.29,269.37 189.5,269.37 189.5,274.16 184.7,274.16 179.91,274.16 179.91,274.16 175.12,274.16 175.12,278.95 
					170.33,278.95 165.53,278.95 165.53,274.16 165.53,269.37 160.75,269.37 160.74,269.37 155.95,269.37 155.95,274.16 
					155.95,278.95 155.95,278.95 155.95,283.74 160.74,283.74 				"/>
			</g>
			<polygon class="st14" points="155.95,360.42 160.75,360.42 160.75,355.62 155.95,355.62 151.16,355.62 146.37,355.62 
				146.37,360.41 141.58,360.41 136.78,360.41 136.78,365.2 131.99,365.2 131.99,370 131.99,370 131.99,374.79 136.78,374.79 
				136.78,379.58 141.58,379.58 141.58,384.37 146.37,384.37 146.37,384.37 151.16,384.37 151.16,379.58 155.95,379.58 
				155.95,374.79 160.75,374.79 160.75,370 155.95,370 155.95,365.2 			"/>
			<g>
				<polygon points="251.79,288.54 251.79,331.66 247,331.66 247,336.45 242.21,336.45 242.21,341.25 237.41,341.25 237.41,346.04 
					170.33,346.04 170.33,341.25 160.74,341.25 160.74,336.45 151.16,336.45 151.16,331.66 146.37,331.66 146.37,326.87 
					155.95,326.87 155.95,331.66 165.53,331.66 165.53,336.45 175.12,336.45 175.12,341.25 232.62,341.25 232.62,336.45 
					237.41,336.45 237.41,331.66 242.21,331.66 242.21,326.87 247,326.87 247,293.33 242.21,293.33 242.21,283.74 237.41,283.74 
					237.41,278.95 232.62,278.95 232.62,293.33 155.95,293.33 155.95,288.54 151.16,288.54 151.16,250.2 155.95,250.2 
					155.95,283.74 160.75,283.74 160.75,288.54 227.83,288.54 227.83,269.37 232.62,269.37 232.62,259.79 227.83,259.79 
					227.83,250.2 232.62,250.2 232.62,254.99 237.41,254.99 237.41,274.16 242.21,274.16 242.21,278.95 247,278.95 247,288.54 				
					"/>
				<polygon points="146.37,322.08 146.37,326.87 136.78,326.87 136.78,322.08 131.99,322.08 131.99,269.37 136.78,269.37 
					136.78,254.99 141.58,254.99 141.58,274.16 136.78,274.16 136.78,317.29 141.58,317.29 141.58,322.08 				"/>
			</g>
			<polygon class="st15" points="136.78,259.78 136.78,269.37 132,269.37 132,274.16 127.2,274.16 127.2,259.78 			"/>
			<g>
				<polygon class="st16" points="184.7,269.37 179.91,269.37 179.91,274.16 184.7,274.16 189.5,274.16 189.5,269.37 				"/>
				<polygon class="st16" points="160.75,259.78 160.75,254.99 160.75,250.2 155.95,250.2 155.95,254.99 155.95,259.78 
					155.95,259.79 155.95,264.58 155.95,269.37 160.74,269.37 160.75,269.37 165.53,269.37 165.53,264.58 170.33,264.58 
					170.33,259.78 165.53,259.78 				"/>
				<polygon class="st16" points="131.99,254.99 127.2,254.99 122.41,254.99 122.41,259.78 117.62,259.78 117.62,264.58 
					117.62,269.37 117.62,274.16 122.41,274.16 122.41,278.95 127.2,278.95 132,278.95 132,274.16 127.2,274.16 127.2,269.37 
					127.2,264.58 127.2,259.79 131.99,259.79 132,259.79 136.78,259.79 136.78,254.99 132,254.99 				"/>
			</g>
			<g>
				<polygon class="st17" points="232.62,370 227.83,370 227.83,365.2 223.04,365.2 218.25,365.2 213.45,365.2 213.45,370 
					213.45,370 213.45,374.79 218.25,374.79 223.04,374.79 227.83,374.79 227.83,374.79 232.62,374.79 237.41,374.79 237.41,370 
									"/>
				<polygon class="st17" points="213.46,403.54 213.46,398.75 208.66,398.75 203.87,398.75 199.08,398.75 194.29,398.75 
					194.29,393.95 189.5,393.95 189.5,398.75 189.5,403.54 194.28,403.54 194.29,403.54 199.08,403.54 199.08,408.33 203.87,408.33 
					208.66,408.33 208.66,413.12 213.45,413.12 213.46,413.12 218.25,413.12 223.04,413.12 223.04,408.33 223.04,408.33 
					223.04,403.54 218.25,403.54 				"/>
				<polygon class="st17" points="194.29,384.37 194.29,379.58 189.5,379.58 184.7,379.58 179.91,379.58 179.91,379.58 
					175.12,379.58 175.12,384.37 179.91,384.37 179.91,384.37 184.7,384.37 189.5,384.37 				"/>
				<polygon class="st17" points="170.33,403.54 165.53,403.54 160.75,403.54 160.74,403.54 155.95,403.54 151.16,403.54 
					146.37,403.54 146.37,403.54 141.58,403.54 141.58,408.33 141.58,408.33 141.58,413.12 141.58,417.92 146.37,417.92 
					146.37,417.92 151.16,417.92 155.95,417.92 160.74,417.92 160.75,417.92 165.53,417.92 165.53,413.12 170.33,413.12 
					175.12,413.12 175.12,408.33 175.12,408.33 175.12,403.54 175.12,398.75 170.33,398.75 				"/>
				<polygon class="st17" points="175.12,374.79 179.91,374.79 179.91,374.79 184.7,374.79 189.5,374.79 194.28,374.79 
					194.29,374.79 199.08,374.79 203.87,374.79 203.87,370 203.87,370 203.87,365.2 199.08,365.2 194.29,365.2 194.28,365.2 
					189.5,365.2 189.5,370 184.7,370 179.91,370 179.91,370 175.12,370 170.33,370 165.53,370 165.53,374.79 170.33,374.79 				"/>
				<polygon class="st17" points="151.16,341.25 151.16,350.83 141.58,350.83 141.58,355.62 132,355.62 132,360.42 127.2,360.42 
					127.2,365.2 117.62,365.2 117.62,355.62 112.82,355.62 112.82,341.25 127.2,341.25 127.2,336.45 146.37,336.45 146.37,341.25 
									"/>
				<polygon class="st17" points="117.62,370 112.82,370 108.03,370 108.03,374.79 112.82,374.79 117.62,374.79 122.41,374.79 
					122.41,374.79 127.2,374.79 127.2,370 122.41,370 				"/>
			</g>
			<polygon class="st18" points="141.58,326.87 136.78,326.87 136.78,322.08 132,322.08 132,317.29 132,312.5 132,312.49 132,307.7 
				132,302.91 132,298.12 132,293.33 127.2,293.33 127.2,298.12 122.41,298.12 117.62,298.12 117.62,302.91 112.82,302.91 
				112.82,307.7 112.82,312.49 112.82,312.5 112.82,317.29 108.03,317.29 108.03,322.08 108.03,326.87 108.03,326.87 108.03,331.66 
				108.03,336.45 108.03,341.25 112.83,341.25 112.83,336.45 117.62,336.45 122.41,336.45 122.41,331.66 127.2,331.66 
				131.99,331.66 132,331.66 136.78,331.66 141.58,331.66 146.37,331.66 146.37,326.87 			"/>
			<g>
				<rect x="175.12" y="211.86" class="st19" width="9.58" height="4.8"/>
				<path class="st19" d="M160.75,216.66v-9.58h-19.17v-4.8h-4.8v4.8h-9.58v4.78h-4.79v4.8h-4.79v9.58h-4.8v4.79h-4.79v4.8h9.59
					v-4.8h23.96v-4.79h19.17v-4.79h43.12v-4.79H160.75z M151.16,216.66v-4.79h4.79v4.79H151.16z"/>
			</g>
			<g>
				<polygon class="st20" points="227.83,207.08 227.83,216.66 184.7,216.66 184.7,211.87 175.12,211.87 175.12,216.66 
					160.74,216.66 160.74,207.08 141.58,207.08 141.58,202.28 136.78,202.28 136.78,207.08 127.2,207.08 127.2,211.87 
					122.41,211.87 122.41,216.66 112.82,216.66 112.82,211.86 117.62,211.86 117.62,207.08 122.41,207.08 122.41,202.28 
					127.2,202.28 127.2,197.49 131.99,197.49 131.99,192.7 136.78,192.7 136.78,183.11 146.37,183.11 146.37,178.32 155.95,178.32 
					155.95,173.53 165.53,173.53 165.53,168.74 184.7,168.74 184.7,173.53 194.29,173.53 194.29,178.32 203.87,178.32 
					203.87,183.11 208.66,183.11 208.66,187.91 213.46,187.91 213.46,192.7 218.25,192.7 218.25,197.49 223.04,197.49 
					223.04,207.08 				"/>
				<rect x="151.16" y="211.86" class="st20" width="4.79" height="4.79"/>
				<polygon class="st20" points="112.82,221.45 108.03,221.45 108.03,226.24 108.03,231.03 112.83,231.03 112.83,226.24 
					117.62,226.24 117.62,221.45 117.62,216.66 112.82,216.66 				"/>
			</g>
			<g>
				<path d="M232.62,365.2v-4.79h-19.16v-14.37h-9.59v14.37H184.7v4.79h-19.17v-9.58h-4.78v-4.79h-4.8v-14.38h-4.79v-4.79h-28.75
					v4.79h-9.59v4.8h-4.79v19.17h4.79v4.78h-4.79v4.8h19.17v4.79h-19.17V370h-4.79v9.58h28.75v4.79h4.79v4.8h19.17v-4.8h4.8v-4.79
					h81.46V365.2H232.62z M131.99,360.41h-4.79v4.79h-9.58v-9.58h-4.79v-14.37h14.37v-4.8h19.17v4.8h4.79v9.58h-9.58v4.79h-9.59
					V360.41z M160.74,360.41h-4.79V370h4.79v4.79h-4.79v4.79h-4.79v4.79h-9.58v-4.79h-4.8v-4.79H132v-9.59h4.78v-4.78h9.59v-4.8
					h14.37V360.41z M203.87,374.79h-38.34V370h23.97v-4.8h14.37V374.79z M237.41,374.79h-23.95v-9.59h14.37v4.8h9.58V374.79z"/>
				<polygon class="st21" points="218.25,398.75 213.46,398.75 213.46,393.95 208.66,393.95 203.87,393.95 199.08,393.95 
					194.29,393.95 194.29,389.17 189.5,389.17 189.5,393.95 184.7,393.95 184.7,398.75 184.7,403.54 189.5,403.54 189.5,398.75 
					189.5,393.96 194.28,393.96 194.28,398.75 199.08,398.75 203.87,398.75 208.66,398.75 213.45,398.75 213.45,403.54 
					218.25,403.54 223.04,403.54 223.04,408.33 223.04,408.33 223.04,413.12 218.25,413.12 213.46,413.12 213.45,413.12 
					208.66,413.12 208.66,408.33 203.87,408.33 199.08,408.33 199.08,403.54 194.29,403.54 194.28,403.54 189.5,403.54 
					189.5,408.33 194.28,408.33 194.28,413.12 199.08,413.12 203.87,413.12 203.87,417.92 208.66,417.92 213.45,417.92 
					213.46,417.92 218.25,417.92 223.04,417.92 223.04,422.71 223.04,427.5 223.04,427.5 223.04,432.29 218.25,432.29 
					213.46,432.29 213.45,432.29 208.66,432.29 208.66,437.08 213.45,437.08 213.46,437.08 218.25,437.08 223.04,437.08 
					227.83,437.08 227.83,432.29 227.83,427.5 227.83,427.5 227.83,422.71 227.83,417.92 227.83,413.12 227.83,408.33 
					227.83,408.33 227.83,403.54 227.83,398.75 223.04,398.75 				"/>
				<path class="st21" d="M203.87,427.5h-4.79v-4.79h-4.79v-4.79h-4.79v-4.79h-4.79v-4.79v0v-4.79h-4.79v-4.79v-4.79h-4.79h-4.79
					h-4.79v4.79h-4.79h0h-4.79h-4.79h-4.79h0h-4.79h-4.79v4.79v4.79v0v4.79v4.79v4.79v4.79v0v4.79v4.79h4.79h4.79h0h4.79h4.79h4.79
					h0h4.79h4.79h4.79h4.79h0h4.79h4.79v-4.79v-4.79v0v-4.79h4.79v4.79h4.79v4.79h4.79h4.79v-4.79H203.87z M141.58,413.12v-4.79v0
					v-4.79h4.79h0h4.79h4.79h4.79h0h4.79h4.79v-4.79h4.79v4.79v4.79v0v4.79h-4.79h-4.79v4.79h-4.79h0h-4.79h-4.79h-4.79h0h-4.79
					V413.12z M184.7,427.5L184.7,427.5v4.79h-4.79h0h-4.79h-4.79h-4.79h-4.79h0h-4.79h-4.79h-4.79h0h-4.79v-4.79v0v-4.79h4.79h0
					h4.79h4.79h4.79h0h4.79h4.79v-4.79h4.79h4.79v4.79h4.79V427.5z"/>
				<polygon class="st21" points="179.91,269.37 179.91,269.37 184.7,269.37 189.5,269.37 194.29,269.37 194.29,264.58 
					194.29,259.79 199.08,259.79 203.87,259.79 208.66,259.79 208.66,264.58 208.66,269.37 213.45,269.37 213.46,269.37 
					218.25,269.37 223.04,269.37 227.83,269.37 227.83,264.58 227.83,259.79 227.83,259.78 227.83,254.99 223.04,254.99 
					218.25,254.99 213.46,254.99 213.45,254.99 208.66,254.99 203.87,254.99 199.08,254.99 194.29,254.99 194.28,254.99 
					189.5,254.99 184.7,254.99 179.91,254.99 179.91,254.99 175.12,254.99 170.33,254.99 170.33,259.78 170.33,259.79 
					170.33,264.58 170.33,269.37 175.12,269.37 				"/>
			</g>
			<g>
				<polygon class="st22" points="232.62,226.24 232.62,240.62 227.83,240.62 227.83,245.41 146.37,245.41 146.37,250.2 
					122.41,250.2 122.41,235.83 141.58,235.83 141.58,231.03 165.53,231.03 165.53,226.24 203.87,226.24 203.87,221.45 
					227.83,221.45 227.83,226.24 				"/>
				<polygon class="st22" points="108.03,235.83 108.03,250.2 103.24,250.2 103.24,254.99 84.07,254.99 84.07,250.2 79.28,250.2 
					79.28,235.83 84.07,235.83 84.07,231.03 103.24,231.03 103.24,235.83 				"/>
			</g>
			<g>
				<polygon points="203.87,221.45 203.87,226.24 165.53,226.24 165.53,231.03 141.58,231.03 141.58,226.24 160.74,226.24 
					160.74,221.45 				"/>
				<rect x="218.25" y="192.7" class="st23" width="4.79" height="4.79"/>
				<rect x="223.04" y="197.49" class="st23" width="4.79" height="9.59"/>
				<polygon points="237.41,221.45 237.41,245.41 232.62,245.41 232.62,250.2 151.16,250.2 151.16,254.99 117.62,254.99 
					117.62,240.62 112.83,240.62 112.83,250.2 108.03,250.2 108.03,235.83 117.62,235.83 117.62,231.03 141.58,231.03 
					141.58,235.83 122.41,235.83 122.41,250.2 146.37,250.2 146.37,245.41 227.83,245.41 227.83,240.62 232.62,240.62 
					232.62,226.24 227.83,226.24 227.83,221.45 203.87,221.45 203.87,216.66 227.83,216.66 227.83,207.08 232.62,207.08 
					232.62,221.45 				"/>
				<polygon points="218.25,183.11 218.25,192.7 213.45,192.7 213.45,187.91 208.66,187.91 208.66,183.11 203.87,183.11 
					203.87,178.33 194.28,178.33 194.28,173.53 184.7,173.53 184.7,168.74 194.29,168.74 194.29,173.53 203.87,173.53 
					203.87,178.32 213.46,178.32 213.46,183.11 				"/>
				<polygon points="184.7,163.95 184.7,168.74 165.53,168.74 165.53,173.53 155.95,173.53 155.95,178.33 146.37,178.33 
					146.37,183.11 136.78,183.11 136.78,178.32 141.58,178.32 141.58,173.53 151.16,173.53 151.16,168.74 160.74,168.74 
					160.74,163.95 				"/>
				<polygon points="136.78,183.11 136.78,192.7 132,192.7 132,197.49 127.2,197.49 127.2,202.28 122.41,202.28 122.41,207.08 
					117.62,207.08 117.62,197.49 122.41,197.49 122.41,192.7 127.2,192.7 127.2,187.91 131.99,187.91 131.99,183.11 				"/>
				<polygon class="st23" points="112.83,216.66 112.83,211.87 117.62,211.87 117.62,207.08 112.82,207.08 112.82,211.86 
					108.03,211.86 108.03,216.66 108.03,221.45 112.83,221.45 				"/>
				<rect x="103.24" y="250.2" class="st23" width="4.79" height="4.79"/>
				<rect x="84.07" y="254.99" width="19.17" height="4.8"/>
				<polygon points="108.03,221.45 108.03,235.83 103.24,235.83 103.24,231.03 84.07,231.03 84.07,226.24 103.24,226.24 
					103.24,221.45 				"/>
				<rect x="74.49" y="235.83" class="st23" width="4.79" height="14.37"/>
				<rect x="79.28" y="231.03" width="4.79" height="4.8"/>
				<rect x="79.28" y="250.2" class="st23" width="4.79" height="4.79"/>
			</g>
		</g>
	</g>
</g>
<g>
	<g id="XMLID_1_">
		<g>
			<rect x="624.76" y="373.27" class="st4" width="29.74" height="14.87"/>
			<rect x="595.01" y="403.02" class="st4" width="59.49" height="14.87"/>
			<rect x="490.91" y="388.14" class="st4" width="59.49" height="14.87"/>
			<rect x="461.16" y="417.89" class="st4" width="29.74" height="14.87"/>
			<g>
				<polygon class="st24" points="669.37,358.4 669.37,373.27 446.29,373.27 446.29,358.4 565.27,358.4 565.27,343.53 
					609.88,343.53 609.88,358.4 				"/>
			</g>
			<g>
				<polygon class="st5" points="684.24,313.78 684.24,358.4 609.88,358.4 609.88,343.53 565.27,343.53 565.27,358.4 431.42,358.4 
					431.42,313.78 				"/>
			</g>
		</g>
	</g>
</g>
<g>
	<defs>
		<rect id="SVGID_1_" x="223.08" y="560.06" width="475.9" height="321.8"/>
	</defs>
	<clipPath id="SVGID_2_">
		<use xlink:href="#SVGID_1_"  style="overflow:visible;"/>
	</clipPath>
	<g class="st25">
		<rect x="211.07" y="265.52" class="st26" width="482.51" height="682.94"/>
		<polygon class="st27" points="706.6,320.17 706.6,798.45 670.24,798.45 670.24,681.78 681.91,681.78 681.91,648.44 646.91,648.44 
			646.91,465.52 505.66,465.52 505.66,648.44 470.24,648.44 470.24,681.78 481.91,681.78 481.91,798.45 211.07,798.45 
			211.07,548.44 281.9,548.44 281.9,532.19 305.23,532.19 305.23,515.52 376.07,515.52 376.07,498.44 387.74,498.44 387.74,465.52 
			411.07,465.52 411.07,481.77 423.15,481.77 423.15,465.52 434.82,465.52 434.82,432.19 446.49,432.19 446.49,415.52 
			470.24,415.52 470.24,382.19 493.57,382.19 493.57,365.52 505.66,365.52 505.66,348.85 564.41,348.85 564.41,332.19 
			646.91,332.19 646.91,315.52 		"/>
		<polygon class="st26" points="681.91,648.44 681.91,681.78 670.24,681.78 670.24,798.45 481.91,798.45 481.91,681.78 
			470.24,681.78 470.24,648.44 505.66,648.44 505.66,465.52 646.91,465.52 646.91,648.44 		"/>
		<polygon class="st28" points="706.99,798.45 706.99,948.45 211.07,948.45 211.07,798.45 411.07,798.45 411.07,815.11 
			399.4,815.11 399.4,848.45 411.07,848.45 411.07,865.12 423.15,865.12 423.15,881.78 670.24,881.78 670.24,865.12 646.91,865.12 
			646.91,848.45 681.91,848.45 681.91,831.78 670.24,831.78 670.24,815.11 658.58,815.11 658.58,798.45 		"/>
		<polygon class="st29" points="646.91,848.45 646.91,865.12 670.24,865.12 670.24,881.78 423.15,881.78 423.15,865.12 
			411.07,865.12 411.07,848.45 399.4,848.45 399.4,815.11 411.07,815.11 411.07,798.45 517.32,798.45 517.32,815.11 528.99,815.11 
			528.99,831.78 540.66,831.78 540.66,848.45 587.74,848.45 587.74,831.78 599.83,831.78 599.83,815.11 623.16,815.11 
			623.16,798.45 658.58,798.45 658.58,815.11 670.24,815.11 670.24,831.78 681.91,831.78 681.91,848.45 		"/>
		<polygon class="st30" points="682.74,659.28 682.74,798.86 633.99,798.86 633.99,792.61 646.49,792.61 646.49,762.61 
			652.33,762.61 652.33,738.03 646.49,738.03 646.49,683.86 488.99,683.86 488.99,738.03 482.74,738.03 482.74,750.53 
			488.99,750.53 488.99,786.78 482.74,786.78 482.74,792.61 488.99,792.61 488.99,798.86 452.32,798.86 452.32,659.28 		"/>
		<rect x="628.16" y="732.2" class="st29" width="5.83" height="5.83"/>
		<path class="st31" d="M646.49,738.03V719.7h-12.08v6.25h-12.08v12.08h-6.25v-5.83h-18.33v12.08h6.25v12.08h18.33v-5.83h6.25v18.33
			h5.83v24.17h12.08v-30.42h6.25v-24.17C652.33,738.03,646.49,738.03,646.49,738.03z M633.99,738.03h-5.83v-5.83h5.83V738.03z"/>
		<polygon class="st29" points="646.49,683.86 646.49,720.11 633.99,720.11 633.99,725.95 621.91,725.95 621.91,738.03 
			616.08,738.03 616.08,732.2 591.91,732.2 591.91,725.95 579.83,725.95 579.83,732.2 573.58,732.2 573.58,720.11 567.74,720.11 
			567.74,713.86 537.32,713.86 537.32,725.95 518.99,725.95 518.99,720.11 531.07,720.11 531.07,713.86 513.16,713.86 
			513.16,701.78 525.24,701.78 525.24,695.94 531.07,695.94 531.07,683.86 		"/>
		<g>
			<polygon class="st32" points="561.49,725.95 561.49,725.95 561.49,720.11 555.24,720.11 555.24,725.95 555.24,725.95 
				555.24,732.2 555.24,738.03 549.41,738.03 549.41,738.03 543.16,738.03 543.16,732.2 537.32,732.2 537.32,738.03 537.32,744.28 
				543.16,744.28 549.41,744.28 549.41,744.28 543.16,744.28 537.32,744.28 537.32,750.11 543.16,750.11 549.41,750.11 
				555.24,750.11 555.24,744.28 561.49,744.28 561.49,738.03 561.49,732.2 567.74,732.2 567.74,725.95 			"/>
			<polygon class="st32" points="555.24,732.2 555.24,725.95 549.41,725.95 549.41,732.2 549.41,738.03 555.24,738.03 			"/>
			<rect x="531.07" y="744.28" class="st32" width="5.83" height="6.25"/>
		</g>
		<polygon id="duman" class="st33" points="561.49,713.86 561.49,720.11 555.24,720.11 555.24,725.95 549.41,725.95 549.41,738.03 
			543.16,738.03 543.16,732.2 537.32,732.2 537.32,744.28 525.24,744.28 525.24,725.95 537.32,725.95 537.32,713.86 		"/>
		<polygon class="st34" points="633.99,768.45 633.99,792.61 628.16,792.61 628.16,798.86 616.08,798.86 616.08,786.78 
			621.91,786.78 621.91,780.53 616.08,780.53 616.08,768.45 609.83,768.45 609.83,756.36 621.91,756.36 621.91,750.53 
			628.16,750.53 628.16,768.45 		"/>
		<polygon id="alev-u1" class="st34" points="597.74,732.2 597.74,738.03 585.66,738.03 585.66,744.28 579.83,744.28 579.83,725.95 
			591.91,725.95 591.91,732.2 		"/>
		<polygon class="st34" points="525.24,792.61 525.24,798.86 531.07,798.86 531.07,792.61 531.07,786.78 525.24,786.78 		"/>
		<rect id="alev-u3" x="525.24" y="744.28" class="st34" width="6.25" height="6.25"/>
		<g id="alev-turuncu">
			<rect x="628.16" y="792.61" class="st35" width="5.83" height="5.83"/>
			<rect x="603.99" y="756.36" class="st35" width="6.25" height="6.25"/>
			<rect x="597.74" y="756.36" class="st35" width="6.25" height="6.25"/>
			<polygon class="st35" points="603.99,744.28 603.99,756.36 591.91,756.36 591.91,750.11 585.66,750.11 585.66,762.61 
				579.83,762.61 579.83,756.36 573.58,756.36 573.58,738.03 579.83,738.03 579.83,744.28 585.66,744.28 585.66,738.03 
				591.91,738.03 591.91,744.28 			"/>
			<rect x="591.91" y="738.03" class="st35" width="5.83" height="6.25"/>
			<polygon class="st35" points="579.83,738.03 579.83,732.2 573.58,732.2 573.58,732.2 573.58,732.2 573.58,725.95 573.58,720.11 
				567.74,720.11 567.74,725.95 567.74,732.2 567.74,732.2 567.74,738.03 573.58,738.03 573.58,738.03 			"/>
			<rect x="561.49" y="720.11" class="st35" width="6.25" height="6.25"/>
			<rect x="561.49" y="713.86" class="st35" width="6.25" height="5.83"/>
			<polygon class="st35" points="621.91,780.53 621.91,786.78 616.08,786.78 616.08,798.86 531.07,798.86 531.07,786.78 
				525.24,786.78 525.24,798.86 513.16,798.86 513.16,786.78 513.16,786.78 513.16,756.36 518.99,756.36 518.99,762.61 
				525.24,762.61 525.24,750.11 531.07,750.11 531.07,756.36 579.83,756.36 579.83,762.61 585.66,762.61 585.66,756.36 
				597.74,756.36 597.74,762.61 609.83,762.61 609.83,768.45 616.08,768.45 616.08,780.53 			"/>
			<rect x="506.91" y="756.36" class="st35" width="5.83" height="30.42"/>
		</g>
		<polygon class="st33" points="513.16,786.78 513.16,798.86 501.07,798.86 501.07,762.61 506.91,762.61 506.91,786.78 		"/>
		<polygon class="st29" points="525.24,725.95 525.24,750.53 513.16,750.53 513.16,756.36 506.91,756.36 506.91,762.61 
			501.07,762.61 501.07,798.86 488.99,798.86 488.99,792.61 482.74,792.61 482.74,786.78 488.99,786.78 488.99,750.53 
			482.74,750.53 482.74,738.03 488.99,738.03 488.99,713.86 501.07,713.86 501.07,725.95 		"/>
		<polygon class="st31" points="513.16,701.78 513.16,713.86 531.07,713.86 531.07,720.11 518.99,720.11 518.99,725.95 
			501.07,725.95 501.07,713.86 488.99,713.86 488.99,683.86 531.07,683.86 531.07,695.94 525.24,695.94 525.24,701.78 		"/>
		<g>
			<path class="st36" d="M688.58,629.28v6.25h-6.25v5.83h-6.25v6.25h-5.83v-6.25h5.83v-5.83h6.25v-6.25H688.58v-6.25H446.49v6.25
				h6.25v6.25h5.83v5.83h6.25v6.25h12.08v6.25h-12.08v-6.25h-6.25v-6.25h-5.83v-5.83h-6.25v-6.25h-6.25v30.42h254.59v-30.42H688.58z
				 M525.24,653.44h-30.42v-6.25h30.42V653.44z M597.74,653.44h-18.33v-6.25h-5.83v-6.25h-5.83v6.25h-6.25v6.25h-18.33v-6.25h18.33
				v-6.25h6.25v-5.83h5.83v5.83h6.25v6.25h18.33v6.25H597.74z M646.49,653.44h-24.17v-6.25h24.17V653.44z"/>
		</g>
		<rect x="500.24" y="842.2" class="st37" width="9.17" height="9.17"/>
		<rect x="416.07" y="842.2" class="st5" width="9.17" height="9.17"/>
		<rect x="406.9" y="879.7" class="st38" width="9.17" height="9.17"/>
		<rect x="406.9" y="870.53" class="st38" width="9.17" height="9.17"/>
		<rect x="406.9" y="860.95" class="st38" width="9.17" height="9.17"/>
		<rect x="397.32" y="879.7" class="st38" width="9.17" height="9.17"/>
		<rect x="397.32" y="870.53" class="st38" width="9.17" height="9.17"/>
		<rect x="397.32" y="860.95" class="st38" width="9.17" height="9.17"/>
		<rect x="388.15" y="879.7" class="st38" width="9.17" height="9.17"/>
		<rect x="388.15" y="870.53" class="st38" width="9.17" height="9.17"/>
		<rect x="388.15" y="860.95" class="st38" width="9.17" height="9.17"/>
		<rect x="378.99" y="879.7" class="st38" width="9.17" height="9.17"/>
		<rect x="378.99" y="870.53" class="st38" width="9.17" height="9.17"/>
		<rect x="378.99" y="860.95" class="st38" width="9.17" height="9.17"/>
		<rect x="378.99" y="609.28" class="st39" width="9.17" height="9.17"/>
		<rect x="369.4" y="879.7" class="st38" width="9.17" height="9.17"/>
		<rect x="369.4" y="870.53" class="st38" width="9.17" height="9.17"/>
		<rect x="369.4" y="860.95" class="st38" width="9.17" height="9.17"/>
		<rect x="360.24" y="879.7" class="st38" width="9.17" height="9.17"/>
		<rect x="360.24" y="870.53" class="st38" width="9.17" height="9.17"/>
		<rect x="360.24" y="860.95" class="st38" width="9.17" height="9.17"/>
		<rect x="350.65" y="879.7" class="st38" width="9.17" height="9.17"/>
		<rect x="350.65" y="870.53" class="st38" width="9.17" height="9.17"/>
		<rect x="350.65" y="860.95" class="st38" width="9.17" height="9.17"/>
		<g id="beyaz">
			<rect x="406.9" y="786.36" class="st5" width="9.17" height="9.17"/>
			<rect x="388.15" y="702.61" class="st5" width="9.17" height="9.17"/>
			<rect x="378.99" y="637.19" class="st5" width="9.17" height="9.17"/>
			<rect x="350.65" y="758.45" class="st5" width="9.17" height="9.17"/>
		</g>
		<rect x="688.58" y="623.03" class="st40" width="6.25" height="6.25"/>
		<rect x="682.74" y="628.86" class="st40" width="6.25" height="6.25"/>
		<rect x="676.49" y="635.11" class="st40" width="6.25" height="6.25"/>
		<rect x="670.66" y="640.94" class="st40" width="6.25" height="6.25"/>
		<polygon class="st40" points="585.66,647.19 579.83,647.19 579.83,653.03 585.66,653.03 591.91,653.03 597.74,653.03 
			597.74,647.19 591.91,647.19 		"/>
		<rect x="573.58" y="640.94" class="st40" width="6.25" height="6.25"/>
		<rect x="567.74" y="635.11" class="st40" width="6.25" height="6.25"/>
		<rect x="561.49" y="640.94" class="st40" width="6.25" height="6.25"/>
		<polygon class="st40" points="549.41,647.19 543.16,647.19 543.16,653.03 549.41,653.03 555.24,653.03 561.49,653.03 
			561.49,647.19 555.24,647.19 		"/>
		<polygon class="st40" points="513.16,647.19 506.91,647.19 501.07,647.19 494.82,647.19 494.82,653.03 501.07,653.03 
			506.91,653.03 513.16,653.03 518.99,653.03 525.24,653.03 525.24,647.19 518.99,647.19 		"/>
		<polygon class="st40" points="464.41,647.19 464.41,653.03 470.66,653.03 476.49,653.03 476.49,647.19 470.66,647.19 		"/>
		<rect x="458.57" y="640.94" class="st40" width="6.25" height="6.25"/>
		<rect x="452.32" y="635.11" class="st40" width="6.25" height="6.25"/>
		<rect x="446.49" y="628.86" class="st40" width="6.25" height="6.25"/>
		<rect x="440.24" y="623.03" class="st40" width="6.25" height="6.25"/>
		<polygon class="st40" points="406.9,637.19 397.32,637.19 397.32,646.36 388.15,646.36 388.15,655.94 378.99,655.94 369.4,655.94 
			369.4,665.11 360.24,665.11 360.24,674.28 350.65,674.28 350.65,665.11 341.49,665.11 341.49,674.28 332.32,674.28 332.32,683.86 
			341.49,683.86 350.65,683.86 360.24,683.86 369.4,683.86 369.4,674.28 378.99,674.28 378.99,665.11 388.15,665.11 397.32,665.11 
			397.32,655.94 406.9,655.94 406.9,646.36 416.07,646.36 416.07,637.19 		"/>
		<g id="sari">
			<rect x="491.07" y="823.86" class="st37" width="9.17" height="9.17"/>
			<rect x="434.82" y="805.11" class="st37" width="9.17" height="9.17"/>
			<rect x="388.15" y="739.7" class="st37" width="9.17" height="9.17"/>
			<rect x="332.32" y="711.78" class="st37" width="9.17" height="9.17"/>
			<rect x="322.73" y="823.86" class="st37" width="9.17" height="9.17"/>
		</g>
		<polygon class="st41" points="434.82,693.03 425.65,693.03 425.65,702.61 416.07,702.61 406.9,702.61 406.9,711.78 397.32,711.78 
			388.15,711.78 388.15,720.95 378.99,720.95 369.4,720.95 369.4,730.53 360.24,730.53 350.65,730.53 350.65,739.7 341.49,739.7 
			332.32,739.7 332.32,748.86 322.73,748.86 322.73,739.7 313.57,739.7 313.57,730.53 304.4,730.53 304.4,739.7 304.4,748.86 
			313.57,748.86 313.57,758.45 322.73,758.45 332.32,758.45 341.49,758.45 341.49,748.86 350.65,748.86 360.24,748.86 369.4,748.86 
			369.4,739.7 378.99,739.7 388.15,739.7 388.15,730.53 397.32,730.53 406.9,730.53 416.07,730.53 416.07,720.95 425.65,720.95 
			425.65,711.78 434.82,711.78 434.82,702.61 444.4,702.61 444.4,693.03 		"/>
		<g id="mor">
			<rect x="462.74" y="777.2" class="st42" width="9.17" height="9.17"/>
			<rect x="444.4" y="739.7" class="st42" width="9.17" height="9.17"/>
			<rect x="397.32" y="674.28" class="st42" width="9.17" height="9.17"/>
			<rect x="360.24" y="823.86" class="st42" width="9.17" height="9.17"/>
			<rect x="360.24" y="627.61" class="st42" width="9.17" height="9.17"/>
			<rect x="294.82" y="767.61" class="st42" width="9.17" height="9.17"/>
		</g>
		<rect x="285.65" y="851.78" class="st42" width="9.17" height="9.17"/>
		<g id="turuncu">
			<rect x="444.4" y="786.36" class="st37" width="9.17" height="9.17"/>
			<rect x="434.82" y="720.95" class="st37" width="9.17" height="9.17"/>
			<rect x="369.4" y="693.03" class="st37" width="9.17" height="9.17"/>
			<rect x="350.65" y="646.36" class="st37" width="9.17" height="9.17"/>
			<rect x="322.73" y="777.2" class="st37" width="9.17" height="9.17"/>
			<rect x="276.07" y="805.11" class="st37" width="9.17" height="9.17"/>
		</g>
		<polygon class="st43" points="462.74,748.86 453.57,748.86 453.57,758.45 444.4,758.45 434.82,758.45 425.65,758.45 
			425.65,767.61 416.07,767.61 406.9,767.61 406.9,777.2 397.32,777.2 397.32,767.61 388.15,767.61 378.99,767.61 378.99,777.2 
			369.4,777.2 360.24,777.2 360.24,786.36 350.65,786.36 341.49,786.36 341.49,795.53 332.32,795.53 322.73,795.53 322.73,805.11 
			313.57,805.11 313.57,795.53 304.4,795.53 304.4,786.36 294.82,786.36 285.65,786.36 276.07,786.36 276.07,795.53 276.07,805.11 
			285.65,805.11 294.82,805.11 294.82,814.28 304.4,814.28 313.57,814.28 322.73,814.28 332.32,814.28 332.32,805.11 341.49,805.11 
			350.65,805.11 360.24,805.11 360.24,795.53 369.4,795.53 369.4,786.36 378.99,786.36 388.15,786.36 397.32,786.36 406.9,786.36 
			416.07,786.36 416.07,777.2 425.65,777.2 434.82,777.2 444.4,777.2 453.57,777.2 453.57,767.61 462.74,767.61 462.74,758.45 
			472.32,758.45 472.32,748.86 		"/>
		<g>
			<polygon class="st44" points="491.07,842.2 481.49,842.2 481.49,833.03 491.07,833.03 491.07,823.86 481.49,823.86 
				472.32,823.86 462.74,823.86 462.74,833.03 462.74,842.2 453.57,842.2 444.4,842.2 434.82,842.2 425.65,842.2 425.65,851.78 
				416.07,851.78 416.07,842.2 425.65,842.2 425.65,833.03 416.07,833.03 406.9,833.03 406.9,842.2 406.9,851.78 406.9,860.95 
				416.07,860.95 425.65,860.95 434.82,860.95 444.4,860.95 453.57,860.95 453.57,851.78 462.74,851.78 462.74,860.95 
				472.32,860.95 481.49,860.95 491.07,860.95 491.07,851.78 500.24,851.78 500.24,842.2 			"/>
			<path class="st44" d="M416.07,823.86h9.17h9.17v9.17h10v-9.17h9.17v-9.17h9.17h9.17v-9.17h-9.17v-9.17h-9.17h-9.17v-10h9.17h9.17
				v-9.17h-9.17h-9.17h-9.17h-9.17h-9.17v9.17v9.17h-10v-9.17h-9.17h-9.17h-9.17h-10v9.17h9.17v9.17h-9.17v-9.17h-9.17v9.17h-9.17
				h-9.17h-9.17v9.17h-9.17h-9.17h-9.17h-9.17v9.17v9.17h9.17v9.17h9.17h9.17v9.17h9.17h9.17v-9.17h9.17h9.17h9.17h9.17v9.17h9.17
				v-9.17h9.17v-9.17v-8.33h10H416.07z M444.4,814.28h-9.17v-9.17h9.17V814.28z M322.73,823.86h9.17v9.17h-9.17V823.86z
				 M360.24,833.03v-9.17h9.17v9.17H360.24z"/>
			<polygon class="st44" points="388.15,655.94 388.15,646.36 378.99,646.36 378.99,637.19 388.15,637.19 388.15,646.36 
				397.32,646.36 397.32,637.19 397.32,627.61 388.15,627.61 388.15,618.44 378.99,618.44 378.99,627.61 369.4,627.61 369.4,637.19 
				360.24,637.19 360.24,646.36 369.4,646.36 369.4,655.94 378.99,655.94 			"/>
			<rect x="360.24" y="655.94" class="st44" width="9.17" height="9.17"/>
			<polygon class="st44" points="350.65,851.78 350.65,860.95 360.24,860.95 369.4,860.95 369.4,851.78 360.24,851.78 			"/>
			<rect x="350.65" y="665.11" class="st44" width="9.17" height="9.17"/>
			<path class="st44" d="M350.65,739.7v-9.17h9.17h9.58v-9.17h9.17h9.17v-9.17v-9.17h9.17v9.17h10v-9.17h9.17v-9.17h9.17v-9.17
				h-9.17h-9.17h-9.17v-9.17h9.17h9.17v-9.17h-9.17v-9.17h-9.17v9.17h-9.17h-9.17v9.17h-10v9.17h-9.17h-9.17v9.17v9.17h-9.17h-9.17
				v9.17h9.17v9.17h-9.17h-9.17v9.17h9.17v9.17h9.17H350.65L350.65,739.7z M378.99,693.03v9.17h-9.58v-9.17H378.99z"/>
			<rect x="322.73" y="739.7" class="st44" width="9.17" height="9.17"/>
			<path class="st44" d="M313.57,786.36v9.17v9.17h9.17v-9.17h9.17h9.17v-9.17h9.17h9.17v-9.17h9.17h9.17v-9.17h9.17h9.17v9.17
				h10.83v-9.17h9.17h9.17v-9.17h-9.17v-10h9.17v9.17h9.17h10v-9.17v-9.17h-9.17v-9.17v-9.17h-9.17h-9.17v9.17h-10h-9.17h-9.17v9.17
				h9.17v9.17h-9.17v-9.17h-9.17h-10v9.17h-9.17h-9.17h-9.17v9.17h-9.17h-9.17h-9.17h-9.17v9.17h9.17v9.17h-9.17h-9.17v9.17h9.17
				L313.57,786.36L313.57,786.36z M360.24,758.45v9.17h-9.17v-9.17H360.24z M332.32,777.2v9.17h-9.17v-9.17H332.32z"/>
			<polygon class="st44" points="294.82,851.78 294.82,860.95 304.4,860.95 313.57,860.95 313.57,851.78 304.4,851.78 			"/>
			<rect x="285.65" y="805.11" class="st44" width="9.17" height="9.17"/>
			<rect x="276.07" y="851.78" class="st44" width="9.17" height="9.17"/>
			<rect x="276.07" y="823.86" class="st44" width="9.17" height="9.17"/>
			<rect x="266.9" y="842.2" class="st44" width="9.17" height="9.17"/>
		</g>
		<rect x="257.73" y="842.2" class="st37" width="9.17" height="9.17"/>
		<polygon class="st45" points="491.07,805.11 481.49,805.11 472.32,805.11 472.32,814.28 462.74,814.28 453.57,814.28 
			453.57,823.86 444.4,823.86 444.4,833.03 434.82,833.03 434.82,823.86 425.65,823.86 416.07,823.86 406.9,823.86 397.32,823.86 
			397.32,833.03 397.32,842.2 388.15,842.2 388.15,851.78 378.99,851.78 378.99,842.2 369.4,842.2 360.24,842.2 350.65,842.2 
			341.49,842.2 341.49,851.78 332.32,851.78 322.73,851.78 322.73,842.2 313.57,842.2 304.4,842.2 304.4,833.03 294.82,833.03 
			285.65,833.03 276.07,833.03 276.07,823.86 266.9,823.86 257.73,823.86 257.73,833.03 266.9,833.03 266.9,842.2 276.07,842.2 
			276.07,851.78 285.65,851.78 294.82,851.78 304.4,851.78 313.57,851.78 313.57,860.95 322.73,860.95 332.32,860.95 341.49,860.95 
			350.65,860.95 350.65,851.78 360.24,851.78 369.4,851.78 369.4,860.95 378.99,860.95 388.15,860.95 397.32,860.95 406.9,860.95 
			406.9,851.78 406.9,842.2 406.9,833.03 416.07,833.03 425.65,833.03 425.65,842.2 434.82,842.2 444.4,842.2 453.57,842.2 
			462.74,842.2 462.74,833.03 462.74,823.86 472.32,823.86 481.49,823.86 481.49,814.28 491.07,814.28 500.24,814.28 500.24,805.11 
					"/>
		<polygon class="st46" points="509.41,842.2 509.41,851.78 500.24,851.78 491.07,851.78 491.07,860.95 500.24,860.95 
			509.41,860.95 518.57,860.95 518.57,851.78 518.57,842.2 		"/>
		<polygon class="st46" points="509.41,823.86 500.24,823.86 500.24,833.03 491.07,833.03 481.49,833.03 481.49,842.2 491.07,842.2 
			500.24,842.2 509.41,842.2 509.41,833.03 		"/>
		<polygon class="st46" points="491.07,814.28 481.49,814.28 481.49,823.86 491.07,823.86 500.24,823.86 500.24,814.28 		"/>
		<polygon class="st46" points="491.07,805.11 491.07,795.53 491.07,786.36 481.49,786.36 481.49,777.2 481.49,767.61 
			472.32,767.61 472.32,758.45 462.74,758.45 462.74,767.61 453.57,767.61 453.57,777.2 462.74,777.2 472.32,777.2 472.32,786.36 
			462.74,786.36 453.57,786.36 453.57,795.53 462.74,795.53 462.74,805.11 472.32,805.11 481.49,805.11 		"/>
		<polygon class="st46" points="462.74,748.86 462.74,739.7 462.74,730.53 453.57,730.53 453.57,720.95 453.57,711.78 444.4,711.78 
			444.4,702.61 434.82,702.61 434.82,711.78 425.65,711.78 425.65,720.95 434.82,720.95 444.4,720.95 444.4,730.53 434.82,730.53 
			434.82,739.7 444.4,739.7 453.57,739.7 453.57,748.86 		"/>
		<rect x="444.4" y="748.86" class="st46" width="9.17" height="9.17"/>
		<polygon class="st46" points="434.82,693.03 434.82,683.86 434.82,674.28 425.65,674.28 425.65,665.11 425.65,655.94 
			416.07,655.94 416.07,646.36 406.9,646.36 406.9,655.94 406.9,665.11 416.07,665.11 416.07,674.28 406.9,674.28 406.9,683.86 
			416.07,683.86 425.65,683.86 425.65,693.03 		"/>
		<rect x="416.07" y="693.03" class="st46" width="9.17" height="9.17"/>
		<polygon class="st46" points="406.9,637.19 406.9,627.61 406.9,618.44 397.32,618.44 397.32,609.28 397.32,599.69 388.15,599.69 
			388.15,590.53 388.15,581.36 378.99,581.36 378.99,590.53 378.99,599.69 369.4,599.69 369.4,609.28 369.4,618.44 360.24,618.44 
			360.24,627.61 369.4,627.61 378.99,627.61 378.99,618.44 378.99,609.28 388.15,609.28 388.15,618.44 388.15,627.61 397.32,627.61 
			397.32,637.19 		"/>
		<rect x="360.24" y="646.36" class="st46" width="9.17" height="9.17"/>
		<rect x="350.65" y="637.19" class="st46" width="9.17" height="9.17"/>
		<polygon class="st46" points="341.49,655.94 341.49,665.11 350.65,665.11 360.24,665.11 360.24,655.94 350.65,655.94 		"/>
		<polygon class="st46" points="332.32,683.86 332.32,693.03 341.49,693.03 341.49,702.61 350.65,702.61 350.65,693.03 
			350.65,683.86 341.49,683.86 		"/>
		<polygon class="st46" points="322.73,702.61 322.73,711.78 313.57,711.78 313.57,720.95 313.57,730.53 313.57,739.7 322.73,739.7 
			332.32,739.7 332.32,730.53 322.73,730.53 322.73,720.95 332.32,720.95 332.32,711.78 332.32,702.61 332.32,693.03 322.73,693.03 
					"/>
		<rect x="304.4" y="786.36" class="st46" width="9.17" height="9.17"/>
		<rect x="304.4" y="767.61" class="st46" width="9.17" height="9.17"/>
		<polygon class="st46" points="294.82,748.86 294.82,758.45 294.82,767.61 304.4,767.61 304.4,758.45 313.57,758.45 313.57,748.86 
			304.4,748.86 		"/>
		<polygon class="st46" points="285.65,777.2 285.65,786.36 294.82,786.36 294.82,777.2 294.82,767.61 285.65,767.61 		"/>
		<polygon class="st46" points="276.07,814.28 276.07,805.11 266.9,805.11 266.9,814.28 266.9,823.86 276.07,823.86 285.65,823.86 
			294.82,823.86 294.82,814.28 285.65,814.28 		"/>
		<polygon class="st46" points="257.73,851.78 257.73,842.2 248.15,842.2 248.15,851.78 248.15,860.95 257.73,860.95 266.9,860.95 
			276.07,860.95 276.07,851.78 266.9,851.78 		"/>
		<rect x="257.73" y="833.03" class="st46" width="9.17" height="9.17"/>
		<rect x="248.15" y="833.03" class="st5" width="9.17" height="9.17"/>
		<g>
			<rect x="272.73" y="835.95" class="st47" width="11.25" height="11.25"/>
			<rect x="261.48" y="853.03" class="st47" width="5.42" height="27.92"/>
			<rect x="261.48" y="841.78" class="st47" width="5.42" height="5.42"/>
			<rect x="244.82" y="835.95" class="st47" width="11.25" height="11.25"/>
		</g>
		<g>
			<g>
				<polygon class="st48" points="382.74,858.03 382.74,853.45 382.74,848.87 378.15,848.87 373.57,848.87 373.57,853.45 
					373.57,858.03 378.15,858.03 				"/>
				<polygon class="st48" points="363.99,867.62 363.99,872.62 363.99,877.2 363.99,881.78 363.99,886.78 368.57,886.78 
					368.57,881.78 368.57,877.2 368.57,872.62 368.57,867.62 368.57,863.03 363.99,863.03 				"/>
				<rect x="363.99" y="853.45" class="st48" width="4.58" height="4.58"/>
				<polygon class="st48" points="349.82,848.87 349.82,853.45 349.82,858.03 354.4,858.03 358.99,858.03 358.99,853.45 
					358.99,848.87 354.4,848.87 				"/>
				<polygon class="st48" points="349.82,872.62 349.82,872.62 349.82,872.62 				"/>
			</g>
			<g>
				<path class="st49" d="M387.74,858.03v-4.58v-4.58h-4.58v4.58v4.58h-4.58l0,0h-5v-4.58v-4.58h-4.58h-4.58l0,0h-4.58v4.58v4.58
					h-4.58h-4.58v-4.58v-4.58h4.58h4.58v-4.58h-4.58h-4.58v4.58h-4.58v4.58v4.58h-5.83v4.58v4.58v4.58l0,0v4.58v4.58v4.58l0,0v4.58
					h4.58h4.58l0,0h4.58h4.58h4.58l0,0h4.58h5.83h4.58l0,0h4.58h4.58h4.58v-4.58l0,0v-4.58v-4.58v-4.58l0,0v-4.58v-4.58v-4.58
					L387.74,858.03L387.74,858.03z M368.57,853.45v4.58h-4.58v-4.58H368.57z M354.4,886.78h-4.58l0,0h-4.58v-4.58v-4.58v-4.58l0,0
					v-4.58v-4.58h4.58l0,0h4.58h4.58v4.58v4.58l0,0v4.58v4.58v4.58H354.4z M363.99,886.78v-4.58v-4.58v-4.58l0,0v-4.58v-4.58h4.58
					v4.58v4.58l0,0v4.58v4.58v4.58H363.99z M387.74,867.62v4.58l0,0v4.58v4.58v4.58h-4.58h-4.58l0,0h-5v-4.58v-4.58v-4.58l0,0v-4.58
					v-4.58h4.58l0,0h4.58h4.58v4.58H387.74z"/>
				<polygon class="st49" points="378.15,848.87 382.74,848.87 382.74,843.87 378.15,843.87 378.15,843.87 373.57,843.87 
					373.57,848.87 				"/>
			</g>
			<rect x="344.82" y="863.03" class="st48" width="14.17" height="23.75"/>
			<rect x="373.57" y="863.03" class="st48" width="14.17" height="23.75"/>
			<g>
				<rect x="382.74" y="881.78" class="st50" width="4.58" height="4.58"/>
				<rect x="382.74" y="872.2" class="st50" width="4.58" height="4.58"/>
				<rect x="382.74" y="863.03" class="st50" width="4.58" height="4.58"/>
				<rect x="378.15" y="877.2" class="st50" width="4.58" height="4.58"/>
				<rect x="378.15" y="867.62" class="st50" width="4.58" height="4.58"/>
				<rect x="373.57" y="881.78" class="st50" width="4.58" height="4.58"/>
				<rect x="373.57" y="872.2" class="st50" width="4.58" height="4.58"/>
				<rect x="373.57" y="863.03" class="st50" width="4.58" height="4.58"/>
				<rect x="354.4" y="881.78" class="st50" width="4.58" height="4.58"/>
				<rect x="354.4" y="872.2" class="st50" width="4.58" height="4.58"/>
				<rect x="354.4" y="863.03" class="st50" width="4.58" height="4.58"/>
				<rect x="349.82" y="877.2" class="st50" width="4.58" height="4.58"/>
				<rect x="349.82" y="867.62" class="st50" width="4.58" height="4.58"/>
				<rect x="344.82" y="881.78" class="st50" width="4.58" height="4.58"/>
				<rect x="344.82" y="872.2" class="st50" width="4.58" height="4.58"/>
				<rect x="344.82" y="863.03" class="st50" width="4.58" height="4.58"/>
			</g>
		</g>
		<g>
			<rect x="328.15" y="858.03" class="st51" width="11.25" height="5.42"/>
			<rect x="328.15" y="880.53" class="st51" width="11.25" height="5.42"/>
			<polygon class="st51" points="333.99,869.28 333.99,874.7 328.15,874.7 328.15,880.53 322.73,880.53 322.73,869.28 			"/>
			<rect x="322.73" y="841.37" class="st52" width="11.25" height="11.25"/>
			<rect x="311.48" y="858.03" class="st52" width="5.42" height="27.92"/>
			<rect x="311.48" y="846.78" class="st52" width="5.42" height="5.42"/>
			<rect x="294.82" y="846.78" class="st52" width="5.42" height="5.42"/>
			<polygon class="st52" points="306.07,841.37 306.07,852.62 300.23,852.62 300.23,846.78 294.82,846.78 294.82,841.37 			"/>
			<rect x="289.4" y="858.03" class="st51" width="16.67" height="27.92"/>
			<g>
				<polygon class="st53" points="339.4,863.45 339.4,880.53 328.15,880.53 328.15,874.7 333.99,874.7 333.99,869.28 322.73,869.28 
					322.73,858.03 328.15,858.03 328.15,863.45 				"/>
				<rect x="322.73" y="880.53" class="st53" width="5.42" height="5.42"/>
			</g>
		</g>
		<g>
			<g id="XMLID_2_">
				<g>
					<polygon class="st54" points="417.32,855.95 411.49,856.37 405.65,856.37 405.65,856.37 405.65,850.95 405.65,850.95 
						405.24,845.95 411.49,845.53 417.32,845.53 417.32,850.53 417.32,850.53 					"/>
					<polygon class="st55" points="417.32,845.53 411.49,845.53 405.24,845.95 405.24,840.53 411.07,840.12 416.9,840.12 					"/>
					<polygon class="st54" points="400.65,888.87 394.82,889.28 394.4,883.87 394.82,883.87 394.4,878.45 394.4,873.03 
						394.4,873.03 393.99,867.62 393.99,862.2 393.99,862.2 399.82,862.2 400.24,867.2 400.24,867.62 400.24,872.62 400.24,872.62 
						400.24,878.03 400.24,878.03 400.65,883.45 400.65,883.45 					"/>
					<polygon class="st54" points="399.82,856.78 399.82,856.78 393.99,856.78 393.57,851.37 399.82,851.37 					"/>
					<polygon class="st55" points="423.57,855.95 417.74,855.95 417.32,850.53 417.32,845.53 423.15,845.12 423.15,850.53 					"/>
					<polygon class="st54" points="388.15,856.78 387.74,856.78 381.9,857.2 381.9,857.2 376.07,857.2 376.07,851.78 376.07,851.78 
						375.65,846.37 376.07,846.37 381.49,846.37 381.9,846.37 387.74,846.37 387.74,846.37 387.74,851.37 387.74,851.37 
						387.74,851.78 					"/>
					<polygon class="st55" points="387.74,846.37 381.9,846.37 381.49,846.37 376.07,846.37 375.65,841.37 381.49,840.95 
						387.32,840.95 					"/>
					<polygon class="st55" points="376.07,851.78 370.24,852.2 369.82,846.78 375.65,846.37 375.65,846.37 					"/>
					<polygon class="st55" points="383.15,894.7 383.15,894.7 377.32,895.12 371.49,895.12 371.49,895.12 365.65,895.12 
						365.24,889.7 365.24,884.7 365.24,884.7 364.82,879.28 364.82,873.87 364.82,873.87 364.82,868.45 364.4,863.03 364.4,863.03 
						364.4,857.62 370.24,857.62 369.82,852.2 376.07,851.78 376.07,857.2 376.07,857.2 381.9,857.2 381.9,857.2 387.74,856.78 
						388.15,862.2 382.32,862.62 376.49,862.62 370.24,863.03 370.24,862.62 370.24,862.62 370.65,868.03 370.65,873.45 
						370.65,873.45 370.65,878.87 371.07,884.28 371.07,884.28 371.07,889.7 371.07,889.7 376.9,889.7 382.74,889.28 382.74,889.28 
						388.99,889.28 388.99,894.7 					"/>
					<path class="st55" d="M412.32,888.45h-5.83v-5.42v-5.42l0,0v-5.42v-5.42h-5.83v5.42l0,0v5.42l0,0v5.42l0,0v5.42l0,0l0,0h-5.83
						v-5.42l0,0v-5.42v-5.42l0,0v-5.42v-5.42l0,0h5.83l0,0v5.42h5.83v-5.42v-5.42l0,0v-5.42l0,0v-5.42l-11.67,0.42h-5.83v5.42l0,0
						l0,0v5.42l0,0v5.42l0,0v5.42v5.42l0,0v5.42v5.42l0,0v5.42v5.42h5.83h5.83l0,0h5.83h5.83L412.32,888.45z M393.57,851.37
						L393.57,851.37h5.83v5.42l0,0h-5.83l0,0V851.37z"/>
					<polygon class="st55" points="430.24,893.45 424.4,893.45 418.57,893.87 418.57,893.87 412.74,893.87 412.74,888.45 
						418.57,888.45 418.57,888.45 424.4,888.45 424.4,888.45 424.4,883.03 423.99,877.62 423.99,877.62 423.99,872.2 423.57,866.78 
						423.99,866.78 423.57,861.37 417.74,861.78 417.74,861.37 411.9,861.78 406.07,861.78 405.65,856.37 411.49,856.37 
						417.32,855.95 417.32,856.37 429.4,855.95 429.4,861.37 429.82,866.37 429.4,866.37 429.82,871.78 429.82,877.2 429.82,877.2 
						430.24,882.62 430.24,888.03 430.24,888.03 					"/>
				</g>
			</g>
		</g>
		<g>
			<g id="XMLID_22_">
				<g>
					<g>
						<polygon class="st56" points="461.91,844.7 457.32,844.7 457.32,849.28 457.32,854.28 461.91,854.28 466.91,854.28 
							466.91,849.28 466.91,844.7 						"/>
						<polygon class="st56" points="448.16,863.45 448.16,868.45 448.16,873.03 448.16,877.62 448.16,882.62 452.74,882.62 
							452.74,877.62 452.74,873.03 452.74,868.45 452.74,863.45 452.74,858.87 448.16,858.87 						"/>
						<rect x="448.16" y="849.28" class="st56" width="4.58" height="4.58"/>
						<polygon class="st56" points="433.57,844.7 433.57,849.28 433.57,854.28 438.57,854.28 443.15,854.28 443.15,849.28 
							443.15,844.7 438.57,844.7 						"/>
					</g>
					<g>
						<polygon class="st57" points="466.91,858.87 461.91,858.87 457.32,858.87 457.32,863.45 457.32,868.45 457.32,873.03 
							457.32,877.62 457.32,882.62 461.91,882.62 466.91,882.62 471.49,882.62 471.49,877.62 471.49,873.03 471.49,868.45 
							471.49,863.45 471.49,858.87 						"/>
						<polygon class="st57" points="433.57,858.87 428.99,858.87 428.99,863.45 428.99,868.45 428.99,873.03 428.99,877.62 
							428.99,882.62 433.57,882.62 438.57,882.62 443.15,882.62 443.15,877.62 443.15,873.03 443.15,868.45 443.15,863.45 
							443.15,858.87 438.57,858.87 						"/>
					</g>
					<g>
						<path class="st58" d="M471.49,854.28v-4.58l0,0v-5h-4.58v4.58l0,0v4.58h-4.58l0,0h-4.58v-4.58l0,0v-4.58h-5l0,0h-4.58h-4.58
							v4.58l0,0v4.58h-4.58l0,0h-4.58v-4.58l0,0v-4.58h-4.58v4.58l0,0v4.58h-4.58v4.58v4.58l0,0v4.58v4.58v4.58l0,0v4.58v4.58h4.58
							l0,0h4.58h4.58l0,0h4.58h4.58h4.58l0,0h4.58h4.58l0,0h4.58h4.58h4.58v-4.58v-3.33l0,0v-4.58v-4.58v-4.58l0,0v-4.58v-4.58
							h-4.17V854.28z M448.16,849.7h4.58v4.58h-4.58V849.7z M438.57,882.62L438.57,882.62h-4.58h-4.58v-4.58l0,0v-4.58v-4.58v-4.58
							l0,0v-4.58h4.58h4.58l0,0h4.58v4.58l0,0v4.58v4.58v4.58l0,0v4.58H438.57z M448.16,882.62v-4.58l0,0v-4.58v-4.58v-4.58l0,0
							v-4.58h4.58v4.58l0,0v4.58v4.58v4.58l0,0v4.58H448.16z M471.49,863.45L471.49,863.45v4.58v4.58v4.58l0,0v4.58h-4.58h-4.58l0,0
							h-4.58v-3.75l0,0v-4.58v-4.58v-4.58l0,0v-4.58h4.58l0,0h4.58h4.58V863.45z"/>
						<polygon class="st58" points="462.32,844.7 466.91,844.7 466.91,840.12 462.32,840.12 461.91,840.12 457.32,840.12 
							457.32,844.7 461.91,844.7 						"/>
						<polygon class="st58" points="438.57,844.7 443.15,844.7 443.15,840.12 438.57,840.12 438.57,840.12 433.57,840.12 
							433.57,844.7 						"/>
					</g>
				</g>
			</g>
		</g>
		<g>
			<polygon class="st59" points="423.99,877.62 423.99,872.2 423.99,866.78 423.57,861.37 417.74,861.37 411.9,861.78 
				405.65,861.78 406.07,867.2 406.07,872.62 406.49,878.03 406.49,883.45 406.49,888.87 412.74,888.45 418.57,888.45 424.4,888.45 
				424.4,883.03 			"/>
			<polygon class="st59" points="388.57,878.45 388.57,873.03 388.15,867.62 388.15,862.2 382.32,862.62 376.49,862.62 
				370.24,862.62 370.65,868.03 370.65,873.87 370.65,878.87 371.07,884.28 371.07,889.7 376.9,889.7 383.15,889.28 388.99,889.28 
				388.57,883.87 			"/>
			<polygon class="st59" points="505.66,846.78 500.66,846.78 500.66,852.2 500.66,857.2 505.66,857.2 510.66,857.2 510.66,852.2 
				510.66,846.78 			"/>
			<polygon class="st59" points="490.24,867.2 490.24,872.62 490.24,877.62 490.24,882.62 490.24,887.62 495.66,887.62 
				495.66,882.62 495.66,877.62 495.66,872.62 495.66,867.2 495.66,862.2 490.24,862.2 			"/>
			<rect x="490.24" y="852.2" class="st59" width="5" height="5"/>
			<polygon class="st59" points="475.24,846.78 475.24,852.2 475.24,857.2 480.24,857.2 485.24,857.2 485.24,852.2 485.24,846.78 
				480.24,846.78 			"/>
		</g>
		<g id="mavi">
			<rect x="416.07" y="748.86" class="st60" width="9.17" height="9.17"/>
			<rect x="369.4" y="795.53" class="st60" width="9.17" height="9.17"/>
			<rect x="332.32" y="693.03" class="st60" width="9.17" height="9.17"/>
			<rect x="285.65" y="823.86" class="st60" width="9.17" height="9.17"/>
		</g>
		<polygon class="st61" points="510.66,862.2 505.66,862.2 500.66,862.2 500.66,867.2 500.66,872.62 500.66,877.62 500.66,882.62 
			500.66,887.62 505.66,887.62 510.66,887.62 516.07,887.62 516.07,882.62 516.07,877.62 516.07,872.62 516.07,867.2 516.07,862.2 
					"/>
		<polygon class="st61" points="475.24,862.2 469.82,862.2 469.82,867.2 469.82,872.62 469.82,877.62 469.82,882.62 469.82,887.62 
			475.24,887.62 480.24,887.62 485.24,887.62 485.24,882.62 485.24,877.62 485.24,872.62 485.24,867.2 485.24,862.2 480.24,862.2 		
			"/>
		<g>
			<path class="st62" d="M516.07,857.2v-5v-5h-5v5v5h-5h-5v-5v-5h-5h-5h-5v5v5h-5h-5v-5v-5h-5v5v5h-5.83v5v5v5v5v5v5v5h5h5h5h5h5h5
				h5h5h5.83h5h5v-5v-5v-5v-5v-5v-5v-5H516.07z M490.24,852.2h5v5h-5V852.2z M480.24,887.62h-5h-5v-5v-5v-5v-5v-5h5h5h5v5v5v5v5v5
				H480.24z M490.24,887.62v-5v-5v-5v-5v-5h5v5v5v5v5v5H490.24z M516.07,867.2v5v5v5v5h-5h-5h-5v-5v-5v-5v-5v-5h5h5h5V867.2z"/>
			<polygon class="st62" points="510.66,846.78 510.66,841.78 505.66,841.78 500.66,841.78 500.66,846.78 505.66,846.78 			"/>
			<polygon class="st62" points="485.24,846.78 485.24,841.78 480.24,841.78 475.24,841.78 475.24,846.78 480.24,846.78 			"/>
		</g>
		<polygon class="st63" points="283.98,853.03 278.15,853.03 272.73,853.03 272.73,858.45 272.73,863.87 272.73,869.7 
			272.73,875.12 272.73,880.53 278.15,880.53 283.98,880.53 289.4,880.53 295.23,880.53 295.23,875.12 295.23,869.7 295.23,863.87 
			295.23,858.45 295.23,853.03 289.4,853.03 		"/>
		<polygon class="st63" points="244.82,853.03 239.4,853.03 239.4,858.45 239.4,863.87 239.4,869.7 239.4,875.12 239.4,880.53 
			244.82,880.53 250.65,880.53 256.07,880.53 256.07,875.12 256.07,869.7 256.07,863.87 256.07,858.45 256.07,853.03 250.65,853.03 
					"/>
		<polygon class="st21" points="283.98,835.95 283.98,830.53 278.15,830.53 272.73,830.53 272.73,835.95 278.15,835.95 		"/>
		<polygon class="st21" points="256.07,835.95 256.07,830.53 250.65,830.53 244.82,830.53 244.82,835.95 250.65,835.95 		"/>
		<path class="st21" d="M339.4,846.78v-5.42h-5.42v5.42v5.42h-5.42h-5.42v-5.42v-5.42h-5.42h-5.42h-5.42v5.42v5.42h-5.42v-5h-5.42
			l0,0v-0.42v-5.42h-5.42v-5h-5.42v5.42v5.42h-5.42h-5.42v-5.42v-5.42h-5.42h-5.42h-5.42v5.42v5.42h-7.5h-5.83v-5.42v-5.42h-5.42
			v5.42v5.42h-5.83v5.42v5.42v5.42v5.42v5.42v5.42v5.42h5.42h5.42h5.42h5.42h5.42h5.42h5.42h5.42h5.42v5.42h5.42h5.42h5.42h5.42
			h5.42h5.42h5.42h5.42h5.42h5.42h5.42v-5.42v-5.42v-5.42v-5.42v-5.42v-5.42v-5.42h-5.42L339.4,846.78L339.4,846.78z M311.48,846.78
			h5.42v5.42h-5.42V846.78z M295.23,863.87v5.42v5.42v5.42h-5.42l0,0v-0.42v-5.42v-5.42v-5.42v-5.42h5.42l0,0v0.42V863.87z
			 M261.48,841.78h5.42v5.42h-5.42V841.78z M250.65,880.53h-5.83h-5.42v-5.42v-5.42v-5.42v-5.42v-5.42h5.42h5.42h5.42v5.42v5.42
			v5.42v5.42v5.42H250.65z M261.48,880.53v-5.42v-5.42v-5.42v-5.42v-5.42h5.42v5.42v5.42v5.42v5.42v5.42H261.48z M272.73,880.53
			v-5.42v-5.42v-5.42v-5.42v-5.42h5.42h5.42v5.42v5.42v5.42v5.42v5.42v0.42h-5.42h-5.42V880.53z M300.65,885.95v-5.42v-5.42v-5.42
			v-5.42v-5.42v-0.42h5.42v5.42v5.42v5.42v5.42v5.42h-5.42V885.95z M311.48,885.95v-5.42v-5.42v-5.42v-5.42v-5.42h5.42v5.42v5.42
			v5.42v5.42v5.42H311.48z M339.4,863.45v5.42v5.42v5.42v5.42h-5.42h-5.42h-5.42v-5.42v-5.42v-5.42v-5.42v-5.42h5.42h5.42h5.42
			V863.45z"/>
		<polygon class="st21" points="333.99,841.37 333.99,835.53 328.15,835.53 322.73,835.53 322.73,841.37 328.15,841.37 		"/>
		<polygon class="st21" points="306.07,841.37 306.07,835.53 300.23,835.53 294.82,835.53 294.82,841.37 300.23,841.37 		"/>
		<g>
			<polygon class="st64" points="482.74,654.69 478.99,654.69 475.66,654.69 475.66,658.03 475.66,661.78 475.66,665.53 
				475.66,669.28 471.91,669.28 471.91,673.03 468.16,673.03 468.16,676.36 464.41,676.36 464.41,680.11 464.41,683.86 
				468.16,683.86 471.91,683.86 475.66,683.86 478.99,683.86 482.74,683.86 482.74,680.11 486.49,680.11 490.24,680.11 
				490.24,676.36 490.24,673.03 490.24,669.28 490.24,665.53 490.24,661.78 490.24,658.03 490.24,654.69 486.49,654.69 			"/>
			<polygon class="st64" points="532.74,654.69 528.99,654.69 525.66,654.69 525.66,658.03 525.66,661.78 525.66,665.53 
				525.66,669.28 521.91,669.28 521.91,673.03 518.16,673.03 518.16,676.36 514.82,676.36 514.82,680.11 514.82,683.86 
				518.16,683.86 521.91,683.86 525.66,683.86 528.99,683.86 532.74,683.86 532.74,680.11 536.49,680.11 539.82,680.11 
				539.82,676.36 539.82,673.03 539.82,669.28 539.82,665.53 539.82,661.78 539.82,658.03 539.82,654.69 536.49,654.69 			"/>
			<polygon class="st64" points="611.08,655.11 607.33,655.11 603.58,655.11 603.58,658.86 603.58,662.61 603.58,665.94 
				603.58,669.69 599.83,669.69 599.83,673.44 596.49,673.44 596.49,677.19 592.74,677.19 592.74,680.53 592.74,684.28 
				596.49,684.28 599.83,684.28 603.58,684.28 607.33,684.28 611.08,684.28 611.08,680.53 614.41,680.53 618.16,680.53 
				618.16,677.19 618.16,673.44 618.16,669.69 618.16,665.94 618.16,662.61 618.16,658.86 618.16,655.11 614.41,655.11 			"/>
			<polygon class="st64" points="663.58,655.94 659.83,655.94 656.08,655.94 652.74,655.94 652.74,659.28 652.74,663.03 
				652.74,666.78 652.74,670.53 648.99,670.53 648.99,673.86 645.24,673.86 645.24,677.61 641.91,677.61 641.91,681.36 
				641.91,685.11 645.24,685.11 648.99,685.11 652.74,685.11 656.08,685.11 659.83,685.11 659.83,681.36 663.58,681.36 
				667.33,681.36 667.33,677.61 667.33,673.86 667.33,670.53 667.33,666.78 667.33,663.03 667.33,659.28 667.33,655.94 			"/>
		</g>
		<polygon class="st65" points="464.41,676.36 461.07,676.36 461.07,680.11 461.07,683.86 464.41,683.86 464.41,680.11 		"/>
		<rect x="464.41" y="673.03" class="st65" width="3.75" height="3.75"/>
		<rect x="468.16" y="669.28" class="st65" width="3.75" height="3.75"/>
		<polygon class="st65" points="475.66,665.53 475.66,661.78 475.66,658.03 475.66,654.69 471.91,654.69 471.91,658.03 
			471.91,661.78 471.91,665.53 471.91,669.28 475.66,669.28 		"/>
		<polygon class="st65" points="475.66,683.86 471.91,683.86 468.16,683.86 464.41,683.86 464.41,687.19 468.16,687.19 
			471.91,687.19 475.66,687.19 478.99,687.19 482.74,687.19 482.74,683.86 478.99,683.86 		"/>
		<polygon class="st65" points="482.74,680.11 482.74,683.86 486.49,683.86 490.24,683.86 490.24,680.11 486.49,680.11 		"/>
		<polygon class="st65" points="490.24,658.03 490.24,661.78 490.24,665.53 490.24,669.28 490.24,673.03 490.24,676.36 
			490.24,680.11 493.57,680.11 493.57,676.36 493.57,673.03 493.57,669.28 493.57,665.53 493.57,661.78 493.57,658.03 
			493.57,654.69 490.24,654.69 		"/>
		<polygon class="st65" points="514.82,676.36 511.07,676.36 511.07,680.11 511.07,683.86 514.82,683.86 514.82,680.11 		"/>
		<rect x="514.82" y="673.03" class="st65" width="3.75" height="3.75"/>
		<rect x="518.16" y="669.28" class="st65" width="3.75" height="3.75"/>
		<polygon class="st65" points="525.66,665.53 525.66,661.78 525.66,658.03 525.66,654.69 521.91,654.69 521.91,658.03 
			521.91,661.78 521.91,665.53 521.91,669.28 525.66,669.28 		"/>
		<polygon class="st65" points="525.66,683.86 521.91,683.86 518.16,683.86 514.82,683.86 514.82,687.19 518.16,687.19 
			521.91,687.19 525.66,687.19 528.99,687.19 532.74,687.19 532.74,683.86 528.99,683.86 		"/>
		<polygon class="st65" points="532.74,680.11 532.74,683.86 536.49,683.86 539.82,683.86 539.82,680.11 536.49,680.11 		"/>
		<polygon class="st65" points="539.82,658.03 539.82,661.78 539.82,665.53 539.82,669.28 539.82,673.03 539.82,676.36 
			539.82,680.11 543.57,680.11 543.57,676.36 543.57,673.03 543.57,669.28 543.57,665.53 543.57,661.78 543.57,658.03 
			543.57,654.69 539.82,654.69 		"/>
		<polygon class="st65" points="592.74,677.19 588.99,677.19 588.99,680.53 588.99,684.28 592.74,684.28 592.74,680.53 		"/>
		<rect x="592.74" y="673.44" class="st65" width="3.75" height="3.75"/>
		<rect x="596.49" y="669.69" class="st65" width="3.75" height="3.75"/>
		<polygon class="st65" points="603.58,665.94 603.58,662.61 603.58,658.86 603.58,655.11 599.83,655.11 599.83,658.86 
			599.83,662.61 599.83,665.94 599.83,669.69 603.58,669.69 		"/>
		<polygon class="st65" points="603.58,684.28 599.83,684.28 596.49,684.28 592.74,684.28 592.74,688.03 596.49,688.03 
			599.83,688.03 603.58,688.03 607.33,688.03 611.08,688.03 611.08,684.28 607.33,684.28 		"/>
		<polygon class="st65" points="611.08,680.53 611.08,684.28 614.41,684.28 618.16,684.28 618.16,680.53 614.41,680.53 		"/>
		<polygon class="st65" points="618.16,658.86 618.16,662.61 618.16,665.94 618.16,669.69 618.16,673.44 618.16,677.19 
			618.16,680.53 621.91,680.53 621.91,677.19 621.91,673.44 621.91,669.69 621.91,665.94 621.91,662.61 621.91,658.86 
			621.91,655.11 618.16,655.11 		"/>
		<polygon class="st65" points="641.91,677.61 638.16,677.61 638.16,681.36 638.16,685.11 641.91,685.11 641.91,681.36 		"/>
		<rect x="641.91" y="673.86" class="st65" width="3.75" height="3.75"/>
		<rect x="645.24" y="670.53" class="st65" width="3.75" height="3.75"/>
		<polygon class="st65" points="652.74,666.78 652.74,663.03 652.74,659.28 652.74,655.94 648.99,655.94 648.99,659.28 
			648.99,663.03 648.99,666.78 648.99,670.53 652.74,670.53 		"/>
		<polygon class="st65" points="652.74,685.11 648.99,685.11 645.24,685.11 641.91,685.11 641.91,688.44 645.24,688.44 
			648.99,688.44 652.74,688.44 656.08,688.44 659.83,688.44 659.83,685.11 656.08,685.11 		"/>
		<polygon class="st65" points="659.83,681.36 659.83,685.11 663.58,685.11 667.33,685.11 667.33,681.36 663.58,681.36 		"/>
		<polygon class="st65" points="667.33,655.94 667.33,659.28 667.33,663.03 667.33,666.78 667.33,670.53 667.33,673.86 
			667.33,677.61 667.33,681.36 671.08,681.36 671.08,677.61 671.08,673.86 671.08,670.53 671.08,666.78 671.08,663.03 
			671.08,659.28 671.08,655.94 		"/>
		<g>
			<polygon class="st66" points="486.49,647.19 482.74,647.19 478.99,647.19 475.66,647.19 471.91,647.19 471.91,650.94 
				475.66,650.94 478.99,650.94 482.74,650.94 486.49,650.94 490.24,650.94 493.57,650.94 493.57,647.19 490.24,647.19 			"/>
			<polygon class="st66" points="536.49,647.19 532.74,647.19 528.99,647.19 525.66,647.19 521.91,647.19 521.91,650.94 
				525.66,650.94 528.99,650.94 532.74,650.94 536.49,650.94 539.82,650.94 543.57,650.94 543.57,647.19 539.82,647.19 			"/>
			<polygon class="st66" points="614.41,648.03 611.08,648.03 607.33,648.03 603.58,648.03 599.83,648.03 599.83,651.36 
				603.58,651.36 607.33,651.36 611.08,651.36 614.41,651.36 618.16,651.36 621.91,651.36 621.91,648.03 618.16,648.03 			"/>
			<polygon class="st66" points="667.33,648.44 663.58,648.44 659.83,648.44 656.08,648.44 652.74,648.44 648.99,648.44 
				648.99,652.19 652.74,652.19 656.08,652.19 659.83,652.19 663.58,652.19 667.33,652.19 671.08,652.19 671.08,648.44 			"/>
		</g>
		<g>
			<path class="st67" d="M490.24,643.86h-3.75h-3.75h-3.75h-3.75h-3.75h-3.75v3.75v3.75v3.75h3.75h3.75h3.75h3.75h3.75h3.75h3.75
				h3.75v-3.75v-3.75v-3.75h-3.75H490.24z M493.57,650.94h-3.33h-3.75h-3.75h-3.75h-3.75h-3.75v-3.75h3.75h3.75h3.75h3.75h3.75h3.75
				L493.57,650.94L493.57,650.94z"/>
			<path class="st67" d="M539.82,643.86h-3.75h-3.75h-3.75h-3.75h-3.75h-3.75v3.75v3.75v3.75h3.75h3.75h3.75h3.75h3.75h3.75h3.75
				h3.75v-3.75v-3.75v-3.75h-3.75H539.82z M543.57,650.94h-3.75h-3.75h-3.75h-3.75h-3.75h-3.75v-3.75h3.75h3.75h3.75h3.75h3.75h3.75
				V650.94z"/>
			<path class="st67" d="M618.16,644.28h-3.75h-3.75h-3.75h-3.75h-3.75h-3.75v3.75v3.75v3.75h3.75h3.75h3.75h3.75h3.75h3.75h3.75
				h3.75v-3.75v-3.75v-3.75h-3.75H618.16z M621.91,651.36h-3.75h-3.75h-3.75h-3.75h-3.75h-3.75v-3.75h3.75h3.75h3.75h3.75h3.75h3.75
				V651.36z"/>
			<path class="st67" d="M671.08,645.11h-3.75h-3.75h-3.75h-3.75h-3.33h-3.75h-3.75v3.75v3.75v3.75h3.75h3.75h3.75h3.75h3.75h3.75
				h3.75h3.75v-3.75v-3.75v-3.75H671.08z M671.08,652.19h-3.75h-3.75h-3.75h-3.75h-3.33h-3.75v-3.75h3.75h3.75h3.75h3.75h3.75h3.75
				v3.75H671.08z"/>
		</g>
		<g id="XMLID_38_">
			<g id="XMLID_39_">
				<g>
					<polygon class="st68" points="581.49,668.03 581.49,665.11 578.58,665.11 578.58,662.19 578.58,659.28 578.58,655.94 
						578.58,653.03 578.58,650.11 575.24,650.11 575.24,647.19 572.33,647.19 572.33,650.11 572.33,653.03 572.33,655.94 
						572.33,659.28 572.33,662.19 572.33,665.11 572.33,668.03 569.41,668.03 566.49,668.03 566.49,671.36 569.41,671.36 
						572.33,671.36 575.24,671.36 578.58,671.36 581.49,671.36 584.41,671.36 584.41,668.03 					"/>
					<polygon class="st69" points="569.41,644.28 569.41,647.19 566.49,647.19 566.49,650.11 569.41,650.11 569.41,653.03 
						572.33,653.03 572.33,650.11 572.33,647.19 572.33,644.28 					"/>
					<rect x="563.16" y="647.19" class="st36" width="2.92" height="2.92"/>
					<polygon class="st70" points="575.24,640.94 575.24,638.03 572.33,638.03 572.33,640.94 569.41,640.94 569.41,638.03 
						566.49,638.03 566.49,640.94 563.16,640.94 563.16,644.28 563.16,647.19 566.49,647.19 569.41,647.19 569.41,644.28 
						572.33,644.28 572.33,647.19 575.24,647.19 578.58,647.19 578.58,644.28 578.58,640.94 					"/>
					<g>
						<polygon class="st71" points="570.24,533.86 564.82,533.86 564.82,539.27 564.82,544.27 570.24,544.27 575.66,544.27 
							575.66,539.27 575.66,533.86 						"/>
						<polygon class="st71" points="569.41,650.11 566.49,650.11 563.16,650.11 563.16,653.03 563.16,655.94 563.16,659.28 
							563.16,662.19 563.16,665.11 560.24,665.11 560.24,668.03 557.32,668.03 557.32,671.36 560.24,671.36 563.16,671.36 
							566.49,671.36 566.49,668.03 569.41,668.03 572.33,668.03 572.33,665.11 572.33,662.19 572.33,659.28 572.33,655.94 
							572.33,653.03 569.41,653.03 						"/>
					</g>
				</g>
			</g>
		</g>
		<rect x="625.24" y="647.19" class="st40" width="20" height="6.25"/>
		<rect x="479.41" y="393.02" class="st72" width="175.84" height="230.01"/>
		<g>
			<polygon class="st73" points="633.99,580.53 628.16,580.53 621.91,580.53 621.91,586.78 616.08,586.78 616.08,593.03 
				621.91,593.03 628.16,593.03 633.99,593.03 640.24,593.03 640.24,586.78 640.24,580.53 			"/>
			<polygon class="st73" points="628.16,465.52 628.16,477.61 591.91,477.61 591.91,459.69 621.91,459.69 621.91,465.52 			"/>
			<polygon class="st73" points="603.99,550.52 597.74,550.52 597.74,556.36 597.74,562.61 603.99,562.61 609.83,562.61 
				609.83,556.36 603.99,556.36 			"/>
			<polygon class="st73" points="603.99,526.36 603.99,520.11 603.99,514.27 597.74,514.27 591.91,514.27 585.66,514.27 
				579.83,514.27 579.83,520.11 579.83,526.36 585.66,526.36 591.91,526.36 597.74,526.36 			"/>
			<polygon class="st73" points="591.91,605.11 591.91,623.03 567.74,623.03 567.74,593.03 585.66,593.03 585.66,605.11 			"/>
			<polygon class="st73" points="579.83,562.61 573.58,562.61 573.58,568.44 567.74,568.44 567.74,574.69 573.58,574.69 
				579.83,574.69 585.66,574.69 591.91,574.69 591.91,568.44 591.91,562.61 585.66,562.61 			"/>
			<polygon class="st73" points="537.32,556.36 531.07,556.36 531.07,562.61 537.32,562.61 543.16,562.61 549.41,562.61 
				549.41,556.36 543.16,556.36 			"/>
			<polygon class="st73" points="537.32,459.69 531.07,459.69 525.24,459.69 525.24,465.52 518.99,465.52 518.99,471.77 
				525.24,471.77 531.07,471.77 537.32,471.77 543.16,471.77 549.41,471.77 549.41,465.52 549.41,459.69 543.16,459.69 			"/>
			<polygon class="st73" points="531.07,550.52 531.07,544.27 537.32,544.27 537.32,538.44 531.07,538.44 525.24,538.44 
				518.99,538.44 513.16,538.44 513.16,544.27 513.16,550.52 513.16,556.36 518.99,556.36 518.99,550.52 518.99,544.27 
				525.24,544.27 525.24,550.52 			"/>
			<rect x="494.82" y="605.11" class="st73" width="18.33" height="18.33"/>
			<polygon class="st73" points="513.16,447.6 513.16,459.69 494.82,459.69 494.82,453.44 506.91,453.44 506.91,447.6 			"/>
			<rect x="488.99" y="441.35" class="st73" width="18.33" height="12.08"/>
			<polygon class="st73" points="488.99,483.86 488.99,501.77 479.41,501.77 479.41,495.94 482.74,495.94 482.74,495.94 
				479.41,495.94 479.41,483.86 			"/>
		</g>
		<g id="XMLID_31_">
			<g>
				<polygon class="st74" points="575.66,523.44 575.66,528.44 575.66,533.86 580.66,533.86 580.66,528.44 580.66,523.44 				"/>
				<polygon class="st74" points="559.41,528.44 559.41,533.86 564.82,533.86 564.82,528.44 564.82,523.44 559.41,523.44 				"/>
			</g>
			<g>
				<rect x="586.08" y="565.52" class="st75" width="5.42" height="5.42"/>
				<rect x="586.08" y="539.27" class="st75" width="5.42" height="5.42"/>
				<rect x="580.66" y="560.11" class="st75" width="5.42" height="5.42"/>
				<rect x="580.66" y="544.27" class="st75" width="5.42" height="5.42"/>
				<polygon class="st75" points="580.66,533.86 586.08,533.86 586.08,528.44 586.08,523.44 580.66,523.44 580.66,528.44 				"/>
				<rect x="575.66" y="518.02" class="st75" width="5.42" height="5.42"/>
				<polygon class="st75" points="564.82,570.94 564.82,575.94 564.82,581.36 570.24,581.36 575.66,581.36 575.66,575.94 
					575.66,570.94 570.24,570.94 				"/>
				<polygon class="st75" points="564.82,523.44 564.82,528.44 564.82,533.86 570.24,533.86 575.66,533.86 575.66,528.44 
					575.66,523.44 570.24,523.44 				"/>
				<rect x="559.41" y="518.02" class="st75" width="5.42" height="5.42"/>
				<rect x="554.41" y="560.11" class="st75" width="5.42" height="5.42"/>
				<rect x="554.41" y="544.27" class="st75" width="5.42" height="5.42"/>
				<polygon class="st75" points="554.41,528.44 554.41,533.86 559.41,533.86 559.41,528.44 559.41,523.44 554.41,523.44 				"/>
				<rect x="548.99" y="565.52" class="st75" width="5.42" height="5.42"/>
				<rect x="548.99" y="539.27" class="st75" width="5.42" height="5.42"/>
			</g>
			<g>
				<polygon class="st76" points="591.49,549.69 591.49,544.27 586.08,544.27 586.08,549.69 586.08,555.11 586.08,560.11 
					586.08,565.52 591.49,565.52 591.49,560.11 596.49,560.11 596.49,555.11 596.49,549.69 				"/>
				<polygon class="st76" points="586.08,533.86 580.66,533.86 575.66,533.86 575.66,539.27 575.66,544.27 580.66,544.27 
					586.08,544.27 586.08,539.27 				"/>
				<polygon class="st76" points="575.66,565.52 575.66,570.94 575.66,575.94 580.66,575.94 586.08,575.94 586.08,570.94 
					586.08,565.52 580.66,565.52 				"/>
				<polygon class="st76" points="554.41,575.94 559.41,575.94 559.41,581.36 564.82,581.36 564.82,575.94 564.82,570.94 
					564.82,565.52 559.41,565.52 554.41,565.52 554.41,570.94 				"/>
				<polygon class="st76" points="554.41,533.86 554.41,539.27 554.41,544.27 559.41,544.27 564.82,544.27 564.82,539.27 
					564.82,533.86 559.41,533.86 				"/>
				<polygon class="st76" points="548.99,549.69 543.57,549.69 543.57,555.11 543.57,560.11 548.99,560.11 548.99,565.52 
					554.41,565.52 554.41,560.11 554.41,555.11 554.41,549.69 554.41,544.27 548.99,544.27 				"/>
			</g>
			<g>
				<polygon class="st77" points="596.49,549.69 596.49,555.11 596.49,560.11 601.91,560.11 601.91,555.11 601.91,549.69 				"/>
				<polygon class="st77" points="591.49,565.52 591.49,570.94 596.49,570.94 596.49,565.52 596.49,560.11 591.49,560.11 				"/>
				<polygon class="st77" points="596.49,539.27 591.49,539.27 591.49,544.27 591.49,549.69 596.49,549.69 596.49,544.27 				"/>
				<rect x="586.08" y="570.94" class="st77" width="5.42" height="5.42"/>
				<rect x="586.08" y="533.86" class="st77" width="5.42" height="5.42"/>
				<polygon class="st77" points="575.66,575.94 575.66,581.36 570.24,581.36 564.82,581.36 559.41,581.36 559.41,575.94 
					554.41,575.94 554.41,581.36 554.41,586.78 559.41,586.78 564.82,586.78 570.24,586.78 575.66,586.78 580.66,586.78 
					580.66,581.36 586.08,581.36 586.08,575.94 580.66,575.94 				"/>
				<rect x="548.99" y="570.94" class="st77" width="5.42" height="5.42"/>
				<rect x="548.99" y="533.86" class="st77" width="5.42" height="5.42"/>
				<polygon class="st77" points="548.99,560.11 543.57,560.11 543.57,565.52 543.57,570.94 548.99,570.94 548.99,565.52 				"/>
				<polygon class="st77" points="548.99,544.27 548.99,539.27 543.57,539.27 543.57,544.27 543.57,549.69 548.99,549.69 				"/>
				<polygon class="st77" points="543.57,549.69 538.57,549.69 538.57,555.11 538.57,560.11 543.57,560.11 543.57,555.11 				"/>
			</g>
		</g>
		<polygon id="alev-u2" class="st34" points="525.24,750.53 525.24,762.61 518.99,762.61 518.99,756.36 513.16,756.36 
			513.16,750.53 		"/>
		<rect x="579.83" y="783.45" class="st35" width="6.25" height="6.25"/>
		<rect x="597.74" y="783.45" class="st35" width="9.17" height="6.25"/>
		<polygon id="alev-beyaz" class="st78" points="603.99,762.61 603.99,792.61 597.74,792.61 597.74,786.78 573.58,786.78 
			573.58,792.61 537.32,792.61 537.32,780.53 531.07,780.53 531.07,750.11 555.24,750.11 555.24,744.28 561.49,744.28 561.49,732.2 
			567.74,732.2 567.74,738.03 573.58,738.03 573.58,756.36 579.83,756.36 579.83,762.61 585.66,762.61 585.66,750.11 591.91,750.11 
			591.91,756.36 597.74,756.36 597.74,762.61 		"/>
		<polygon id="alev-krem" class="st79" points="579.83,768.45 579.83,762.61 573.58,762.61 567.74,762.61 567.74,756.36 
			567.74,750.11 561.49,750.11 561.49,756.36 555.24,756.36 555.24,762.61 549.41,762.61 549.41,768.45 549.41,774.7 549.41,780.53 
			555.24,780.53 561.49,780.53 561.49,786.78 567.74,786.78 573.58,786.78 573.58,780.53 579.83,780.53 585.66,780.53 585.66,774.7 
			585.66,768.45 		"/>
		<polygon class="st80" points="623.16,798.45 623.16,815.11 599.83,815.11 599.83,831.78 587.74,831.78 587.74,848.45 
			540.66,848.45 540.66,831.78 528.99,831.78 528.99,815.11 517.32,815.11 517.32,798.45 		"/>
	</g>
</g>
<g>
	<polygon class="st81" points="269.63,340.96 264.82,340.96 260,340.96 255.19,340.96 250.37,340.96 250.37,345.24 245.56,345.24 
		240.74,345.24 235.93,345.24 231.11,345.24 226.3,345.24 221.48,345.24 216.67,345.24 211.85,345.24 207.04,345.24 207.04,350.05 
		211.85,350.05 216.67,350.05 216.67,354.33 221.48,354.33 221.48,358.61 221.48,362.89 221.48,367.7 226.3,367.7 226.3,371.98 
		231.11,371.98 235.93,371.98 235.93,376.26 235.93,380.54 240.74,380.54 245.56,380.54 245.56,385.36 250.37,385.36 250.37,380.54 
		255.19,380.54 255.19,376.26 255.19,371.98 260,371.98 260,367.7 260,362.89 264.82,362.89 264.82,358.61 264.82,354.33 
		269.63,354.33 269.63,350.05 269.63,345.24 273.91,345.24 273.91,340.96 	"/>
	<rect x="202.22" y="416.39" class="st82" width="4.81" height="4.28"/>
	<polygon class="st83" points="216.67,403.01 216.67,398.73 211.85,398.73 211.85,394.45 207.04,394.45 207.04,398.73 
		207.04,403.01 207.04,407.29 207.04,412.11 202.22,412.11 202.22,416.39 207.04,416.39 211.85,416.39 211.85,412.11 216.67,412.11 
		216.67,407.29 221.48,407.29 221.48,403.01 	"/>
	<polygon class="st84" points="202.22,394.45 202.22,398.73 202.22,403.01 202.22,407.29 202.22,412.11 207.04,412.11 
		207.04,407.29 207.04,403.01 207.04,398.73 207.04,394.45 	"/>
	<g>
		<polygon class="st85" points="240.74,380.54 235.93,380.54 235.93,376.26 235.93,371.98 231.11,371.98 226.3,371.98 226.3,367.7 
			221.48,367.7 221.48,371.98 221.48,376.26 221.48,380.54 221.48,385.36 221.48,389.64 221.48,394.45 226.3,394.45 226.3,389.64 
			231.11,389.64 235.93,389.64 240.74,389.64 245.56,389.64 245.56,385.36 245.56,380.54 		"/>
		<polygon class="st85" points="207.04,362.89 202.22,362.89 202.22,367.7 202.22,371.98 202.22,376.26 202.22,380.54 
			207.04,380.54 207.04,376.26 211.85,376.26 211.85,371.98 211.85,367.7 207.04,367.7 		"/>
	</g>
	<g>
		<polygon class="st86" points="216.67,354.33 216.67,350.05 211.85,350.05 207.04,350.05 202.22,350.05 202.22,354.33 
			202.22,358.61 202.22,362.89 207.04,362.89 207.04,367.7 211.85,367.7 211.85,371.98 211.85,376.26 207.04,376.26 207.04,380.54 
			202.22,380.54 202.22,385.36 202.22,389.64 202.22,394.45 207.04,394.45 211.85,394.45 216.67,394.45 221.48,394.45 
			221.48,389.64 221.48,385.36 221.48,380.54 221.48,376.26 221.48,371.98 221.48,367.7 221.48,362.89 221.48,358.61 221.48,354.33 
					"/>
		<rect x="211.85" y="412.11" class="st86" width="4.81" height="4.28"/>
	</g>
	<rect x="192.6" y="416.39" class="st82" width="4.81" height="4.28"/>
	<polygon class="st87" points="197.41,362.89 197.41,367.7 192.6,367.7 192.6,371.98 192.6,376.26 197.41,376.26 197.41,380.54 
		202.22,380.54 202.22,376.26 202.22,371.98 202.22,367.7 202.22,362.89 	"/>
	<g>
		<rect x="197.41" y="416.39" class="st88" width="4.81" height="4.28"/>
		<polygon class="st88" points="197.41,350.05 192.6,350.05 188.32,350.05 188.32,354.33 183.5,354.33 183.5,358.61 183.5,362.89 
			183.5,367.7 183.5,371.98 183.5,376.26 183.5,380.54 183.5,385.36 183.5,389.64 183.5,394.45 188.32,394.45 192.6,394.45 
			197.41,394.45 202.22,394.45 202.22,389.64 202.22,385.36 202.22,380.54 197.41,380.54 197.41,376.26 192.6,376.26 192.6,371.98 
			192.6,367.7 197.41,367.7 197.41,362.89 202.22,362.89 202.22,358.61 202.22,354.33 202.22,350.05 		"/>
		<rect x="188.32" y="412.11" class="st88" width="4.81" height="4.28"/>
	</g>
	<rect x="211.85" y="340.96" class="st21" width="4.81" height="4.28"/>
	<polygon class="st21" points="207.04,336.68 207.04,331.86 202.22,331.86 202.22,327.58 197.41,327.58 192.6,327.58 188.32,327.58 
		183.5,327.58 183.5,331.86 188.32,331.86 192.6,331.86 192.6,336.68 197.41,336.68 202.22,336.68 202.22,340.96 207.04,340.96 
		211.85,340.96 211.85,336.68 	"/>
	<polygon class="st89" points="178.69,367.7 178.69,371.98 173.87,371.98 169.06,371.98 169.06,376.26 169.06,380.54 164.24,380.54 
		159.43,380.54 159.43,385.36 159.43,389.64 164.24,389.64 169.06,389.64 173.87,389.64 178.69,389.64 178.69,394.45 183.5,394.45 
		183.5,389.64 183.5,385.36 183.5,380.54 183.5,376.26 183.5,371.98 183.5,367.7 	"/>
	<g>
		<polygon class="st90" points="192.6,394.45 192.6,398.73 188.32,398.73 188.32,403.01 183.5,403.01 183.5,407.29 188.32,407.29 
			188.32,412.11 192.6,412.11 192.6,416.39 197.41,416.39 197.41,412.11 197.41,407.29 197.41,403.01 197.41,398.73 197.41,394.45 
					"/>
		<polygon class="st90" points="183.5,362.89 183.5,358.61 183.5,354.33 188.32,354.33 188.32,350.05 188.32,345.24 183.5,345.24 
			178.69,345.24 173.87,345.24 169.06,345.24 164.24,345.24 159.43,345.24 154.61,345.24 154.61,340.96 149.8,340.96 144.98,340.96 
			140.17,340.96 135.35,340.96 130.54,340.96 130.54,345.24 135.35,345.24 135.35,350.05 140.17,350.05 140.17,354.33 
			140.17,358.61 144.98,358.61 144.98,362.89 144.98,367.7 149.8,367.7 149.8,371.98 154.61,371.98 154.61,376.26 154.61,380.54 
			154.61,385.36 159.43,385.36 159.43,380.54 164.24,380.54 169.06,380.54 169.06,376.26 169.06,371.98 173.87,371.98 
			178.69,371.98 178.69,367.7 183.5,367.7 		"/>
	</g>
	<polygon class="st65" points="202.22,340.96 202.22,336.68 197.41,336.68 192.6,336.68 192.6,340.96 192.6,345.24 188.32,345.24 
		188.32,350.05 192.6,350.05 197.41,350.05 202.22,350.05 207.04,350.05 207.04,345.24 211.85,345.24 211.85,340.96 207.04,340.96 	
		"/>
	<polygon class="st65" points="197.41,398.73 197.41,403.01 197.41,407.29 197.41,412.11 197.41,416.39 202.22,416.39 
		202.22,412.11 202.22,407.29 202.22,403.01 202.22,398.73 202.22,394.45 197.41,394.45 	"/>
</g>
</svg>
