<svg version="1" xmlns="http://www.w3.org/2000/svg" width="1200" height="1200" viewBox="0 0 900.000000 900.000000"><path d="M339.5 120.7c30.3 15.1 55.2 27.7 55.4 27.9.2.2-7 18.6-15.9 40.9-14.3 35.8-16.5 40.5-18.4 40.5-1.1 0-82.6-9-181.1-19.9C81.1 199.2.4 190.3.2 190.5c-.2.2 33.7 68.2 75.2 151.3 48.8 97.6 76.3 151.6 77.8 152.7 1.3.8 34.9 12.5 74.8 25.8l72.5 24.1 44.3.6 44.2.5-46.5 46.5c-25.6 25.6-46.5 46.7-46.5 47 0 .3 11.5 8.7 25.5 18.5l25.4 18 .1 34.2c0 24.8.3 34.3 1.1 34.3.6 0 11.7-6.1 24.6-13.5 12.9-7.4 23.6-13.5 23.9-13.5.2 0 .4 11.7.4 26s.2 26 .4 26c.3 0 9.1-5.4 19.6-12 10.5-6.6 19.4-12 19.8-12 .4 0 3.4 13.4 6.6 29.7 3.3 16.4 6.2 30.7 6.6 31.8.8 2.3.5 3.7 8.2-34.7 2.9-14.8 5.6-26.8 6-26.8.4 0 9.3 5.4 19.8 12s19.3 12 19.6 12c.2 0 .4-11.7.4-26s.2-26 .5-26 11.2 6.1 24.1 13.5c13 7.4 24 13.5 24.5 13.5s.9-14.8.9-34.3v-34.2l24.6-17.5c13.5-9.6 25.1-17.8 25.8-18.2.7-.5-16.5-18.4-45.9-47.8l-47-47H597.2l74.1-24.5c40.7-13.5 75.1-25.2 76.4-26 1.6-1.1 25.9-48.8 77.3-151.5 41.3-82.5 75-150.6 75-151.4 0-1-1-1.3-3.7-.9-2.1.2-75.7 8.4-163.6 18.2l-159.9 17.7-42.3-47.1c-23.3-26-45.4-50-49.2-53.4-12.9-11.9-28.3-20.8-45.6-26.6-19.1-6.3-22.3-6.5-90.1-6.4h-61.1l55 27.6zm84.7-15c18.8 5 37.3 14.8 50.6 26.8 4.9 4.4 74.2 80.9 74.2 81.9 0 .5-175.8-86.9-206-102.4l-19.5-10 44.5.3 44.5.3 11.7 3.1zm129.5 122.7c.4.3-101.8 11.3-116.8 12.6-20 1.7-36.4 6.3-54.2 15.1-9.7 4.9-20 11.2-24.6 15.3-1.3 1.2-2.2 1.6-2 .9.2-.6 11-27.7 23.9-60.1l23.4-59 75.1 37.5c41.2 20.6 75.1 37.6 75.2 37.7zM189 220.5c92.1 10.2 168 18.6 168.7 18.8.7.1-2.7 9.7-8.5 24.3-8.9 22.1-10.2 24.8-15.8 31.5-20.6 25.1-32.4 54.3-35 86.3l-.7 8.9-69.7 46.3c-38.4 25.5-70.2 46.4-70.7 46.4C156.7 483 16 203 16 201.7c0-.2 1.2-.2 2.8 0 1.5.2 78.1 8.7 170.2 18.8zm625.8 121.9C776.1 419.7 744.1 483 743.6 483s-32.2-20.9-70.6-46.4l-69.7-46.4-.7-8.8c-4.3-54.1-35.9-101-84.1-124.9-7.1-3.6-16.4-7.6-20.5-8.9-4.1-1.4-6.6-2.5-5.5-2.6 1.1-.1 89.8-9.9 197-21.9 107.3-12 195.1-21.7 195.3-21.5.2.1-31.3 63.5-70 140.8zM481 252.8c55.6 13.1 96.4 54.1 109.6 110.2 1.6 6.8 1.8 15.5 2.1 89.7l.4 82.3H307.9l.4-82.3c.3-79.5.4-82.5 2.4-90.7 3.4-13.5 6-20.7 12.3-33.5 19.6-39.7 58-68.5 102-76.5 14.1-2.6 43.1-2.2 56 .8zM298 467.5c0 36-.3 65.5-.8 65.5-.4 0-30.1-9.8-66-21.8l-65.4-21.8 65.4-43.6c35.9-24 65.6-43.7 66.1-43.7.4-.1.7 29.4.7 65.4zm371.6-21.8l65.6 43.7-65.4 21.8c-35.9 12-65.6 21.8-66 21.8-.5 0-.8-29.5-.8-65.5s.2-65.5.5-65.5 30 19.7 66.1 43.7zM493.5 547.2c-.3 1.3-10.2 50-21.8 108.3l-21.3 106.1L429 654.5c-11.7-58.8-21.5-107.6-21.8-108.3-.3-.9 8.7-1.2 43.2-1.2H494l-.5 2.2zm-77.4 91.4c9.7 48.1 17.1 87 16.5 86.6-.9-.8-27.4-19.6-103.4-73.5-10.1-7.1-18.2-13.3-18-13.8.6-1.8 86.1-88 86.7-87.4.3.4 8.5 40 18.2 88.1zm131.3-44.7l43.8 43.8-58.9 41.8c-32.3 23-60.2 42.9-61.9 44.2l-3.1 2.3 17.6-88c9.7-48.4 17.8-88 18.1-88 .3 0 20.2 19.7 44.4 43.9zM392 708.4c0 .5-33.6 19.6-34.4 19.6-.3 0-.6-10.1-.6-22.5V683l17.5 12.6c9.6 6.9 17.5 12.7 17.5 12.8zm151.6 19.3c-.2.2-8.1-4-17.5-9.3-13.6-7.8-16.8-10.1-15.9-11.1.7-.6 8.5-6.3 17.3-12.6l16-11.4.3 22c.1 12.1.1 22.2-.2 22.4zm-120.1 2.7c4.4 3.2 7.9 6 7.8 6.3-.1.2-5.8 4-12.7 8.3l-12.6 7.9v-35.1l4.8 3.5c2.6 1.9 8.3 6 12.7 9.1zm71.3 13.4l-.3 8.9-12-7.6c-6.6-4.2-12.3-7.9-12.5-8.3-.3-.5 5.1-4.8 12-9.7l12.5-9 .3 8.4c.1 4.6.1 12.4 0 17.3z"/><path d="M442.5 326.7c-21.9 3.4-40.8 16.6-50.2 34.8-5.7 11.1-7.6 18.9-7.6 31 0 18.4 6.2 33.5 19.4 46.6 12.4 12.6 28.5 19.2 46.4 19.2 11.1 0 18.5-1.7 29.4-7 7.7-3.7 10.8-5.9 17-12.2 13.2-13.1 19.4-28.2 19.4-46.6 0-12.1-1.9-19.9-7.6-31-8-15.5-24.5-28.6-41.5-32.9-6.6-1.8-19.6-2.8-24.7-1.9zm22 10.8c20.4 5.3 36 21.1 41.1 41.5 2.4 9.5 1.5 24.3-2 33.4-8.5 22.2-29.4 36.6-53.1 36.6-23.7 0-44.6-14.4-53.1-36.6-3.5-9.1-4.4-23.9-2-33.4 5.1-20.1 20.8-36.2 40.6-41.4 7.3-1.9 21.2-2 28.5-.1z"/></svg>